                                                                        S0000001
,,31HOpen CASCADE IGES processor 7.9,13HFilename.iges,                  G0000001
16HOpen CASCADE 7.9,31HOpen CASCADE IGES processor 7.9,32,308,15,308,15,G0000002
,1.,2,2HMM,1,0.01,15H20260925.045045,1E-07,56.,4Hroot,,11,0,            G0000003
15H20260925.045045,;                                                    G0000004
     186       1       0       0       0       0       0       000000000D0000001
     186       0       0       1       0                               0D0000002
     514       2       0       0       0       0       0       000010000D0000003
     514       0       0       2       1                               0D0000004
     510       4       0       0       0       0       0       000010000D0000005
     510       0       0       1       1                               0D0000006
     190       5       0       0       0       0       0       000010000D0000007
     190       0       0       1       1                               0D0000008
     116       6       0       0       0       0       0       000010400D0000009
     116       0       0       1       0                               0D0000010
     123       7       0       0       0       0       0       000010200D0000011
     123       0       0       1       0                               0D0000012
     123       8       0       0       0       0       0       000010200D0000013
     123       0       0       1       0                               0D0000014
     508       9       0       0       0       0       0       000010000D0000015
     508       0       0       1       1                               0D0000016
     504      10       0       0       0       0       0       000010001D0000017
     504       0       0       8       1                               0D0000018
     110      18       0       0       0       0       0       000010000D0000019
     110       0       0       1       0                               0D0000020
     502      19       0       0       0       0       0       000010000D0000021
     502       0       0       6       1                               0D0000022
     110      25       0       0       0       0       0       000010000D0000023
     110       0       0       1       0                               0D0000024
     110      26       0       0       0       0       0       000010000D0000025
     110       0       0       1       0                               0D0000026
     110      27       0       0       0       0       0       000010000D0000027
     110       0       0       1       0                               0D0000028
     110      28       0       0       0       0       0       000010000D0000029
     110       0       0       1       0                               0D0000030
     110      29       0       0       0       0       0       000010000D0000031
     110       0       0       1       0                               0D0000032
     110      30       0       0       0       0       0       000010000D0000033
     110       0       0       1       0                               0D0000034
     110      31       0       0       0       0       0       000010000D0000035
     110       0       0       1       0                               0D0000036
     110      32       0       0       0       0       0       000010000D0000037
     110       0       0       1       0                               0D0000038
     110      33       0       0       0       0       0       000010000D0000039
     110       0       0       1       0                               0D0000040
     110      34       0       0       0       0       0       000010000D0000041
     110       0       0       1       0                               0D0000042
     110      35       0       0       0       0       0       000010000D0000043
     110       0       0       1       0                               0D0000044
     110      36       0       0       0       0       0       000010000D0000045
     110       0       0       1       0                               0D0000046
     110      37       0       0       0       0       0       000010000D0000047
     110       0       0       1       0                               0D0000048
     110      38       0       0       0       0       0       000010000D0000049
     110       0       0       1       0                               0D0000050
     110      39       0       0       0       0       0       000010000D0000051
     110       0       0       1       0                               0D0000052
     110      40       0       0       0       0       0       000010000D0000053
     110       0       0       1       0                               0D0000054
     110      41       0       0       0       0       0       000010000D0000055
     110       0       0       1       0                               0D0000056
     110      42       0       0       0       0       0       000010000D0000057
     110       0       0       1       0                               0D0000058
     110      43       0       0       0       0       0       000010000D0000059
     110       0       0       1       0                               0D0000060
     110      44       0       0       0       0       0       000010000D0000061
     110       0       0       1       0                               0D0000062
     110      45       0       0       0       0       0       000010000D0000063
     110       0       0       1       0                               0D0000064
     110      46       0       0       0       0       0       000010000D0000065
     110       0       0       1       0                               0D0000066
     110      47       0       0       0       0       0       000010000D0000067
     110       0       0       1       0                               0D0000068
     100      48       0       0       0       0      71       000010000D0000069
     100       0       0       1       0                               0D0000070
     124      49       0       0       0       0       0       000000000D0000071
     124       0       0       1       0                               0D0000072
     110      50       0       0       0       0       0       000010000D0000073
     110       0       0       1       0                               0D0000074
     110      51       0       0       0       0       0       000010000D0000075
     110       0       0       1       0                               0D0000076
     110      52       0       0       0       0       0       000010000D0000077
     110       0       0       1       0                               0D0000078
     100      53       0       0       0       0      81       000010000D0000079
     100       0       0       1       0                               0D0000080
     124      54       0       0       0       0       0       000000000D0000081
     124       0       0       1       0                               0D0000082
     110      55       0       0       0       0       0       000010000D0000083
     110       0       0       1       0                               0D0000084
     110      56       0       0       0       0       0       000010000D0000085
     110       0       0       1       0                               0D0000086
     100      57       0       0       0       0      89       000010000D0000087
     100       0       0       1       0                               0D0000088
     124      58       0       0       0       0       0       000000000D0000089
     124       0       0       1       0                               0D0000090
     100      59       0       0       0       0      93       000010000D0000091
     100       0       0       1       0                               0D0000092
     124      60       0       0       0       0       0       000000000D0000093
     124       0       0       1       0                               0D0000094
     110      61       0       0       0       0       0       000010000D0000095
     110       0       0       1       0                               0D0000096
     110      62       0       0       0       0       0       000010000D0000097
     110       0       0       1       0                               0D0000098
     510      63       0       0       0       0       0       000010000D0000099
     510       0       0       1       1                               0D0000100
     190      64       0       0       0       0       0       000010000D0000101
     190       0       0       1       1                               0D0000102
     116      65       0       0       0       0       0       000010400D0000103
     116       0       0       1       0                               0D0000104
     123      66       0       0       0       0       0       000010200D0000105
     123       0       0       1       0                               0D0000106
     123      67       0       0       0       0       0       000010200D0000107
     123       0       0       1       0                               0D0000108
     508      68       0       0       0       0       0       000010000D0000109
     508       0       0       1       1                               0D0000110
     510      69       0       0       0       0       0       000010000D0000111
     510       0       0       1       1                               0D0000112
     190      70       0       0       0       0       0       000010000D0000113
     190       0       0       1       1                               0D0000114
     116      71       0       0       0       0       0       000010400D0000115
     116       0       0       1       0                               0D0000116
     123      72       0       0       0       0       0       000010200D0000117
     123       0       0       1       0                               0D0000118
     123      73       0       0       0       0       0       000010200D0000119
     123       0       0       1       0                               0D0000120
     508      74       0       0       0       0       0       000010000D0000121
     508       0       0       1       1                               0D0000122
     510      75       0       0       0       0       0       000010000D0000123
     510       0       0       1       1                               0D0000124
     190      76       0       0       0       0       0       000010000D0000125
     190       0       0       1       1                               0D0000126
     116      77       0       0       0       0       0       000010400D0000127
     116       0       0       1       0                               0D0000128
     123      78       0       0       0       0       0       000010200D0000129
     123       0       0       1       0                               0D0000130
     123      79       0       0       0       0       0       000010200D0000131
     123       0       0       1       0                               0D0000132
     508      80       0       0       0       0       0       000010000D0000133
     508       0       0       1       1                               0D0000134
     510      81       0       0       0       0       0       000010000D0000135
     510       0       0       1       1                               0D0000136
     190      82       0       0       0       0       0       000010000D0000137
     190       0       0       1       1                               0D0000138
     116      83       0       0       0       0       0       000010400D0000139
     116       0       0       1       0                               0D0000140
     123      84       0       0       0       0       0       000010200D0000141
     123       0       0       1       0                               0D0000142
     123      85       0       0       0       0       0       000010200D0000143
     123       0       0       1       0                               0D0000144
     508      86       0       0       0       0       0       000010000D0000145
     508       0       0       1       1                               0D0000146
     510      87       0       0       0       0       0       000010000D0000147
     510       0       0       1       1                               0D0000148
     190      88       0       0       0       0       0       000010000D0000149
     190       0       0       1       1                               0D0000150
     116      89       0       0       0       0       0       000010400D0000151
     116       0       0       1       0                               0D0000152
     123      90       0       0       0       0       0       000010200D0000153
     123       0       0       1       0                               0D0000154
     123      91       0       0       0       0       0       000010200D0000155
     123       0       0       1       0                               0D0000156
     508      92       0       0       0       0       0       000010000D0000157
     508       0       0       1       1                               0D0000158
     510      93       0       0       0       0       0       000010000D0000159
     510       0       0       1       1                               0D0000160
     190      94       0       0       0       0       0       000010000D0000161
     190       0       0       1       1                               0D0000162
     116      95       0       0       0       0       0       000010400D0000163
     116       0       0       1       0                               0D0000164
     123      96       0       0       0       0       0       000010200D0000165
     123       0       0       1       0                               0D0000166
     123      97       0       0       0       0       0       000010200D0000167
     123       0       0       1       0                               0D0000168
     508      98       0       0       0       0       0       000010000D0000169
     508       0       0       1       1                               0D0000170
     510      99       0       0       0       0       0       000010000D0000171
     510       0       0       1       1                               0D0000172
     190     100       0       0       0       0       0       000010000D0000173
     190       0       0       1       1                               0D0000174
     116     101       0       0       0       0       0       000010400D0000175
     116       0       0       1       0                               0D0000176
     123     102       0       0       0       0       0       000010200D0000177
     123       0       0       1       0                               0D0000178
     123     103       0       0       0       0       0       000010200D0000179
     123       0       0       1       0                               0D0000180
     508     104       0       0       0       0       0       000010000D0000181
     508       0       0       1       1                               0D0000182
     510     105       0       0       0       0       0       000010000D0000183
     510       0       0       1       1                               0D0000184
     190     106       0       0       0       0       0       000010000D0000185
     190       0       0       1       1                               0D0000186
     116     107       0       0       0       0       0       000010400D0000187
     116       0       0       1       0                               0D0000188
     123     108       0       0       0       0       0       000010200D0000189
     123       0       0       1       0                               0D0000190
     123     109       0       0       0       0       0       000010200D0000191
     123       0       0       1       0                               0D0000192
     508     110       0       0       0       0       0       000010000D0000193
     508       0       0       1       1                               0D0000194
     508     111       0       0       0       0       0       000010000D0000195
     508       0       0       1       1                               0D0000196
     510     112       0       0       0       0       0       000010000D0000197
     510       0       0       1       1                               0D0000198
     190     113       0       0       0       0       0       000010000D0000199
     190       0       0       1       1                               0D0000200
     116     114       0       0       0       0       0       000010400D0000201
     116       0       0       1       0                               0D0000202
     123     115       0       0       0       0       0       000010200D0000203
     123       0       0       1       0                               0D0000204
     123     116       0       0       0       0       0       000010200D0000205
     123       0       0       1       0                               0D0000206
     508     117       0       0       0       0       0       000010000D0000207
     508       0       0       1       1                               0D0000208
     510     118       0       0       0       0       0       000010000D0000209
     510       0       0       1       1                               0D0000210
     190     119       0       0       0       0       0       000010000D0000211
     190       0       0       1       1                               0D0000212
     116     120       0       0       0       0       0       000010400D0000213
     116       0       0       1       0                               0D0000214
     123     121       0       0       0       0       0       000010200D0000215
     123       0       0       1       0                               0D0000216
     123     122       0       0       0       0       0       000010200D0000217
     123       0       0       1       0                               0D0000218
     508     123       0       0       0       0       0       000010000D0000219
     508       0       0       1       1                               0D0000220
     508     124       0       0       0       0       0       000010000D0000221
     508       0       0       1       1                               0D0000222
     510     125       0       0       0       0       0       000010000D0000223
     510       0       0       1       1                               0D0000224
     190     126       0       0       0       0       0       000010000D0000225
     190       0       0       1       1                               0D0000226
     116     127       0       0       0       0       0       000010400D0000227
     116       0       0       1       0                               0D0000228
     123     128       0       0       0       0       0       000010200D0000229
     123       0       0       1       0                               0D0000230
     123     129       0       0       0       0       0       000010200D0000231
     123       0       0       1       0                               0D0000232
     508     130       0       0       0       0       0       000010000D0000233
     508       0       0       1       1                               0D0000234
     510     131       0       0       0       0       0       000010000D0000235
     510       0       0       1       1                               0D0000236
     190     132       0       0       0       0       0       000010000D0000237
     190       0       0       1       1                               0D0000238
     116     133       0       0       0       0       0       000010400D0000239
     116       0       0       1       0                               0D0000240
     123     134       0       0       0       0       0       000010200D0000241
     123       0       0       1       0                               0D0000242
     123     135       0       0       0       0       0       000010200D0000243
     123       0       0       1       0                               0D0000244
     508     136       0       0       0       0       0       000010000D0000245
     508       0       0       1       1                               0D0000246
     510     137       0       0       0       0       0       000010000D0000247
     510       0       0       1       1                               0D0000248
     190     138       0       0       0       0       0       000010000D0000249
     190       0       0       1       1                               0D0000250
     116     139       0       0       0       0       0       000010400D0000251
     116       0       0       1       0                               0D0000252
     123     140       0       0       0       0       0       000010200D0000253
     123       0       0       1       0                               0D0000254
     123     141       0       0       0       0       0       000010200D0000255
     123       0       0       1       0                               0D0000256
     508     142       0       0       0       0       0       000010000D0000257
     508       0       0       1       1                               0D0000258
     510     143       0       0       0       0       0       000010000D0000259
     510       0       0       1       1                               0D0000260
     194     144       0       0       0       0       0       000010000D0000261
     194       0       0       1       1                               0D0000262
     116     145       0       0       0       0       0       000010400D0000263
     116       0       0       1       0                               0D0000264
     123     146       0       0       0       0       0       000010200D0000265
     123       0       0       1       0                               0D0000266
     123     147       0       0       0       0       0       000010200D0000267
     123       0       0       1       0                               0D0000268
     508     148       0       0       0       0       0       000010000D0000269
     508       0       0       2       1                               0D0000270
     110     150       0       0       0       0       0       000010000D0000271
     110       0       0       1       0                               0D0000272
     110     151       0       0       0       0       0       000010000D0000273
     110       0       0       1       0                               0D0000274
     110     152       0       0       0       0       0       000010000D0000275
     110       0       0       1       0                               0D0000276
     110     153       0       0       0       0       0       000010000D0000277
     110       0       0       1       0                               0D0000278
     510     154       0       0       0       0       0       000010000D0000279
     510       0       0       1       1                               0D0000280
     194     155       0       0       0       0       0       000010000D0000281
     194       0       0       1       1                               0D0000282
     116     156       0       0       0       0       0       000010400D0000283
     116       0       0       1       0                               0D0000284
     123     157       0       0       0       0       0       000010200D0000285
     123       0       0       1       0                               0D0000286
     123     158       0       0       0       0       0       000010200D0000287
     123       0       0       1       0                               0D0000288
     508     159       0       0       0       0       0       000010000D0000289
     508       0       0       2       1                               0D0000290
     110     161       0       0       0       0       0       000010000D0000291
     110       0       0       1       0                               0D0000292
     110     162       0       0       0       0       0       000010000D0000293
     110       0       0       1       0                               0D0000294
     110     163       0       0       0       0       0       000010000D0000295
     110       0       0       1       0                               0D0000296
     110     164       0       0       0       0       0       000010000D0000297
     110       0       0       1       0                               0D0000298
     510     165       0       0       0       0       0       000010000D0000299
     510       0       0       1       1                               0D0000300
     192     166       0       0       0       0       0       000010000D0000301
     192       0       0       1       1                               0D0000302
     116     167       0       0       0       0       0       000010400D0000303
     116       0       0       1       0                               0D0000304
     123     168       0       0       0       0       0       000010200D0000305
     123       0       0       1       0                               0D0000306
     123     169       0       0       0       0       0       000010200D0000307
     123       0       0       1       0                               0D0000308
     508     170       0       0       0       0       0       000010000D0000309
     508       0       0       2       1                               0D0000310
     110     172       0       0       0       0       0       000010000D0000311
     110       0       0       1       0                               0D0000312
     110     173       0       0       0       0       0       000010000D0000313
     110       0       0       1       0                               0D0000314
     110     174       0       0       0       0       0       000010000D0000315
     110       0       0       1       0                               0D0000316
     110     175       0       0       0       0       0       000010000D0000317
     110       0       0       1       0                               0D0000318
186,3,1,0;                                                       0000001P0000001
514,17,5,0,99,0,111,1,123,0,135,0,147,0,159,1,171,0,183,0,197,1, 0000003P0000002
209,1,223,0,235,1,247,0,259,0,279,0,299,0;                       0000003P0000003
510,7,1,1,15;                                                    0000005P0000004
190,9,11,13;                                                     0000007P0000005
116,36.,-56.,0.,0;                                               0000009P0000006
123,-1.,0.,0.;                                                   0000011P0000007
123,0.,1.,0.;                                                    0000013P0000008
508,4,0,17,1,1,0,0,17,2,1,0,0,17,3,0,0,0,17,4,0,0;               0000015P0000009
504,35,19,21,1,21,2,23,21,2,21,3,25,21,4,21,3,27,21,1,21,4,29,   0000017P0000010
21,5,21,6,31,21,6,21,2,33,21,5,21,1,35,21,1,21,7,37,21,7,21,8,   0000017P0000011
39,21,4,21,8,41,21,2,21,9,43,21,9,21,10,45,21,3,21,10,47,21,3,   0000017P0000012
21,11,49,21,12,21,11,51,21,4,21,12,53,21,11,21,6,55,21,12,21,5,  0000017P0000013
57,21,5,21,13,59,21,13,21,7,61,21,6,21,14,63,21,14,21,9,65,21,8, 0000017P0000014
21,15,67,21,15,21,13,69,21,16,21,16,73,21,12,21,15,75,21,10,21,  0000017P0000015
17,77,21,17,21,14,79,21,18,21,18,83,21,17,21,11,85,21,16,21,19,  0000017P0000016
87,21,19,21,19,91,21,20,21,20,95,21,18,21,20,97,21,19,21,20;     0000017P0000017
110,36.,-56.,0.8,36.,-56.,9.2;                                   0000019P0000018
502,20,36.,-56.,0.8,36.,-56.,9.2,36.,12.,9.2,36.,12.,0.8,-36.,   0000021P0000019
-56.,0.8,-36.,-56.,9.2,35.2,-55.2,-2.220446049E-16,35.2,11.2,    0000021P0000020
9.992007222E-16,35.2,-55.2,10.,35.2,11.2,10.,-36.,12.,9.2,-36.,  0000021P0000021
12.,0.8,-35.2,-55.2,1.110223025E-16,-35.2,-55.2,10.,-35.2,11.2,  0000021P0000022
6.661338148E-16,11.8,-22.,0.,-35.2,11.2,10.,11.8,-22.,10.,11.,   0000021P0000023
-22.,0.8,11.,-22.,9.2;                                           0000021P0000024
110,36.,-56.,9.2,36.,12.,9.2;                                    0000023P0000025
110,36.,12.,0.8,36.,12.,9.2;                                     0000025P0000026
110,36.,-56.,0.8,36.,12.,0.8;                                    0000027P0000027
110,-36.,-56.,0.8,-36.,-56.,9.2;                                 0000029P0000028
110,-36.,-56.,9.2,36.,-56.,9.2;                                  0000031P0000029
110,-36.,-56.,0.8,36.,-56.,0.8;                                  0000033P0000030
110,36.,-56.,0.8,35.2,-55.2,5.666578318E-12;                     0000035P0000031
110,35.2,-55.2,0.,35.2,11.2,0.;                                  0000037P0000032
110,36.,12.,0.8,35.2,11.2,0.;                                    0000039P0000033
110,36.,-56.,9.2,35.2,-55.2,10.;                                 0000041P0000034
110,35.2,-55.2,10.,35.2,11.2,10.;                                0000043P0000035
110,36.,12.,9.2,35.2,11.2,10.;                                   0000045P0000036
110,36.,12.,9.2,-36.,12.,9.2;                                    0000047P0000037
110,-36.,12.,0.8,-36.,12.,9.2;                                   0000049P0000038
110,36.,12.,0.8,-36.,12.,0.8;                                    0000051P0000039
110,-36.,12.,9.2,-36.,-56.,9.2;                                  0000053P0000040
110,-36.,12.,0.8,-36.,-56.,0.8;                                  0000055P0000041
110,-36.,-56.,0.8,-35.2,-55.2,1.776356839E-15;                   0000057P0000042
110,-35.2,-55.2,0.,35.2,-55.2,0.;                                0000059P0000043
110,-36.,-56.,9.2,-35.2,-55.2,10.;                               0000061P0000044
110,-35.2,-55.2,10.,35.2,-55.2,10.;                              0000063P0000045
110,35.2,11.2,0.,-35.2,11.2,0.;                                  0000065P0000046
110,-35.2,11.2,0.,-35.2,-55.2,0.;                                0000067P0000047
100,0.,0.,0.,11.8,0.,11.8,0.;                                    0000069P0000048
124,1.,0.,0.,0.,0.,1.,0.,-22.,0.,0.,1.,0.;                       0000071P0000049
110,-36.,12.,0.8,-35.2,11.2,5.666578318E-12;                     0000073P0000050
110,35.2,11.2,10.,-35.2,11.2,10.;                                0000075P0000051
110,-35.2,11.2,10.,-35.2,-55.2,10.;                              0000077P0000052
100,0.,0.,0.,11.8,0.,11.8,0.;                                    0000079P0000053
124,1.,0.,0.,0.,0.,1.,0.,-22.,0.,0.,1.,10.;                      0000081P0000054
110,-35.2,11.2,10.,-36.,12.,9.2;                                 0000083P0000055
110,11.8,-22.,-4.440892099E-16,11.,-22.,0.8;                     0000085P0000056
100,0.,0.,0.,11.,0.,11.,0.;                                      0000087P0000057
124,1.,0.,0.,0.,0.,1.,0.,-22.,0.,0.,1.,0.8;                      0000089P0000058
100,0.,0.,0.,11.,0.,11.,0.;                                      0000091P0000059
124,1.,0.,0.,0.,0.,1.,0.,-22.,0.,0.,1.,9.2;                      0000093P0000060
110,11.8,-22.,10.,11.,-22.,9.2;                                  0000095P0000061
110,11.,-22.,0.8,11.,-22.,9.2;                                   0000097P0000062
510,101,1,1,109;                                                 0000099P0000063
190,103,105,107;                                                 0000101P0000064
116,-36.,-56.,0.,0;                                              0000103P0000065
123,0.,1.,0.;                                                    0000105P0000066
123,1.,0.,0.;                                                    0000107P0000067
508,4,0,17,5,1,0,0,17,6,1,0,0,17,1,0,0,0,17,7,0,0;               0000109P0000068
510,113,1,1,121;                                                 0000111P0000069
190,115,117,119;                                                 0000113P0000070
116,35.6,-56.,0.4,0;                                             0000115P0000071
123,0.707106781,-6.983161619E-18,-0.707106781;                   0000117P0000072
123,-4.937840935E-18,-1.,4.937840935E-18;                        0000119P0000073
508,4,0,17,8,1,0,0,17,9,1,0,0,17,10,0,0,0,17,4,0,0;              0000121P0000074
510,125,1,1,133;                                                 0000123P0000075
190,127,129,131;                                                 0000125P0000076
116,35.6,-56.,9.6,0;                                             0000127P0000077
123,-0.707106781,6.983161619E-18,-0.707106781;                   0000129P0000078
123,-4.937840935E-18,-1.,-4.937840935E-18;                       0000131P0000079
508,4,0,17,11,1,0,0,17,12,1,0,0,17,13,0,0,0,17,2,0,0;            0000133P0000080
510,137,1,1,145;                                                 0000135P0000081
190,139,141,143;                                                 0000137P0000082
116,36.,12.,0.,0;                                                0000139P0000083
123,0.,-1.,0.;                                                   0000141P0000084
123,-1.,0.,0.;                                                   0000143P0000085
508,4,0,17,3,1,0,0,17,14,1,0,0,17,15,0,0,0,17,16,0,0;            0000145P0000086
510,149,1,1,157;                                                 0000147P0000087
190,151,153,155;                                                 0000149P0000088
116,-36.,12.,0.,0;                                               0000151P0000089
123,1.,0.,-0.;                                                   0000153P0000090
123,0.,-1.,0.;                                                   0000155P0000091
508,4,0,17,15,1,0,0,17,17,1,0,0,17,5,0,0,0,17,18,0,0;            0000157P0000092
510,161,1,1,169;                                                 0000159P0000093
190,163,165,167;                                                 0000161P0000094
116,-36.,-55.6,0.4,0;                                            0000163P0000095
123,-6.983161619E-18,-0.707106781,-0.707106781;                  0000165P0000096
123,-1.,4.937840935E-18,4.937840935E-18;                         0000167P0000097
508,4,0,17,19,1,0,0,17,20,1,0,0,17,8,0,0,0,17,7,0,0;             0000169P0000098
510,173,1,1,181;                                                 0000171P0000099
190,175,177,179;                                                 0000173P0000100
116,-36.,-55.6,9.6,0;                                            0000175P0000101
123,6.983161619E-18,0.707106781,-0.707106781;                    0000177P0000102
123,-1.,4.937840935E-18,-4.937840935E-18;                        0000179P0000103
508,4,0,17,21,1,0,0,17,22,1,0,0,17,11,0,0,0,17,6,0,0;            0000181P0000104
510,185,2,1,193,195;                                             0000183P0000105
190,187,189,191;                                                 0000185P0000106
116,0.,-22.,0.,0;                                                0000187P0000107
123,0.,0.,1.;                                                    0000189P0000108
123,1.,0.,-0.;                                                   0000191P0000109
508,4,0,17,20,1,0,0,17,9,1,0,0,17,23,1,0,0,17,24,1,0;            0000193P0000110
508,1,0,17,25,0,0;                                               0000195P0000111
510,199,1,1,207;                                                 0000197P0000112
190,201,203,205;                                                 0000199P0000113
116,36.,11.6,0.4,0;                                              0000201P0000114
123,6.983161619E-18,0.707106781,-0.707106781;                    0000203P0000115
123,1.,-4.937840935E-18,4.937840935E-18;                         0000205P0000116
508,4,0,17,10,1,0,0,17,23,1,0,0,17,26,0,0,0,17,16,0,0;           0000207P0000117
510,211,2,1,219,221;                                             0000209P0000118
190,213,215,217;                                                 0000211P0000119
116,0.,-22.,10.,0;                                               0000213P0000120
123,0.,0.,1.;                                                    0000215P0000121
123,1.,0.,-0.;                                                   0000217P0000122
508,4,0,17,22,1,0,0,17,12,1,0,0,17,27,1,0,0,17,28,1,0;           0000219P0000123
508,1,0,17,29,0,0;                                               0000221P0000124
510,225,1,1,233;                                                 0000223P0000125
190,227,229,231;                                                 0000225P0000126
116,36.,11.6,9.6,0;                                              0000227P0000127
123,0.,-0.707106781,-0.707106781;                                0000229P0000128
123,1.,0.,0.;                                                    0000231P0000129
508,4,0,17,13,1,0,0,17,27,1,0,0,17,30,1,0,0,17,14,0,0;           0000233P0000130
510,237,1,1,245;                                                 0000235P0000131
190,239,241,243;                                                 0000237P0000132
116,-35.6,12.,0.4,0;                                             0000239P0000133
123,-0.707106781,6.983161619E-18,-0.707106781;                   0000241P0000134
123,-4.937840935E-18,-1.,-4.937840935E-18;                       0000243P0000135
508,4,0,17,26,1,0,0,17,24,1,0,0,17,19,0,0,0,17,18,0,0;           0000245P0000136
510,249,1,1,257;                                                 0000247P0000137
190,251,253,255;                                                 0000249P0000138
116,-35.6,12.,9.6,0;                                             0000251P0000139
123,0.707106781,-6.983161619E-18,-0.707106781;                   0000253P0000140
123,-4.937840935E-18,-1.,4.937840935E-18;                        0000255P0000141
508,4,0,17,30,0,0,0,17,28,1,0,0,17,21,0,0,0,17,17,0,0;           0000257P0000142
510,261,1,1,269;                                                 0000259P0000143
194,263,265,11.,45.,267;                                         0000261P0000144
116,0.,-22.,0.8,0;                                               0000263P0000145
123,-0.,-0.,-1.;                                                 0000265P0000146
123,1.,0.,0.;                                                    0000267P0000147
508,4,0,17,31,0,1,0,271,0,17,25,1,1,0,273,0,17,31,1,1,0,275,0,   0000269P0000148
17,32,0,1,0,277;                                                 0000269P0000149
110,360.,0.,0.,360.,1.13137085,0.;                               0000271P0000150
110,360.,1.13137085,0.,0.,1.13137085,0.;                         0000273P0000151
110,-2.37142157E-11,1.13137085,0.,-2.37142157E-11,0.,0.;         0000275P0000152
110,0.,0.,0.,360.,0.,0.;                                         0000277P0000153
510,281,1,1,289;                                                 0000279P0000154
194,283,285,11.,45.,287;                                         0000281P0000155
116,0.,-22.,9.2,0;                                               0000283P0000156
123,0.,0.,1.;                                                    0000285P0000157
123,1.,0.,-0.;                                                   0000287P0000158
508,4,0,17,33,1,1,0,291,0,17,34,0,1,0,293,0,17,29,0,1,0,295,0,   0000289P0000159
17,34,1,1,0,297;                                                 0000289P0000160
110,0.,0.,0.,360.,0.,0.;                                         0000291P0000161
110,360.,0.,0.,360.,1.13137085,0.;                               0000293P0000162
110,360.,1.13137085,0.,0.,1.13137085,0.;                         0000295P0000163
110,2.37142157E-11,1.13137085,0.,2.37142157E-11,0.,0.;           0000297P0000164
510,301,1,1,309;                                                 0000299P0000165
192,303,305,11.,307;                                             0000301P0000166
116,0.,-22.,0.,0;                                                0000303P0000167
123,-0.,-0.,-1.;                                                 0000305P0000168
123,1.,0.,0.;                                                    0000307P0000169
508,4,0,17,32,1,1,0,311,0,17,35,1,1,0,313,0,17,33,0,1,0,315,0,   0000309P0000170
17,35,0,1,0,317;                                                 0000309P0000171
110,360.,-0.8,0.,0.,-0.8,0.;                                     0000311P0000172
110,-2.37142157E-11,-0.8,0.,-2.37142157E-11,-9.2,0.;             0000313P0000173
110,0.,-9.2,0.,360.,-9.2,0.;                                     0000315P0000174
110,360.,-9.2,-0.,360.,-0.8,-0.;                                 0000317P0000175
S      1G      4D    318P    175                                        T0000001
