                                                                        S0000001
,,31HOpen CASCADE IGES processor 7.9,13HFilename.iges,                  G0000001
16HOpen CASCADE 7.9,31HOpen CASCADE IGES processor 7.9,32,308,15,308,15,G0000002
,1.,2,2HMM,1,0.01,15H20260925.045045,1E-07,110.558341,4Hroot,,11,0,     G0000003
15H20260925.045045,;                                                    G0000004
     186       1       0       0       0       0       0       000000000D0000001
     186       0       0       1       0                               0D0000002
     514       2       0       0       0       0       0       000010000D0000003
     514       0       0       4       1                               0D0000004
     510       6       0       0       0       0       0       000010000D0000005
     510       0       0       1       1                               0D0000006
     190       7       0       0       0       0       0       000010000D0000007
     190       0       0       1       1                               0D0000008
     116       8       0       0       0       0       0       000010400D0000009
     116       0       0       1       0                               0D0000010
     123       9       0       0       0       0       0       000010200D0000011
     123       0       0       1       0                               0D0000012
     123      10       0       0       0       0       0       000010200D0000013
     123       0       0       1       0                               0D0000014
     508      11       0       0       0       0       0       000010000D0000015
     508       0       0       1       1                               0D0000016
     504      12       0       0       0       0       0       000010001D0000017
     504       0       0      26       1                               0D0000018
     110      38       0       0       0       0       0       000010000D0000019
     110       0       0       1       0                               0D0000020
     502      39       0       0       0       0       0       000010000D0000021
     502       0       0      36       1                               0D0000022
     110      75       0       0       0       0       0       000010000D0000023
     110       0       0       1       0                               0D0000024
     110      76       0       0       0       0       0       000010000D0000025
     110       0       0       2       0                               0D0000026
     110      78       0       0       0       0       0       000010000D0000027
     110       0       0       1       0                               0D0000028
     110      79       0       0       0       0       0       000010000D0000029
     110       0       0       2       0                               0D0000030
     110      81       0       0       0       0       0       000010000D0000031
     110       0       0       1       0                               0D0000032
     110      82       0       0       0       0       0       000010000D0000033
     110       0       0       2       0                               0D0000034
     110      84       0       0       0       0       0       000010000D0000035
     110       0       0       1       0                               0D0000036
     110      85       0       0       0       0       0       000010000D0000037
     110       0       0       1       0                               0D0000038
     110      86       0       0       0       0       0       000010000D0000039
     110       0       0       1       0                               0D0000040
     110      87       0       0       0       0       0       000010000D0000041
     110       0       0       1       0                               0D0000042
     110      88       0       0       0       0       0       000010000D0000043
     110       0       0       1       0                               0D0000044
     110      89       0       0       0       0       0       000010000D0000045
     110       0       0       1       0                               0D0000046
     110      90       0       0       0       0       0       000010000D0000047
     110       0       0       1       0                               0D0000048
     110      91       0       0       0       0       0       000010000D0000049
     110       0       0       1       0                               0D0000050
     110      92       0       0       0       0       0       000010000D0000051
     110       0       0       1       0                               0D0000052
     110      93       0       0       0       0       0       000010000D0000053
     110       0       0       1       0                               0D0000054
     110      94       0       0       0       0       0       000010000D0000055
     110       0       0       1       0                               0D0000056
     110      95       0       0       0       0       0       000010000D0000057
     110       0       0       1       0                               0D0000058
     110      96       0       0       0       0       0       000010000D0000059
     110       0       0       1       0                               0D0000060
     110      97       0       0       0       0       0       000010000D0000061
     110       0       0       1       0                               0D0000062
     110      98       0       0       0       0       0       000010000D0000063
     110       0       0       1       0                               0D0000064
     110      99       0       0       0       0       0       000010000D0000065
     110       0       0       1       0                               0D0000066
     110     100       0       0       0       0       0       000010000D0000067
     110       0       0       1       0                               0D0000068
     110     101       0       0       0       0       0       000010000D0000069
     110       0       0       1       0                               0D0000070
     110     102       0       0       0       0       0       000010000D0000071
     110       0       0       2       0                               0D0000072
     110     104       0       0       0       0       0       000010000D0000073
     110       0       0       2       0                               0D0000074
     110     106       0       0       0       0       0       000010000D0000075
     110       0       0       2       0                               0D0000076
     110     108       0       0       0       0       0       000010000D0000077
     110       0       0       2       0                               0D0000078
     110     110       0       0       0       0       0       000010000D0000079
     110       0       0       1       0                               0D0000080
     110     111       0       0       0       0       0       000010000D0000081
     110       0       0       2       0                               0D0000082
     110     113       0       0       0       0       0       000010000D0000083
     110       0       0       2       0                               0D0000084
     110     115       0       0       0       0       0       000010000D0000085
     110       0       0       2       0                               0D0000086
     110     117       0       0       0       0       0       000010000D0000087
     110       0       0       2       0                               0D0000088
     110     119       0       0       0       0       0       000010000D0000089
     110       0       0       2       0                               0D0000090
     110     121       0       0       0       0       0       000010000D0000091
     110       0       0       2       0                               0D0000092
     110     123       0       0       0       0       0       000010000D0000093
     110       0       0       2       0                               0D0000094
     110     125       0       0       0       0       0       000010000D0000095
     110       0       0       2       0                               0D0000096
     110     127       0       0       0       0       0       000010000D0000097
     110       0       0       2       0                               0D0000098
     110     129       0       0       0       0       0       000010000D0000099
     110       0       0       2       0                               0D0000100
     110     131       0       0       0       0       0       000010000D0000101
     110       0       0       2       0                               0D0000102
     110     133       0       0       0       0       0       000010000D0000103
     110       0       0       1       0                               0D0000104
     110     134       0       0       0       0       0       000010000D0000105
     110       0       0       2       0                               0D0000106
     110     136       0       0       0       0       0       000010000D0000107
     110       0       0       2       0                               0D0000108
     110     138       0       0       0       0       0       000010000D0000109
     110       0       0       2       0                               0D0000110
     110     140       0       0       0       0       0       000010000D0000111
     110       0       0       2       0                               0D0000112
     110     142       0       0       0       0       0       000010000D0000113
     110       0       0       2       0                               0D0000114
     110     144       0       0       0       0       0       000010000D0000115
     110       0       0       2       0                               0D0000116
     110     146       0       0       0       0       0       000010000D0000117
     110       0       0       2       0                               0D0000118
     110     148       0       0       0       0       0       000010000D0000119
     110       0       0       2       0                               0D0000120
     110     150       0       0       0       0       0       000010000D0000121
     110       0       0       2       0                               0D0000122
     110     152       0       0       0       0       0       000010000D0000123
     110       0       0       2       0                               0D0000124
     110     154       0       0       0       0       0       000010000D0000125
     110       0       0       2       0                               0D0000126
     110     156       0       0       0       0       0       000010000D0000127
     110       0       0       2       0                               0D0000128
     110     158       0       0       0       0       0       000010000D0000129
     110       0       0       2       0                               0D0000130
     110     160       0       0       0       0       0       000010000D0000131
     110       0       0       2       0                               0D0000132
     110     162       0       0       0       0       0       000010000D0000133
     110       0       0       2       0                               0D0000134
     110     164       0       0       0       0       0       000010000D0000135
     110       0       0       2       0                               0D0000136
     110     166       0       0       0       0       0       000010000D0000137
     110       0       0       2       0                               0D0000138
     110     168       0       0       0       0       0       000010000D0000139
     110       0       0       2       0                               0D0000140
     110     170       0       0       0       0       0       000010000D0000141
     110       0       0       2       0                               0D0000142
     110     172       0       0       0       0       0       000010000D0000143
     110       0       0       2       0                               0D0000144
     110     174       0       0       0       0       0       000010000D0000145
     110       0       0       2       0                               0D0000146
     110     176       0       0       0       0       0       000010000D0000147
     110       0       0       2       0                               0D0000148
     110     178       0       0       0       0       0       000010000D0000149
     110       0       0       2       0                               0D0000150
     110     180       0       0       0       0       0       000010000D0000151
     110       0       0       2       0                               0D0000152
     110     182       0       0       0       0       0       000010000D0000153
     110       0       0       2       0                               0D0000154
     110     184       0       0       0       0       0       000010000D0000155
     110       0       0       2       0                               0D0000156
     110     186       0       0       0       0       0       000010000D0000157
     110       0       0       2       0                               0D0000158
     110     188       0       0       0       0       0       000010000D0000159
     110       0       0       2       0                               0D0000160
     110     190       0       0       0       0       0       000010000D0000161
     110       0       0       2       0                               0D0000162
     110     192       0       0       0       0       0       000010000D0000163
     110       0       0       2       0                               0D0000164
     110     194       0       0       0       0       0       000010000D0000165
     110       0       0       2       0                               0D0000166
     110     196       0       0       0       0       0       000010000D0000167
     110       0       0       2       0                               0D0000168
     110     198       0       0       0       0       0       000010000D0000169
     110       0       0       2       0                               0D0000170
     110     200       0       0       0       0       0       000010000D0000171
     110       0       0       2       0                               0D0000172
     110     202       0       0       0       0       0       000010000D0000173
     110       0       0       2       0                               0D0000174
     110     204       0       0       0       0       0       000010000D0000175
     110       0       0       2       0                               0D0000176
     110     206       0       0       0       0       0       000010000D0000177
     110       0       0       2       0                               0D0000178
     110     208       0       0       0       0       0       000010000D0000179
     110       0       0       2       0                               0D0000180
     110     210       0       0       0       0       0       000010000D0000181
     110       0       0       2       0                               0D0000182
     110     212       0       0       0       0       0       000010000D0000183
     110       0       0       2       0                               0D0000184
     110     214       0       0       0       0       0       000010000D0000185
     110       0       0       2       0                               0D0000186
     110     216       0       0       0       0       0       000010000D0000187
     110       0       0       2       0                               0D0000188
     110     218       0       0       0       0       0       000010000D0000189
     110       0       0       2       0                               0D0000190
     110     220       0       0       0       0       0       000010000D0000191
     110       0       0       2       0                               0D0000192
     110     222       0       0       0       0       0       000010000D0000193
     110       0       0       2       0                               0D0000194
     110     224       0       0       0       0       0       000010000D0000195
     110       0       0       2       0                               0D0000196
     110     226       0       0       0       0       0       000010000D0000197
     110       0       0       2       0                               0D0000198
     110     228       0       0       0       0       0       000010000D0000199
     110       0       0       2       0                               0D0000200
     110     230       0       0       0       0       0       000010000D0000201
     110       0       0       2       0                               0D0000202
     110     232       0       0       0       0       0       000010000D0000203
     110       0       0       2       0                               0D0000204
     110     234       0       0       0       0       0       000010000D0000205
     110       0       0       2       0                               0D0000206
     110     236       0       0       0       0       0       000010000D0000207
     110       0       0       2       0                               0D0000208
     110     238       0       0       0       0       0       000010000D0000209
     110       0       0       2       0                               0D0000210
     110     240       0       0       0       0       0       000010000D0000211
     110       0       0       2       0                               0D0000212
     110     242       0       0       0       0       0       000010000D0000213
     110       0       0       2       0                               0D0000214
     110     244       0       0       0       0       0       000010000D0000215
     110       0       0       1       0                               0D0000216
     110     245       0       0       0       0       0       000010000D0000217
     110       0       0       1       0                               0D0000218
     110     246       0       0       0       0       0       000010000D0000219
     110       0       0       1       0                               0D0000220
     110     247       0       0       0       0       0       000010000D0000221
     110       0       0       1       0                               0D0000222
     110     248       0       0       0       0       0       000010000D0000223
     110       0       0       1       0                               0D0000224
     110     249       0       0       0       0       0       000010000D0000225
     110       0       0       1       0                               0D0000226
     110     250       0       0       0       0       0       000010000D0000227
     110       0       0       1       0                               0D0000228
     110     251       0       0       0       0       0       000010000D0000229
     110       0       0       1       0                               0D0000230
     510     252       0       0       0       0       0       000010000D0000231
     510       0       0       1       1                               0D0000232
     190     253       0       0       0       0       0       000010000D0000233
     190       0       0       1       1                               0D0000234
     116     254       0       0       0       0       0       000010400D0000235
     116       0       0       1       0                               0D0000236
     123     255       0       0       0       0       0       000010200D0000237
     123       0       0       1       0                               0D0000238
     123     256       0       0       0       0       0       000010200D0000239
     123       0       0       1       0                               0D0000240
     508     257       0       0       0       0       0       000010000D0000241
     508       0       0       1       1                               0D0000242
     510     258       0       0       0       0       0       000010000D0000243
     510       0       0       1       1                               0D0000244
     190     259       0       0       0       0       0       000010000D0000245
     190       0       0       1       1                               0D0000246
     116     260       0       0       0       0       0       000010400D0000247
     116       0       0       1       0                               0D0000248
     123     261       0       0       0       0       0       000010200D0000249
     123       0       0       1       0                               0D0000250
     123     262       0       0       0       0       0       000010200D0000251
     123       0       0       1       0                               0D0000252
     508     263       0       0       0       0       0       000010000D0000253
     508       0       0       1       1                               0D0000254
     510     264       0       0       0       0       0       000010000D0000255
     510       0       0       1       1                               0D0000256
     190     265       0       0       0       0       0       000010000D0000257
     190       0       0       1       1                               0D0000258
     116     266       0       0       0       0       0       000010400D0000259
     116       0       0       1       0                               0D0000260
     123     267       0       0       0       0       0       000010200D0000261
     123       0       0       1       0                               0D0000262
     123     268       0       0       0       0       0       000010200D0000263
     123       0       0       1       0                               0D0000264
     508     269       0       0       0       0       0       000010000D0000265
     508       0       0       1       1                               0D0000266
     510     270       0       0       0       0       0       000010000D0000267
     510       0       0       1       1                               0D0000268
     190     271       0       0       0       0       0       000010000D0000269
     190       0       0       1       1                               0D0000270
     116     272       0       0       0       0       0       000010400D0000271
     116       0       0       1       0                               0D0000272
     123     273       0       0       0       0       0       000010200D0000273
     123       0       0       1       0                               0D0000274
     123     274       0       0       0       0       0       000010200D0000275
     123       0       0       1       0                               0D0000276
     508     275       0       0       0       0       0       000010000D0000277
     508       0       0       1       1                               0D0000278
     510     276       0       0       0       0       0       000010000D0000279
     510       0       0       1       1                               0D0000280
     190     277       0       0       0       0       0       000010000D0000281
     190       0       0       1       1                               0D0000282
     116     278       0       0       0       0       0       000010400D0000283
     116       0       0       1       0                               0D0000284
     123     279       0       0       0       0       0       000010200D0000285
     123       0       0       1       0                               0D0000286
     123     280       0       0       0       0       0       000010200D0000287
     123       0       0       1       0                               0D0000288
     508     281       0       0       0       0       0       000010000D0000289
     508       0       0       1       1                               0D0000290
     510     282       0       0       0       0       0       000010000D0000291
     510       0       0       1       1                               0D0000292
     190     283       0       0       0       0       0       000010000D0000293
     190       0       0       1       1                               0D0000294
     116     284       0       0       0       0       0       000010400D0000295
     116       0       0       1       0                               0D0000296
     123     285       0       0       0       0       0       000010200D0000297
     123       0       0       1       0                               0D0000298
     123     286       0       0       0       0       0       000010200D0000299
     123       0       0       1       0                               0D0000300
     508     287       0       0       0       0       0       000010000D0000301
     508       0       0       1       1                               0D0000302
     510     288       0       0       0       0       0       000010000D0000303
     510       0       0       1       1                               0D0000304
     190     289       0       0       0       0       0       000010000D0000305
     190       0       0       1       1                               0D0000306
     116     290       0       0       0       0       0       000010400D0000307
     116       0       0       1       0                               0D0000308
     123     291       0       0       0       0       0       000010200D0000309
     123       0       0       1       0                               0D0000310
     123     292       0       0       0       0       0       000010200D0000311
     123       0       0       1       0                               0D0000312
     508     293       0       0       0       0       0       000010000D0000313
     508       0       0       1       1                               0D0000314
     510     294       0       0       0       0       0       000010000D0000315
     510       0       0       1       1                               0D0000316
     190     295       0       0       0       0       0       000010000D0000317
     190       0       0       1       1                               0D0000318
     116     296       0       0       0       0       0       000010400D0000319
     116       0       0       1       0                               0D0000320
     123     297       0       0       0       0       0       000010200D0000321
     123       0       0       1       0                               0D0000322
     123     298       0       0       0       0       0       000010200D0000323
     123       0       0       1       0                               0D0000324
     508     299       0       0       0       0       0       000010000D0000325
     508       0       0       1       1                               0D0000326
     510     300       0       0       0       0       0       000010000D0000327
     510       0       0       1       1                               0D0000328
     190     301       0       0       0       0       0       000010000D0000329
     190       0       0       1       1                               0D0000330
     116     302       0       0       0       0       0       000010400D0000331
     116       0       0       1       0                               0D0000332
     123     303       0       0       0       0       0       000010200D0000333
     123       0       0       1       0                               0D0000334
     123     304       0       0       0       0       0       000010200D0000335
     123       0       0       1       0                               0D0000336
     508     305       0       0       0       0       0       000010000D0000337
     508       0       0       1       1                               0D0000338
     510     306       0       0       0       0       0       000010000D0000339
     510       0       0       1       1                               0D0000340
     190     307       0       0       0       0       0       000010000D0000341
     190       0       0       1       1                               0D0000342
     116     308       0       0       0       0       0       000010400D0000343
     116       0       0       1       0                               0D0000344
     123     309       0       0       0       0       0       000010200D0000345
     123       0       0       1       0                               0D0000346
     123     310       0       0       0       0       0       000010200D0000347
     123       0       0       1       0                               0D0000348
     508     311       0       0       0       0       0       000010000D0000349
     508       0       0       1       1                               0D0000350
     510     312       0       0       0       0       0       000010000D0000351
     510       0       0       1       1                               0D0000352
     190     313       0       0       0       0       0       000010000D0000353
     190       0       0       1       1                               0D0000354
     116     314       0       0       0       0       0       000010400D0000355
     116       0       0       1       0                               0D0000356
     123     315       0       0       0       0       0       000010200D0000357
     123       0       0       1       0                               0D0000358
     123     316       0       0       0       0       0       000010200D0000359
     123       0       0       1       0                               0D0000360
     508     317       0       0       0       0       0       000010000D0000361
     508       0       0       1       1                               0D0000362
     510     318       0       0       0       0       0       000010000D0000363
     510       0       0       1       1                               0D0000364
     190     319       0       0       0       0       0       000010000D0000365
     190       0       0       1       1                               0D0000366
     116     320       0       0       0       0       0       000010400D0000367
     116       0       0       1       0                               0D0000368
     123     321       0       0       0       0       0       000010200D0000369
     123       0       0       1       0                               0D0000370
     123     322       0       0       0       0       0       000010200D0000371
     123       0       0       1       0                               0D0000372
     508     323       0       0       0       0       0       000010000D0000373
     508       0       0       1       1                               0D0000374
     510     324       0       0       0       0       0       000010000D0000375
     510       0       0       1       1                               0D0000376
     190     325       0       0       0       0       0       000010000D0000377
     190       0       0       1       1                               0D0000378
     116     326       0       0       0       0       0       000010400D0000379
     116       0       0       1       0                               0D0000380
     123     327       0       0       0       0       0       000010200D0000381
     123       0       0       1       0                               0D0000382
     123     328       0       0       0       0       0       000010200D0000383
     123       0       0       1       0                               0D0000384
     508     329       0       0       0       0       0       000010000D0000385
     508       0       0       1       1                               0D0000386
     510     330       0       0       0       0       0       000010000D0000387
     510       0       0       1       1                               0D0000388
     190     331       0       0       0       0       0       000010000D0000389
     190       0       0       1       1                               0D0000390
     116     332       0       0       0       0       0       000010400D0000391
     116       0       0       1       0                               0D0000392
     123     333       0       0       0       0       0       000010200D0000393
     123       0       0       1       0                               0D0000394
     123     334       0       0       0       0       0       000010200D0000395
     123       0       0       1       0                               0D0000396
     508     335       0       0       0       0       0       000010000D0000397
     508       0       0       1       1                               0D0000398
     510     336       0       0       0       0       0       000010000D0000399
     510       0       0       1       1                               0D0000400
     190     337       0       0       0       0       0       000010000D0000401
     190       0       0       1       1                               0D0000402
     116     338       0       0       0       0       0       000010400D0000403
     116       0       0       1       0                               0D0000404
     123     339       0       0       0       0       0       000010200D0000405
     123       0       0       1       0                               0D0000406
     123     340       0       0       0       0       0       000010200D0000407
     123       0       0       1       0                               0D0000408
     508     341       0       0       0       0       0       000010000D0000409
     508       0       0       1       1                               0D0000410
     510     342       0       0       0       0       0       000010000D0000411
     510       0       0       1       1                               0D0000412
     190     343       0       0       0       0       0       000010000D0000413
     190       0       0       1       1                               0D0000414
     116     344       0       0       0       0       0       000010400D0000415
     116       0       0       1       0                               0D0000416
     123     345       0       0       0       0       0       000010200D0000417
     123       0       0       1       0                               0D0000418
     123     346       0       0       0       0       0       000010200D0000419
     123       0       0       1       0                               0D0000420
     508     347       0       0       0       0       0       000010000D0000421
     508       0       0       1       1                               0D0000422
     510     348       0       0       0       0       0       000010000D0000423
     510       0       0       1       1                               0D0000424
     190     349       0       0       0       0       0       000010000D0000425
     190       0       0       1       1                               0D0000426
     116     350       0       0       0       0       0       000010400D0000427
     116       0       0       1       0                               0D0000428
     123     351       0       0       0       0       0       000010200D0000429
     123       0       0       1       0                               0D0000430
     123     352       0       0       0       0       0       000010200D0000431
     123       0       0       1       0                               0D0000432
     508     353       0       0       0       0       0       000010000D0000433
     508       0       0       1       1                               0D0000434
     510     354       0       0       0       0       0       000010000D0000435
     510       0       0       1       1                               0D0000436
     190     355       0       0       0       0       0       000010000D0000437
     190       0       0       1       1                               0D0000438
     116     356       0       0       0       0       0       000010400D0000439
     116       0       0       1       0                               0D0000440
     123     357       0       0       0       0       0       000010200D0000441
     123       0       0       1       0                               0D0000442
     123     358       0       0       0       0       0       000010200D0000443
     123       0       0       1       0                               0D0000444
     508     359       0       0       0       0       0       000010000D0000445
     508       0       0       1       1                               0D0000446
     510     360       0       0       0       0       0       000010000D0000447
     510       0       0       1       1                               0D0000448
     190     361       0       0       0       0       0       000010000D0000449
     190       0       0       1       1                               0D0000450
     116     362       0       0       0       0       0       000010400D0000451
     116       0       0       1       0                               0D0000452
     123     363       0       0       0       0       0       000010200D0000453
     123       0       0       1       0                               0D0000454
     123     364       0       0       0       0       0       000010200D0000455
     123       0       0       1       0                               0D0000456
     508     365       0       0       0       0       0       000010000D0000457
     508       0       0       1       1                               0D0000458
     510     366       0       0       0       0       0       000010000D0000459
     510       0       0       1       1                               0D0000460
     190     367       0       0       0       0       0       000010000D0000461
     190       0       0       1       1                               0D0000462
     116     368       0       0       0       0       0       000010400D0000463
     116       0       0       1       0                               0D0000464
     123     369       0       0       0       0       0       000010200D0000465
     123       0       0       1       0                               0D0000466
     123     370       0       0       0       0       0       000010200D0000467
     123       0       0       1       0                               0D0000468
     508     371       0       0       0       0       0       000010000D0000469
     508       0       0       1       1                               0D0000470
     510     372       0       0       0       0       0       000010000D0000471
     510       0       0       1       1                               0D0000472
     190     373       0       0       0       0       0       000010000D0000473
     190       0       0       1       1                               0D0000474
     116     374       0       0       0       0       0       000010400D0000475
     116       0       0       1       0                               0D0000476
     123     375       0       0       0       0       0       000010200D0000477
     123       0       0       1       0                               0D0000478
     123     376       0       0       0       0       0       000010200D0000479
     123       0       0       1       0                               0D0000480
     508     377       0       0       0       0       0       000010000D0000481
     508       0       0       1       1                               0D0000482
     510     378       0       0       0       0       0       000010000D0000483
     510       0       0       1       1                               0D0000484
     190     379       0       0       0       0       0       000010000D0000485
     190       0       0       1       1                               0D0000486
     116     380       0       0       0       0       0       000010400D0000487
     116       0       0       1       0                               0D0000488
     123     381       0       0       0       0       0       000010200D0000489
     123       0       0       1       0                               0D0000490
     123     382       0       0       0       0       0       000010200D0000491
     123       0       0       1       0                               0D0000492
     508     383       0       0       0       0       0       000010000D0000493
     508       0       0       1       1                               0D0000494
     510     384       0       0       0       0       0       000010000D0000495
     510       0       0       1       1                               0D0000496
     190     385       0       0       0       0       0       000010000D0000497
     190       0       0       1       1                               0D0000498
     116     386       0       0       0       0       0       000010400D0000499
     116       0       0       1       0                               0D0000500
     123     387       0       0       0       0       0       000010200D0000501
     123       0       0       1       0                               0D0000502
     123     388       0       0       0       0       0       000010200D0000503
     123       0       0       1       0                               0D0000504
     508     389       0       0       0       0       0       000010000D0000505
     508       0       0       1       1                               0D0000506
     510     390       0       0       0       0       0       000010000D0000507
     510       0       0       1       1                               0D0000508
     190     391       0       0       0       0       0       000010000D0000509
     190       0       0       1       1                               0D0000510
     116     392       0       0       0       0       0       000010400D0000511
     116       0       0       1       0                               0D0000512
     123     393       0       0       0       0       0       000010200D0000513
     123       0       0       1       0                               0D0000514
     123     394       0       0       0       0       0       000010200D0000515
     123       0       0       1       0                               0D0000516
     508     395       0       0       0       0       0       000010000D0000517
     508       0       0       1       1                               0D0000518
     510     396       0       0       0       0       0       000010000D0000519
     510       0       0       1       1                               0D0000520
     190     397       0       0       0       0       0       000010000D0000521
     190       0       0       1       1                               0D0000522
     116     398       0       0       0       0       0       000010400D0000523
     116       0       0       1       0                               0D0000524
     123     399       0       0       0       0       0       000010200D0000525
     123       0       0       1       0                               0D0000526
     123     400       0       0       0       0       0       000010200D0000527
     123       0       0       1       0                               0D0000528
     508     401       0       0       0       0       0       000010000D0000529
     508       0       0       1       1                               0D0000530
     510     402       0       0       0       0       0       000010000D0000531
     510       0       0       1       1                               0D0000532
     190     403       0       0       0       0       0       000010000D0000533
     190       0       0       1       1                               0D0000534
     116     404       0       0       0       0       0       000010400D0000535
     116       0       0       1       0                               0D0000536
     123     405       0       0       0       0       0       000010200D0000537
     123       0       0       1       0                               0D0000538
     123     406       0       0       0       0       0       000010200D0000539
     123       0       0       1       0                               0D0000540
     508     407       0       0       0       0       0       000010000D0000541
     508       0       0       1       1                               0D0000542
     510     408       0       0       0       0       0       000010000D0000543
     510       0       0       1       1                               0D0000544
     190     409       0       0       0       0       0       000010000D0000545
     190       0       0       1       1                               0D0000546
     116     410       0       0       0       0       0       000010400D0000547
     116       0       0       1       0                               0D0000548
     123     411       0       0       0       0       0       000010200D0000549
     123       0       0       1       0                               0D0000550
     123     412       0       0       0       0       0       000010200D0000551
     123       0       0       1       0                               0D0000552
     508     413       0       0       0       0       0       000010000D0000553
     508       0       0       1       1                               0D0000554
     510     414       0       0       0       0       0       000010000D0000555
     510       0       0       1       1                               0D0000556
     190     415       0       0       0       0       0       000010000D0000557
     190       0       0       1       1                               0D0000558
     116     416       0       0       0       0       0       000010400D0000559
     116       0       0       1       0                               0D0000560
     123     417       0       0       0       0       0       000010200D0000561
     123       0       0       1       0                               0D0000562
     123     418       0       0       0       0       0       000010200D0000563
     123       0       0       1       0                               0D0000564
     508     419       0       0       0       0       0       000010000D0000565
     508       0       0       1       1                               0D0000566
     510     420       0       0       0       0       0       000010000D0000567
     510       0       0       1       1                               0D0000568
     190     421       0       0       0       0       0       000010000D0000569
     190       0       0       1       1                               0D0000570
     116     422       0       0       0       0       0       000010400D0000571
     116       0       0       1       0                               0D0000572
     123     423       0       0       0       0       0       000010200D0000573
     123       0       0       1       0                               0D0000574
     123     424       0       0       0       0       0       000010200D0000575
     123       0       0       1       0                               0D0000576
     508     425       0       0       0       0       0       000010000D0000577
     508       0       0       1       1                               0D0000578
     510     426       0       0       0       0       0       000010000D0000579
     510       0       0       1       1                               0D0000580
     190     427       0       0       0       0       0       000010000D0000581
     190       0       0       1       1                               0D0000582
     116     428       0       0       0       0       0       000010400D0000583
     116       0       0       1       0                               0D0000584
     123     429       0       0       0       0       0       000010200D0000585
     123       0       0       1       0                               0D0000586
     123     430       0       0       0       0       0       000010200D0000587
     123       0       0       1       0                               0D0000588
     508     431       0       0       0       0       0       000010000D0000589
     508       0       0       1       1                               0D0000590
     510     432       0       0       0       0       0       000010000D0000591
     510       0       0       1       1                               0D0000592
     190     433       0       0       0       0       0       000010000D0000593
     190       0       0       1       1                               0D0000594
     116     434       0       0       0       0       0       000010400D0000595
     116       0       0       1       0                               0D0000596
     123     435       0       0       0       0       0       000010200D0000597
     123       0       0       1       0                               0D0000598
     123     436       0       0       0       0       0       000010200D0000599
     123       0       0       1       0                               0D0000600
     508     437       0       0       0       0       0       000010000D0000601
     508       0       0       1       1                               0D0000602
     510     438       0       0       0       0       0       000010000D0000603
     510       0       0       1       1                               0D0000604
     190     439       0       0       0       0       0       000010000D0000605
     190       0       0       1       1                               0D0000606
     116     440       0       0       0       0       0       000010400D0000607
     116       0       0       1       0                               0D0000608
     123     441       0       0       0       0       0       000010200D0000609
     123       0       0       1       0                               0D0000610
     123     442       0       0       0       0       0       000010200D0000611
     123       0       0       1       0                               0D0000612
     508     443       0       0       0       0       0       000010000D0000613
     508       0       0       1       1                               0D0000614
     510     444       0       0       0       0       0       000010000D0000615
     510       0       0       1       1                               0D0000616
     190     445       0       0       0       0       0       000010000D0000617
     190       0       0       1       1                               0D0000618
     116     446       0       0       0       0       0       000010400D0000619
     116       0       0       1       0                               0D0000620
     123     447       0       0       0       0       0       000010200D0000621
     123       0       0       1       0                               0D0000622
     123     448       0       0       0       0       0       000010200D0000623
     123       0       0       1       0                               0D0000624
     508     449       0       0       0       0       0       000010000D0000625
     508       0       0       1       1                               0D0000626
     510     450       0       0       0       0       0       000010000D0000627
     510       0       0       1       1                               0D0000628
     190     451       0       0       0       0       0       000010000D0000629
     190       0       0       1       1                               0D0000630
     116     452       0       0       0       0       0       000010400D0000631
     116       0       0       1       0                               0D0000632
     123     453       0       0       0       0       0       000010200D0000633
     123       0       0       1       0                               0D0000634
     123     454       0       0       0       0       0       000010200D0000635
     123       0       0       1       0                               0D0000636
     508     455       0       0       0       0       0       000010000D0000637
     508       0       0       1       1                               0D0000638
     510     456       0       0       0       0       0       000010000D0000639
     510       0       0       1       1                               0D0000640
     190     457       0       0       0       0       0       000010000D0000641
     190       0       0       1       1                               0D0000642
     116     458       0       0       0       0       0       000010400D0000643
     116       0       0       1       0                               0D0000644
     123     459       0       0       0       0       0       000010200D0000645
     123       0       0       1       0                               0D0000646
     123     460       0       0       0       0       0       000010200D0000647
     123       0       0       1       0                               0D0000648
     508     461       0       0       0       0       0       000010000D0000649
     508       0       0       7       1                               0D0000650
     510     468       0       0       0       0       0       000010000D0000651
     510       0       0       1       1                               0D0000652
     190     469       0       0       0       0       0       000010000D0000653
     190       0       0       1       1                               0D0000654
     116     470       0       0       0       0       0       000010400D0000655
     116       0       0       1       0                               0D0000656
     123     471       0       0       0       0       0       000010200D0000657
     123       0       0       1       0                               0D0000658
     123     472       0       0       0       0       0       000010200D0000659
     123       0       0       1       0                               0D0000660
     508     473       0       0       0       0       0       000010000D0000661
     508       0       0       7       1                               0D0000662
186,3,1,0;                                                       0000001P0000001
514,37,5,1,231,1,243,1,255,1,267,1,279,1,291,1,303,1,315,1,327,  0000003P0000002
1,339,1,351,1,363,1,375,1,387,1,399,1,411,1,423,1,435,1,447,1,   0000003P0000003
459,1,471,1,483,1,495,1,507,1,519,1,531,1,543,1,555,1,567,1,579, 0000003P0000004
1,591,1,603,1,615,1,627,1,639,1,651,0;                           0000003P0000005
510,7,1,1,15;                                                    0000005P0000006
190,9,11,13;                                                     0000007P0000007
116,95.001252629,12.,100.,0;                                     0000009P0000008
123,0.909775,-0.415101735,0.;                                    0000011P0000009
123,-0.415101735,-0.909775,0.;                                   0000013P0000010
508,4,0,17,1,1,0,0,17,2,1,0,0,17,3,0,0,0,17,4,0,0;               0000015P0000011
504,105,19,21,1,21,2,23,21,2,21,3,25,21,4,21,3,27,21,1,21,4,29,  0000017P0000012
21,3,21,5,31,21,6,21,5,33,21,4,21,6,35,21,5,21,7,37,21,8,21,7,   0000017P0000013
39,21,6,21,8,41,21,7,21,9,43,21,10,21,9,45,21,8,21,10,47,21,9,   0000017P0000014
21,11,49,21,12,21,11,51,21,10,21,12,53,21,11,21,13,55,21,14,21,  0000017P0000015
13,57,21,12,21,14,59,21,13,21,15,61,21,16,21,15,63,21,14,21,16,  0000017P0000016
65,21,15,21,17,67,21,18,21,17,69,21,16,21,18,71,21,17,21,19,73,  0000017P0000017
21,20,21,19,75,21,18,21,20,77,21,19,21,21,79,21,22,21,21,81,21,  0000017P0000018
20,21,22,83,21,21,21,23,85,21,24,21,23,87,21,22,21,24,89,21,23,  0000017P0000019
21,25,91,21,26,21,25,93,21,24,21,26,95,21,25,21,27,97,21,28,21,  0000017P0000020
27,99,21,26,21,28,101,21,27,21,29,103,21,30,21,29,105,21,28,21,  0000017P0000021
30,107,21,29,21,31,109,21,32,21,31,111,21,30,21,32,113,21,31,21, 0000017P0000022
33,115,21,34,21,33,117,21,32,21,34,119,21,33,21,35,121,21,36,21, 0000017P0000023
35,123,21,34,21,36,125,21,35,21,37,127,21,38,21,37,129,21,36,21, 0000017P0000024
38,131,21,37,21,39,133,21,40,21,39,135,21,38,21,40,137,21,39,21, 0000017P0000025
41,139,21,42,21,41,141,21,40,21,42,143,21,41,21,43,145,21,44,21, 0000017P0000026
43,147,21,42,21,44,149,21,43,21,45,151,21,46,21,45,153,21,44,21, 0000017P0000027
46,155,21,45,21,47,157,21,48,21,47,159,21,46,21,48,161,21,47,21, 0000017P0000028
49,163,21,50,21,49,165,21,48,21,50,167,21,49,21,51,169,21,52,21, 0000017P0000029
51,171,21,50,21,52,173,21,51,21,53,175,21,54,21,53,177,21,52,21, 0000017P0000030
54,179,21,53,21,55,181,21,56,21,55,183,21,54,21,56,185,21,55,21, 0000017P0000031
57,187,21,58,21,57,189,21,56,21,58,191,21,57,21,59,193,21,60,21, 0000017P0000032
59,195,21,58,21,60,197,21,59,21,61,199,21,62,21,61,201,21,60,21, 0000017P0000033
62,203,21,61,21,63,205,21,64,21,63,207,21,62,21,64,209,21,63,21, 0000017P0000034
65,211,21,66,21,65,213,21,64,21,66,215,21,65,21,67,217,21,68,21, 0000017P0000035
67,219,21,66,21,68,221,21,67,21,69,223,21,70,21,69,225,21,68,21, 0000017P0000036
70,227,21,69,21,2,229,21,70,21,1;                                0000017P0000037
110,95.001252629,12.,100.,95.001252629,12.,110.;                 0000019P0000038
502,70,95.001252629,12.,100.,95.001252629,12.,110.,94.475834069, 0000021P0000039
10.848444537,110.,94.475834069,10.848444537,100.,93.883229997,   0000021P0000040
9.347603994,110.,93.883229997,9.347603994,100.,93.38258401,      0000021P0000041
7.834871348,110.,93.38258401,7.834871348,100.,92.967981039,      0000021P0000042
6.292291227,110.,92.967981039,6.292291227,100.,92.644334238,     0000021P0000043
4.734275843,110.,92.644334238,4.734275843,100.,92.515183348,     0000021P0000044
3.939128335,110.,92.515183348,3.939128335,100.,92.331143237,     0000021P0000045
2.376652651,110.,92.331143237,2.376652651,100.,92.237979818,     0000021P0000046
0.796786233,110.,92.237979818,0.796786233,100.,92.226199442,     0000021P0000047
-5.870107203E-03,110.,92.226199442,-5.870107203E-03,100.,        0000021P0000048
92.272968639,-1.58720877,110.,92.272968639,-1.58720877,100.,     0000021P0000049
92.412466203,-3.164633603,110.,92.412466203,-3.164633603,100.,   0000021P0000050
92.642302511,-4.722822149,110.,92.642302511,-4.722822149,100.,   0000021P0000051
92.794731334,-5.514975887,110.,92.794731334,-5.514975887,100.,   0000021P0000052
93.163973335,-7.06574702,110.,93.163973335,-7.06574702,100.,     0000021P0000053
93.623674796,-8.599195541,110.,93.623674796,-8.599195541,100.,   0000021P0000054
94.168535791,-10.101111244,110.,94.168535791,-10.101111244,100., 0000021P0000055
94.480237505,-10.858735833,110.,94.480237505,-10.858735833,100., 0000021P0000056
95.160526782,-12.332677005,110.,95.160526782,-12.332677005,100., 0000021P0000057
95.926260767,-13.77651495,110.,95.926260767,-13.77651495,100.,   0000021P0000058
96.769762291,-15.177741069,110.,96.769762291,-15.177741069,100., 0000021P0000059
97.230847013,-15.878241647,110.,97.230847013,-15.878241647,100., 0000021P0000060
98.201421562,-17.231800182,110.,98.201421562,-17.231800182,100., 0000021P0000061
99.249914895,-18.543491756,110.,99.249914895,-18.543491756,100., 0000021P0000062
100.37375438,-19.810186377,110.,100.37375438,-19.810186377,100., 0000021P0000063
101.570192249,-21.028868477,110.,101.570192249,-21.028868477,    0000021P0000064
100.,102.828989425,-22.190210685,110.,102.828989425,             0000021P0000065
-22.190210685,100.,103.494548477,-22.760569046,110.,             0000021P0000066
103.494548477,-22.760569046,100.,104.859375785,-23.846830061,    0000021P0000067
110.,104.859375785,-23.846830061,100.,106.285908731,             0000021P0000068
-24.875507972,110.,106.285908731,-24.875507972,100.,             0000021P0000069
107.762891447,-25.839328009,110.,107.762891447,-25.839328009,    0000021P0000070
100.,109.302274289,-26.746120036,110.,109.302274289,             0000021P0000071
-26.746120036,100.,110.558341273,-27.416213082,110.,             0000021P0000072
110.558341273,-27.416213082,100.,74.,-30.,110.,74.,-30.,100.,    0000021P0000073
74.,12.,110.,74.,12.,100.;                                       0000021P0000074
110,95.001252629,12.,110.,94.475834069,10.848444537,110.;        0000023P0000075
110,94.475834069,10.848444537,100.,94.475834069,10.848444537,    0000025P0000076
110.;                                                            0000025P0000077
110,95.001252629,12.,100.,94.475834069,10.848444537,100.;        0000027P0000078
110,94.475834069,10.848444537,110.,93.883229997,9.347603994,     0000029P0000079
110.;                                                            0000029P0000080
110,93.883229997,9.347603994,100.,93.883229997,9.347603994,110.; 0000031P0000081
110,94.475834069,10.848444537,100.,93.883229997,9.347603994,     0000033P0000082
100.;                                                            0000033P0000083
110,93.883229997,9.347603994,110.,93.38258401,7.834871348,110.;  0000035P0000084
110,93.38258401,7.834871348,100.,93.38258401,7.834871348,110.;   0000037P0000085
110,93.883229997,9.347603994,100.,93.38258401,7.834871348,100.;  0000039P0000086
110,93.38258401,7.834871348,110.,92.967981039,6.292291227,110.;  0000041P0000087
110,92.967981039,6.292291227,100.,92.967981039,6.292291227,110.; 0000043P0000088
110,93.38258401,7.834871348,100.,92.967981039,6.292291227,100.;  0000045P0000089
110,92.967981039,6.292291227,110.,92.644334238,4.734275843,110.; 0000047P0000090
110,92.644334238,4.734275843,100.,92.644334238,4.734275843,110.; 0000049P0000091
110,92.967981039,6.292291227,100.,92.644334238,4.734275843,100.; 0000051P0000092
110,92.644334238,4.734275843,110.,92.515183348,3.939128335,110.; 0000053P0000093
110,92.515183348,3.939128335,100.,92.515183348,3.939128335,110.; 0000055P0000094
110,92.644334238,4.734275843,100.,92.515183348,3.939128335,100.; 0000057P0000095
110,92.515183348,3.939128335,110.,92.331143237,2.376652651,110.; 0000059P0000096
110,92.331143237,2.376652651,100.,92.331143237,2.376652651,110.; 0000061P0000097
110,92.515183348,3.939128335,100.,92.331143237,2.376652651,100.; 0000063P0000098
110,92.331143237,2.376652651,110.,92.237979818,0.796786233,110.; 0000065P0000099
110,92.237979818,0.796786233,100.,92.237979818,0.796786233,110.; 0000067P0000100
110,92.331143237,2.376652651,100.,92.237979818,0.796786233,100.; 0000069P0000101
110,92.237979818,0.796786233,110.,92.226199442,-5.870107203E-03, 0000071P0000102
110.;                                                            0000071P0000103
110,92.226199442,-5.870107203E-03,100.,92.226199442,             0000073P0000104
-5.870107203E-03,110.;                                           0000073P0000105
110,92.237979818,0.796786233,100.,92.226199442,-5.870107203E-03, 0000075P0000106
100.;                                                            0000075P0000107
110,92.226199442,-5.870107203E-03,110.,92.272968639,-1.58720877, 0000077P0000108
110.;                                                            0000077P0000109
110,92.272968639,-1.58720877,100.,92.272968639,-1.58720877,110.; 0000079P0000110
110,92.226199442,-5.870107203E-03,100.,92.272968639,-1.58720877, 0000081P0000111
100.;                                                            0000081P0000112
110,92.272968639,-1.58720877,110.,92.412466203,-3.164633603,     0000083P0000113
110.;                                                            0000083P0000114
110,92.412466203,-3.164633603,100.,92.412466203,-3.164633603,    0000085P0000115
110.;                                                            0000085P0000116
110,92.272968639,-1.58720877,100.,92.412466203,-3.164633603,     0000087P0000117
100.;                                                            0000087P0000118
110,92.412466203,-3.164633603,110.,92.642302511,-4.722822149,    0000089P0000119
110.;                                                            0000089P0000120
110,92.642302511,-4.722822149,100.,92.642302511,-4.722822149,    0000091P0000121
110.;                                                            0000091P0000122
110,92.412466203,-3.164633603,100.,92.642302511,-4.722822149,    0000093P0000123
100.;                                                            0000093P0000124
110,92.642302511,-4.722822149,110.,92.794731334,-5.514975887,    0000095P0000125
110.;                                                            0000095P0000126
110,92.794731334,-5.514975887,100.,92.794731334,-5.514975887,    0000097P0000127
110.;                                                            0000097P0000128
110,92.642302511,-4.722822149,100.,92.794731334,-5.514975887,    0000099P0000129
100.;                                                            0000099P0000130
110,92.794731334,-5.514975887,110.,93.163973335,-7.06574702,     0000101P0000131
110.;                                                            0000101P0000132
110,93.163973335,-7.06574702,100.,93.163973335,-7.06574702,110.; 0000103P0000133
110,92.794731334,-5.514975887,100.,93.163973335,-7.06574702,     0000105P0000134
100.;                                                            0000105P0000135
110,93.163973335,-7.06574702,110.,93.623674796,-8.599195541,     0000107P0000136
110.;                                                            0000107P0000137
110,93.623674796,-8.599195541,100.,93.623674796,-8.599195541,    0000109P0000138
110.;                                                            0000109P0000139
110,93.163973335,-7.06574702,100.,93.623674796,-8.599195541,     0000111P0000140
100.;                                                            0000111P0000141
110,93.623674796,-8.599195541,110.,94.168535791,-10.101111244,   0000113P0000142
110.;                                                            0000113P0000143
110,94.168535791,-10.101111244,100.,94.168535791,-10.101111244,  0000115P0000144
110.;                                                            0000115P0000145
110,93.623674796,-8.599195541,100.,94.168535791,-10.101111244,   0000117P0000146
100.;                                                            0000117P0000147
110,94.168535791,-10.101111244,110.,94.480237505,-10.858735833,  0000119P0000148
110.;                                                            0000119P0000149
110,94.480237505,-10.858735833,100.,94.480237505,-10.858735833,  0000121P0000150
110.;                                                            0000121P0000151
110,94.168535791,-10.101111244,100.,94.480237505,-10.858735833,  0000123P0000152
100.;                                                            0000123P0000153
110,94.480237505,-10.858735833,110.,95.160526782,-12.332677005,  0000125P0000154
110.;                                                            0000125P0000155
110,95.160526782,-12.332677005,100.,95.160526782,-12.332677005,  0000127P0000156
110.;                                                            0000127P0000157
110,94.480237505,-10.858735833,100.,95.160526782,-12.332677005,  0000129P0000158
100.;                                                            0000129P0000159
110,95.160526782,-12.332677005,110.,95.926260767,-13.77651495,   0000131P0000160
110.;                                                            0000131P0000161
110,95.926260767,-13.77651495,100.,95.926260767,-13.77651495,    0000133P0000162
110.;                                                            0000133P0000163
110,95.160526782,-12.332677005,100.,95.926260767,-13.77651495,   0000135P0000164
100.;                                                            0000135P0000165
110,95.926260767,-13.77651495,110.,96.769762291,-15.177741069,   0000137P0000166
110.;                                                            0000137P0000167
110,96.769762291,-15.177741069,100.,96.769762291,-15.177741069,  0000139P0000168
110.;                                                            0000139P0000169
110,95.926260767,-13.77651495,100.,96.769762291,-15.177741069,   0000141P0000170
100.;                                                            0000141P0000171
110,96.769762291,-15.177741069,110.,97.230847013,-15.878241647,  0000143P0000172
110.;                                                            0000143P0000173
110,97.230847013,-15.878241647,100.,97.230847013,-15.878241647,  0000145P0000174
110.;                                                            0000145P0000175
110,96.769762291,-15.177741069,100.,97.230847013,-15.878241647,  0000147P0000176
100.;                                                            0000147P0000177
110,97.230847013,-15.878241647,110.,98.201421562,-17.231800182,  0000149P0000178
110.;                                                            0000149P0000179
110,98.201421562,-17.231800182,100.,98.201421562,-17.231800182,  0000151P0000180
110.;                                                            0000151P0000181
110,97.230847013,-15.878241647,100.,98.201421562,-17.231800182,  0000153P0000182
100.;                                                            0000153P0000183
110,98.201421562,-17.231800182,110.,99.249914895,-18.543491756,  0000155P0000184
110.;                                                            0000155P0000185
110,99.249914895,-18.543491756,100.,99.249914895,-18.543491756,  0000157P0000186
110.;                                                            0000157P0000187
110,98.201421562,-17.231800182,100.,99.249914895,-18.543491756,  0000159P0000188
100.;                                                            0000159P0000189
110,99.249914895,-18.543491756,110.,100.37375438,-19.810186377,  0000161P0000190
110.;                                                            0000161P0000191
110,100.37375438,-19.810186377,100.,100.37375438,-19.810186377,  0000163P0000192
110.;                                                            0000163P0000193
110,99.249914895,-18.543491756,100.,100.37375438,-19.810186377,  0000165P0000194
100.;                                                            0000165P0000195
110,100.37375438,-19.810186377,110.,101.570192249,-21.028868477, 0000167P0000196
110.;                                                            0000167P0000197
110,101.570192249,-21.028868477,100.,101.570192249,              0000169P0000198
-21.028868477,110.;                                              0000169P0000199
110,100.37375438,-19.810186377,100.,101.570192249,-21.028868477, 0000171P0000200
100.;                                                            0000171P0000201
110,101.570192249,-21.028868477,110.,102.828989425,              0000173P0000202
-22.190210685,110.;                                              0000173P0000203
110,102.828989425,-22.190210685,100.,102.828989425,              0000175P0000204
-22.190210685,110.;                                              0000175P0000205
110,101.570192249,-21.028868477,100.,102.828989425,              0000177P0000206
-22.190210685,100.;                                              0000177P0000207
110,102.828989425,-22.190210685,110.,103.494548477,              0000179P0000208
-22.760569046,110.;                                              0000179P0000209
110,103.494548477,-22.760569046,100.,103.494548477,              0000181P0000210
-22.760569046,110.;                                              0000181P0000211
110,102.828989425,-22.190210685,100.,103.494548477,              0000183P0000212
-22.760569046,100.;                                              0000183P0000213
110,103.494548477,-22.760569046,110.,104.859375785,              0000185P0000214
-23.846830061,110.;                                              0000185P0000215
110,104.859375785,-23.846830061,100.,104.859375785,              0000187P0000216
-23.846830061,110.;                                              0000187P0000217
110,103.494548477,-22.760569046,100.,104.859375785,              0000189P0000218
-23.846830061,100.;                                              0000189P0000219
110,104.859375785,-23.846830061,110.,106.285908731,              0000191P0000220
-24.875507972,110.;                                              0000191P0000221
110,106.285908731,-24.875507972,100.,106.285908731,              0000193P0000222
-24.875507972,110.;                                              0000193P0000223
110,104.859375785,-23.846830061,100.,106.285908731,              0000195P0000224
-24.875507972,100.;                                              0000195P0000225
110,106.285908731,-24.875507972,110.,107.762891447,              0000197P0000226
-25.839328009,110.;                                              0000197P0000227
110,107.762891447,-25.839328009,100.,107.762891447,              0000199P0000228
-25.839328009,110.;                                              0000199P0000229
110,106.285908731,-24.875507972,100.,107.762891447,              0000201P0000230
-25.839328009,100.;                                              0000201P0000231
110,107.762891447,-25.839328009,110.,109.302274289,              0000203P0000232
-26.746120036,110.;                                              0000203P0000233
110,109.302274289,-26.746120036,100.,109.302274289,              0000205P0000234
-26.746120036,110.;                                              0000205P0000235
110,107.762891447,-25.839328009,100.,109.302274289,              0000207P0000236
-26.746120036,100.;                                              0000207P0000237
110,109.302274289,-26.746120036,110.,110.558341273,              0000209P0000238
-27.416213082,110.;                                              0000209P0000239
110,110.558341273,-27.416213082,100.,110.558341273,              0000211P0000240
-27.416213082,110.;                                              0000211P0000241
110,109.302274289,-26.746120036,100.,110.558341273,              0000213P0000242
-27.416213082,100.;                                              0000213P0000243
110,110.558341273,-27.416213082,110.,74.,-30.,110.;              0000215P0000244
110,74.,-30.,100.,74.,-30.,110.;                                 0000217P0000245
110,110.558341273,-27.416213082,100.,74.,-30.,100.;              0000219P0000246
110,74.,-30.,110.,74.,12.,110.;                                  0000221P0000247
110,74.,12.,100.,74.,12.,110.;                                   0000223P0000248
110,74.,-30.,100.,74.,12.,100.;                                  0000225P0000249
110,74.,12.,110.,95.001252629,12.,110.;                          0000227P0000250
110,74.,12.,100.,95.001252629,12.,100.;                          0000229P0000251
510,233,1,1,241;                                                 0000231P0000252
190,235,237,239;                                                 0000233P0000253
116,94.475834069,10.848444537,100.,0;                            0000235P0000254
123,0.930119868,-0.367256084,0.;                                 0000237P0000255
123,-0.367256084,-0.930119868,0.;                                0000239P0000256
508,4,0,17,3,1,0,0,17,5,1,0,0,17,6,0,0,0,17,7,0,0;               0000241P0000257
510,245,1,1,253;                                                 0000243P0000258
190,247,249,251;                                                 0000245P0000259
116,93.883229997,9.347603994,100.,0;                             0000247P0000260
123,0.949358572,-0.314194686,0.;                                 0000249P0000261
123,-0.314194686,-0.949358572,0.;                                0000251P0000262
508,4,0,17,6,1,0,0,17,8,1,0,0,17,9,0,0,0,17,10,0,0;              0000253P0000263
510,257,1,1,265;                                                 0000255P0000264
190,259,261,263;                                                 0000257P0000265
116,93.38258401,7.834871348,100.,0;                              0000259P0000266
123,0.965726791,-0.259560714,0.;                                 0000261P0000267
123,-0.259560714,-0.965726791,0.;                                0000263P0000268
508,4,0,17,9,1,0,0,17,11,1,0,0,17,12,0,0,0,17,13,0,0;            0000265P0000269
510,269,1,1,277;                                                 0000267P0000270
190,271,273,275;                                                 0000269P0000271
116,92.967981039,6.292291227,100.,0;                             0000271P0000272
123,0.979098171,-0.203388229,0.;                                 0000273P0000273
123,-0.203388229,-0.979098171,0.;                                0000275P0000274
508,4,0,17,12,1,0,0,17,14,1,0,0,17,15,0,0,0,17,16,0,0;           0000277P0000275
510,281,1,1,289;                                                 0000279P0000276
190,283,285,287;                                                 0000281P0000277
116,92.644334238,4.734275843,100.,0;                             0000283P0000278
123,0.987064638,-0.160322802,0.;                                 0000285P0000279
123,-0.160322802,-0.987064638,0.;                                0000287P0000280
508,4,0,17,15,1,0,0,17,17,1,0,0,17,18,0,0,0,17,19,0,0;           0000289P0000281
510,293,1,1,301;                                                 0000291P0000282
190,295,297,299;                                                 0000293P0000283
116,92.515183348,3.939128335,100.,0;                             0000295P0000284
123,0.993134409,-0.116978823,0.;                                 0000297P0000285
123,-0.116978823,-0.993134409,0.;                                0000299P0000286
508,4,0,17,18,1,0,0,17,20,1,0,0,17,21,0,0,0,17,22,0,0;           0000301P0000287
510,305,1,1,313;                                                 0000303P0000288
190,307,309,311;                                                 0000305P0000289
116,92.331143237,2.376652651,100.,0;                             0000307P0000290
123,0.99826584,-5.886691262E-02,0.;                              0000309P0000291
123,-5.886691262E-02,-0.99826584,0.;                             0000311P0000292
508,4,0,17,21,1,0,0,17,23,1,0,0,17,24,0,0,0,17,25,0,0;           0000313P0000293
510,317,1,1,325;                                                 0000315P0000294
190,319,321,323;                                                 0000317P0000295
116,92.237979818,0.796786233,100.,0;                             0000319P0000296
123,0.999892314,-1.467515687E-02,0.;                             0000321P0000297
123,-1.467515687E-02,-0.999892314,0.;                            0000323P0000298
508,4,0,17,24,1,0,0,17,26,1,0,0,17,27,0,0,0,17,28,0,0;           0000325P0000299
510,329,1,1,337;                                                 0000327P0000300
190,331,333,335;                                                 0000329P0000301
116,92.226199442,-5.870107203E-03,100.,0;                        0000331P0000302
123,0.999562926,2.956277292E-02,-0.;                             0000333P0000303
123,2.956277292E-02,-0.999562926,0.;                             0000335P0000304
508,4,0,17,27,1,0,0,17,29,1,0,0,17,30,0,0,0,17,31,0,0;           0000337P0000305
510,341,1,1,349;                                                 0000339P0000306
190,343,345,347;                                                 0000341P0000307
116,92.272968639,-1.58720877,100.,0;                             0000343P0000308
123,0.996112524,8.808994756E-02,-0.;                             0000345P0000309
123,8.808994756E-02,-0.996112524,0.;                             0000347P0000310
508,4,0,17,30,1,0,0,17,32,1,0,0,17,33,0,0,0,17,34,0,0;           0000349P0000311
510,353,1,1,361;                                                 0000351P0000312
190,355,357,359;                                                 0000353P0000313
116,92.412466203,-3.164633603,100.,0;                            0000355P0000314
123,0.989295897,0.145923365,-0.;                                 0000357P0000315
123,0.145923365,-0.989295897,0.;                                 0000359P0000316
508,4,0,17,33,1,0,0,17,35,1,0,0,17,36,0,0,0,17,37,0,0;           0000361P0000317
510,365,1,1,373;                                                 0000363P0000318
190,367,369,371;                                                 0000365P0000319
116,92.642302511,-4.722822149,100.,0;                            0000367P0000320
123,0.981985391,0.188956853,-0.;                                 0000369P0000321
123,0.188956853,-0.981985391,0.;                                 0000371P0000322
508,4,0,17,36,1,0,0,17,38,1,0,0,17,39,0,0,0,17,40,0,0;           0000373P0000323
510,377,1,1,385;                                                 0000375P0000324
190,379,381,383;                                                 0000377P0000325
116,92.794731334,-5.514975887,100.,0;                            0000379P0000326
123,0.972804691,0.231626926,-0.;                                 0000381P0000327
123,0.231626926,-0.972804691,0.;                                 0000383P0000328
508,4,0,17,39,1,0,0,17,41,1,0,0,17,42,0,0,0,17,43,0,0;           0000385P0000329
510,389,1,1,397;                                                 0000387P0000330
190,391,393,395;                                                 0000389P0000331
116,93.163973335,-7.06574702,100.,0;                             0000391P0000332
123,0.957883534,0.287156989,-0.;                                 0000393P0000333
123,0.287156989,-0.957883534,0.;                                 0000395P0000334
508,4,0,17,42,1,0,0,17,44,1,0,0,17,45,0,0,0,17,46,0,0;           0000397P0000335
510,401,1,1,409;                                                 0000399P0000336
190,403,405,407;                                                 0000401P0000337
116,93.623674796,-8.599195541,100.,0;                            0000403P0000338
123,0.940052502,0.341029753,-0.;                                 0000405P0000339
123,0.341029753,-0.940052502,0.;                                 0000407P0000340
508,4,0,17,45,1,0,0,17,47,1,0,0,17,48,0,0,0,17,49,0,0;           0000409P0000341
510,413,1,1,421;                                                 0000411P0000342
190,415,417,419;                                                 0000413P0000343
116,94.168535791,-10.101111244,100.,0;                           0000415P0000344
123,0.924790375,0.380477019,-0.;                                 0000417P0000345
123,0.380477019,-0.924790375,0.;                                 0000419P0000346
508,4,0,17,48,1,0,0,17,50,1,0,0,17,51,0,0,0,17,52,0,0;           0000421P0000347
510,425,1,1,433;                                                 0000423P0000348
190,427,429,431;                                                 0000425P0000349
116,94.480237505,-10.858735833,100.,0;                           0000427P0000350
123,0.907957337,0.419062614,-0.;                                 0000429P0000351
123,0.419062614,-0.907957337,0.;                                 0000431P0000352
508,4,0,17,51,1,0,0,17,53,1,0,0,17,54,0,0,0,17,55,0,0;           0000433P0000353
510,437,1,1,445;                                                 0000435P0000354
190,439,441,443;                                                 0000437P0000355
116,95.160526782,-12.332677005,100.,0;                           0000439P0000356
123,0.883446311,0.468532405,-0.;                                 0000441P0000357
123,0.468532405,-0.883446311,0.;                                 0000443P0000358
508,4,0,17,54,1,0,0,17,56,1,0,0,17,57,0,0,0,17,58,0,0;           0000445P0000359
510,449,1,1,457;                                                 0000447P0000360
190,451,453,455;                                                 0000449P0000361
116,95.926260767,-13.77651495,100.,0;                            0000451P0000362
123,0.856745944,0.515738681,-0.;                                 0000453P0000363
123,0.515738681,-0.856745944,0.;                                 0000455P0000364
508,4,0,17,57,1,0,0,17,59,1,0,0,17,60,0,0,0,17,61,0,0;           0000457P0000365
510,461,1,1,469;                                                 0000459P0000366
190,463,465,467;                                                 0000461P0000367
116,96.769762291,-15.177741069,100.,0;                           0000463P0000368
123,0.835291638,0.54980713,-0.;                                  0000465P0000369
123,0.54980713,-0.835291638,0.;                                  0000467P0000370
508,4,0,17,60,1,0,0,17,62,1,0,0,17,63,0,0,0,17,64,0,0;           0000469P0000371
510,473,1,1,481;                                                 0000471P0000372
190,475,477,479;                                                 0000473P0000373
116,97.230847013,-15.878241647,100.,0;                           0000475P0000374
123,0.812668065,0.582726879,-0.;                                 0000477P0000375
123,0.582726879,-0.812668065,0.;                                 0000479P0000376
508,4,0,17,63,1,0,0,17,65,1,0,0,17,66,0,0,0,17,67,0,0;           0000481P0000377
510,485,1,1,493;                                                 0000483P0000378
190,487,489,491;                                                 0000485P0000379
116,98.201421562,-17.231800182,100.,0;                           0000487P0000380
123,0.781118547,0.624382748,-0.;                                 0000489P0000381
123,0.624382748,-0.781118547,0.;                                 0000491P0000382
508,4,0,17,66,1,0,0,17,68,1,0,0,17,69,0,0,0,17,70,0,0;           0000493P0000383
510,497,1,1,505;                                                 0000495P0000384
190,499,501,503;                                                 0000497P0000385
116,99.249914895,-18.543491756,100.,0;                           0000499P0000386
123,0.748028091,0.663667067,-0.;                                 0000501P0000387
123,0.663667067,-0.748028091,0.;                                 0000503P0000388
508,4,0,17,69,1,0,0,17,71,1,0,0,17,72,0,0,0,17,73,0,0;           0000505P0000389
510,509,1,1,517;                                                 0000507P0000390
190,511,513,515;                                                 0000509P0000391
116,100.37375438,-19.810186377,100.,0;                           0000511P0000392
123,0.713589253,0.700564328,-0.;                                 0000513P0000393
123,0.700564328,-0.713589253,0.;                                 0000515P0000394
508,4,0,17,72,1,0,0,17,74,1,0,0,17,75,0,0,0,17,76,0,0;           0000517P0000395
510,521,1,1,529;                                                 0000519P0000396
190,523,525,527;                                                 0000521P0000397
116,101.570192249,-21.028868477,100.,0;                          0000523P0000398
123,0.678083227,0.734985128,-0.;                                 0000525P0000399
123,0.734985128,-0.678083227,0.;                                 0000527P0000400
508,4,0,17,75,1,0,0,17,77,1,0,0,17,78,0,0,0,17,79,0,0;           0000529P0000401
510,533,1,1,541;                                                 0000531P0000402
190,535,537,539;                                                 0000533P0000403
116,102.828989425,-22.190210685,100.,0;                          0000535P0000404
123,0.650711904,0.759324712,-0.;                                 0000537P0000405
123,0.759324712,-0.650711904,0.;                                 0000539P0000406
508,4,0,17,78,1,0,0,17,80,1,0,0,17,81,0,0,0,17,82,0,0;           0000541P0000407
510,545,1,1,553;                                                 0000543P0000408
190,547,549,551;                                                 0000545P0000409
116,103.494548477,-22.760569046,100.,0;                          0000547P0000410
123,0.622735241,0.782432629,-0.;                                 0000549P0000411
123,0.782432629,-0.622735241,0.;                                 0000551P0000412
508,4,0,17,81,1,0,0,17,83,1,0,0,17,84,0,0,0,17,85,0,0;           0000553P0000413
510,557,1,1,565;                                                 0000555P0000414
190,559,561,563;                                                 0000557P0000415
116,104.859375785,-23.846830061,100.,0;                          0000559P0000416
123,0.584894051,0.811109702,-0.;                                 0000561P0000417
123,0.811109702,-0.584894051,0.;                                 0000563P0000418
508,4,0,17,84,1,0,0,17,86,1,0,0,17,87,0,0,0,17,88,0,0;           0000565P0000419
510,569,1,1,577;                                                 0000567P0000420
190,571,573,575;                                                 0000569P0000421
116,106.285908731,-24.875507972,100.,0;                          0000571P0000422
123,0.546494686,0.837462571,-0.;                                 0000573P0000423
123,0.837462571,-0.546494686,0.;                                 0000575P0000424
508,4,0,17,87,1,0,0,17,89,1,0,0,17,90,0,0,0,17,91,0,0;           0000577P0000425
510,581,1,1,589;                                                 0000579P0000426
190,583,585,587;                                                 0000581P0000427
116,107.762891447,-25.839328009,100.,0;                          0000583P0000428
123,0.507549265,0.861622739,-0.;                                 0000585P0000429
123,0.861622739,-0.507549265,0.;                                 0000587P0000430
508,4,0,17,90,1,0,0,17,92,1,0,0,17,93,0,0,0,17,94,0,0;           0000589P0000431
510,593,1,1,601;                                                 0000591P0000432
190,595,597,599;                                                 0000593P0000433
116,109.302274289,-26.746120036,100.,0;                          0000595P0000434
123,0.470692496,0.882297328,-0.;                                 0000597P0000435
123,0.882297328,-0.470692496,0.;                                 0000599P0000436
508,4,0,17,93,1,0,0,17,95,1,0,0,17,96,0,0,0,17,97,0,0;           0000601P0000437
510,605,1,1,613;                                                 0000603P0000438
190,607,609,611;                                                 0000605P0000439
116,110.558341273,-27.416213082,100.,0;                          0000607P0000440
123,7.049985919E-02,-0.997511789,0.;                             0000609P0000441
123,-0.997511789,-7.049985919E-02,0.;                            0000611P0000442
508,4,0,17,96,1,0,0,17,98,1,0,0,17,99,0,0,0,17,100,0,0;          0000613P0000443
510,617,1,1,625;                                                 0000615P0000444
190,619,621,623;                                                 0000617P0000445
116,74.,-30.,100.,0;                                             0000619P0000446
123,-1.,0.,0.;                                                   0000621P0000447
123,0.,1.,0.;                                                    0000623P0000448
508,4,0,17,99,1,0,0,17,101,1,0,0,17,102,0,0,0,17,103,0,0;        0000625P0000449
510,629,1,1,637;                                                 0000627P0000450
190,631,633,635;                                                 0000629P0000451
116,74.,12.,100.,0;                                              0000631P0000452
123,0.,1.,0.;                                                    0000633P0000453
123,1.,0.,0.;                                                    0000635P0000454
508,4,0,17,102,1,0,0,17,104,1,0,0,17,1,0,0,0,17,105,0,0;         0000637P0000455
510,641,1,1,649;                                                 0000639P0000456
190,643,645,647;                                                 0000641P0000457
116,87.553120206,-11.146363546,100.,0;                           0000643P0000458
123,-0.,-0.,-1.;                                                 0000645P0000459
123,-1.,0.,0.;                                                   0000647P0000460
508,35,0,17,4,1,0,0,17,7,1,0,0,17,10,1,0,0,17,13,1,0,0,17,16,1,  0000649P0000461
0,0,17,19,1,0,0,17,22,1,0,0,17,25,1,0,0,17,28,1,0,0,17,31,1,0,0, 0000649P0000462
17,34,1,0,0,17,37,1,0,0,17,40,1,0,0,17,43,1,0,0,17,46,1,0,0,17,  0000649P0000463
49,1,0,0,17,52,1,0,0,17,55,1,0,0,17,58,1,0,0,17,61,1,0,0,17,64,  0000649P0000464
1,0,0,17,67,1,0,0,17,70,1,0,0,17,73,1,0,0,17,76,1,0,0,17,79,1,0, 0000649P0000465
0,17,82,1,0,0,17,85,1,0,0,17,88,1,0,0,17,91,1,0,0,17,94,1,0,0,   0000649P0000466
17,97,1,0,0,17,100,1,0,0,17,103,1,0,0,17,105,1,0;                0000649P0000467
510,653,1,1,661;                                                 0000651P0000468
190,655,657,659;                                                 0000653P0000469
116,87.553120206,-11.146363546,110.,0;                           0000655P0000470
123,-0.,-0.,-1.;                                                 0000657P0000471
123,-1.,0.,0.;                                                   0000659P0000472
508,35,0,17,2,1,0,0,17,5,1,0,0,17,8,1,0,0,17,11,1,0,0,17,14,1,0, 0000661P0000473
0,17,17,1,0,0,17,20,1,0,0,17,23,1,0,0,17,26,1,0,0,17,29,1,0,0,   0000661P0000474
17,32,1,0,0,17,35,1,0,0,17,38,1,0,0,17,41,1,0,0,17,44,1,0,0,17,  0000661P0000475
47,1,0,0,17,50,1,0,0,17,53,1,0,0,17,56,1,0,0,17,59,1,0,0,17,62,  0000661P0000476
1,0,0,17,65,1,0,0,17,68,1,0,0,17,71,1,0,0,17,74,1,0,0,17,77,1,0, 0000661P0000477
0,17,80,1,0,0,17,83,1,0,0,17,86,1,0,0,17,89,1,0,0,17,92,1,0,0,   0000661P0000478
17,95,1,0,0,17,98,1,0,0,17,101,1,0,0,17,104,1,0;                 0000661P0000479
S      1G      4D    662P    479                                        T0000001
