                                                                        S0000001
,,31HOpen CASCADE IGES processor 7.9,13HFilename.iges,                  G0000001
16HOpen CASCADE 7.9,31HOpen CASCADE IGES processor 7.9,32,308,15,308,15,G0000002
,1.,2,2HMM,1,0.01,15H20260926.100451,5.005E-05,688.1,4Hroot,,11,0,      G0000003
15H20260926.100451,;                                                    G0000004
     186       1       0       0       0       0       0       000000000D0000001
     186       0       0       1       0                               0D0000002
     514       2       0       0       0       0       0       000010000D0000003
     514       0       0       2       1                               0D0000004
     510       4       0       0       0       0       0       000010000D0000005
     510       0       0       1       1                               0D0000006
     190       5       0       0       0       0       0       000010000D0000007
     190       0       0       1       1                               0D0000008
     116       6       0       0       0       0       0       000010400D0000009
     116       0       0       1       0                               0D0000010
     123       7       0       0       0       0       0       000010200D0000011
     123       0       0       1       0                               0D0000012
     123       8       0       0       0       0       0       000010200D0000013
     123       0       0       1       0                               0D0000014
     508       9       0       0       0       0       0       000010000D0000015
     508       0       0       1       1                               0D0000016
     504      10       0       0       0       0       0       000010001D0000017
     504       0       0       7       1                               0D0000018
     110      17       0       0       0       0       0       000010000D0000019
     110       0       0       1       0                               0D0000020
     502      18       0       0       0       0       0       000010000D0000021
     502       0       0       5       1                               0D0000022
     110      23       0       0       0       0       0       000010000D0000023
     110       0       0       1       0                               0D0000024
     110      24       0       0       0       0       0       000010000D0000025
     110       0       0       1       0                               0D0000026
     110      25       0       0       0       0       0       000010000D0000027
     110       0       0       1       0                               0D0000028
     110      26       0       0       0       0       0       000010000D0000029
     110       0       0       1       0                               0D0000030
     110      27       0       0       0       0       0       000010000D0000031
     110       0       0       1       0                               0D0000032
     110      28       0       0       0       0       0       000010000D0000033
     110       0       0       1       0                               0D0000034
     110      29       0       0       0       0       0       000010000D0000035
     110       0       0       1       0                               0D0000036
     110      30       0       0       0       0       0       000010000D0000037
     110       0       0       1       0                               0D0000038
     110      31       0       0       0       0       0       000010000D0000039
     110       0       0       1       0                               0D0000040
     110      32       0       0       0       0       0       000010000D0000041
     110       0       0       1       0                               0D0000042
     110      33       0       0       0       0       0       000010000D0000043
     110       0       0       1       0                               0D0000044
     110      34       0       0       0       0       0       000010000D0000045
     110       0       0       1       0                               0D0000046
     110      35       0       0       0       0       0       000010000D0000047
     110       0       0       1       0                               0D0000048
     110      36       0       0       0       0       0       000010000D0000049
     110       0       0       1       0                               0D0000050
     110      37       0       0       0       0       0       000010000D0000051
     110       0       0       1       0                               0D0000052
     110      38       0       0       0       0       0       000010000D0000053
     110       0       0       1       0                               0D0000054
     110      39       0       0       0       0       0       000010000D0000055
     110       0       0       1       0                               0D0000056
     110      40       0       0       0       0       0       000010000D0000057
     110       0       0       1       0                               0D0000058
     110      41       0       0       0       0       0       000010000D0000059
     110       0       0       1       0                               0D0000060
     110      42       0       0       0       0       0       000010000D0000061
     110       0       0       1       0                               0D0000062
     110      43       0       0       0       0       0       000010000D0000063
     110       0       0       1       0                               0D0000064
     110      44       0       0       0       0       0       000010000D0000065
     110       0       0       1       0                               0D0000066
     110      45       0       0       0       0       0       000010000D0000067
     110       0       0       1       0                               0D0000068
     110      46       0       0       0       0       0       000010000D0000069
     110       0       0       1       0                               0D0000070
     110      47       0       0       0       0       0       000010000D0000071
     110       0       0       1       0                               0D0000072
     110      48       0       0       0       0       0       000010000D0000073
     110       0       0       1       0                               0D0000074
     110      49       0       0       0       0       0       000010000D0000075
     110       0       0       1       0                               0D0000076
     510      50       0       0       0       0       0       000010000D0000077
     510       0       0       1       1                               0D0000078
     190      51       0       0       0       0       0       000010000D0000079
     190       0       0       1       1                               0D0000080
     116      52       0       0       0       0       0       000010400D0000081
     116       0       0       1       0                               0D0000082
     123      53       0       0       0       0       0       000010200D0000083
     123       0       0       1       0                               0D0000084
     123      54       0       0       0       0       0       000010200D0000085
     123       0       0       1       0                               0D0000086
     508      55       0       0       0       0       0       000010000D0000087
     508       0       0       1       1                               0D0000088
     510      56       0       0       0       0       0       000010000D0000089
     510       0       0       1       1                               0D0000090
     190      57       0       0       0       0       0       000010000D0000091
     190       0       0       1       1                               0D0000092
     116      58       0       0       0       0       0       000010400D0000093
     116       0       0       1       0                               0D0000094
     123      59       0       0       0       0       0       000010200D0000095
     123       0       0       1       0                               0D0000096
     123      60       0       0       0       0       0       000010200D0000097
     123       0       0       1       0                               0D0000098
     508      61       0       0       0       0       0       000010000D0000099
     508       0       0       1       1                               0D0000100
     510      62       0       0       0       0       0       000010000D0000101
     510       0       0       1       1                               0D0000102
     190      63       0       0       0       0       0       000010000D0000103
     190       0       0       1       1                               0D0000104
     116      64       0       0       0       0       0       000010400D0000105
     116       0       0       1       0                               0D0000106
     123      65       0       0       0       0       0       000010200D0000107
     123       0       0       1       0                               0D0000108
     123      66       0       0       0       0       0       000010200D0000109
     123       0       0       1       0                               0D0000110
     508      67       0       0       0       0       0       000010000D0000111
     508       0       0       1       1                               0D0000112
     510      68       0       0       0       0       0       000010000D0000113
     510       0       0       1       1                               0D0000114
     190      69       0       0       0       0       0       000010000D0000115
     190       0       0       1       1                               0D0000116
     116      70       0       0       0       0       0       000010400D0000117
     116       0       0       1       0                               0D0000118
     123      71       0       0       0       0       0       000010200D0000119
     123       0       0       1       0                               0D0000120
     123      72       0       0       0       0       0       000010200D0000121
     123       0       0       1       0                               0D0000122
     508      73       0       0       0       0       0       000010000D0000123
     508       0       0       1       1                               0D0000124
     510      74       0       0       0       0       0       000010000D0000125
     510       0       0       1       1                               0D0000126
     190      75       0       0       0       0       0       000010000D0000127
     190       0       0       1       1                               0D0000128
     116      76       0       0       0       0       0       000010400D0000129
     116       0       0       1       0                               0D0000130
     123      77       0       0       0       0       0       000010200D0000131
     123       0       0       1       0                               0D0000132
     123      78       0       0       0       0       0       000010200D0000133
     123       0       0       1       0                               0D0000134
     508      79       0       0       0       0       0       000010000D0000135
     508       0       0       1       1                               0D0000136
     510      80       0       0       0       0       0       000010000D0000137
     510       0       0       1       1                               0D0000138
     190      81       0       0       0       0       0       000010000D0000139
     190       0       0       1       1                               0D0000140
     116      82       0       0       0       0       0       000010400D0000141
     116       0       0       1       0                               0D0000142
     123      83       0       0       0       0       0       000010200D0000143
     123       0       0       1       0                               0D0000144
     123      84       0       0       0       0       0       000010200D0000145
     123       0       0       1       0                               0D0000146
     508      85       0       0       0       0       0       000010000D0000147
     508       0       0       1       1                               0D0000148
     510      86       0       0       0       0       0       000010000D0000149
     510       0       0       1       1                               0D0000150
     190      87       0       0       0       0       0       000010000D0000151
     190       0       0       1       1                               0D0000152
     116      88       0       0       0       0       0       000010400D0000153
     116       0       0       1       0                               0D0000154
     123      89       0       0       0       0       0       000010200D0000155
     123       0       0       1       0                               0D0000156
     123      90       0       0       0       0       0       000010200D0000157
     123       0       0       1       0                               0D0000158
     508      91       0       0       0       0       0       000010000D0000159
     508       0       0       1       1                               0D0000160
     510      92       0       0       0       0       0       000010000D0000161
     510       0       0       1       1                               0D0000162
     190      93       0       0       0       0       0       000010000D0000163
     190       0       0       1       1                               0D0000164
     116      94       0       0       0       0       0       000010400D0000165
     116       0       0       1       0                               0D0000166
     123      95       0       0       0       0       0       000010200D0000167
     123       0       0       1       0                               0D0000168
     123      96       0       0       0       0       0       000010200D0000169
     123       0       0       1       0                               0D0000170
     508      97       0       0       0       0       0       000010000D0000171
     508       0       0       1       1                               0D0000172
     510      98       0       0       0       0       0       000010000D0000173
     510       0       0       1       1                               0D0000174
     190      99       0       0       0       0       0       000010000D0000175
     190       0       0       1       1                               0D0000176
     116     100       0       0       0       0       0       000010400D0000177
     116       0       0       1       0                               0D0000178
     123     101       0       0       0       0       0       000010200D0000179
     123       0       0       1       0                               0D0000180
     123     102       0       0       0       0       0       000010200D0000181
     123       0       0       1       0                               0D0000182
     508     103       0       0       0       0       0       000010000D0000183
     508       0       0       1       1                               0D0000184
     510     104       0       0       0       0       0       000010000D0000185
     510       0       0       1       1                               0D0000186
     190     105       0       0       0       0       0       000010000D0000187
     190       0       0       1       1                               0D0000188
     116     106       0       0       0       0       0       000010400D0000189
     116       0       0       1       0                               0D0000190
     123     107       0       0       0       0       0       000010200D0000191
     123       0       0       1       0                               0D0000192
     123     108       0       0       0       0       0       000010200D0000193
     123       0       0       1       0                               0D0000194
     508     109       0       0       0       0       0       000010000D0000195
     508       0       0       1       1                               0D0000196
     510     110       0       0       0       0       0       000010000D0000197
     510       0       0       1       1                               0D0000198
     190     111       0       0       0       0       0       000010000D0000199
     190       0       0       1       1                               0D0000200
     116     112       0       0       0       0       0       000010400D0000201
     116       0       0       1       0                               0D0000202
     123     113       0       0       0       0       0       000010200D0000203
     123       0       0       1       0                               0D0000204
     123     114       0       0       0       0       0       000010200D0000205
     123       0       0       1       0                               0D0000206
     508     115       0       0       0       0       0       000010000D0000207
     508       0       0       1       1                               0D0000208
     510     116       0       0       0       0       0       000010000D0000209
     510       0       0       1       1                               0D0000210
     190     117       0       0       0       0       0       000010000D0000211
     190       0       0       1       1                               0D0000212
     116     118       0       0       0       0       0       000010400D0000213
     116       0       0       1       0                               0D0000214
     123     119       0       0       0       0       0       000010200D0000215
     123       0       0       1       0                               0D0000216
     123     120       0       0       0       0       0       000010200D0000217
     123       0       0       1       0                               0D0000218
     508     121       0       0       0       0       0       000010000D0000219
     508       0       0       1       1                               0D0000220
     510     122       0       0       0       0       0       000010000D0000221
     510       0       0       1       1                               0D0000222
     190     123       0       0       0       0       0       000010000D0000223
     190       0       0       1       1                               0D0000224
     116     124       0       0       0       0       0       000010400D0000225
     116       0       0       1       0                               0D0000226
     123     125       0       0       0       0       0       000010200D0000227
     123       0       0       1       0                               0D0000228
     123     126       0       0       0       0       0       000010200D0000229
     123       0       0       1       0                               0D0000230
     508     127       0       0       0       0       0       000010000D0000231
     508       0       0       1       1                               0D0000232
186,3,1,0;                                                       0000001P0000001
514,14,5,0,77,0,89,1,101,0,113,0,125,0,137,1,149,0,161,0,173,1,  0000003P0000002
185,1,197,0,209,1,221,0;                                         0000003P0000003
510,7,1,1,15;                                                    0000005P0000004
190,9,11,13;                                                     0000007P0000005
116,688.1,162.7,223.8,0;                                         0000009P0000006
123,-1.,0.,0.;                                                   0000011P0000007
123,0.,1.110223025E-16,1.;                                       0000013P0000008
508,4,0,17,1,1,0,0,17,2,1,0,0,17,3,0,0,0,17,4,0,0;               0000015P0000009
504,28,19,21,1,21,2,23,21,2,21,3,25,21,4,21,3,27,21,1,21,4,29,   0000017P0000010
21,5,21,6,31,21,6,21,2,33,21,5,21,1,35,21,1,21,7,37,21,7,21,8,   0000017P0000011
39,21,4,21,8,41,21,2,21,9,43,21,9,21,10,45,21,3,21,10,47,21,3,   0000017P0000012
21,11,49,21,12,21,11,51,21,4,21,12,53,21,11,21,6,55,21,12,21,5,  0000017P0000013
57,21,5,21,13,59,21,13,21,7,61,21,6,21,14,63,21,14,21,9,65,21,   0000017P0000014
15,21,13,67,21,8,21,15,69,21,12,21,15,71,21,10,21,16,73,21,16,   0000017P0000015
21,14,75,21,11,21,16;                                            0000017P0000016
110,688.1,161.9,223.8,688.1,150.8,223.8;                         0000019P0000017
502,16,688.1,161.9,223.8,688.1,150.8,223.8,688.1,150.8,274.6,    0000021P0000018
688.1,161.9,274.6,611.9,161.9,223.8,611.9,150.8,223.8,687.3,     0000021P0000019
162.7,224.6,687.3,162.7,273.8,687.3,150.,224.6,687.3,150.,273.8, 0000021P0000020
611.9,150.8,274.6,611.9,161.9,274.6,612.7,162.7,224.6,612.7,     0000021P0000021
150.,224.6,612.7,162.7,273.8,612.7,150.,273.8;                   0000021P0000022
110,688.1,150.8,223.8,688.1,150.8,274.6;                         0000023P0000023
110,688.1,161.9,274.6,688.1,150.8,274.6;                         0000025P0000024
110,688.1,161.9,223.8,688.1,161.9,274.6;                         0000027P0000025
110,611.9,161.9,223.8,611.9,150.8,223.8;                         0000029P0000026
110,611.9,150.8,223.8,688.1,150.8,223.8;                         0000031P0000027
110,611.9,161.9,223.8,688.1,161.9,223.8;                         0000033P0000028
110,688.1,161.9,223.8,687.3,162.7,224.6;                         0000035P0000029
110,687.3,162.7,224.6,687.3,162.7,273.8;                         0000037P0000030
110,688.1,161.9,274.6,687.3,162.7,273.8;                         0000039P0000031
110,688.1,150.8,223.8,687.3,150.,224.6;                          0000041P0000032
110,687.3,150.,224.6,687.3,150.,273.8;                           0000043P0000033
110,688.1,150.8,274.6,687.3,150.,273.8;                          0000045P0000034
110,688.1,150.8,274.6,611.9,150.8,274.6;                         0000047P0000035
110,611.9,161.9,274.6,611.9,150.8,274.6;                         0000049P0000036
110,688.1,161.9,274.6,611.9,161.9,274.6;                         0000051P0000037
110,611.9,150.8,274.6,611.9,150.8,223.8;                         0000053P0000038
110,611.9,161.9,274.6,611.9,161.9,223.8;                         0000055P0000039
110,611.9,161.9,223.8,612.7,162.7,224.6;                         0000057P0000040
110,612.7,162.7,224.6,687.3,162.7,224.6;                         0000059P0000041
110,611.9,150.8,223.8,612.7,150.,224.6;                          0000061P0000042
110,612.7,150.,224.6,687.3,150.,224.6;                           0000063P0000043
110,612.7,162.7,273.8,612.7,162.7,224.6;                         0000065P0000044
110,687.3,162.7,273.8,612.7,162.7,273.8;                         0000067P0000045
110,611.9,161.9,274.6,612.7,162.7,273.8;                         0000069P0000046
110,687.3,150.,273.8,612.7,150.,273.8;                           0000071P0000047
110,612.7,150.,273.8,612.7,150.,224.6;                           0000073P0000048
110,611.9,150.8,274.6,612.7,150.,273.8;                          0000075P0000049
510,79,1,1,87;                                                   0000077P0000050
190,81,83,85;                                                    0000079P0000051
116,611.9,162.7,223.8,0;                                         0000081P0000052
123,0.,1.110223025E-16,1.;                                       0000083P0000053
123,1.,0.,0.;                                                    0000085P0000054
508,4,0,17,5,1,0,0,17,6,1,0,0,17,1,0,0,0,17,7,0,0;               0000087P0000055
510,91,1,1,99;                                                   0000089P0000056
190,93,95,97;                                                    0000091P0000057
116,687.7,162.3,223.8,0;                                         0000093P0000058
123,0.707106781,0.707106781,-8.548778455E-17;                    0000095P0000059
123,-4.937840935E-18,-1.159601434E-16,-1.;                       0000097P0000060
508,4,0,17,8,1,0,0,17,9,1,0,0,17,10,0,0,0,17,4,0,0;              0000099P0000061
510,103,1,1,111;                                                 0000101P0000062
190,105,107,109;                                                 0000103P0000063
116,687.7,150.4,223.8,0;                                         0000105P0000064
123,-0.707106781,0.707106781,-7.152146132E-17;                   0000107P0000065
123,-4.937840935E-18,-1.060844615E-16,-1.;                       0000109P0000066
508,4,0,17,11,1,0,0,17,12,1,0,0,17,13,0,0,0,17,2,0,0;            0000111P0000067
510,115,1,1,123;                                                 0000113P0000068
190,117,119,121;                                                 0000115P0000069
116,688.1,162.7,274.6,0;                                         0000117P0000070
123,0.,-1.110223025E-16,-1.;                                     0000119P0000071
123,-1.,0.,0.;                                                   0000121P0000072
508,4,0,17,3,1,0,0,17,14,1,0,0,17,15,0,0,0,17,16,0,0;            0000123P0000073
510,127,1,1,135;                                                 0000125P0000074
190,129,131,133;                                                 0000127P0000075
116,611.9,162.7,274.6,0;                                         0000129P0000076
123,1.,0.,0.;                                                    0000131P0000077
123,0.,-1.110223025E-16,-1.;                                     0000133P0000078
508,4,0,17,15,1,0,0,17,17,1,0,0,17,5,0,0,0,17,18,0,0;            0000135P0000079
510,139,1,1,147;                                                 0000137P0000080
190,141,143,145;                                                 0000139P0000081
116,611.9,162.3,224.2,0;                                         0000141P0000082
123,-6.983161619E-18,0.707106781,-0.707106781;                   0000143P0000083
123,-1.,-4.937840935E-18,4.937840935E-18;                        0000145P0000084
508,4,0,17,19,1,0,0,17,20,1,0,0,17,8,0,0,0,17,7,0,0;             0000147P0000085
510,151,1,1,159;                                                 0000149P0000086
190,153,155,157;                                                 0000151P0000087
116,611.9,150.4,224.2,0;                                         0000153P0000088
123,6.983161619E-18,0.707106781,0.707106781;                     0000155P0000089
123,-1.,4.937840935E-18,4.937840935E-18;                         0000157P0000090
508,4,0,17,21,1,0,0,17,22,1,0,0,17,11,0,0,0,17,6,0,0;            0000159P0000091
510,163,1,1,171;                                                 0000161P0000092
190,165,167,169;                                                 0000163P0000093
116,650.,162.7,249.2,0;                                          0000165P0000094
123,0.,-1.,1.110223025E-16;                                      0000167P0000095
123,1.,0.,0.;                                                    0000169P0000096
508,4,0,17,23,1,0,0,17,20,1,0,0,17,9,1,0,0,17,24,1,0;            0000171P0000097
510,175,1,1,183;                                                 0000173P0000098
190,177,179,181;                                                 0000175P0000099
116,688.1,162.3,274.2,0;                                         0000177P0000100
123,6.983161619E-18,0.707106781,0.707106781;                     0000179P0000101
123,1.,-4.937840935E-18,-4.937840935E-18;                        0000181P0000102
508,4,0,17,10,1,0,0,17,24,1,0,0,17,25,0,0,0,17,16,0,0;           0000183P0000103
510,187,1,1,195;                                                 0000185P0000104
190,189,191,193;                                                 0000187P0000105
116,650.,150.,249.2,0;                                           0000189P0000106
123,0.,-1.,1.110223025E-16;                                      0000191P0000107
123,1.,0.,0.;                                                    0000193P0000108
508,4,0,17,22,1,0,0,17,12,1,0,0,17,26,1,0,0,17,27,1,0;           0000195P0000109
510,199,1,1,207;                                                 0000197P0000110
190,201,203,205;                                                 0000199P0000111
116,688.1,150.4,274.2,0;                                         0000201P0000112
123,0.,0.707106781,-0.707106781;                                 0000203P0000113
123,1.,0.,-0.;                                                   0000205P0000114
508,4,0,17,13,1,0,0,17,26,1,0,0,17,28,0,0,0,17,14,0,0;           0000207P0000115
510,211,1,1,219;                                                 0000209P0000116
190,213,215,217;                                                 0000211P0000117
116,612.3,162.3,274.6,0;                                         0000213P0000118
123,-0.707106781,0.707106781,-7.152146132E-17;                   0000215P0000119
123,4.937840935E-18,1.060844615E-16,1.;                          0000217P0000120
508,4,0,17,25,1,0,0,17,23,1,0,0,17,19,0,0,0,17,18,0,0;           0000219P0000121
510,223,1,1,231;                                                 0000221P0000122
190,225,227,229;                                                 0000223P0000123
116,612.3,150.4,274.6,0;                                         0000225P0000124
123,0.707106781,0.707106781,-8.548778455E-17;                    0000227P0000125
123,4.937840935E-18,1.159601434E-16,1.;                          0000229P0000126
508,4,0,17,28,1,0,0,17,27,1,0,0,17,21,0,0,0,17,17,0,0;           0000231P0000127
S      1G      4D    232P    127                                        T0000001
