                                                                        S0000001
,,31HOpen CASCADE IGES processor 7.9,13HFilename.iges,                  G0000001
16HOpen CASCADE 7.9,31HOpen CASCADE IGES processor 7.9,32,308,15,308,15,G0000002
,1.,2,2HMM,1,0.01,15H20260926.100451,1E-07,630.15,4Hroot,,11,0,         G0000003
15H20260926.100451,;                                                    G0000004
     186       1       0       0       0       0       0       000000000D0000001
     186       0       0       1       0                               0D0000002
     514       2       0       0       0       0       0       000010000D0000003
     514       0       0       1       1                               0D0000004
     510       3       0       0       0       0       0       000010000D0000005
     510       0       0       1       1                               0D0000006
     192       4       0       0       0       0       0       000010000D0000007
     192       0       0       1       1                               0D0000008
     116       5       0       0       0       0       0       000010400D0000009
     116       0       0       1       0                               0D0000010
     123       6       0       0       0       0       0       000010200D0000011
     123       0       0       1       0                               0D0000012
     123       7       0       0       0       0       0       000010200D0000013
     123       0       0       1       0                               0D0000014
     508       8       0       0       0       0       0       000010000D0000015
     508       0       0       2       1                               0D0000016
     504      10       0       0       0       0       0       000010001D0000017
     504       0       0       2       1                               0D0000018
     110      12       0       0       0       0       0       000010000D0000019
     110       0       0       1       0                               0D0000020
     502      13       0       0       0       0       0       000010000D0000021
     502       0       0       2       1                               0D0000022
     100      15       0       0       0       0      25       000010000D0000023
     100       0       0       1       0                               0D0000024
     124      16       0       0       0       0       0       000000000D0000025
     124       0       0       1       0                               0D0000026
     100      17       0       0       0       0      29       000010000D0000027
     100       0       0       1       0                               0D0000028
     124      18       0       0       0       0       0       000000000D0000029
     124       0       0       1       0                               0D0000030
     100      19       0       0       0       0      33       000010000D0000031
     100       0       0       1       0                               0D0000032
     124      20       0       0       0       0       0       000000000D0000033
     124       0       0       1       0                               0D0000034
     100      21       0       0       0       0      37       000010000D0000035
     100       0       0       1       0                               0D0000036
     124      22       0       0       0       0       0       000000000D0000037
     124       0       0       1       0                               0D0000038
     110      23       0       0       0       0       0       000010000D0000039
     110       0       0       1       0                               0D0000040
     110      24       0       0       0       0       0       000010000D0000041
     110       0       0       1       0                               0D0000042
     110      25       0       0       0       0       0       000010000D0000043
     110       0       0       1       0                               0D0000044
     110      26       0       0       0       0       0       000010000D0000045
     110       0       0       1       0                               0D0000046
     110      27       0       0       0       0       0       000010000D0000047
     110       0       0       1       0                               0D0000048
     510      28       0       0       0       0       0       000010000D0000049
     510       0       0       1       1                               0D0000050
     190      29       0       0       0       0       0       000010000D0000051
     190       0       0       1       1                               0D0000052
     116      30       0       0       0       0       0       000010400D0000053
     116       0       0       1       0                               0D0000054
     123      31       0       0       0       0       0       000010200D0000055
     123       0       0       1       0                               0D0000056
     123      32       0       0       0       0       0       000010200D0000057
     123       0       0       1       0                               0D0000058
     508      33       0       0       0       0       0       000010000D0000059
     508       0       0       1       1                               0D0000060
     508      34       0       0       0       0       0       000010000D0000061
     508       0       0       1       1                               0D0000062
     510      35       0       0       0       0       0       000010000D0000063
     510       0       0       1       1                               0D0000064
     190      36       0       0       0       0       0       000010000D0000065
     190       0       0       1       1                               0D0000066
     116      37       0       0       0       0       0       000010400D0000067
     116       0       0       1       0                               0D0000068
     123      38       0       0       0       0       0       000010200D0000069
     123       0       0       1       0                               0D0000070
     123      39       0       0       0       0       0       000010200D0000071
     123       0       0       1       0                               0D0000072
     508      40       0       0       0       0       0       000010000D0000073
     508       0       0       1       1                               0D0000074
     508      41       0       0       0       0       0       000010000D0000075
     508       0       0       1       1                               0D0000076
     510      42       0       0       0       0       0       000010000D0000077
     510       0       0       1       1                               0D0000078
     192      43       0       0       0       0       0       000010000D0000079
     192       0       0       1       1                               0D0000080
     116      44       0       0       0       0       0       000010400D0000081
     116       0       0       1       0                               0D0000082
     123      45       0       0       0       0       0       000010200D0000083
     123       0       0       1       0                               0D0000084
     123      46       0       0       0       0       0       000010200D0000085
     123       0       0       1       0                               0D0000086
     508      47       0       0       0       0       0       000010000D0000087
     508       0       0       2       1                               0D0000088
     110      49       0       0       0       0       0       000010000D0000089
     110       0       0       1       0                               0D0000090
     110      50       0       0       0       0       0       000010000D0000091
     110       0       0       1       0                               0D0000092
     110      51       0       0       0       0       0       000010000D0000093
     110       0       0       1       0                               0D0000094
     110      52       0       0       0       0       0       000010000D0000095
     110       0       0       1       0                               0D0000096
186,3,1,0;                                                       0000001P0000001
514,4,5,1,49,0,63,1,77,0;                                        0000003P0000002
510,7,1,1,15;                                                    0000005P0000003
192,9,11,30.15,13;                                               0000007P0000004
116,-600.,0.,465.,0;                                             0000009P0000005
123,-0.,-0.,-1.;                                                 0000011P0000006
123,1.,0.,0.;                                                    0000013P0000007
508,4,0,17,1,0,1,0,41,0,17,2,1,1,0,43,0,17,1,1,1,0,45,0,17,3,0,  0000015P0000008
1,0,47;                                                          0000015P0000009
504,6,19,21,1,21,2,23,21,1,21,1,27,21,2,21,2,31,21,3,21,3,35,21, 0000017P0000010
4,21,4,39,21,3,21,4;                                             0000017P0000011
110,-569.85,0.,465.,-569.85,0.,485.;                             0000019P0000012
502,4,-569.85,0.,465.,-569.85,0.,485.,-587.3,0.,465.,-587.3,0.,  0000021P0000013
485.;                                                            0000021P0000014
100,0.,0.,0.,30.15,0.,30.15,0.;                                  0000023P0000015
124,1.,0.,0.,-600.,0.,1.,0.,0.,0.,0.,1.,465.;                    0000025P0000016
100,0.,0.,0.,30.15,0.,30.15,0.;                                  0000027P0000017
124,1.,0.,0.,-600.,0.,1.,0.,0.,0.,0.,1.,485.;                    0000029P0000018
100,0.,0.,0.,12.7,0.,12.7,0.;                                    0000031P0000019
124,1.,0.,0.,-600.,0.,1.,0.,0.,0.,0.,1.,465.;                    0000033P0000020
100,0.,0.,0.,12.7,0.,12.7,0.;                                    0000035P0000021
124,1.,0.,0.,-600.,0.,1.,0.,0.,0.,0.,1.,485.;                    0000037P0000022
110,-587.3,0.,465.,-587.3,0.,485.;                               0000039P0000023
110,0.,-20.,0.,0.,0.,0.;                                         0000041P0000024
110,0.,0.,0.,-360.,0.,0.;                                        0000043P0000025
110,-360.,0.,0.,-360.,-20.,0.;                                   0000045P0000026
110,-360.,-20.,0.,0.,-20.,0.;                                    0000047P0000027
510,51,2,1,59,61;                                                0000049P0000028
190,53,55,57;                                                    0000051P0000029
116,-600.,3.1232682E-15,465.,0;                                  0000053P0000030
123,0.,0.,1.;                                                    0000055P0000031
123,1.,0.,-0.;                                                   0000057P0000032
508,1,0,17,2,1,0;                                                0000059P0000033
508,1,0,17,4,0,0;                                                0000061P0000034
510,65,2,1,73,75;                                                0000063P0000035
190,67,69,71;                                                    0000065P0000036
116,-600.,3.1232682E-15,485.,0;                                  0000067P0000037
123,0.,0.,1.;                                                    0000069P0000038
123,1.,0.,-0.;                                                   0000071P0000039
508,1,0,17,3,1,0;                                                0000073P0000040
508,1,0,17,5,0,0;                                                0000075P0000041
510,79,1,1,87;                                                   0000077P0000042
192,81,83,12.7,85;                                               0000079P0000043
116,-600.,0.,465.,0;                                             0000081P0000044
123,-0.,-0.,-1.;                                                 0000083P0000045
123,1.,0.,0.;                                                    0000085P0000046
508,4,0,17,6,0,1,0,89,0,17,4,1,1,0,91,0,17,6,1,1,0,93,0,17,5,0,  0000087P0000047
1,0,95;                                                          0000087P0000048
110,0.,-20.,0.,0.,0.,0.;                                         0000089P0000049
110,0.,0.,0.,-360.,0.,0.;                                        0000091P0000050
110,-360.,0.,0.,-360.,-20.,0.;                                   0000093P0000051
110,-360.,-20.,0.,0.,-20.,0.;                                    0000095P0000052
S      1G      4D     96P     52                                        T0000001
