                                                                        S0000001
,,31HOpen CASCADE IGES processor 7.9,13HFilename.iges,                  G0000001
16HOpen CASCADE 7.9,31HOpen CASCADE IGES processor 7.9,32,308,15,308,15,G0000002
,1.,2,2HMM,1,0.01,15H20260926.100451,1E-07,648.06109,4Hroot,,11,0,      G0000003
15H20260926.100451,;                                                    G0000004
     186       1       0       0       0       0       0       000000000D0000001
     186       0       0       1       0                               0D0000002
     514       2       0       0       0       0       0       000010000D0000003
     514       0       0       2       1                               0D0000004
     510       4       0       0       0       0       0       000010000D0000005
     510       0       0       1       1                               0D0000006
     192       5       0       0       0       0       0       000010000D0000007
     192       0       0       1       1                               0D0000008
     116       6       0       0       0       0       0       000010400D0000009
     116       0       0       1       0                               0D0000010
     123       7       0       0       0       0       0       000010200D0000011
     123       0       0       1       0                               0D0000012
     123       8       0       0       0       0       0       000010200D0000013
     123       0       0       1       0                               0D0000014
     508       9       0       0       0       0       0       000010000D0000015
     508       0       0       2       1                               0D0000016
     504      11       0       0       0       0       0       000010001D0000017
     504       0       0      12       1                               0D0000018
     100      23       0       0       0       0      21       000010000D0000019
     100       0       0       1       0                               0D0000020
     124      24       0       0       0       0       0       000000000D0000021
     124       0       0       2       0                               0D0000022
     502      26       0       0       0       0       0       000010000D0000023
     502       0       0      21       1                               0D0000024
     110      47       0       0       0       0       0       000010000D0000025
     110       0       0       2       0                               0D0000026
     100      49       0       0       0       0      29       000010000D0000027
     100       0       0       2       0                               0D0000028
     124      51       0       0       0       0       0       000000000D0000029
     124       0       0       2       0                               0D0000030
     110      53       0       0       0       0       0       000010000D0000031
     110       0       0       2       0                               0D0000032
     100      55       0       0       0       0      35       000010000D0000033
     100       0       0       1       0                               0D0000034
     124      56       0       0       0       0       0       000000000D0000035
     124       0       0       2       0                               0D0000036
     110      58       0       0       0       0       0       000010000D0000037
     110       0       0       2       0                               0D0000038
     100      60       0       0       0       0      41       000010000D0000039
     100       0       0       1       0                               0D0000040
     124      61       0       0       0       0       0       000000000D0000041
     124       0       0       2       0                               0D0000042
     100      63       0       0       0       0      45       000010000D0000043
     100       0       0       1       0                               0D0000044
     124      64       0       0       0       0       0       000000000D0000045
     124       0       0       2       0                               0D0000046
     110      66       0       0       0       0       0       000010000D0000047
     110       0       0       2       0                               0D0000048
     100      68       0       0       0       0      51       000010000D0000049
     100       0       0       1       0                               0D0000050
     124      69       0       0       0       0       0       000000000D0000051
     124       0       0       2       0                               0D0000052
     100      71       0       0       0       0      55       000010000D0000053
     100       0       0       1       0                               0D0000054
     124      72       0       0       0       0       0       000000000D0000055
     124       0       0       2       0                               0D0000056
     100      74       0       0       0       0      59       000010000D0000057
     100       0       0       1       0                               0D0000058
     124      75       0       0       0       0       0       000000000D0000059
     124       0       0       2       0                               0D0000060
     110      77       0       0       0       0       0       000010000D0000061
     110       0       0       2       0                               0D0000062
     100      79       0       0       0       0      65       000010000D0000063
     100       0       0       1       0                               0D0000064
     124      80       0       0       0       0       0       000000000D0000065
     124       0       0       2       0                               0D0000066
     110      82       0       0       0       0       0       000010000D0000067
     110       0       0       2       0                               0D0000068
     100      84       0       0       0       0      71       000010000D0000069
     100       0       0       2       0                               0D0000070
     124      86       0       0       0       0       0       000000000D0000071
     124       0       0       2       0                               0D0000072
     100      88       0       0       0       0      75       000010000D0000073
     100       0       0       1       0                               0D0000074
     124      89       0       0       0       0       0       000000000D0000075
     124       0       0       2       0                               0D0000076
     100      91       0       0       0       0      79       000010000D0000077
     100       0       0       1       0                               0D0000078
     124      92       0       0       0       0       0       000000000D0000079
     124       0       0       2       0                               0D0000080
     110      94       0       0       0       0       0       000010000D0000081
     110       0       0       2       0                               0D0000082
     100      96       0       0       0       0      85       000010000D0000083
     100       0       0       2       0                               0D0000084
     124      98       0       0       0       0       0       000000000D0000085
     124       0       0       2       0                               0D0000086
     110     100       0       0       0       0       0       000010000D0000087
     110       0       0       2       0                               0D0000088
     100     102       0       0       0       0      91       000010000D0000089
     100       0       0       1       0                               0D0000090
     124     103       0       0       0       0       0       000000000D0000091
     124       0       0       2       0                               0D0000092
     100     105       0       0       0       0      95       000010000D0000093
     100       0       0       1       0                               0D0000094
     124     106       0       0       0       0       0       000000000D0000095
     124       0       0       2       0                               0D0000096
     100     108       0       0       0       0      99       000010000D0000097
     100       0       0       1       0                               0D0000098
     124     109       0       0       0       0       0       000000000D0000099
     124       0       0       2       0                               0D0000100
     110     111       0       0       0       0       0       000010000D0000101
     110       0       0       2       0                               0D0000102
     100     113       0       0       0       0     105       000010000D0000103
     100       0       0       1       0                               0D0000104
     124     114       0       0       0       0       0       000000000D0000105
     124       0       0       2       0                               0D0000106
     110     116       0       0       0       0       0       000010000D0000107
     110       0       0       2       0                               0D0000108
     100     118       0       0       0       0     111       000010000D0000109
     100       0       0       2       0                               0D0000110
     124     120       0       0       0       0       0       000000000D0000111
     124       0       0       2       0                               0D0000112
     100     122       0       0       0       0     115       000010000D0000113
     100       0       0       1       0                               0D0000114
     124     123       0       0       0       0       0       000000000D0000115
     124       0       0       2       0                               0D0000116
     100     125       0       0       0       0     119       000010000D0000117
     100       0       0       1       0                               0D0000118
     124     126       0       0       0       0       0       000000000D0000119
     124       0       0       2       0                               0D0000120
     110     128       0       0       0       0       0       000010000D0000121
     110       0       0       2       0                               0D0000122
     100     130       0       0       0       0     125       000010000D0000123
     100       0       0       2       0                               0D0000124
     124     132       0       0       0       0       0       000000000D0000125
     124       0       0       2       0                               0D0000126
     110     134       0       0       0       0       0       000010000D0000127
     110       0       0       2       0                               0D0000128
     100     136       0       0       0       0     131       000010000D0000129
     100       0       0       1       0                               0D0000130
     124     137       0       0       0       0       0       000000000D0000131
     124       0       0       2       0                               0D0000132
     100     139       0       0       0       0     135       000010000D0000133
     100       0       0       1       0                               0D0000134
     124     140       0       0       0       0       0       000000000D0000135
     124       0       0       2       0                               0D0000136
     100     142       0       0       0       0     139       000010000D0000137
     100       0       0       1       0                               0D0000138
     124     143       0       0       0       0       0       000000000D0000139
     124       0       0       2       0                               0D0000140
     110     145       0       0       0       0       0       000010000D0000141
     110       0       0       2       0                               0D0000142
     100     147       0       0       0       0     145       000010000D0000143
     100       0       0       1       0                               0D0000144
     124     148       0       0       0       0       0       000000000D0000145
     124       0       0       2       0                               0D0000146
     110     150       0       0       0       0       0       000010000D0000147
     110       0       0       2       0                               0D0000148
     100     152       0       0       0       0     151       000010000D0000149
     100       0       0       1       0                               0D0000150
     124     153       0       0       0       0       0       000000000D0000151
     124       0       0       2       0                               0D0000152
     100     155       0       0       0       0     155       000010000D0000153
     100       0       0       1       0                               0D0000154
     124     156       0       0       0       0       0       000000000D0000155
     124       0       0       2       0                               0D0000156
     110     158       0       0       0       0       0       000010000D0000157
     110       0       0       2       0                               0D0000158
     100     160       0       0       0       0     161       000010000D0000159
     100       0       0       1       0                               0D0000160
     124     161       0       0       0       0       0       000000000D0000161
     124       0       0       2       0                               0D0000162
     100     163       0       0       0       0     165       000010000D0000163
     100       0       0       2       0                               0D0000164
     124     165       0       0       0       0       0       000000000D0000165
     124       0       0       2       0                               0D0000166
     110     167       0       0       0       0       0       000010000D0000167
     110       0       0       2       0                               0D0000168
     100     169       0       0       0       0     171       000010000D0000169
     100       0       0       1       0                               0D0000170
     124     170       0       0       0       0       0       000000000D0000171
     124       0       0       2       0                               0D0000172
     100     172       0       0       0       0     175       000010000D0000173
     100       0       0       1       0                               0D0000174
     124     173       0       0       0       0       0       000000000D0000175
     124       0       0       1       0                               0D0000176
     100     174       0       0       0       0     179       000010000D0000177
     100       0       0       1       0                               0D0000178
     124     175       0       0       0       0       0       000000000D0000179
     124       0       0       2       0                               0D0000180
     100     177       0       0       0       0     183       000010000D0000181
     100       0       0       1       0                               0D0000182
     124     178       0       0       0       0       0       000000000D0000183
     124       0       0       2       0                               0D0000184
     100     180       0       0       0       0     187       000010000D0000185
     100       0       0       1       0                               0D0000186
     124     181       0       0       0       0       0       000000000D0000187
     124       0       0       2       0                               0D0000188
     110     183       0       0       0       0       0       000010000D0000189
     110       0       0       1       0                               0D0000190
     110     184       0       0       0       0       0       000010000D0000191
     110       0       0       1       0                               0D0000192
     110     185       0       0       0       0       0       000010000D0000193
     110       0       0       1       0                               0D0000194
     110     186       0       0       0       0       0       000010000D0000195
     110       0       0       1       0                               0D0000196
     510     187       0       0       0       0       0       000010000D0000197
     510       0       0       1       1                               0D0000198
     192     188       0       0       0       0       0       000010000D0000199
     192       0       0       1       1                               0D0000200
     116     189       0       0       0       0       0       000010400D0000201
     116       0       0       1       0                               0D0000202
     123     190       0       0       0       0       0       000010200D0000203
     123       0       0       1       0                               0D0000204
     123     191       0       0       0       0       0       000010200D0000205
     123       0       0       1       0                               0D0000206
     508     192       0       0       0       0       0       000010000D0000207
     508       0       0       2       1                               0D0000208
     110     194       0       0       0       0       0       000010000D0000209
     110       0       0       1       0                               0D0000210
     110     195       0       0       0       0       0       000010000D0000211
     110       0       0       1       0                               0D0000212
     110     196       0       0       0       0       0       000010000D0000213
     110       0       0       1       0                               0D0000214
     110     197       0       0       0       0       0       000010000D0000215
     110       0       0       1       0                               0D0000216
     510     198       0       0       0       0       0       000010000D0000217
     510       0       0       1       1                               0D0000218
     192     199       0       0       0       0       0       000010000D0000219
     192       0       0       1       1                               0D0000220
     116     200       0       0       0       0       0       000010400D0000221
     116       0       0       1       0                               0D0000222
     123     201       0       0       0       0       0       000010200D0000223
     123       0       0       1       0                               0D0000224
     123     202       0       0       0       0       0       000010200D0000225
     123       0       0       1       0                               0D0000226
     508     203       0       0       0       0       0       000010000D0000227
     508       0       0       2       1                               0D0000228
     110     205       0       0       0       0       0       000010000D0000229
     110       0       0       1       0                               0D0000230
     110     206       0       0       0       0       0       000010000D0000231
     110       0       0       1       0                               0D0000232
     110     207       0       0       0       0       0       000010000D0000233
     110       0       0       1       0                               0D0000234
     110     208       0       0       0       0       0       000010000D0000235
     110       0       0       1       0                               0D0000236
     510     209       0       0       0       0       0       000010000D0000237
     510       0       0       1       1                               0D0000238
     192     210       0       0       0       0       0       000010000D0000239
     192       0       0       1       1                               0D0000240
     116     211       0       0       0       0       0       000010400D0000241
     116       0       0       1       0                               0D0000242
     123     212       0       0       0       0       0       000010200D0000243
     123       0       0       1       0                               0D0000244
     123     213       0       0       0       0       0       000010200D0000245
     123       0       0       1       0                               0D0000246
     508     214       0       0       0       0       0       000010000D0000247
     508       0       0       2       1                               0D0000248
     110     216       0       0       0       0       0       000010000D0000249
     110       0       0       1       0                               0D0000250
     110     217       0       0       0       0       0       000010000D0000251
     110       0       0       1       0                               0D0000252
     110     218       0       0       0       0       0       000010000D0000253
     110       0       0       1       0                               0D0000254
     110     219       0       0       0       0       0       000010000D0000255
     110       0       0       1       0                               0D0000256
     510     220       0       0       0       0       0       000010000D0000257
     510       0       0       1       1                               0D0000258
     192     221       0       0       0       0       0       000010000D0000259
     192       0       0       1       1                               0D0000260
     116     222       0       0       0       0       0       000010400D0000261
     116       0       0       1       0                               0D0000262
     123     223       0       0       0       0       0       000010200D0000263
     123       0       0       1       0                               0D0000264
     123     224       0       0       0       0       0       000010200D0000265
     123       0       0       1       0                               0D0000266
     508     225       0       0       0       0       0       000010000D0000267
     508       0       0       2       1                               0D0000268
     110     227       0       0       0       0       0       000010000D0000269
     110       0       0       1       0                               0D0000270
     110     228       0       0       0       0       0       000010000D0000271
     110       0       0       1       0                               0D0000272
     110     229       0       0       0       0       0       000010000D0000273
     110       0       0       1       0                               0D0000274
     110     230       0       0       0       0       0       000010000D0000275
     110       0       0       1       0                               0D0000276
     510     231       0       0       0       0       0       000010000D0000277
     510       0       0       1       1                               0D0000278
     192     232       0       0       0       0       0       000010000D0000279
     192       0       0       1       1                               0D0000280
     116     233       0       0       0       0       0       000010400D0000281
     116       0       0       1       0                               0D0000282
     123     234       0       0       0       0       0       000010200D0000283
     123       0       0       1       0                               0D0000284
     123     235       0       0       0       0       0       000010200D0000285
     123       0       0       1       0                               0D0000286
     508     236       0       0       0       0       0       000010000D0000287
     508       0       0       2       1                               0D0000288
     110     238       0       0       0       0       0       000010000D0000289
     110       0       0       1       0                               0D0000290
     110     239       0       0       0       0       0       000010000D0000291
     110       0       0       1       0                               0D0000292
     110     240       0       0       0       0       0       000010000D0000293
     110       0       0       1       0                               0D0000294
     110     241       0       0       0       0       0       000010000D0000295
     110       0       0       1       0                               0D0000296
     510     242       0       0       0       0       0       000010000D0000297
     510       0       0       1       1                               0D0000298
     192     243       0       0       0       0       0       000010000D0000299
     192       0       0       1       1                               0D0000300
     116     244       0       0       0       0       0       000010400D0000301
     116       0       0       1       0                               0D0000302
     123     245       0       0       0       0       0       000010200D0000303
     123       0       0       1       0                               0D0000304
     123     246       0       0       0       0       0       000010200D0000305
     123       0       0       1       0                               0D0000306
     508     247       0       0       0       0       0       000010000D0000307
     508       0       0       2       1                               0D0000308
     110     249       0       0       0       0       0       000010000D0000309
     110       0       0       1       0                               0D0000310
     110     250       0       0       0       0       0       000010000D0000311
     110       0       0       1       0                               0D0000312
     110     251       0       0       0       0       0       000010000D0000313
     110       0       0       1       0                               0D0000314
     110     252       0       0       0       0       0       000010000D0000315
     110       0       0       1       0                               0D0000316
     510     253       0       0       0       0       0       000010000D0000317
     510       0       0       1       1                               0D0000318
     192     254       0       0       0       0       0       000010000D0000319
     192       0       0       1       1                               0D0000320
     116     255       0       0       0       0       0       000010400D0000321
     116       0       0       1       0                               0D0000322
     123     256       0       0       0       0       0       000010200D0000323
     123       0       0       1       0                               0D0000324
     123     257       0       0       0       0       0       000010200D0000325
     123       0       0       1       0                               0D0000326
     508     258       0       0       0       0       0       000010000D0000327
     508       0       0       2       1                               0D0000328
     110     260       0       0       0       0       0       000010000D0000329
     110       0       0       1       0                               0D0000330
     110     261       0       0       0       0       0       000010000D0000331
     110       0       0       1       0                               0D0000332
     110     262       0       0       0       0       0       000010000D0000333
     110       0       0       1       0                               0D0000334
     110     263       0       0       0       0       0       000010000D0000335
     110       0       0       1       0                               0D0000336
     510     264       0       0       0       0       0       000010000D0000337
     510       0       0       1       1                               0D0000338
     192     265       0       0       0       0       0       000010000D0000339
     192       0       0       1       1                               0D0000340
     116     266       0       0       0       0       0       000010400D0000341
     116       0       0       1       0                               0D0000342
     123     267       0       0       0       0       0       000010200D0000343
     123       0       0       1       0                               0D0000344
     123     268       0       0       0       0       0       000010200D0000345
     123       0       0       1       0                               0D0000346
     508     269       0       0       0       0       0       000010000D0000347
     508       0       0       2       1                               0D0000348
     110     271       0       0       0       0       0       000010000D0000349
     110       0       0       1       0                               0D0000350
     110     272       0       0       0       0       0       000010000D0000351
     110       0       0       1       0                               0D0000352
     110     273       0       0       0       0       0       000010000D0000353
     110       0       0       1       0                               0D0000354
     110     274       0       0       0       0       0       000010000D0000355
     110       0       0       1       0                               0D0000356
     510     275       0       0       0       0       0       000010000D0000357
     510       0       0       1       1                               0D0000358
     192     276       0       0       0       0       0       000010000D0000359
     192       0       0       1       1                               0D0000360
     116     277       0       0       0       0       0       000010400D0000361
     116       0       0       1       0                               0D0000362
     123     278       0       0       0       0       0       000010200D0000363
     123       0       0       1       0                               0D0000364
     123     279       0       0       0       0       0       000010200D0000365
     123       0       0       1       0                               0D0000366
     508     280       0       0       0       0       0       000010000D0000367
     508       0       0       2       1                               0D0000368
     110     282       0       0       0       0       0       000010000D0000369
     110       0       0       1       0                               0D0000370
     110     283       0       0       0       0       0       000010000D0000371
     110       0       0       1       0                               0D0000372
     110     284       0       0       0       0       0       000010000D0000373
     110       0       0       1       0                               0D0000374
     110     285       0       0       0       0       0       000010000D0000375
     110       0       0       1       0                               0D0000376
     510     286       0       0       0       0       0       000010000D0000377
     510       0       0       1       1                               0D0000378
     192     287       0       0       0       0       0       000010000D0000379
     192       0       0       1       1                               0D0000380
     116     288       0       0       0       0       0       000010400D0000381
     116       0       0       1       0                               0D0000382
     123     289       0       0       0       0       0       000010200D0000383
     123       0       0       1       0                               0D0000384
     123     290       0       0       0       0       0       000010200D0000385
     123       0       0       1       0                               0D0000386
     508     291       0       0       0       0       0       000010000D0000387
     508       0       0       2       1                               0D0000388
     110     293       0       0       0       0       0       000010000D0000389
     110       0       0       1       0                               0D0000390
     110     294       0       0       0       0       0       000010000D0000391
     110       0       0       1       0                               0D0000392
     110     295       0       0       0       0       0       000010000D0000393
     110       0       0       1       0                               0D0000394
     110     296       0       0       0       0       0       000010000D0000395
     110       0       0       1       0                               0D0000396
     510     297       0       0       0       0       0       000010000D0000397
     510       0       0       1       1                               0D0000398
     192     298       0       0       0       0       0       000010000D0000399
     192       0       0       1       1                               0D0000400
     116     299       0       0       0       0       0       000010400D0000401
     116       0       0       1       0                               0D0000402
     123     300       0       0       0       0       0       000010200D0000403
     123       0       0       1       0                               0D0000404
     123     301       0       0       0       0       0       000010200D0000405
     123       0       0       1       0                               0D0000406
     508     302       0       0       0       0       0       000010000D0000407
     508       0       0       2       1                               0D0000408
     110     304       0       0       0       0       0       000010000D0000409
     110       0       0       1       0                               0D0000410
     110     305       0       0       0       0       0       000010000D0000411
     110       0       0       1       0                               0D0000412
     110     306       0       0       0       0       0       000010000D0000413
     110       0       0       1       0                               0D0000414
     110     307       0       0       0       0       0       000010000D0000415
     110       0       0       1       0                               0D0000416
     510     308       0       0       0       0       0       000010000D0000417
     510       0       0       1       1                               0D0000418
     192     309       0       0       0       0       0       000010000D0000419
     192       0       0       1       1                               0D0000420
     116     310       0       0       0       0       0       000010400D0000421
     116       0       0       1       0                               0D0000422
     123     311       0       0       0       0       0       000010200D0000423
     123       0       0       1       0                               0D0000424
     123     312       0       0       0       0       0       000010200D0000425
     123       0       0       1       0                               0D0000426
     508     313       0       0       0       0       0       000010000D0000427
     508       0       0       2       1                               0D0000428
     110     315       0       0       0       0       0       000010000D0000429
     110       0       0       1       0                               0D0000430
     110     316       0       0       0       0       0       000010000D0000431
     110       0       0       1       0                               0D0000432
     110     317       0       0       0       0       0       000010000D0000433
     110       0       0       1       0                               0D0000434
     110     318       0       0       0       0       0       000010000D0000435
     110       0       0       1       0                               0D0000436
     510     319       0       0       0       0       0       000010000D0000437
     510       0       0       1       1                               0D0000438
     192     320       0       0       0       0       0       000010000D0000439
     192       0       0       1       1                               0D0000440
     116     321       0       0       0       0       0       000010400D0000441
     116       0       0       1       0                               0D0000442
     123     322       0       0       0       0       0       000010200D0000443
     123       0       0       1       0                               0D0000444
     123     323       0       0       0       0       0       000010200D0000445
     123       0       0       1       0                               0D0000446
     508     324       0       0       0       0       0       000010000D0000447
     508       0       0       2       1                               0D0000448
     110     326       0       0       0       0       0       000010000D0000449
     110       0       0       1       0                               0D0000450
     110     327       0       0       0       0       0       000010000D0000451
     110       0       0       1       0                               0D0000452
     110     328       0       0       0       0       0       000010000D0000453
     110       0       0       1       0                               0D0000454
     110     329       0       0       0       0       0       000010000D0000455
     110       0       0       1       0                               0D0000456
     510     330       0       0       0       0       0       000010000D0000457
     510       0       0       1       1                               0D0000458
     192     331       0       0       0       0       0       000010000D0000459
     192       0       0       1       1                               0D0000460
     116     332       0       0       0       0       0       000010400D0000461
     116       0       0       1       0                               0D0000462
     123     333       0       0       0       0       0       000010200D0000463
     123       0       0       1       0                               0D0000464
     123     334       0       0       0       0       0       000010200D0000465
     123       0       0       1       0                               0D0000466
     508     335       0       0       0       0       0       000010000D0000467
     508       0       0       2       1                               0D0000468
     110     337       0       0       0       0       0       000010000D0000469
     110       0       0       1       0                               0D0000470
     110     338       0       0       0       0       0       000010000D0000471
     110       0       0       1       0                               0D0000472
     110     339       0       0       0       0       0       000010000D0000473
     110       0       0       1       0                               0D0000474
     110     340       0       0       0       0       0       000010000D0000475
     110       0       0       1       0                               0D0000476
     510     341       0       0       0       0       0       000010000D0000477
     510       0       0       1       1                               0D0000478
     190     342       0       0       0       0       0       000010000D0000479
     190       0       0       1       1                               0D0000480
     116     343       0       0       0       0       0       000010400D0000481
     116       0       0       1       0                               0D0000482
     123     344       0       0       0       0       0       000010200D0000483
     123       0       0       1       0                               0D0000484
     123     345       0       0       0       0       0       000010200D0000485
     123       0       0       1       0                               0D0000486
     508     346       0       0       0       0       0       000010000D0000487
     508       0       0       1       1                               0D0000488
     508     347       0       0       0       0       0       000010000D0000489
     508       0       0       4       1                               0D0000490
     510     351       0       0       0       0       0       000010000D0000491
     510       0       0       1       1                               0D0000492
     196     352       0       0       0       0       0       000010000D0000493
     196       0       0       1       1                               0D0000494
     116     353       0       0       0       0       0       000010400D0000495
     116       0       0       1       0                               0D0000496
     123     354       0       0       0       0       0       000010200D0000497
     123       0       0       1       0                               0D0000498
     123     355       0       0       0       0       0       000010200D0000499
     123       0       0       1       0                               0D0000500
     508     356       0       0       0       0       0       000010000D0000501
     508       0       0       2       1                               0D0000502
     110     358       0       0       0       0       0       000010000D0000503
     110       0       0       1       0                               0D0000504
     110     359       0       0       0       0       0       000010000D0000505
     110       0       0       1       0                               0D0000506
     110     360       0       0       0       0       0       000010000D0000507
     110       0       0       1       0                               0D0000508
     110     361       0       0       0       0       0       000010000D0000509
     110       0       0       1       0                               0D0000510
     510     362       0       0       0       0       0       000010000D0000511
     510       0       0       1       1                               0D0000512
     192     363       0       0       0       0       0       000010000D0000513
     192       0       0       1       1                               0D0000514
     116     364       0       0       0       0       0       000010400D0000515
     116       0       0       1       0                               0D0000516
     123     365       0       0       0       0       0       000010200D0000517
     123       0       0       1       0                               0D0000518
     123     366       0       0       0       0       0       000010200D0000519
     123       0       0       1       0                               0D0000520
     508     367       0       0       0       0       0       000010000D0000521
     508       0       0       2       1                               0D0000522
     110     369       0       0       0       0       0       000010000D0000523
     110       0       0       1       0                               0D0000524
     110     370       0       0       0       0       0       000010000D0000525
     110       0       0       1       0                               0D0000526
     110     371       0       0       0       0       0       000010000D0000527
     110       0       0       1       0                               0D0000528
     110     372       0       0       0       0       0       000010000D0000529
     110       0       0       1       0                               0D0000530
     510     373       0       0       0       0       0       000010000D0000531
     510       0       0       1       1                               0D0000532
     190     374       0       0       0       0       0       000010000D0000533
     190       0       0       1       1                               0D0000534
     116     375       0       0       0       0       0       000010400D0000535
     116       0       0       1       0                               0D0000536
     123     376       0       0       0       0       0       000010200D0000537
     123       0       0       1       0                               0D0000538
     123     377       0       0       0       0       0       000010200D0000539
     123       0       0       1       0                               0D0000540
     508     378       0       0       0       0       0       000010000D0000541
     508       0       0       4       1                               0D0000542
186,3,1,0;                                                       0000001P0000001
514,19,5,1,197,0,217,1,237,0,257,1,277,0,297,1,317,0,337,1,357,  0000003P0000002
0,377,1,397,0,417,1,437,0,457,1,477,1,491,0,511,0,531,0;         0000003P0000003
510,7,1,1,15;                                                    0000005P0000004
192,9,11,48.,13;                                                 0000007P0000005
116,-600.,0.,379.6,0;                                            0000009P0000006
123,-0.,-0.,-1.;                                                 0000011P0000007
123,1.,0.,0.;                                                    0000013P0000008
508,4,0,17,1,1,1,0,189,0,17,2,1,1,0,191,0,17,3,1,1,0,193,0,17,4, 0000015P0000009
1,1,0,195;                                                       0000015P0000010
504,50,19,23,1,23,2,25,23,2,23,3,27,23,3,23,4,31,23,4,23,1,33,   0000017P0000011
23,5,23,3,37,23,6,23,5,39,23,6,23,2,43,23,6,23,7,47,23,8,23,7,   0000017P0000012
49,23,8,23,5,53,23,9,23,7,57,23,8,23,10,61,23,10,23,9,63,23,9,   0000017P0000013
23,11,67,23,12,23,11,69,23,12,23,10,73,23,13,23,11,77,23,12,23,  0000017P0000014
14,81,23,14,23,13,83,23,13,23,15,87,23,16,23,15,89,23,16,23,14,  0000017P0000015
93,23,17,23,15,97,23,16,23,18,101,23,18,23,17,103,23,17,23,19,   0000017P0000016
107,23,20,23,19,109,23,20,23,18,113,23,21,23,19,117,23,20,23,22, 0000017P0000017
121,23,22,23,21,123,23,21,23,23,127,23,24,23,23,129,23,24,23,22, 0000017P0000018
133,23,25,23,23,137,23,24,23,26,141,23,26,23,25,143,23,25,23,27, 0000017P0000019
147,23,28,23,27,149,23,28,23,26,153,23,28,23,29,157,23,29,23,30, 0000017P0000020
159,23,30,23,27,163,23,30,23,31,167,23,31,23,32,169,23,32,23,29, 0000017P0000021
173,23,33,23,33,177,23,32,23,4,181,23,34,23,33,185,23,1,23,31;   0000017P0000022
100,0.,0.,0.,48.,0.,37.577857172,29.864772733;                   0000019P0000023
124,0.90060612,-0.43463619,0.,-600.,0.43463619,0.90060612,0.,0., 0000021P0000024
0.,0.,1.,379.6;                                                  0000021P0000025
502,34,-556.77090626,20.862537104,379.6,-579.137462896,          0000023P0000026
43.22909374,379.6,-579.137462896,43.22909374,409.6,              0000023P0000027
-556.77090626,20.862537104,409.6,-584.184456131,45.319626787,    0000023P0000028
409.6,-584.184456131,45.319626787,379.6,-615.815543869,          0000023P0000029
45.319626787,379.6,-615.815543869,45.319626787,409.6,            0000023P0000030
-620.862537104,43.22909374,379.6,-620.862537104,43.22909374,     0000023P0000031
409.6,-643.22909374,20.862537104,379.6,-643.22909374,            0000023P0000032
20.862537104,409.6,-645.319626787,15.815543869,379.6,            0000023P0000033
-645.319626787,15.815543869,409.6,-645.319626787,-15.815543869,  0000023P0000034
379.6,-645.319626787,-15.815543869,409.6,-643.22909374,          0000023P0000035
-20.862537104,379.6,-643.22909374,-20.862537104,409.6,           0000023P0000036
-620.862537104,-43.22909374,379.6,-620.862537104,-43.22909374,   0000023P0000037
409.6,-615.815543869,-45.319626787,379.6,-615.815543869,         0000023P0000038
-45.319626787,409.6,-584.184456131,-45.319626787,379.6,          0000023P0000039
-584.184456131,-45.319626787,409.6,-579.137462896,-43.22909374,  0000023P0000040
379.6,-579.137462896,-43.22909374,409.6,-556.77090626,           0000023P0000041
-20.862537104,379.6,-556.77090626,-20.862537104,409.6,           0000023P0000042
-554.680373213,-15.815543869,409.6,-554.680373213,-15.815543869, 0000023P0000043
379.6,-554.680373213,15.815543869,379.6,-554.680373213,          0000023P0000044
15.815543869,409.6,-574.3,-6.294684548E-15,409.6,-600.,          0000023P0000045
-3.854382641E-31,383.9;                                          0000023P0000046
110,-579.137462896,43.22909374,379.6,-579.137462896,43.22909374, 0000025P0000047
409.6;                                                           0000025P0000048
100,0.,0.,0.,33.941125497,-33.941125497,47.689140947,            0000027P0000049
-5.453974311;                                                    0000027P0000050
124,0.944158891,0.329490497,0.,-600.,0.329490497,-0.944158891,   0000029P0000051
0.,0.,0.,0.,-1.,409.6;                                           0000029P0000052
110,-556.77090626,20.862537104,409.6,-556.77090626,20.862537104, 0000031P0000053
379.6;                                                           0000031P0000054
100,0.,0.,0.,4.,0.,0.269691358,-3.990897966;                     0000033P0000055
124,-0.351302647,-0.936261956,0.,-582.779245544,0.936261956,     0000035P0000056
-0.351302647,0.,41.574578963,0.,0.,1.,409.6;                     0000035P0000057
110,-584.184456131,45.319626787,379.6,-584.184456131,            0000037P0000058
45.319626787,409.6;                                              0000037P0000059
100,0.,0.,0.,4.,0.,0.269691358,-3.990897966;                     0000039P0000060
124,-0.351302647,-0.936261956,0.,-582.779245544,0.936261956,     0000041P0000061
-0.351302647,0.,41.574578963,0.,0.,1.,379.6;                     0000041P0000062
100,0.,0.,0.,33.941125497,33.941125497,5.453974311,47.689140947; 0000043P0000063
124,0.90060612,-0.43463619,0.,-600.,0.43463619,0.90060612,0.,0., 0000045P0000064
0.,0.,1.,379.6;                                                  0000045P0000065
110,-615.815543869,45.319626787,409.6,-615.815543869,            0000047P0000066
45.319626787,379.6;                                              0000047P0000067
100,0.,0.,0.,0.,-48.,29.864772733,-37.577857172;                 0000049P0000068
124,0.944158891,0.329490497,0.,-600.,0.329490497,-0.944158891,   0000051P0000069
0.,0.,0.,0.,-1.,409.6;                                           0000051P0000070
100,0.,0.,0.,4.,0.,0.269691358,-3.990897966;                     0000053P0000071
124,-0.910445662,-0.413628694,0.,-617.220754456,0.413628694,     0000055P0000072
-0.910445662,0.,41.574578963,0.,0.,1.,379.6;                     0000055P0000073
100,0.,0.,0.,4.,0.,0.269691358,-3.990897966;                     0000057P0000074
124,0.351302647,0.936261956,0.,-617.220754456,0.936261956,       0000059P0000075
-0.351302647,0.,41.574578963,0.,0.,-1.,409.6;                    0000059P0000076
110,-620.862537104,43.22909374,409.6,-620.862537104,43.22909374, 0000061P0000077
379.6;                                                           0000061P0000078
100,0.,0.,0.,0.,48.,-29.864772733,37.577857172;                  0000063P0000079
124,0.90060612,-0.43463619,0.,-600.,0.43463619,0.90060612,0.,0., 0000065P0000080
0.,0.,1.,379.6;                                                  0000065P0000081
110,-643.22909374,20.862537104,409.6,-643.22909374,20.862537104, 0000067P0000082
379.6;                                                           0000067P0000083
100,0.,0.,0.,-33.941125497,-33.941125497,-5.453974311,           0000069P0000084
-47.689140947;                                                   0000069P0000085
124,0.944158891,0.329490497,0.,-600.,0.329490497,-0.944158891,   0000071P0000086
0.,0.,0.,0.,-1.,409.6;                                           0000071P0000087
100,0.,0.,0.,4.,2.842170943E-14,0.269691358,-3.990897966;        0000073P0000088
124,-0.936261956,0.351302647,0.,-641.574578963,-0.351302647,     0000075P0000089
-0.936261956,0.,17.220754456,0.,0.,1.,379.6;                     0000075P0000090
100,0.,0.,0.,4.,0.,0.269691358,-3.990897966;                     0000077P0000091
124,-0.413628694,0.910445662,0.,-641.574578963,0.910445662,      0000079P0000092
0.413628694,0.,17.220754456,0.,0.,-1.,409.6;                     0000079P0000093
110,-645.319626787,15.815543869,409.6,-645.319626787,            0000081P0000094
15.815543869,379.6;                                              0000081P0000095
100,0.,0.,0.,-33.941125497,33.941125497,-47.689140947,           0000083P0000096
5.453974311;                                                     0000083P0000097
124,0.90060612,-0.43463619,0.,-600.,0.43463619,0.90060612,0.,0., 0000085P0000098
0.,0.,1.,379.6;                                                  0000085P0000099
110,-645.319626787,-15.815543869,409.6,-645.319626787,           0000087P0000100
-15.815543869,379.6;                                             0000087P0000101
100,0.,0.,0.,-48.,0.,-37.577857172,-29.864772733;                0000089P0000102
124,0.944158891,0.329490497,0.,-600.,0.329490497,-0.944158891,   0000091P0000103
0.,0.,0.,0.,-1.,409.6;                                           0000091P0000104
100,0.,0.,0.,4.,0.,0.269691358,-3.990897966;                     0000093P0000105
124,-0.413628694,0.910445662,0.,-641.574578963,-0.910445662,     0000095P0000106
-0.413628694,0.,-17.220754456,0.,0.,1.,379.6;                    0000095P0000107
100,0.,0.,0.,4.,0.,0.269691358,-3.990897966;                     0000097P0000108
124,-0.936261956,0.351302647,0.,-641.574578963,0.351302647,      0000099P0000109
0.936261956,0.,-17.220754456,0.,0.,-1.,409.6;                    0000099P0000110
110,-643.22909374,-20.862537104,409.6,-643.22909374,             0000101P0000111
-20.862537104,379.6;                                             0000101P0000112
100,0.,0.,0.,-48.,0.,-37.577857172,-29.864772733;                0000103P0000113
124,0.90060612,-0.43463619,0.,-600.,0.43463619,0.90060612,0.,0., 0000105P0000114
0.,0.,1.,379.6;                                                  0000105P0000115
110,-620.862537104,-43.22909374,409.6,-620.862537104,            0000107P0000116
-43.22909374,379.6;                                              0000107P0000117
100,0.,0.,0.,-33.941125497,33.941125497,-47.689140947,           0000109P0000118
5.453974311;                                                     0000109P0000119
124,0.944158891,0.329490497,0.,-600.,0.329490497,-0.944158891,   0000111P0000120
0.,0.,0.,0.,-1.,409.6;                                           0000111P0000121
100,0.,0.,0.,4.,-1.136868377E-13,0.269691358,-3.990897966;       0000113P0000122
124,0.351302647,0.936261956,0.,-617.220754456,-0.936261956,      0000115P0000123
0.351302647,0.,-41.574578963,0.,0.,1.,379.6;                     0000115P0000124
100,0.,0.,0.,4.,0.,0.269691358,-3.990897966;                     0000117P0000125
124,-0.910445662,-0.413628694,0.,-617.220754456,-0.413628694,    0000119P0000126
0.910445662,0.,-41.574578963,0.,0.,-1.,409.6;                    0000119P0000127
110,-615.815543869,-45.319626787,409.6,-615.815543869,           0000121P0000128
-45.319626787,379.6;                                             0000121P0000129
100,0.,0.,0.,-33.941125497,-33.941125497,-5.453974311,           0000123P0000130
-47.689140947;                                                   0000123P0000131
124,0.90060612,-0.43463619,0.,-600.,0.43463619,0.90060612,0.,0., 0000125P0000132
0.,0.,1.,379.6;                                                  0000125P0000133
110,-584.184456131,-45.319626787,409.6,-584.184456131,           0000127P0000134
-45.319626787,379.6;                                             0000127P0000135
100,0.,0.,0.,0.,48.,-29.864772733,37.577857172;                  0000129P0000136
124,0.944158891,0.329490497,0.,-600.,0.329490497,-0.944158891,   0000131P0000137
0.,0.,0.,0.,-1.,409.6;                                           0000131P0000138
100,0.,0.,0.,4.,-5.684341886E-14,0.269691358,-3.990897966;       0000133P0000139
124,0.910445662,0.413628694,0.,-582.779245544,-0.413628694,      0000135P0000140
0.910445662,0.,-41.574578963,0.,0.,1.,379.6;                     0000135P0000141
100,0.,0.,0.,4.,0.,0.269691358,-3.990897966;                     0000137P0000142
124,-0.351302647,-0.936261956,0.,-582.779245544,-0.936261956,    0000139P0000143
0.351302647,0.,-41.574578963,0.,0.,-1.,409.6;                    0000139P0000144
110,-579.137462896,-43.22909374,409.6,-579.137462896,            0000141P0000145
-43.22909374,379.6;                                              0000141P0000146
100,0.,0.,0.,0.,-48.,29.864772733,-37.577857172;                 0000143P0000147
124,0.90060612,-0.43463619,0.,-600.,0.43463619,0.90060612,0.,0., 0000145P0000148
0.,0.,1.,379.6;                                                  0000145P0000149
110,-556.77090626,-20.862537104,409.6,-556.77090626,             0000147P0000150
-20.862537104,379.6;                                             0000147P0000151
100,0.,0.,0.,33.941125497,33.941125497,5.453974311,47.689140947; 0000149P0000152
124,0.944158891,0.329490497,0.,-600.,0.329490497,-0.944158891,   0000151P0000153
0.,0.,0.,0.,-1.,409.6;                                           0000151P0000154
100,0.,0.,0.,1.654514777,3.641782648,3.745047824,-1.405210587;   0000153P0000155
124,1.,0.,0.,-558.425421037,0.,-1.,0.,-17.220754456,0.,0.,-1.,   0000155P0000156
409.6;                                                           0000155P0000157
110,-554.680373213,-15.815543869,409.6,-554.680373213,           0000157P0000158
-15.815543869,379.6;                                             0000157P0000159
100,0.,0.,0.,3.745047824,1.405210587,1.654514777,-3.641782648;   0000159P0000160
124,1.,0.,0.,-558.425421037,0.,1.,0.,-17.220754456,0.,0.,1.,     0000161P0000161
379.6;                                                           0000161P0000162
100,0.,0.,0.,33.941125497,-33.941125497,47.689140947,            0000163P0000163
-5.453974311;                                                    0000163P0000164
124,0.90060612,-0.43463619,0.,-600.,0.43463619,0.90060612,0.,0., 0000165P0000165
0.,0.,1.,379.6;                                                  0000165P0000166
110,-554.680373213,15.815543869,379.6,-554.680373213,            0000167P0000167
15.815543869,409.6;                                              0000167P0000168
100,0.,0.,0.,48.,-2.842170943E-14,37.577857172,29.864772733;     0000169P0000169
124,0.944158891,0.329490497,0.,-600.,0.329490497,-0.944158891,   0000171P0000170
0.,0.,0.,0.,-1.,409.6;                                           0000171P0000171
100,0.,0.,0.,25.7,0.,25.7,0.;                                    0000173P0000172
124,1.,0.,0.,-600.,0.,1.,0.,0.,0.,0.,1.,409.6;                   0000175P0000173
100,0.,0.,0.,3.745047824,1.405210587,1.654514777,-3.641782648;   0000177P0000174
124,1.,0.,0.,-558.425421037,0.,-1.,0.,17.220754456,0.,0.,-1.,    0000179P0000175
409.6;                                                           0000179P0000176
100,0.,0.,0.,0.,-25.7,25.7,0.;                                   0000181P0000177
124,1.,0.,-2.449293598E-16,-600.,-2.449293598E-16,0.,-1.,0.,0.,  0000183P0000178
1.,0.,409.6;                                                     0000183P0000179
100,0.,0.,0.,1.654514777,3.641782648,3.745047824,-1.405210587;   0000185P0000180
124,1.,0.,0.,-558.425421037,0.,1.,0.,17.220754456,0.,0.,1.,      0000187P0000181
379.6;                                                           0000187P0000182
110,-25.762146324,0.,0.,-64.237853676,0.,0.;                     0000189P0000183
110,-64.237853676,0.,0.,-64.237853676,-30.,0.;                   0000191P0000184
110,-64.237853676,-30.,0.,-25.762146324,-30.,0.;                 0000193P0000185
110,-25.762146324,-30.,0.,-25.762146324,0.,0.;                   0000195P0000186
510,199,1,1,207;                                                 0000197P0000187
192,201,203,4.,205;                                              0000199P0000188
116,-582.779245544,41.574578963,399.6,0;                         0000201P0000189
123,0.,0.,1.;                                                    0000203P0000190
123,1.,0.,0.;                                                    0000205P0000191
508,4,0,17,2,1,1,0,209,0,17,5,0,1,0,211,0,17,6,0,1,0,213,0,17,7, 0000207P0000192
1,1,0,215;                                                       0000207P0000193
110,384.432988473,-20.,0.,384.432988473,10.,0.;                  0000209P0000194
110,384.432988473,10.,0.,110.567011527,10.,0.;                   0000211P0000195
110,110.567011527,10.,-0.,110.567011527,-20.,-0.;                0000213P0000196
110,110.567011527,-20.,0.,384.432988473,-20.,0.;                 0000215P0000197
510,219,1,1,227;                                                 0000217P0000198
192,221,223,48.,225;                                             0000219P0000199
116,-600.,0.,379.6,0;                                            0000221P0000200
123,-0.,-0.,-1.;                                                 0000223P0000201
123,1.,0.,0.;                                                    0000225P0000202
508,4,0,17,8,1,1,0,229,0,17,9,0,1,0,231,0,17,10,1,1,0,233,0,17,  0000227P0000203
6,0,1,0,235;                                                     0000227P0000204
110,-70.762146324,0.,0.,-109.237853676,0.,0.;                    0000229P0000205
110,-109.237853676,0.,0.,-109.237853676,-30.,0.;                 0000231P0000206
110,-109.237853676,-30.,0.,-70.762146324,-30.,0.;                0000233P0000207
110,-70.762146324,-30.,0.,-70.762146324,0.,0.;                   0000235P0000208
510,239,1,1,247;                                                 0000237P0000209
192,241,243,4.,245;                                              0000239P0000210
116,-617.220754456,41.574578963,399.6,0;                         0000241P0000211
123,0.,0.,1.;                                                    0000243P0000212
123,1.,0.,0.;                                                    0000245P0000213
508,4,0,17,11,1,1,0,249,0,17,9,0,1,0,251,0,17,12,1,1,0,253,0,17, 0000247P0000214
13,1,1,0,255;                                                    0000247P0000215
110,155.567011527,-20.,0.,429.432988473,-20.,0.;                 0000249P0000216
110,429.432988473,-20.,0.,429.432988473,10.,0.;                  0000251P0000217
110,429.432988473,10.,0.,155.567011527,10.,0.;                   0000253P0000218
110,155.567011527,10.,0.,155.567011527,-20.,0.;                  0000255P0000219
510,259,1,1,267;                                                 0000257P0000220
192,261,263,48.,265;                                             0000259P0000221
116,-600.,0.,379.6,0;                                            0000261P0000222
123,-0.,-0.,-1.;                                                 0000263P0000223
123,1.,0.,0.;                                                    0000265P0000224
508,4,0,17,14,1,1,0,269,0,17,15,0,1,0,271,0,17,16,1,1,0,273,0,   0000267P0000225
17,13,1,1,0,275;                                                 0000267P0000226
110,-115.762146324,0.,0.,-154.237853676,0.,0.;                   0000269P0000227
110,-154.237853676,0.,0.,-154.237853676,-30.,0.;                 0000271P0000228
110,-154.237853676,-30.,0.,-115.762146324,-30.,0.;               0000273P0000229
110,-115.762146324,-30.,0.,-115.762146324,0.,0.;                 0000275P0000230
510,279,1,1,287;                                                 0000277P0000231
192,281,283,4.,285;                                              0000279P0000232
116,-641.574578963,17.220754456,399.6,0;                         0000281P0000233
123,0.,0.,1.;                                                    0000283P0000234
123,1.,0.,0.;                                                    0000285P0000235
508,4,0,17,17,1,1,0,289,0,17,15,0,1,0,291,0,17,18,1,1,0,293,0,   0000287P0000236
17,19,1,1,0,295;                                                 0000287P0000237
110,200.567011527,-20.,0.,474.432988473,-20.,0.;                 0000289P0000238
110,474.432988473,-20.,0.,474.432988473,10.,0.;                  0000291P0000239
110,474.432988473,10.,0.,200.567011527,10.,0.;                   0000293P0000240
110,200.567011527,10.,0.,200.567011527,-20.,0.;                  0000295P0000241
510,299,1,1,307;                                                 0000297P0000242
192,301,303,48.,305;                                             0000299P0000243
116,-600.,0.,379.6,0;                                            0000301P0000244
123,-0.,-0.,-1.;                                                 0000303P0000245
123,1.,0.,0.;                                                    0000305P0000246
508,4,0,17,20,1,1,0,309,0,17,21,0,1,0,311,0,17,22,1,1,0,313,0,   0000307P0000247
17,19,1,1,0,315;                                                 0000307P0000248
110,-160.762146324,0.,0.,-199.237853676,0.,0.;                   0000309P0000249
110,-199.237853676,0.,0.,-199.237853676,-30.,0.;                 0000311P0000250
110,-199.237853676,-30.,0.,-160.762146324,-30.,0.;               0000313P0000251
110,-160.762146324,-30.,0.,-160.762146324,0.,0.;                 0000315P0000252
510,319,1,1,327;                                                 0000317P0000253
192,321,323,4.,325;                                              0000319P0000254
116,-641.574578963,-17.220754456,399.6,0;                        0000321P0000255
123,0.,0.,1.;                                                    0000323P0000256
123,1.,0.,0.;                                                    0000325P0000257
508,4,0,17,23,1,1,0,329,0,17,21,0,1,0,331,0,17,24,1,1,0,333,0,   0000327P0000258
17,25,1,1,0,335;                                                 0000327P0000259
110,245.567011527,-20.,0.,519.432988473,-20.,0.;                 0000329P0000260
110,519.432988473,-20.,0.,519.432988473,10.,0.;                  0000331P0000261
110,519.432988473,10.,0.,245.567011527,10.,0.;                   0000333P0000262
110,245.567011527,10.,0.,245.567011527,-20.,0.;                  0000335P0000263
510,339,1,1,347;                                                 0000337P0000264
192,341,343,48.,345;                                             0000339P0000265
116,-600.,0.,379.6,0;                                            0000341P0000266
123,-0.,-0.,-1.;                                                 0000343P0000267
123,1.,0.,0.;                                                    0000345P0000268
508,4,0,17,26,1,1,0,349,0,17,27,0,1,0,351,0,17,28,1,1,0,353,0,   0000347P0000269
17,25,1,1,0,355;                                                 0000347P0000270
110,-205.762146324,0.,0.,-244.237853676,0.,0.;                   0000349P0000271
110,-244.237853676,0.,0.,-244.237853676,-30.,0.;                 0000351P0000272
110,-244.237853676,-30.,0.,-205.762146324,-30.,0.;               0000353P0000273
110,-205.762146324,-30.,0.,-205.762146324,0.,0.;                 0000355P0000274
510,359,1,1,367;                                                 0000357P0000275
192,361,363,4.,365;                                              0000359P0000276
116,-617.220754456,-41.574578963,399.6,0;                        0000361P0000277
123,0.,0.,1.;                                                    0000363P0000278
123,1.,0.,0.;                                                    0000365P0000279
508,4,0,17,29,1,1,0,369,0,17,27,0,1,0,371,0,17,30,1,1,0,373,0,   0000367P0000280
17,31,1,1,0,375;                                                 0000367P0000281
110,290.567011527,-20.,0.,564.432988473,-20.,0.;                 0000369P0000282
110,564.432988473,-20.,0.,564.432988473,10.,0.;                  0000371P0000283
110,564.432988473,10.,0.,290.567011527,10.,0.;                   0000373P0000284
110,290.567011527,10.,0.,290.567011527,-20.,0.;                  0000375P0000285
510,379,1,1,387;                                                 0000377P0000286
192,381,383,48.,385;                                             0000379P0000287
116,-600.,0.,379.6,0;                                            0000381P0000288
123,-0.,-0.,-1.;                                                 0000383P0000289
123,1.,0.,0.;                                                    0000385P0000290
508,4,0,17,32,1,1,0,389,0,17,33,0,1,0,391,0,17,34,1,1,0,393,0,   0000387P0000291
17,31,1,1,0,395;                                                 0000387P0000292
110,-250.762146324,0.,0.,-289.237853676,0.,0.;                   0000389P0000293
110,-289.237853676,0.,0.,-289.237853676,-30.,0.;                 0000391P0000294
110,-289.237853676,-30.,0.,-250.762146324,-30.,0.;               0000393P0000295
110,-250.762146324,-30.,0.,-250.762146324,0.,0.;                 0000395P0000296
510,399,1,1,407;                                                 0000397P0000297
192,401,403,4.,405;                                              0000399P0000298
116,-582.779245544,-41.574578963,399.6,0;                        0000401P0000299
123,0.,0.,1.;                                                    0000403P0000300
123,1.,0.,0.;                                                    0000405P0000301
508,4,0,17,35,1,1,0,409,0,17,33,0,1,0,411,0,17,36,1,1,0,413,0,   0000407P0000302
17,37,1,1,0,415;                                                 0000407P0000303
110,335.567011527,-20.,0.,609.432988473,-20.,0.;                 0000409P0000304
110,609.432988473,-20.,0.,609.432988473,10.,0.;                  0000411P0000305
110,609.432988473,10.,0.,335.567011527,10.,0.;                   0000413P0000306
110,335.567011527,10.,0.,335.567011527,-20.,0.;                  0000415P0000307
510,419,1,1,427;                                                 0000417P0000308
192,421,423,48.,425;                                             0000419P0000309
116,-600.,0.,379.6,0;                                            0000421P0000310
123,-0.,-0.,-1.;                                                 0000423P0000311
123,1.,0.,0.;                                                    0000425P0000312
508,4,0,17,38,1,1,0,429,0,17,39,0,1,0,431,0,17,40,1,1,0,433,0,   0000427P0000313
17,37,1,1,0,435;                                                 0000427P0000314
110,-295.762146324,0.,0.,-334.237853676,0.,0.;                   0000429P0000315
110,-334.237853676,0.,0.,-334.237853676,-30.,0.;                 0000431P0000316
110,-334.237853676,-30.,0.,-295.762146324,-30.,0.;               0000433P0000317
110,-295.762146324,-30.,0.,-295.762146324,0.,0.;                 0000435P0000318
510,439,1,1,447;                                                 0000437P0000319
192,441,443,4.,445;                                              0000439P0000320
116,-558.425421037,-17.220754456,399.6,0;                        0000441P0000321
123,0.,0.,1.;                                                    0000443P0000322
123,1.,0.,0.;                                                    0000445P0000323
508,4,0,17,39,0,1,0,449,0,17,41,1,1,0,451,0,17,42,1,1,0,453,0,   0000447P0000324
17,43,1,1,0,455;                                                 0000447P0000325
110,294.432988473,-20.,0.,294.432988473,10.,0.;                  0000449P0000326
110,294.432988473,10.,0.,20.567011527,10.,0.;                    0000451P0000327
110,20.567011527,10.,0.,20.567011527,-20.,0.;                    0000453P0000328
110,20.567011527,-20.,0.,294.432988473,-20.,0.;                  0000455P0000329
510,459,1,1,467;                                                 0000457P0000330
192,461,463,48.,465;                                             0000459P0000331
116,-600.,0.,379.6,0;                                            0000461P0000332
123,-0.,-0.,-1.;                                                 0000463P0000333
123,1.,0.,0.;                                                    0000465P0000334
508,4,0,17,44,1,1,0,469,0,17,45,1,1,0,471,0,17,46,1,1,0,473,0,   0000467P0000335
17,42,1,1,0,475;                                                 0000467P0000336
110,-340.762146324,0.,0.,-379.237853676,0.,0.;                   0000469P0000337
110,-379.237853676,0.,0.,-379.237853676,-30.,0.;                 0000471P0000338
110,-379.237853676,-30.,0.,-340.762146324,-30.,0.;               0000473P0000339
110,-340.762146324,-30.,0.,-340.762146324,0.,0.;                 0000475P0000340
510,479,2,1,487,489;                                             0000477P0000341
190,481,483,485;                                                 0000479P0000342
116,-600.,-1.361813686E-16,409.6,0;                              0000481P0000343
123,0.,0.,1.;                                                    0000483P0000344
123,1.,0.,-0.;                                                   0000485P0000345
508,1,0,17,47,0,0;                                               0000487P0000346
508,16,0,17,46,0,0,0,17,48,1,0,0,17,3,0,0,0,17,5,0,0,0,17,10,0,  0000489P0000347
0,0,17,12,1,0,0,17,16,0,0,0,17,18,1,0,0,17,22,0,0,0,17,24,1,0,0, 0000489P0000348
17,28,0,0,0,17,30,1,0,0,17,34,0,0,0,17,36,1,0,0,17,40,0,0,0,17,  0000489P0000349
41,1,0;                                                          0000489P0000350
510,493,1,1,501;                                                 0000491P0000351
196,495,25.7,497,499;                                            0000493P0000352
116,-600.,0.,409.6,0;                                            0000495P0000353
123,0.,0.,1.;                                                    0000497P0000354
123,1.,0.,0.;                                                    0000499P0000355
508,4,0,17,47,0,1,0,503,0,17,49,0,1,0,505,1,23,34,1,1,0,507,0,   0000501P0000356
17,49,1,1,0,509;                                                 0000501P0000357
110,360.,0.,0.,0.,0.,0.;                                         0000503P0000358
110,0.,0.,-0.,0.,-90.,-0.;                                       0000505P0000359
110,0.,-90.,0.,360.,-90.,0.;                                     0000507P0000360
110,360.,-90.,0.,360.,0.,0.;                                     0000509P0000361
510,513,1,1,521;                                                 0000511P0000362
192,515,517,4.,519;                                              0000513P0000363
116,-558.425421037,17.220754456,399.6,0;                         0000515P0000364
123,0.,0.,1.;                                                    0000517P0000365
123,1.,0.,0.;                                                    0000519P0000366
508,4,0,17,45,1,1,0,523,0,17,48,1,1,0,525,0,17,4,1,1,0,527,0,17, 0000521P0000367
50,1,1,0,529;                                                    0000521P0000368
110,339.432988473,-20.,0.,339.432988473,10.,0.;                  0000523P0000369
110,339.432988473,10.,0.,65.567011527,10.,0.;                    0000525P0000370
110,65.567011527,10.,0.,65.567011527,-20.,0.;                    0000527P0000371
110,65.567011527,-20.,0.,339.432988473,-20.,0.;                  0000529P0000372
510,533,1,1,541;                                                 0000531P0000373
190,535,537,539;                                                 0000533P0000374
116,-600.,-1.361813686E-16,379.6,0;                              0000535P0000375
123,0.,0.,1.;                                                    0000537P0000376
123,1.,0.,-0.;                                                   0000539P0000377
508,16,0,17,50,0,0,0,17,1,1,0,0,17,7,0,0,0,17,8,1,0,0,17,11,0,0, 0000541P0000378
0,17,14,1,0,0,17,17,0,0,0,17,20,1,0,0,17,23,0,0,0,17,26,1,0,0,   0000541P0000379
17,29,0,0,0,17,32,1,0,0,17,35,0,0,0,17,38,1,0,0,17,43,0,0,0,17,  0000541P0000380
44,1,0;                                                          0000541P0000381
S      1G      4D    542P    381                                        T0000001
