                                                                        S0000001
,,31HOpen CASCADE IGES processor 7.9,13HFilename.iges,                  G0000001
16HOpen CASCADE 7.9,31HOpen CASCADE IGES processor 7.9,32,308,15,308,15,G0000002
,1.,2,2HMM,1,0.01,15H20260926.072355,1E-07,675.405769,4Hroot,,11,0,     G0000003
15H20260926.072355,;                                                    G0000004
     186       1       0       0       0       0       0       000000000D0000001
     186       0       0       1       0                               0D0000002
     514       2       0       0       0       0       0       000010000D0000003
     514       0       0       2       1                               0D0000004
     510       4       0       0       0       0       0       000010000D0000005
     510       0       0       1       1                               0D0000006
     190       5       0       0       0       0       0       000010000D0000007
     190       0       0       1       1                               0D0000008
     116       6       0       0       0       0       0       000010400D0000009
     116       0       0       1       0                               0D0000010
     123       7       0       0       0       0       0       000010200D0000011
     123       0       0       1       0                               0D0000012
     123       8       0       0       0       0       0       000010200D0000013
     123       0       0       1       0                               0D0000014
     508       9       0       0       0       0       0       000010000D0000015
     508       0       0       1       1                               0D0000016
     504      10       0       0       0       0       0       000010001D0000017
     504       0       0       7       1                               0D0000018
     110      17       0       0       0       0       0       000010000D0000019
     110       0       0       1       0                               0D0000020
     502      18       0       0       0       0       0       000010000D0000021
     502       0       0       7       1                               0D0000022
     110      25       0       0       0       0       0       000010000D0000023
     110       0       0       1       0                               0D0000024
     110      26       0       0       0       0       0       000010000D0000025
     110       0       0       1       0                               0D0000026
     110      27       0       0       0       0       0       000010000D0000027
     110       0       0       1       0                               0D0000028
     110      28       0       0       0       0       0       000010000D0000029
     110       0       0       1       0                               0D0000030
     110      29       0       0       0       0       0       000010000D0000031
     110       0       0       1       0                               0D0000032
     110      30       0       0       0       0       0       000010000D0000033
     110       0       0       1       0                               0D0000034
     100      31       0       0       0       0      37       000010000D0000035
     100       0       0       1       0                               0D0000036
     124      32       0       0       0       0       0       000000000D0000037
     124       0       0       1       0                               0D0000038
     110      33       0       0       0       0       0       000010000D0000039
     110       0       0       1       0                               0D0000040
     110      34       0       0       0       0       0       000010000D0000041
     110       0       0       1       0                               0D0000042
     110      35       0       0       0       0       0       000010000D0000043
     110       0       0       1       0                               0D0000044
     100      36       0       0       0       0      47       000010000D0000045
     100       0       0       1       0                               0D0000046
     124      37       0       0       0       0       0       000000000D0000047
     124       0       0       1       0                               0D0000048
     110      38       0       0       0       0       0       000010000D0000049
     110       0       0       1       0                               0D0000050
     110      39       0       0       0       0       0       000010000D0000051
     110       0       0       1       0                               0D0000052
     110      40       0       0       0       0       0       000010000D0000053
     110       0       0       1       0                               0D0000054
     110      41       0       0       0       0       0       000010000D0000055
     110       0       0       1       0                               0D0000056
     110      42       0       0       0       0       0       000010000D0000057
     110       0       0       1       0                               0D0000058
     110      43       0       0       0       0       0       000010000D0000059
     110       0       0       1       0                               0D0000060
     110      44       0       0       0       0       0       000010000D0000061
     110       0       0       1       0                               0D0000062
     110      45       0       0       0       0       0       000010000D0000063
     110       0       0       1       0                               0D0000064
     110      46       0       0       0       0       0       000010000D0000065
     110       0       0       1       0                               0D0000066
     110      47       0       0       0       0       0       000010000D0000067
     110       0       0       1       0                               0D0000068
     100      48       0       0       0       0      71       000010000D0000069
     100       0       0       1       0                               0D0000070
     124      49       0       0       0       0       0       000000000D0000071
     124       0       0       1       0                               0D0000072
     110      50       0       0       0       0       0       000010000D0000073
     110       0       0       1       0                               0D0000074
     100      51       0       0       0       0      77       000010000D0000075
     100       0       0       1       0                               0D0000076
     124      52       0       0       0       0       0       000000000D0000077
     124       0       0       1       0                               0D0000078
     110      53       0       0       0       0       0       000010000D0000079
     110       0       0       1       0                               0D0000080
     110      54       0       0       0       0       0       000010000D0000081
     110       0       0       1       0                               0D0000082
     110      55       0       0       0       0       0       000010000D0000083
     110       0       0       1       0                               0D0000084
     110      56       0       0       0       0       0       000010000D0000085
     110       0       0       1       0                               0D0000086
     110      57       0       0       0       0       0       000010000D0000087
     110       0       0       1       0                               0D0000088
     510      58       0       0       0       0       0       000010000D0000089
     510       0       0       1       1                               0D0000090
     190      59       0       0       0       0       0       000010000D0000091
     190       0       0       1       1                               0D0000092
     116      60       0       0       0       0       0       000010400D0000093
     116       0       0       1       0                               0D0000094
     123      61       0       0       0       0       0       000010200D0000095
     123       0       0       1       0                               0D0000096
     123      62       0       0       0       0       0       000010200D0000097
     123       0       0       1       0                               0D0000098
     508      63       0       0       0       0       0       000010000D0000099
     508       0       0       1       1                               0D0000100
     508      64       0       0       0       0       0       000010000D0000101
     508       0       0       1       1                               0D0000102
     510      65       0       0       0       0       0       000010000D0000103
     510       0       0       1       1                               0D0000104
     190      66       0       0       0       0       0       000010000D0000105
     190       0       0       1       1                               0D0000106
     116      67       0       0       0       0       0       000010400D0000107
     116       0       0       1       0                               0D0000108
     123      68       0       0       0       0       0       000010200D0000109
     123       0       0       1       0                               0D0000110
     123      69       0       0       0       0       0       000010200D0000111
     123       0       0       1       0                               0D0000112
     508      70       0       0       0       0       0       000010000D0000113
     508       0       0       1       1                               0D0000114
     508      71       0       0       0       0       0       000010000D0000115
     508       0       0       1       1                               0D0000116
     510      72       0       0       0       0       0       000010000D0000117
     510       0       0       1       1                               0D0000118
     190      73       0       0       0       0       0       000010000D0000119
     190       0       0       1       1                               0D0000120
     116      74       0       0       0       0       0       000010400D0000121
     116       0       0       1       0                               0D0000122
     123      75       0       0       0       0       0       000010200D0000123
     123       0       0       1       0                               0D0000124
     123      76       0       0       0       0       0       000010200D0000125
     123       0       0       1       0                               0D0000126
     508      77       0       0       0       0       0       000010000D0000127
     508       0       0       1       1                               0D0000128
     508      78       0       0       0       0       0       000010000D0000129
     508       0       0       1       1                               0D0000130
     510      79       0       0       0       0       0       000010000D0000131
     510       0       0       1       1                               0D0000132
     190      80       0       0       0       0       0       000010000D0000133
     190       0       0       1       1                               0D0000134
     116      81       0       0       0       0       0       000010400D0000135
     116       0       0       1       0                               0D0000136
     123      82       0       0       0       0       0       000010200D0000137
     123       0       0       1       0                               0D0000138
     123      83       0       0       0       0       0       000010200D0000139
     123       0       0       1       0                               0D0000140
     508      84       0       0       0       0       0       000010000D0000141
     508       0       0       1       1                               0D0000142
     508      85       0       0       0       0       0       000010000D0000143
     508       0       0       1       1                               0D0000144
     510      86       0       0       0       0       0       000010000D0000145
     510       0       0       1       1                               0D0000146
     190      87       0       0       0       0       0       000010000D0000147
     190       0       0       1       1                               0D0000148
     116      88       0       0       0       0       0       000010400D0000149
     116       0       0       1       0                               0D0000150
     123      89       0       0       0       0       0       000010200D0000151
     123       0       0       1       0                               0D0000152
     123      90       0       0       0       0       0       000010200D0000153
     123       0       0       1       0                               0D0000154
     508      91       0       0       0       0       0       000010000D0000155
     508       0       0       1       1                               0D0000156
     510      92       0       0       0       0       0       000010000D0000157
     510       0       0       1       1                               0D0000158
     192      93       0       0       0       0       0       000010000D0000159
     192       0       0       1       1                               0D0000160
     116      94       0       0       0       0       0       000010400D0000161
     116       0       0       1       0                               0D0000162
     123      95       0       0       0       0       0       000010200D0000163
     123       0       0       1       0                               0D0000164
     123      96       0       0       0       0       0       000010200D0000165
     123       0       0       1       0                               0D0000166
     508      97       0       0       0       0       0       000010000D0000167
     508       0       0       2       1                               0D0000168
     110      99       0       0       0       0       0       000010000D0000169
     110       0       0       1       0                               0D0000170
     110     100       0       0       0       0       0       000010000D0000171
     110       0       0       1       0                               0D0000172
     110     101       0       0       0       0       0       000010000D0000173
     110       0       0       1       0                               0D0000174
     110     102       0       0       0       0       0       000010000D0000175
     110       0       0       1       0                               0D0000176
     510     103       0       0       0       0       0       000010000D0000177
     510       0       0       1       1                               0D0000178
     192     104       0       0       0       0       0       000010000D0000179
     192       0       0       1       1                               0D0000180
     116     105       0       0       0       0       0       000010400D0000181
     116       0       0       1       0                               0D0000182
     123     106       0       0       0       0       0       000010200D0000183
     123       0       0       1       0                               0D0000184
     123     107       0       0       0       0       0       000010200D0000185
     123       0       0       1       0                               0D0000186
     508     108       0       0       0       0       0       000010000D0000187
     508       0       0       2       1                               0D0000188
     110     110       0       0       0       0       0       000010000D0000189
     110       0       0       1       0                               0D0000190
     110     111       0       0       0       0       0       000010000D0000191
     110       0       0       1       0                               0D0000192
     110     112       0       0       0       0       0       000010000D0000193
     110       0       0       1       0                               0D0000194
     110     113       0       0       0       0       0       000010000D0000195
     110       0       0       1       0                               0D0000196
     510     114       0       0       0       0       0       000010000D0000197
     510       0       0       1       1                               0D0000198
     190     115       0       0       0       0       0       000010000D0000199
     190       0       0       1       1                               0D0000200
     116     116       0       0       0       0       0       000010400D0000201
     116       0       0       1       0                               0D0000202
     123     117       0       0       0       0       0       000010200D0000203
     123       0       0       1       0                               0D0000204
     123     118       0       0       0       0       0       000010200D0000205
     123       0       0       1       0                               0D0000206
     508     119       0       0       0       0       0       000010000D0000207
     508       0       0       1       1                               0D0000208
     508     120       0       0       0       0       0       000010000D0000209
     508       0       0       1       1                               0D0000210
     510     121       0       0       0       0       0       000010000D0000211
     510       0       0       1       1                               0D0000212
     190     122       0       0       0       0       0       000010000D0000213
     190       0       0       1       1                               0D0000214
     116     123       0       0       0       0       0       000010400D0000215
     116       0       0       1       0                               0D0000216
     123     124       0       0       0       0       0       000010200D0000217
     123       0       0       1       0                               0D0000218
     123     125       0       0       0       0       0       000010200D0000219
     123       0       0       1       0                               0D0000220
     508     126       0       0       0       0       0       000010000D0000221
     508       0       0       1       1                               0D0000222
     510     127       0       0       0       0       0       000010000D0000223
     510       0       0       1       1                               0D0000224
     190     128       0       0       0       0       0       000010000D0000225
     190       0       0       1       1                               0D0000226
     116     129       0       0       0       0       0       000010400D0000227
     116       0       0       1       0                               0D0000228
     123     130       0       0       0       0       0       000010200D0000229
     123       0       0       1       0                               0D0000230
     123     131       0       0       0       0       0       000010200D0000231
     123       0       0       1       0                               0D0000232
     508     132       0       0       0       0       0       000010000D0000233
     508       0       0       1       1                               0D0000234
     508     133       0       0       0       0       0       000010000D0000235
     508       0       0       1       1                               0D0000236
     510     134       0       0       0       0       0       000010000D0000237
     510       0       0       1       1                               0D0000238
     190     135       0       0       0       0       0       000010000D0000239
     190       0       0       1       1                               0D0000240
     116     136       0       0       0       0       0       000010400D0000241
     116       0       0       1       0                               0D0000242
     123     137       0       0       0       0       0       000010200D0000243
     123       0       0       1       0                               0D0000244
     123     138       0       0       0       0       0       000010200D0000245
     123       0       0       1       0                               0D0000246
     508     139       0       0       0       0       0       000010000D0000247
     508       0       0       1       1                               0D0000248
186,3,1,0;                                                       0000001P0000001
514,12,5,1,89,1,103,1,117,1,131,0,145,1,157,0,177,0,197,0,211,0, 0000003P0000002
223,0,237,0;                                                     0000003P0000003
510,7,1,1,15;                                                    0000005P0000004
190,9,11,13;                                                     0000007P0000005
116,624.6,162.7,274.6,0;                                         0000009P0000006
123,0.,0.,-1.;                                                   0000011P0000007
123,1.,0.,0.;                                                    0000013P0000008
508,4,0,17,1,1,0,0,17,2,1,0,0,17,3,0,0,0,17,4,0,0;               0000015P0000009
504,30,19,21,1,21,2,23,21,2,21,3,25,21,4,21,3,27,21,1,21,4,29,   0000017P0000010
21,5,21,6,31,21,6,21,2,33,21,5,21,1,35,21,7,21,7,39,21,3,21,8,   0000017P0000011
41,21,9,21,8,43,21,4,21,9,45,21,10,21,10,49,21,9,21,5,51,21,11,  0000017P0000012
21,12,53,21,13,21,11,55,21,14,21,13,57,21,12,21,14,59,21,8,21,6, 0000017P0000013
61,21,15,21,16,63,21,17,21,15,65,21,18,21,17,67,21,16,21,18,69,  0000017P0000014
21,19,21,19,73,21,19,21,7,75,21,20,21,20,79,21,20,21,10,81,21,   0000017P0000015
11,21,15,83,21,12,21,16,85,21,13,21,17,87,21,14,21,18;           0000017P0000016
110,624.6,162.7,274.6,624.6,462.7,274.6;                         0000019P0000017
502,20,624.6,162.7,274.6,624.6,462.7,274.6,675.4,462.7,274.6,    0000021P0000018
675.4,162.7,274.6,624.6,162.7,325.4,624.6,462.7,325.4,624.6,     0000021P0000019
410.95,300.,675.4,462.7,325.4,675.4,162.7,325.4,675.4,410.95,    0000021P0000020
300.,630.95,162.7,319.05,630.95,162.7,280.95,669.05,162.7,       0000021P0000021
319.05,669.05,162.7,280.95,630.95,462.7,319.05,630.95,462.7,     0000021P0000022
280.95,669.05,462.7,319.05,669.05,462.7,280.95,630.95,410.95,    0000021P0000023
300.,669.05,410.95,300.;                                         0000021P0000024
110,624.6,462.7,274.6,675.4,462.7,274.6;                         0000023P0000025
110,675.4,162.7,274.6,675.4,462.7,274.6;                         0000025P0000026
110,624.6,162.7,274.6,675.4,162.7,274.6;                         0000027P0000027
110,624.6,162.7,325.4,624.6,462.7,325.4;                         0000029P0000028
110,624.6,462.7,325.4,624.6,462.7,274.6;                         0000031P0000029
110,624.6,162.7,325.4,624.6,162.7,274.6;                         0000033P0000030
100,0.,0.,0.,8.25,0.,8.25,0.;                                    0000035P0000031
124,0.,0.,1.,624.6,1.,0.,0.,402.7,0.,1.,0.,300.;                 0000037P0000032
110,675.4,462.7,274.6,675.4,462.7,325.4;                         0000039P0000033
110,675.4,162.7,325.4,675.4,462.7,325.4;                         0000041P0000034
110,675.4,162.7,274.6,675.4,162.7,325.4;                         0000043P0000035
100,0.,0.,0.,8.25,0.,8.25,0.;                                    0000045P0000036
124,0.,0.,-1.,675.4,1.,0.,0.,402.7,0.,-1.,0.,300.;               0000047P0000037
110,675.4,162.7,325.4,624.6,162.7,325.4;                         0000049P0000038
110,630.95,162.7,319.05,630.95,162.7,280.95;                     0000051P0000039
110,669.05,162.7,319.05,630.95,162.7,319.05;                     0000053P0000040
110,669.05,162.7,280.95,669.05,162.7,319.05;                     0000055P0000041
110,630.95,162.7,280.95,669.05,162.7,280.95;                     0000057P0000042
110,675.4,462.7,325.4,624.6,462.7,325.4;                         0000059P0000043
110,630.95,462.7,319.05,630.95,462.7,280.95;                     0000061P0000044
110,669.05,462.7,319.05,630.95,462.7,319.05;                     0000063P0000045
110,669.05,462.7,280.95,669.05,462.7,319.05;                     0000065P0000046
110,630.95,462.7,280.95,669.05,462.7,280.95;                     0000067P0000047
100,0.,0.,0.,8.25,0.,8.25,0.;                                    0000069P0000048
124,0.,0.,1.,630.95,1.,0.,0.,402.7,0.,1.,0.,300.;                0000071P0000049
110,630.95,410.95,300.,624.6,410.95,300.;                        0000073P0000050
100,0.,0.,0.,8.25,0.,8.25,0.;                                    0000075P0000051
124,0.,0.,-1.,669.05,1.,0.,0.,402.7,0.,-1.,0.,300.;              0000077P0000052
110,669.05,410.95,300.,675.4,410.95,300.;                        0000079P0000053
110,630.95,162.7,319.05,630.95,462.7,319.05;                     0000081P0000054
110,630.95,162.7,280.95,630.95,462.7,280.95;                     0000083P0000055
110,669.05,162.7,319.05,669.05,462.7,319.05;                     0000085P0000056
110,669.05,162.7,280.95,669.05,462.7,280.95;                     0000087P0000057
510,91,2,1,99,101;                                               0000089P0000058
190,93,95,97;                                                    0000091P0000059
116,624.6,162.7,325.4,0;                                         0000093P0000060
123,-1.,-0.,-0.;                                                 0000095P0000061
123,0.,0.,-1.;                                                   0000097P0000062
508,4,0,17,5,1,0,0,17,6,1,0,0,17,1,0,0,0,17,7,0,0;               0000099P0000063
508,1,0,17,8,1,0;                                                0000101P0000064
510,105,2,1,113,115;                                             0000103P0000065
190,107,109,111;                                                 0000105P0000066
116,675.4,162.7,274.6,0;                                         0000107P0000067
123,1.,0.,-0.;                                                   0000109P0000068
123,0.,0.,1.;                                                    0000111P0000069
508,4,0,17,3,1,0,0,17,9,1,0,0,17,10,0,0,0,17,11,0,0;             0000113P0000070
508,1,0,17,12,1,0;                                               0000115P0000071
510,119,2,1,127,129;                                             0000117P0000072
190,121,123,125;                                                 0000119P0000073
116,650.,162.7,300.,0;                                           0000121P0000074
123,-0.,-1.,-0.;                                                 0000123P0000075
123,0.,0.,-1.;                                                   0000125P0000076
508,4,0,17,4,1,0,0,17,11,1,0,0,17,13,1,0,0,17,7,1,0;             0000127P0000077
508,4,0,17,14,0,0,0,17,15,0,0,0,17,16,0,0,0,17,17,0,0;           0000129P0000078
510,133,2,1,141,143;                                             0000131P0000079
190,135,137,139;                                                 0000133P0000080
116,650.,462.7,300.,0;                                           0000135P0000081
123,-0.,-1.,-0.;                                                 0000137P0000082
123,0.,0.,-1.;                                                   0000139P0000083
508,4,0,17,2,1,0,0,17,9,1,0,0,17,18,1,0,0,17,6,1,0;              0000141P0000084
508,4,0,17,19,0,0,0,17,20,0,0,0,17,21,0,0,0,17,22,0,0;           0000143P0000085
510,147,1,1,155;                                                 0000145P0000086
190,149,151,153;                                                 0000147P0000087
116,675.4,162.7,325.4,0;                                         0000149P0000088
123,0.,0.,1.;                                                    0000151P0000089
123,-1.,0.,0.;                                                   0000153P0000090
508,4,0,17,10,1,0,0,17,18,1,0,0,17,5,0,0,0,17,13,0,0;            0000155P0000091
510,159,1,1,167;                                                 0000157P0000092
192,161,163,8.25,165;                                            0000159P0000093
116,650.,402.7,300.,0;                                           0000161P0000094
123,1.,0.,0.;                                                    0000163P0000095
123,0.,1.,0.;                                                    0000165P0000096
508,4,0,17,23,0,1,0,169,0,17,24,1,1,0,171,0,17,8,1,1,0,173,0,17, 0000167P0000097
24,0,1,0,175;                                                    0000167P0000098
110,360.,-19.05,-0.,0.,-19.05,-0.;                               0000169P0000099
110,0.,-19.05,-0.,0.,-25.4,-0.;                                  0000171P0000100
110,0.,-25.4,0.,360.,-25.4,0.;                                   0000173P0000101
110,360.,-25.4,-0.,360.,-19.05,-0.;                              0000175P0000102
510,179,1,1,187;                                                 0000177P0000103
192,181,183,8.25,185;                                            0000179P0000104
116,650.,402.7,300.,0;                                           0000181P0000105
123,-1.,-0.,-0.;                                                 0000183P0000106
123,0.,1.,0.;                                                    0000185P0000107
508,4,0,17,25,0,1,0,189,0,17,26,1,1,0,191,0,17,12,1,1,0,193,0,   0000187P0000108
17,26,0,1,0,195;                                                 0000187P0000109
110,0.,-19.05,0.,-360.,-19.05,0.;                                0000189P0000110
110,-360.,-19.05,0.,-360.,-25.4,0.;                              0000191P0000111
110,-360.,-25.4,0.,0.,-25.4,0.;                                  0000193P0000112
110,0.,-25.4,-0.,0.,-19.05,-0.;                                  0000195P0000113
510,199,2,1,207,209;                                             0000197P0000114
190,201,203,205;                                                 0000199P0000115
116,630.95,162.7,319.05,0;                                       0000201P0000116
123,-1.,-0.,-0.;                                                 0000203P0000117
123,0.,0.,-1.;                                                   0000205P0000118
508,4,0,17,27,1,0,0,17,19,1,0,0,17,28,0,0,0,17,14,0,0;           0000207P0000119
508,1,0,17,23,1,0;                                               0000209P0000120
510,213,1,1,221;                                                 0000211P0000121
190,215,217,219;                                                 0000213P0000122
116,669.05,162.7,319.05,0;                                       0000215P0000123
123,0.,0.,1.;                                                    0000217P0000124
123,-1.,0.,0.;                                                   0000219P0000125
508,4,0,17,29,1,0,0,17,20,1,0,0,17,27,0,0,0,17,15,0,0;           0000221P0000126
510,225,2,1,233,235;                                             0000223P0000127
190,227,229,231;                                                 0000225P0000128
116,669.05,162.7,280.95,0;                                       0000227P0000129
123,1.,0.,-0.;                                                   0000229P0000130
123,0.,0.,1.;                                                    0000231P0000131
508,4,0,17,30,1,0,0,17,21,1,0,0,17,29,0,0,0,17,16,0,0;           0000233P0000132
508,1,0,17,25,1,0;                                               0000235P0000133
510,239,1,1,247;                                                 0000237P0000134
190,241,243,245;                                                 0000239P0000135
116,630.95,162.7,280.95,0;                                       0000241P0000136
123,0.,0.,-1.;                                                   0000243P0000137
123,1.,0.,0.;                                                    0000245P0000138
508,4,0,17,28,1,0,0,17,22,1,0,0,17,30,0,0,0,17,17,0,0;           0000247P0000139
S      1G      4D    248P    139                                        T0000001
