                                                                        S0000001
,,31HOpen CASCADE IGES processor 7.9,13HFilename.iges,                  G0000001
16HOpen CASCADE 7.9,31HOpen CASCADE IGES processor 7.9,32,308,15,308,15,G0000002
,1.,2,2HMM,1,0.01,15H20260926.073013,5.005E-05,656.35,4Hroot,,11,0,     G0000003
15H20260926.073013,;                                                    G0000004
     186       1       0       0       0       0       0       000000000D0000001
     186       0       0       1       0                               0D0000002
     514       2       0       0       0       0       0       000010000D0000003
     514       0       0       2       1                               0D0000004
     510       4       0       0       0       0       0       000010000D0000005
     510       0       0       1       1                               0D0000006
     190       5       0       0       0       0       0       000010000D0000007
     190       0       0       1       1                               0D0000008
     116       6       0       0       0       0       0       000010400D0000009
     116       0       0       1       0                               0D0000010
     123       7       0       0       0       0       0       000010200D0000011
     123       0       0       1       0                               0D0000012
     123       8       0       0       0       0       0       000010200D0000013
     123       0       0       1       0                               0D0000014
     508       9       0       0       0       0       0       000010000D0000015
     508       0       0       1       1                               0D0000016
     504      10       0       0       0       0       0       000010001D0000017
     504       0       0       7       1                               0D0000018
     110      17       0       0       0       0       0       000010000D0000019
     110       0       0       1       0                               0D0000020
     502      18       0       0       0       0       0       000010000D0000021
     502       0       0       6       1                               0D0000022
     110      24       0       0       0       0       0       000010000D0000023
     110       0       0       1       0                               0D0000024
     110      25       0       0       0       0       0       000010000D0000025
     110       0       0       1       0                               0D0000026
     110      26       0       0       0       0       0       000010000D0000027
     110       0       0       1       0                               0D0000028
     110      27       0       0       0       0       0       000010000D0000029
     110       0       0       1       0                               0D0000030
     110      28       0       0       0       0       0       000010000D0000031
     110       0       0       1       0                               0D0000032
     110      29       0       0       0       0       0       000010000D0000033
     110       0       0       1       0                               0D0000034
     110      30       0       0       0       0       0       000010000D0000035
     110       0       0       1       0                               0D0000036
     110      31       0       0       0       0       0       000010000D0000037
     110       0       0       1       0                               0D0000038
     110      32       0       0       0       0       0       000010000D0000039
     110       0       0       1       0                               0D0000040
     110      33       0       0       0       0       0       000010000D0000041
     110       0       0       1       0                               0D0000042
     110      34       0       0       0       0       0       000010000D0000043
     110       0       0       1       0                               0D0000044
     110      35       0       0       0       0       0       000010000D0000045
     110       0       0       1       0                               0D0000046
     110      36       0       0       0       0       0       000010000D0000047
     110       0       0       1       0                               0D0000048
     110      37       0       0       0       0       0       000010000D0000049
     110       0       0       1       0                               0D0000050
     110      38       0       0       0       0       0       000010000D0000051
     110       0       0       1       0                               0D0000052
     110      39       0       0       0       0       0       000010000D0000053
     110       0       0       1       0                               0D0000054
     110      40       0       0       0       0       0       000010000D0000055
     110       0       0       1       0                               0D0000056
     110      41       0       0       0       0       0       000010000D0000057
     110       0       0       1       0                               0D0000058
     110      42       0       0       0       0       0       000010000D0000059
     110       0       0       1       0                               0D0000060
     110      43       0       0       0       0       0       000010000D0000061
     110       0       0       1       0                               0D0000062
     110      44       0       0       0       0       0       000010000D0000063
     110       0       0       1       0                               0D0000064
     110      45       0       0       0       0       0       000010000D0000065
     110       0       0       1       0                               0D0000066
     110      46       0       0       0       0       0       000010000D0000067
     110       0       0       1       0                               0D0000068
     110      47       0       0       0       0       0       000010000D0000069
     110       0       0       1       0                               0D0000070
     110      48       0       0       0       0       0       000010000D0000071
     110       0       0       1       0                               0D0000072
     110      49       0       0       0       0       0       000010000D0000073
     110       0       0       1       0                               0D0000074
     110      50       0       0       0       0       0       000010000D0000075
     110       0       0       1       0                               0D0000076
     510      51       0       0       0       0       0       000010000D0000077
     510       0       0       1       1                               0D0000078
     190      52       0       0       0       0       0       000010000D0000079
     190       0       0       1       1                               0D0000080
     116      53       0       0       0       0       0       000010400D0000081
     116       0       0       1       0                               0D0000082
     123      54       0       0       0       0       0       000010200D0000083
     123       0       0       1       0                               0D0000084
     123      55       0       0       0       0       0       000010200D0000085
     123       0       0       1       0                               0D0000086
     508      56       0       0       0       0       0       000010000D0000087
     508       0       0       1       1                               0D0000088
     510      57       0       0       0       0       0       000010000D0000089
     510       0       0       1       1                               0D0000090
     190      58       0       0       0       0       0       000010000D0000091
     190       0       0       1       1                               0D0000092
     116      59       0       0       0       0       0       000010400D0000093
     116       0       0       1       0                               0D0000094
     123      60       0       0       0       0       0       000010200D0000095
     123       0       0       1       0                               0D0000096
     123      61       0       0       0       0       0       000010200D0000097
     123       0       0       1       0                               0D0000098
     508      62       0       0       0       0       0       000010000D0000099
     508       0       0       1       1                               0D0000100
     510      63       0       0       0       0       0       000010000D0000101
     510       0       0       1       1                               0D0000102
     190      64       0       0       0       0       0       000010000D0000103
     190       0       0       1       1                               0D0000104
     116      65       0       0       0       0       0       000010400D0000105
     116       0       0       1       0                               0D0000106
     123      66       0       0       0       0       0       000010200D0000107
     123       0       0       1       0                               0D0000108
     123      67       0       0       0       0       0       000010200D0000109
     123       0       0       1       0                               0D0000110
     508      68       0       0       0       0       0       000010000D0000111
     508       0       0       1       1                               0D0000112
     510      69       0       0       0       0       0       000010000D0000113
     510       0       0       1       1                               0D0000114
     190      70       0       0       0       0       0       000010000D0000115
     190       0       0       1       1                               0D0000116
     116      71       0       0       0       0       0       000010400D0000117
     116       0       0       1       0                               0D0000118
     123      72       0       0       0       0       0       000010200D0000119
     123       0       0       1       0                               0D0000120
     123      73       0       0       0       0       0       000010200D0000121
     123       0       0       1       0                               0D0000122
     508      74       0       0       0       0       0       000010000D0000123
     508       0       0       1       1                               0D0000124
     510      75       0       0       0       0       0       000010000D0000125
     510       0       0       1       1                               0D0000126
     190      76       0       0       0       0       0       000010000D0000127
     190       0       0       1       1                               0D0000128
     116      77       0       0       0       0       0       000010400D0000129
     116       0       0       1       0                               0D0000130
     123      78       0       0       0       0       0       000010200D0000131
     123       0       0       1       0                               0D0000132
     123      79       0       0       0       0       0       000010200D0000133
     123       0       0       1       0                               0D0000134
     508      80       0       0       0       0       0       000010000D0000135
     508       0       0       1       1                               0D0000136
     510      81       0       0       0       0       0       000010000D0000137
     510       0       0       1       1                               0D0000138
     190      82       0       0       0       0       0       000010000D0000139
     190       0       0       1       1                               0D0000140
     116      83       0       0       0       0       0       000010400D0000141
     116       0       0       1       0                               0D0000142
     123      84       0       0       0       0       0       000010200D0000143
     123       0       0       1       0                               0D0000144
     123      85       0       0       0       0       0       000010200D0000145
     123       0       0       1       0                               0D0000146
     508      86       0       0       0       0       0       000010000D0000147
     508       0       0       1       1                               0D0000148
     510      87       0       0       0       0       0       000010000D0000149
     510       0       0       1       1                               0D0000150
     190      88       0       0       0       0       0       000010000D0000151
     190       0       0       1       1                               0D0000152
     116      89       0       0       0       0       0       000010400D0000153
     116       0       0       1       0                               0D0000154
     123      90       0       0       0       0       0       000010200D0000155
     123       0       0       1       0                               0D0000156
     123      91       0       0       0       0       0       000010200D0000157
     123       0       0       1       0                               0D0000158
     508      92       0       0       0       0       0       000010000D0000159
     508       0       0       1       1                               0D0000160
     510      93       0       0       0       0       0       000010000D0000161
     510       0       0       1       1                               0D0000162
     190      94       0       0       0       0       0       000010000D0000163
     190       0       0       1       1                               0D0000164
     116      95       0       0       0       0       0       000010400D0000165
     116       0       0       1       0                               0D0000166
     123      96       0       0       0       0       0       000010200D0000167
     123       0       0       1       0                               0D0000168
     123      97       0       0       0       0       0       000010200D0000169
     123       0       0       1       0                               0D0000170
     508      98       0       0       0       0       0       000010000D0000171
     508       0       0       1       1                               0D0000172
     510      99       0       0       0       0       0       000010000D0000173
     510       0       0       1       1                               0D0000174
     190     100       0       0       0       0       0       000010000D0000175
     190       0       0       1       1                               0D0000176
     116     101       0       0       0       0       0       000010400D0000177
     116       0       0       1       0                               0D0000178
     123     102       0       0       0       0       0       000010200D0000179
     123       0       0       1       0                               0D0000180
     123     103       0       0       0       0       0       000010200D0000181
     123       0       0       1       0                               0D0000182
     508     104       0       0       0       0       0       000010000D0000183
     508       0       0       1       1                               0D0000184
     510     105       0       0       0       0       0       000010000D0000185
     510       0       0       1       1                               0D0000186
     190     106       0       0       0       0       0       000010000D0000187
     190       0       0       1       1                               0D0000188
     116     107       0       0       0       0       0       000010400D0000189
     116       0       0       1       0                               0D0000190
     123     108       0       0       0       0       0       000010200D0000191
     123       0       0       1       0                               0D0000192
     123     109       0       0       0       0       0       000010200D0000193
     123       0       0       1       0                               0D0000194
     508     110       0       0       0       0       0       000010000D0000195
     508       0       0       1       1                               0D0000196
     510     111       0       0       0       0       0       000010000D0000197
     510       0       0       1       1                               0D0000198
     190     112       0       0       0       0       0       000010000D0000199
     190       0       0       1       1                               0D0000200
     116     113       0       0       0       0       0       000010400D0000201
     116       0       0       1       0                               0D0000202
     123     114       0       0       0       0       0       000010200D0000203
     123       0       0       1       0                               0D0000204
     123     115       0       0       0       0       0       000010200D0000205
     123       0       0       1       0                               0D0000206
     508     116       0       0       0       0       0       000010000D0000207
     508       0       0       1       1                               0D0000208
     510     117       0       0       0       0       0       000010000D0000209
     510       0       0       1       1                               0D0000210
     190     118       0       0       0       0       0       000010000D0000211
     190       0       0       1       1                               0D0000212
     116     119       0       0       0       0       0       000010400D0000213
     116       0       0       1       0                               0D0000214
     123     120       0       0       0       0       0       000010200D0000215
     123       0       0       1       0                               0D0000216
     123     121       0       0       0       0       0       000010200D0000217
     123       0       0       1       0                               0D0000218
     508     122       0       0       0       0       0       000010000D0000219
     508       0       0       1       1                               0D0000220
     510     123       0       0       0       0       0       000010000D0000221
     510       0       0       1       1                               0D0000222
     190     124       0       0       0       0       0       000010000D0000223
     190       0       0       1       1                               0D0000224
     116     125       0       0       0       0       0       000010400D0000225
     116       0       0       1       0                               0D0000226
     123     126       0       0       0       0       0       000010200D0000227
     123       0       0       1       0                               0D0000228
     123     127       0       0       0       0       0       000010200D0000229
     123       0       0       1       0                               0D0000230
     508     128       0       0       0       0       0       000010000D0000231
     508       0       0       1       1                               0D0000232
186,3,1,0;                                                       0000001P0000001
514,14,5,1,77,1,89,1,101,0,113,1,125,1,137,1,149,0,161,1,173,1,  0000003P0000002
185,0,197,0,209,1,221,0;                                         0000003P0000003
510,7,1,1,15;                                                    0000005P0000004
190,9,11,13;                                                     0000007P0000005
116,643.65,162.7,247.3,0;                                        0000009P0000006
123,-1.110223025E-16,-1.,0.;                                     0000011P0000007
123,-1.110223025E-16,1.232595164E-32,1.;                         0000013P0000008
508,4,0,17,1,1,0,0,17,2,1,0,0,17,3,0,0,0,17,4,0,0;               0000015P0000009
504,28,19,21,1,21,2,23,21,2,21,3,25,21,4,21,3,27,21,1,21,4,29,   0000017P0000010
21,5,21,6,31,21,6,21,2,33,21,5,21,1,35,21,1,21,7,37,21,4,21,8,   0000017P0000011
39,21,7,21,8,41,21,2,21,9,43,21,3,21,10,45,21,9,21,10,47,21,3,   0000017P0000012
21,11,49,21,12,21,11,51,21,4,21,12,53,21,11,21,6,55,21,12,21,5,  0000017P0000013
57,21,5,21,13,59,21,13,21,7,61,21,6,21,14,63,21,14,21,9,65,21,8, 0000017P0000014
21,15,67,21,15,21,13,69,21,12,21,15,71,21,10,21,16,73,21,16,21,  0000017P0000015
14,75,21,11,21,16;                                               0000017P0000016
110,644.45,162.7,247.3,655.55,162.7,247.3;                       0000019P0000017
502,16,644.45,162.7,247.3,655.55,162.7,247.3,655.55,162.7,274.6, 0000021P0000018
644.45,162.7,274.6,644.45,192.7,247.3,655.55,192.7,247.3,643.65, 0000021P0000019
163.5,248.1,643.65,163.5,273.8,656.35,163.5,248.1,656.35,163.5,  0000021P0000020
273.8,655.55,332.7,274.6,644.45,332.7,274.6,643.65,              0000021P0000021
192.622727716,248.1,656.35,192.622727716,248.1,643.65,           0000021P0000022
324.417599511,273.8,656.35,324.417599511,273.8;                  0000021P0000023
110,655.55,162.7,247.3,655.55,162.7,274.6;                       0000023P0000024
110,644.45,162.7,274.6,655.55,162.7,274.6;                       0000025P0000025
110,644.45,162.7,247.3,644.45,162.7,274.6;                       0000027P0000026
110,644.45,192.7,247.3,655.55,192.7,247.3;                       0000029P0000027
110,655.55,192.7,247.3,655.55,162.7,247.3;                       0000031P0000028
110,644.45,192.7,247.3,644.45,162.7,247.3;                       0000033P0000029
110,644.45,162.7,247.3,643.65,163.5,248.1;                       0000035P0000030
110,644.45,162.7,274.6,643.65,163.5,273.8;                       0000037P0000031
110,643.65,163.5,248.1,643.65,163.5,273.8;                       0000039P0000032
110,655.55,162.7,247.3,656.35,163.5,248.1;                       0000041P0000033
110,655.55,162.7,274.6,656.35,163.5,273.8;                       0000043P0000034
110,656.35,163.5,248.1,656.35,163.5,273.8;                       0000045P0000035
110,655.55,162.7,274.6,655.55,332.7,274.6;                       0000047P0000036
110,644.45,332.7,274.6,655.55,332.7,274.6;                       0000049P0000037
110,644.45,162.7,274.6,644.45,332.7,274.6;                       0000051P0000038
110,655.55,332.7,274.6,655.55,192.7,247.3;                       0000053P0000039
110,644.45,332.7,274.6,644.45,192.7,247.3;                       0000055P0000040
110,644.45,192.7,247.3,643.65,192.622727716,248.1;               0000057P0000041
110,643.65,192.622727716,248.1,643.65,163.5,248.1;               0000059P0000042
110,655.55,192.7,247.3,656.35,192.622727716,248.1;               0000061P0000043
110,656.35,192.622727716,248.1,656.35,163.5,248.1;               0000063P0000044
110,643.65,163.5,273.8,643.65,324.417599511,273.8;               0000065P0000045
110,643.65,324.417599511,273.8,643.65,192.622727716,248.1;       0000067P0000046
110,644.45,332.7,274.6,643.65,324.417599511,273.8;               0000069P0000047
110,656.35,163.5,273.8,656.35,324.417599511,273.8;               0000071P0000048
110,656.35,324.417599511,273.8,656.35,192.622727716,248.1;       0000073P0000049
110,655.55,332.7,274.6,656.35,324.417599511,273.8;               0000075P0000050
510,79,1,1,87;                                                   0000077P0000051
190,81,83,85;                                                    0000079P0000052
116,643.65,192.7,247.3,0;                                        0000081P0000053
123,1.110223025E-16,-1.232595164E-32,-1.;                        0000083P0000054
123,-1.110223025E-16,-1.,0.;                                     0000085P0000055
508,4,0,17,5,1,0,0,17,6,1,0,0,17,1,0,0,0,17,7,0,0;               0000087P0000056
510,91,1,1,99;                                                   0000089P0000057
190,93,95,97;                                                    0000091P0000058
116,644.05,163.1,247.3,0;                                        0000093P0000059
123,-0.707106781,-0.707106781,-7.850462293E-17;                  0000095P0000060
123,-1.110223025E-16,1.232595164E-32,1.;                         0000097P0000061
508,4,0,17,8,0,0,0,17,4,1,0,0,17,9,1,0,0,17,10,0,0;              0000099P0000062
510,103,1,1,111;                                                 0000101P0000063
190,105,107,109;                                                 0000103P0000064
116,655.95,163.1,247.3,0;                                        0000105P0000065
123,-0.707106781,0.707106781,-7.152146132E-17;                   0000107P0000066
123,-1.060844615E-16,-4.937840935E-18,1.;                        0000109P0000067
508,4,0,17,11,0,0,0,17,2,1,0,0,17,12,1,0,0,17,13,0,0;            0000111P0000068
510,115,1,1,123;                                                 0000113P0000069
190,117,119,121;                                                 0000115P0000070
116,643.65,162.7,274.6,0;                                        0000117P0000071
123,-1.110223025E-16,1.232595164E-32,1.;                         0000119P0000072
123,1.110223025E-16,1.,0.;                                       0000121P0000073
508,4,0,17,3,1,0,0,17,14,1,0,0,17,15,0,0,0,17,16,0,0;            0000123P0000074
510,127,1,1,135;                                                 0000125P0000075
190,129,131,133;                                                 0000127P0000076
116,643.65,332.7,274.6,0;                                        0000129P0000077
123,1.302189618E-16,0.191395051,-0.981513084;                    0000131P0000078
123,-8.772072321E-17,-0.981513084,-0.191395051;                  0000133P0000079
508,4,0,17,15,1,0,0,17,17,1,0,0,17,5,0,0,0,17,18,0,0;            0000135P0000080
510,139,1,1,147;                                                 0000137P0000081
190,141,143,145;                                                 0000139P0000082
116,644.05,192.7,247.7,0;                                        0000141P0000083
123,-0.707106781,7.152146132E-17,-0.707106781;                   0000143P0000084
123,-1.060844615E-16,-1.,4.937840935E-18;                        0000145P0000085
508,4,0,17,19,0,0,0,17,7,1,0,0,17,8,1,0,0,17,20,0,0;             0000147P0000086
510,151,1,1,159;                                                 0000149P0000087
190,153,155,157;                                                 0000151P0000088
116,655.95,192.7,247.7,0;                                        0000153P0000089
123,-0.707106781,8.548778455E-17,0.707106781;                    0000155P0000090
123,-1.159601434E-16,-1.,4.937840935E-18;                        0000157P0000091
508,4,0,17,21,0,0,0,17,6,1,0,0,17,11,1,0,0,17,22,0,0;            0000159P0000092
510,163,1,1,171;                                                 0000161P0000093
190,165,167,169;                                                 0000163P0000094
116,643.65,241.53422917,266.115745601,0;                         0000165P0000095
123,-1.,1.110223025E-16,-1.110223025E-16;                        0000167P0000096
123,-1.110223025E-16,-1.,0.;                                     0000169P0000097
508,4,0,17,20,1,0,0,17,10,1,0,0,17,23,1,0,0,17,24,1,0;           0000171P0000098
510,175,1,1,183;                                                 0000173P0000099
190,177,179,181;                                                 0000175P0000100
116,644.05,162.7,274.2,0;                                        0000177P0000101
123,-0.707106781,8.548778455E-17,0.707106781;                    0000179P0000102
123,1.159601434E-16,1.,-4.937840935E-18;                         0000181P0000103
508,4,0,17,9,0,0,0,17,16,1,0,0,17,25,1,0,0,17,23,0,0;            0000183P0000104
510,187,1,1,195;                                                 0000185P0000105
190,189,191,193;                                                 0000187P0000106
116,656.35,241.53422917,266.115745601,0;                         0000189P0000107
123,-1.,1.110223025E-16,-1.110223025E-16;                        0000191P0000108
123,-1.110223025E-16,-1.,0.;                                     0000193P0000109
508,4,0,17,26,1,0,0,17,27,1,0,0,17,22,1,0,0,17,13,1,0;           0000195P0000110
510,199,1,1,207;                                                 0000197P0000111
190,201,203,205;                                                 0000199P0000112
116,655.95,162.7,274.2,0;                                        0000201P0000113
123,-0.707106781,7.850462293E-17,-0.707106781;                   0000203P0000114
123,1.110223025E-16,1.,0.;                                       0000205P0000115
508,4,0,17,12,0,0,0,17,14,1,0,0,17,28,1,0,0,17,26,0,0;           0000207P0000116
510,211,1,1,219;                                                 0000209P0000117
190,213,215,217;                                                 0000211P0000118
116,644.05,332.623441979,274.992605234,0;                        0000213P0000119
123,-0.707106781,0.135336739,-0.694034558;                       0000215P0000120
123,1.759572451E-16,-0.981513084,-0.191395051;                   0000217P0000121
508,4,0,17,25,0,0,0,17,18,1,0,0,17,19,1,0,0,17,24,0,0;           0000219P0000122
510,223,1,1,231;                                                 0000221P0000123
190,225,227,229;                                                 0000223P0000124
116,655.95,332.623441979,274.992605234,0;                        0000225P0000125
123,-0.707106781,-0.135336739,0.694034558;                       0000227P0000126
123,-3.513986916E-16,-0.981513084,-0.191395051;                  0000229P0000127
508,4,0,17,28,0,0,0,17,17,1,0,0,17,21,1,0,0,17,27,0,0;           0000231P0000128
S      1G      4D    232P    128                                        T0000001
