  0
SECTION
  2
HEADER
  9
$ACADVER
  1
AC1024
  9
$ACADMAINTVER
 70
6
  9
$DWGCODEPAGE
  3
ANSI_1252
  9
$LASTSAVEDBY
  1
ezdxf
  9
$INSBASE
 10
0.0
 20
0.0
 30
0.0
  9
$EXTMIN
 10
1e+20
 20
1e+20
 30
1e+20
  9
$EXTMAX
 10
-1e+20
 20
-1e+20
 30
-1e+20
  9
$LIMMIN
 10
0.0
 20
0.0
  9
$LIMMAX
 10
420.0
 20
297.0
  9
$ORTHOMODE
 70
0
  9
$REGENMODE
 70
1
  9
$FILLMODE
 70
1
  9
$QTEXTMODE
 70
0
  9
$MIRRTEXT
 70
1
  9
$LTSCALE
 40
1.0
  9
$ATTMODE
 70
1
  9
$TEXTSIZE
 40
2.5
  9
$TRACEWID
 40
1.0
  9
$TEXTSTYLE
  7
OpenSans
  9
$CLAYER
  8
0
  9
$CELTYPE
  6
ByLayer
  9
$CECOLOR
 62
256
  9
$CELTSCALE
 40
1.0
  9
$DISPSILH
 70
0
  9
$DIMSCALE
 40
1.0
  9
$DIMASZ
 40
0.175
  9
$DIMEXO
 40
0.125
  9
$DIMDLI
 40
3.75
  9
$DIMRND
 40
0.0
  9
$DIMDLE
 40
0.0
  9
$DIMEXE
 40
0.375
  9
$DIMTP
 40
0.0
  9
$DIMTM
 40
0.0
  9
$DIMTXT
 40
0.25
  9
$DIMCEN
 40
2.5
  9
$DIMTSZ
 40
0.0
  9
$DIMTOL
 70
0
  9
$DIMLIM
 70
0
  9
$DIMTIH
 70
0
  9
$DIMTOH
 70
0
  9
$DIMSE1
 70
0
  9
$DIMSE2
 70
0
  9
$DIMTAD
 70
1
  9
$DIMZIN
 70
12
  9
$DIMBLK
  1
ARCHTICK
  9
$DIMASO
 70
1
  9
$DIMSHO
 70
1
  9
$DIMPOST
  1

  9
$DIMAPOST
  1

  9
$DIMALT
 70
0
  9
$DIMALTD
 70
3
  9
$DIMALTF
 40
0.03937007874
  9
$DIMLFAC
 40
100.0
  9
$DIMTOFL
 70
1
  9
$DIMTVP
 40
0.0
  9
$DIMTIX
 70
0
  9
$DIMSOXD
 70
0
  9
$DIMSAH
 70
0
  9
$DIMBLK1
  1

  9
$DIMBLK2
  1

  9
$DIMSTYLE
  2
EZDXF
  9
$DIMCLRD
 70
0
  9
$DIMCLRE
 70
0
  9
$DIMCLRT
 70
0
  9
$DIMTFAC
 40
0.5
  9
$DIMGAP
 40
0.1
  9
$DIMJUST
 70
0
  9
$DIMSD1
 70
0
  9
$DIMSD2
 70
0
  9
$DIMTOLJ
 70
0
  9
$DIMTZIN
 70
8
  9
$DIMALTZ
 70
0
  9
$DIMALTTZ
 70
0
  9
$DIMUPT
 70
1
  9
$DIMDEC
 70
2
  9
$DIMTDEC
 70
2
  9
$DIMALTU
 70
2
  9
$DIMALTTD
 70
3
  9
$DIMTXSTY
  7
OpenSansCondensed-Light
  9
$DIMAUNIT
 70
0
  9
$DIMADEC
 70
2
  9
$DIMALTRND
 40
0.0
  9
$DIMAZIN
 70
3
  9
$DIMDSEP
 70
46
  9
$DIMATFIT
 70
3
  9
$DIMFRAC
 70
0
  9
$DIMLDRBLK
  1

  9
$DIMLUNIT
 70
2
  9
$DIMLWD
 70
-2
  9
$DIMLWE
 70
-2
  9
$DIMTMOVE
 70
2
  9
$DIMFXL
 40
1.0
  9
$DIMFXLON
 70
0
  9
$DIMJOGANG
 40
0.785398163397
  9
$DIMTFILL
 70
0
  9
$DIMTFILLCLR
 70
0
  9
$DIMARCSYM
 70
0
  9
$DIMLTYPE
  6

  9
$DIMLTEX1
  6

  9
$DIMLTEX2
  6

  9
$DIMTXTDIRECTION
 70
0
  9
$LUNITS
 70
2
  9
$LUPREC
 70
4
  9
$SKETCHINC
 40
1.0
  9
$FILLETRAD
 40
10.0
  9
$AUNITS
 70
0
  9
$AUPREC
 70
2
  9
$MENU
  1
.
  9
$ELEVATION
 40
0.0
  9
$PELEVATION
 40
0.0
  9
$THICKNESS
 40
0.0
  9
$LIMCHECK
 70
0
  9
$CHAMFERA
 40
0.0
  9
$CHAMFERB
 40
0.0
  9
$CHAMFERC
 40
0.0
  9
$CHAMFERD
 40
0.0
  9
$SKPOLY
 70
0
  9
$TDCREATE
 40
2461310.3083912036
  9
$TDUCREATE
 40
2458532.153996898
  9
$TDUPDATE
 40
2461310.3083912036
  9
$TDUUPDATE
 40
2458532.1544311
  9
$TDINDWG
 40
0.0
  9
$TDUSRTIMER
 40
0.0
  9
$USRTIMER
 70
1
  9
$ANGBASE
 50
0.0
  9
$ANGDIR
 70
0
  9
$PDMODE
 70
0
  9
$PDSIZE
 40
0.0
  9
$PLINEWID
 40
0.0
  9
$SPLFRAME
 70
0
  9
$SPLINETYPE
 70
6
  9
$SPLINESEGS
 70
8
  9
$HANDSEED
  5
99
  9
$SURFTAB1
 70
6
  9
$SURFTAB2
 70
6
  9
$SURFTYPE
 70
6
  9
$SURFU
 70
6
  9
$SURFV
 70
6
  9
$UCSBASE
  2

  9
$UCSNAME
  2

  9
$UCSORG
 10
0.0
 20
0.0
 30
0.0
  9
$UCSXDIR
 10
1.0
 20
0.0
 30
0.0
  9
$UCSYDIR
 10
0.0
 20
1.0
 30
0.0
  9
$UCSORTHOREF
  2

  9
$UCSORTHOVIEW
 70
0
  9
$UCSORGTOP
 10
0.0
 20
0.0
 30
0.0
  9
$UCSORGBOTTOM
 10
0.0
 20
0.0
 30
0.0
  9
$UCSORGLEFT
 10
0.0
 20
0.0
 30
0.0
  9
$UCSORGRIGHT
 10
0.0
 20
0.0
 30
0.0
  9
$UCSORGFRONT
 10
0.0
 20
0.0
 30
0.0
  9
$UCSORGBACK
 10
0.0
 20
0.0
 30
0.0
  9
$PUCSBASE
  2

  9
$PUCSNAME
  2

  9
$PUCSORG
 10
0.0
 20
0.0
 30
0.0
  9
$PUCSXDIR
 10
1.0
 20
0.0
 30
0.0
  9
$PUCSYDIR
 10
0.0
 20
1.0
 30
0.0
  9
$PUCSORTHOREF
  2

  9
$PUCSORTHOVIEW
 70
0
  9
$PUCSORGTOP
 10
0.0
 20
0.0
 30
0.0
  9
$PUCSORGBOTTOM
 10
0.0
 20
0.0
 30
0.0
  9
$PUCSORGLEFT
 10
0.0
 20
0.0
 30
0.0
  9
$PUCSORGRIGHT
 10
0.0
 20
0.0
 30
0.0
  9
$PUCSORGFRONT
 10
0.0
 20
0.0
 30
0.0
  9
$PUCSORGBACK
 10
0.0
 20
0.0
 30
0.0
  9
$USERI1
 70
0
  9
$USERI2
 70
0
  9
$USERI3
 70
0
  9
$USERI4
 70
0
  9
$USERI5
 70
0
  9
$USERR1
 40
0.0
  9
$USERR2
 40
0.0
  9
$USERR3
 40
0.0
  9
$USERR4
 40
0.0
  9
$USERR5
 40
0.0
  9
$WORLDVIEW
 70
1
  9
$SHADEDGE
 70
3
  9
$SHADEDIF
 70
70
  9
$TILEMODE
 70
1
  9
$MAXACTVP
 70
64
  9
$PINSBASE
 10
0.0
 20
0.0
 30
0.0
  9
$PLIMCHECK
 70
0
  9
$PEXTMIN
 10
1e+20
 20
1e+20
 30
1e+20
  9
$PEXTMAX
 10
-1e+20
 20
-1e+20
 30
-1e+20
  9
$PLIMMIN
 10
0.0
 20
0.0
  9
$PLIMMAX
 10
420.0
 20
297.0
  9
$UNITMODE
 70
0
  9
$VISRETAIN
 70
1
  9
$PLINEGEN
 70
0
  9
$PSLTSCALE
 70
1
  9
$TREEDEPTH
 70
3020
  9
$CMLSTYLE
  2
Standard
  9
$CMLJUST
 70
0
  9
$CMLSCALE
 40
20.0
  9
$PROXYGRAPHICS
 70
1
  9
$MEASUREMENT
 70
1
  9
$CELWEIGHT
370
-1
  9
$ENDCAPS
280
0
  9
$JOINSTYLE
280
0
  9
$LWDISPLAY
290
0
  9
$INSUNITS
 70
4
  9
$HYPERLINKBASE
  1

  9
$STYLESHEET
  1

  9
$XEDIT
290
1
  9
$CEPSNTYPE
380
0
  9
$PSTYLEMODE
290
1
  9
$FINGERPRINTGUID
  2
{62AF9551-085F-4124-AEAD-475F688A93B0}
  9
$VERSIONGUID
  2
{C99DBFF0-C1AE-4A75-9D1C-F9333E7AD3BD}
  9
$EXTNAMES
290
1
  9
$PSVPSCALE
 40
0.0
  9
$OLESTARTUP
290
0
  9
$SORTENTS
280
127
  9
$INDEXCTL
280
0
  9
$HIDETEXT
280
1
  9
$XCLIPFRAME
280
1
  9
$HALOGAP
280
0
  9
$OBSCOLOR
 70
257
  9
$OBSLTYPE
280
0
  9
$INTERSECTIONDISPLAY
280
0
  9
$INTERSECTIONCOLOR
 70
257
  9
$DIMASSOC
280
2
  9
$PROJECTNAME
  1

  9
$CAMERADISPLAY
290
0
  9
$LENSLENGTH
 40
50.0
  9
$CAMERAHEIGHT
 40
0.0
  9
$STEPSPERSEC
 40
24.0
  9
$STEPSIZE
 40
100.0
  9
$3DDWFPREC
 40
2.0
  9
$PSOLWIDTH
 40
0.005
  9
$PSOLHEIGHT
 40
0.08
  9
$LOFTANG1
 40
1.570796326795
  9
$LOFTANG2
 40
1.570796326795
  9
$LOFTMAG1
 40
0.0
  9
$LOFTMAG2
 40
0.0
  9
$LOFTPARAM
 70
7
  9
$LOFTNORMALS
280
1
  9
$LATITUDE
 40
37.795
  9
$LONGITUDE
 40
-122.394
  9
$NORTHDIRECTION
 40
0.0
  9
$TIMEZONE
 70
-8000
  9
$LIGHTGLYPHDISPLAY
280
1
  9
$TILEMODELIGHTSYNCH
280
1
  9
$CMATERIAL
347
20
  9
$SOLIDHIST
280
0
  9
$SHOWHIST
280
1
  9
$DWFFRAME
280
2
  9
$DGNFRAME
280
2
  9
$REALWORLDSCALE
290
1
  9
$INTERFERECOLOR
 62
256
  9
$CSHADOW
280
0
  9
$SHADOWPLANELOCATION
 40
0.0
  0
ENDSEC
  0
SECTION
  2
CLASSES
  0
CLASS
  1
ACDBDICTIONARYWDFLT
  2
AcDbDictionaryWithDefault
  3
ObjectDBX Classes
 90
0
 91
0
280
0
281
0
  0
CLASS
  1
SUN
  2
AcDbSun
  3
SCENEOE
 90
1153
 91
0
280
0
281
0
  0
CLASS
  1
VISUALSTYLE
  2
AcDbVisualStyle
  3
ObjectDBX Classes
 90
4095
 91
0
280
0
281
0
  0
CLASS
  1
MATERIAL
  2
AcDbMaterial
  3
ObjectDBX Classes
 90
1153
 91
0
280
0
281
0
  0
CLASS
  1
SCALE
  2
AcDbScale
  3
ObjectDBX Classes
 90
1153
 91
0
280
0
281
0
  0
CLASS
  1
TABLESTYLE
  2
AcDbTableStyle
  3
ObjectDBX Classes
 90
4095
 91
0
280
0
281
0
  0
CLASS
  1
MLEADERSTYLE
  2
AcDbMLeaderStyle
  3
ACDB_MLEADERSTYLE_CLASS
 90
4095
 91
0
280
0
281
0
  0
CLASS
  1
DICTIONARYVAR
  2
AcDbDictionaryVar
  3
ObjectDBX Classes
 90
0
 91
0
280
0
281
0
  0
CLASS
  1
CELLSTYLEMAP
  2
AcDbCellStyleMap
  3
ObjectDBX Classes
 90
1152
 91
0
280
0
281
0
  0
CLASS
  1
MENTALRAYRENDERSETTINGS
  2
AcDbMentalRayRenderSettings
  3
SCENEOE
 90
1024
 91
0
280
0
281
0
  0
CLASS
  1
ACDBDETAILVIEWSTYLE
  2
AcDbDetailViewStyle
  3
ObjectDBX Classes
 90
1025
 91
0
280
0
281
0
  0
CLASS
  1
ACDBSECTIONVIEWSTYLE
  2
AcDbSectionViewStyle
  3
ObjectDBX Classes
 90
1025
 91
0
280
0
281
0
  0
CLASS
  1
RASTERVARIABLES
  2
AcDbRasterVariables
  3
ISM
 90
0
 91
0
280
0
281
0
  0
CLASS
  1
LAYOUT
  2
AcDbLayout
  3
ObjectDBX Classes
 90
0
 91
0
280
0
281
0
  0
CLASS
  1
ACDBPLACEHOLDER
  2
AcDbPlaceHolder
  3
ObjectDBX Classes
 90
0
 91
0
280
0
281
0
  0
ENDSEC
  0
SECTION
  2
TABLES
  0
TABLE
  2
VPORT
  5
8
330
0
100
AcDbSymbolTable
 70
1
  0
VPORT
  5
23
330
8
100
AcDbSymbolTableRecord
100
AcDbViewportTableRecord
  2
*Active
 70
0
 10
0.0
 20
0.0
 11
1.0
 21
1.0
 12
0.0
 22
0.0
 13
0.0
 23
0.0
 14
0.5
 24
0.5
 15
0.5
 25
0.5
 16
0.0
 26
0.0
 36
1.0
 17
0.0
 27
0.0
 37
0.0
 40
1000.0
 41
1.34
 42
50.0
 43
0.0
 44
0.0
 50
0.0
 51
0.0
 71
0
 72
1000
 73
1
 74
3
 75
0
 76
0
 77
0
 78
0
281
0
 65
0
146
0.0
  0
ENDTAB
  0
TABLE
  2
LTYPE
  5
2
330
0
100
AcDbSymbolTable
 70
21
  0
LTYPE
  5
24
330
2
100
AcDbSymbolTableRecord
100
AcDbLinetypeTableRecord
  2
ByBlock
 70
0
  3

 72
65
 73
0
 40
0.0
  0
LTYPE
  5
25
330
2
100
AcDbSymbolTableRecord
100
AcDbLinetypeTableRecord
  2
ByLayer
 70
0
  3

 72
65
 73
0
 40
0.0
  0
LTYPE
  5
26
330
2
100
AcDbSymbolTableRecord
100
AcDbLinetypeTableRecord
  2
Continuous
 70
0
  3

 72
65
 73
0
 40
0.0
  0
LTYPE
  5
2F
330
2
100
AcDbSymbolTableRecord
100
AcDbLinetypeTableRecord
  2
CENTER
 70
0
  3
Center ____ _ ____ _ ____ _ ____ _ ____ _ ____
 72
65
 73
4
 40
5.08
 49
3.175
 74
0
 49
-0.635
 74
0
 49
0.635
 74
0
 49
-0.635
 74
0
  0
LTYPE
  5
30
330
2
100
AcDbSymbolTableRecord
100
AcDbLinetypeTableRecord
  2
CENTERX2
 70
0
  3
Center (2x) ________  __  ________  __  ________
 72
65
 73
4
 40
8.89
 49
6.35
 74
0
 49
-0.635
 74
0
 49
1.27
 74
0
 49
-0.635
 74
0
  0
LTYPE
  5
31
330
2
100
AcDbSymbolTableRecord
100
AcDbLinetypeTableRecord
  2
CENTER2
 70
0
  3
Center (.5x) ____ _ ____ _ ____ _ ____ _ ____
 72
65
 73
4
 40
2.54
 49
1.587
 74
0
 49
-0.318
 74
0
 49
0.318
 74
0
 49
-0.318
 74
0
  0
LTYPE
  5
32
330
2
100
AcDbSymbolTableRecord
100
AcDbLinetypeTableRecord
  2
DASHED
 70
0
  3
Dashed __ __ __ __ __ __ __ __ __ __ __ __ __ _
 72
65
 73
2
 40
1.524
 49
1.27
 74
0
 49
-0.254
 74
0
  0
LTYPE
  5
33
330
2
100
AcDbSymbolTableRecord
100
AcDbLinetypeTableRecord
  2
DASHEDX2
 70
0
  3
Dashed (2x) ____  ____  ____  ____  ____  ____
 72
65
 73
2
 40
3.048
 49
2.54
 74
0
 49
-0.508
 74
0
  0
LTYPE
  5
34
330
2
100
AcDbSymbolTableRecord
100
AcDbLinetypeTableRecord
  2
DASHED2
 70
0
  3
Dashed (.5x) _ _ _ _ _ _ _ _ _ _ _ _ _ _
 72
65
 73
2
 40
0.762
 49
0.635
 74
0
 49
-0.127
 74
0
  0
LTYPE
  5
35
330
2
100
AcDbSymbolTableRecord
100
AcDbLinetypeTableRecord
  2
PHANTOM
 70
0
  3
Phantom ______  __  __  ______  __  __  ______
 72
65
 73
6
 40
6.35
 49
3.175
 74
0
 49
-0.635
 74
0
 49
0.635
 74
0
 49
-0.635
 74
0
 49
0.635
 74
0
 49
-0.635
 74
0
  0
LTYPE
  5
36
330
2
100
AcDbSymbolTableRecord
100
AcDbLinetypeTableRecord
  2
PHANTOMX2
 70
0
  3
Phantom (2x)____________    ____    ____    ____________
 72
65
 73
6
 40
10.795
 49
6.35
 74
0
 49
-0.635
 74
0
 49
1.27
 74
0
 49
-0.635
 74
0
 49
1.27
 74
0
 49
-0.635
 74
0
  0
LTYPE
  5
37
330
2
100
AcDbSymbolTableRecord
100
AcDbLinetypeTableRecord
  2
PHANTOM2
 70
0
  3
Phantom (.5x) ___ _ _ ___ _ _ ___ _ _ ___ _ _ ___
 72
65
 73
6
 40
3.175
 49
1.587
 74
0
 49
-0.318
 74
0
 49
0.318
 74
0
 49
-0.318
 74
0
 49
0.318
 74
0
 49
-0.318
 74
0
  0
LTYPE
  5
38
330
2
100
AcDbSymbolTableRecord
100
AcDbLinetypeTableRecord
  2
DASHDOT
 70
0
  3
Dash dot __ . __ . __ . __ . __ . __ . __ . __
 72
65
 73
4
 40
3.556
 49
2.54
 74
0
 49
-0.508
 74
0
 49
0.0
 74
0
 49
-0.508
 74
0
  0
LTYPE
  5
39
330
2
100
AcDbSymbolTableRecord
100
AcDbLinetypeTableRecord
  2
DASHDOTX2
 70
0
  3
Dash dot (2x) ____  .  ____  .  ____  .  ____
 72
65
 73
4
 40
6.096
 49
5.08
 74
0
 49
-0.508
 74
0
 49
0.0
 74
0
 49
-0.508
 74
0
  0
LTYPE
  5
3A
330
2
100
AcDbSymbolTableRecord
100
AcDbLinetypeTableRecord
  2
DASHDOT2
 70
0
  3
Dash dot (.5x) _ . _ . _ . _ . _ . _ . _ . _
 72
65
 73
4
 40
1.778
 49
1.27
 74
0
 49
-0.254
 74
0
 49
0.0
 74
0
 49
-0.254
 74
0
  0
LTYPE
  5
3B
330
2
100
AcDbSymbolTableRecord
100
AcDbLinetypeTableRecord
  2
DOT
 70
0
  3
Dot .  .  .  .  .  .  .  .  .  .  .  .  .  .  .  .
 72
65
 73
2
 40
0.508
 49
0.0
 74
0
 49
-0.508
 74
0
  0
LTYPE
  5
3C
330
2
100
AcDbSymbolTableRecord
100
AcDbLinetypeTableRecord
  2
DOTX2
 70
0
  3
Dot (2x) .    .    .    .    .    .    .    . 
 72
65
 73
2
 40
1.016
 49
0.0
 74
0
 49
-1.016
 74
0
  0
LTYPE
  5
3D
330
2
100
AcDbSymbolTableRecord
100
AcDbLinetypeTableRecord
  2
DOT2
 70
0
  3
Dot (.5) . . . . . . . . . . . . . . . . . . . 
 72
65
 73
2
 40
0.254
 49
0.0
 74
0
 49
-0.254
 74
0
  0
LTYPE
  5
3E
330
2
100
AcDbSymbolTableRecord
100
AcDbLinetypeTableRecord
  2
DIVIDE
 70
0
  3
Divide __ . . __ . . __ . . __ . . __ . . __
 72
65
 73
6
 40
4.064
 49
2.54
 74
0
 49
-0.508
 74
0
 49
0.0
 74
0
 49
-0.508
 74
0
 49
0.0
 74
0
 49
-0.508
 74
0
  0
LTYPE
  5
3F
330
2
100
AcDbSymbolTableRecord
100
AcDbLinetypeTableRecord
  2
DIVIDEX2
 70
0
  3
Divide (2x) ____  . .  ____  . .  ____  . .  ____
 72
65
 73
6
 40
6.604
 49
5.08
 74
0
 49
-0.508
 74
0
 49
0.0
 74
0
 49
-0.508
 74
0
 49
0.0
 74
0
 49
-0.508
 74
0
  0
LTYPE
  5
40
330
2
100
AcDbSymbolTableRecord
100
AcDbLinetypeTableRecord
  2
DIVIDE2
 70
0
  3
Divide(.5x) _ . _ . _ . _ . _ . _ . _ . _
 72
65
 73
6
 40
2.032
 49
1.27
 74
0
 49
-0.254
 74
0
 49
0.0
 74
0
 49
-0.254
 74
0
 49
0.0
 74
0
 49
-0.254
 74
0
  0
ENDTAB
  0
TABLE
  2
LAYER
  5
1
330
0
100
AcDbSymbolTable
 70
4
  0
LAYER
  5
27
330
1
100
AcDbSymbolTableRecord
100
AcDbLayerTableRecord
  2
0
 70
0
 62
7
  6
Continuous
370
-3
390
13
347
21
  0
LAYER
  5
28
330
1
100
AcDbSymbolTableRecord
100
AcDbLayerTableRecord
  2
Defpoints
 70
0
 62
7
  6
Continuous
290
0
370
-3
390
13
347
21
  0
LAYER
  5
8A
330
1
100
AcDbSymbolTableRecord
100
AcDbLayerTableRecord
  2
CORTE
 70
0
 62
1
  6
Continuous
370
-3
390
13
347
21
  0
LAYER
  5
8B
330
1
100
AcDbSymbolTableRecord
100
AcDbLayerTableRecord
  2
NOTAS
 70
0
 62
3
  6
Continuous
370
-3
390
13
347
21
  0
ENDTAB
  0
TABLE
  2
STYLE
  5
5
330
0
100
AcDbSymbolTable
 70
26
  0
STYLE
  5
29
330
5
100
AcDbSymbolTableRecord
100
AcDbTextStyleTableRecord
  2
Standard
 70
0
 40
0.0
 41
1.0
 50
0.0
 71
0
 42
2.5
  3
txt
  4

  0
STYLE
  5
41
330
5
100
AcDbSymbolTableRecord
100
AcDbTextStyleTableRecord
  2
OpenSans-Light
 70
0
 40
0.0
 41
1.0
 50
0.0
 71
0
 42
2.5
  3
OpenSans-Light.ttf
  4

  0
STYLE
  5
42
330
5
100
AcDbSymbolTableRecord
100
AcDbTextStyleTableRecord
  2
OpenSans-Light-Italic
 70
0
 40
0.0
 41
1.0
 50
0.0
 71
0
 42
2.5
  3
OpenSans-LightItalic.ttf
  4

  0
STYLE
  5
43
330
5
100
AcDbSymbolTableRecord
100
AcDbTextStyleTableRecord
  2
OpenSans
 70
0
 40
0.0
 41
1.0
 50
0.0
 71
0
 42
2.5
  3
OpenSans-Regular.ttf
  4

  0
STYLE
  5
44
330
5
100
AcDbSymbolTableRecord
100
AcDbTextStyleTableRecord
  2
OpenSans-Italic
 70
0
 40
0.0
 41
1.0
 50
0.0
 71
0
 42
2.5
  3
OpenSans-Italic.ttf
  4

  0
STYLE
  5
45
330
5
100
AcDbSymbolTableRecord
100
AcDbTextStyleTableRecord
  2
OpenSans-SemiBold
 70
0
 40
0.0
 41
1.0
 50
0.0
 71
0
 42
2.5
  3
OpenSans-SemiBold.ttf
  4

  0
STYLE
  5
46
330
5
100
AcDbSymbolTableRecord
100
AcDbTextStyleTableRecord
  2
OpenSans-SemiBoldItalic
 70
0
 40
0.0
 41
1.0
 50
0.0
 71
0
 42
2.5
  3
OpenSans-SemiBoldItalic.ttf
  4

  0
STYLE
  5
47
330
5
100
AcDbSymbolTableRecord
100
AcDbTextStyleTableRecord
  2
OpenSans-Bold
 70
0
 40
0.0
 41
1.0
 50
0.0
 71
0
 42
2.5
  3
OpenSans-Bold.ttf
  4

  0
STYLE
  5
48
330
5
100
AcDbSymbolTableRecord
100
AcDbTextStyleTableRecord
  2
OpenSans-BoldItalic
 70
0
 40
0.0
 41
1.0
 50
0.0
 71
0
 42
2.5
  3
OpenSans-BoldItalic.ttf
  4

  0
STYLE
  5
49
330
5
100
AcDbSymbolTableRecord
100
AcDbTextStyleTableRecord
  2
OpenSans-ExtraBold
 70
0
 40
0.0
 41
1.0
 50
0.0
 71
0
 42
2.5
  3
OpenSans-ExtraBold.ttf
  4

  0
STYLE
  5
4A
330
5
100
AcDbSymbolTableRecord
100
AcDbTextStyleTableRecord
  2
OpenSans-ExtraBoldItalic
 70
0
 40
0.0
 41
1.0
 50
0.0
 71
0
 42
2.5
  3
OpenSans-ExtraBoldItalic.ttf
  4

  0
STYLE
  5
4B
330
5
100
AcDbSymbolTableRecord
100
AcDbTextStyleTableRecord
  2
OpenSansCondensed-Bold
 70
0
 40
0.0
 41
1.0
 50
0.0
 71
0
 42
2.5
  3
OpenSansCondensed-Bold.ttf
  4

  0
STYLE
  5
4C
330
5
100
AcDbSymbolTableRecord
100
AcDbTextStyleTableRecord
  2
OpenSansCondensed-Light
 70
0
 40
0.0
 41
1.0
 50
0.0
 71
0
 42
2.5
  3
OpenSansCondensed-Light.ttf
  4

  0
STYLE
  5
4D
330
5
100
AcDbSymbolTableRecord
100
AcDbTextStyleTableRecord
  2
OpenSansCondensed-Italic
 70
0
 40
0.0
 41
1.0
 50
0.0
 71
0
 42
2.5
  3
OpenSansCondensed-LightItalic.ttf
  4

  0
STYLE
  5
4E
330
5
100
AcDbSymbolTableRecord
100
AcDbTextStyleTableRecord
  2
LiberationSans
 70
0
 40
0.0
 41
1.0
 50
0.0
 71
0
 42
2.5
  3
LiberationSans-Regular.ttf
  4

  0
STYLE
  5
4F
330
5
100
AcDbSymbolTableRecord
100
AcDbTextStyleTableRecord
  2
LiberationSans-Bold
 70
0
 40
0.0
 41
1.0
 50
0.0
 71
0
 42
2.5
  3
LiberationSans-Bold.ttf
  4

  0
STYLE
  5
50
330
5
100
AcDbSymbolTableRecord
100
AcDbTextStyleTableRecord
  2
LiberationSans-BoldItalic
 70
0
 40
0.0
 41
1.0
 50
0.0
 71
0
 42
2.5
  3
LiberationSans-BoldItalic.ttf
  4

  0
STYLE
  5
51
330
5
100
AcDbSymbolTableRecord
100
AcDbTextStyleTableRecord
  2
LiberationSans-Italic
 70
0
 40
0.0
 41
1.0
 50
0.0
 71
0
 42
2.5
  3
LiberationSans-Italic.ttf
  4

  0
STYLE
  5
52
330
5
100
AcDbSymbolTableRecord
100
AcDbTextStyleTableRecord
  2
LiberationSerif
 70
0
 40
0.0
 41
1.0
 50
0.0
 71
0
 42
2.5
  3
LiberationSerif-Regular.ttf
  4

  0
STYLE
  5
53
330
5
100
AcDbSymbolTableRecord
100
AcDbTextStyleTableRecord
  2
LiberationSerif-Bold
 70
0
 40
0.0
 41
1.0
 50
0.0
 71
0
 42
2.5
  3
LiberationSerif-Bold.ttf
  4

  0
STYLE
  5
54
330
5
100
AcDbSymbolTableRecord
100
AcDbTextStyleTableRecord
  2
LiberationSerif-BoldItalic
 70
0
 40
0.0
 41
1.0
 50
0.0
 71
0
 42
2.5
  3
LiberationSerif-BoldItalic.ttf
  4

  0
STYLE
  5
55
330
5
100
AcDbSymbolTableRecord
100
AcDbTextStyleTableRecord
  2
LiberationSerif-Italic
 70
0
 40
0.0
 41
1.0
 50
0.0
 71
0
 42
2.5
  3
LiberationSerif-Italic.ttf
  4

  0
STYLE
  5
56
330
5
100
AcDbSymbolTableRecord
100
AcDbTextStyleTableRecord
  2
LiberationMono
 70
0
 40
0.0
 41
1.0
 50
0.0
 71
0
 42
2.5
  3
LiberationMono-Regular.ttf
  4

  0
STYLE
  5
57
330
5
100
AcDbSymbolTableRecord
100
AcDbTextStyleTableRecord
  2
LiberationMono-Bold
 70
0
 40
0.0
 41
1.0
 50
0.0
 71
0
 42
2.5
  3
LiberationMono-Bold.ttf
  4

  0
STYLE
  5
58
330
5
100
AcDbSymbolTableRecord
100
AcDbTextStyleTableRecord
  2
LiberationMono-BoldItalic
 70
0
 40
0.0
 41
1.0
 50
0.0
 71
0
 42
2.5
  3
LiberationMono-BoldItalic.ttf
  4

  0
STYLE
  5
59
330
5
100
AcDbSymbolTableRecord
100
AcDbTextStyleTableRecord
  2
LiberationMono-Italic
 70
0
 40
0.0
 41
1.0
 50
0.0
 71
0
 42
2.5
  3
LiberationMono-Italic.ttf
  4

  0
ENDTAB
  0
TABLE
  2
VIEW
  5
7
330
0
100
AcDbSymbolTable
 70
0
  0
ENDTAB
  0
TABLE
  2
UCS
  5
6
330
0
100
AcDbSymbolTable
 70
0
  0
ENDTAB
  0
TABLE
  2
APPID
  5
3
330
0
100
AcDbSymbolTable
 70
3
  0
APPID
  5
2A
330
3
100
AcDbSymbolTableRecord
100
AcDbRegAppTableRecord
  2
ACAD
 70
0
  0
APPID
  5
96
330
3
100
AcDbSymbolTableRecord
100
AcDbRegAppTableRecord
  2
HATCHBACKGROUNDCOLOR
 70
0
  0
APPID
  5
97
330
3
100
AcDbSymbolTableRecord
100
AcDbRegAppTableRecord
  2
EZDXF
 70
0
  0
ENDTAB
  0
TABLE
  2
DIMSTYLE
  5
4
330
0
100
AcDbSymbolTable
 70
12
100
AcDbDimStyleTable
  0
DIMSTYLE
105
2B
330
4
100
AcDbSymbolTableRecord
100
AcDbDimStyleTableRecord
  2
Standard
 70
0
 40
1.0
 41
2.5
 42
0.625
 43
3.75
 44
1.25
 45
0.0
 46
0.0
 47
0.0
 48
0.0
 49
2.5
140
2.5
141
2.5
142
0.0
143
0.03937007874
144
1.0
145
0.0
146
1.0
147
0.625
148
0.0
 69
0
 70
0
 71
0
 72
0
 73
0
 74
0
 75
0
 76
0
 77
1
 78
8
 79
3
170
0
171
3
172
1
173
0
174
0
175
0
176
0
177
0
178
0
179
2
271
2
272
2
273
2
274
3
275
0
276
0
277
2
278
44
279
0
280
0
281
0
282
0
283
0
284
8
285
0
286
0
288
0
289
3
290
0
371
-2
372
-2
  0
DIMSTYLE
105
73
330
4
100
AcDbSymbolTableRecord
100
AcDbDimStyleTableRecord
  2
EZDXF
 70
0
 40
1.0
 41
0.175
 42
0.125
 43
3.75
 44
0.375
 45
0.0
 46
0.0
 47
0.0
 48
0.0
 49
2.5
140
0.25
141
2.5
142
0.0
143
0.03937007874
144
100.0
145
0.0
146
0.5
147
0.1
148
0.0
 69
0
 70
0
 71
0
 72
0
 73
0
 74
0
 75
0
 76
0
 77
1
 78
12
 79
3
170
0
171
3
172
1
173
0
174
0
175
0
176
0
177
0
178
0
179
2
271
2
272
2
273
2
274
3
275
0
276
0
277
2
278
46
279
2
280
0
281
0
282
0
283
0
284
8
285
0
286
0
288
1
289
3
290
0
340
4C
342
74
371
-2
372
-2
  0
DIMSTYLE
105
7C
330
4
100
AcDbSymbolTableRecord
100
AcDbDimStyleTableRecord
  2
EZ_M_100_H25_CM
 70
0
 40
1.0
 41
0.25
 42
0.125
 43
3.75
 44
0.375
 45
0.0
 46
0.0
 47
0.0
 48
0.0
 49
2.5
140
0.25
141
2.5
142
0.125
143
0.03937007874
144
100.0
145
0.0
146
0.5
147
0.1
148
0.0
 69
0
 70
0
 71
0
 72
0
 73
0
 74
0
 75
0
 76
0
 77
1
 78
12
 79
3
170
0
171
3
172
1
173
0
174
0
175
0
176
0
177
0
178
0
179
2
271
2
272
2
273
2
274
3
275
0
276
0
277
2
278
46
279
2
280
0
281
0
282
0
283
0
284
8
285
0
286
0
288
1
289
3
290
0
340
4C
371
-2
372
-2
  0
DIMSTYLE
105
7D
330
4
100
AcDbSymbolTableRecord
100
AcDbDimStyleTableRecord
  2
EZ_M_50_H25_CM
 70
0
 40
1.0
 41
0.125
 42
0.0625
 43
3.75
 44
0.1875
 45
0.0
 46
0.0
 47
0.0
 48
0.0
 49
2.5
140
0.125
141
2.5
142
0.0625
143
0.03937007874
144
100.0
145
0.0
146
0.5
147
0.05
148
0.0
 69
0
 70
0
 71
0
 72
0
 73
0
 74
0
 75
0
 76
0
 77
1
 78
12
 79
3
170
0
171
3
172
1
173
0
174
0
175
0
176
0
177
0
178
0
179
2
271
2
272
2
273
2
274
3
275
0
276
0
277
2
278
46
279
2
280
0
281
0
282
0
283
0
284
8
285
0
286
0
288
1
289
3
290
0
340
4C
371
-2
372
-2
  0
DIMSTYLE
105
7E
330
4
100
AcDbSymbolTableRecord
100
AcDbDimStyleTableRecord
  2
EZ_M_25_H25_CM
 70
0
 40
1.0
 41
0.0625
 42
0.03125
 43
3.75
 44
0.09375
 45
0.0
 46
0.0
 47
0.0
 48
0.0
 49
2.5
140
0.0625
141
2.5
142
0.03125
143
0.03937007874
144
100.0
145
0.0
146
0.5
147
0.025
148
0.0
 69
0
 70
0
 71
0
 72
0
 73
0
 74
0
 75
0
 76
0
 77
1
 78
12
 79
3
170
0
171
3
172
1
173
0
174
0
175
0
176
0
177
0
178
0
179
2
271
2
272
2
273
2
274
3
275
0
276
0
277
2
278
46
279
2
280
0
281
0
282
0
283
0
284
8
285
0
286
0
288
1
289
3
290
0
340
4C
371
-2
372
-2
  0
DIMSTYLE
105
7F
330
4
100
AcDbSymbolTableRecord
100
AcDbDimStyleTableRecord
  2
EZ_M_20_H25_CM
 70
0
 40
1.0
 41
0.05
 42
0.025
 43
3.75
 44
0.07500000000000001
 45
0.0
 46
0.0
 47
0.0
 48
0.0
 49
2.5
140
0.05
141
2.5
142
0.025
143
0.03937007874
144
100.0
145
0.0
146
0.5
147
0.020000000000000004
148
0.0
 69
0
 70
0
 71
0
 72
0
 73
0
 74
0
 75
0
 76
0
 77
1
 78
12
 79
3
170
0
171
3
172
1
173
0
174
0
175
0
176
0
177
0
178
0
179
2
271
2
272
2
273
2
274
3
275
0
276
0
277
2
278
46
279
2
280
0
281
0
282
0
283
0
284
8
285
0
286
0
288
1
289
3
290
0
340
4C
371
-2
372
-2
  0
DIMSTYLE
105
80
330
4
100
AcDbSymbolTableRecord
100
AcDbDimStyleTableRecord
  2
EZ_M_10_H25_CM
 70
0
 40
1.0
 41
0.025
 42
0.0125
 43
3.75
 44
0.037500000000000006
 45
0.0
 46
0.0
 47
0.0
 48
0.0
 49
2.5
140
0.025
141
2.5
142
0.0125
143
0.03937007874
144
100.0
145
0.0
146
0.5
147
0.010000000000000002
148
0.0
 69
0
 70
0
 71
0
 72
0
 73
0
 74
0
 75
0
 76
0
 77
1
 78
12
 79
3
170
0
171
3
172
1
173
0
174
0
175
0
176
0
177
0
178
0
179
2
271
2
272
2
273
2
274
3
275
0
276
0
277
2
278
46
279
2
280
0
281
0
282
0
283
0
284
8
285
0
286
0
288
1
289
3
290
0
340
4C
371
-2
372
-2
  0
DIMSTYLE
105
81
330
4
100
AcDbSymbolTableRecord
100
AcDbDimStyleTableRecord
  2
EZ_M_5_H25_CM
 70
0
 40
1.0
 41
0.0125
 42
0.00625
 43
3.75
 44
0.018750000000000003
 45
0.0
 46
0.0
 47
0.0
 48
0.0
 49
2.5
140
0.0125
141
2.5
142
0.00625
143
0.03937007874
144
100.0
145
0.0
146
0.5
147
0.005000000000000001
148
0.0
 69
0
 70
0
 71
0
 72
0
 73
0
 74
0
 75
0
 76
0
 77
1
 78
12
 79
3
170
0
171
3
172
1
173
0
174
0
175
0
176
0
177
0
178
0
179
2
271
2
272
2
273
2
274
3
275
0
276
0
277
2
278
46
279
2
280
0
281
0
282
0
283
0
284
8
285
0
286
0
288
1
289
3
290
0
340
4C
371
-2
372
-2
  0
DIMSTYLE
105
82
330
4
100
AcDbSymbolTableRecord
100
AcDbDimStyleTableRecord
  2
EZ_M_1_H25_CM
 70
0
 40
1.0
 41
0.0025
 42
0.00125
 43
3.75
 44
0.00375
 45
0.0
 46
0.0
 47
0.0
 48
0.0
 49
2.5
140
0.0025
141
2.5
142
0.00125
143
0.03937007874
144
100.0
145
0.0
146
0.5
147
0.001
148
0.0
 69
0
 70
0
 71
0
 72
0
 73
0
 74
0
 75
0
 76
0
 77
1
 78
12
 79
3
170
0
171
3
172
1
173
0
174
0
175
0
176
0
177
0
178
0
179
2
271
2
272
2
273
2
274
3
275
0
276
0
277
2
278
46
279
2
280
0
281
0
282
0
283
0
284
8
285
0
286
0
288
1
289
3
290
0
340
4C
371
-2
372
-2
  0
DIMSTYLE
105
83
330
4
100
AcDbSymbolTableRecord
100
AcDbDimStyleTableRecord
  2
EZ_RADIUS
 70
0
 40
1.0
 41
0.25
 42
0.125
 43
3.75
 44
0.375
 45
0.0
 46
0.0
 47
0.0
 48
0.0
 49
2.5
140
0.25
141
0.0
142
0.0
143
0.03937007874
144
100.0
145
0.0
146
0.5
147
0.1
148
0.0
 69
0
 70
0
 71
0
 72
0
 73
0
 74
0
 75
0
 76
0
 77
1
 78
12
 79
3
170
0
171
3
172
0
173
0
174
0
175
0
176
0
177
0
178
0
179
2
271
2
272
2
273
2
274
3
275
0
276
0
277
2
278
46
279
1
280
0
281
0
282
0
283
0
284
8
285
0
286
0
288
1
289
3
290
0
340
4C
342
84
371
-2
372
-2
  0
DIMSTYLE
105
88
330
4
100
AcDbSymbolTableRecord
100
AcDbDimStyleTableRecord
  2
EZ_RADIUS_INSIDE
 70
0
 40
1.0
 41
0.25
 42
0.125
 43
3.75
 44
0.375
 45
0.0
 46
0.0
 47
0.0
 48
0.0
 49
2.5
140
0.25
141
0.0
142
0.0
143
0.03937007874
144
100.0
145
0.0
146
0.5
147
0.1
148
0.0
 69
0
 70
0
 71
0
 72
0
 73
0
 74
0
 75
0
 76
0
 77
0
 78
12
 79
3
170
0
171
3
172
0
173
0
174
1
175
0
176
0
177
0
178
0
179
2
271
2
272
2
273
2
274
3
275
0
276
0
277
2
278
46
279
0
280
0
281
0
282
0
283
0
284
8
285
0
286
0
288
1
289
0
290
0
340
4C
342
84
371
-2
372
-2
  0
DIMSTYLE
105
89
330
4
100
AcDbSymbolTableRecord
100
AcDbDimStyleTableRecord
  2
EZ_CURVED
 70
0
 40
1.0
 41
0.25
 42
0.125
 43
3.75
 44
0.375
 45
0.0
 46
0.0
 47
0.0
 48
0.0
 49
2.5
140
0.25
141
2.5
142
0.0
143
0.03937007874
144
100.0
145
0.0
146
0.5
147
0.1
148
0.0
 69
0
 70
0
 71
0
 72
0
 73
0
 74
0
 75
0
 76
0
 77
1
 78
12
 79
2
 90
2
170
0
171
3
172
1
173
0
174
0
175
0
176
0
177
0
178
0
179
2
271
2
272
2
273
2
274
3
275
0
276
0
277
2
278
46
279
2
280
0
281
0
282
0
283
0
284
8
285
0
286
0
288
1
289
3
290
0
340
4C
371
-2
372
-2
  0
ENDTAB
  0
TABLE
  2
BLOCK_RECORD
  5
9
330
0
100
AcDbSymbolTable
 70
5
  0
BLOCK_RECORD
  5
17
330
9
100
AcDbSymbolTableRecord
100
AcDbBlockTableRecord
  2
*Model_Space
340
1A
 70
0
280
1
281
0
  0
BLOCK_RECORD
  5
1B
330
9
100
AcDbSymbolTableRecord
100
AcDbBlockTableRecord
  2
*Paper_Space
340
1E
 70
0
280
1
281
0
  0
BLOCK_RECORD
  5
74
330
9
100
AcDbSymbolTableRecord
100
AcDbBlockTableRecord
  2
_ARCHTICK
340
0
 70
0
280
1
281
0
  0
BLOCK_RECORD
  5
78
330
9
100
AcDbSymbolTableRecord
100
AcDbBlockTableRecord
  2
_CLOSEDFILLED
340
0
 70
0
280
1
281
0
  0
BLOCK_RECORD
  5
84
330
9
100
AcDbSymbolTableRecord
100
AcDbBlockTableRecord
  2
_CLOSEDBLANK
340
0
 70
0
280
1
281
0
  0
ENDTAB
  0
ENDSEC
  0
SECTION
  2
BLOCKS
  0
BLOCK
  5
18
330
17
100
AcDbEntity
  8
0
100
AcDbBlockBegin
  2
*Model_Space
 70
0
 10
0.0
 20
0.0
 30
0.0
  3
*Model_Space
  1

  0
ENDBLK
  5
19
330
17
100
AcDbEntity
  8
0
100
AcDbBlockEnd
  0
BLOCK
  5
1C
330
1B
100
AcDbEntity
  8
0
100
AcDbBlockBegin
  2
*Paper_Space
 70
0
 10
0.0
 20
0.0
 30
0.0
  3
*Paper_Space
  1

  0
ENDBLK
  5
1D
330
1B
100
AcDbEntity
  8
0
100
AcDbBlockEnd
  0
BLOCK
  5
75
330
74
100
AcDbEntity
  8
0
100
AcDbBlockBegin
  2
_ARCHTICK
 70
0
 10
0.0
 20
0.0
 30
0.0
  3
_ARCHTICK
  1

  0
LWPOLYLINE
  5
77
330
74
100
AcDbEntity
  8
0
  6
BYBLOCK
 62
0
100
AcDbPolyline
 90
2
 70
0
 43
0.15
 10
-0.5
 20
-0.5
 10
0.5
 20
0.5
  0
ENDBLK
  5
76
330
74
100
AcDbEntity
  8
0
100
AcDbBlockEnd
  0
BLOCK
  5
79
330
78
100
AcDbEntity
  8
0
100
AcDbBlockBegin
  2
_CLOSEDFILLED
 70
0
 10
0.0
 20
0.0
 30
0.0
  3
_CLOSEDFILLED
  1

  0
SOLID
  5
7B
330
78
100
AcDbEntity
  8
0
  6
BYBLOCK
 62
0
100
AcDbTrace
 10
-1.0
 20
0.16439898372402537
 30
0.0
 11
0.0
 21
0.0
 31
0.0
 12
-1.0
 22
-0.16439898372402537
 32
0.0
 13
-1.0
 23
-0.16439898372402537
 33
0.0
  0
ENDBLK
  5
7A
330
78
100
AcDbEntity
  8
0
100
AcDbBlockEnd
  0
BLOCK
  5
85
330
84
100
AcDbEntity
  8
0
100
AcDbBlockBegin
  2
_CLOSEDBLANK
 70
0
 10
0.0
 20
0.0
 30
0.0
  3
_CLOSEDBLANK
  1

  0
LWPOLYLINE
  5
87
330
84
100
AcDbEntity
  8
0
  6
BYBLOCK
 62
0
100
AcDbPolyline
 90
3
 70
1
 10
-1.0
 20
0.16439898372402537
 10
0.0
 20
0.0
 10
-1.0
 20
-0.16439898372402537
  0
ENDBLK
  5
86
330
84
100
AcDbEntity
  8
0
100
AcDbBlockEnd
  0
ENDSEC
  0
SECTION
  2
ENTITIES
  0
LWPOLYLINE
  5
8C
330
17
100
AcDbEntity
  8
CORTE
100
AcDbPolyline
 90
73
 70
1
 10
-22.204517116339023
 20
-241.0
 10
-22.990779171051624
 20
-240.961268239503
 10
-23.76942789736647
 20
-240.84544799532978
 10
-24.532923686288832
 20
-240.65366074796987
 10
-25.27387365380946
 20
-240.38776356185602
 10
-25.98510322575778
 20
-240.0503311035206
 10
-26.659725608774025
 20
-239.64463071125363
 10
-27.291208474716964
 20
-239.17459075766186
 10
-27.873437212806184
 20
-238.64476261147186
 10
-28.400774137032155
 20
-238.0602765668994
 10
-73.19625702069314
 20
-183.20866487262066
 10
-73.66089407026197
 20
-182.57924490289847
 10
-74.06183037896238
 20
-181.90745091477206
 10
-74.39523163571904
 20
-181.19970753747336
 10
-74.65790939363008
 20
-180.46278319833402
 10
-74.84735156233465
 20
-179.70372539366195
 10
-74.96174643211768
 20
-178.9297932907715
 10
-75.0
 20
-178.14838830572126
 10
-75.0
 20
-39.31370849898477
 10
-74.96147781337757
 20
-38.52957137634828
 10
-74.84628224322584
 20
-37.752985922855736
 10
-74.65552268585768
 20
-36.99143108094907
 10
-74.39103626009029
 20
-36.25224104006405
 10
-74.05537011478684
 20
-35.54253460437678
 10
-73.65175689842036
 20
-34.86914663482795
 10
-73.1840836269019
 20
-34.2385622256756
 10
-72.65685424949238
 20
-33.65685424949238
 10
-64.34314575050762
 20
-25.34314575050762
 10
-63.7614377743244
 20
-24.815916373098105
 10
-63.13085336517205
 20
-24.34824310157964
 10
-62.45746539562322
 20
-23.94462988521316
 10
-61.74775895993595
 20
-23.608963739909704
 10
-61.00856891905093
 20
-23.34447731414233
 10
-60.24701407714426
 20
-23.153717756774157
 10
-59.47042862365172
 20
-23.038522186622423
 10
-58.68629150101523
 20
-23.0
 10
58.68629150101523
 20
-23.0
 10
59.47042862365172
 20
-23.038522186622426
 10
60.24701407714426
 20
-23.153717756774157
 10
61.00856891905093
 20
-23.34447731414233
 10
61.74775895993595
 20
-23.608963739909708
 10
62.45746539562322
 20
-23.94462988521316
 10
63.13085336517205
 20
-24.34824310157964
 10
63.7614377743244
 20
-24.815916373098105
 10
64.34314575050762
 20
-25.34314575050762
 10
72.65685424949238
 20
-33.65685424949238
 10
73.1840836269019
 20
-34.2385622256756
 10
73.65175689842036
 20
-34.86914663482795
 10
74.05537011478684
 20
-35.54253460437678
 10
74.39103626009029
 20
-36.25224104006405
 10
74.65552268585768
 20
-36.99143108094907
 10
74.84628224322584
 20
-37.75298592285574
 10
74.96147781337757
 20
-38.52957137634828
 10
75.0
 20
-39.31370849898477
 10
75.0
 20
-178.14838830572126
 10
74.96174643211768
 20
-178.9297932907715
 10
74.84735156233465
 20
-179.70372539366195
 10
74.65790939363008
 20
-180.46278319833402
 10
74.39523163571904
 20
-181.19970753747336
 10
74.06183037896238
 20
-181.90745091477206
 10
73.66089407026197
 20
-182.57924490289847
 10
73.19625702069314
 20
-183.20866487262066
 10
28.400774137032155
 20
-238.0602765668994
 10
27.873437212806184
 20
-238.64476261147186
 10
27.291208474716964
 20
-239.17459075766186
 10
26.659725608774025
 20
-239.64463071125363
 10
25.98510322575778
 20
-240.0503311035206
 10
25.27387365380946
 20
-240.38776356185602
 10
24.532923686288832
 20
-240.65366074796987
 10
23.76942789736647
 20
-240.84544799532978
 10
22.990779171051624
 20
-240.961268239503
 10
22.204517116339023
 20
-241.0
 10
-22.204517116339023
 20
-241.0
  0
LWPOLYLINE
  5
8D
330
17
100
AcDbEntity
  8
CORTE
100
AcDbPolyline
 90
99
 70
1
 10
-62.5
 20
-109.06283319174787
 10
-62.48073030914743
 20
-108.47420502867658
 10
-62.423003752364295
 20
-107.8880974617674
 10
-62.327067523629076
 20
-107.30702029360272
 10
-62.193332436601615
 20
-106.73346178582518
 10
-62.02237116545595
 20
-106.16987800401941
 10
-61.81491579260158
 20
-105.61868230046205
 10
-61.57185467379419
 20
-105.08223497977686
 10
-61.29422863405995
 20
-104.56283319174787
 10
-60.98322651072291
 20
-104.06270109457145
 10
-60.64018006262111
 20
-103.58398033066938
 10
-60.2665582673108
 20
-103.12872085584725
 10
-59.86396103067893
 20
-102.69887216106895
 10
-59.43411233590062
 20
-102.29627492443707
 10
-58.97885286107849
 20
-101.92265312912676
 10
-58.50013209717642
 20
-101.57960668102497
 10
-58.0
 20
-101.26860455768792
 10
-57.480598211971014
 20
-100.99097851795368
 10
-56.94415089128581
 20
-100.74791739914629
 10
-56.392955187728454
 20
-100.54046202629192
 10
-55.829371405922686
 20
-100.36950075514625
 10
-55.25581289814515
 20
-100.2357656681188
 10
-54.67473572998046
 20
-100.13982943938358
 10
-54.08862816307129
 20
-100.08210288260044
 10
-53.5
 20
-100.06283319174787
 10
-52.911371836928716
 20
-100.08210288260044
 10
-52.32526427001954
 20
-100.13982943938358
 10
-51.74418710185485
 20
-100.2357656681188
 10
-51.170628594077314
 20
-100.36950075514625
 10
-50.607044812271546
 20
-100.54046202629192
 10
-50.05584910871419
 20
-100.74791739914629
 10
-49.519401788028986
 20
-100.99097851795368
 10
-49.0
 20
-101.26860455768792
 10
-48.49986790282358
 20
-101.57960668102496
 10
-48.02114713892151
 20
-101.92265312912676
 10
-47.565887664099385
 20
-102.29627492443707
 10
-47.13603896932107
 20
-102.69887216106895
 10
-46.7334417326892
 20
-103.12872085584725
 10
-46.35981993737889
 20
-103.58398033066939
 10
-46.01677348927709
 20
-104.06270109457145
 10
-45.70577136594005
 20
-104.56283319174787
 10
-45.42814532620581
 20
-105.08223497977686
 10
-45.18508420739842
 20
-105.61868230046207
 10
-44.97762883454405
 20
-106.16987800401941
 10
-44.806667563398385
 20
-106.73346178582518
 10
-44.672932476370924
 20
-107.30702029360272
 10
-44.576996247635705
 20
-107.8880974617674
 10
-44.51926969085257
 20
-108.47420502867658
 10
-44.5
 20
-109.06283319174787
 10
-44.5
 20
-125.06283319174787
 10
-44.51926969085257
 20
-125.65146135481916
 10
-44.576996247635705
 20
-126.23756892172834
 10
-44.672932476370924
 20
-126.81864608989302
 10
-44.806667563398385
 20
-127.39220459767056
 10
-44.97762883454405
 20
-127.95578837947633
 10
-45.18508420739842
 20
-128.50698408303367
 10
-45.42814532620581
 20
-129.04343140371887
 10
-45.70577136594005
 20
-129.56283319174787
 10
-46.01677348927709
 20
-130.0629652889243
 10
-46.35981993737888
 20
-130.54168605282635
 10
-46.7334417326892
 20
-130.99694552764848
 10
-47.13603896932107
 20
-131.4267942224268
 10
-47.56588766409938
 20
-131.82939145905866
 10
-48.02114713892151
 20
-132.20301325436898
 10
-48.49986790282358
 20
-132.54605970247079
 10
-49.0
 20
-132.85706182580782
 10
-49.519401788028986
 20
-133.13468786554208
 10
-50.05584910871419
 20
-133.37774898434944
 10
-50.607044812271546
 20
-133.58520435720382
 10
-51.170628594077314
 20
-133.7561656283495
 10
-51.74418710185485
 20
-133.88990071537694
 10
-52.32526427001953
 20
-133.98583694411215
 10
-52.91137183692871
 20
-134.0435635008953
 10
-53.5
 20
-134.06283319174787
 10
-54.088628163071284
 20
-134.0435635008953
 10
-54.67473572998046
 20
-133.98583694411218
 10
-55.25581289814515
 20
-133.88990071537694
 10
-55.829371405922686
 20
-133.7561656283495
 10
-56.392955187728454
 20
-133.58520435720382
 10
-56.94415089128581
 20
-133.37774898434947
 10
-57.480598211971014
 20
-133.13468786554208
 10
-58.0
 20
-132.85706182580782
 10
-58.50013209717642
 20
-132.54605970247079
 10
-58.97885286107848
 20
-132.20301325436898
 10
-59.434112335900615
 20
-131.82939145905868
 10
-59.86396103067893
 20
-131.4267942224268
 10
-60.2665582673108
 20
-130.99694552764848
 10
-60.64018006262111
 20
-130.54168605282635
 10
-60.98322651072291
 20
-130.0629652889243
 10
-61.29422863405995
 20
-129.56283319174787
 10
-61.57185467379419
 20
-129.0434314037189
 10
-61.81491579260158
 20
-128.50698408303367
 10
-62.02237116545595
 20
-127.95578837947633
 10
-62.193332436601615
 20
-127.39220459767056
 10
-62.327067523629076
 20
-126.81864608989302
 10
-62.423003752364295
 20
-126.23756892172834
 10
-62.48073030914743
 20
-125.65146135481916
 10
-62.5
 20
-125.06283319174787
 10
-62.5
 20
-109.06283319174787
  0
LWPOLYLINE
  5
8E
330
17
100
AcDbEntity
  8
CORTE
100
AcDbPolyline
 90
99
 70
1
 10
-37.10764031595204
 20
-63.02027810860717
 10
-36.532206944951525
 20
-62.64479993157565
 10
-35.93344817323391
 20
-62.30776082527026
 10
-35.31392797778278
 20
-62.010604042887394
 10
-34.67629923918557
 20
-61.754602055389554
 10
-34.02329238159146
 20
-61.540851102589336
 10
-33.357703680616126
 20
-61.37026649888228
 10
-32.68238328926019
 20
-61.24357871373011
 10
-32.00022303311647
 20
-61.16133024367826
 10
-31.314144027128947
 20
-61.123873289302544
 10
-30.62708416693002
 20
-61.131368247032086
 10
-29.94198554832043
 20
-61.18378302230724
 10
-29.26178186876328
 20
-61.2808931670134
 10
-28.589385864841248
 20
-61.42228284060235
 10
-27.927676839471175
 20
-61.607346590785205
 10
-27.279488332287187
 20
-61.83529194617221
 10
-26.6475959859887
 20
-62.105142809756764
 10
-26.034705660612474
 20
-62.41574363871276
 10
-25.443441846624395
 20
-62.76576439260629
 10
-24.876336426448447
 20
-63.15370622883302
 10
-24.33581783255738
 20
-63.57790792089232
 10
-23.82420064855222
 20
-64.03655297201416
 10
-23.34367569775975
 20
-64.52767739367715
 10
-22.89630066179079
 20
-65.04917811570897
 10
-22.483991269231637
 20
-65.5988219919556
 10
-22.108513092200113
 20
-66.17425536295612
 10
-21.77147398589473
 20
-66.77301413467373
 10
-21.47431720351186
 20
-67.39253433012485
 10
-21.218315216014005
 20
-68.03016306872208
 10
-21.004564263213794
 20
-68.68316992631617
 10
-20.833979659506753
 20
-69.34875862729152
 10
-20.707291874354567
 20
-70.02407901864747
 10
-20.62504340430273
 20
-70.70623927479119
 10
-20.587586449927002
 20
-71.3923182807787
 10
-20.595081407656536
 20
-72.07937814097761
 10
-20.64749618293169
 20
-72.76447675958721
 10
-20.744606327637868
 20
-73.44468043914436
 10
-20.885996001226815
 20
-74.11707644306641
 10
-21.071059751409663
 20
-74.77878546843645
 10
-21.29900510679667
 20
-75.42697397562046
 10
-21.56885597038122
 20
-76.05886632191894
 10
-21.879456799337206
 20
-76.67175664729515
 10
-22.22947755323075
 20
-77.26302046128323
 10
-22.61741938945748
 20
-77.83012588145921
 10
-23.04162108151678
 20
-78.37064447535025
 10
-23.500266132638615
 20
-78.88226165935542
 10
-23.991390554301617
 20
-79.3627866101479
 10
-24.51289127633342
 20
-79.81016164611685
 10
-25.062535152580068
 20
-80.222471038676
 10
-34.89235968404796
 20
-87.10538827488855
 10
-35.467793055048475
 20
-87.4808664519201
 10
-36.0665518267661
 20
-87.81790555822548
 10
-36.68607202221722
 20
-88.11506234060835
 10
-37.32370076081443
 20
-88.37106432810619
 10
-37.976707618408525
 20
-88.58481528090638
 10
-38.642296319383874
 20
-88.75539988461345
 10
-39.31761671073983
 20
-88.88208766976562
 10
-39.999776966883545
 20
-88.96433613981748
 10
-40.68585597287105
 20
-89.00179309419319
 10
-41.37291583306997
 20
-88.99429813646366
 10
-42.05801445167958
 20
-88.9418833611885
 10
-42.73821813123672
 20
-88.84477321648234
 10
-43.41061413515877
 20
-88.70338354289339
 10
-44.072323160528825
 20
-88.51831979271053
 10
-44.72051166771281
 20
-88.29037443732354
 10
-45.3524040140113
 20
-88.02052357373897
 10
-45.965294339387526
 20
-87.70992274478297
 10
-46.556558153375605
 20
-87.35990199088945
 10
-47.12366357355155
 20
-86.97196015466271
 10
-47.66418216744263
 20
-86.54775846260343
 10
-48.175799351447765
 20
-86.08911341148158
 10
-48.65632430224025
 20
-85.59798898981859
 10
-49.10369933820921
 20
-85.07648826778677
 10
-49.51600873076836
 20
-84.52684439154012
 10
-49.89148690779989
 20
-83.95141102053962
 10
-50.22852601410527
 20
-83.35265224882201
 10
-50.52568279648814
 20
-82.73313205337088
 10
-50.781684783985995
 20
-82.09550331477368
 10
-50.995435736786206
 20
-81.44249645717956
 10
-51.16602034049326
 20
-80.77690775620422
 10
-51.29270812564545
 20
-80.10158736484827
 10
-51.37495659569727
 20
-79.41942710870455
 10
-51.412413550073
 20
-78.73334810271704
 10
-51.40491859234346
 20
-78.04628824251812
 10
-51.352503817068325
 20
-77.36118962390853
 10
-51.255393672362146
 20
-76.68098594435138
 10
-51.1140039987732
 20
-76.00858994042933
 10
-50.92894024859034
 20
-75.34688091505927
 10
-50.700994893203344
 20
-74.69869240787528
 10
-50.43114402961878
 20
-74.0668000615768
 10
-50.120543200662794
 20
-73.45390973620059
 10
-49.77052244676925
 20
-72.8626459222125
 10
-49.38258061054253
 20
-72.29554050203654
 10
-48.95837891848322
 20
-71.7550219081455
 10
-48.499733867361385
 20
-71.24340472414032
 10
-48.0086094456984
 20
-70.76287977334783
 10
-47.48710872366658
 20
-70.31550473737889
 10
-46.93746484741993
 20
-69.90319534481972
 10
-37.10764031595204
 20
-63.02027810860717
  0
LWPOLYLINE
  5
8F
330
17
100
AcDbEntity
  8
CORTE
100
AcDbPolyline
 90
99
 70
1
 10
44.5
 20
-109.06283319174787
 10
44.51926969085257
 20
-108.47420502867658
 10
44.576996247635705
 20
-107.8880974617674
 10
44.672932476370924
 20
-107.30702029360272
 10
44.806667563398385
 20
-106.73346178582518
 10
44.97762883454405
 20
-106.16987800401941
 10
45.18508420739842
 20
-105.61868230046205
 10
45.42814532620581
 20
-105.08223497977686
 10
45.70577136594005
 20
-104.56283319174787
 10
46.01677348927709
 20
-104.06270109457145
 10
46.35981993737889
 20
-103.58398033066938
 10
46.7334417326892
 20
-103.12872085584725
 10
47.13603896932107
 20
-102.69887216106895
 10
47.56588766409938
 20
-102.29627492443707
 10
48.02114713892151
 20
-101.92265312912676
 10
48.49986790282358
 20
-101.57960668102497
 10
49.0
 20
-101.26860455768792
 10
49.519401788028986
 20
-100.99097851795368
 10
50.05584910871419
 20
-100.74791739914629
 10
50.607044812271546
 20
-100.54046202629192
 10
51.170628594077314
 20
-100.36950075514625
 10
51.74418710185485
 20
-100.2357656681188
 10
52.32526427001954
 20
-100.13982943938358
 10
52.91137183692871
 20
-100.08210288260044
 10
53.5
 20
-100.06283319174787
 10
54.088628163071284
 20
-100.08210288260044
 10
54.67473572998046
 20
-100.13982943938358
 10
55.25581289814515
 20
-100.2357656681188
 10
55.829371405922686
 20
-100.36950075514625
 10
56.392955187728454
 20
-100.54046202629192
 10
56.94415089128581
 20
-100.74791739914629
 10
57.480598211971014
 20
-100.99097851795368
 10
58.0
 20
-101.26860455768792
 10
58.50013209717642
 20
-101.57960668102496
 10
58.97885286107849
 20
-101.92265312912676
 10
59.434112335900615
 20
-102.29627492443707
 10
59.86396103067893
 20
-102.69887216106895
 10
60.2665582673108
 20
-103.12872085584725
 10
60.64018006262111
 20
-103.58398033066939
 10
60.98322651072291
 20
-104.06270109457145
 10
61.29422863405995
 20
-104.56283319174787
 10
61.57185467379419
 20
-105.08223497977686
 10
61.81491579260158
 20
-105.61868230046207
 10
62.02237116545595
 20
-106.16987800401941
 10
62.193332436601615
 20
-106.73346178582518
 10
62.327067523629076
 20
-107.30702029360272
 10
62.423003752364295
 20
-107.8880974617674
 10
62.48073030914743
 20
-108.47420502867658
 10
62.5
 20
-109.06283319174787
 10
62.5
 20
-125.06283319174787
 10
62.48073030914743
 20
-125.65146135481916
 10
62.423003752364295
 20
-126.23756892172834
 10
62.327067523629076
 20
-126.81864608989302
 10
62.193332436601615
 20
-127.39220459767056
 10
62.02237116545595
 20
-127.95578837947633
 10
61.81491579260158
 20
-128.50698408303367
 10
61.57185467379419
 20
-129.04343140371887
 10
61.29422863405995
 20
-129.56283319174787
 10
60.98322651072291
 20
-130.0629652889243
 10
60.64018006262112
 20
-130.54168605282635
 10
60.2665582673108
 20
-130.99694552764848
 10
59.86396103067893
 20
-131.4267942224268
 10
59.43411233590062
 20
-131.82939145905866
 10
58.97885286107849
 20
-132.20301325436898
 10
58.50013209717642
 20
-132.54605970247079
 10
58.0
 20
-132.85706182580782
 10
57.480598211971014
 20
-133.13468786554208
 10
56.94415089128581
 20
-133.37774898434944
 10
56.392955187728454
 20
-133.58520435720382
 10
55.829371405922686
 20
-133.7561656283495
 10
55.25581289814515
 20
-133.88990071537694
 10
54.67473572998047
 20
-133.98583694411215
 10
54.08862816307129
 20
-134.0435635008953
 10
53.5
 20
-134.06283319174787
 10
52.911371836928716
 20
-134.0435635008953
 10
52.32526427001954
 20
-133.98583694411218
 10
51.74418710185485
 20
-133.88990071537694
 10
51.170628594077314
 20
-133.7561656283495
 10
50.607044812271546
 20
-133.58520435720382
 10
50.05584910871419
 20
-133.37774898434947
 10
49.519401788028986
 20
-133.13468786554208
 10
49.0
 20
-132.85706182580782
 10
48.49986790282358
 20
-132.54605970247079
 10
48.02114713892152
 20
-132.20301325436898
 10
47.565887664099385
 20
-131.82939145905868
 10
47.13603896932107
 20
-131.4267942224268
 10
46.7334417326892
 20
-130.99694552764848
 10
46.35981993737889
 20
-130.54168605282635
 10
46.01677348927709
 20
-130.0629652889243
 10
45.70577136594005
 20
-129.56283319174787
 10
45.42814532620581
 20
-129.0434314037189
 10
45.18508420739842
 20
-128.50698408303367
 10
44.97762883454405
 20
-127.95578837947633
 10
44.806667563398385
 20
-127.39220459767056
 10
44.672932476370924
 20
-126.81864608989302
 10
44.576996247635705
 20
-126.23756892172834
 10
44.51926969085257
 20
-125.65146135481916
 10
44.5
 20
-125.06283319174787
 10
44.5
 20
-109.06283319174787
  0
LWPOLYLINE
  5
90
330
17
100
AcDbEntity
  8
CORTE
100
AcDbPolyline
 90
99
 70
1
 10
25.062535152580068
 20
-80.222471038676
 10
24.51289127633342
 20
-79.81016164611685
 10
23.991390554301617
 20
-79.3627866101479
 10
23.500266132638615
 20
-78.88226165935542
 10
23.04162108151678
 20
-78.37064447535025
 10
22.61741938945748
 20
-77.8301258814592
 10
22.22947755323075
 20
-77.26302046128323
 10
21.87945679933722
 20
-76.67175664729517
 10
21.56885597038122
 20
-76.05886632191894
 10
21.299005106796656
 20
-75.42697397562046
 10
21.071059751409663
 20
-74.77878546843645
 10
20.885996001226815
 20
-74.11707644306641
 10
20.744606327637868
 20
-73.44468043914436
 10
20.647496182931704
 20
-72.76447675958723
 10
20.595081407656536
 20
-72.07937814097761
 10
20.587586449927016
 20
-71.39231828077871
 10
20.62504340430273
 20
-70.70623927479119
 10
20.707291874354567
 20
-70.02407901864747
 10
20.833979659506753
 20
-69.34875862729152
 10
21.004564263213794
 20
-68.68316992631617
 10
21.218315216014005
 20
-68.03016306872208
 10
21.47431720351186
 20
-67.39253433012485
 10
21.771473985894715
 20
-66.77301413467373
 10
22.108513092200113
 20
-66.17425536295612
 10
22.483991269231637
 20
-65.5988219919556
 10
22.89630066179079
 20
-65.04917811570897
 10
23.343675697759735
 20
-64.52767739367715
 10
23.82420064855222
 20
-64.03655297201416
 10
24.33581783255738
 20
-63.57790792089232
 10
24.876336426448447
 20
-63.15370622883302
 10
25.443441846624395
 20
-62.76576439260629
 10
26.034705660612488
 20
-62.415743638712755
 10
26.6475959859887
 20
-62.105142809756764
 10
27.279488332287187
 20
-61.835291946172205
 10
27.927676839471175
 20
-61.607346590785205
 10
28.589385864841233
 20
-61.42228284060234
 10
29.26178186876328
 20
-61.2808931670134
 10
29.94198554832043
 20
-61.18378302230724
 10
30.627084166930032
 20
-61.131368247032086
 10
31.314144027128933
 20
-61.12387328930255
 10
32.00022303311647
 20
-61.16133024367826
 10
32.68238328926017
 20
-61.2435787137301
 10
33.357703680616126
 20
-61.37026649888228
 10
34.023292381591475
 20
-61.54085110258934
 10
34.67629923918557
 20
-61.754602055389554
 10
35.31392797778278
 20
-62.010604042887394
 10
35.93344817323391
 20
-62.30776082527026
 10
36.532206944951525
 20
-62.64479993157565
 10
37.10764031595204
 20
-63.02027810860717
 10
46.93746484741993
 20
-69.90319534481972
 10
47.48710872366658
 20
-70.31550473737889
 10
48.0086094456984
 20
-70.76287977334783
 10
48.499733867361385
 20
-71.24340472414032
 10
48.95837891848322
 20
-71.75502190814548
 10
49.38258061054252
 20
-72.29554050203652
 10
49.77052244676925
 20
-72.8626459222125
 10
50.12054320066278
 20
-73.45390973620057
 10
50.43114402961878
 20
-74.0668000615768
 10
50.70099489320333
 20
-74.69869240787527
 10
50.92894024859034
 20
-75.34688091505927
 10
51.1140039987732
 20
-76.00858994042933
 10
51.255393672362146
 20
-76.68098594435138
 10
51.35250381706831
 20
-77.36118962390852
 10
51.40491859234346
 20
-78.04628824251812
 10
51.412413550073
 20
-78.73334810271703
 10
51.37495659569727
 20
-79.41942710870455
 10
51.29270812564545
 20
-80.10158736484826
 10
51.16602034049326
 20
-80.77690775620422
 10
50.995435736786206
 20
-81.44249645717956
 10
50.781684783985995
 20
-82.09550331477368
 10
50.52568279648814
 20
-82.73313205337088
 10
50.228526014105285
 20
-83.35265224882201
 10
49.89148690779989
 20
-83.95141102053962
 10
49.51600873076836
 20
-84.52684439154012
 10
49.10369933820921
 20
-85.07648826778677
 10
48.656324302240265
 20
-85.59798898981857
 10
48.175799351447765
 20
-86.08911341148158
 10
47.66418216744263
 20
-86.54775846260343
 10
47.12366357355155
 20
-86.97196015466271
 10
46.556558153375605
 20
-87.35990199088945
 10
45.965294339387526
 20
-87.70992274478297
 10
45.3524040140113
 20
-88.02052357373897
 10
44.72051166771281
 20
-88.29037443732352
 10
44.072323160528825
 20
-88.51831979271053
 10
43.41061413515878
 20
-88.70338354289339
 10
42.73821813123672
 20
-88.84477321648234
 10
42.05801445167958
 20
-88.9418833611885
 10
41.37291583306997
 20
-88.99429813646366
 10
40.68585597287107
 20
-89.00179309419319
 10
39.999776966883545
 20
-88.96433613981748
 10
39.31761671073984
 20
-88.88208766976564
 10
38.642296319383874
 20
-88.75539988461345
 10
37.97670761840854
 20
-88.58481528090641
 10
37.32370076081443
 20
-88.37106432810619
 10
36.68607202221722
 20
-88.11506234060835
 10
36.0665518267661
 20
-87.81790555822548
 10
35.467793055048475
 20
-87.4808664519201
 10
34.89235968404796
 20
-87.10538827488855
 10
25.062535152580068
 20
-80.222471038676
  0
LWPOLYLINE
  5
91
330
17
100
AcDbEntity
  8
CORTE
100
AcDbPolyline
 90
193
 70
1
 10
11.0
 20
-218.0
 10
10.994110462240023
 20
-218.35990991103955
 10
10.976448155624638
 20
-218.71943442153156
 10
10.947031993394166
 20
-219.07818854362517
 10
10.905893475111915
 20
-219.43578811442057
 10
10.85307665293367
 20
-219.79185020734047
 10
10.788638084435535
 20
-220.14599354217742
 10
10.71264677205067
 20
-220.49783889337812
 10
10.62518408917975
 20
-220.84700949612773
 10
10.526343693054297
 20
-221.1931314497991
 10
10.416231424446163
 20
-221.53583411833478
 10
10.294965194330583
 20
-221.87475052713356
 10
10.162674857624154
 20
-222.209517756016
 10
10.019502074132934
 20
-222.53977732784836
 10
9.865600156859571
 20
-222.865175592409
 10
9.701133907831906
 20
-223.18536410508597
 10
9.526279441628827
 20
-223.5
 10
9.341223996792367
 20
-223.80874635715404
 10
9.146165735327997
 20
-224.11127256321564
 10
8.941313530507768
 20
-224.40725466554582
 10
8.726886743203588
 20
-224.69637571909593
 10
8.503114986990107
 20
-224.9783261258001
 10
8.270237882268752
 20
-225.25280396610077
 10
8.028504799676194
 20
-225.51951532225158
 10
7.778174593052023
 20
-225.77817459305203
 10
7.519515322251585
 20
-226.0285047996762
 10
7.252803966100759
 20
-226.27023788226876
 10
6.978326125800102
 20
-226.5031149869901
 10
6.696375719095927
 20
-226.72688674320358
 10
6.407254665545825
 20
-226.94131353050776
 10
6.111272563215627
 20
-227.146165735328
 10
5.808746357154049
 20
-227.34122399679237
 10
5.500000000000001
 20
-227.52627944162882
 10
5.185364105085976
 20
-227.70113390783192
 10
4.865175592409016
 20
-227.86560015685956
 10
4.539777327848344
 20
-228.01950207413293
 10
4.209517756015988
 20
-228.16267485762415
 10
3.8747505271335694
 20
-228.2949651943306
 10
3.535834118334779
 20
-228.41623142444615
 10
3.1931314497990875
 20
-228.5263436930543
 10
2.847009496127731
 20
-228.62518408917975
 10
2.497838893378108
 20
-228.71264677205068
 10
2.1459935421774117
 20
-228.78863808443555
 10
1.791850207340477
 20
-228.85307665293368
 10
1.4357881144205689
 20
-228.90589347511192
 10
1.0781885436251684
 20
-228.94703199339418
 10
0.719434421531576
 20
-228.97644815562464
 10
0.35990991103954023
 20
-228.99411046224003
 10
0.0
 20
-229.0
 10
-0.35990991103953646
 20
-228.99411046224003
 10
-0.7194344215315721
 20
-228.97644815562464
 10
-1.0781885436251646
 20
-228.94703199339418
 10
-1.435788114420565
 20
-228.90589347511192
 10
-1.7918502073404734
 20
-228.85307665293368
 10
-2.1459935421774077
 20
-228.78863808443555
 10
-2.497838893378104
 20
-228.71264677205068
 10
-2.847009496127727
 20
-228.62518408917975
 10
-3.193131449799084
 20
-228.5263436930543
 10
-3.5358341183347752
 20
-228.41623142444615
 10
-3.874750527133566
 20
-228.2949651943306
 10
-4.209517756015985
 20
-228.16267485762415
 10
-4.53977732784834
 20
-228.01950207413293
 10
-4.865175592409012
 20
-227.86560015685956
 10
-5.18536410508597
 20
-227.70113390783192
 10
-5.499999999999997
 20
-227.52627944162882
 10
-5.808746357154048
 20
-227.34122399679237
 10
-6.111272563215621
 20
-227.146165735328
 10
-6.407254665545823
 20
-226.94131353050776
 10
-6.696375719095924
 20
-226.72688674320358
 10
-6.978326125800099
 20
-226.5031149869901
 10
-7.252803966100753
 20
-226.27023788226876
 10
-7.519515322251582
 20
-226.0285047996762
 10
-7.778174593052022
 20
-225.77817459305203
 10
-8.028504799676188
 20
-225.51951532225158
 10
-8.27023788226875
 20
-225.25280396610077
 10
-8.503114986990104
 20
-224.9783261258001
 10
-8.726886743203586
 20
-224.69637571909593
 10
-8.941313530507767
 20
-224.40725466554582
 10
-9.146165735327996
 20
-224.11127256321564
 10
-9.341223996792367
 20
-223.80874635715404
 10
-9.526279441628823
 20
-223.5
 10
-9.701133907831904
 20
-223.18536410508597
 10
-9.86560015685957
 20
-222.86517559240903
 10
-10.019502074132932
 20
-222.53977732784836
 10
-10.162674857624154
 20
-222.209517756016
 10
-10.294965194330581
 20
-221.87475052713359
 10
-10.416231424446162
 20
-221.53583411833478
 10
-10.526343693054296
 20
-221.1931314497991
 10
-10.62518408917975
 20
-220.84700949612773
 10
-10.712646772050668
 20
-220.49783889337812
 10
-10.788638084435535
 20
-220.14599354217742
 10
-10.85307665293367
 20
-219.79185020734047
 10
-10.905893475111915
 20
-219.43578811442057
 10
-10.947031993394164
 20
-219.07818854362517
 10
-10.976448155624638
 20
-218.7194344215316
 10
-10.994110462240023
 20
-218.35990991103955
 10
-11.0
 20
-218.0
 10
-10.994110462240023
 20
-217.64009008896048
 10
-10.976448155624638
 20
-217.28056557846844
 10
-10.947031993394166
 20
-216.92181145637483
 10
-10.905893475111915
 20
-216.56421188557943
 10
-10.85307665293367
 20
-216.20814979265953
 10
-10.788638084435537
 20
-215.8540064578226
 10
-10.71264677205067
 20
-215.50216110662188
 10
-10.625184089179752
 20
-215.15299050387227
 10
-10.526343693054299
 20
-214.8068685502009
 10
-10.416231424446163
 20
-214.46416588166522
 10
-10.294965194330585
 20
-214.12524947286644
 10
-10.162674857624157
 20
-213.79048224398403
 10
-10.019502074132935
 20
-213.46022267215167
 10
-9.865600156859571
 20
-213.134824407591
 10
-9.701133907831908
 20
-212.81463589491403
 10
-9.526279441628827
 20
-212.5
 10
-9.34122399679237
 20
-212.19125364284596
 10
-9.146165735328
 20
-211.8887274367844
 10
-8.941313530507772
 20
-211.59274533445418
 10
-8.72688674320359
 20
-211.30362428090407
 10
-8.503114986990107
 20
-211.0216738741999
 10
-8.270237882268756
 20
-210.74719603389926
 10
-8.028504799676195
 20
-210.48048467774842
 10
-7.778174593052027
 20
-210.22182540694797
 10
-7.519515322251587
 20
-209.9714952003238
 10
-7.2528039661007595
 20
-209.72976211773124
 10
-6.9783261258001055
 20
-209.4968850130099
 10
-6.696375719095929
 20
-209.27311325679642
 10
-6.407254665545825
 20
-209.05868646949224
 10
-6.111272563215633
 20
-208.853834264672
 10
-5.808746357154054
 20
-208.65877600320763
 10
-5.500000000000005
 20
-208.47372055837118
 10
-5.185364105085976
 20
-208.29886609216808
 10
-4.865175592409015
 20
-208.13439984314044
 10
-4.53977732784835
 20
-207.98049792586707
 10
-4.209517756015994
 20
-207.83732514237585
 10
-3.8747505271335734
 20
-207.7050348056694
 10
-3.5358341183347797
 20
-207.58376857555385
 10
-3.193131449799087
 20
-207.4736563069457
 10
-2.8470094961277366
 20
-207.37481591082025
 10
-2.4978388933781117
 20
-207.28735322794932
 10
-2.1459935421774152
 20
-207.21136191556445
 10
-1.7918502073404785
 20
-207.14692334706632
 10
-1.4357881144205773
 20
-207.09410652488808
 10
-1.0781885436251748
 20
-207.05296800660582
 10
-0.7194344215315798
 20
-207.02355184437536
 10
-0.3599099110395416
 20
-207.00588953775997
 10
0.0
 20
-207.0
 10
0.3599099110395278
 20
-207.00588953775997
 10
0.719434421531566
 20
-207.02355184437536
 10
1.078188543625161
 20
-207.05296800660582
 10
1.435788114420564
 20
-207.09410652488808
 10
1.7918502073404745
 20
-207.14692334706632
 10
2.1459935421774015
 20
-207.21136191556445
 10
2.4978388933780984
 20
-207.28735322794932
 10
2.8470094961277232
 20
-207.37481591082025
 10
3.1931314497990826
 20
-207.4736563069457
 10
3.535834118334776
 20
-207.58376857555385
 10
3.8747505271335596
 20
-207.7050348056694
 10
4.20951775601598
 20
-207.83732514237585
 10
4.539777327848338
 20
-207.98049792586707
 10
4.865175592409011
 20
-208.13439984314041
 10
5.185364105085965
 20
-208.29886609216808
 10
5.499999999999993
 20
-208.47372055837116
 10
5.808746357154042
 20
-208.65877600320763
 10
6.11127256321562
 20
-208.853834264672
 10
6.407254665545821
 20
-209.05868646949224
 10
6.6963757190959186
 20
-209.27311325679642
 10
6.978326125800094
 20
-209.4968850130099
 10
7.252803966100752
 20
-209.72976211773124
 10
7.519515322251581
 20
-209.9714952003238
 10
7.778174593052021
 20
-210.22182540694797
 10
8.028504799676185
 20
-210.48048467774842
 10
8.270237882268747
 20
-210.74719603389923
 10
8.503114986990104
 20
-211.0216738741999
 10
8.726886743203584
 20
-211.30362428090407
 10
8.941313530507767
 20
-211.59274533445418
 10
9.146165735327992
 20
-211.88872743678436
 10
9.341223996792364
 20
-212.19125364284594
 10
9.526279441628823
 20
-212.5
 10
9.701133907831903
 20
-212.81463589491403
 10
9.865600156859566
 20
-213.13482440759097
 10
10.01950207413293
 20
-213.46022267215164
 10
10.162674857624152
 20
-213.790482243984
 10
10.294965194330581
 20
-214.12524947286641
 10
10.416231424446162
 20
-214.46416588166522
 10
10.526343693054294
 20
-214.8068685502009
 10
10.625184089179749
 20
-215.15299050387227
 10
10.712646772050668
 20
-215.50216110662188
 10
10.788638084435533
 20
-215.85400645782258
 10
10.85307665293367
 20
-216.20814979265953
 10
10.905893475111913
 20
-216.56421188557943
 10
10.947031993394164
 20
-216.92181145637483
 10
10.976448155624638
 20
-217.2805655784684
 10
10.994110462240023
 20
-217.64009008896045
 10
11.0
 20
-218.0
  0
LWPOLYLINE
  5
92
330
17
100
AcDbEntity
  8
CORTE
100
AcDbPolyline
 90
5
 70
1
 10
61.550000000000004
 20
-55.2
 10
61.550000000000004
 20
-34.8
 10
48.449999999999996
 20
-34.8
 10
48.449999999999996
 20
-55.2
 10
61.550000000000004
 20
-55.2
  0
LWPOLYLINE
  5
93
330
17
100
AcDbEntity
  8
CORTE
100
AcDbPolyline
 90
5
 70
1
 10
-48.449999999999996
 20
-55.2
 10
-48.449999999999996
 20
-34.8
 10
-61.550000000000004
 20
-34.8
 10
-61.550000000000004
 20
-55.2
 10
-48.449999999999996
 20
-55.2
  0
LWPOLYLINE
  5
94
330
17
100
AcDbEntity
  8
CORTE
100
AcDbPolyline
 90
387
 70
1
 10
0.0
 20
-184.71064307820257
 10
-0.5243934986288952
 20
-184.70559505268835
 10
-1.048646604437922
 20
-184.69045232762414
 10
-1.5726189621937399
 20
-184.66521895708374
 10
-2.0961702918260805
 20
-184.62990169665048
 10
-2.6191604259840577
 20
-184.58451000160903
 10
-3.1414493475624115
 20
-184.52905602441376
 10
-3.662897227187424
 20
-184.46355461143528
 10
-4.183364460652646
 20
-184.38802329898576
 10
-4.70271170629434
 20
-184.3024823086239
 10
-5.22079992229656
 20
-184.2069545417413
 10
-5.7374904039160715
 20
-184.10146557343117
 10
-6.252644820616901
 20
-183.98604364564102
 10
-6.766125253104827
 20
-183.86071965961202
 10
-7.277794230251658
 20
-183.72552716760558
 10
-7.7875147658996
 20
-183.58050236392094
 10
-8.295150395535785
 20
-183.42568407520494
 10
-8.800565212827072
 20
-183.26111375005698
 10
-9.303623906005512
 20
-183.08683544793263
 10
-9.804191794094528
 20
-182.90289582734758
 10
-10.302134862966321
 20
-182.70934413338603
 10
-10.797319801220649
 20
-182.50623218451676
 10
-11.289614035875525
 20
-182.29361435871988
 10
-11.778885767860242
 20
-182.07154757892863
 10
-12.265004007301117
 20
-181.84009129778977
 10
-12.747838608590696
 20
-181.5993074817465
 10
-13.227260305230846
 20
-181.34926059444882
 10
-13.703140744440532
 20
-181.0900175794948
 10
-14.175352521518985
 20
-180.82164784250818
 10
-14.643769213954979
 20
-180.5442232325571
 10
-15.108265415273213
 20
-180.25781802291795
 10
-15.568716768608688
 20
-179.96250889119085
 10
-16.02499999999999
 20
-179.6583748987712
 10
-16.476992951392752
 20
-179.34549746968304
 10
-16.924574613344294
 20
-179.02396036877977
 10
-17.367625157420783
 20
-178.6938496793184
 10
-17.80602596827824
 20
-178.35525377991274
 10
-18.23965967541868
 20
-178.0082633208727
 10
-18.668410184613055
 20
-177.65297119993468
 10
-19.09216270898249
 20
-177.2894725373907
 10
-19.510803799729484
 20
-176.91786465062256
 10
-19.92422137651097
 20
-176.53824702804718
 10
-20.33230475744483
 20
-176.1507213024817
 10
-20.734944688742175
 20
-175.75539122393357
 10
-21.132033373957192
 20
-175.35236263182423
 10
-21.523464502846927
 20
-174.94174342665337
 10
-21.909133279833018
 20
-174.52364354111137
 10
-22.28893645205805
 20
-174.09817491064757
 10
-22.662772337028844
 20
-173.66545144350258
 10
-23.030540849839312
 20
-173.22558899021217
 10
-23.392143529965622
 20
-172.77870531259134
 10
-23.74748356762643
 20
-172.32492005220664
 10
-24.09646582970122
 20
-171.8643546983452
 10
-24.438996885199735
 20
-171.39713255548918
 10
-24.774985030275708
 20
-170.92337871030395
 10
-25.104340312778234
 20
-170.44321999814974
 10
-25.42697455633408
 20
-169.9567849691244
 10
-25.742801383954664
 20
-169.46420385364766
 10
-26.05173624116126
 20
-168.96560852759515
 10
-26.35369641862228
 20
-168.46113247699213
 10
-26.648601074296565
 20
-167.95091076227604
 10
-26.936371255076732
 20
-167.43507998213752
 10
-27.216929917926848
 20
-166.9137782369496
 10
-27.49020195050871
 20
-166.38714509179505
 10
-27.75611419129125
 20
-165.85532153910128
 10
-28.014595449137612
 20
-165.31844996089328
 10
-28.265576522364775
 20
-164.77667409067456
 10
-28.50899021727048
 20
-164.23013897494624
 10
-28.744771366122652
 20
-163.67899093437447
 10
-28.972856844606348
 20
-163.12337752461693
 10
-29.19318558872368
 20
-162.56344749681864
 10
-29.405698611142093
 20
-161.99935075778765
 10
-29.61033901698674
 20
-161.43123832986134
 10
-29.807052019072582
 20
-160.8592623104742
 10
-29.99578495257228
 20
-160.28357583143742
 10
-30.176487289115812
 20
-159.704333017942
 10
-30.34911065031813
 20
-159.1216889472958
 10
-30.51360882073127
 20
-158.53579960740535
 10
-30.669937760217287
 20
-157.94682185501426
 10
-30.818055615738928
 20
-157.35491337370883
 10
-30.957922732564633
 20
-156.76023263170237
 10
-31.08950166488513
 20
-156.1629388394094
 10
-31.212757185838537
 20
-155.56319190682132
 10
-31.327656296941473
 20
-154.96115240069423
 10
-31.434168236923533
 20
-154.35698150156182
 10
-31.532264489962827
 20
-153.7508409605832
 10
-31.62191879332037
 20
-153.1428930562382
 10
-31.703107144371224
 20
-152.53330055088148
 10
-31.77580780703062
 20
-151.92222664716724
 10
-31.84000131757319
 20
-151.3098349443558
 10
-31.895670489843905
 20
-150.69628939451417
 10
-31.942800419859225
 20
-150.08175425862208
 10
-31.98137848979724
 20
-149.4663940625955
 10
-32.01139437137577
 20
-148.85037355323877
 10
-32.032840028617514
 20
-148.23385765413818
 10
-32.045709720001454
 20
-147.61701142150778
 10
-32.05
 20
-147.0
 10
-32.05
 20
-139.12566638349574
 10
-32.045709720001454
 20
-138.508654961988
 10
-32.032840028617514
 20
-137.8918087293576
 10
-32.01139437137577
 20
-137.27529283025703
 10
-31.98137848979724
 20
-136.65927232090027
 10
-31.942800419859225
 20
-136.04391212487369
 10
-31.89567048984391
 20
-135.4293769889816
 10
-31.840001317573194
 20
-134.81583143913997
 10
-31.775807807030624
 20
-134.2034397363285
 10
-31.703107144371227
 20
-133.5923658326143
 10
-31.621918793320372
 20
-132.98277332725758
 10
-31.53226448996283
 20
-132.37482542291255
 10
-31.434168236923536
 20
-131.76868488193395
 10
-31.327656296941477
 20
-131.16451398280154
 10
-31.21275718583854
 20
-130.56247447667445
 10
-31.089501664885134
 20
-129.96272754408633
 10
-30.95792273256464
 20
-129.36543375179338
 10
-30.81805561573893
 20
-128.77075300978692
 10
-30.669937760217294
 20
-128.1788445284815
 10
-30.513608820731275
 20
-127.58986677609042
 10
-30.34911065031814
 20
-127.00397743619996
 10
-30.17648728911582
 20
-126.42133336555375
 10
-29.99578495257229
 20
-125.84209055205838
 10
-29.80705201907259
 20
-125.26640407302159
 10
-29.610339016986746
 20
-124.6944280536344
 10
-29.4056986111421
 20
-124.12631562570812
 10
-29.19318558872369
 20
-123.56221888667713
 10
-28.97285684460636
 20
-123.00228885887884
 10
-28.74477136612266
 20
-122.4466754491213
 10
-28.50899021727049
 20
-121.89552740854953
 10
-28.265576522364785
 20
-121.34899229282118
 10
-28.014595449137623
 20
-120.8072164226025
 10
-27.75611419129126
 20
-120.27034484439449
 10
-27.49020195050872
 20
-119.73852129170069
 10
-27.216929917926862
 20
-119.21188814654616
 10
-26.936371255076747
 20
-118.69058640135827
 10
-26.64860107429658
 20
-118.1747556212197
 10
-26.353696418622295
 20
-117.6645339065036
 10
-26.051736241161276
 20
-117.16005785590062
 10
-25.742801383954678
 20
-116.66146252984811
 10
-25.42697455633409
 20
-116.16888141437136
 10
-25.10434031277825
 20
-115.68244638534603
 10
-24.774985030275722
 20
-115.20228767319179
 10
-24.43899688519975
 20
-114.72853382800659
 10
-24.096465829701234
 20
-114.26131168515053
 10
-23.747483567626443
 20
-113.8007463312891
 10
-23.39214352996564
 20
-113.34696107090443
 10
-23.030540849839326
 20
-112.9000773932836
 10
-22.66277233702886
 20
-112.4602149399932
 10
-22.288936452058064
 20
-112.0274914728482
 10
-21.909133279833032
 20
-111.6020228423844
 10
-21.523464502846945
 20
-111.18392295684237
 10
-21.13203337395721
 20
-110.7733037516715
 10
-20.734944688742182
 20
-110.37027515956217
 10
-20.33230475744485
 20
-109.97494508101406
 10
-19.924221376511
 20
-109.58741935544859
 10
-19.5108037997295
 20
-109.20780173287324
 10
-19.092162708982507
 20
-108.83619384610503
 10
-18.668410184613062
 20
-108.47269518356106
 10
-18.239659675418697
 20
-108.11740306262305
 10
-17.806025968278274
 20
-107.77041260358303
 10
-17.3676251574208
 20
-107.43181670417738
 10
-16.924574613344312
 20
-107.10170601471597
 10
-16.476992951392756
 20
-106.7801689138127
 10
-16.025000000000013
 20
-106.46729148472454
 10
-15.56871676860872
 20
-106.16315749230495
 10
-15.10826541527323
 20
-105.86784836057782
 10
-14.643769213954998
 20
-105.58144315093864
 10
-14.175352521518992
 20
-105.30401854098756
 10
-13.703140744440551
 20
-105.03564880400094
 10
-13.227260305230873
 20
-104.77640578904692
 10
-12.74783860859071
 20
-104.52635890174923
 10
-12.265004007301144
 20
-104.285575085706
 10
-11.77888576786025
 20
-104.05411880456711
 10
-11.289614035875546
 20
-103.83205202477586
 10
-10.797319801220675
 20
-103.61943419897898
 10
-10.302134862966335
 20
-103.41632225010972
 10
-9.804191794094555
 20
-103.22277055614816
 10
-9.303623906005521
 20
-103.03883093556311
 10
-8.800565212827093
 20
-102.86455263343876
 10
-8.295150395535813
 20
-102.69998230829083
 10
-7.787514765899615
 20
-102.54516401957477
 10
-7.277794230251679
 20
-102.40013921589016
 10
-6.766125253104862
 20
-102.26494672388375
 10
-6.252644820616923
 20
-102.13962273785472
 10
-5.7374904039161
 20
-102.02420081006457
 10
-5.2207999222965755
 20
-101.91871184175443
 10
-4.7027117062943615
 20
-101.82318407487185
 10
-4.183364460652682
 20
-101.73764308450998
 10
-3.6628972271874387
 20
-101.66211177206046
 10
-3.1414493475624408
 20
-101.59661035908198
 10
-2.619160425984073
 20
-101.54115638188671
 10
-2.0961702918261027
 20
-101.49576468684526
 10
-1.572618962193776
 20
-101.460447426412
 10
-1.048646604437937
 20
-101.43521405587157
 10
-0.5243934986289244
 20
-101.42007133080742
 10
0.0
 20
-101.4150233052932
 10
0.5243934986288842
 20
-101.42007133080742
 10
1.0486466044378968
 20
-101.43521405587157
 10
1.5726189621937359
 20
-101.460447426412
 10
2.0961702918260627
 20
-101.49576468684526
 10
2.619160425984061
 20
-101.54115638188671
 10
3.141449347562401
 20
-101.59661035908198
 10
3.6628972271873987
 20
-101.66211177206043
 10
4.183364460652642
 20
-101.73764308450998
 10
4.7027117062943224
 20
-101.82318407487182
 10
5.220799922296564
 20
-101.91871184175443
 10
5.737490403916061
 20
-102.02420081006457
 10
6.252644820616883
 20
-102.13962273785472
 10
6.766125253104822
 20
-102.26494672388372
 10
7.27779423025164
 20
-102.40013921589016
 10
7.787514765899603
 20
-102.54516401957477
 10
8.295150395535774
 20
-102.6999823082908
 10
8.800565212827054
 20
-102.86455263343876
 10
9.303623906005509
 20
-103.03883093556311
 10
9.804191794094518
 20
-103.22277055614816
 10
10.302134862966325
 20
-103.41632225010969
 10
10.797319801220638
 20
-103.61943419897898
 10
11.289614035875507
 20
-103.83205202477586
 10
11.778885767860238
 20
-104.05411880456711
 10
12.265004007301107
 20
-104.28557508570597
 10
12.747838608590673
 20
-104.52635890174923
 10
13.227260305230837
 20
-104.77640578904689
 10
13.703140744440516
 20
-105.03564880400094
 10
14.175352521518981
 20
-105.30401854098753
 10
14.643769213954963
 20
-105.58144315093861
 10
15.108265415273197
 20
-105.8678483605778
 10
15.568716768608684
 20
-106.16315749230489
 10
16.024999999999977
 20
-106.46729148472454
 10
16.47699295139275
 20
-106.7801689138127
 10
16.924574613344273
 20
-107.10170601471594
 10
17.367625157420765
 20
-107.43181670417735
 10
17.806025968278238
 20
-107.770412603583
 10
18.239659675418665
 20
-108.11740306262303
 10
18.66841018461305
 20
-108.47269518356106
 10
19.092162708982475
 20
-108.83619384610498
 10
19.51080379972947
 20
-109.20780173287318
 10
19.924221376510967
 20
-109.58741935544856
 10
20.332304757444817
 20
-109.97494508101403
 10
20.73494468874217
 20
-110.37027515956217
 10
21.13203337395719
 20
-110.7733037516715
 10
21.523464502846913
 20
-111.18392295684234
 10
21.909133279833014
 20
-111.60202284238437
 10
22.288936452058035
 20
-112.02749147284817
 10
22.66277233702884
 20
-112.46021493999316
 10
23.03054084983931
 20
-112.90007739328357
 10
23.39214352996561
 20
-113.3469610709044
 10
23.74748356762643
 20
-113.80074633128908
 10
24.09646582970121
 20
-114.2613116851505
 10
24.43899688519973
 20
-114.72853382800656
 10
24.774985030275708
 20
-115.20228767319176
 10
25.104340312778223
 20
-115.682446385346
 10
25.426974556334077
 20
-116.16888141437133
 10
25.742801383954653
 20
-116.66146252984808
 10
26.05173624116126
 20
-117.16005785590059
 10
26.353696418622278
 20
-117.6645339065036
 10
26.648601074296558
 20
-118.17475562121967
 10
26.936371255076732
 20
-118.69058640135822
 10
27.21692991792684
 20
-119.21188814654613
 10
27.490201950508702
 20
-119.73852129170066
 10
27.756114191291246
 20
-120.27034484439446
 10
28.014595449137605
 20
-120.80721642260244
 10
28.26557652236477
 20
-121.34899229282115
 10
28.508990217270473
 20
-121.89552740854947
 10
28.74477136612264
 20
-122.44667544912127
 10
28.972856844606348
 20
-123.00228885887881
 10
29.193185588723672
 20
-123.56221888667707
 10
29.40569861114209
 20
-124.12631562570809
 10
29.61033901698673
 20
-124.69442805363437
 10
29.807052019072575
 20
-125.2664040730215
 10
29.99578495257228
 20
-125.84209055205832
 10
30.176487289115805
 20
-126.42133336555372
 10
30.34911065031813
 20
-127.00397743619993
 10
30.513608820731264
 20
-127.58986677609039
 10
30.669937760217284
 20
-128.17884452848145
 10
30.818055615738924
 20
-128.7707530097869
 10
30.95792273256463
 20
-129.36543375179335
 10
31.08950166488513
 20
-129.96272754408628
 10
31.212757185838537
 20
-130.56247447667442
 10
31.32765629694147
 20
-131.1645139828015
 10
31.43416823692353
 20
-131.76868488193392
 10
31.532264489962824
 20
-132.37482542291252
 10
31.62191879332037
 20
-132.98277332725755
 10
31.703107144371224
 20
-133.59236583261426
 10
31.775807807030617
 20
-134.20343973632848
 10
31.84000131757319
 20
-134.81583143913994
 10
31.895670489843905
 20
-135.42937698898155
 10
31.942800419859225
 20
-136.04391212487366
 10
31.98137848979724
 20
-136.65927232090024
 10
32.01139437137577
 20
-137.27529283025694
 10
32.032840028617514
 20
-137.89180872935756
 10
32.045709720001454
 20
-138.50865496198793
 10
32.05
 20
-139.12566638349574
 10
32.05
 20
-147.0
 10
32.045709720001454
 20
-147.61701142150778
 10
32.032840028617514
 20
-148.23385765413815
 10
32.01139437137577
 20
-148.85037355323877
 10
31.98137848979724
 20
-149.4663940625955
 10
31.942800419859225
 20
-150.08175425862208
 10
31.89567048984391
 20
-150.69628939451417
 10
31.84000131757319
 20
-151.30983494435577
 10
31.77580780703062
 20
-151.92222664716724
 10
31.703107144371227
 20
-152.53330055088145
 10
31.62191879332037
 20
-153.1428930562382
 10
31.532264489962827
 20
-153.7508409605832
 10
31.434168236923533
 20
-154.35698150156182
 10
31.327656296941477
 20
-154.9611524006942
 10
31.21275718583854
 20
-155.5631919068213
 10
31.08950166488513
 20
-156.1629388394094
 10
30.957922732564636
 20
-156.76023263170237
 10
30.818055615738928
 20
-157.35491337370883
 10
30.66993776021729
 20
-157.94682185501426
 10
30.51360882073127
 20
-158.53579960740535
 10
30.349110650318135
 20
-159.1216889472958
 10
30.176487289115816
 20
-159.704333017942
 10
29.995784952572286
 20
-160.28357583143736
 10
29.80705201907259
 20
-160.85926231047415
 10
29.61033901698674
 20
-161.43123832986134
 10
29.405698611142096
 20
-161.99935075778765
 10
29.193185588723683
 20
-162.56344749681864
 10
28.972856844606355
 20
-163.1233775246169
 10
28.74477136612266
 20
-163.67899093437444
 10
28.508990217270483
 20
-164.23013897494624
 10
28.26557652236478
 20
-164.77667409067456
 10
28.01459544913762
 20
-165.31844996089328
 10
27.756114191291257
 20
-165.85532153910128
 10
27.49020195050872
 20
-166.38714509179505
 10
27.21692991792685
 20
-166.9137782369496
 10
26.93637125507674
 20
-167.43507998213747
 10
26.64860107429657
 20
-167.95091076227604
 10
26.353696418622288
 20
-168.46113247699213
 10
26.051736241161265
 20
-168.96560852759515
 10
25.742801383954667
 20
-169.46420385364763
 10
25.426974556334088
 20
-169.9567849691244
 10
25.104340312778245
 20
-170.44321999814974
 10
24.77498503027572
 20
-170.92337871030395
 10
24.43899688519974
 20
-171.39713255548918
 10
24.096465829701224
 20
-171.8643546983452
 10
23.747483567626436
 20
-172.32492005220664
 10
23.392143529965633
 20
-172.7787053125913
 10
23.030540849839323
 20
-173.22558899021215
 10
22.662772337028848
 20
-173.66545144350258
 10
22.288936452058053
 20
-174.09817491064757
 10
21.909133279833025
 20
-174.52364354111137
 10
21.523464502846938
 20
-174.94174342665337
 10
21.132033373957206
 20
-175.35236263182423
 10
20.734944688742182
 20
-175.75539122393357
 10
20.332304757444838
 20
-176.1507213024817
 10
19.924221376510978
 20
-176.53824702804718
 10
19.510803799729494
 20
-176.9178646506225
 10
19.092162708982492
 20
-177.2894725373907
 10
18.668410184613062
 20
-177.65297119993465
 10
18.23965967541869
 20
-178.0082633208727
 10
17.806025968278256
 20
-178.35525377991274
 10
17.367625157420793
 20
-178.69384967931833
 10
16.924574613344298
 20
-179.02396036877977
 10
16.47699295139276
 20
-179.34549746968304
 10
16.025000000000002
 20
-179.6583748987712
 10
15.568716768608699
 20
-179.96250889119085
 10
15.108265415273229
 20
-180.25781802291792
 10
14.643769213954982
 20
-180.5442232325571
 10
14.175352521518995
 20
-180.82164784250818
 10
13.703140744440542
 20
-181.0900175794948
 10
13.227260305230857
 20
-181.34926059444882
 10
12.747838608590706
 20
-181.5993074817465
 10
12.265004007301128
 20
-181.84009129778974
 10
11.778885767860253
 20
-182.07154757892863
 10
11.289614035875536
 20
-182.29361435871988
 10
10.79731980122066
 20
-182.50623218451676
 10
10.302134862966332
 20
-182.70934413338603
 10
9.804191794094539
 20
-182.90289582734758
 10
9.303623906005523
 20
-183.08683544793263
 10
8.800565212827083
 20
-183.26111375005698
 10
8.295150395535796
 20
-183.42568407520494
 10
7.78751476589961
 20
-183.58050236392094
 10
7.2777942302516685
 20
-183.72552716760558
 10
6.766125253104837
 20
-183.86071965961202
 10
6.252644820616912
 20
-183.98604364564102
 10
5.737490403916082
 20
-184.10146557343114
 10
5.220799922296571
 20
-184.2069545417413
 10
4.702711706294351
 20
-184.3024823086239
 10
4.183364460652657
 20
-184.38802329898576
 10
3.662897227187435
 20
-184.46355461143528
 10
3.1414493475624226
 20
-184.52905602441376
 10
2.619160425984069
 20
-184.58451000160903
 10
2.0961702918260916
 20
-184.62990169665048
 10
1.5726189621937507
 20
-184.66521895708374
 10
1.048646604437933
 20
-184.69045232762414
 10
0.5243934986289063
 20
-184.70559505268835
 10
0.0
 20
-184.71064307820257
  0
TEXT
  5
95
330
17
100
AcDbEntity
  8
NOTAS
100
AcDbText
 10
-75.0
 20
-253.0
 30
0.0
 40
4.0
  1
05 Ala de la gin pole - Al6061-T6 12,7mm - cantidad 1 - MEDIDAS EN MILIMETROS
 11
-75.0
 21
-253.0
 31
0.0
100
AcDbText
  0
ENDSEC
  0
SECTION
  2
OBJECTS
  0
DICTIONARY
  5
A
330
0
100
AcDbDictionary
281
1
  3
ACAD_COLOR
350
B
  3
ACAD_GROUP
350
C
  3
ACAD_LAYOUT
350
D
  3
ACAD_MATERIAL
350
E
  3
ACAD_MLEADERSTYLE
350
F
  3
ACAD_MLINESTYLE
350
10
  3
ACAD_PLOTSETTINGS
350
11
  3
ACAD_PLOTSTYLENAME
350
12
  3
ACAD_SCALELIST
350
14
  3
ACAD_TABLESTYLE
350
15
  3
ACAD_VISUALSTYLE
350
16
  3
EZDXF_META
350
2D
  0
DICTIONARY
  5
B
330
A
100
AcDbDictionary
281
1
  0
DICTIONARY
  5
C
330
A
100
AcDbDictionary
281
1
  0
DICTIONARY
  5
D
330
A
100
AcDbDictionary
281
1
  3
Model
350
1A
  3
Layout1
350
1E
  0
DICTIONARY
  5
E
330
A
100
AcDbDictionary
281
1
  3
ByBlock
350
1F
  3
ByLayer
350
20
  3
Global
350
21
  0
DICTIONARY
  5
F
330
A
100
AcDbDictionary
281
1
  3
Standard
350
2C
  0
DICTIONARY
  5
10
330
A
100
AcDbDictionary
281
1
  3
Standard
350
22
  0
DICTIONARY
  5
11
330
A
100
AcDbDictionary
281
1
  0
ACDBDICTIONARYWDFLT
  5
12
330
A
100
AcDbDictionary
281
1
  3
Normal
350
13
100
AcDbDictionaryWithDefault
340
13
  0
ACDBPLACEHOLDER
  5
13
330
12
  0
DICTIONARY
  5
14
330
A
100
AcDbDictionary
281
1
  0
DICTIONARY
  5
15
330
A
100
AcDbDictionary
281
1
  0
DICTIONARY
  5
16
330
A
100
AcDbDictionary
281
1
  3
2dWireframe
350
5A
  3
Basic
350
5B
  3
Brighten
350
5C
  3
ColorChange
350
5D
  3
Conceptual
350
5E
  3
Dim
350
5F
  3
EdgeColorOff
350
60
  3
Facepattern
350
61
  3
Flat
350
62
  3
FlatWithEdges
350
63
  3
Gouraud
350
64
  3
GouraudWithEdges
350
65
  3
Hidden
350
66
  3
JitterOff
350
67
  3
Linepattern
350
68
  3
Modeling
350
69
  3
OverhangOff
350
6A
  3
Realistic
350
6B
  3
Shaded
350
6C
  3
Shaded with edges
350
6D
  3
Shades of Gray
350
6E
  3
Sketchy
350
6F
  3
Thicken
350
70
  3
Wireframe
350
71
  3
X-Ray
350
72
  0
LAYOUT
  5
1A
330
D
100
AcDbPlotSettings
  1

  4
A3
  6

 40
7.5
 41
20.0
 42
7.5
 43
20.0
 44
420.0
 45
297.0
 46
0.0
 47
0.0
 48
0.0
 49
0.0
140
0.0
141
0.0
142
1.0
143
1.0
 70
1024
 72
1
 73
0
 74
5
  7

 75
16
 76
0
 77
2
 78
300
147
1.0
148
0.0
149
0.0
100
AcDbLayout
  1
Model
 70
1
 71
0
 10
0.0
 20
0.0
 11
420.0
 21
297.0
 12
0.0
 22
0.0
 32
0.0
 14
1e+20
 24
1e+20
 34
1e+20
 15
-1e+20
 25
-1e+20
 35
-1e+20
146
0.0
 13
0.0
 23
0.0
 33
0.0
 16
1.0
 26
0.0
 36
0.0
 17
0.0
 27
1.0
 37
0.0
 76
1
330
17
  0
LAYOUT
  5
1E
330
D
100
AcDbPlotSettings
  1

  4
A3
  6

 40
7.5
 41
20.0
 42
7.5
 43
20.0
 44
420.0
 45
297.0
 46
0.0
 47
0.0
 48
0.0
 49
0.0
140
0.0
141
0.0
142
1.0
143
1.0
 70
0
 72
1
 73
0
 74
5
  7

 75
16
 76
0
 77
2
 78
300
147
1.0
148
0.0
149
0.0
100
AcDbLayout
  1
Layout1
 70
1
 71
1
 10
0.0
 20
0.0
 11
420.0
 21
297.0
 12
0.0
 22
0.0
 32
0.0
 14
1e+20
 24
1e+20
 34
1e+20
 15
-1e+20
 25
-1e+20
 35
-1e+20
146
0.0
 13
0.0
 23
0.0
 33
0.0
 16
1.0
 26
0.0
 36
0.0
 17
0.0
 27
1.0
 37
0.0
 76
1
330
1B
  0
MATERIAL
  5
1F
102
{ACAD_REACTORS
330
E
102
}
330
E
100
AcDbMaterial
  1
ByBlock
  2

 70
0
 40
1.0
 71
1
 41
1.0
 91
-1023410177
 42
1.0
 72
1
  3

 73
1
 74
1
 75
1
 44
0.5
 73
0
 45
1.0
 46
1.0
 77
1
  4

 78
1
 79
1
170
1
 48
1.0
171
1
  6

172
1
173
1
174
1
140
1.0
141
1.0
175
1
  7

176
1
177
1
178
1
143
1.0
179
1
  8

270
1
271
1
272
1
145
1.0
146
1.0
273
1
  9

274
1
275
1
276
1
 42
1.0
 72
1
  3

 73
1
 74
1
 75
1
 94
63
  0
MATERIAL
  5
20
102
{ACAD_REACTORS
330
E
102
}
330
E
100
AcDbMaterial
  1
ByLayer
  2

 70
0
 40
1.0
 71
1
 41
1.0
 91
-1023410177
 42
1.0
 72
1
  3

 73
1
 74
1
 75
1
 44
0.5
 73
0
 45
1.0
 46
1.0
 77
1
  4

 78
1
 79
1
170
1
 48
1.0
171
1
  6

172
1
173
1
174
1
140
1.0
141
1.0
175
1
  7

176
1
177
1
178
1
143
1.0
179
1
  8

270
1
271
1
272
1
145
1.0
146
1.0
273
1
  9

274
1
275
1
276
1
 42
1.0
 72
1
  3

 73
1
 74
1
 75
1
 94
63
  0
MATERIAL
  5
21
102
{ACAD_REACTORS
330
E
102
}
330
E
100
AcDbMaterial
  1
Global
  2

 70
0
 40
1.0
 71
1
 41
1.0
 91
-1023410177
 42
1.0
 72
1
  3

 73
1
 74
1
 75
1
 44
0.5
 73
0
 45
1.0
 46
1.0
 77
1
  4

 78
1
 79
1
170
1
 48
1.0
171
1
  6

172
1
173
1
174
1
140
1.0
141
1.0
175
1
  7

176
1
177
1
178
1
143
1.0
179
1
  8

270
1
271
1
272
1
145
1.0
146
1.0
273
1
  9

274
1
275
1
276
1
 42
1.0
 72
1
  3

 73
1
 74
1
 75
1
 94
63
  0
MLINESTYLE
  5
22
102
{ACAD_REACTORS
330
10
102
}
330
10
100
AcDbMlineStyle
  2
Standard
 70
0
  3

 62
256
 51
90.0
 52
90.0
 71
2
 49
0.5
 62
256
  6
BYLAYER
 49
-0.5
 62
256
  6
BYLAYER
  0
MLEADERSTYLE
  5
2C
102
{ACAD_REACTORS
330
F
102
}
330
F
100
AcDbMLeaderStyle
179
2
170
2
171
1
172
0
 90
2
 40
0.0
 41
0.0
173
1
 91
-1056964608
 92
-2
290
1
 42
2.0
291
1
 43
8.0
  3
Standard
 44
4.0
300

342
29
174
1
175
1
176
0
178
1
 93
-1056964608
 45
4.0
292
0
297
0
 46
4.0
 94
-1056964608
 47
1.0
 49
1.0
140
1.0
294
1
141
0.0
177
0
142
1.0
295
0
296
0
143
3.75
271
0
272
9
273
9
  0
DICTIONARY
  5
2D
330
A
100
AcDbDictionary
280
1
281
1
  3
CREATED_BY_EZDXF
350
2E
  3
WRITTEN_BY_EZDXF
350
98
  0
DICTIONARYVAR
  5
2E
330
2D
100
DictionaryVariables
280
0
  1
1.4.4 @ 2026-09-26T07:24:05.012279+00:00
  0
VISUALSTYLE
  5
5A
102
{ACAD_REACTORS
330
16
102
}
330
16
100
AcDbVisualStyle
  2
2dWireframe
 70
4
 90
0
 40
0.6
 62
7
290
0
291
0
  0
VISUALSTYLE
  5
5B
102
{ACAD_REACTORS
330
16
102
}
330
16
100
AcDbVisualStyle
  2
Basic
 70
7
 90
1
 40
0.6
 62
7
290
0
291
1
  0
VISUALSTYLE
  5
5C
102
{ACAD_REACTORS
330
16
102
}
330
16
100
AcDbVisualStyle
  2
Brighten
 70
12
 90
2
 40
0.6
 62
7
290
0
291
1
  0
VISUALSTYLE
  5
5D
102
{ACAD_REACTORS
330
16
102
}
330
16
100
AcDbVisualStyle
  2
ColorChange
 70
16
 90
2
 40
0.6
 62
8
290
0
291
1
  0
VISUALSTYLE
  5
5E
102
{ACAD_REACTORS
330
16
102
}
330
16
100
AcDbVisualStyle
  2
Conceptual
 70
9
 90
3
 40
0.6
 62
7
290
0
291
0
  0
VISUALSTYLE
  5
5F
102
{ACAD_REACTORS
330
16
102
}
330
16
100
AcDbVisualStyle
  2
Dim
 70
11
 90
2
 40
0.6
 62
7
290
0
291
1
  0
VISUALSTYLE
  5
60
102
{ACAD_REACTORS
330
16
102
}
330
16
100
AcDbVisualStyle
  2
EdgeColorOff
 70
22
 90
2
 40
0.6
 62
7
290
0
291
1
  0
VISUALSTYLE
  5
61
102
{ACAD_REACTORS
330
16
102
}
330
16
100
AcDbVisualStyle
  2
Facepattern
 70
15
 90
2
 40
0.6
 62
7
290
0
291
1
  0
VISUALSTYLE
  5
62
102
{ACAD_REACTORS
330
16
102
}
330
16
100
AcDbVisualStyle
  2
Flat
 70
0
 90
2
 40
0.6
 62
7
290
0
291
1
  0
VISUALSTYLE
  5
63
102
{ACAD_REACTORS
330
16
102
}
330
16
100
AcDbVisualStyle
  2
FlatWithEdges
 70
1
 90
2
 40
0.6
 62
7
290
0
291
1
  0
VISUALSTYLE
  5
64
102
{ACAD_REACTORS
330
16
102
}
330
16
100
AcDbVisualStyle
  2
Gouraud
 70
2
 90
2
 40
0.6
 62
7
290
0
291
1
  0
VISUALSTYLE
  5
65
102
{ACAD_REACTORS
330
16
102
}
330
16
100
AcDbVisualStyle
  2
GouraudWithEdges
 70
3
 90
2
 40
0.6
 62
7
290
0
291
1
  0
VISUALSTYLE
  5
66
102
{ACAD_REACTORS
330
16
102
}
330
16
100
AcDbVisualStyle
  2
Hidden
 70
6
 90
1
 40
0.6
 62
7
290
0
291
0
  0
VISUALSTYLE
  5
67
102
{ACAD_REACTORS
330
16
102
}
330
16
100
AcDbVisualStyle
  2
JitterOff
 70
20
 90
2
 40
0.6
 62
7
290
0
291
1
  0
VISUALSTYLE
  5
68
102
{ACAD_REACTORS
330
16
102
}
330
16
100
AcDbVisualStyle
  2
Linepattern
 70
14
 90
2
 40
0.6
 62
7
290
0
291
1
  0
VISUALSTYLE
  5
69
102
{ACAD_REACTORS
330
16
102
}
330
16
100
AcDbVisualStyle
  2
Modeling
 70
10
 90
2
 40
0.6
 62
7
290
0
291
0
  0
VISUALSTYLE
  5
6A
102
{ACAD_REACTORS
330
16
102
}
330
16
100
AcDbVisualStyle
  2
OverhangOff
 70
21
 90
2
 40
0.6
 62
7
290
0
291
1
  0
VISUALSTYLE
  5
6B
102
{ACAD_REACTORS
330
16
102
}
330
16
100
AcDbVisualStyle
  2
Realistic
 70
8
 90
2
 40
0.6
 62
7
290
0
291
0
  0
VISUALSTYLE
  5
6C
102
{ACAD_REACTORS
330
16
102
}
330
16
100
AcDbVisualStyle
  2
Shaded
 70
27
 90
2
 40
0.6
 62
7
290
0
291
0
  0
VISUALSTYLE
  5
6D
102
{ACAD_REACTORS
330
16
102
}
330
16
100
AcDbVisualStyle
  2
Shaded with edges
 70
26
 90
2
 40
0.6
 62
7
290
0
291
0
  0
VISUALSTYLE
  5
6E
102
{ACAD_REACTORS
330
16
102
}
330
16
100
AcDbVisualStyle
  2
Shades of Gray
 70
23
 90
2
 40
0.6
 62
7
290
0
291
0
  0
VISUALSTYLE
  5
6F
102
{ACAD_REACTORS
330
16
102
}
330
16
100
AcDbVisualStyle
  2
Sketchy
 70
24
 90
1
 40
0.6
 62
7
290
0
291
0
  0
VISUALSTYLE
  5
70
102
{ACAD_REACTORS
330
16
102
}
330
16
100
AcDbVisualStyle
  2
Thicken
 70
13
 90
2
 40
0.6
 62
7
290
0
291
1
  0
VISUALSTYLE
  5
71
102
{ACAD_REACTORS
330
16
102
}
330
16
100
AcDbVisualStyle
  2
Wireframe
 70
5
 90
0
 40
0.6
 62
7
290
0
291
0
  0
VISUALSTYLE
  5
72
102
{ACAD_REACTORS
330
16
102
}
330
16
100
AcDbVisualStyle
  2
X-Ray
 70
25
 90
2
 40
0.5
 62
7
290
0
291
0
  0
DICTIONARYVAR
  5
98
330
2D
100
DictionaryVariables
280
0
  1
1.4.4 @ 2026-09-26T07:24:05.023484+00:00
  0
ENDSEC
  0
EOF
