  0
SECTION
  2
HEADER
  9
$ACADVER
  1
AC1024
  9
$ACADMAINTVER
 70
6
  9
$DWGCODEPAGE
  3
ANSI_1252
  9
$LASTSAVEDBY
  1
ezdxf
  9
$INSBASE
 10
0.0
 20
0.0
 30
0.0
  9
$EXTMIN
 10
1e+20
 20
1e+20
 30
1e+20
  9
$EXTMAX
 10
-1e+20
 20
-1e+20
 30
-1e+20
  9
$LIMMIN
 10
0.0
 20
0.0
  9
$LIMMAX
 10
420.0
 20
297.0
  9
$ORTHOMODE
 70
0
  9
$REGENMODE
 70
1
  9
$FILLMODE
 70
1
  9
$QTEXTMODE
 70
0
  9
$MIRRTEXT
 70
1
  9
$LTSCALE
 40
1.0
  9
$ATTMODE
 70
1
  9
$TEXTSIZE
 40
2.5
  9
$TRACEWID
 40
1.0
  9
$TEXTSTYLE
  7
OpenSans
  9
$CLAYER
  8
0
  9
$CELTYPE
  6
ByLayer
  9
$CECOLOR
 62
256
  9
$CELTSCALE
 40
1.0
  9
$DISPSILH
 70
0
  9
$DIMSCALE
 40
1.0
  9
$DIMASZ
 40
0.175
  9
$DIMEXO
 40
0.125
  9
$DIMDLI
 40
3.75
  9
$DIMRND
 40
0.0
  9
$DIMDLE
 40
0.0
  9
$DIMEXE
 40
0.375
  9
$DIMTP
 40
0.0
  9
$DIMTM
 40
0.0
  9
$DIMTXT
 40
0.25
  9
$DIMCEN
 40
2.5
  9
$DIMTSZ
 40
0.0
  9
$DIMTOL
 70
0
  9
$DIMLIM
 70
0
  9
$DIMTIH
 70
0
  9
$DIMTOH
 70
0
  9
$DIMSE1
 70
0
  9
$DIMSE2
 70
0
  9
$DIMTAD
 70
1
  9
$DIMZIN
 70
12
  9
$DIMBLK
  1
ARCHTICK
  9
$DIMASO
 70
1
  9
$DIMSHO
 70
1
  9
$DIMPOST
  1

  9
$DIMAPOST
  1

  9
$DIMALT
 70
0
  9
$DIMALTD
 70
3
  9
$DIMALTF
 40
0.03937007874
  9
$DIMLFAC
 40
100.0
  9
$DIMTOFL
 70
1
  9
$DIMTVP
 40
0.0
  9
$DIMTIX
 70
0
  9
$DIMSOXD
 70
0
  9
$DIMSAH
 70
0
  9
$DIMBLK1
  1

  9
$DIMBLK2
  1

  9
$DIMSTYLE
  2
EZDXF
  9
$DIMCLRD
 70
0
  9
$DIMCLRE
 70
0
  9
$DIMCLRT
 70
0
  9
$DIMTFAC
 40
0.5
  9
$DIMGAP
 40
0.1
  9
$DIMJUST
 70
0
  9
$DIMSD1
 70
0
  9
$DIMSD2
 70
0
  9
$DIMTOLJ
 70
0
  9
$DIMTZIN
 70
8
  9
$DIMALTZ
 70
0
  9
$DIMALTTZ
 70
0
  9
$DIMUPT
 70
1
  9
$DIMDEC
 70
2
  9
$DIMTDEC
 70
2
  9
$DIMALTU
 70
2
  9
$DIMALTTD
 70
3
  9
$DIMTXSTY
  7
OpenSansCondensed-Light
  9
$DIMAUNIT
 70
0
  9
$DIMADEC
 70
2
  9
$DIMALTRND
 40
0.0
  9
$DIMAZIN
 70
3
  9
$DIMDSEP
 70
46
  9
$DIMATFIT
 70
3
  9
$DIMFRAC
 70
0
  9
$DIMLDRBLK
  1

  9
$DIMLUNIT
 70
2
  9
$DIMLWD
 70
-2
  9
$DIMLWE
 70
-2
  9
$DIMTMOVE
 70
2
  9
$DIMFXL
 40
1.0
  9
$DIMFXLON
 70
0
  9
$DIMJOGANG
 40
0.785398163397
  9
$DIMTFILL
 70
0
  9
$DIMTFILLCLR
 70
0
  9
$DIMARCSYM
 70
0
  9
$DIMLTYPE
  6

  9
$DIMLTEX1
  6

  9
$DIMLTEX2
  6

  9
$DIMTXTDIRECTION
 70
0
  9
$LUNITS
 70
2
  9
$LUPREC
 70
4
  9
$SKETCHINC
 40
1.0
  9
$FILLETRAD
 40
10.0
  9
$AUNITS
 70
0
  9
$AUPREC
 70
2
  9
$MENU
  1
.
  9
$ELEVATION
 40
0.0
  9
$PELEVATION
 40
0.0
  9
$THICKNESS
 40
0.0
  9
$LIMCHECK
 70
0
  9
$CHAMFERA
 40
0.0
  9
$CHAMFERB
 40
0.0
  9
$CHAMFERC
 40
0.0
  9
$CHAMFERD
 40
0.0
  9
$SKPOLY
 70
0
  9
$TDCREATE
 40
2461310.3127430556
  9
$TDUCREATE
 40
2458532.153996898
  9
$TDUPDATE
 40
2461310.3127430556
  9
$TDUUPDATE
 40
2458532.1544311
  9
$TDINDWG
 40
0.0
  9
$TDUSRTIMER
 40
0.0
  9
$USRTIMER
 70
1
  9
$ANGBASE
 50
0.0
  9
$ANGDIR
 70
0
  9
$PDMODE
 70
0
  9
$PDSIZE
 40
0.0
  9
$PLINEWID
 40
0.0
  9
$SPLFRAME
 70
0
  9
$SPLINETYPE
 70
6
  9
$SPLINESEGS
 70
8
  9
$HANDSEED
  5
9A
  9
$SURFTAB1
 70
6
  9
$SURFTAB2
 70
6
  9
$SURFTYPE
 70
6
  9
$SURFU
 70
6
  9
$SURFV
 70
6
  9
$UCSBASE
  2

  9
$UCSNAME
  2

  9
$UCSORG
 10
0.0
 20
0.0
 30
0.0
  9
$UCSXDIR
 10
1.0
 20
0.0
 30
0.0
  9
$UCSYDIR
 10
0.0
 20
1.0
 30
0.0
  9
$UCSORTHOREF
  2

  9
$UCSORTHOVIEW
 70
0
  9
$UCSORGTOP
 10
0.0
 20
0.0
 30
0.0
  9
$UCSORGBOTTOM
 10
0.0
 20
0.0
 30
0.0
  9
$UCSORGLEFT
 10
0.0
 20
0.0
 30
0.0
  9
$UCSORGRIGHT
 10
0.0
 20
0.0
 30
0.0
  9
$UCSORGFRONT
 10
0.0
 20
0.0
 30
0.0
  9
$UCSORGBACK
 10
0.0
 20
0.0
 30
0.0
  9
$PUCSBASE
  2

  9
$PUCSNAME
  2

  9
$PUCSORG
 10
0.0
 20
0.0
 30
0.0
  9
$PUCSXDIR
 10
1.0
 20
0.0
 30
0.0
  9
$PUCSYDIR
 10
0.0
 20
1.0
 30
0.0
  9
$PUCSORTHOREF
  2

  9
$PUCSORTHOVIEW
 70
0
  9
$PUCSORGTOP
 10
0.0
 20
0.0
 30
0.0
  9
$PUCSORGBOTTOM
 10
0.0
 20
0.0
 30
0.0
  9
$PUCSORGLEFT
 10
0.0
 20
0.0
 30
0.0
  9
$PUCSORGRIGHT
 10
0.0
 20
0.0
 30
0.0
  9
$PUCSORGFRONT
 10
0.0
 20
0.0
 30
0.0
  9
$PUCSORGBACK
 10
0.0
 20
0.0
 30
0.0
  9
$USERI1
 70
0
  9
$USERI2
 70
0
  9
$USERI3
 70
0
  9
$USERI4
 70
0
  9
$USERI5
 70
0
  9
$USERR1
 40
0.0
  9
$USERR2
 40
0.0
  9
$USERR3
 40
0.0
  9
$USERR4
 40
0.0
  9
$USERR5
 40
0.0
  9
$WORLDVIEW
 70
1
  9
$SHADEDGE
 70
3
  9
$SHADEDIF
 70
70
  9
$TILEMODE
 70
1
  9
$MAXACTVP
 70
64
  9
$PINSBASE
 10
0.0
 20
0.0
 30
0.0
  9
$PLIMCHECK
 70
0
  9
$PEXTMIN
 10
1e+20
 20
1e+20
 30
1e+20
  9
$PEXTMAX
 10
-1e+20
 20
-1e+20
 30
-1e+20
  9
$PLIMMIN
 10
0.0
 20
0.0
  9
$PLIMMAX
 10
420.0
 20
297.0
  9
$UNITMODE
 70
0
  9
$VISRETAIN
 70
1
  9
$PLINEGEN
 70
0
  9
$PSLTSCALE
 70
1
  9
$TREEDEPTH
 70
3020
  9
$CMLSTYLE
  2
Standard
  9
$CMLJUST
 70
0
  9
$CMLSCALE
 40
20.0
  9
$PROXYGRAPHICS
 70
1
  9
$MEASUREMENT
 70
1
  9
$CELWEIGHT
370
-1
  9
$ENDCAPS
280
0
  9
$JOINSTYLE
280
0
  9
$LWDISPLAY
290
0
  9
$INSUNITS
 70
4
  9
$HYPERLINKBASE
  1

  9
$STYLESHEET
  1

  9
$XEDIT
290
1
  9
$CEPSNTYPE
380
0
  9
$PSTYLEMODE
290
1
  9
$FINGERPRINTGUID
  2
{C8C552FE-183D-40D3-9436-08CC55E4382B}
  9
$VERSIONGUID
  2
{EE2E8E20-296B-44E7-BB0F-6A11647A8D90}
  9
$EXTNAMES
290
1
  9
$PSVPSCALE
 40
0.0
  9
$OLESTARTUP
290
0
  9
$SORTENTS
280
127
  9
$INDEXCTL
280
0
  9
$HIDETEXT
280
1
  9
$XCLIPFRAME
280
1
  9
$HALOGAP
280
0
  9
$OBSCOLOR
 70
257
  9
$OBSLTYPE
280
0
  9
$INTERSECTIONDISPLAY
280
0
  9
$INTERSECTIONCOLOR
 70
257
  9
$DIMASSOC
280
2
  9
$PROJECTNAME
  1

  9
$CAMERADISPLAY
290
0
  9
$LENSLENGTH
 40
50.0
  9
$CAMERAHEIGHT
 40
0.0
  9
$STEPSPERSEC
 40
24.0
  9
$STEPSIZE
 40
100.0
  9
$3DDWFPREC
 40
2.0
  9
$PSOLWIDTH
 40
0.005
  9
$PSOLHEIGHT
 40
0.08
  9
$LOFTANG1
 40
1.570796326795
  9
$LOFTANG2
 40
1.570796326795
  9
$LOFTMAG1
 40
0.0
  9
$LOFTMAG2
 40
0.0
  9
$LOFTPARAM
 70
7
  9
$LOFTNORMALS
280
1
  9
$LATITUDE
 40
37.795
  9
$LONGITUDE
 40
-122.394
  9
$NORTHDIRECTION
 40
0.0
  9
$TIMEZONE
 70
-8000
  9
$LIGHTGLYPHDISPLAY
280
1
  9
$TILEMODELIGHTSYNCH
280
1
  9
$CMATERIAL
347
20
  9
$SOLIDHIST
280
0
  9
$SHOWHIST
280
1
  9
$DWFFRAME
280
2
  9
$DGNFRAME
280
2
  9
$REALWORLDSCALE
290
1
  9
$INTERFERECOLOR
 62
256
  9
$CSHADOW
280
0
  9
$SHADOWPLANELOCATION
 40
0.0
  0
ENDSEC
  0
SECTION
  2
CLASSES
  0
CLASS
  1
ACDBDICTIONARYWDFLT
  2
AcDbDictionaryWithDefault
  3
ObjectDBX Classes
 90
0
 91
0
280
0
281
0
  0
CLASS
  1
SUN
  2
AcDbSun
  3
SCENEOE
 90
1153
 91
0
280
0
281
0
  0
CLASS
  1
VISUALSTYLE
  2
AcDbVisualStyle
  3
ObjectDBX Classes
 90
4095
 91
0
280
0
281
0
  0
CLASS
  1
MATERIAL
  2
AcDbMaterial
  3
ObjectDBX Classes
 90
1153
 91
0
280
0
281
0
  0
CLASS
  1
SCALE
  2
AcDbScale
  3
ObjectDBX Classes
 90
1153
 91
0
280
0
281
0
  0
CLASS
  1
TABLESTYLE
  2
AcDbTableStyle
  3
ObjectDBX Classes
 90
4095
 91
0
280
0
281
0
  0
CLASS
  1
MLEADERSTYLE
  2
AcDbMLeaderStyle
  3
ACDB_MLEADERSTYLE_CLASS
 90
4095
 91
0
280
0
281
0
  0
CLASS
  1
DICTIONARYVAR
  2
AcDbDictionaryVar
  3
ObjectDBX Classes
 90
0
 91
0
280
0
281
0
  0
CLASS
  1
CELLSTYLEMAP
  2
AcDbCellStyleMap
  3
ObjectDBX Classes
 90
1152
 91
0
280
0
281
0
  0
CLASS
  1
MENTALRAYRENDERSETTINGS
  2
AcDbMentalRayRenderSettings
  3
SCENEOE
 90
1024
 91
0
280
0
281
0
  0
CLASS
  1
ACDBDETAILVIEWSTYLE
  2
AcDbDetailViewStyle
  3
ObjectDBX Classes
 90
1025
 91
0
280
0
281
0
  0
CLASS
  1
ACDBSECTIONVIEWSTYLE
  2
AcDbSectionViewStyle
  3
ObjectDBX Classes
 90
1025
 91
0
280
0
281
0
  0
CLASS
  1
RASTERVARIABLES
  2
AcDbRasterVariables
  3
ISM
 90
0
 91
0
280
0
281
0
  0
CLASS
  1
ACDBPLACEHOLDER
  2
AcDbPlaceHolder
  3
ObjectDBX Classes
 90
0
 91
0
280
0
281
0
  0
CLASS
  1
LAYOUT
  2
AcDbLayout
  3
ObjectDBX Classes
 90
0
 91
0
280
0
281
0
  0
ENDSEC
  0
SECTION
  2
TABLES
  0
TABLE
  2
VPORT
  5
8
330
0
100
AcDbSymbolTable
 70
1
  0
VPORT
  5
23
330
8
100
AcDbSymbolTableRecord
100
AcDbViewportTableRecord
  2
*Active
 70
0
 10
0.0
 20
0.0
 11
1.0
 21
1.0
 12
0.0
 22
0.0
 13
0.0
 23
0.0
 14
0.5
 24
0.5
 15
0.5
 25
0.5
 16
0.0
 26
0.0
 36
1.0
 17
0.0
 27
0.0
 37
0.0
 40
1000.0
 41
1.34
 42
50.0
 43
0.0
 44
0.0
 50
0.0
 51
0.0
 71
0
 72
1000
 73
1
 74
3
 75
0
 76
0
 77
0
 78
0
281
0
 65
0
146
0.0
  0
ENDTAB
  0
TABLE
  2
LTYPE
  5
2
330
0
100
AcDbSymbolTable
 70
21
  0
LTYPE
  5
24
330
2
100
AcDbSymbolTableRecord
100
AcDbLinetypeTableRecord
  2
ByBlock
 70
0
  3

 72
65
 73
0
 40
0.0
  0
LTYPE
  5
25
330
2
100
AcDbSymbolTableRecord
100
AcDbLinetypeTableRecord
  2
ByLayer
 70
0
  3

 72
65
 73
0
 40
0.0
  0
LTYPE
  5
26
330
2
100
AcDbSymbolTableRecord
100
AcDbLinetypeTableRecord
  2
Continuous
 70
0
  3

 72
65
 73
0
 40
0.0
  0
LTYPE
  5
2F
330
2
100
AcDbSymbolTableRecord
100
AcDbLinetypeTableRecord
  2
CENTER
 70
0
  3
Center ____ _ ____ _ ____ _ ____ _ ____ _ ____
 72
65
 73
4
 40
5.08
 49
3.175
 74
0
 49
-0.635
 74
0
 49
0.635
 74
0
 49
-0.635
 74
0
  0
LTYPE
  5
30
330
2
100
AcDbSymbolTableRecord
100
AcDbLinetypeTableRecord
  2
CENTERX2
 70
0
  3
Center (2x) ________  __  ________  __  ________
 72
65
 73
4
 40
8.89
 49
6.35
 74
0
 49
-0.635
 74
0
 49
1.27
 74
0
 49
-0.635
 74
0
  0
LTYPE
  5
31
330
2
100
AcDbSymbolTableRecord
100
AcDbLinetypeTableRecord
  2
CENTER2
 70
0
  3
Center (.5x) ____ _ ____ _ ____ _ ____ _ ____
 72
65
 73
4
 40
2.54
 49
1.587
 74
0
 49
-0.318
 74
0
 49
0.318
 74
0
 49
-0.318
 74
0
  0
LTYPE
  5
32
330
2
100
AcDbSymbolTableRecord
100
AcDbLinetypeTableRecord
  2
DASHED
 70
0
  3
Dashed __ __ __ __ __ __ __ __ __ __ __ __ __ _
 72
65
 73
2
 40
1.524
 49
1.27
 74
0
 49
-0.254
 74
0
  0
LTYPE
  5
33
330
2
100
AcDbSymbolTableRecord
100
AcDbLinetypeTableRecord
  2
DASHEDX2
 70
0
  3
Dashed (2x) ____  ____  ____  ____  ____  ____
 72
65
 73
2
 40
3.048
 49
2.54
 74
0
 49
-0.508
 74
0
  0
LTYPE
  5
34
330
2
100
AcDbSymbolTableRecord
100
AcDbLinetypeTableRecord
  2
DASHED2
 70
0
  3
Dashed (.5x) _ _ _ _ _ _ _ _ _ _ _ _ _ _
 72
65
 73
2
 40
0.762
 49
0.635
 74
0
 49
-0.127
 74
0
  0
LTYPE
  5
35
330
2
100
AcDbSymbolTableRecord
100
AcDbLinetypeTableRecord
  2
PHANTOM
 70
0
  3
Phantom ______  __  __  ______  __  __  ______
 72
65
 73
6
 40
6.35
 49
3.175
 74
0
 49
-0.635
 74
0
 49
0.635
 74
0
 49
-0.635
 74
0
 49
0.635
 74
0
 49
-0.635
 74
0
  0
LTYPE
  5
36
330
2
100
AcDbSymbolTableRecord
100
AcDbLinetypeTableRecord
  2
PHANTOMX2
 70
0
  3
Phantom (2x)____________    ____    ____    ____________
 72
65
 73
6
 40
10.795
 49
6.35
 74
0
 49
-0.635
 74
0
 49
1.27
 74
0
 49
-0.635
 74
0
 49
1.27
 74
0
 49
-0.635
 74
0
  0
LTYPE
  5
37
330
2
100
AcDbSymbolTableRecord
100
AcDbLinetypeTableRecord
  2
PHANTOM2
 70
0
  3
Phantom (.5x) ___ _ _ ___ _ _ ___ _ _ ___ _ _ ___
 72
65
 73
6
 40
3.175
 49
1.587
 74
0
 49
-0.318
 74
0
 49
0.318
 74
0
 49
-0.318
 74
0
 49
0.318
 74
0
 49
-0.318
 74
0
  0
LTYPE
  5
38
330
2
100
AcDbSymbolTableRecord
100
AcDbLinetypeTableRecord
  2
DASHDOT
 70
0
  3
Dash dot __ . __ . __ . __ . __ . __ . __ . __
 72
65
 73
4
 40
3.556
 49
2.54
 74
0
 49
-0.508
 74
0
 49
0.0
 74
0
 49
-0.508
 74
0
  0
LTYPE
  5
39
330
2
100
AcDbSymbolTableRecord
100
AcDbLinetypeTableRecord
  2
DASHDOTX2
 70
0
  3
Dash dot (2x) ____  .  ____  .  ____  .  ____
 72
65
 73
4
 40
6.096
 49
5.08
 74
0
 49
-0.508
 74
0
 49
0.0
 74
0
 49
-0.508
 74
0
  0
LTYPE
  5
3A
330
2
100
AcDbSymbolTableRecord
100
AcDbLinetypeTableRecord
  2
DASHDOT2
 70
0
  3
Dash dot (.5x) _ . _ . _ . _ . _ . _ . _ . _
 72
65
 73
4
 40
1.778
 49
1.27
 74
0
 49
-0.254
 74
0
 49
0.0
 74
0
 49
-0.254
 74
0
  0
LTYPE
  5
3B
330
2
100
AcDbSymbolTableRecord
100
AcDbLinetypeTableRecord
  2
DOT
 70
0
  3
Dot .  .  .  .  .  .  .  .  .  .  .  .  .  .  .  .
 72
65
 73
2
 40
0.508
 49
0.0
 74
0
 49
-0.508
 74
0
  0
LTYPE
  5
3C
330
2
100
AcDbSymbolTableRecord
100
AcDbLinetypeTableRecord
  2
DOTX2
 70
0
  3
Dot (2x) .    .    .    .    .    .    .    . 
 72
65
 73
2
 40
1.016
 49
0.0
 74
0
 49
-1.016
 74
0
  0
LTYPE
  5
3D
330
2
100
AcDbSymbolTableRecord
100
AcDbLinetypeTableRecord
  2
DOT2
 70
0
  3
Dot (.5) . . . . . . . . . . . . . . . . . . . 
 72
65
 73
2
 40
0.254
 49
0.0
 74
0
 49
-0.254
 74
0
  0
LTYPE
  5
3E
330
2
100
AcDbSymbolTableRecord
100
AcDbLinetypeTableRecord
  2
DIVIDE
 70
0
  3
Divide __ . . __ . . __ . . __ . . __ . . __
 72
65
 73
6
 40
4.064
 49
2.54
 74
0
 49
-0.508
 74
0
 49
0.0
 74
0
 49
-0.508
 74
0
 49
0.0
 74
0
 49
-0.508
 74
0
  0
LTYPE
  5
3F
330
2
100
AcDbSymbolTableRecord
100
AcDbLinetypeTableRecord
  2
DIVIDEX2
 70
0
  3
Divide (2x) ____  . .  ____  . .  ____  . .  ____
 72
65
 73
6
 40
6.604
 49
5.08
 74
0
 49
-0.508
 74
0
 49
0.0
 74
0
 49
-0.508
 74
0
 49
0.0
 74
0
 49
-0.508
 74
0
  0
LTYPE
  5
40
330
2
100
AcDbSymbolTableRecord
100
AcDbLinetypeTableRecord
  2
DIVIDE2
 70
0
  3
Divide(.5x) _ . _ . _ . _ . _ . _ . _ . _
 72
65
 73
6
 40
2.032
 49
1.27
 74
0
 49
-0.254
 74
0
 49
0.0
 74
0
 49
-0.254
 74
0
 49
0.0
 74
0
 49
-0.254
 74
0
  0
ENDTAB
  0
TABLE
  2
LAYER
  5
1
330
0
100
AcDbSymbolTable
 70
4
  0
LAYER
  5
27
330
1
100
AcDbSymbolTableRecord
100
AcDbLayerTableRecord
  2
0
 70
0
 62
7
  6
Continuous
370
-3
390
13
347
21
  0
LAYER
  5
28
330
1
100
AcDbSymbolTableRecord
100
AcDbLayerTableRecord
  2
Defpoints
 70
0
 62
7
  6
Continuous
290
0
370
-3
390
13
347
21
  0
LAYER
  5
8A
330
1
100
AcDbSymbolTableRecord
100
AcDbLayerTableRecord
  2
CORTE
 70
0
 62
1
  6
Continuous
370
-3
390
13
347
21
  0
LAYER
  5
8B
330
1
100
AcDbSymbolTableRecord
100
AcDbLayerTableRecord
  2
NOTAS
 70
0
 62
3
  6
Continuous
370
-3
390
13
347
21
  0
ENDTAB
  0
TABLE
  2
STYLE
  5
5
330
0
100
AcDbSymbolTable
 70
26
  0
STYLE
  5
29
330
5
100
AcDbSymbolTableRecord
100
AcDbTextStyleTableRecord
  2
Standard
 70
0
 40
0.0
 41
1.0
 50
0.0
 71
0
 42
2.5
  3
txt
  4

  0
STYLE
  5
41
330
5
100
AcDbSymbolTableRecord
100
AcDbTextStyleTableRecord
  2
OpenSans-Light
 70
0
 40
0.0
 41
1.0
 50
0.0
 71
0
 42
2.5
  3
OpenSans-Light.ttf
  4

  0
STYLE
  5
42
330
5
100
AcDbSymbolTableRecord
100
AcDbTextStyleTableRecord
  2
OpenSans-Light-Italic
 70
0
 40
0.0
 41
1.0
 50
0.0
 71
0
 42
2.5
  3
OpenSans-LightItalic.ttf
  4

  0
STYLE
  5
43
330
5
100
AcDbSymbolTableRecord
100
AcDbTextStyleTableRecord
  2
OpenSans
 70
0
 40
0.0
 41
1.0
 50
0.0
 71
0
 42
2.5
  3
OpenSans-Regular.ttf
  4

  0
STYLE
  5
44
330
5
100
AcDbSymbolTableRecord
100
AcDbTextStyleTableRecord
  2
OpenSans-Italic
 70
0
 40
0.0
 41
1.0
 50
0.0
 71
0
 42
2.5
  3
OpenSans-Italic.ttf
  4

  0
STYLE
  5
45
330
5
100
AcDbSymbolTableRecord
100
AcDbTextStyleTableRecord
  2
OpenSans-SemiBold
 70
0
 40
0.0
 41
1.0
 50
0.0
 71
0
 42
2.5
  3
OpenSans-SemiBold.ttf
  4

  0
STYLE
  5
46
330
5
100
AcDbSymbolTableRecord
100
AcDbTextStyleTableRecord
  2
OpenSans-SemiBoldItalic
 70
0
 40
0.0
 41
1.0
 50
0.0
 71
0
 42
2.5
  3
OpenSans-SemiBoldItalic.ttf
  4

  0
STYLE
  5
47
330
5
100
AcDbSymbolTableRecord
100
AcDbTextStyleTableRecord
  2
OpenSans-Bold
 70
0
 40
0.0
 41
1.0
 50
0.0
 71
0
 42
2.5
  3
OpenSans-Bold.ttf
  4

  0
STYLE
  5
48
330
5
100
AcDbSymbolTableRecord
100
AcDbTextStyleTableRecord
  2
OpenSans-BoldItalic
 70
0
 40
0.0
 41
1.0
 50
0.0
 71
0
 42
2.5
  3
OpenSans-BoldItalic.ttf
  4

  0
STYLE
  5
49
330
5
100
AcDbSymbolTableRecord
100
AcDbTextStyleTableRecord
  2
OpenSans-ExtraBold
 70
0
 40
0.0
 41
1.0
 50
0.0
 71
0
 42
2.5
  3
OpenSans-ExtraBold.ttf
  4

  0
STYLE
  5
4A
330
5
100
AcDbSymbolTableRecord
100
AcDbTextStyleTableRecord
  2
OpenSans-ExtraBoldItalic
 70
0
 40
0.0
 41
1.0
 50
0.0
 71
0
 42
2.5
  3
OpenSans-ExtraBoldItalic.ttf
  4

  0
STYLE
  5
4B
330
5
100
AcDbSymbolTableRecord
100
AcDbTextStyleTableRecord
  2
OpenSansCondensed-Bold
 70
0
 40
0.0
 41
1.0
 50
0.0
 71
0
 42
2.5
  3
OpenSansCondensed-Bold.ttf
  4

  0
STYLE
  5
4C
330
5
100
AcDbSymbolTableRecord
100
AcDbTextStyleTableRecord
  2
OpenSansCondensed-Light
 70
0
 40
0.0
 41
1.0
 50
0.0
 71
0
 42
2.5
  3
OpenSansCondensed-Light.ttf
  4

  0
STYLE
  5
4D
330
5
100
AcDbSymbolTableRecord
100
AcDbTextStyleTableRecord
  2
OpenSansCondensed-Italic
 70
0
 40
0.0
 41
1.0
 50
0.0
 71
0
 42
2.5
  3
OpenSansCondensed-LightItalic.ttf
  4

  0
STYLE
  5
4E
330
5
100
AcDbSymbolTableRecord
100
AcDbTextStyleTableRecord
  2
LiberationSans
 70
0
 40
0.0
 41
1.0
 50
0.0
 71
0
 42
2.5
  3
LiberationSans-Regular.ttf
  4

  0
STYLE
  5
4F
330
5
100
AcDbSymbolTableRecord
100
AcDbTextStyleTableRecord
  2
LiberationSans-Bold
 70
0
 40
0.0
 41
1.0
 50
0.0
 71
0
 42
2.5
  3
LiberationSans-Bold.ttf
  4

  0
STYLE
  5
50
330
5
100
AcDbSymbolTableRecord
100
AcDbTextStyleTableRecord
  2
LiberationSans-BoldItalic
 70
0
 40
0.0
 41
1.0
 50
0.0
 71
0
 42
2.5
  3
LiberationSans-BoldItalic.ttf
  4

  0
STYLE
  5
51
330
5
100
AcDbSymbolTableRecord
100
AcDbTextStyleTableRecord
  2
LiberationSans-Italic
 70
0
 40
0.0
 41
1.0
 50
0.0
 71
0
 42
2.5
  3
LiberationSans-Italic.ttf
  4

  0
STYLE
  5
52
330
5
100
AcDbSymbolTableRecord
100
AcDbTextStyleTableRecord
  2
LiberationSerif
 70
0
 40
0.0
 41
1.0
 50
0.0
 71
0
 42
2.5
  3
LiberationSerif-Regular.ttf
  4

  0
STYLE
  5
53
330
5
100
AcDbSymbolTableRecord
100
AcDbTextStyleTableRecord
  2
LiberationSerif-Bold
 70
0
 40
0.0
 41
1.0
 50
0.0
 71
0
 42
2.5
  3
LiberationSerif-Bold.ttf
  4

  0
STYLE
  5
54
330
5
100
AcDbSymbolTableRecord
100
AcDbTextStyleTableRecord
  2
LiberationSerif-BoldItalic
 70
0
 40
0.0
 41
1.0
 50
0.0
 71
0
 42
2.5
  3
LiberationSerif-BoldItalic.ttf
  4

  0
STYLE
  5
55
330
5
100
AcDbSymbolTableRecord
100
AcDbTextStyleTableRecord
  2
LiberationSerif-Italic
 70
0
 40
0.0
 41
1.0
 50
0.0
 71
0
 42
2.5
  3
LiberationSerif-Italic.ttf
  4

  0
STYLE
  5
56
330
5
100
AcDbSymbolTableRecord
100
AcDbTextStyleTableRecord
  2
LiberationMono
 70
0
 40
0.0
 41
1.0
 50
0.0
 71
0
 42
2.5
  3
LiberationMono-Regular.ttf
  4

  0
STYLE
  5
57
330
5
100
AcDbSymbolTableRecord
100
AcDbTextStyleTableRecord
  2
LiberationMono-Bold
 70
0
 40
0.0
 41
1.0
 50
0.0
 71
0
 42
2.5
  3
LiberationMono-Bold.ttf
  4

  0
STYLE
  5
58
330
5
100
AcDbSymbolTableRecord
100
AcDbTextStyleTableRecord
  2
LiberationMono-BoldItalic
 70
0
 40
0.0
 41
1.0
 50
0.0
 71
0
 42
2.5
  3
LiberationMono-BoldItalic.ttf
  4

  0
STYLE
  5
59
330
5
100
AcDbSymbolTableRecord
100
AcDbTextStyleTableRecord
  2
LiberationMono-Italic
 70
0
 40
0.0
 41
1.0
 50
0.0
 71
0
 42
2.5
  3
LiberationMono-Italic.ttf
  4

  0
ENDTAB
  0
TABLE
  2
VIEW
  5
7
330
0
100
AcDbSymbolTable
 70
0
  0
ENDTAB
  0
TABLE
  2
UCS
  5
6
330
0
100
AcDbSymbolTable
 70
0
  0
ENDTAB
  0
TABLE
  2
APPID
  5
3
330
0
100
AcDbSymbolTable
 70
3
  0
APPID
  5
2A
330
3
100
AcDbSymbolTableRecord
100
AcDbRegAppTableRecord
  2
ACAD
 70
0
  0
APPID
  5
97
330
3
100
AcDbSymbolTableRecord
100
AcDbRegAppTableRecord
  2
HATCHBACKGROUNDCOLOR
 70
0
  0
APPID
  5
98
330
3
100
AcDbSymbolTableRecord
100
AcDbRegAppTableRecord
  2
EZDXF
 70
0
  0
ENDTAB
  0
TABLE
  2
DIMSTYLE
  5
4
330
0
100
AcDbSymbolTable
 70
12
100
AcDbDimStyleTable
  0
DIMSTYLE
105
2B
330
4
100
AcDbSymbolTableRecord
100
AcDbDimStyleTableRecord
  2
Standard
 70
0
 40
1.0
 41
2.5
 42
0.625
 43
3.75
 44
1.25
 45
0.0
 46
0.0
 47
0.0
 48
0.0
 49
2.5
140
2.5
141
2.5
142
0.0
143
0.03937007874
144
1.0
145
0.0
146
1.0
147
0.625
148
0.0
 69
0
 70
0
 71
0
 72
0
 73
0
 74
0
 75
0
 76
0
 77
1
 78
8
 79
3
170
0
171
3
172
1
173
0
174
0
175
0
176
0
177
0
178
0
179
2
271
2
272
2
273
2
274
3
275
0
276
0
277
2
278
44
279
0
280
0
281
0
282
0
283
0
284
8
285
0
286
0
288
0
289
3
290
0
371
-2
372
-2
  0
DIMSTYLE
105
73
330
4
100
AcDbSymbolTableRecord
100
AcDbDimStyleTableRecord
  2
EZDXF
 70
0
 40
1.0
 41
0.175
 42
0.125
 43
3.75
 44
0.375
 45
0.0
 46
0.0
 47
0.0
 48
0.0
 49
2.5
140
0.25
141
2.5
142
0.0
143
0.03937007874
144
100.0
145
0.0
146
0.5
147
0.1
148
0.0
 69
0
 70
0
 71
0
 72
0
 73
0
 74
0
 75
0
 76
0
 77
1
 78
12
 79
3
170
0
171
3
172
1
173
0
174
0
175
0
176
0
177
0
178
0
179
2
271
2
272
2
273
2
274
3
275
0
276
0
277
2
278
46
279
2
280
0
281
0
282
0
283
0
284
8
285
0
286
0
288
1
289
3
290
0
340
4C
342
74
371
-2
372
-2
  0
DIMSTYLE
105
7C
330
4
100
AcDbSymbolTableRecord
100
AcDbDimStyleTableRecord
  2
EZ_M_100_H25_CM
 70
0
 40
1.0
 41
0.25
 42
0.125
 43
3.75
 44
0.375
 45
0.0
 46
0.0
 47
0.0
 48
0.0
 49
2.5
140
0.25
141
2.5
142
0.125
143
0.03937007874
144
100.0
145
0.0
146
0.5
147
0.1
148
0.0
 69
0
 70
0
 71
0
 72
0
 73
0
 74
0
 75
0
 76
0
 77
1
 78
12
 79
3
170
0
171
3
172
1
173
0
174
0
175
0
176
0
177
0
178
0
179
2
271
2
272
2
273
2
274
3
275
0
276
0
277
2
278
46
279
2
280
0
281
0
282
0
283
0
284
8
285
0
286
0
288
1
289
3
290
0
340
4C
371
-2
372
-2
  0
DIMSTYLE
105
7D
330
4
100
AcDbSymbolTableRecord
100
AcDbDimStyleTableRecord
  2
EZ_M_50_H25_CM
 70
0
 40
1.0
 41
0.125
 42
0.0625
 43
3.75
 44
0.1875
 45
0.0
 46
0.0
 47
0.0
 48
0.0
 49
2.5
140
0.125
141
2.5
142
0.0625
143
0.03937007874
144
100.0
145
0.0
146
0.5
147
0.05
148
0.0
 69
0
 70
0
 71
0
 72
0
 73
0
 74
0
 75
0
 76
0
 77
1
 78
12
 79
3
170
0
171
3
172
1
173
0
174
0
175
0
176
0
177
0
178
0
179
2
271
2
272
2
273
2
274
3
275
0
276
0
277
2
278
46
279
2
280
0
281
0
282
0
283
0
284
8
285
0
286
0
288
1
289
3
290
0
340
4C
371
-2
372
-2
  0
DIMSTYLE
105
7E
330
4
100
AcDbSymbolTableRecord
100
AcDbDimStyleTableRecord
  2
EZ_M_25_H25_CM
 70
0
 40
1.0
 41
0.0625
 42
0.03125
 43
3.75
 44
0.09375
 45
0.0
 46
0.0
 47
0.0
 48
0.0
 49
2.5
140
0.0625
141
2.5
142
0.03125
143
0.03937007874
144
100.0
145
0.0
146
0.5
147
0.025
148
0.0
 69
0
 70
0
 71
0
 72
0
 73
0
 74
0
 75
0
 76
0
 77
1
 78
12
 79
3
170
0
171
3
172
1
173
0
174
0
175
0
176
0
177
0
178
0
179
2
271
2
272
2
273
2
274
3
275
0
276
0
277
2
278
46
279
2
280
0
281
0
282
0
283
0
284
8
285
0
286
0
288
1
289
3
290
0
340
4C
371
-2
372
-2
  0
DIMSTYLE
105
7F
330
4
100
AcDbSymbolTableRecord
100
AcDbDimStyleTableRecord
  2
EZ_M_20_H25_CM
 70
0
 40
1.0
 41
0.05
 42
0.025
 43
3.75
 44
0.07500000000000001
 45
0.0
 46
0.0
 47
0.0
 48
0.0
 49
2.5
140
0.05
141
2.5
142
0.025
143
0.03937007874
144
100.0
145
0.0
146
0.5
147
0.020000000000000004
148
0.0
 69
0
 70
0
 71
0
 72
0
 73
0
 74
0
 75
0
 76
0
 77
1
 78
12
 79
3
170
0
171
3
172
1
173
0
174
0
175
0
176
0
177
0
178
0
179
2
271
2
272
2
273
2
274
3
275
0
276
0
277
2
278
46
279
2
280
0
281
0
282
0
283
0
284
8
285
0
286
0
288
1
289
3
290
0
340
4C
371
-2
372
-2
  0
DIMSTYLE
105
80
330
4
100
AcDbSymbolTableRecord
100
AcDbDimStyleTableRecord
  2
EZ_M_10_H25_CM
 70
0
 40
1.0
 41
0.025
 42
0.0125
 43
3.75
 44
0.037500000000000006
 45
0.0
 46
0.0
 47
0.0
 48
0.0
 49
2.5
140
0.025
141
2.5
142
0.0125
143
0.03937007874
144
100.0
145
0.0
146
0.5
147
0.010000000000000002
148
0.0
 69
0
 70
0
 71
0
 72
0
 73
0
 74
0
 75
0
 76
0
 77
1
 78
12
 79
3
170
0
171
3
172
1
173
0
174
0
175
0
176
0
177
0
178
0
179
2
271
2
272
2
273
2
274
3
275
0
276
0
277
2
278
46
279
2
280
0
281
0
282
0
283
0
284
8
285
0
286
0
288
1
289
3
290
0
340
4C
371
-2
372
-2
  0
DIMSTYLE
105
81
330
4
100
AcDbSymbolTableRecord
100
AcDbDimStyleTableRecord
  2
EZ_M_5_H25_CM
 70
0
 40
1.0
 41
0.0125
 42
0.00625
 43
3.75
 44
0.018750000000000003
 45
0.0
 46
0.0
 47
0.0
 48
0.0
 49
2.5
140
0.0125
141
2.5
142
0.00625
143
0.03937007874
144
100.0
145
0.0
146
0.5
147
0.005000000000000001
148
0.0
 69
0
 70
0
 71
0
 72
0
 73
0
 74
0
 75
0
 76
0
 77
1
 78
12
 79
3
170
0
171
3
172
1
173
0
174
0
175
0
176
0
177
0
178
0
179
2
271
2
272
2
273
2
274
3
275
0
276
0
277
2
278
46
279
2
280
0
281
0
282
0
283
0
284
8
285
0
286
0
288
1
289
3
290
0
340
4C
371
-2
372
-2
  0
DIMSTYLE
105
82
330
4
100
AcDbSymbolTableRecord
100
AcDbDimStyleTableRecord
  2
EZ_M_1_H25_CM
 70
0
 40
1.0
 41
0.0025
 42
0.00125
 43
3.75
 44
0.00375
 45
0.0
 46
0.0
 47
0.0
 48
0.0
 49
2.5
140
0.0025
141
2.5
142
0.00125
143
0.03937007874
144
100.0
145
0.0
146
0.5
147
0.001
148
0.0
 69
0
 70
0
 71
0
 72
0
 73
0
 74
0
 75
0
 76
0
 77
1
 78
12
 79
3
170
0
171
3
172
1
173
0
174
0
175
0
176
0
177
0
178
0
179
2
271
2
272
2
273
2
274
3
275
0
276
0
277
2
278
46
279
2
280
0
281
0
282
0
283
0
284
8
285
0
286
0
288
1
289
3
290
0
340
4C
371
-2
372
-2
  0
DIMSTYLE
105
83
330
4
100
AcDbSymbolTableRecord
100
AcDbDimStyleTableRecord
  2
EZ_RADIUS
 70
0
 40
1.0
 41
0.25
 42
0.125
 43
3.75
 44
0.375
 45
0.0
 46
0.0
 47
0.0
 48
0.0
 49
2.5
140
0.25
141
0.0
142
0.0
143
0.03937007874
144
100.0
145
0.0
146
0.5
147
0.1
148
0.0
 69
0
 70
0
 71
0
 72
0
 73
0
 74
0
 75
0
 76
0
 77
1
 78
12
 79
3
170
0
171
3
172
0
173
0
174
0
175
0
176
0
177
0
178
0
179
2
271
2
272
2
273
2
274
3
275
0
276
0
277
2
278
46
279
1
280
0
281
0
282
0
283
0
284
8
285
0
286
0
288
1
289
3
290
0
340
4C
342
84
371
-2
372
-2
  0
DIMSTYLE
105
88
330
4
100
AcDbSymbolTableRecord
100
AcDbDimStyleTableRecord
  2
EZ_RADIUS_INSIDE
 70
0
 40
1.0
 41
0.25
 42
0.125
 43
3.75
 44
0.375
 45
0.0
 46
0.0
 47
0.0
 48
0.0
 49
2.5
140
0.25
141
0.0
142
0.0
143
0.03937007874
144
100.0
145
0.0
146
0.5
147
0.1
148
0.0
 69
0
 70
0
 71
0
 72
0
 73
0
 74
0
 75
0
 76
0
 77
0
 78
12
 79
3
170
0
171
3
172
0
173
0
174
1
175
0
176
0
177
0
178
0
179
2
271
2
272
2
273
2
274
3
275
0
276
0
277
2
278
46
279
0
280
0
281
0
282
0
283
0
284
8
285
0
286
0
288
1
289
0
290
0
340
4C
342
84
371
-2
372
-2
  0
DIMSTYLE
105
89
330
4
100
AcDbSymbolTableRecord
100
AcDbDimStyleTableRecord
  2
EZ_CURVED
 70
0
 40
1.0
 41
0.25
 42
0.125
 43
3.75
 44
0.375
 45
0.0
 46
0.0
 47
0.0
 48
0.0
 49
2.5
140
0.25
141
2.5
142
0.0
143
0.03937007874
144
100.0
145
0.0
146
0.5
147
0.1
148
0.0
 69
0
 70
0
 71
0
 72
0
 73
0
 74
0
 75
0
 76
0
 77
1
 78
12
 79
2
 90
2
170
0
171
3
172
1
173
0
174
0
175
0
176
0
177
0
178
0
179
2
271
2
272
2
273
2
274
3
275
0
276
0
277
2
278
46
279
2
280
0
281
0
282
0
283
0
284
8
285
0
286
0
288
1
289
3
290
0
340
4C
371
-2
372
-2
  0
ENDTAB
  0
TABLE
  2
BLOCK_RECORD
  5
9
330
0
100
AcDbSymbolTable
 70
5
  0
BLOCK_RECORD
  5
17
330
9
100
AcDbSymbolTableRecord
100
AcDbBlockTableRecord
  2
*Model_Space
340
1A
 70
0
280
1
281
0
  0
BLOCK_RECORD
  5
1B
330
9
100
AcDbSymbolTableRecord
100
AcDbBlockTableRecord
  2
*Paper_Space
340
1E
 70
0
280
1
281
0
  0
BLOCK_RECORD
  5
74
330
9
100
AcDbSymbolTableRecord
100
AcDbBlockTableRecord
  2
_ARCHTICK
340
0
 70
0
280
1
281
0
  0
BLOCK_RECORD
  5
78
330
9
100
AcDbSymbolTableRecord
100
AcDbBlockTableRecord
  2
_CLOSEDFILLED
340
0
 70
0
280
1
281
0
  0
BLOCK_RECORD
  5
84
330
9
100
AcDbSymbolTableRecord
100
AcDbBlockTableRecord
  2
_CLOSEDBLANK
340
0
 70
0
280
1
281
0
  0
ENDTAB
  0
ENDSEC
  0
SECTION
  2
BLOCKS
  0
BLOCK
  5
18
330
17
100
AcDbEntity
  8
0
100
AcDbBlockBegin
  2
*Model_Space
 70
0
 10
0.0
 20
0.0
 30
0.0
  3
*Model_Space
  1

  0
ENDBLK
  5
19
330
17
100
AcDbEntity
  8
0
100
AcDbBlockEnd
  0
BLOCK
  5
1C
330
1B
100
AcDbEntity
  8
0
100
AcDbBlockBegin
  2
*Paper_Space
 70
0
 10
0.0
 20
0.0
 30
0.0
  3
*Paper_Space
  1

  0
ENDBLK
  5
1D
330
1B
100
AcDbEntity
  8
0
100
AcDbBlockEnd
  0
BLOCK
  5
75
330
74
100
AcDbEntity
  8
0
100
AcDbBlockBegin
  2
_ARCHTICK
 70
0
 10
0.0
 20
0.0
 30
0.0
  3
_ARCHTICK
  1

  0
LWPOLYLINE
  5
77
330
74
100
AcDbEntity
  8
0
  6
BYBLOCK
 62
0
100
AcDbPolyline
 90
2
 70
0
 43
0.15
 10
-0.5
 20
-0.5
 10
0.5
 20
0.5
  0
ENDBLK
  5
76
330
74
100
AcDbEntity
  8
0
100
AcDbBlockEnd
  0
BLOCK
  5
79
330
78
100
AcDbEntity
  8
0
100
AcDbBlockBegin
  2
_CLOSEDFILLED
 70
0
 10
0.0
 20
0.0
 30
0.0
  3
_CLOSEDFILLED
  1

  0
SOLID
  5
7B
330
78
100
AcDbEntity
  8
0
  6
BYBLOCK
 62
0
100
AcDbTrace
 10
-1.0
 20
0.16439898372402537
 30
0.0
 11
0.0
 21
0.0
 31
0.0
 12
-1.0
 22
-0.16439898372402537
 32
0.0
 13
-1.0
 23
-0.16439898372402537
 33
0.0
  0
ENDBLK
  5
7A
330
78
100
AcDbEntity
  8
0
100
AcDbBlockEnd
  0
BLOCK
  5
85
330
84
100
AcDbEntity
  8
0
100
AcDbBlockBegin
  2
_CLOSEDBLANK
 70
0
 10
0.0
 20
0.0
 30
0.0
  3
_CLOSEDBLANK
  1

  0
LWPOLYLINE
  5
87
330
84
100
AcDbEntity
  8
0
  6
BYBLOCK
 62
0
100
AcDbPolyline
 90
3
 70
1
 10
-1.0
 20
0.16439898372402537
 10
0.0
 20
0.0
 10
-1.0
 20
-0.16439898372402537
  0
ENDBLK
  5
86
330
84
100
AcDbEntity
  8
0
100
AcDbBlockEnd
  0
ENDSEC
  0
SECTION
  2
ENTITIES
  0
LWPOLYLINE
  5
8C
330
17
100
AcDbEntity
  8
CORTE
100
AcDbPolyline
 90
129
 70
1
 10
55.0
 20
0.0
 10
54.93375009128448
 20
-2.6987220880079907
 10
54.73515996697083
 20
-5.390942718125833
 10
54.40470804806296
 20
-8.070176095044896
 10
53.94319042217767
 20
-10.729967710887054
 10
53.35171892569992
 20
-13.36390989467951
 10
52.63171846527148
 20
-15.965657248995429
 10
51.784923585066146
 20
-18.528941936572103
 10
50.81337428812077
 20
-21.047588780079938
 10
49.719411121789385
 20
-23.51553013866551
 10
48.50566953915953
 20
-25.926820525429868
 10
47.175073550014964
 20
-28.27565093062719
 10
45.73082867663999
 20
-30.55636281607812
 10
44.17641423143547
 20
-32.76346174708383
 10
42.515574934950536
 20
-34.8916306290005
 10
40.75231189452275
 20
-36.93574251658601
 10
38.890872965260115
 20
-38.89087296526011
 10
36.93574251658602
 20
-40.75231189452275
 10
34.89163062900051
 20
-42.51557493495053
 10
32.76346174708384
 20
-44.176414231435466
 10
30.55636281607813
 20
-45.73082867663998
 10
28.275650930627204
 20
-47.17507355001496
 10
25.92682052542988
 20
-48.50566953915952
 10
23.51553013866552
 20
-49.719411121789385
 10
21.04758878007994
 20
-50.81337428812077
 10
18.528941936572114
 20
-51.78492358506614
 10
15.965657248995438
 20
-52.63171846527148
 10
13.36390989467952
 20
-53.35171892569992
 10
10.729967710887058
 20
-53.94319042217767
 10
8.070176095044909
 20
-54.40470804806295
 10
5.390942718125842
 20
-54.735159966970826
 10
2.698722088007997
 20
-54.93375009128448
 10
0.0
 20
-55.0
 10
-2.6987220880079783
 20
-54.93375009128448
 10
-5.390942718125824
 20
-54.73515996697083
 10
-8.07017609504489
 20
-54.40470804806296
 10
-10.729967710887038
 20
-53.94319042217768
 10
-13.3639098946795
 20
-53.35171892569993
 10
-15.965657248995418
 20
-52.63171846527149
 10
-18.528941936572096
 20
-51.784923585066146
 10
-21.047588780079924
 20
-50.81337428812078
 10
-23.515530138665504
 20
-49.71941112178939
 10
-25.926820525429854
 20
-48.50566953915954
 10
-28.27565093062719
 20
-47.175073550014964
 10
-30.556362816078106
 20
-45.73082867664
 10
-32.76346174708384
 20
-44.17641423143547
 10
-34.891630629000495
 20
-42.51557493495054
 10
-36.935742516586
 20
-40.75231189452276
 10
-38.89087296526011
 20
-38.890872965260115
 10
-40.75231189452274
 20
-36.93574251658602
 10
-42.515574934950514
 20
-34.89163062900052
 10
-44.176414231435466
 20
-32.76346174708384
 10
-45.73082867663997
 20
-30.55636281607814
 10
-47.17507355001495
 20
-28.275650930627215
 10
-48.50566953915952
 20
-25.926820525429882
 10
-49.71941112178937
 20
-23.515530138665532
 10
-50.81337428812077
 20
-21.047588780079945
 10
-51.78492358506614
 20
-18.528941936572117
 10
-52.631718465271476
 20
-15.965657248995452
 10
-53.35171892569992
 20
-13.363909894679523
 10
-53.94319042217767
 20
-10.729967710887074
 10
-54.40470804806295
 20
-8.070176095044923
 10
-54.735159966970826
 20
-5.390942718125846
 10
-54.93375009128448
 20
-2.6987220880080125
 10
-55.0
 20
0.0
 10
-54.93375009128448
 20
2.6987220880079748
 10
-54.73515996697083
 20
5.390942718125808
 10
-54.40470804806296
 20
8.070176095044888
 10
-53.94319042217768
 20
10.729967710887035
 10
-53.35171892569993
 20
13.363909894679486
 10
-52.63171846527149
 20
15.965657248995416
 10
-51.78492358506615
 20
18.52894193657208
 10
-50.813374288120784
 20
21.047588780079906
 10
-49.71941112178939
 20
23.5155301386655
 10
-48.50566953915954
 20
25.92682052542985
 10
-47.175073550014964
 20
28.275650930627187
 10
-45.73082867664
 20
30.556362816078106
 10
-44.17641423143549
 20
32.76346174708381
 10
-42.51557493495054
 20
34.89163062900049
 10
-40.75231189452276
 20
36.935742516586
 10
-38.89087296526014
 20
38.890872965260094
 10
-36.935742516586025
 20
40.75231189452274
 10
-34.891630629000524
 20
42.515574934950514
 10
-32.763461747083866
 20
44.176414231435444
 10
-30.556362816078163
 20
45.730828676639966
 10
-28.275650930627197
 20
47.17507355001496
 10
-25.926820525429882
 20
48.50566953915952
 10
-23.515530138665536
 20
49.71941112178937
 10
-21.04758878007997
 20
50.813374288120755
 10
-18.528941936572142
 20
51.784923585066124
 10
-15.965657248995434
 20
52.63171846527148
 10
-13.363909894679527
 20
53.35171892569992
 10
-10.729967710887076
 20
53.943190422177665
 10
-8.070176095044927
 20
54.40470804806295
 10
-5.390942718125873
 20
54.735159966970826
 10
-2.6987220880080405
 20
54.93375009128447
 10
0.0
 20
55.0
 10
2.698722088007971
 20
54.93375009128448
 10
5.390942718125805
 20
54.73515996697083
 10
8.070176095044859
 20
54.404708048062965
 10
10.729967710887008
 20
53.943190422177686
 10
13.363909894679507
 20
53.35171892569992
 10
15.965657248995413
 20
52.63171846527149
 10
18.528941936572078
 20
51.78492358506615
 10
21.047588780079906
 20
50.813374288120784
 10
23.515530138665476
 20
49.7194111217894
 10
25.926820525429825
 20
48.505669539159555
 10
28.275650930627187
 20
47.17507355001497
 10
30.556362816078103
 20
45.73082867664
 10
32.76346174708381
 20
44.17641423143549
 10
34.891630629000474
 20
42.51557493495056
 10
36.93574251658597
 20
40.75231189452279
 10
38.8908729652601
 20
38.89087296526012
 10
40.75231189452274
 20
36.935742516586025
 10
42.515574934950514
 20
34.891630629000524
 10
44.176414231435444
 20
32.763461747083866
 10
45.730828676639966
 20
30.556362816078163
 10
47.175073550014936
 20
28.275650930627247
 10
48.50566953915951
 20
25.926820525429886
 10
49.71941112178937
 20
23.51553013866554
 10
50.813374288120755
 20
21.047588780079973
 10
51.784923585066124
 20
18.528941936572146
 10
52.631718465271476
 20
15.965657248995484
 10
53.35171892569992
 20
13.36390989467953
 10
53.943190422177665
 20
10.72996771088708
 10
54.40470804806295
 20
8.070176095044932
 10
54.735159966970826
 20
5.390942718125877
 10
54.93375009128447
 20
2.698722088008044
 10
55.0
 20
0.0
  0
LWPOLYLINE
  5
8D
330
17
100
AcDbEntity
  8
CORTE
100
AcDbPolyline
 90
385
 70
1
 10
22.0
 20
0.0
 10
21.99705503401036
 20
-0.35995809578270915
 10
21.988220924480046
 20
-0.719819822079075
 10
21.973500036513794
 20
-1.0794888352031964
 10
21.952896311249276
 20
-1.4388688430631473
 10
21.926415264801967
 20
-1.7978636309407006
 10
21.894063986788332
 20
-2.156377087250333
 10
21.855851138427777
 20
-2.5143132292706203
 10
21.81178695022383
 20
-2.8715762288411346
 10
21.761883219225183
 20
-3.2280704380179586
 10
21.70615330586734
 20
-3.5837004146809517
 10
21.644612130395704
 20
-3.9383709480859186
 10
21.57727616887107
 20
-4.291987084354822
 10
21.504163448758582
 20
-4.644454151897233
 10
21.42529354410134
 20
-4.99567778675621
 10
21.340687570279968
 20
-5.345563957871804
 10
21.2503681783595
 20
-5.694018992255456
 10
21.154359549025163
 20
-6.040949600068511
 10
21.052687386108595
 20
-6.386262899598171
 10
20.945378909706335
 20
-6.729866442124176
 10
20.832462848892327
 20
-7.071668236669554
 10
20.713969434026456
 20
-7.411576774628841
 10
20.589930388661166
 20
-7.749501054267137
 10
20.460378921048267
 20
-8.085350605083477
 10
20.325349715248308
 20
-8.419035512031975
 10
20.18487892184481
 20
-8.750466439594241
 10
20.039004148265867
 20
-9.079554655696683
 10
19.887764448715753
 20
-9.406212055466204
 10
19.731200313719143
 20
-9.730351184818028
 10
19.569353659280832
 20
-10.051885263869254
 10
19.402267815663812
 20
-10.370728210171947
 10
19.229987515788697
 20
-10.68679466175948
 10
19.052558883257653
 20
-10.999999999999998
 10
18.870029420005988
 20
-11.310260372250877
 10
18.682447993584734
 20
-11.617492714308094
 10
18.48986482407764
 20
-11.921614772644535
 10
18.292331470655995
 20
-12.222545126431248
 10
18.089900817775053
 20
-12.520203209335762
 10
17.882627061015537
 20
-12.814509331091648
 10
17.67056569257419
 20
-13.105384698833532
 10
17.453773486407176
 20
-13.392751438191851
 10
17.232308483030312
 20
-13.676532614141701
 10
17.006229973980215
 20
-13.9566522516002
 10
16.77559848594054
 20
-14.23303535576686
 10
16.540475764537504
 20
-14.505607932201514
 10
16.3009247578091
 20
-14.774297006634404
 10
16.057009599352387
 20
-15.039030644503168
 10
15.808795591153357
 20
-15.299737970211455
 10
15.556349186104047
 20
-15.556349186104043
 10
15.299737970211456
 20
-15.808795591153356
 10
15.03903064450317
 20
-16.057009599352384
 10
14.774297006634406
 20
-16.3009247578091
 10
14.505607932201517
 20
-16.5404757645375
 10
14.233035355766866
 20
-16.775598485940538
 10
13.956652251600204
 20
-17.00622997398021
 10
13.676532614141703
 20
-17.23230848303031
 10
13.392751438191855
 20
-17.453773486407172
 10
13.105384698833536
 20
-17.670565692574186
 10
12.81450933109165
 20
-17.882627061015533
 10
12.520203209335763
 20
-18.08990081777505
 10
12.222545126431253
 20
-18.29233147065599
 10
11.921614772644539
 20
-18.489864824077635
 10
11.617492714308097
 20
-18.682447993584734
 10
11.310260372250882
 20
-18.870029420005984
 10
11.000000000000002
 20
-19.05255888325765
 10
10.686794661759482
 20
-19.229987515788693
 10
10.370728210171952
 20
-19.40226781566381
 10
10.051885263869256
 20
-19.569353659280832
 10
9.730351184818032
 20
-19.731200313719143
 10
9.406212055466208
 20
-19.887764448715753
 10
9.079554655696688
 20
-20.039004148265864
 10
8.750466439594247
 20
-20.184878921844806
 10
8.419035512031977
 20
-20.325349715248308
 10
8.085350605083482
 20
-20.460378921048267
 10
7.749501054267139
 20
-20.589930388661163
 10
7.411576774628846
 20
-20.713969434026456
 10
7.071668236669558
 20
-20.832462848892323
 10
6.729866442124178
 20
-20.945378909706335
 10
6.386262899598175
 20
-21.052687386108595
 10
6.0409496000685134
 20
-21.154359549025163
 10
5.694018992255462
 20
-21.2503681783595
 10
5.345563957871808
 20
-21.340687570279968
 10
4.995677786756216
 20
-21.42529354410134
 10
4.644454151897237
 20
-21.50416344875858
 10
4.291987084354823
 20
-21.57727616887107
 10
3.9383709480859226
 20
-21.644612130395704
 10
3.583700414680954
 20
-21.70615330586734
 10
3.2280704380179635
 20
-21.76188321922518
 10
2.8715762288411377
 20
-21.81178695022383
 10
2.5143132292706265
 20
-21.855851138427777
 10
2.1563770872503367
 20
-21.89406398678833
 10
1.7978636309407028
 20
-21.926415264801967
 10
1.438868843063152
 20
-21.952896311249276
 10
1.0794888352031988
 20
-21.973500036513794
 10
0.7198198220790805
 20
-21.988220924480046
 10
0.3599580957827126
 20
-21.99705503401036
 10
0.0
 20
-22.0
 10
-0.359958095782705
 20
-21.99705503401036
 10
-0.7198198220790729
 20
-21.988220924480046
 10
-1.0794888352031913
 20
-21.973500036513794
 10
-1.4388688430631442
 20
-21.952896311249276
 10
-1.797863630940695
 20
-21.926415264801967
 10
-2.156377087250329
 20
-21.894063986788332
 10
-2.514313229270619
 20
-21.855851138427777
 10
-2.87157622884113
 20
-21.81178695022383
 10
-3.228070438017956
 20
-21.761883219225183
 10
-3.583700414680947
 20
-21.70615330586734
 10
-3.9383709480859155
 20
-21.644612130395704
 10
-4.291987084354815
 20
-21.577276168871073
 10
-4.6444541518972295
 20
-21.504163448758582
 10
-4.995677786756208
 20
-21.42529354410134
 10
-5.3455639578718
 20
-21.340687570279968
 10
-5.694018992255454
 20
-21.2503681783595
 10
-6.0409496000685055
 20
-21.154359549025166
 10
-6.386262899598168
 20
-21.052687386108598
 10
-6.72986644212417
 20
-20.945378909706335
 10
-7.0716682366695505
 20
-20.832462848892327
 10
-7.411576774628839
 20
-20.713969434026456
 10
-7.749501054267132
 20
-20.589930388661166
 10
-8.085350605083475
 20
-20.460378921048267
 10
-8.41903551203197
 20
-20.32534971524831
 10
-8.750466439594238
 20
-20.18487892184481
 10
-9.07955465569668
 20
-20.03900414826587
 10
-9.4062120554662
 20
-19.887764448715757
 10
-9.730351184818025
 20
-19.731200313719143
 10
-10.051885263869254
 20
-19.569353659280832
 10
-10.37072821017194
 20
-19.402267815663816
 10
-10.686794661759475
 20
-19.2299875157887
 10
-10.999999999999995
 20
-19.052558883257653
 10
-11.310260372250877
 20
-18.870029420005988
 10
-11.617492714308096
 20
-18.682447993584734
 10
-11.921614772644531
 20
-18.48986482407764
 10
-12.222545126431243
 20
-18.292331470656
 10
-12.520203209335756
 20
-18.089900817775053
 10
-12.814509331091646
 20
-17.882627061015537
 10
-13.105384698833534
 20
-17.67056569257419
 10
-13.392751438191848
 20
-17.45377348640718
 10
-13.676532614141697
 20
-17.232308483030312
 10
-13.956652251600199
 20
-17.006229973980215
 10
-14.23303535576686
 20
-16.77559848594054
 10
-14.505607932201507
 20
-16.54047576453751
 10
-14.774297006634399
 20
-16.300924757809106
 10
-15.039030644503164
 20
-16.057009599352387
 10
-15.299737970211455
 20
-15.80879559115336
 10
-15.556349186104043
 20
-15.556349186104047
 10
-15.80879559115335
 20
-15.299737970211464
 10
-16.057009599352376
 20
-15.039030644503175
 10
-16.300924757809096
 20
-14.774297006634407
 10
-16.5404757645375
 20
-14.505607932201517
 10
-16.775598485940538
 20
-14.233035355766862
 10
-17.006229973980208
 20
-13.956652251600207
 10
-17.2323084830303
 20
-13.676532614141708
 10
-17.453773486407172
 20
-13.392751438191858
 10
-17.670565692574186
 20
-13.105384698833536
 10
-17.882627061015533
 20
-12.814509331091648
 10
-18.089900817775046
 20
-12.520203209335769
 10
-18.29233147065599
 20
-12.222545126431255
 10
-18.48986482407763
 20
-11.921614772644542
 10
-18.682447993584734
 20
-11.617492714308097
 10
-18.87002942000598
 20
-11.310260372250886
 10
-19.052558883257646
 20
-11.000000000000007
 10
-19.229987515788693
 20
-10.686794661759487
 10
-19.40226781566381
 20
-10.370728210171952
 10
-19.569353659280832
 20
-10.051885263869258
 10
-19.73120031371914
 20
-9.730351184818037
 10
-19.88776444871575
 20
-9.406212055466213
 10
-20.039004148265864
 20
-9.07955465569669
 10
-20.184878921844806
 20
-8.750466439594247
 10
-20.325349715248308
 20
-8.419035512031977
 10
-20.460378921048264
 20
-8.085350605083487
 10
-20.589930388661163
 20
-7.749501054267145
 10
-20.713969434026456
 20
-7.4115767746288475
 10
-20.832462848892323
 20
-7.0716682366695585
 10
-20.945378909706335
 20
-6.7298664421241785
 10
-21.05268738610859
 20
-6.386262899598181
 10
-21.154359549025163
 20
-6.040949600068519
 10
-21.2503681783595
 20
-5.6940189922554625
 10
-21.340687570279968
 20
-5.34556395787181
 10
-21.425293544101336
 20
-4.995677786756222
 10
-21.50416344875858
 20
-4.644454151897243
 10
-21.57727616887107
 20
-4.29198708435483
 10
-21.644612130395704
 20
-3.938370948085924
 10
-21.70615330586734
 20
-3.5837004146809557
 10
-21.76188321922518
 20
-3.2280704380179692
 10
-21.81178695022383
 20
-2.871576228841144
 10
-21.855851138427777
 20
-2.514313229270628
 10
-21.89406398678833
 20
-2.156377087250338
 10
-21.926415264801967
 20
-1.797863630940704
 10
-21.952896311249276
 20
-1.4388688430631584
 10
-21.973500036513794
 20
-1.079488835203205
 10
-21.988220924480046
 20
-0.7198198220790819
 10
-21.99705503401036
 20
-0.35995809578271387
 10
-22.0
 20
0.0
 10
-21.99705503401036
 20
0.3599580957826988
 10
-21.988220924480046
 20
0.7198198220790668
 10
-21.973500036513794
 20
1.07948883520319
 10
-21.952896311249276
 20
1.438868843063143
 10
-21.926415264801967
 20
1.797863630940689
 10
-21.894063986788332
 20
2.1563770872503234
 10
-21.855851138427777
 20
2.5143132292706127
 10
-21.81178695022383
 20
2.8715762288411293
 10
-21.761883219225183
 20
3.228070438017955
 10
-21.70615330586734
 20
3.5837004146809406
 10
-21.644612130395704
 20
3.9383709480859093
 10
-21.577276168871073
 20
4.2919870843548145
 10
-21.504163448758582
 20
4.644454151897229
 10
-21.42529354410134
 20
4.9956777867562066
 10
-21.340687570279968
 20
5.345563957871795
 10
-21.250368178359505
 20
5.694018992255447
 10
-21.154359549025166
 20
6.040949600068505
 10
-21.052687386108598
 20
6.386262899598166
 10
-20.945378909706335
 20
6.729866442124164
 10
-20.832462848892327
 20
7.071668236669544
 10
-20.71396943402646
 20
7.411576774628832
 10
-20.58993038866117
 20
7.749501054267131
 10
-20.460378921048267
 20
8.085350605083473
 10
-20.325349715248315
 20
8.419035512031963
 10
-20.184878921844813
 20
8.750466439594234
 10
-20.03900414826587
 20
9.079554655696677
 10
-19.887764448715757
 20
9.4062120554662
 10
-19.731200313719143
 20
9.730351184818023
 10
-19.56935365928084
 20
10.051885263869243
 10
-19.402267815663816
 20
10.37072821017194
 10
-19.2299875157887
 20
10.686794661759473
 10
-19.052558883257653
 20
10.999999999999995
 10
-18.870029420005988
 20
11.310260372250873
 10
-18.68244799358474
 20
11.617492714308085
 10
-18.489864824077642
 20
11.921614772644528
 10
-18.292331470656
 20
12.222545126431243
 10
-18.089900817775057
 20
12.520203209335756
 10
-17.882627061015544
 20
12.814509331091635
 10
-17.670565692574197
 20
13.105384698833523
 10
-17.45377348640718
 20
13.392751438191848
 10
-17.232308483030312
 20
13.676532614141697
 10
-17.006229973980215
 20
13.956652251600197
 10
-16.77559848594055
 20
14.233035355766853
 10
-16.54047576453751
 20
14.505607932201507
 10
-16.300924757809106
 20
14.774297006634399
 10
-16.05700959935239
 20
15.039030644503162
 10
-15.80879559115336
 20
15.299737970211453
 10
-15.556349186104054
 20
15.556349186104036
 10
-15.299737970211464
 20
15.80879559115335
 10
-15.039030644503175
 20
16.057009599352376
 10
-14.774297006634411
 20
16.300924757809096
 10
-14.505607932201519
 20
16.5404757645375
 10
-14.233035355766866
 20
16.775598485940538
 10
-13.956652251600211
 20
17.006229973980208
 10
-13.676532614141717
 20
17.232308483030295
 10
-13.392751438191858
 20
17.45377348640717
 10
-13.105384698833547
 20
17.67056569257418
 10
-12.81450933109165
 20
17.882627061015533
 10
-12.520203209335769
 20
18.089900817775046
 10
-12.222545126431266
 20
18.292331470655984
 10
-11.921614772644542
 20
18.48986482407763
 10
-11.617492714308108
 20
18.682447993584727
 10
-11.310260372250879
 20
18.870029420005984
 10
-11.00000000000001
 20
19.052558883257646
 10
-10.686794661759496
 20
19.229987515788686
 10
-10.370728210171952
 20
19.40226781566381
 10
-10.051885263869266
 20
19.569353659280825
 10
-9.73035118481803
 20
19.731200313719143
 10
-9.406212055466215
 20
19.88776444871575
 10
-9.0795546556967
 20
20.03900414826586
 10
-8.750466439594248
 20
20.184878921844806
 10
-8.419035512031988
 20
20.325349715248304
 10
-8.08535060508348
 20
20.460378921048267
 10
-7.749501054267147
 20
20.589930388661163
 10
-7.411576774628857
 20
20.71396943402645
 10
-7.071668236669559
 20
20.832462848892323
 10
-6.729866442124188
 20
20.945378909706328
 10
-6.386262899598174
 20
21.052687386108595
 10
-6.0409496000685206
 20
21.15435954902516
 10
-5.694018992255473
 20
21.250368178359498
 10
-5.345563957871811
 20
21.340687570279968
 10
-4.995677786756223
 20
21.425293544101336
 10
-4.6444541518972535
 20
21.504163448758575
 10
-4.2919870843548305
 20
21.577276168871066
 10
-3.938370948085935
 20
21.6446121303957
 10
-3.583700414680957
 20
21.70615330586734
 10
-3.2280704380179706
 20
21.76188321922518
 10
-2.8715762288411546
 20
21.811786950223826
 10
-2.514313229270629
 20
21.855851138427777
 10
-2.1563770872503496
 20
21.89406398678833
 10
-1.7978636309407054
 20
21.926415264801967
 10
-1.4388688430631595
 20
21.952896311249276
 10
-1.0794888352032161
 20
21.97350003651379
 10
-0.7198198220790832
 20
21.988220924480046
 10
-0.35995809578272503
 20
21.99705503401036
 10
0.0
 20
22.0
 10
0.3599580957826974
 20
21.99705503401036
 10
0.7198198220790556
 20
21.988220924480046
 10
1.0794888352031886
 20
21.973500036513794
 10
1.438868843063132
 20
21.95289631124928
 10
1.7978636309406972
 20
21.926415264801967
 10
2.156377087250322
 20
21.894063986788332
 10
2.5143132292706016
 20
21.855851138427777
 10
2.871576228841128
 20
21.81178695022383
 10
3.228070438017944
 20
21.761883219225183
 10
3.583700414680949
 20
21.70615330586734
 10
3.9383709480859084
 20
21.644612130395704
 10
4.291987084354803
 20
21.577276168871073
 10
4.644454151897227
 20
21.504163448758582
 10
4.995677786756197
 20
21.425293544101343
 10
5.345563957871803
 20
21.340687570279968
 10
5.6940189922554465
 20
21.250368178359505
 10
6.040949600068494
 20
21.154359549025166
 10
6.386262899598165
 20
21.052687386108598
 10
6.7298664421241625
 20
20.94537890970634
 10
7.071668236669552
 20
20.832462848892327
 10
7.4115767746288315
 20
20.71396943402646
 10
7.749501054267119
 20
20.589930388661173
 10
8.085350605083471
 20
20.460378921048267
 10
8.41903551203196
 20
20.325349715248315
 10
8.750466439594224
 20
20.184878921844817
 10
9.079554655696676
 20
20.03900414826587
 10
9.40621205546619
 20
19.88776444871576
 10
9.730351184818023
 20
19.731200313719146
 10
10.051885263869243
 20
19.56935365928084
 10
10.37072821017193
 20
19.40226781566382
 10
10.686794661759473
 20
19.2299875157887
 10
10.999999999999986
 20
19.05255888325766
 10
11.310260372250873
 20
18.870029420005988
 10
11.617492714308083
 20
18.68244799358474
 10
11.92161477264452
 20
18.489864824077646
 10
12.22254512643124
 20
18.292331470656
 10
12.520203209335747
 20
18.08990081777506
 10
12.814509331091642
 20
17.882627061015537
 10
13.105384698833523
 20
17.670565692574197
 10
13.392751438191837
 20
17.453773486407187
 10
13.676532614141696
 20
17.232308483030312
 10
13.956652251600188
 20
17.006229973980222
 10
14.233035355766857
 20
16.77559848594054
 10
14.505607932201505
 20
16.54047576453751
 10
14.774297006634388
 20
16.300924757809113
 10
15.039030644503162
 20
16.05700959935239
 10
15.299737970211444
 20
15.808795591153368
 10
15.556349186104041
 20
15.556349186104049
 10
15.808795591153348
 20
15.299737970211464
 10
16.05700959935237
 20
15.039030644503182
 10
16.300924757809096
 20
14.774297006634411
 10
16.540475764537494
 20
14.505607932201526
 10
16.775598485940534
 20
14.233035355766866
 10
17.006229973980208
 20
13.956652251600211
 10
17.232308483030295
 20
13.676532614141717
 10
17.45377348640717
 20
13.392751438191858
 10
17.67056569257418
 20
13.105384698833547
 10
17.882627061015533
 20
12.81450933109165
 10
18.089900817775046
 20
12.52020320933577
 10
18.292331470655984
 20
12.222545126431266
 10
18.48986482407763
 20
11.921614772644546
 10
18.682447993584727
 20
11.617492714308108
 10
18.870029420005974
 20
11.310260372250898
 10
19.052558883257646
 20
11.00000000000001
 10
19.229987515788686
 20
10.686794661759498
 10
19.402267815663805
 20
10.370728210171954
 10
19.569353659280825
 20
10.051885263869268
 10
19.731200313719132
 20
9.730351184818048
 10
19.88776444871575
 20
9.406212055466217
 10
20.03900414826586
 20
9.0795546556967
 10
20.184878921844806
 20
8.75046643959425
 10
20.325349715248304
 20
8.41903551203199
 10
20.460378921048257
 20
8.085350605083498
 10
20.589930388661163
 20
7.749501054267148
 10
20.71396943402645
 20
7.411576774628858
 10
20.832462848892323
 20
7.071668236669561
 10
20.945378909706328
 20
6.729866442124189
 10
21.052687386108587
 20
6.386262899598194
 10
21.15435954902516
 20
6.040949600068521
 10
21.250368178359498
 20
5.694018992255475
 10
21.340687570279968
 20
5.3455639578718115
 10
21.425293544101336
 20
4.995677786756224
 10
21.504163448758575
 20
4.644454151897255
 10
21.577276168871066
 20
4.291987084354832
 10
21.6446121303957
 20
3.938370948085937
 10
21.70615330586734
 20
3.5837004146809583
 10
21.76188321922518
 20
3.2280704380179723
 10
21.811786950223826
 20
2.871576228841157
 10
21.855851138427777
 20
2.5143132292706305
 10
21.89406398678833
 20
2.1563770872503505
 10
21.926415264801967
 20
1.7978636309407066
 10
21.952896311249276
 20
1.4388688430631609
 10
21.97350003651379
 20
1.0794888352032175
 10
21.988220924480046
 20
0.7198198220790846
 10
21.99705503401036
 20
0.3599580957827264
 10
22.0
 20
0.0
  0
CIRCLE
  5
8E
330
17
100
AcDbEntity
  8
CORTE
100
AcDbCircle
 10
41.57
 20
17.22
 30
0.0
 40
4.3
  0
CIRCLE
  5
8F
330
17
100
AcDbEntity
  8
CORTE
100
AcDbCircle
 10
17.22
 20
41.57
 30
0.0
 40
4.3
  0
CIRCLE
  5
90
330
17
100
AcDbEntity
  8
CORTE
100
AcDbCircle
 10
-17.22
 20
41.57
 30
0.0
 40
4.3
  0
CIRCLE
  5
91
330
17
100
AcDbEntity
  8
CORTE
100
AcDbCircle
 10
-41.57
 20
17.22
 30
0.0
 40
4.3
  0
CIRCLE
  5
92
330
17
100
AcDbEntity
  8
CORTE
100
AcDbCircle
 10
-41.57
 20
-17.22
 30
0.0
 40
4.3
  0
CIRCLE
  5
93
330
17
100
AcDbEntity
  8
CORTE
100
AcDbCircle
 10
-17.22
 20
-41.57
 30
0.0
 40
4.3
  0
CIRCLE
  5
94
330
17
100
AcDbEntity
  8
CORTE
100
AcDbCircle
 10
17.22
 20
-41.57
 30
0.0
 40
4.3
  0
CIRCLE
  5
95
330
17
100
AcDbEntity
  8
CORTE
100
AcDbCircle
 10
41.57
 20
-17.22
 30
0.0
 40
4.3
  0
TEXT
  5
96
330
17
100
AcDbEntity
  8
NOTAS
100
AcDbText
 10
-55.0
 20
-67.0
 30
0.0
 40
4.0
  1
18e Anillo de retención - acero 1045 12mm - cantidad 3 - MEDIDAS EN MILIMETROS
 11
-55.0
 21
-67.0
 31
0.0
100
AcDbText
  0
ENDSEC
  0
SECTION
  2
OBJECTS
  0
DICTIONARY
  5
A
330
0
100
AcDbDictionary
281
1
  3
ACAD_COLOR
350
B
  3
ACAD_GROUP
350
C
  3
ACAD_LAYOUT
350
D
  3
ACAD_MATERIAL
350
E
  3
ACAD_MLEADERSTYLE
350
F
  3
ACAD_MLINESTYLE
350
10
  3
ACAD_PLOTSETTINGS
350
11
  3
ACAD_PLOTSTYLENAME
350
12
  3
ACAD_SCALELIST
350
14
  3
ACAD_TABLESTYLE
350
15
  3
ACAD_VISUALSTYLE
350
16
  3
EZDXF_META
350
2D
  0
DICTIONARY
  5
B
330
A
100
AcDbDictionary
281
1
  0
DICTIONARY
  5
C
330
A
100
AcDbDictionary
281
1
  0
DICTIONARY
  5
D
330
A
100
AcDbDictionary
281
1
  3
Model
350
1A
  3
Layout1
350
1E
  0
DICTIONARY
  5
E
330
A
100
AcDbDictionary
281
1
  3
ByBlock
350
1F
  3
ByLayer
350
20
  3
Global
350
21
  0
DICTIONARY
  5
F
330
A
100
AcDbDictionary
281
1
  3
Standard
350
2C
  0
DICTIONARY
  5
10
330
A
100
AcDbDictionary
281
1
  3
Standard
350
22
  0
DICTIONARY
  5
11
330
A
100
AcDbDictionary
281
1
  0
ACDBDICTIONARYWDFLT
  5
12
330
A
100
AcDbDictionary
281
1
  3
Normal
350
13
100
AcDbDictionaryWithDefault
340
13
  0
ACDBPLACEHOLDER
  5
13
330
12
  0
DICTIONARY
  5
14
330
A
100
AcDbDictionary
281
1
  0
DICTIONARY
  5
15
330
A
100
AcDbDictionary
281
1
  0
DICTIONARY
  5
16
330
A
100
AcDbDictionary
281
1
  3
2dWireframe
350
5A
  3
Basic
350
5B
  3
Brighten
350
5C
  3
ColorChange
350
5D
  3
Conceptual
350
5E
  3
Dim
350
5F
  3
EdgeColorOff
350
60
  3
Facepattern
350
61
  3
Flat
350
62
  3
FlatWithEdges
350
63
  3
Gouraud
350
64
  3
GouraudWithEdges
350
65
  3
Hidden
350
66
  3
JitterOff
350
67
  3
Linepattern
350
68
  3
Modeling
350
69
  3
OverhangOff
350
6A
  3
Realistic
350
6B
  3
Shaded
350
6C
  3
Shaded with edges
350
6D
  3
Shades of Gray
350
6E
  3
Sketchy
350
6F
  3
Thicken
350
70
  3
Wireframe
350
71
  3
X-Ray
350
72
  0
LAYOUT
  5
1A
330
D
100
AcDbPlotSettings
  1

  4
A3
  6

 40
7.5
 41
20.0
 42
7.5
 43
20.0
 44
420.0
 45
297.0
 46
0.0
 47
0.0
 48
0.0
 49
0.0
140
0.0
141
0.0
142
1.0
143
1.0
 70
1024
 72
1
 73
0
 74
5
  7

 75
16
 76
0
 77
2
 78
300
147
1.0
148
0.0
149
0.0
100
AcDbLayout
  1
Model
 70
1
 71
0
 10
0.0
 20
0.0
 11
420.0
 21
297.0
 12
0.0
 22
0.0
 32
0.0
 14
1e+20
 24
1e+20
 34
1e+20
 15
-1e+20
 25
-1e+20
 35
-1e+20
146
0.0
 13
0.0
 23
0.0
 33
0.0
 16
1.0
 26
0.0
 36
0.0
 17
0.0
 27
1.0
 37
0.0
 76
1
330
17
  0
LAYOUT
  5
1E
330
D
100
AcDbPlotSettings
  1

  4
A3
  6

 40
7.5
 41
20.0
 42
7.5
 43
20.0
 44
420.0
 45
297.0
 46
0.0
 47
0.0
 48
0.0
 49
0.0
140
0.0
141
0.0
142
1.0
143
1.0
 70
0
 72
1
 73
0
 74
5
  7

 75
16
 76
0
 77
2
 78
300
147
1.0
148
0.0
149
0.0
100
AcDbLayout
  1
Layout1
 70
1
 71
1
 10
0.0
 20
0.0
 11
420.0
 21
297.0
 12
0.0
 22
0.0
 32
0.0
 14
1e+20
 24
1e+20
 34
1e+20
 15
-1e+20
 25
-1e+20
 35
-1e+20
146
0.0
 13
0.0
 23
0.0
 33
0.0
 16
1.0
 26
0.0
 36
0.0
 17
0.0
 27
1.0
 37
0.0
 76
1
330
1B
  0
MATERIAL
  5
1F
102
{ACAD_REACTORS
330
E
102
}
330
E
100
AcDbMaterial
  1
ByBlock
  2

 70
0
 40
1.0
 71
1
 41
1.0
 91
-1023410177
 42
1.0
 72
1
  3

 73
1
 74
1
 75
1
 44
0.5
 73
0
 45
1.0
 46
1.0
 77
1
  4

 78
1
 79
1
170
1
 48
1.0
171
1
  6

172
1
173
1
174
1
140
1.0
141
1.0
175
1
  7

176
1
177
1
178
1
143
1.0
179
1
  8

270
1
271
1
272
1
145
1.0
146
1.0
273
1
  9

274
1
275
1
276
1
 42
1.0
 72
1
  3

 73
1
 74
1
 75
1
 94
63
  0
MATERIAL
  5
20
102
{ACAD_REACTORS
330
E
102
}
330
E
100
AcDbMaterial
  1
ByLayer
  2

 70
0
 40
1.0
 71
1
 41
1.0
 91
-1023410177
 42
1.0
 72
1
  3

 73
1
 74
1
 75
1
 44
0.5
 73
0
 45
1.0
 46
1.0
 77
1
  4

 78
1
 79
1
170
1
 48
1.0
171
1
  6

172
1
173
1
174
1
140
1.0
141
1.0
175
1
  7

176
1
177
1
178
1
143
1.0
179
1
  8

270
1
271
1
272
1
145
1.0
146
1.0
273
1
  9

274
1
275
1
276
1
 42
1.0
 72
1
  3

 73
1
 74
1
 75
1
 94
63
  0
MATERIAL
  5
21
102
{ACAD_REACTORS
330
E
102
}
330
E
100
AcDbMaterial
  1
Global
  2

 70
0
 40
1.0
 71
1
 41
1.0
 91
-1023410177
 42
1.0
 72
1
  3

 73
1
 74
1
 75
1
 44
0.5
 73
0
 45
1.0
 46
1.0
 77
1
  4

 78
1
 79
1
170
1
 48
1.0
171
1
  6

172
1
173
1
174
1
140
1.0
141
1.0
175
1
  7

176
1
177
1
178
1
143
1.0
179
1
  8

270
1
271
1
272
1
145
1.0
146
1.0
273
1
  9

274
1
275
1
276
1
 42
1.0
 72
1
  3

 73
1
 74
1
 75
1
 94
63
  0
MLINESTYLE
  5
22
102
{ACAD_REACTORS
330
10
102
}
330
10
100
AcDbMlineStyle
  2
Standard
 70
0
  3

 62
256
 51
90.0
 52
90.0
 71
2
 49
0.5
 62
256
  6
BYLAYER
 49
-0.5
 62
256
  6
BYLAYER
  0
MLEADERSTYLE
  5
2C
102
{ACAD_REACTORS
330
F
102
}
330
F
100
AcDbMLeaderStyle
179
2
170
2
171
1
172
0
 90
2
 40
0.0
 41
0.0
173
1
 91
-1056964608
 92
-2
290
1
 42
2.0
291
1
 43
8.0
  3
Standard
 44
4.0
300

342
29
174
1
175
1
176
0
178
1
 93
-1056964608
 45
4.0
292
0
297
0
 46
4.0
 94
-1056964608
 47
1.0
 49
1.0
140
1.0
294
1
141
0.0
177
0
142
1.0
295
0
296
0
143
3.75
271
0
272
9
273
9
  0
DICTIONARY
  5
2D
330
A
100
AcDbDictionary
280
1
281
1
  3
CREATED_BY_EZDXF
350
2E
  3
WRITTEN_BY_EZDXF
350
99
  0
DICTIONARYVAR
  5
2E
330
2D
100
DictionaryVariables
280
0
  1
1.4.4 @ 2026-09-26T07:30:21.665825+00:00
  0
VISUALSTYLE
  5
5A
102
{ACAD_REACTORS
330
16
102
}
330
16
100
AcDbVisualStyle
  2
2dWireframe
 70
4
 90
0
 40
0.6
 62
7
290
0
291
0
  0
VISUALSTYLE
  5
5B
102
{ACAD_REACTORS
330
16
102
}
330
16
100
AcDbVisualStyle
  2
Basic
 70
7
 90
1
 40
0.6
 62
7
290
0
291
1
  0
VISUALSTYLE
  5
5C
102
{ACAD_REACTORS
330
16
102
}
330
16
100
AcDbVisualStyle
  2
Brighten
 70
12
 90
2
 40
0.6
 62
7
290
0
291
1
  0
VISUALSTYLE
  5
5D
102
{ACAD_REACTORS
330
16
102
}
330
16
100
AcDbVisualStyle
  2
ColorChange
 70
16
 90
2
 40
0.6
 62
8
290
0
291
1
  0
VISUALSTYLE
  5
5E
102
{ACAD_REACTORS
330
16
102
}
330
16
100
AcDbVisualStyle
  2
Conceptual
 70
9
 90
3
 40
0.6
 62
7
290
0
291
0
  0
VISUALSTYLE
  5
5F
102
{ACAD_REACTORS
330
16
102
}
330
16
100
AcDbVisualStyle
  2
Dim
 70
11
 90
2
 40
0.6
 62
7
290
0
291
1
  0
VISUALSTYLE
  5
60
102
{ACAD_REACTORS
330
16
102
}
330
16
100
AcDbVisualStyle
  2
EdgeColorOff
 70
22
 90
2
 40
0.6
 62
7
290
0
291
1
  0
VISUALSTYLE
  5
61
102
{ACAD_REACTORS
330
16
102
}
330
16
100
AcDbVisualStyle
  2
Facepattern
 70
15
 90
2
 40
0.6
 62
7
290
0
291
1
  0
VISUALSTYLE
  5
62
102
{ACAD_REACTORS
330
16
102
}
330
16
100
AcDbVisualStyle
  2
Flat
 70
0
 90
2
 40
0.6
 62
7
290
0
291
1
  0
VISUALSTYLE
  5
63
102
{ACAD_REACTORS
330
16
102
}
330
16
100
AcDbVisualStyle
  2
FlatWithEdges
 70
1
 90
2
 40
0.6
 62
7
290
0
291
1
  0
VISUALSTYLE
  5
64
102
{ACAD_REACTORS
330
16
102
}
330
16
100
AcDbVisualStyle
  2
Gouraud
 70
2
 90
2
 40
0.6
 62
7
290
0
291
1
  0
VISUALSTYLE
  5
65
102
{ACAD_REACTORS
330
16
102
}
330
16
100
AcDbVisualStyle
  2
GouraudWithEdges
 70
3
 90
2
 40
0.6
 62
7
290
0
291
1
  0
VISUALSTYLE
  5
66
102
{ACAD_REACTORS
330
16
102
}
330
16
100
AcDbVisualStyle
  2
Hidden
 70
6
 90
1
 40
0.6
 62
7
290
0
291
0
  0
VISUALSTYLE
  5
67
102
{ACAD_REACTORS
330
16
102
}
330
16
100
AcDbVisualStyle
  2
JitterOff
 70
20
 90
2
 40
0.6
 62
7
290
0
291
1
  0
VISUALSTYLE
  5
68
102
{ACAD_REACTORS
330
16
102
}
330
16
100
AcDbVisualStyle
  2
Linepattern
 70
14
 90
2
 40
0.6
 62
7
290
0
291
1
  0
VISUALSTYLE
  5
69
102
{ACAD_REACTORS
330
16
102
}
330
16
100
AcDbVisualStyle
  2
Modeling
 70
10
 90
2
 40
0.6
 62
7
290
0
291
0
  0
VISUALSTYLE
  5
6A
102
{ACAD_REACTORS
330
16
102
}
330
16
100
AcDbVisualStyle
  2
OverhangOff
 70
21
 90
2
 40
0.6
 62
7
290
0
291
1
  0
VISUALSTYLE
  5
6B
102
{ACAD_REACTORS
330
16
102
}
330
16
100
AcDbVisualStyle
  2
Realistic
 70
8
 90
2
 40
0.6
 62
7
290
0
291
0
  0
VISUALSTYLE
  5
6C
102
{ACAD_REACTORS
330
16
102
}
330
16
100
AcDbVisualStyle
  2
Shaded
 70
27
 90
2
 40
0.6
 62
7
290
0
291
0
  0
VISUALSTYLE
  5
6D
102
{ACAD_REACTORS
330
16
102
}
330
16
100
AcDbVisualStyle
  2
Shaded with edges
 70
26
 90
2
 40
0.6
 62
7
290
0
291
0
  0
VISUALSTYLE
  5
6E
102
{ACAD_REACTORS
330
16
102
}
330
16
100
AcDbVisualStyle
  2
Shades of Gray
 70
23
 90
2
 40
0.6
 62
7
290
0
291
0
  0
VISUALSTYLE
  5
6F
102
{ACAD_REACTORS
330
16
102
}
330
16
100
AcDbVisualStyle
  2
Sketchy
 70
24
 90
1
 40
0.6
 62
7
290
0
291
0
  0
VISUALSTYLE
  5
70
102
{ACAD_REACTORS
330
16
102
}
330
16
100
AcDbVisualStyle
  2
Thicken
 70
13
 90
2
 40
0.6
 62
7
290
0
291
1
  0
VISUALSTYLE
  5
71
102
{ACAD_REACTORS
330
16
102
}
330
16
100
AcDbVisualStyle
  2
Wireframe
 70
5
 90
0
 40
0.6
 62
7
290
0
291
0
  0
VISUALSTYLE
  5
72
102
{ACAD_REACTORS
330
16
102
}
330
16
100
AcDbVisualStyle
  2
X-Ray
 70
25
 90
2
 40
0.5
 62
7
290
0
291
0
  0
DICTIONARYVAR
  5
99
330
2D
100
DictionaryVariables
280
0
  1
1.4.4 @ 2026-09-26T07:30:21.674937+00:00
  0
ENDSEC
  0
EOF
