  0
SECTION
  2
HEADER
  9
$ACADVER
  1
AC1024
  9
$ACADMAINTVER
 70
6
  9
$DWGCODEPAGE
  3
ANSI_1252
  9
$LASTSAVEDBY
  1
ezdxf
  9
$INSBASE
 10
0.0
 20
0.0
 30
0.0
  9
$EXTMIN
 10
1e+20
 20
1e+20
 30
1e+20
  9
$EXTMAX
 10
-1e+20
 20
-1e+20
 30
-1e+20
  9
$LIMMIN
 10
0.0
 20
0.0
  9
$LIMMAX
 10
420.0
 20
297.0
  9
$ORTHOMODE
 70
0
  9
$REGENMODE
 70
1
  9
$FILLMODE
 70
1
  9
$QTEXTMODE
 70
0
  9
$MIRRTEXT
 70
1
  9
$LTSCALE
 40
1.0
  9
$ATTMODE
 70
1
  9
$TEXTSIZE
 40
2.5
  9
$TRACEWID
 40
1.0
  9
$TEXTSTYLE
  7
OpenSans
  9
$CLAYER
  8
0
  9
$CELTYPE
  6
ByLayer
  9
$CECOLOR
 62
256
  9
$CELTSCALE
 40
1.0
  9
$DISPSILH
 70
0
  9
$DIMSCALE
 40
1.0
  9
$DIMASZ
 40
0.175
  9
$DIMEXO
 40
0.125
  9
$DIMDLI
 40
3.75
  9
$DIMRND
 40
0.0
  9
$DIMDLE
 40
0.0
  9
$DIMEXE
 40
0.375
  9
$DIMTP
 40
0.0
  9
$DIMTM
 40
0.0
  9
$DIMTXT
 40
0.25
  9
$DIMCEN
 40
2.5
  9
$DIMTSZ
 40
0.0
  9
$DIMTOL
 70
0
  9
$DIMLIM
 70
0
  9
$DIMTIH
 70
0
  9
$DIMTOH
 70
0
  9
$DIMSE1
 70
0
  9
$DIMSE2
 70
0
  9
$DIMTAD
 70
1
  9
$DIMZIN
 70
12
  9
$DIMBLK
  1
ARCHTICK
  9
$DIMASO
 70
1
  9
$DIMSHO
 70
1
  9
$DIMPOST
  1

  9
$DIMAPOST
  1

  9
$DIMALT
 70
0
  9
$DIMALTD
 70
3
  9
$DIMALTF
 40
0.03937007874
  9
$DIMLFAC
 40
100.0
  9
$DIMTOFL
 70
1
  9
$DIMTVP
 40
0.0
  9
$DIMTIX
 70
0
  9
$DIMSOXD
 70
0
  9
$DIMSAH
 70
0
  9
$DIMBLK1
  1

  9
$DIMBLK2
  1

  9
$DIMSTYLE
  2
EZDXF
  9
$DIMCLRD
 70
0
  9
$DIMCLRE
 70
0
  9
$DIMCLRT
 70
0
  9
$DIMTFAC
 40
0.5
  9
$DIMGAP
 40
0.1
  9
$DIMJUST
 70
0
  9
$DIMSD1
 70
0
  9
$DIMSD2
 70
0
  9
$DIMTOLJ
 70
0
  9
$DIMTZIN
 70
8
  9
$DIMALTZ
 70
0
  9
$DIMALTTZ
 70
0
  9
$DIMUPT
 70
1
  9
$DIMDEC
 70
2
  9
$DIMTDEC
 70
2
  9
$DIMALTU
 70
2
  9
$DIMALTTD
 70
3
  9
$DIMTXSTY
  7
OpenSansCondensed-Light
  9
$DIMAUNIT
 70
0
  9
$DIMADEC
 70
2
  9
$DIMALTRND
 40
0.0
  9
$DIMAZIN
 70
3
  9
$DIMDSEP
 70
46
  9
$DIMATFIT
 70
3
  9
$DIMFRAC
 70
0
  9
$DIMLDRBLK
  1

  9
$DIMLUNIT
 70
2
  9
$DIMLWD
 70
-2
  9
$DIMLWE
 70
-2
  9
$DIMTMOVE
 70
2
  9
$DIMFXL
 40
1.0
  9
$DIMFXLON
 70
0
  9
$DIMJOGANG
 40
0.785398163397
  9
$DIMTFILL
 70
0
  9
$DIMTFILLCLR
 70
0
  9
$DIMARCSYM
 70
0
  9
$DIMLTYPE
  6

  9
$DIMLTEX1
  6

  9
$DIMLTEX2
  6

  9
$DIMTXTDIRECTION
 70
0
  9
$LUNITS
 70
2
  9
$LUPREC
 70
4
  9
$SKETCHINC
 40
1.0
  9
$FILLETRAD
 40
10.0
  9
$AUNITS
 70
0
  9
$AUPREC
 70
2
  9
$MENU
  1
.
  9
$ELEVATION
 40
0.0
  9
$PELEVATION
 40
0.0
  9
$THICKNESS
 40
0.0
  9
$LIMCHECK
 70
0
  9
$CHAMFERA
 40
0.0
  9
$CHAMFERB
 40
0.0
  9
$CHAMFERC
 40
0.0
  9
$CHAMFERD
 40
0.0
  9
$SKPOLY
 70
0
  9
$TDCREATE
 40
2461309.201875
  9
$TDUCREATE
 40
2458532.153996898
  9
$TDUPDATE
 40
2461309.201875
  9
$TDUUPDATE
 40
2458532.1544311
  9
$TDINDWG
 40
0.0
  9
$TDUSRTIMER
 40
0.0
  9
$USRTIMER
 70
1
  9
$ANGBASE
 50
0.0
  9
$ANGDIR
 70
0
  9
$PDMODE
 70
0
  9
$PDSIZE
 40
0.0
  9
$PLINEWID
 40
0.0
  9
$SPLFRAME
 70
0
  9
$SPLINETYPE
 70
6
  9
$SPLINESEGS
 70
8
  9
$HANDSEED
  5
93
  9
$SURFTAB1
 70
6
  9
$SURFTAB2
 70
6
  9
$SURFTYPE
 70
6
  9
$SURFU
 70
6
  9
$SURFV
 70
6
  9
$UCSBASE
  2

  9
$UCSNAME
  2

  9
$UCSORG
 10
0.0
 20
0.0
 30
0.0
  9
$UCSXDIR
 10
1.0
 20
0.0
 30
0.0
  9
$UCSYDIR
 10
0.0
 20
1.0
 30
0.0
  9
$UCSORTHOREF
  2

  9
$UCSORTHOVIEW
 70
0
  9
$UCSORGTOP
 10
0.0
 20
0.0
 30
0.0
  9
$UCSORGBOTTOM
 10
0.0
 20
0.0
 30
0.0
  9
$UCSORGLEFT
 10
0.0
 20
0.0
 30
0.0
  9
$UCSORGRIGHT
 10
0.0
 20
0.0
 30
0.0
  9
$UCSORGFRONT
 10
0.0
 20
0.0
 30
0.0
  9
$UCSORGBACK
 10
0.0
 20
0.0
 30
0.0
  9
$PUCSBASE
  2

  9
$PUCSNAME
  2

  9
$PUCSORG
 10
0.0
 20
0.0
 30
0.0
  9
$PUCSXDIR
 10
1.0
 20
0.0
 30
0.0
  9
$PUCSYDIR
 10
0.0
 20
1.0
 30
0.0
  9
$PUCSORTHOREF
  2

  9
$PUCSORTHOVIEW
 70
0
  9
$PUCSORGTOP
 10
0.0
 20
0.0
 30
0.0
  9
$PUCSORGBOTTOM
 10
0.0
 20
0.0
 30
0.0
  9
$PUCSORGLEFT
 10
0.0
 20
0.0
 30
0.0
  9
$PUCSORGRIGHT
 10
0.0
 20
0.0
 30
0.0
  9
$PUCSORGFRONT
 10
0.0
 20
0.0
 30
0.0
  9
$PUCSORGBACK
 10
0.0
 20
0.0
 30
0.0
  9
$USERI1
 70
0
  9
$USERI2
 70
0
  9
$USERI3
 70
0
  9
$USERI4
 70
0
  9
$USERI5
 70
0
  9
$USERR1
 40
0.0
  9
$USERR2
 40
0.0
  9
$USERR3
 40
0.0
  9
$USERR4
 40
0.0
  9
$USERR5
 40
0.0
  9
$WORLDVIEW
 70
1
  9
$SHADEDGE
 70
3
  9
$SHADEDIF
 70
70
  9
$TILEMODE
 70
1
  9
$MAXACTVP
 70
64
  9
$PINSBASE
 10
0.0
 20
0.0
 30
0.0
  9
$PLIMCHECK
 70
0
  9
$PEXTMIN
 10
1e+20
 20
1e+20
 30
1e+20
  9
$PEXTMAX
 10
-1e+20
 20
-1e+20
 30
-1e+20
  9
$PLIMMIN
 10
0.0
 20
0.0
  9
$PLIMMAX
 10
420.0
 20
297.0
  9
$UNITMODE
 70
0
  9
$VISRETAIN
 70
1
  9
$PLINEGEN
 70
0
  9
$PSLTSCALE
 70
1
  9
$TREEDEPTH
 70
3020
  9
$CMLSTYLE
  2
Standard
  9
$CMLJUST
 70
0
  9
$CMLSCALE
 40
20.0
  9
$PROXYGRAPHICS
 70
1
  9
$MEASUREMENT
 70
1
  9
$CELWEIGHT
370
-1
  9
$ENDCAPS
280
0
  9
$JOINSTYLE
280
0
  9
$LWDISPLAY
290
0
  9
$INSUNITS
 70
4
  9
$HYPERLINKBASE
  1

  9
$STYLESHEET
  1

  9
$XEDIT
290
1
  9
$CEPSNTYPE
380
0
  9
$PSTYLEMODE
290
1
  9
$FINGERPRINTGUID
  2
{D928CF72-BC0D-4F81-996C-FFCEE82FA1BD}
  9
$VERSIONGUID
  2
{69D1533B-9C1D-4243-BA05-D13F3A4B4601}
  9
$EXTNAMES
290
1
  9
$PSVPSCALE
 40
0.0
  9
$OLESTARTUP
290
0
  9
$SORTENTS
280
127
  9
$INDEXCTL
280
0
  9
$HIDETEXT
280
1
  9
$XCLIPFRAME
280
1
  9
$HALOGAP
280
0
  9
$OBSCOLOR
 70
257
  9
$OBSLTYPE
280
0
  9
$INTERSECTIONDISPLAY
280
0
  9
$INTERSECTIONCOLOR
 70
257
  9
$DIMASSOC
280
2
  9
$PROJECTNAME
  1

  9
$CAMERADISPLAY
290
0
  9
$LENSLENGTH
 40
50.0
  9
$CAMERAHEIGHT
 40
0.0
  9
$STEPSPERSEC
 40
24.0
  9
$STEPSIZE
 40
100.0
  9
$3DDWFPREC
 40
2.0
  9
$PSOLWIDTH
 40
0.005
  9
$PSOLHEIGHT
 40
0.08
  9
$LOFTANG1
 40
1.570796326795
  9
$LOFTANG2
 40
1.570796326795
  9
$LOFTMAG1
 40
0.0
  9
$LOFTMAG2
 40
0.0
  9
$LOFTPARAM
 70
7
  9
$LOFTNORMALS
280
1
  9
$LATITUDE
 40
37.795
  9
$LONGITUDE
 40
-122.394
  9
$NORTHDIRECTION
 40
0.0
  9
$TIMEZONE
 70
-8000
  9
$LIGHTGLYPHDISPLAY
280
1
  9
$TILEMODELIGHTSYNCH
280
1
  9
$CMATERIAL
347
20
  9
$SOLIDHIST
280
0
  9
$SHOWHIST
280
1
  9
$DWFFRAME
280
2
  9
$DGNFRAME
280
2
  9
$REALWORLDSCALE
290
1
  9
$INTERFERECOLOR
 62
256
  9
$CSHADOW
280
0
  9
$SHADOWPLANELOCATION
 40
0.0
  0
ENDSEC
  0
SECTION
  2
CLASSES
  0
CLASS
  1
ACDBDICTIONARYWDFLT
  2
AcDbDictionaryWithDefault
  3
ObjectDBX Classes
 90
0
 91
0
280
0
281
0
  0
CLASS
  1
SUN
  2
AcDbSun
  3
SCENEOE
 90
1153
 91
0
280
0
281
0
  0
CLASS
  1
VISUALSTYLE
  2
AcDbVisualStyle
  3
ObjectDBX Classes
 90
4095
 91
0
280
0
281
0
  0
CLASS
  1
MATERIAL
  2
AcDbMaterial
  3
ObjectDBX Classes
 90
1153
 91
0
280
0
281
0
  0
CLASS
  1
SCALE
  2
AcDbScale
  3
ObjectDBX Classes
 90
1153
 91
0
280
0
281
0
  0
CLASS
  1
TABLESTYLE
  2
AcDbTableStyle
  3
ObjectDBX Classes
 90
4095
 91
0
280
0
281
0
  0
CLASS
  1
MLEADERSTYLE
  2
AcDbMLeaderStyle
  3
ACDB_MLEADERSTYLE_CLASS
 90
4095
 91
0
280
0
281
0
  0
CLASS
  1
DICTIONARYVAR
  2
AcDbDictionaryVar
  3
ObjectDBX Classes
 90
0
 91
0
280
0
281
0
  0
CLASS
  1
CELLSTYLEMAP
  2
AcDbCellStyleMap
  3
ObjectDBX Classes
 90
1152
 91
0
280
0
281
0
  0
CLASS
  1
MENTALRAYRENDERSETTINGS
  2
AcDbMentalRayRenderSettings
  3
SCENEOE
 90
1024
 91
0
280
0
281
0
  0
CLASS
  1
ACDBDETAILVIEWSTYLE
  2
AcDbDetailViewStyle
  3
ObjectDBX Classes
 90
1025
 91
0
280
0
281
0
  0
CLASS
  1
ACDBSECTIONVIEWSTYLE
  2
AcDbSectionViewStyle
  3
ObjectDBX Classes
 90
1025
 91
0
280
0
281
0
  0
CLASS
  1
RASTERVARIABLES
  2
AcDbRasterVariables
  3
ISM
 90
0
 91
0
280
0
281
0
  0
CLASS
  1
ACDBPLACEHOLDER
  2
AcDbPlaceHolder
  3
ObjectDBX Classes
 90
0
 91
0
280
0
281
0
  0
CLASS
  1
LAYOUT
  2
AcDbLayout
  3
ObjectDBX Classes
 90
0
 91
0
280
0
281
0
  0
ENDSEC
  0
SECTION
  2
TABLES
  0
TABLE
  2
VPORT
  5
8
330
0
100
AcDbSymbolTable
 70
1
  0
VPORT
  5
23
330
8
100
AcDbSymbolTableRecord
100
AcDbViewportTableRecord
  2
*Active
 70
0
 10
0.0
 20
0.0
 11
1.0
 21
1.0
 12
0.0
 22
0.0
 13
0.0
 23
0.0
 14
0.5
 24
0.5
 15
0.5
 25
0.5
 16
0.0
 26
0.0
 36
1.0
 17
0.0
 27
0.0
 37
0.0
 40
1000.0
 41
1.34
 42
50.0
 43
0.0
 44
0.0
 50
0.0
 51
0.0
 71
0
 72
1000
 73
1
 74
3
 75
0
 76
0
 77
0
 78
0
281
0
 65
0
146
0.0
  0
ENDTAB
  0
TABLE
  2
LTYPE
  5
2
330
0
100
AcDbSymbolTable
 70
21
  0
LTYPE
  5
24
330
2
100
AcDbSymbolTableRecord
100
AcDbLinetypeTableRecord
  2
ByBlock
 70
0
  3

 72
65
 73
0
 40
0.0
  0
LTYPE
  5
25
330
2
100
AcDbSymbolTableRecord
100
AcDbLinetypeTableRecord
  2
ByLayer
 70
0
  3

 72
65
 73
0
 40
0.0
  0
LTYPE
  5
26
330
2
100
AcDbSymbolTableRecord
100
AcDbLinetypeTableRecord
  2
Continuous
 70
0
  3

 72
65
 73
0
 40
0.0
  0
LTYPE
  5
2F
330
2
100
AcDbSymbolTableRecord
100
AcDbLinetypeTableRecord
  2
CENTER
 70
0
  3
Center ____ _ ____ _ ____ _ ____ _ ____ _ ____
 72
65
 73
4
 40
5.08
 49
3.175
 74
0
 49
-0.635
 74
0
 49
0.635
 74
0
 49
-0.635
 74
0
  0
LTYPE
  5
30
330
2
100
AcDbSymbolTableRecord
100
AcDbLinetypeTableRecord
  2
CENTERX2
 70
0
  3
Center (2x) ________  __  ________  __  ________
 72
65
 73
4
 40
8.89
 49
6.35
 74
0
 49
-0.635
 74
0
 49
1.27
 74
0
 49
-0.635
 74
0
  0
LTYPE
  5
31
330
2
100
AcDbSymbolTableRecord
100
AcDbLinetypeTableRecord
  2
CENTER2
 70
0
  3
Center (.5x) ____ _ ____ _ ____ _ ____ _ ____
 72
65
 73
4
 40
2.54
 49
1.587
 74
0
 49
-0.318
 74
0
 49
0.318
 74
0
 49
-0.318
 74
0
  0
LTYPE
  5
32
330
2
100
AcDbSymbolTableRecord
100
AcDbLinetypeTableRecord
  2
DASHED
 70
0
  3
Dashed __ __ __ __ __ __ __ __ __ __ __ __ __ _
 72
65
 73
2
 40
1.524
 49
1.27
 74
0
 49
-0.254
 74
0
  0
LTYPE
  5
33
330
2
100
AcDbSymbolTableRecord
100
AcDbLinetypeTableRecord
  2
DASHEDX2
 70
0
  3
Dashed (2x) ____  ____  ____  ____  ____  ____
 72
65
 73
2
 40
3.048
 49
2.54
 74
0
 49
-0.508
 74
0
  0
LTYPE
  5
34
330
2
100
AcDbSymbolTableRecord
100
AcDbLinetypeTableRecord
  2
DASHED2
 70
0
  3
Dashed (.5x) _ _ _ _ _ _ _ _ _ _ _ _ _ _
 72
65
 73
2
 40
0.762
 49
0.635
 74
0
 49
-0.127
 74
0
  0
LTYPE
  5
35
330
2
100
AcDbSymbolTableRecord
100
AcDbLinetypeTableRecord
  2
PHANTOM
 70
0
  3
Phantom ______  __  __  ______  __  __  ______
 72
65
 73
6
 40
6.35
 49
3.175
 74
0
 49
-0.635
 74
0
 49
0.635
 74
0
 49
-0.635
 74
0
 49
0.635
 74
0
 49
-0.635
 74
0
  0
LTYPE
  5
36
330
2
100
AcDbSymbolTableRecord
100
AcDbLinetypeTableRecord
  2
PHANTOMX2
 70
0
  3
Phantom (2x)____________    ____    ____    ____________
 72
65
 73
6
 40
10.795
 49
6.35
 74
0
 49
-0.635
 74
0
 49
1.27
 74
0
 49
-0.635
 74
0
 49
1.27
 74
0
 49
-0.635
 74
0
  0
LTYPE
  5
37
330
2
100
AcDbSymbolTableRecord
100
AcDbLinetypeTableRecord
  2
PHANTOM2
 70
0
  3
Phantom (.5x) ___ _ _ ___ _ _ ___ _ _ ___ _ _ ___
 72
65
 73
6
 40
3.175
 49
1.587
 74
0
 49
-0.318
 74
0
 49
0.318
 74
0
 49
-0.318
 74
0
 49
0.318
 74
0
 49
-0.318
 74
0
  0
LTYPE
  5
38
330
2
100
AcDbSymbolTableRecord
100
AcDbLinetypeTableRecord
  2
DASHDOT
 70
0
  3
Dash dot __ . __ . __ . __ . __ . __ . __ . __
 72
65
 73
4
 40
3.556
 49
2.54
 74
0
 49
-0.508
 74
0
 49
0.0
 74
0
 49
-0.508
 74
0
  0
LTYPE
  5
39
330
2
100
AcDbSymbolTableRecord
100
AcDbLinetypeTableRecord
  2
DASHDOTX2
 70
0
  3
Dash dot (2x) ____  .  ____  .  ____  .  ____
 72
65
 73
4
 40
6.096
 49
5.08
 74
0
 49
-0.508
 74
0
 49
0.0
 74
0
 49
-0.508
 74
0
  0
LTYPE
  5
3A
330
2
100
AcDbSymbolTableRecord
100
AcDbLinetypeTableRecord
  2
DASHDOT2
 70
0
  3
Dash dot (.5x) _ . _ . _ . _ . _ . _ . _ . _
 72
65
 73
4
 40
1.778
 49
1.27
 74
0
 49
-0.254
 74
0
 49
0.0
 74
0
 49
-0.254
 74
0
  0
LTYPE
  5
3B
330
2
100
AcDbSymbolTableRecord
100
AcDbLinetypeTableRecord
  2
DOT
 70
0
  3
Dot .  .  .  .  .  .  .  .  .  .  .  .  .  .  .  .
 72
65
 73
2
 40
0.508
 49
0.0
 74
0
 49
-0.508
 74
0
  0
LTYPE
  5
3C
330
2
100
AcDbSymbolTableRecord
100
AcDbLinetypeTableRecord
  2
DOTX2
 70
0
  3
Dot (2x) .    .    .    .    .    .    .    . 
 72
65
 73
2
 40
1.016
 49
0.0
 74
0
 49
-1.016
 74
0
  0
LTYPE
  5
3D
330
2
100
AcDbSymbolTableRecord
100
AcDbLinetypeTableRecord
  2
DOT2
 70
0
  3
Dot (.5) . . . . . . . . . . . . . . . . . . . 
 72
65
 73
2
 40
0.254
 49
0.0
 74
0
 49
-0.254
 74
0
  0
LTYPE
  5
3E
330
2
100
AcDbSymbolTableRecord
100
AcDbLinetypeTableRecord
  2
DIVIDE
 70
0
  3
Divide __ . . __ . . __ . . __ . . __ . . __
 72
65
 73
6
 40
4.064
 49
2.54
 74
0
 49
-0.508
 74
0
 49
0.0
 74
0
 49
-0.508
 74
0
 49
0.0
 74
0
 49
-0.508
 74
0
  0
LTYPE
  5
3F
330
2
100
AcDbSymbolTableRecord
100
AcDbLinetypeTableRecord
  2
DIVIDEX2
 70
0
  3
Divide (2x) ____  . .  ____  . .  ____  . .  ____
 72
65
 73
6
 40
6.604
 49
5.08
 74
0
 49
-0.508
 74
0
 49
0.0
 74
0
 49
-0.508
 74
0
 49
0.0
 74
0
 49
-0.508
 74
0
  0
LTYPE
  5
40
330
2
100
AcDbSymbolTableRecord
100
AcDbLinetypeTableRecord
  2
DIVIDE2
 70
0
  3
Divide(.5x) _ . _ . _ . _ . _ . _ . _ . _
 72
65
 73
6
 40
2.032
 49
1.27
 74
0
 49
-0.254
 74
0
 49
0.0
 74
0
 49
-0.254
 74
0
 49
0.0
 74
0
 49
-0.254
 74
0
  0
ENDTAB
  0
TABLE
  2
LAYER
  5
1
330
0
100
AcDbSymbolTable
 70
4
  0
LAYER
  5
27
330
1
100
AcDbSymbolTableRecord
100
AcDbLayerTableRecord
  2
0
 70
0
 62
7
  6
Continuous
370
-3
390
13
347
21
  0
LAYER
  5
28
330
1
100
AcDbSymbolTableRecord
100
AcDbLayerTableRecord
  2
Defpoints
 70
0
 62
7
  6
Continuous
290
0
370
-3
390
13
347
21
  0
LAYER
  5
8A
330
1
100
AcDbSymbolTableRecord
100
AcDbLayerTableRecord
  2
CORTE
 70
0
 62
1
  6
Continuous
370
-3
390
13
347
21
  0
LAYER
  5
8B
330
1
100
AcDbSymbolTableRecord
100
AcDbLayerTableRecord
  2
NOTAS
 70
0
 62
3
  6
Continuous
370
-3
390
13
347
21
  0
ENDTAB
  0
TABLE
  2
STYLE
  5
5
330
0
100
AcDbSymbolTable
 70
26
  0
STYLE
  5
29
330
5
100
AcDbSymbolTableRecord
100
AcDbTextStyleTableRecord
  2
Standard
 70
0
 40
0.0
 41
1.0
 50
0.0
 71
0
 42
2.5
  3
txt
  4

  0
STYLE
  5
41
330
5
100
AcDbSymbolTableRecord
100
AcDbTextStyleTableRecord
  2
OpenSans-Light
 70
0
 40
0.0
 41
1.0
 50
0.0
 71
0
 42
2.5
  3
OpenSans-Light.ttf
  4

  0
STYLE
  5
42
330
5
100
AcDbSymbolTableRecord
100
AcDbTextStyleTableRecord
  2
OpenSans-Light-Italic
 70
0
 40
0.0
 41
1.0
 50
0.0
 71
0
 42
2.5
  3
OpenSans-LightItalic.ttf
  4

  0
STYLE
  5
43
330
5
100
AcDbSymbolTableRecord
100
AcDbTextStyleTableRecord
  2
OpenSans
 70
0
 40
0.0
 41
1.0
 50
0.0
 71
0
 42
2.5
  3
OpenSans-Regular.ttf
  4

  0
STYLE
  5
44
330
5
100
AcDbSymbolTableRecord
100
AcDbTextStyleTableRecord
  2
OpenSans-Italic
 70
0
 40
0.0
 41
1.0
 50
0.0
 71
0
 42
2.5
  3
OpenSans-Italic.ttf
  4

  0
STYLE
  5
45
330
5
100
AcDbSymbolTableRecord
100
AcDbTextStyleTableRecord
  2
OpenSans-SemiBold
 70
0
 40
0.0
 41
1.0
 50
0.0
 71
0
 42
2.5
  3
OpenSans-SemiBold.ttf
  4

  0
STYLE
  5
46
330
5
100
AcDbSymbolTableRecord
100
AcDbTextStyleTableRecord
  2
OpenSans-SemiBoldItalic
 70
0
 40
0.0
 41
1.0
 50
0.0
 71
0
 42
2.5
  3
OpenSans-SemiBoldItalic.ttf
  4

  0
STYLE
  5
47
330
5
100
AcDbSymbolTableRecord
100
AcDbTextStyleTableRecord
  2
OpenSans-Bold
 70
0
 40
0.0
 41
1.0
 50
0.0
 71
0
 42
2.5
  3
OpenSans-Bold.ttf
  4

  0
STYLE
  5
48
330
5
100
AcDbSymbolTableRecord
100
AcDbTextStyleTableRecord
  2
OpenSans-BoldItalic
 70
0
 40
0.0
 41
1.0
 50
0.0
 71
0
 42
2.5
  3
OpenSans-BoldItalic.ttf
  4

  0
STYLE
  5
49
330
5
100
AcDbSymbolTableRecord
100
AcDbTextStyleTableRecord
  2
OpenSans-ExtraBold
 70
0
 40
0.0
 41
1.0
 50
0.0
 71
0
 42
2.5
  3
OpenSans-ExtraBold.ttf
  4

  0
STYLE
  5
4A
330
5
100
AcDbSymbolTableRecord
100
AcDbTextStyleTableRecord
  2
OpenSans-ExtraBoldItalic
 70
0
 40
0.0
 41
1.0
 50
0.0
 71
0
 42
2.5
  3
OpenSans-ExtraBoldItalic.ttf
  4

  0
STYLE
  5
4B
330
5
100
AcDbSymbolTableRecord
100
AcDbTextStyleTableRecord
  2
OpenSansCondensed-Bold
 70
0
 40
0.0
 41
1.0
 50
0.0
 71
0
 42
2.5
  3
OpenSansCondensed-Bold.ttf
  4

  0
STYLE
  5
4C
330
5
100
AcDbSymbolTableRecord
100
AcDbTextStyleTableRecord
  2
OpenSansCondensed-Light
 70
0
 40
0.0
 41
1.0
 50
0.0
 71
0
 42
2.5
  3
OpenSansCondensed-Light.ttf
  4

  0
STYLE
  5
4D
330
5
100
AcDbSymbolTableRecord
100
AcDbTextStyleTableRecord
  2
OpenSansCondensed-Italic
 70
0
 40
0.0
 41
1.0
 50
0.0
 71
0
 42
2.5
  3
OpenSansCondensed-LightItalic.ttf
  4

  0
STYLE
  5
4E
330
5
100
AcDbSymbolTableRecord
100
AcDbTextStyleTableRecord
  2
LiberationSans
 70
0
 40
0.0
 41
1.0
 50
0.0
 71
0
 42
2.5
  3
LiberationSans-Regular.ttf
  4

  0
STYLE
  5
4F
330
5
100
AcDbSymbolTableRecord
100
AcDbTextStyleTableRecord
  2
LiberationSans-Bold
 70
0
 40
0.0
 41
1.0
 50
0.0
 71
0
 42
2.5
  3
LiberationSans-Bold.ttf
  4

  0
STYLE
  5
50
330
5
100
AcDbSymbolTableRecord
100
AcDbTextStyleTableRecord
  2
LiberationSans-BoldItalic
 70
0
 40
0.0
 41
1.0
 50
0.0
 71
0
 42
2.5
  3
LiberationSans-BoldItalic.ttf
  4

  0
STYLE
  5
51
330
5
100
AcDbSymbolTableRecord
100
AcDbTextStyleTableRecord
  2
LiberationSans-Italic
 70
0
 40
0.0
 41
1.0
 50
0.0
 71
0
 42
2.5
  3
LiberationSans-Italic.ttf
  4

  0
STYLE
  5
52
330
5
100
AcDbSymbolTableRecord
100
AcDbTextStyleTableRecord
  2
LiberationSerif
 70
0
 40
0.0
 41
1.0
 50
0.0
 71
0
 42
2.5
  3
LiberationSerif-Regular.ttf
  4

  0
STYLE
  5
53
330
5
100
AcDbSymbolTableRecord
100
AcDbTextStyleTableRecord
  2
LiberationSerif-Bold
 70
0
 40
0.0
 41
1.0
 50
0.0
 71
0
 42
2.5
  3
LiberationSerif-Bold.ttf
  4

  0
STYLE
  5
54
330
5
100
AcDbSymbolTableRecord
100
AcDbTextStyleTableRecord
  2
LiberationSerif-BoldItalic
 70
0
 40
0.0
 41
1.0
 50
0.0
 71
0
 42
2.5
  3
LiberationSerif-BoldItalic.ttf
  4

  0
STYLE
  5
55
330
5
100
AcDbSymbolTableRecord
100
AcDbTextStyleTableRecord
  2
LiberationSerif-Italic
 70
0
 40
0.0
 41
1.0
 50
0.0
 71
0
 42
2.5
  3
LiberationSerif-Italic.ttf
  4

  0
STYLE
  5
56
330
5
100
AcDbSymbolTableRecord
100
AcDbTextStyleTableRecord
  2
LiberationMono
 70
0
 40
0.0
 41
1.0
 50
0.0
 71
0
 42
2.5
  3
LiberationMono-Regular.ttf
  4

  0
STYLE
  5
57
330
5
100
AcDbSymbolTableRecord
100
AcDbTextStyleTableRecord
  2
LiberationMono-Bold
 70
0
 40
0.0
 41
1.0
 50
0.0
 71
0
 42
2.5
  3
LiberationMono-Bold.ttf
  4

  0
STYLE
  5
58
330
5
100
AcDbSymbolTableRecord
100
AcDbTextStyleTableRecord
  2
LiberationMono-BoldItalic
 70
0
 40
0.0
 41
1.0
 50
0.0
 71
0
 42
2.5
  3
LiberationMono-BoldItalic.ttf
  4

  0
STYLE
  5
59
330
5
100
AcDbSymbolTableRecord
100
AcDbTextStyleTableRecord
  2
LiberationMono-Italic
 70
0
 40
0.0
 41
1.0
 50
0.0
 71
0
 42
2.5
  3
LiberationMono-Italic.ttf
  4

  0
ENDTAB
  0
TABLE
  2
VIEW
  5
7
330
0
100
AcDbSymbolTable
 70
0
  0
ENDTAB
  0
TABLE
  2
UCS
  5
6
330
0
100
AcDbSymbolTable
 70
0
  0
ENDTAB
  0
TABLE
  2
APPID
  5
3
330
0
100
AcDbSymbolTable
 70
3
  0
APPID
  5
2A
330
3
100
AcDbSymbolTableRecord
100
AcDbRegAppTableRecord
  2
ACAD
 70
0
  0
APPID
  5
90
330
3
100
AcDbSymbolTableRecord
100
AcDbRegAppTableRecord
  2
HATCHBACKGROUNDCOLOR
 70
0
  0
APPID
  5
91
330
3
100
AcDbSymbolTableRecord
100
AcDbRegAppTableRecord
  2
EZDXF
 70
0
  0
ENDTAB
  0
TABLE
  2
DIMSTYLE
  5
4
330
0
100
AcDbSymbolTable
 70
12
100
AcDbDimStyleTable
  0
DIMSTYLE
105
2B
330
4
100
AcDbSymbolTableRecord
100
AcDbDimStyleTableRecord
  2
Standard
 70
0
 40
1.0
 41
2.5
 42
0.625
 43
3.75
 44
1.25
 45
0.0
 46
0.0
 47
0.0
 48
0.0
 49
2.5
140
2.5
141
2.5
142
0.0
143
0.03937007874
144
1.0
145
0.0
146
1.0
147
0.625
148
0.0
 69
0
 70
0
 71
0
 72
0
 73
0
 74
0
 75
0
 76
0
 77
1
 78
8
 79
3
170
0
171
3
172
1
173
0
174
0
175
0
176
0
177
0
178
0
179
2
271
2
272
2
273
2
274
3
275
0
276
0
277
2
278
44
279
0
280
0
281
0
282
0
283
0
284
8
285
0
286
0
288
0
289
3
290
0
371
-2
372
-2
  0
DIMSTYLE
105
73
330
4
100
AcDbSymbolTableRecord
100
AcDbDimStyleTableRecord
  2
EZDXF
 70
0
 40
1.0
 41
0.175
 42
0.125
 43
3.75
 44
0.375
 45
0.0
 46
0.0
 47
0.0
 48
0.0
 49
2.5
140
0.25
141
2.5
142
0.0
143
0.03937007874
144
100.0
145
0.0
146
0.5
147
0.1
148
0.0
 69
0
 70
0
 71
0
 72
0
 73
0
 74
0
 75
0
 76
0
 77
1
 78
12
 79
3
170
0
171
3
172
1
173
0
174
0
175
0
176
0
177
0
178
0
179
2
271
2
272
2
273
2
274
3
275
0
276
0
277
2
278
46
279
2
280
0
281
0
282
0
283
0
284
8
285
0
286
0
288
1
289
3
290
0
340
4C
342
74
371
-2
372
-2
  0
DIMSTYLE
105
7C
330
4
100
AcDbSymbolTableRecord
100
AcDbDimStyleTableRecord
  2
EZ_M_100_H25_CM
 70
0
 40
1.0
 41
0.25
 42
0.125
 43
3.75
 44
0.375
 45
0.0
 46
0.0
 47
0.0
 48
0.0
 49
2.5
140
0.25
141
2.5
142
0.125
143
0.03937007874
144
100.0
145
0.0
146
0.5
147
0.1
148
0.0
 69
0
 70
0
 71
0
 72
0
 73
0
 74
0
 75
0
 76
0
 77
1
 78
12
 79
3
170
0
171
3
172
1
173
0
174
0
175
0
176
0
177
0
178
0
179
2
271
2
272
2
273
2
274
3
275
0
276
0
277
2
278
46
279
2
280
0
281
0
282
0
283
0
284
8
285
0
286
0
288
1
289
3
290
0
340
4C
371
-2
372
-2
  0
DIMSTYLE
105
7D
330
4
100
AcDbSymbolTableRecord
100
AcDbDimStyleTableRecord
  2
EZ_M_50_H25_CM
 70
0
 40
1.0
 41
0.125
 42
0.0625
 43
3.75
 44
0.1875
 45
0.0
 46
0.0
 47
0.0
 48
0.0
 49
2.5
140
0.125
141
2.5
142
0.0625
143
0.03937007874
144
100.0
145
0.0
146
0.5
147
0.05
148
0.0
 69
0
 70
0
 71
0
 72
0
 73
0
 74
0
 75
0
 76
0
 77
1
 78
12
 79
3
170
0
171
3
172
1
173
0
174
0
175
0
176
0
177
0
178
0
179
2
271
2
272
2
273
2
274
3
275
0
276
0
277
2
278
46
279
2
280
0
281
0
282
0
283
0
284
8
285
0
286
0
288
1
289
3
290
0
340
4C
371
-2
372
-2
  0
DIMSTYLE
105
7E
330
4
100
AcDbSymbolTableRecord
100
AcDbDimStyleTableRecord
  2
EZ_M_25_H25_CM
 70
0
 40
1.0
 41
0.0625
 42
0.03125
 43
3.75
 44
0.09375
 45
0.0
 46
0.0
 47
0.0
 48
0.0
 49
2.5
140
0.0625
141
2.5
142
0.03125
143
0.03937007874
144
100.0
145
0.0
146
0.5
147
0.025
148
0.0
 69
0
 70
0
 71
0
 72
0
 73
0
 74
0
 75
0
 76
0
 77
1
 78
12
 79
3
170
0
171
3
172
1
173
0
174
0
175
0
176
0
177
0
178
0
179
2
271
2
272
2
273
2
274
3
275
0
276
0
277
2
278
46
279
2
280
0
281
0
282
0
283
0
284
8
285
0
286
0
288
1
289
3
290
0
340
4C
371
-2
372
-2
  0
DIMSTYLE
105
7F
330
4
100
AcDbSymbolTableRecord
100
AcDbDimStyleTableRecord
  2
EZ_M_20_H25_CM
 70
0
 40
1.0
 41
0.05
 42
0.025
 43
3.75
 44
0.07500000000000001
 45
0.0
 46
0.0
 47
0.0
 48
0.0
 49
2.5
140
0.05
141
2.5
142
0.025
143
0.03937007874
144
100.0
145
0.0
146
0.5
147
0.020000000000000004
148
0.0
 69
0
 70
0
 71
0
 72
0
 73
0
 74
0
 75
0
 76
0
 77
1
 78
12
 79
3
170
0
171
3
172
1
173
0
174
0
175
0
176
0
177
0
178
0
179
2
271
2
272
2
273
2
274
3
275
0
276
0
277
2
278
46
279
2
280
0
281
0
282
0
283
0
284
8
285
0
286
0
288
1
289
3
290
0
340
4C
371
-2
372
-2
  0
DIMSTYLE
105
80
330
4
100
AcDbSymbolTableRecord
100
AcDbDimStyleTableRecord
  2
EZ_M_10_H25_CM
 70
0
 40
1.0
 41
0.025
 42
0.0125
 43
3.75
 44
0.037500000000000006
 45
0.0
 46
0.0
 47
0.0
 48
0.0
 49
2.5
140
0.025
141
2.5
142
0.0125
143
0.03937007874
144
100.0
145
0.0
146
0.5
147
0.010000000000000002
148
0.0
 69
0
 70
0
 71
0
 72
0
 73
0
 74
0
 75
0
 76
0
 77
1
 78
12
 79
3
170
0
171
3
172
1
173
0
174
0
175
0
176
0
177
0
178
0
179
2
271
2
272
2
273
2
274
3
275
0
276
0
277
2
278
46
279
2
280
0
281
0
282
0
283
0
284
8
285
0
286
0
288
1
289
3
290
0
340
4C
371
-2
372
-2
  0
DIMSTYLE
105
81
330
4
100
AcDbSymbolTableRecord
100
AcDbDimStyleTableRecord
  2
EZ_M_5_H25_CM
 70
0
 40
1.0
 41
0.0125
 42
0.00625
 43
3.75
 44
0.018750000000000003
 45
0.0
 46
0.0
 47
0.0
 48
0.0
 49
2.5
140
0.0125
141
2.5
142
0.00625
143
0.03937007874
144
100.0
145
0.0
146
0.5
147
0.005000000000000001
148
0.0
 69
0
 70
0
 71
0
 72
0
 73
0
 74
0
 75
0
 76
0
 77
1
 78
12
 79
3
170
0
171
3
172
1
173
0
174
0
175
0
176
0
177
0
178
0
179
2
271
2
272
2
273
2
274
3
275
0
276
0
277
2
278
46
279
2
280
0
281
0
282
0
283
0
284
8
285
0
286
0
288
1
289
3
290
0
340
4C
371
-2
372
-2
  0
DIMSTYLE
105
82
330
4
100
AcDbSymbolTableRecord
100
AcDbDimStyleTableRecord
  2
EZ_M_1_H25_CM
 70
0
 40
1.0
 41
0.0025
 42
0.00125
 43
3.75
 44
0.00375
 45
0.0
 46
0.0
 47
0.0
 48
0.0
 49
2.5
140
0.0025
141
2.5
142
0.00125
143
0.03937007874
144
100.0
145
0.0
146
0.5
147
0.001
148
0.0
 69
0
 70
0
 71
0
 72
0
 73
0
 74
0
 75
0
 76
0
 77
1
 78
12
 79
3
170
0
171
3
172
1
173
0
174
0
175
0
176
0
177
0
178
0
179
2
271
2
272
2
273
2
274
3
275
0
276
0
277
2
278
46
279
2
280
0
281
0
282
0
283
0
284
8
285
0
286
0
288
1
289
3
290
0
340
4C
371
-2
372
-2
  0
DIMSTYLE
105
83
330
4
100
AcDbSymbolTableRecord
100
AcDbDimStyleTableRecord
  2
EZ_RADIUS
 70
0
 40
1.0
 41
0.25
 42
0.125
 43
3.75
 44
0.375
 45
0.0
 46
0.0
 47
0.0
 48
0.0
 49
2.5
140
0.25
141
0.0
142
0.0
143
0.03937007874
144
100.0
145
0.0
146
0.5
147
0.1
148
0.0
 69
0
 70
0
 71
0
 72
0
 73
0
 74
0
 75
0
 76
0
 77
1
 78
12
 79
3
170
0
171
3
172
0
173
0
174
0
175
0
176
0
177
0
178
0
179
2
271
2
272
2
273
2
274
3
275
0
276
0
277
2
278
46
279
1
280
0
281
0
282
0
283
0
284
8
285
0
286
0
288
1
289
3
290
0
340
4C
342
84
371
-2
372
-2
  0
DIMSTYLE
105
88
330
4
100
AcDbSymbolTableRecord
100
AcDbDimStyleTableRecord
  2
EZ_RADIUS_INSIDE
 70
0
 40
1.0
 41
0.25
 42
0.125
 43
3.75
 44
0.375
 45
0.0
 46
0.0
 47
0.0
 48
0.0
 49
2.5
140
0.25
141
0.0
142
0.0
143
0.03937007874
144
100.0
145
0.0
146
0.5
147
0.1
148
0.0
 69
0
 70
0
 71
0
 72
0
 73
0
 74
0
 75
0
 76
0
 77
0
 78
12
 79
3
170
0
171
3
172
0
173
0
174
1
175
0
176
0
177
0
178
0
179
2
271
2
272
2
273
2
274
3
275
0
276
0
277
2
278
46
279
0
280
0
281
0
282
0
283
0
284
8
285
0
286
0
288
1
289
0
290
0
340
4C
342
84
371
-2
372
-2
  0
DIMSTYLE
105
89
330
4
100
AcDbSymbolTableRecord
100
AcDbDimStyleTableRecord
  2
EZ_CURVED
 70
0
 40
1.0
 41
0.25
 42
0.125
 43
3.75
 44
0.375
 45
0.0
 46
0.0
 47
0.0
 48
0.0
 49
2.5
140
0.25
141
2.5
142
0.0
143
0.03937007874
144
100.0
145
0.0
146
0.5
147
0.1
148
0.0
 69
0
 70
0
 71
0
 72
0
 73
0
 74
0
 75
0
 76
0
 77
1
 78
12
 79
2
 90
2
170
0
171
3
172
1
173
0
174
0
175
0
176
0
177
0
178
0
179
2
271
2
272
2
273
2
274
3
275
0
276
0
277
2
278
46
279
2
280
0
281
0
282
0
283
0
284
8
285
0
286
0
288
1
289
3
290
0
340
4C
371
-2
372
-2
  0
ENDTAB
  0
TABLE
  2
BLOCK_RECORD
  5
9
330
0
100
AcDbSymbolTable
 70
5
  0
BLOCK_RECORD
  5
17
330
9
100
AcDbSymbolTableRecord
100
AcDbBlockTableRecord
  2
*Model_Space
340
1A
 70
0
280
1
281
0
  0
BLOCK_RECORD
  5
1B
330
9
100
AcDbSymbolTableRecord
100
AcDbBlockTableRecord
  2
*Paper_Space
340
1E
 70
0
280
1
281
0
  0
BLOCK_RECORD
  5
74
330
9
100
AcDbSymbolTableRecord
100
AcDbBlockTableRecord
  2
_ARCHTICK
340
0
 70
0
280
1
281
0
  0
BLOCK_RECORD
  5
78
330
9
100
AcDbSymbolTableRecord
100
AcDbBlockTableRecord
  2
_CLOSEDFILLED
340
0
 70
0
280
1
281
0
  0
BLOCK_RECORD
  5
84
330
9
100
AcDbSymbolTableRecord
100
AcDbBlockTableRecord
  2
_CLOSEDBLANK
340
0
 70
0
280
1
281
0
  0
ENDTAB
  0
ENDSEC
  0
SECTION
  2
BLOCKS
  0
BLOCK
  5
18
330
17
100
AcDbEntity
  8
0
100
AcDbBlockBegin
  2
*Model_Space
 70
0
 10
0.0
 20
0.0
 30
0.0
  3
*Model_Space
  1

  0
ENDBLK
  5
19
330
17
100
AcDbEntity
  8
0
100
AcDbBlockEnd
  0
BLOCK
  5
1C
330
1B
100
AcDbEntity
  8
0
100
AcDbBlockBegin
  2
*Paper_Space
 70
0
 10
0.0
 20
0.0
 30
0.0
  3
*Paper_Space
  1

  0
ENDBLK
  5
1D
330
1B
100
AcDbEntity
  8
0
100
AcDbBlockEnd
  0
BLOCK
  5
75
330
74
100
AcDbEntity
  8
0
100
AcDbBlockBegin
  2
_ARCHTICK
 70
0
 10
0.0
 20
0.0
 30
0.0
  3
_ARCHTICK
  1

  0
LWPOLYLINE
  5
77
330
74
100
AcDbEntity
  8
0
  6
BYBLOCK
 62
0
100
AcDbPolyline
 90
2
 70
0
 43
0.15
 10
-0.5
 20
-0.5
 10
0.5
 20
0.5
  0
ENDBLK
  5
76
330
74
100
AcDbEntity
  8
0
100
AcDbBlockEnd
  0
BLOCK
  5
79
330
78
100
AcDbEntity
  8
0
100
AcDbBlockBegin
  2
_CLOSEDFILLED
 70
0
 10
0.0
 20
0.0
 30
0.0
  3
_CLOSEDFILLED
  1

  0
SOLID
  5
7B
330
78
100
AcDbEntity
  8
0
  6
BYBLOCK
 62
0
100
AcDbTrace
 10
-1.0
 20
0.16439898372402537
 30
0.0
 11
0.0
 21
0.0
 31
0.0
 12
-1.0
 22
-0.16439898372402537
 32
0.0
 13
-1.0
 23
-0.16439898372402537
 33
0.0
  0
ENDBLK
  5
7A
330
78
100
AcDbEntity
  8
0
100
AcDbBlockEnd
  0
BLOCK
  5
85
330
84
100
AcDbEntity
  8
0
100
AcDbBlockBegin
  2
_CLOSEDBLANK
 70
0
 10
0.0
 20
0.0
 30
0.0
  3
_CLOSEDBLANK
  1

  0
LWPOLYLINE
  5
87
330
84
100
AcDbEntity
  8
0
  6
BYBLOCK
 62
0
100
AcDbPolyline
 90
3
 70
1
 10
-1.0
 20
0.16439898372402537
 10
0.0
 20
0.0
 10
-1.0
 20
-0.16439898372402537
  0
ENDBLK
  5
86
330
84
100
AcDbEntity
  8
0
100
AcDbBlockEnd
  0
ENDSEC
  0
SECTION
  2
ENTITIES
  0
LWPOLYLINE
  5
8C
330
17
100
AcDbEntity
  8
CORTE
100
AcDbPolyline
 90
36
 70
1
 10
36.0
 20
104.0
 10
36.0
 20
0.0
 10
-36.0
 20
0.0
 10
-36.0
 20
104.0
 10
-33.80862033479592
 20
103.01296780196323
 10
-31.238854610549787
 20
101.94853598685897
 10
-29.941254073304826
 20
101.4479962256273
 10
-27.322354550768715
 20
100.51093899291601
 10
-24.674197566629285
 20
99.66007146276225
 10
-21.999618833714255
 20
98.89630476542919
 10
-20.65331529177741
 20
98.54734347846376
 10
-17.944481950512024
 20
97.91573212979638
 10
-16.582677371370877
 20
97.6332511657254
 10
-13.84611523854002
 20
97.13531677278527
 10
-11.094726338704367
 20
96.7271867832261
 10
-8.331456928012637
 20
96.40929823286326
 10
-6.946291301361776
 20
96.28430465871968
 10
-4.1707523178305115
 20
96.10238622256034
 10
-1.39074718825136
 20
96.01137827768724
 10
0.0
 20
96.0
 10
1.3907471882513895
 20
96.01137827768724
 10
4.170752317830541
 20
96.10238622256034
 10
6.946291301361806
 20
96.28430465871968
 10
8.331456928012665
 20
96.40929823286326
 10
11.094726338704396
 20
96.72718678322612
 10
12.472090328705768
 20
96.91999665299362
 10
15.216433208513793
 20
97.37308949619842
 10
17.944481950512053
 20
97.9157321297964
 10
20.65331529177744
 20
98.54734347846376
 10
23.340032545719254
 20
99.26724719694823
 10
26.001756708207047
 20
100.07467239431644
 10
27.322354550768743
 20
100.51093899291602
 10
29.941254073304854
 20
101.44799622562732
 10
31.238854610549815
 20
101.94853598685897
 10
33.80862033479595
 20
103.01296780196324
 10
36.0
 20
104.0
  0
LWPOLYLINE
  5
8D
330
17
100
AcDbEntity
  8
CORTE
100
AcDbPolyline
 90
69
 70
1
 10
22.0
 20
63.0
 10
21.95666254004977
 20
62.11784573703395
 10
21.827067523629076
 20
61.24418710185485
 10
21.612463021589882
 20
60.38743790470984
 10
21.31491579260158
 20
59.55584910871419
 10
20.937291379135196
 20
58.75742936856602
 10
20.483226510722908
 20
57.99986790282358
 10
19.957094080264632
 20
57.29046044252719
 10
19.36396103067893
 20
56.63603896932107
 10
18.70953955747281
 20
56.04290591973537
 10
18.00013209717642
 20
55.51677348927709
 10
17.24257063143398
 20
55.062708620864804
 10
16.44415089128581
 20
54.68508420739842
 10
15.612562095290162
 20
54.38753697841012
 10
14.755812898145155
 20
54.172932476370924
 10
13.882154262966047
 20
54.04333745995023
 10
13.0
 20
54.0
 10
-13.0
 20
54.0
 10
-13.882154262966043
 20
54.04333745995023
 10
-14.755812898145159
 20
54.17293247637093
 10
-15.612562095290162
 20
54.38753697841012
 10
-16.444150891285812
 20
54.68508420739842
 10
-17.24257063143398
 20
55.062708620864804
 10
-18.00013209717642
 20
55.51677348927709
 10
-18.709539557472812
 20
56.04290591973537
 10
-19.36396103067893
 20
56.63603896932107
 10
-19.957094080264632
 20
57.29046044252719
 10
-20.483226510722908
 20
57.99986790282358
 10
-20.937291379135196
 20
58.75742936856602
 10
-21.31491579260158
 20
59.55584910871419
 10
-21.612463021589882
 20
60.38743790470984
 10
-21.827067523629076
 20
61.24418710185485
 10
-21.95666254004977
 20
62.11784573703395
 10
-22.0
 20
63.0
 10
-22.0
 20
75.0
 10
-21.95666254004977
 20
75.88215426296605
 10
-21.827067523629076
 20
76.75581289814515
 10
-21.612463021589882
 20
77.61256209529016
 10
-21.31491579260158
 20
78.44415089128582
 10
-20.937291379135196
 20
79.24257063143398
 10
-20.483226510722908
 20
80.00013209717642
 10
-19.957094080264632
 20
80.70953955747281
 10
-19.36396103067893
 20
81.36396103067892
 10
-18.70953955747281
 20
81.95709408026464
 10
-18.00013209717642
 20
82.48322651072291
 10
-17.242570631433978
 20
82.93729137913519
 10
-16.44415089128581
 20
83.31491579260158
 10
-15.612562095290158
 20
83.61246302158987
 10
-14.755812898145154
 20
83.82706752362907
 10
-13.882154262966045
 20
83.95666254004978
 10
-13.0
 20
84.0
 10
13.0
 20
84.0
 10
13.882154262966047
 20
83.95666254004978
 10
14.755812898145155
 20
83.82706752362907
 10
15.612562095290162
 20
83.61246302158987
 10
16.44415089128581
 20
83.31491579260158
 10
17.24257063143398
 20
82.93729137913519
 10
18.00013209717642
 20
82.4832265107229
 10
18.70953955747281
 20
81.95709408026464
 10
19.36396103067893
 20
81.36396103067892
 10
19.957094080264632
 20
80.70953955747281
 10
20.483226510722908
 20
80.00013209717642
 10
20.937291379135196
 20
79.24257063143398
 10
21.31491579260158
 20
78.4441508912858
 10
21.612463021589882
 20
77.61256209529016
 10
21.827067523629076
 20
76.75581289814515
 10
21.95666254004977
 20
75.88215426296604
 10
22.0
 20
75.0
 10
22.0
 20
63.0
  0
LWPOLYLINE
  5
8E
330
17
100
AcDbEntity
  8
CORTE
100
AcDbPolyline
 90
453
 70
1
 10
-12.278523334875965
 20
24.65681675423208
 10
-12.291688835126902
 20
24.664707851402873
 10
-12.680658145539688
 20
24.90658451185774
 10
-12.71366100438276
 20
24.927863594926574
 10
-12.729962103612566
 20
24.938755641206534
 10
-12.762251060230414
 20
24.961103154459657
 10
-13.134568067010232
 20
25.227901748493142
 10
-13.166108545579279
 20
25.251293761653557
 10
-13.181662368993996
 20
25.263228630125923
 10
-13.212420595179955
 20
25.28764009444016
 10
-13.566490979744723
 20
25.57821814951301
 10
-13.596434016868368
 20
25.603622924573465
 10
-13.611173960608177
 20
25.616549508299112
 10
-13.640269744915612
 20
25.642920390036547
 10
-13.974577323520695
 20
25.95603360630655
 10
-14.002794698517047
 20
25.983342356120037
 10
-14.016657643879855
 20
25.997205301482843
 10
-14.043966393693456
 20
26.025422676479312
 10
-14.357079609963494
 20
26.359730255084436
 10
-14.383450491700852
 20
26.388826039391784
 10
-14.396377075426443
 20
26.403565983131525
 10
-14.421781850486962
 20
26.43350902025524
 10
-14.712359905559898
 20
26.787579404820107
 10
-14.736771369874123
 20
26.818337631006052
 10
-14.74870623834635
 20
26.83389145442058
 10
-14.772098251506785
 20
26.865431932989658
 10
-15.038896845540286
 20
27.237748939769503
 10
-15.061244358793408
 20
27.27003789638735
 10
-15.072136405073424
 20
27.286338995617243
 10
-15.093415488142256
 20
27.319341854460312
 10
-15.335292148597118
 20
27.70831116487309
 10
-15.35548001530653
 20
27.7419925856535
 10
-15.365282597979796
 20
27.75897115688899
 10
-15.384357630656513
 20
27.793295072697823
 10
-15.600276604539044
 20
28.197251060440625
 10
-15.618218377160275
 20
28.232180716369083
 10
-15.626889520062948
 20
28.249764054761688
 10
-15.643678820129102
 20
28.285262047259152
 10
-15.83271550924469
 20
28.702474910776083
 10
-15.84833435835284
 20
28.73850322770329
 10
-15.855836930319722
 20
28.756616038698418
 10
-15.87026860341495
 20
28.793136100031
 10
-16.03161352363938
 20
29.221819269788845
 10
-16.04484256692473
 20
29.25879196893057
 10
-16.05114444079089
 20
29.277356690690915
 10
-16.0631566882754
 20
29.314742436349317
 10
-16.196118935890077
 20
29.753060225202365
 10
-16.20690152455833
 20
29.790818983784767
 10
-16.21197571473239
 20
29.809756119321637
 10
-16.22151709831829
 20
29.847847457803347
 10
-16.325527308566244
 20
30.293922921688107
 10
-16.333817269917326
 20
30.332306050910034
 10
-16.33764204793796
 20
30.35153450850178
 10
-16.344671709955932
 20
30.390168326847597
 10
-16.419284495148915
 20
30.842091302144865
 10
-16.425046330295626
 20
30.880934439554267
 10
-16.42760531787615
 20
30.900371879993443
 10
-16.43209315623422
 20
30.93938274226208
 10
-16.476989012971295
 20
31.395218025411282
 10
-16.48019804885098
 20
31.434354838730545
 10
-16.481480288013717
 20
31.45391802791314
 10
-16.48340708509903
 20
31.493138883603205
 10
-16.498393762429096
 20
31.95093451794058
 10
-16.49903625745746
 20
31.99019741732672
 10
-16.49903625745746
 20
32.00980258267328
 10
-16.498393762429096
 20
32.04906548205942
 10
-16.48340708509903
 20
32.506861116396806
 10
-16.481480288013717
 20
32.54608197208686
 10
-16.48019804885098
 20
32.56564516126946
 10
-16.476989012971295
 20
32.604781974588725
 10
-16.432093156234227
 20
33.06061725773789
 10
-16.427605317876164
 20
33.099628120006486
 10
-16.425046330295643
 20
33.11906556044564
 10
-16.419284495148922
 20
33.1579086978551
 10
-16.344671709955925
 20
33.60983167315243
 10
-16.33764204793795
 20
33.64846549149826
 10
-16.333817269917322
 20
33.66769394908997
 10
-16.325527308566247
 20
33.70607707831187
 10
-16.22151709831829
 20
34.15215254219665
 10
-16.21197571473235
 20
34.19024388067851
 10
-16.206901524558283
 20
34.20918101621539
 10
-16.196118935890073
 20
34.246939774797646
 10
-16.063156688275406
 20
34.685257563650666
 10
-16.051144440790896
 20
34.72264330930906
 10
-16.044842566924725
 20
34.74120803106944
 10
-16.031613523639372
 20
34.778180730211176
 10
-15.870268603414985
 20
35.206863899968916
 10
-15.855836930319725
 20
35.24338396130157
 10
-15.848334358352801
 20
35.261496772296795
 10
-15.832715509244684
 20
35.297525089223925
 10
-15.643678820129113
 20
35.714737952740826
 10
-15.626889520062871
 20
35.75023594523847
 10
-15.618218377160202
 20
35.76781928363106
 10
-15.600276604539062
 20
35.802748939559336
 10
-15.384357630656504
 20
36.2067049273022
 10
-15.3652825979799
 20
36.24102884311083
 10
-15.355480015306618
 20
36.25800741434636
 10
-15.335292148597079
 20
36.29168883512699
 10
-15.093415488142297
 20
36.68065814553963
 10
-15.072136405073424
 20
36.71366100438276
 10
-15.061244358793378
 20
36.72996210361269
 10
-15.038896845540306
 20
36.76225106023047
 10
-14.772098251506796
 20
37.13456806701033
 10
-14.748706238346342
 20
37.16610854557943
 10
-14.736771369874061
 20
37.181662368994026
 10
-14.712359905559852
 20
37.21242059517995
 10
-14.421781850486989
 20
37.56649097974473
 10
-14.396377075426392
 20
37.596434016868535
 10
-14.383450491700755
 20
37.611173960608326
 10
-14.357079609963481
 20
37.64026974491558
 10
-14.043966393693525
 20
37.97457732352062
 10
-14.016657643879972
 20
38.002794698517036
 10
-14.002794698517105
 20
38.0166576438799
 10
-13.974577323520695
 20
38.04396639369345
 10
-13.640269744915518
 20
38.35707960996354
 10
-13.611173960608095
 20
38.38345049170096
 10
-13.596434016868429
 20
38.396377075426486
 10
-13.566490979744778
 20
38.421781850486944
 10
-13.2124205951799
 20
38.712359905559886
 10
-13.181662368993967
 20
38.736771369874106
 10
-13.166108545579423
 20
38.748706238346344
 10
-13.134568067010353
 20
38.772098251506776
 10
-12.762251060230446
 20
39.03889684554033
 10
-12.729962103612399
 20
39.06124435879358
 10
-12.713661004382729
 20
39.072136405073444
 10
-12.680658145539853
 20
39.09341548814215
 10
-12.291688835126916
 20
39.33529214859711
 10
-12.258007414346366
 20
39.355480015306604
 10
-12.241028843110723
 20
39.365282597979956
 10
-12.206704927302019
 20
39.3843576306566
 10
-11.802748939559331
 20
39.60027660453907
 10
-11.76781928363087
 20
39.6182183771603
 10
-11.750235945238426
 20
39.62688952006289
 10
-11.714737952740974
 20
39.64367882012904
 10
-11.297525089223935
 20
39.83271550924468
 10
-11.26149677229693
 20
39.848334358352744
 10
-11.243383961301829
 20
39.85583693031962
 10
-11.206863899969022
 20
39.87026860341494
 10
-10.778180730211018
 20
40.03161352363942
 10
-10.74120803106947
 20
40.04484256692471
 10
-10.722643309309213
 20
40.05114444079084
 10
-10.685257563650653
 20
40.063156688275406
 10
-10.24693977479763
 20
40.19611893589008
 10
-10.20918101621501
 20
40.20690152455839
 10
-10.190243880678226
 20
40.211975714732425
 10
-10.152152542196745
 20
40.22151709831826
 10
-9.706077078311928
 20
40.32552730856623
 10
-9.667693949089998
 20
40.33381726991732
 10
-9.64846549149813
 20
40.337642047937976
 10
-9.60983167315229
 20
40.34467170995595
 10
-9.157908697855211
 20
40.4192844951489
 10
-9.119065560445826
 20
40.42504633029561
 10
-9.099628120006622
 20
40.427605317876136
 10
-9.060617257737995
 20
40.4320931562342
 10
-8.60478197458857
 20
40.4769890129713
 10
-8.565645161269455
 20
40.48019804885098
 10
-8.546081972087062
 20
40.48148028801371
 10
-8.506861116396832
 20
40.48340708509903
 10
-8.049065482059413
 20
40.498393762429096
 10
-8.00980258267328
 20
40.49903625745746
 10
-7.990197417326685
 20
40.49903625745746
 10
-7.950934517940571
 20
40.498393762429096
 10
-7.493138883603367
 20
40.483407085099046
 10
-7.453918027913157
 20
40.48148028801372
 10
-7.43435483873043
 20
40.48019804885097
 10
-7.395218025411273
 20
40.476989012971295
 10
-6.939382742262006
 20
40.43209315623421
 10
-6.900371879993376
 20
40.42760531787614
 10
-6.880934439554173
 20
40.425046330295615
 10
-6.842091302144783
 20
40.4192844951489
 10
-6.390168326847689
 20
40.344671709955946
 10
-6.351534508502105
 20
40.337642047938026
 10
-6.3323060509102875
 20
40.33381726991738
 10
-6.293922921688124
 20
40.32552730856625
 10
-5.847847457803439
 20
40.221517098318316
 10
-5.809756119321447
 20
40.21197571473234
 10
-5.790818983784483
 20
40.20690152455825
 10
-5.753060225202381
 20
40.19611893589008
 10
-5.314742436349169
 20
40.063156688275356
 10
-5.2773566906907154
 20
40.05114444079083
 10
-5.258791968930576
 20
40.044842566924736
 10
-5.221819269788894
 20
40.0316135236394
 10
-4.793136100031093
 20
39.87026860341499
 10
-4.756616038698332
 20
39.85583693031969
 10
-4.738503227703212
 20
39.84833435835281
 10
-4.702474910776177
 20
39.83271550924473
 10
-4.285262047259057
 20
39.643678820129054
 10
-4.249764054761793
 20
39.626889520063
 10
-4.23218071636927
 20
39.618218377160375
 10
-4.197251060440609
 20
39.60027660453904
 10
-3.7932950726979153
 20
39.38435763065657
 10
-3.7589711568891007
 20
39.365282597979856
 10
-3.7419925856533753
 20
39.355480015306455
 10
-3.708311164872941
 20
39.33529214859703
 10
-3.3193418544602924
 20
39.09341548814224
 10
-3.2863389956174527
 20
39.072136405073564
 10
-3.2700378963876644
 20
39.06124435879362
 10
-3.2377489397695887
 20
39.03889684554035
 10
-2.8654319329896487
 20
38.772098251506776
 10
-2.8338914544206686
 20
38.748706238346415
 10
-2.818337631006112
 20
38.73677136987417
 10
-2.787579404820085
 20
38.71235990555988
 10
-2.43350902025532
 20
38.42178185048703
 10
-2.4035659831314873
 20
38.39637707542641
 10
-2.3888260393917458
 20
38.38345049170081
 10
-2.359730255084502
 20
38.35707960996355
 10
-2.025422676479289
 20
38.043966393693424
 10
-1.997205301482881
 20
38.01665764387988
 10
-1.9833423561200356
 20
38.002794698517036
 10
-1.9560336063064954
 20
37.974577323520634
 10
-1.6429203900364695
 20
37.64026974491553
 10
-1.6165495082989758
 20
37.61117396060802
 10
-1.603622924573458
 20
37.59643401686836
 10
-1.5782181495130667
 20
37.56649097974479
 10
-1.4288177083319522
 20
37.384446015441206
 10
-1.1382244421100114
 20
37.093852749219266
 10
-0.8457770616118881
 20
36.89844565685496
 10
-0.5208269429532701
 20
36.76384691061181
 10
-0.175861736960098
 20
36.6952290648241
 10
0.17586173696008983
 20
36.6952290648241
 10
0.5208269429532636
 20
36.76384691061181
 10
0.8457770616118861
 20
36.89844565685496
 10
1.138224442110015
 20
37.093852749219266
 10
1.4288177083319458
 20
37.3844460154412
 10
1.578218149513014
 20
37.56649097974473
 10
1.6036229245734726
 20
37.59643401686837
 10
1.616549508299061
 20
37.61117396060811
 10
1.6429203900364835
 20
37.640269744915535
 10
1.9560336063066426
 20
37.97457732352079
 10
1.9833423561202868
 20
38.002794698517306
 10
1.9972053014829505
 20
38.01665764387997
 10
2.0254226764792675
 20
38.04396639369342
 10
2.3597302550844765
 20
38.357079609963534
 10
2.388826039391914
 20
38.38345049170097
 10
2.403565983131573
 20
38.396377075426486
 10
2.4335090202551983
 20
38.42178185048692
 10
2.7875794048200175
 20
38.71235990555982
 10
2.818337631005921
 20
38.73677136987401
 10
2.8338914544205935
 20
38.74870623834635
 10
2.865431932989713
 20
38.772098251506826
 10
3.2377489397695998
 20
39.03889684554036
 10
3.2700378963875965
 20
39.06124435879357
 10
3.2863389956172435
 20
39.07213640507342
 10
3.319341854460166
 20
39.093415488142156
 10
3.7083111648731553
 20
39.33529214859715
 10
3.741992585653585
 20
39.355480015306576
 10
3.7589711568890767
 20
39.36528259797984
 10
3.7932950726978794
 20
39.384357630656545
 10
4.197251060440608
 20
39.60027660453904
 10
4.232180716369222
 20
39.618218377160346
 10
4.249764054761772
 20
39.62688952006299
 10
4.285262047259075
 20
39.64367882012906
 10
4.702474910776136
 20
39.832715509244714
 10
4.738503227703506
 20
39.848334358352936
 10
4.756616038698435
 20
39.85583693031973
 10
4.793136100030877
 20
39.8702686034149
 10
5.221819269788965
 20
40.031613523639415
 10
5.258791968930836
 20
40.044842566924814
 10
5.277356690691111
 20
40.05114444079095
 10
5.3147424363493485
 20
40.063156688275406
 10
5.753060225202363
 20
40.19611893589008
 10
5.7908189837849084
 20
40.20690152455837
 10
5.809756119321688
 20
40.211975714732404
 10
5.847847457803253
 20
40.221517098318266
 10
6.293922921688106
 20
40.325527308566244
 10
6.332306050910277
 20
40.333817269917375
 10
6.351534508502095
 20
40.33764204793802
 10
6.390168326847679
 20
40.34467170995594
 10
6.842091302144772
 20
40.419284495148894
 10
6.880934439554163
 20
40.42504633029561
 10
6.900371879993365
 20
40.427605317876136
 10
6.939382742262
 20
40.4320931562342
 10
7.395218025411428
 20
40.4769890129713
 10
7.434354838730575
 20
40.48019804885098
 10
7.453918027912975
 20
40.48148028801371
 10
7.493138883603173
 20
40.48340708509903
 10
7.950934517940585
 20
40.498393762429096
 10
7.990197417326718
 20
40.49903625745746
 10
8.009802582673315
 20
40.49903625745746
 10
8.04906548205943
 20
40.498393762429096
 10
8.506861116396637
 20
40.483407085099046
 10
8.546081972086865
 20
40.48148028801372
 10
8.565645161269588
 20
40.48019804885097
 10
8.604781974588729
 20
40.476989012971295
 10
9.06061725773799
 20
40.43209315623421
 10
9.099628120006612
 20
40.42760531787614
 10
9.119065560445815
 20
40.425046330295615
 10
9.1579086978552
 20
40.41928449514891
 10
9.609831673152279
 20
40.34467170995596
 10
9.648465491498118
 20
40.33764204793798
 10
9.667693949089987
 20
40.333817269917326
 10
9.706077078311912
 20
40.325527308566244
 10
10.152152542196555
 20
40.221517098318316
 10
10.190243880678148
 20
40.211975714732446
 10
10.209181016215323
 20
40.206901524558305
 10
10.246939774797841
 20
40.19611893589002
 10
10.68525756365053
 20
40.06315668827545
 10
10.722643309308738
 20
40.051144440791
 10
10.74120803106935
 20
40.04484256692475
 10
10.778180730211258
 20
40.031613523639344
 10
11.206863899968962
 20
39.87026860341497
 10
11.243383961301564
 20
39.85583693031973
 10
11.26149677229657
 20
39.8483343583529
 10
11.297525089223761
 20
39.83271550924476
 10
11.714737952740883
 20
39.64367882012908
 10
11.750235945238533
 20
39.62688952006284
 10
11.767819283631155
 20
39.618218377160154
 10
11.80274893955943
 20
39.60027660453901
 10
12.206704927302207
 20
39.384357630656496
 10
12.241028843110954
 20
39.36528259797983
 10
12.258007414346423
 20
39.355480015306576
 10
12.291688835126918
 20
39.33529214859711
 10
12.680658145539734
 20
39.09341548814223
 10
12.713661004382812
 20
39.072136405073394
 10
12.72996210361254
 20
39.06124435879349
 10
12.762251060230387
 20
39.038896845540364
 10
13.134568067010246
 20
38.77209825150685
 10
13.16610854557917
 20
38.74870623834653
 10
13.18166236899394
 20
38.73677136987412
 10
13.212420595180031
 20
38.71235990555979
 10
13.566490979744758
 20
38.421781850486965
 10
13.59643401686827
 20
38.39637707542662
 10
13.611173960607877
 20
38.383450491701154
 10
13.64026974491544
 20
38.35707960996361
 10
13.974577323520695
 20
38.043966393693445
 10
14.002794698517153
 20
38.01665764387985
 10
14.01665764388004
 20
38.002794698516965
 10
14.04396639369353
 20
37.974577323520606
 10
14.357079609963526
 20
37.64026974491553
 10
14.383450491700723
 20
37.61117396060836
 10
14.396377075426319
 20
37.59643401686862
 10
14.421781850487008
 20
37.56649097974471
 10
14.712359905559824
 20
37.21242059517998
 10
14.736771369873914
 20
37.18166236899421
 10
14.74870623834627
 20
37.16610854557952
 10
14.772098251506828
 20
37.134568067010285
 10
15.038896845540256
 20
36.76225106023055
 10
15.061244358793381
 20
36.72996210361269
 10
15.072136405073397
 20
36.7136610043828
 10
15.093415488142229
 20
36.68065814553973
 10
15.33529214859711
 20
36.29168883512692
 10
15.355480015306552
 20
36.25800741434646
 10
15.365282597979826
 20
36.24102884311095
 10
15.384357630656513
 20
36.20670492730218
 10
15.600276604539062
 20
35.80274893955934
 10
15.618218377160257
 20
35.767819283630956
 10
15.626889520062907
 20
35.7502359452384
 10
15.643678820129102
 20
35.714737952740855
 10
15.832715509244714
 20
35.29752508922386
 10
15.848334358352785
 20
35.26149677229684
 10
15.855836930319652
 20
35.24338396130175
 10
15.870268603414956
 20
35.20686389996899
 10
16.031613523639372
 20
34.77818073021117
 10
16.04484256692475
 20
34.74120803106936
 10
16.0511444407909
 20
34.72264330930905
 10
16.06315668827538
 20
34.68525756365074
 10
16.196118935890087
 20
34.246939774797596
 10
16.206901524558333
 20
34.20918101621522
 10
16.211975714732375
 20
34.19024388067842
 10
16.22151709831828
 20
34.15215254219669
 10
16.32552730856624
 20
33.70607707831189
 10
16.333817269917336
 20
33.6676939490899
 10
16.337642047937962
 20
33.64846549149818
 10
16.34467170995592
 20
33.609831673152435
 10
16.419284495148922
 20
33.15790869785509
 10
16.42504633029564
 20
33.11906556044565
 10
16.427605317876157
 20
33.09962812000652
 10
16.43209315623422
 20
33.060617257737924
 10
16.476989012971295
 20
32.60478197458873
 10
16.480198048850987
 20
32.565645161269394
 10
16.48148028801372
 20
32.54608197208681
 10
16.48340708509903
 20
32.50686111639681
 10
16.498393762429096
 20
32.04906548205942
 10
16.49903625745746
 20
32.00980258267328
 10
16.49903625745746
 20
31.99019741732672
 10
16.498393762429096
 20
31.95093451794058
 10
16.48340708509903
 20
31.49313888360321
 10
16.481480288013717
 20
31.453918027913144
 10
16.48019804885098
 20
31.43435483873055
 10
16.476989012971295
 20
31.395218025411285
 10
16.43209315623422
 20
30.939382742262083
 10
16.42760531787615
 20
30.900371879993447
 10
16.425046330295626
 20
30.88093443955427
 10
16.419284495148915
 20
30.84209130214487
 10
16.344671709955932
 20
30.3901683268476
 10
16.33764204793796
 20
30.351534508501782
 10
16.333817269917326
 20
30.332306050910038
 10
16.325527308566244
 20
30.293922921688115
 10
16.221517098318294
 20
29.84784745780336
 10
16.21197571473236
 20
29.80975611932153
 10
16.20690152455829
 20
29.79081898378463
 10
16.196118935890073
 20
29.75306022520235
 10
16.063156688275406
 20
29.31474243634933
 10
16.051144440790868
 20
29.27735669069085
 10
16.044842566924714
 20
29.25879196893053
 10
16.031613523639393
 20
29.221819269788888
 10
15.870268603414956
 20
28.793136100031013
 10
15.855836930319681
 20
28.75661603869831
 10
15.848334358352796
 20
28.73850322770318
 10
15.832715509244693
 20
28.70247491077609
 10
15.643678820129134
 20
28.285262047259216
 10
15.626889520062978
 20
28.249764054761748
 10
15.618218377160314
 20
28.23218071636916
 10
15.600276604539085
 20
28.197251060440703
 10
15.384357630656512
 20
27.793295072697816
 10
15.365282597979808
 20
27.75897115688901
 10
15.35548001530655
 20
27.741992585653534
 10
15.335292148597121
 20
27.708311164873095
 10
15.09341548814224
 20
27.319341854460284
 10
15.07213640507337
 20
27.28633899561716
 10
15.061244358793408
 20
27.27003789638735
 10
15.038896845540323
 20
27.237748939769556
 10
14.772098251506822
 20
26.86543193298971
 10
14.74870623834629
 20
26.83389145442051
 10
14.736771369873969
 20
26.81833763100586
 10
14.712359905559843
 20
26.787579404820047
 10
14.421781850486997
 20
26.433509020255286
 10
14.396377075426438
 20
26.40356598313152
 10
14.383450491700799
 20
26.388826039391727
 10
14.357079609963476
 20
26.35973025508442
 10
14.04396639369349
 20
26.02542267647935
 10
14.016657643879945
 20
25.997205301482943
 10
14.002794698517064
 20
25.983342356120062
 10
13.974577323520654
 20
25.956033606306516
 10
13.64026974491556
 20
25.642920390036505
 10
13.611173960608198
 20
25.616549508299137
 10
13.596434016868418
 20
25.60362292457351
 10
13.566490979744705
 20
25.578218149512992
 10
13.212420595179909
 20
25.28764009444012
 10
13.18166236899399
 20
25.263228630125916
 10
13.166108545579391
 20
25.251293761653635
 10
13.134568067010301
 20
25.22790174849319
 10
12.76225106023051
 20
24.96110315445972
 10
12.729962103612554
 20
24.938755641206527
 10
12.713661004382658
 20
24.92786359492651
 10
12.68065814553969
 20
24.906584511857744
 10
12.291688835126935
 20
24.6647078514029
 10
12.278523334875938
 20
24.656816754232068
 10
11.943230799047509
 20
24.41687623711704
 10
11.663556716126093
 20
24.119425372756055
 10
0.9501387066761667
 20
10.231661286432066
 10
0.782812067175995
 20
10.055117175718873
 10
0.5833216220173438
 20
9.915942502720027
 10
0.3598639386496057
 20
9.819855609452235
 10
0.12162033887669953
 20
9.770804467965213
 10
-0.1216203388766989
 20
9.770804467965213
 10
-0.35986393864960536
 20
9.819855609452235
 10
-0.5833216220173433
 20
9.915942502720027
 10
-0.7828120671759945
 20
10.055117175718873
 10
-0.9501387066761661
 20
10.231661286432066
 10
-11.663556716126086
 20
24.119425372756044
 10
-11.943230799047509
 20
24.416876237117034
 10
-12.278523334875965
 20
24.65681675423208
  0
TEXT
  5
8F
330
17
100
AcDbEntity
  8
NOTAS
100
AcDbText
 10
-36.0
 20
-12.0
 30
0.0
 40
4.0
  1
04 Placa trasera central - Al 6061-T6 10 mm - cantidad 1 - medidas en mm
 11
-36.0
 21
-12.0
 31
0.0
100
AcDbText
  0
ENDSEC
  0
SECTION
  2
OBJECTS
  0
DICTIONARY
  5
A
330
0
100
AcDbDictionary
281
1
  3
ACAD_COLOR
350
B
  3
ACAD_GROUP
350
C
  3
ACAD_LAYOUT
350
D
  3
ACAD_MATERIAL
350
E
  3
ACAD_MLEADERSTYLE
350
F
  3
ACAD_MLINESTYLE
350
10
  3
ACAD_PLOTSETTINGS
350
11
  3
ACAD_PLOTSTYLENAME
350
12
  3
ACAD_SCALELIST
350
14
  3
ACAD_TABLESTYLE
350
15
  3
ACAD_VISUALSTYLE
350
16
  3
EZDXF_META
350
2D
  0
DICTIONARY
  5
B
330
A
100
AcDbDictionary
281
1
  0
DICTIONARY
  5
C
330
A
100
AcDbDictionary
281
1
  0
DICTIONARY
  5
D
330
A
100
AcDbDictionary
281
1
  3
Model
350
1A
  3
Layout1
350
1E
  0
DICTIONARY
  5
E
330
A
100
AcDbDictionary
281
1
  3
ByBlock
350
1F
  3
ByLayer
350
20
  3
Global
350
21
  0
DICTIONARY
  5
F
330
A
100
AcDbDictionary
281
1
  3
Standard
350
2C
  0
DICTIONARY
  5
10
330
A
100
AcDbDictionary
281
1
  3
Standard
350
22
  0
DICTIONARY
  5
11
330
A
100
AcDbDictionary
281
1
  0
ACDBDICTIONARYWDFLT
  5
12
330
A
100
AcDbDictionary
281
1
  3
Normal
350
13
100
AcDbDictionaryWithDefault
340
13
  0
ACDBPLACEHOLDER
  5
13
330
12
  0
DICTIONARY
  5
14
330
A
100
AcDbDictionary
281
1
  0
DICTIONARY
  5
15
330
A
100
AcDbDictionary
281
1
  0
DICTIONARY
  5
16
330
A
100
AcDbDictionary
281
1
  3
2dWireframe
350
5A
  3
Basic
350
5B
  3
Brighten
350
5C
  3
ColorChange
350
5D
  3
Conceptual
350
5E
  3
Dim
350
5F
  3
EdgeColorOff
350
60
  3
Facepattern
350
61
  3
Flat
350
62
  3
FlatWithEdges
350
63
  3
Gouraud
350
64
  3
GouraudWithEdges
350
65
  3
Hidden
350
66
  3
JitterOff
350
67
  3
Linepattern
350
68
  3
Modeling
350
69
  3
OverhangOff
350
6A
  3
Realistic
350
6B
  3
Shaded
350
6C
  3
Shaded with edges
350
6D
  3
Shades of Gray
350
6E
  3
Sketchy
350
6F
  3
Thicken
350
70
  3
Wireframe
350
71
  3
X-Ray
350
72
  0
LAYOUT
  5
1A
330
D
100
AcDbPlotSettings
  1

  4
A3
  6

 40
7.5
 41
20.0
 42
7.5
 43
20.0
 44
420.0
 45
297.0
 46
0.0
 47
0.0
 48
0.0
 49
0.0
140
0.0
141
0.0
142
1.0
143
1.0
 70
1024
 72
1
 73
0
 74
5
  7

 75
16
 76
0
 77
2
 78
300
147
1.0
148
0.0
149
0.0
100
AcDbLayout
  1
Model
 70
1
 71
0
 10
0.0
 20
0.0
 11
420.0
 21
297.0
 12
0.0
 22
0.0
 32
0.0
 14
1e+20
 24
1e+20
 34
1e+20
 15
-1e+20
 25
-1e+20
 35
-1e+20
146
0.0
 13
0.0
 23
0.0
 33
0.0
 16
1.0
 26
0.0
 36
0.0
 17
0.0
 27
1.0
 37
0.0
 76
1
330
17
  0
LAYOUT
  5
1E
330
D
100
AcDbPlotSettings
  1

  4
A3
  6

 40
7.5
 41
20.0
 42
7.5
 43
20.0
 44
420.0
 45
297.0
 46
0.0
 47
0.0
 48
0.0
 49
0.0
140
0.0
141
0.0
142
1.0
143
1.0
 70
0
 72
1
 73
0
 74
5
  7

 75
16
 76
0
 77
2
 78
300
147
1.0
148
0.0
149
0.0
100
AcDbLayout
  1
Layout1
 70
1
 71
1
 10
0.0
 20
0.0
 11
420.0
 21
297.0
 12
0.0
 22
0.0
 32
0.0
 14
1e+20
 24
1e+20
 34
1e+20
 15
-1e+20
 25
-1e+20
 35
-1e+20
146
0.0
 13
0.0
 23
0.0
 33
0.0
 16
1.0
 26
0.0
 36
0.0
 17
0.0
 27
1.0
 37
0.0
 76
1
330
1B
  0
MATERIAL
  5
1F
102
{ACAD_REACTORS
330
E
102
}
330
E
100
AcDbMaterial
  1
ByBlock
  2

 70
0
 40
1.0
 71
1
 41
1.0
 91
-1023410177
 42
1.0
 72
1
  3

 73
1
 74
1
 75
1
 44
0.5
 73
0
 45
1.0
 46
1.0
 77
1
  4

 78
1
 79
1
170
1
 48
1.0
171
1
  6

172
1
173
1
174
1
140
1.0
141
1.0
175
1
  7

176
1
177
1
178
1
143
1.0
179
1
  8

270
1
271
1
272
1
145
1.0
146
1.0
273
1
  9

274
1
275
1
276
1
 42
1.0
 72
1
  3

 73
1
 74
1
 75
1
 94
63
  0
MATERIAL
  5
20
102
{ACAD_REACTORS
330
E
102
}
330
E
100
AcDbMaterial
  1
ByLayer
  2

 70
0
 40
1.0
 71
1
 41
1.0
 91
-1023410177
 42
1.0
 72
1
  3

 73
1
 74
1
 75
1
 44
0.5
 73
0
 45
1.0
 46
1.0
 77
1
  4

 78
1
 79
1
170
1
 48
1.0
171
1
  6

172
1
173
1
174
1
140
1.0
141
1.0
175
1
  7

176
1
177
1
178
1
143
1.0
179
1
  8

270
1
271
1
272
1
145
1.0
146
1.0
273
1
  9

274
1
275
1
276
1
 42
1.0
 72
1
  3

 73
1
 74
1
 75
1
 94
63
  0
MATERIAL
  5
21
102
{ACAD_REACTORS
330
E
102
}
330
E
100
AcDbMaterial
  1
Global
  2

 70
0
 40
1.0
 71
1
 41
1.0
 91
-1023410177
 42
1.0
 72
1
  3

 73
1
 74
1
 75
1
 44
0.5
 73
0
 45
1.0
 46
1.0
 77
1
  4

 78
1
 79
1
170
1
 48
1.0
171
1
  6

172
1
173
1
174
1
140
1.0
141
1.0
175
1
  7

176
1
177
1
178
1
143
1.0
179
1
  8

270
1
271
1
272
1
145
1.0
146
1.0
273
1
  9

274
1
275
1
276
1
 42
1.0
 72
1
  3

 73
1
 74
1
 75
1
 94
63
  0
MLINESTYLE
  5
22
102
{ACAD_REACTORS
330
10
102
}
330
10
100
AcDbMlineStyle
  2
Standard
 70
0
  3

 62
256
 51
90.0
 52
90.0
 71
2
 49
0.5
 62
256
  6
BYLAYER
 49
-0.5
 62
256
  6
BYLAYER
  0
MLEADERSTYLE
  5
2C
102
{ACAD_REACTORS
330
F
102
}
330
F
100
AcDbMLeaderStyle
179
2
170
2
171
1
172
0
 90
2
 40
0.0
 41
0.0
173
1
 91
-1056964608
 92
-2
290
1
 42
2.0
291
1
 43
8.0
  3
Standard
 44
4.0
300

342
29
174
1
175
1
176
0
178
1
 93
-1056964608
 45
4.0
292
0
297
0
 46
4.0
 94
-1056964608
 47
1.0
 49
1.0
140
1.0
294
1
141
0.0
177
0
142
1.0
295
0
296
0
143
3.75
271
0
272
9
273
9
  0
DICTIONARY
  5
2D
330
A
100
AcDbDictionary
280
1
281
1
  3
CREATED_BY_EZDXF
350
2E
  3
WRITTEN_BY_EZDXF
350
92
  0
DICTIONARYVAR
  5
2E
330
2D
100
DictionaryVariables
280
0
  1
1.4.4 @ 2026-09-25T04:50:42.651808+00:00
  0
VISUALSTYLE
  5
5A
102
{ACAD_REACTORS
330
16
102
}
330
16
100
AcDbVisualStyle
  2
2dWireframe
 70
4
 90
0
 40
0.6
 62
7
290
0
291
0
  0
VISUALSTYLE
  5
5B
102
{ACAD_REACTORS
330
16
102
}
330
16
100
AcDbVisualStyle
  2
Basic
 70
7
 90
1
 40
0.6
 62
7
290
0
291
1
  0
VISUALSTYLE
  5
5C
102
{ACAD_REACTORS
330
16
102
}
330
16
100
AcDbVisualStyle
  2
Brighten
 70
12
 90
2
 40
0.6
 62
7
290
0
291
1
  0
VISUALSTYLE
  5
5D
102
{ACAD_REACTORS
330
16
102
}
330
16
100
AcDbVisualStyle
  2
ColorChange
 70
16
 90
2
 40
0.6
 62
8
290
0
291
1
  0
VISUALSTYLE
  5
5E
102
{ACAD_REACTORS
330
16
102
}
330
16
100
AcDbVisualStyle
  2
Conceptual
 70
9
 90
3
 40
0.6
 62
7
290
0
291
0
  0
VISUALSTYLE
  5
5F
102
{ACAD_REACTORS
330
16
102
}
330
16
100
AcDbVisualStyle
  2
Dim
 70
11
 90
2
 40
0.6
 62
7
290
0
291
1
  0
VISUALSTYLE
  5
60
102
{ACAD_REACTORS
330
16
102
}
330
16
100
AcDbVisualStyle
  2
EdgeColorOff
 70
22
 90
2
 40
0.6
 62
7
290
0
291
1
  0
VISUALSTYLE
  5
61
102
{ACAD_REACTORS
330
16
102
}
330
16
100
AcDbVisualStyle
  2
Facepattern
 70
15
 90
2
 40
0.6
 62
7
290
0
291
1
  0
VISUALSTYLE
  5
62
102
{ACAD_REACTORS
330
16
102
}
330
16
100
AcDbVisualStyle
  2
Flat
 70
0
 90
2
 40
0.6
 62
7
290
0
291
1
  0
VISUALSTYLE
  5
63
102
{ACAD_REACTORS
330
16
102
}
330
16
100
AcDbVisualStyle
  2
FlatWithEdges
 70
1
 90
2
 40
0.6
 62
7
290
0
291
1
  0
VISUALSTYLE
  5
64
102
{ACAD_REACTORS
330
16
102
}
330
16
100
AcDbVisualStyle
  2
Gouraud
 70
2
 90
2
 40
0.6
 62
7
290
0
291
1
  0
VISUALSTYLE
  5
65
102
{ACAD_REACTORS
330
16
102
}
330
16
100
AcDbVisualStyle
  2
GouraudWithEdges
 70
3
 90
2
 40
0.6
 62
7
290
0
291
1
  0
VISUALSTYLE
  5
66
102
{ACAD_REACTORS
330
16
102
}
330
16
100
AcDbVisualStyle
  2
Hidden
 70
6
 90
1
 40
0.6
 62
7
290
0
291
0
  0
VISUALSTYLE
  5
67
102
{ACAD_REACTORS
330
16
102
}
330
16
100
AcDbVisualStyle
  2
JitterOff
 70
20
 90
2
 40
0.6
 62
7
290
0
291
1
  0
VISUALSTYLE
  5
68
102
{ACAD_REACTORS
330
16
102
}
330
16
100
AcDbVisualStyle
  2
Linepattern
 70
14
 90
2
 40
0.6
 62
7
290
0
291
1
  0
VISUALSTYLE
  5
69
102
{ACAD_REACTORS
330
16
102
}
330
16
100
AcDbVisualStyle
  2
Modeling
 70
10
 90
2
 40
0.6
 62
7
290
0
291
0
  0
VISUALSTYLE
  5
6A
102
{ACAD_REACTORS
330
16
102
}
330
16
100
AcDbVisualStyle
  2
OverhangOff
 70
21
 90
2
 40
0.6
 62
7
290
0
291
1
  0
VISUALSTYLE
  5
6B
102
{ACAD_REACTORS
330
16
102
}
330
16
100
AcDbVisualStyle
  2
Realistic
 70
8
 90
2
 40
0.6
 62
7
290
0
291
0
  0
VISUALSTYLE
  5
6C
102
{ACAD_REACTORS
330
16
102
}
330
16
100
AcDbVisualStyle
  2
Shaded
 70
27
 90
2
 40
0.6
 62
7
290
0
291
0
  0
VISUALSTYLE
  5
6D
102
{ACAD_REACTORS
330
16
102
}
330
16
100
AcDbVisualStyle
  2
Shaded with edges
 70
26
 90
2
 40
0.6
 62
7
290
0
291
0
  0
VISUALSTYLE
  5
6E
102
{ACAD_REACTORS
330
16
102
}
330
16
100
AcDbVisualStyle
  2
Shades of Gray
 70
23
 90
2
 40
0.6
 62
7
290
0
291
0
  0
VISUALSTYLE
  5
6F
102
{ACAD_REACTORS
330
16
102
}
330
16
100
AcDbVisualStyle
  2
Sketchy
 70
24
 90
1
 40
0.6
 62
7
290
0
291
0
  0
VISUALSTYLE
  5
70
102
{ACAD_REACTORS
330
16
102
}
330
16
100
AcDbVisualStyle
  2
Thicken
 70
13
 90
2
 40
0.6
 62
7
290
0
291
1
  0
VISUALSTYLE
  5
71
102
{ACAD_REACTORS
330
16
102
}
330
16
100
AcDbVisualStyle
  2
Wireframe
 70
5
 90
0
 40
0.6
 62
7
290
0
291
0
  0
VISUALSTYLE
  5
72
102
{ACAD_REACTORS
330
16
102
}
330
16
100
AcDbVisualStyle
  2
X-Ray
 70
25
 90
2
 40
0.5
 62
7
290
0
291
0
  0
DICTIONARYVAR
  5
92
330
2D
100
DictionaryVariables
280
0
  1
1.4.4 @ 2026-09-25T04:50:42.657285+00:00
  0
ENDSEC
  0
EOF
