  0
SECTION
  2
HEADER
  9
$ACADVER
  1
AC1024
  9
$ACADMAINTVER
 70
6
  9
$DWGCODEPAGE
  3
ANSI_1252
  9
$LASTSAVEDBY
  1
ezdxf
  9
$INSBASE
 10
0.0
 20
0.0
 30
0.0
  9
$EXTMIN
 10
1e+20
 20
1e+20
 30
1e+20
  9
$EXTMAX
 10
-1e+20
 20
-1e+20
 30
-1e+20
  9
$LIMMIN
 10
0.0
 20
0.0
  9
$LIMMAX
 10
420.0
 20
297.0
  9
$ORTHOMODE
 70
0
  9
$REGENMODE
 70
1
  9
$FILLMODE
 70
1
  9
$QTEXTMODE
 70
0
  9
$MIRRTEXT
 70
1
  9
$LTSCALE
 40
1.0
  9
$ATTMODE
 70
1
  9
$TEXTSIZE
 40
2.5
  9
$TRACEWID
 40
1.0
  9
$TEXTSTYLE
  7
OpenSans
  9
$CLAYER
  8
0
  9
$CELTYPE
  6
ByLayer
  9
$CECOLOR
 62
256
  9
$CELTSCALE
 40
1.0
  9
$DISPSILH
 70
0
  9
$DIMSCALE
 40
1.0
  9
$DIMASZ
 40
0.175
  9
$DIMEXO
 40
0.125
  9
$DIMDLI
 40
3.75
  9
$DIMRND
 40
0.0
  9
$DIMDLE
 40
0.0
  9
$DIMEXE
 40
0.375
  9
$DIMTP
 40
0.0
  9
$DIMTM
 40
0.0
  9
$DIMTXT
 40
0.25
  9
$DIMCEN
 40
2.5
  9
$DIMTSZ
 40
0.0
  9
$DIMTOL
 70
0
  9
$DIMLIM
 70
0
  9
$DIMTIH
 70
0
  9
$DIMTOH
 70
0
  9
$DIMSE1
 70
0
  9
$DIMSE2
 70
0
  9
$DIMTAD
 70
1
  9
$DIMZIN
 70
12
  9
$DIMBLK
  1
ARCHTICK
  9
$DIMASO
 70
1
  9
$DIMSHO
 70
1
  9
$DIMPOST
  1

  9
$DIMAPOST
  1

  9
$DIMALT
 70
0
  9
$DIMALTD
 70
3
  9
$DIMALTF
 40
0.03937007874
  9
$DIMLFAC
 40
100.0
  9
$DIMTOFL
 70
1
  9
$DIMTVP
 40
0.0
  9
$DIMTIX
 70
0
  9
$DIMSOXD
 70
0
  9
$DIMSAH
 70
0
  9
$DIMBLK1
  1

  9
$DIMBLK2
  1

  9
$DIMSTYLE
  2
EZDXF
  9
$DIMCLRD
 70
0
  9
$DIMCLRE
 70
0
  9
$DIMCLRT
 70
0
  9
$DIMTFAC
 40
0.5
  9
$DIMGAP
 40
0.1
  9
$DIMJUST
 70
0
  9
$DIMSD1
 70
0
  9
$DIMSD2
 70
0
  9
$DIMTOLJ
 70
0
  9
$DIMTZIN
 70
8
  9
$DIMALTZ
 70
0
  9
$DIMALTTZ
 70
0
  9
$DIMUPT
 70
1
  9
$DIMDEC
 70
2
  9
$DIMTDEC
 70
2
  9
$DIMALTU
 70
2
  9
$DIMALTTD
 70
3
  9
$DIMTXSTY
  7
OpenSansCondensed-Light
  9
$DIMAUNIT
 70
0
  9
$DIMADEC
 70
2
  9
$DIMALTRND
 40
0.0
  9
$DIMAZIN
 70
3
  9
$DIMDSEP
 70
46
  9
$DIMATFIT
 70
3
  9
$DIMFRAC
 70
0
  9
$DIMLDRBLK
  1

  9
$DIMLUNIT
 70
2
  9
$DIMLWD
 70
-2
  9
$DIMLWE
 70
-2
  9
$DIMTMOVE
 70
2
  9
$DIMFXL
 40
1.0
  9
$DIMFXLON
 70
0
  9
$DIMJOGANG
 40
0.785398163397
  9
$DIMTFILL
 70
0
  9
$DIMTFILLCLR
 70
0
  9
$DIMARCSYM
 70
0
  9
$DIMLTYPE
  6

  9
$DIMLTEX1
  6

  9
$DIMLTEX2
  6

  9
$DIMTXTDIRECTION
 70
0
  9
$LUNITS
 70
2
  9
$LUPREC
 70
4
  9
$SKETCHINC
 40
1.0
  9
$FILLETRAD
 40
10.0
  9
$AUNITS
 70
0
  9
$AUPREC
 70
2
  9
$MENU
  1
.
  9
$ELEVATION
 40
0.0
  9
$PELEVATION
 40
0.0
  9
$THICKNESS
 40
0.0
  9
$LIMCHECK
 70
0
  9
$CHAMFERA
 40
0.0
  9
$CHAMFERB
 40
0.0
  9
$CHAMFERC
 40
0.0
  9
$CHAMFERD
 40
0.0
  9
$SKPOLY
 70
0
  9
$TDCREATE
 40
2461309.201875
  9
$TDUCREATE
 40
2458532.153996898
  9
$TDUPDATE
 40
2461309.201875
  9
$TDUUPDATE
 40
2458532.1544311
  9
$TDINDWG
 40
0.0
  9
$TDUSRTIMER
 40
0.0
  9
$USRTIMER
 70
1
  9
$ANGBASE
 50
0.0
  9
$ANGDIR
 70
0
  9
$PDMODE
 70
0
  9
$PDSIZE
 40
0.0
  9
$PLINEWID
 40
0.0
  9
$SPLFRAME
 70
0
  9
$SPLINETYPE
 70
6
  9
$SPLINESEGS
 70
8
  9
$HANDSEED
  5
96
  9
$SURFTAB1
 70
6
  9
$SURFTAB2
 70
6
  9
$SURFTYPE
 70
6
  9
$SURFU
 70
6
  9
$SURFV
 70
6
  9
$UCSBASE
  2

  9
$UCSNAME
  2

  9
$UCSORG
 10
0.0
 20
0.0
 30
0.0
  9
$UCSXDIR
 10
1.0
 20
0.0
 30
0.0
  9
$UCSYDIR
 10
0.0
 20
1.0
 30
0.0
  9
$UCSORTHOREF
  2

  9
$UCSORTHOVIEW
 70
0
  9
$UCSORGTOP
 10
0.0
 20
0.0
 30
0.0
  9
$UCSORGBOTTOM
 10
0.0
 20
0.0
 30
0.0
  9
$UCSORGLEFT
 10
0.0
 20
0.0
 30
0.0
  9
$UCSORGRIGHT
 10
0.0
 20
0.0
 30
0.0
  9
$UCSORGFRONT
 10
0.0
 20
0.0
 30
0.0
  9
$UCSORGBACK
 10
0.0
 20
0.0
 30
0.0
  9
$PUCSBASE
  2

  9
$PUCSNAME
  2

  9
$PUCSORG
 10
0.0
 20
0.0
 30
0.0
  9
$PUCSXDIR
 10
1.0
 20
0.0
 30
0.0
  9
$PUCSYDIR
 10
0.0
 20
1.0
 30
0.0
  9
$PUCSORTHOREF
  2

  9
$PUCSORTHOVIEW
 70
0
  9
$PUCSORGTOP
 10
0.0
 20
0.0
 30
0.0
  9
$PUCSORGBOTTOM
 10
0.0
 20
0.0
 30
0.0
  9
$PUCSORGLEFT
 10
0.0
 20
0.0
 30
0.0
  9
$PUCSORGRIGHT
 10
0.0
 20
0.0
 30
0.0
  9
$PUCSORGFRONT
 10
0.0
 20
0.0
 30
0.0
  9
$PUCSORGBACK
 10
0.0
 20
0.0
 30
0.0
  9
$USERI1
 70
0
  9
$USERI2
 70
0
  9
$USERI3
 70
0
  9
$USERI4
 70
0
  9
$USERI5
 70
0
  9
$USERR1
 40
0.0
  9
$USERR2
 40
0.0
  9
$USERR3
 40
0.0
  9
$USERR4
 40
0.0
  9
$USERR5
 40
0.0
  9
$WORLDVIEW
 70
1
  9
$SHADEDGE
 70
3
  9
$SHADEDIF
 70
70
  9
$TILEMODE
 70
1
  9
$MAXACTVP
 70
64
  9
$PINSBASE
 10
0.0
 20
0.0
 30
0.0
  9
$PLIMCHECK
 70
0
  9
$PEXTMIN
 10
1e+20
 20
1e+20
 30
1e+20
  9
$PEXTMAX
 10
-1e+20
 20
-1e+20
 30
-1e+20
  9
$PLIMMIN
 10
0.0
 20
0.0
  9
$PLIMMAX
 10
420.0
 20
297.0
  9
$UNITMODE
 70
0
  9
$VISRETAIN
 70
1
  9
$PLINEGEN
 70
0
  9
$PSLTSCALE
 70
1
  9
$TREEDEPTH
 70
3020
  9
$CMLSTYLE
  2
Standard
  9
$CMLJUST
 70
0
  9
$CMLSCALE
 40
20.0
  9
$PROXYGRAPHICS
 70
1
  9
$MEASUREMENT
 70
1
  9
$CELWEIGHT
370
-1
  9
$ENDCAPS
280
0
  9
$JOINSTYLE
280
0
  9
$LWDISPLAY
290
0
  9
$INSUNITS
 70
4
  9
$HYPERLINKBASE
  1

  9
$STYLESHEET
  1

  9
$XEDIT
290
1
  9
$CEPSNTYPE
380
0
  9
$PSTYLEMODE
290
1
  9
$FINGERPRINTGUID
  2
{7ED4B671-A00D-4BF3-A072-4DAF0E3E8FCE}
  9
$VERSIONGUID
  2
{60035359-83E1-451B-8BDC-D7EAB4B0FCEE}
  9
$EXTNAMES
290
1
  9
$PSVPSCALE
 40
0.0
  9
$OLESTARTUP
290
0
  9
$SORTENTS
280
127
  9
$INDEXCTL
280
0
  9
$HIDETEXT
280
1
  9
$XCLIPFRAME
280
1
  9
$HALOGAP
280
0
  9
$OBSCOLOR
 70
257
  9
$OBSLTYPE
280
0
  9
$INTERSECTIONDISPLAY
280
0
  9
$INTERSECTIONCOLOR
 70
257
  9
$DIMASSOC
280
2
  9
$PROJECTNAME
  1

  9
$CAMERADISPLAY
290
0
  9
$LENSLENGTH
 40
50.0
  9
$CAMERAHEIGHT
 40
0.0
  9
$STEPSPERSEC
 40
24.0
  9
$STEPSIZE
 40
100.0
  9
$3DDWFPREC
 40
2.0
  9
$PSOLWIDTH
 40
0.005
  9
$PSOLHEIGHT
 40
0.08
  9
$LOFTANG1
 40
1.570796326795
  9
$LOFTANG2
 40
1.570796326795
  9
$LOFTMAG1
 40
0.0
  9
$LOFTMAG2
 40
0.0
  9
$LOFTPARAM
 70
7
  9
$LOFTNORMALS
280
1
  9
$LATITUDE
 40
37.795
  9
$LONGITUDE
 40
-122.394
  9
$NORTHDIRECTION
 40
0.0
  9
$TIMEZONE
 70
-8000
  9
$LIGHTGLYPHDISPLAY
280
1
  9
$TILEMODELIGHTSYNCH
280
1
  9
$CMATERIAL
347
20
  9
$SOLIDHIST
280
0
  9
$SHOWHIST
280
1
  9
$DWFFRAME
280
2
  9
$DGNFRAME
280
2
  9
$REALWORLDSCALE
290
1
  9
$INTERFERECOLOR
 62
256
  9
$CSHADOW
280
0
  9
$SHADOWPLANELOCATION
 40
0.0
  0
ENDSEC
  0
SECTION
  2
CLASSES
  0
CLASS
  1
ACDBDICTIONARYWDFLT
  2
AcDbDictionaryWithDefault
  3
ObjectDBX Classes
 90
0
 91
0
280
0
281
0
  0
CLASS
  1
SUN
  2
AcDbSun
  3
SCENEOE
 90
1153
 91
0
280
0
281
0
  0
CLASS
  1
VISUALSTYLE
  2
AcDbVisualStyle
  3
ObjectDBX Classes
 90
4095
 91
0
280
0
281
0
  0
CLASS
  1
MATERIAL
  2
AcDbMaterial
  3
ObjectDBX Classes
 90
1153
 91
0
280
0
281
0
  0
CLASS
  1
SCALE
  2
AcDbScale
  3
ObjectDBX Classes
 90
1153
 91
0
280
0
281
0
  0
CLASS
  1
TABLESTYLE
  2
AcDbTableStyle
  3
ObjectDBX Classes
 90
4095
 91
0
280
0
281
0
  0
CLASS
  1
MLEADERSTYLE
  2
AcDbMLeaderStyle
  3
ACDB_MLEADERSTYLE_CLASS
 90
4095
 91
0
280
0
281
0
  0
CLASS
  1
DICTIONARYVAR
  2
AcDbDictionaryVar
  3
ObjectDBX Classes
 90
0
 91
0
280
0
281
0
  0
CLASS
  1
CELLSTYLEMAP
  2
AcDbCellStyleMap
  3
ObjectDBX Classes
 90
1152
 91
0
280
0
281
0
  0
CLASS
  1
MENTALRAYRENDERSETTINGS
  2
AcDbMentalRayRenderSettings
  3
SCENEOE
 90
1024
 91
0
280
0
281
0
  0
CLASS
  1
ACDBDETAILVIEWSTYLE
  2
AcDbDetailViewStyle
  3
ObjectDBX Classes
 90
1025
 91
0
280
0
281
0
  0
CLASS
  1
ACDBSECTIONVIEWSTYLE
  2
AcDbSectionViewStyle
  3
ObjectDBX Classes
 90
1025
 91
0
280
0
281
0
  0
CLASS
  1
RASTERVARIABLES
  2
AcDbRasterVariables
  3
ISM
 90
0
 91
0
280
0
281
0
  0
CLASS
  1
ACDBPLACEHOLDER
  2
AcDbPlaceHolder
  3
ObjectDBX Classes
 90
0
 91
0
280
0
281
0
  0
CLASS
  1
LAYOUT
  2
AcDbLayout
  3
ObjectDBX Classes
 90
0
 91
0
280
0
281
0
  0
ENDSEC
  0
SECTION
  2
TABLES
  0
TABLE
  2
VPORT
  5
8
330
0
100
AcDbSymbolTable
 70
1
  0
VPORT
  5
23
330
8
100
AcDbSymbolTableRecord
100
AcDbViewportTableRecord
  2
*Active
 70
0
 10
0.0
 20
0.0
 11
1.0
 21
1.0
 12
0.0
 22
0.0
 13
0.0
 23
0.0
 14
0.5
 24
0.5
 15
0.5
 25
0.5
 16
0.0
 26
0.0
 36
1.0
 17
0.0
 27
0.0
 37
0.0
 40
1000.0
 41
1.34
 42
50.0
 43
0.0
 44
0.0
 50
0.0
 51
0.0
 71
0
 72
1000
 73
1
 74
3
 75
0
 76
0
 77
0
 78
0
281
0
 65
0
146
0.0
  0
ENDTAB
  0
TABLE
  2
LTYPE
  5
2
330
0
100
AcDbSymbolTable
 70
21
  0
LTYPE
  5
24
330
2
100
AcDbSymbolTableRecord
100
AcDbLinetypeTableRecord
  2
ByBlock
 70
0
  3

 72
65
 73
0
 40
0.0
  0
LTYPE
  5
25
330
2
100
AcDbSymbolTableRecord
100
AcDbLinetypeTableRecord
  2
ByLayer
 70
0
  3

 72
65
 73
0
 40
0.0
  0
LTYPE
  5
26
330
2
100
AcDbSymbolTableRecord
100
AcDbLinetypeTableRecord
  2
Continuous
 70
0
  3

 72
65
 73
0
 40
0.0
  0
LTYPE
  5
2F
330
2
100
AcDbSymbolTableRecord
100
AcDbLinetypeTableRecord
  2
CENTER
 70
0
  3
Center ____ _ ____ _ ____ _ ____ _ ____ _ ____
 72
65
 73
4
 40
5.08
 49
3.175
 74
0
 49
-0.635
 74
0
 49
0.635
 74
0
 49
-0.635
 74
0
  0
LTYPE
  5
30
330
2
100
AcDbSymbolTableRecord
100
AcDbLinetypeTableRecord
  2
CENTERX2
 70
0
  3
Center (2x) ________  __  ________  __  ________
 72
65
 73
4
 40
8.89
 49
6.35
 74
0
 49
-0.635
 74
0
 49
1.27
 74
0
 49
-0.635
 74
0
  0
LTYPE
  5
31
330
2
100
AcDbSymbolTableRecord
100
AcDbLinetypeTableRecord
  2
CENTER2
 70
0
  3
Center (.5x) ____ _ ____ _ ____ _ ____ _ ____
 72
65
 73
4
 40
2.54
 49
1.587
 74
0
 49
-0.318
 74
0
 49
0.318
 74
0
 49
-0.318
 74
0
  0
LTYPE
  5
32
330
2
100
AcDbSymbolTableRecord
100
AcDbLinetypeTableRecord
  2
DASHED
 70
0
  3
Dashed __ __ __ __ __ __ __ __ __ __ __ __ __ _
 72
65
 73
2
 40
1.524
 49
1.27
 74
0
 49
-0.254
 74
0
  0
LTYPE
  5
33
330
2
100
AcDbSymbolTableRecord
100
AcDbLinetypeTableRecord
  2
DASHEDX2
 70
0
  3
Dashed (2x) ____  ____  ____  ____  ____  ____
 72
65
 73
2
 40
3.048
 49
2.54
 74
0
 49
-0.508
 74
0
  0
LTYPE
  5
34
330
2
100
AcDbSymbolTableRecord
100
AcDbLinetypeTableRecord
  2
DASHED2
 70
0
  3
Dashed (.5x) _ _ _ _ _ _ _ _ _ _ _ _ _ _
 72
65
 73
2
 40
0.762
 49
0.635
 74
0
 49
-0.127
 74
0
  0
LTYPE
  5
35
330
2
100
AcDbSymbolTableRecord
100
AcDbLinetypeTableRecord
  2
PHANTOM
 70
0
  3
Phantom ______  __  __  ______  __  __  ______
 72
65
 73
6
 40
6.35
 49
3.175
 74
0
 49
-0.635
 74
0
 49
0.635
 74
0
 49
-0.635
 74
0
 49
0.635
 74
0
 49
-0.635
 74
0
  0
LTYPE
  5
36
330
2
100
AcDbSymbolTableRecord
100
AcDbLinetypeTableRecord
  2
PHANTOMX2
 70
0
  3
Phantom (2x)____________    ____    ____    ____________
 72
65
 73
6
 40
10.795
 49
6.35
 74
0
 49
-0.635
 74
0
 49
1.27
 74
0
 49
-0.635
 74
0
 49
1.27
 74
0
 49
-0.635
 74
0
  0
LTYPE
  5
37
330
2
100
AcDbSymbolTableRecord
100
AcDbLinetypeTableRecord
  2
PHANTOM2
 70
0
  3
Phantom (.5x) ___ _ _ ___ _ _ ___ _ _ ___ _ _ ___
 72
65
 73
6
 40
3.175
 49
1.587
 74
0
 49
-0.318
 74
0
 49
0.318
 74
0
 49
-0.318
 74
0
 49
0.318
 74
0
 49
-0.318
 74
0
  0
LTYPE
  5
38
330
2
100
AcDbSymbolTableRecord
100
AcDbLinetypeTableRecord
  2
DASHDOT
 70
0
  3
Dash dot __ . __ . __ . __ . __ . __ . __ . __
 72
65
 73
4
 40
3.556
 49
2.54
 74
0
 49
-0.508
 74
0
 49
0.0
 74
0
 49
-0.508
 74
0
  0
LTYPE
  5
39
330
2
100
AcDbSymbolTableRecord
100
AcDbLinetypeTableRecord
  2
DASHDOTX2
 70
0
  3
Dash dot (2x) ____  .  ____  .  ____  .  ____
 72
65
 73
4
 40
6.096
 49
5.08
 74
0
 49
-0.508
 74
0
 49
0.0
 74
0
 49
-0.508
 74
0
  0
LTYPE
  5
3A
330
2
100
AcDbSymbolTableRecord
100
AcDbLinetypeTableRecord
  2
DASHDOT2
 70
0
  3
Dash dot (.5x) _ . _ . _ . _ . _ . _ . _ . _
 72
65
 73
4
 40
1.778
 49
1.27
 74
0
 49
-0.254
 74
0
 49
0.0
 74
0
 49
-0.254
 74
0
  0
LTYPE
  5
3B
330
2
100
AcDbSymbolTableRecord
100
AcDbLinetypeTableRecord
  2
DOT
 70
0
  3
Dot .  .  .  .  .  .  .  .  .  .  .  .  .  .  .  .
 72
65
 73
2
 40
0.508
 49
0.0
 74
0
 49
-0.508
 74
0
  0
LTYPE
  5
3C
330
2
100
AcDbSymbolTableRecord
100
AcDbLinetypeTableRecord
  2
DOTX2
 70
0
  3
Dot (2x) .    .    .    .    .    .    .    . 
 72
65
 73
2
 40
1.016
 49
0.0
 74
0
 49
-1.016
 74
0
  0
LTYPE
  5
3D
330
2
100
AcDbSymbolTableRecord
100
AcDbLinetypeTableRecord
  2
DOT2
 70
0
  3
Dot (.5) . . . . . . . . . . . . . . . . . . . 
 72
65
 73
2
 40
0.254
 49
0.0
 74
0
 49
-0.254
 74
0
  0
LTYPE
  5
3E
330
2
100
AcDbSymbolTableRecord
100
AcDbLinetypeTableRecord
  2
DIVIDE
 70
0
  3
Divide __ . . __ . . __ . . __ . . __ . . __
 72
65
 73
6
 40
4.064
 49
2.54
 74
0
 49
-0.508
 74
0
 49
0.0
 74
0
 49
-0.508
 74
0
 49
0.0
 74
0
 49
-0.508
 74
0
  0
LTYPE
  5
3F
330
2
100
AcDbSymbolTableRecord
100
AcDbLinetypeTableRecord
  2
DIVIDEX2
 70
0
  3
Divide (2x) ____  . .  ____  . .  ____  . .  ____
 72
65
 73
6
 40
6.604
 49
5.08
 74
0
 49
-0.508
 74
0
 49
0.0
 74
0
 49
-0.508
 74
0
 49
0.0
 74
0
 49
-0.508
 74
0
  0
LTYPE
  5
40
330
2
100
AcDbSymbolTableRecord
100
AcDbLinetypeTableRecord
  2
DIVIDE2
 70
0
  3
Divide(.5x) _ . _ . _ . _ . _ . _ . _ . _
 72
65
 73
6
 40
2.032
 49
1.27
 74
0
 49
-0.254
 74
0
 49
0.0
 74
0
 49
-0.254
 74
0
 49
0.0
 74
0
 49
-0.254
 74
0
  0
ENDTAB
  0
TABLE
  2
LAYER
  5
1
330
0
100
AcDbSymbolTable
 70
4
  0
LAYER
  5
27
330
1
100
AcDbSymbolTableRecord
100
AcDbLayerTableRecord
  2
0
 70
0
 62
7
  6
Continuous
370
-3
390
13
347
21
  0
LAYER
  5
28
330
1
100
AcDbSymbolTableRecord
100
AcDbLayerTableRecord
  2
Defpoints
 70
0
 62
7
  6
Continuous
290
0
370
-3
390
13
347
21
  0
LAYER
  5
8A
330
1
100
AcDbSymbolTableRecord
100
AcDbLayerTableRecord
  2
CORTE
 70
0
 62
1
  6
Continuous
370
-3
390
13
347
21
  0
LAYER
  5
8B
330
1
100
AcDbSymbolTableRecord
100
AcDbLayerTableRecord
  2
NOTAS
 70
0
 62
3
  6
Continuous
370
-3
390
13
347
21
  0
ENDTAB
  0
TABLE
  2
STYLE
  5
5
330
0
100
AcDbSymbolTable
 70
26
  0
STYLE
  5
29
330
5
100
AcDbSymbolTableRecord
100
AcDbTextStyleTableRecord
  2
Standard
 70
0
 40
0.0
 41
1.0
 50
0.0
 71
0
 42
2.5
  3
txt
  4

  0
STYLE
  5
41
330
5
100
AcDbSymbolTableRecord
100
AcDbTextStyleTableRecord
  2
OpenSans-Light
 70
0
 40
0.0
 41
1.0
 50
0.0
 71
0
 42
2.5
  3
OpenSans-Light.ttf
  4

  0
STYLE
  5
42
330
5
100
AcDbSymbolTableRecord
100
AcDbTextStyleTableRecord
  2
OpenSans-Light-Italic
 70
0
 40
0.0
 41
1.0
 50
0.0
 71
0
 42
2.5
  3
OpenSans-LightItalic.ttf
  4

  0
STYLE
  5
43
330
5
100
AcDbSymbolTableRecord
100
AcDbTextStyleTableRecord
  2
OpenSans
 70
0
 40
0.0
 41
1.0
 50
0.0
 71
0
 42
2.5
  3
OpenSans-Regular.ttf
  4

  0
STYLE
  5
44
330
5
100
AcDbSymbolTableRecord
100
AcDbTextStyleTableRecord
  2
OpenSans-Italic
 70
0
 40
0.0
 41
1.0
 50
0.0
 71
0
 42
2.5
  3
OpenSans-Italic.ttf
  4

  0
STYLE
  5
45
330
5
100
AcDbSymbolTableRecord
100
AcDbTextStyleTableRecord
  2
OpenSans-SemiBold
 70
0
 40
0.0
 41
1.0
 50
0.0
 71
0
 42
2.5
  3
OpenSans-SemiBold.ttf
  4

  0
STYLE
  5
46
330
5
100
AcDbSymbolTableRecord
100
AcDbTextStyleTableRecord
  2
OpenSans-SemiBoldItalic
 70
0
 40
0.0
 41
1.0
 50
0.0
 71
0
 42
2.5
  3
OpenSans-SemiBoldItalic.ttf
  4

  0
STYLE
  5
47
330
5
100
AcDbSymbolTableRecord
100
AcDbTextStyleTableRecord
  2
OpenSans-Bold
 70
0
 40
0.0
 41
1.0
 50
0.0
 71
0
 42
2.5
  3
OpenSans-Bold.ttf
  4

  0
STYLE
  5
48
330
5
100
AcDbSymbolTableRecord
100
AcDbTextStyleTableRecord
  2
OpenSans-BoldItalic
 70
0
 40
0.0
 41
1.0
 50
0.0
 71
0
 42
2.5
  3
OpenSans-BoldItalic.ttf
  4

  0
STYLE
  5
49
330
5
100
AcDbSymbolTableRecord
100
AcDbTextStyleTableRecord
  2
OpenSans-ExtraBold
 70
0
 40
0.0
 41
1.0
 50
0.0
 71
0
 42
2.5
  3
OpenSans-ExtraBold.ttf
  4

  0
STYLE
  5
4A
330
5
100
AcDbSymbolTableRecord
100
AcDbTextStyleTableRecord
  2
OpenSans-ExtraBoldItalic
 70
0
 40
0.0
 41
1.0
 50
0.0
 71
0
 42
2.5
  3
OpenSans-ExtraBoldItalic.ttf
  4

  0
STYLE
  5
4B
330
5
100
AcDbSymbolTableRecord
100
AcDbTextStyleTableRecord
  2
OpenSansCondensed-Bold
 70
0
 40
0.0
 41
1.0
 50
0.0
 71
0
 42
2.5
  3
OpenSansCondensed-Bold.ttf
  4

  0
STYLE
  5
4C
330
5
100
AcDbSymbolTableRecord
100
AcDbTextStyleTableRecord
  2
OpenSansCondensed-Light
 70
0
 40
0.0
 41
1.0
 50
0.0
 71
0
 42
2.5
  3
OpenSansCondensed-Light.ttf
  4

  0
STYLE
  5
4D
330
5
100
AcDbSymbolTableRecord
100
AcDbTextStyleTableRecord
  2
OpenSansCondensed-Italic
 70
0
 40
0.0
 41
1.0
 50
0.0
 71
0
 42
2.5
  3
OpenSansCondensed-LightItalic.ttf
  4

  0
STYLE
  5
4E
330
5
100
AcDbSymbolTableRecord
100
AcDbTextStyleTableRecord
  2
LiberationSans
 70
0
 40
0.0
 41
1.0
 50
0.0
 71
0
 42
2.5
  3
LiberationSans-Regular.ttf
  4

  0
STYLE
  5
4F
330
5
100
AcDbSymbolTableRecord
100
AcDbTextStyleTableRecord
  2
LiberationSans-Bold
 70
0
 40
0.0
 41
1.0
 50
0.0
 71
0
 42
2.5
  3
LiberationSans-Bold.ttf
  4

  0
STYLE
  5
50
330
5
100
AcDbSymbolTableRecord
100
AcDbTextStyleTableRecord
  2
LiberationSans-BoldItalic
 70
0
 40
0.0
 41
1.0
 50
0.0
 71
0
 42
2.5
  3
LiberationSans-BoldItalic.ttf
  4

  0
STYLE
  5
51
330
5
100
AcDbSymbolTableRecord
100
AcDbTextStyleTableRecord
  2
LiberationSans-Italic
 70
0
 40
0.0
 41
1.0
 50
0.0
 71
0
 42
2.5
  3
LiberationSans-Italic.ttf
  4

  0
STYLE
  5
52
330
5
100
AcDbSymbolTableRecord
100
AcDbTextStyleTableRecord
  2
LiberationSerif
 70
0
 40
0.0
 41
1.0
 50
0.0
 71
0
 42
2.5
  3
LiberationSerif-Regular.ttf
  4

  0
STYLE
  5
53
330
5
100
AcDbSymbolTableRecord
100
AcDbTextStyleTableRecord
  2
LiberationSerif-Bold
 70
0
 40
0.0
 41
1.0
 50
0.0
 71
0
 42
2.5
  3
LiberationSerif-Bold.ttf
  4

  0
STYLE
  5
54
330
5
100
AcDbSymbolTableRecord
100
AcDbTextStyleTableRecord
  2
LiberationSerif-BoldItalic
 70
0
 40
0.0
 41
1.0
 50
0.0
 71
0
 42
2.5
  3
LiberationSerif-BoldItalic.ttf
  4

  0
STYLE
  5
55
330
5
100
AcDbSymbolTableRecord
100
AcDbTextStyleTableRecord
  2
LiberationSerif-Italic
 70
0
 40
0.0
 41
1.0
 50
0.0
 71
0
 42
2.5
  3
LiberationSerif-Italic.ttf
  4

  0
STYLE
  5
56
330
5
100
AcDbSymbolTableRecord
100
AcDbTextStyleTableRecord
  2
LiberationMono
 70
0
 40
0.0
 41
1.0
 50
0.0
 71
0
 42
2.5
  3
LiberationMono-Regular.ttf
  4

  0
STYLE
  5
57
330
5
100
AcDbSymbolTableRecord
100
AcDbTextStyleTableRecord
  2
LiberationMono-Bold
 70
0
 40
0.0
 41
1.0
 50
0.0
 71
0
 42
2.5
  3
LiberationMono-Bold.ttf
  4

  0
STYLE
  5
58
330
5
100
AcDbSymbolTableRecord
100
AcDbTextStyleTableRecord
  2
LiberationMono-BoldItalic
 70
0
 40
0.0
 41
1.0
 50
0.0
 71
0
 42
2.5
  3
LiberationMono-BoldItalic.ttf
  4

  0
STYLE
  5
59
330
5
100
AcDbSymbolTableRecord
100
AcDbTextStyleTableRecord
  2
LiberationMono-Italic
 70
0
 40
0.0
 41
1.0
 50
0.0
 71
0
 42
2.5
  3
LiberationMono-Italic.ttf
  4

  0
ENDTAB
  0
TABLE
  2
VIEW
  5
7
330
0
100
AcDbSymbolTable
 70
0
  0
ENDTAB
  0
TABLE
  2
UCS
  5
6
330
0
100
AcDbSymbolTable
 70
0
  0
ENDTAB
  0
TABLE
  2
APPID
  5
3
330
0
100
AcDbSymbolTable
 70
3
  0
APPID
  5
2A
330
3
100
AcDbSymbolTableRecord
100
AcDbRegAppTableRecord
  2
ACAD
 70
0
  0
APPID
  5
93
330
3
100
AcDbSymbolTableRecord
100
AcDbRegAppTableRecord
  2
HATCHBACKGROUNDCOLOR
 70
0
  0
APPID
  5
94
330
3
100
AcDbSymbolTableRecord
100
AcDbRegAppTableRecord
  2
EZDXF
 70
0
  0
ENDTAB
  0
TABLE
  2
DIMSTYLE
  5
4
330
0
100
AcDbSymbolTable
 70
12
100
AcDbDimStyleTable
  0
DIMSTYLE
105
2B
330
4
100
AcDbSymbolTableRecord
100
AcDbDimStyleTableRecord
  2
Standard
 70
0
 40
1.0
 41
2.5
 42
0.625
 43
3.75
 44
1.25
 45
0.0
 46
0.0
 47
0.0
 48
0.0
 49
2.5
140
2.5
141
2.5
142
0.0
143
0.03937007874
144
1.0
145
0.0
146
1.0
147
0.625
148
0.0
 69
0
 70
0
 71
0
 72
0
 73
0
 74
0
 75
0
 76
0
 77
1
 78
8
 79
3
170
0
171
3
172
1
173
0
174
0
175
0
176
0
177
0
178
0
179
2
271
2
272
2
273
2
274
3
275
0
276
0
277
2
278
44
279
0
280
0
281
0
282
0
283
0
284
8
285
0
286
0
288
0
289
3
290
0
371
-2
372
-2
  0
DIMSTYLE
105
73
330
4
100
AcDbSymbolTableRecord
100
AcDbDimStyleTableRecord
  2
EZDXF
 70
0
 40
1.0
 41
0.175
 42
0.125
 43
3.75
 44
0.375
 45
0.0
 46
0.0
 47
0.0
 48
0.0
 49
2.5
140
0.25
141
2.5
142
0.0
143
0.03937007874
144
100.0
145
0.0
146
0.5
147
0.1
148
0.0
 69
0
 70
0
 71
0
 72
0
 73
0
 74
0
 75
0
 76
0
 77
1
 78
12
 79
3
170
0
171
3
172
1
173
0
174
0
175
0
176
0
177
0
178
0
179
2
271
2
272
2
273
2
274
3
275
0
276
0
277
2
278
46
279
2
280
0
281
0
282
0
283
0
284
8
285
0
286
0
288
1
289
3
290
0
340
4C
342
74
371
-2
372
-2
  0
DIMSTYLE
105
7C
330
4
100
AcDbSymbolTableRecord
100
AcDbDimStyleTableRecord
  2
EZ_M_100_H25_CM
 70
0
 40
1.0
 41
0.25
 42
0.125
 43
3.75
 44
0.375
 45
0.0
 46
0.0
 47
0.0
 48
0.0
 49
2.5
140
0.25
141
2.5
142
0.125
143
0.03937007874
144
100.0
145
0.0
146
0.5
147
0.1
148
0.0
 69
0
 70
0
 71
0
 72
0
 73
0
 74
0
 75
0
 76
0
 77
1
 78
12
 79
3
170
0
171
3
172
1
173
0
174
0
175
0
176
0
177
0
178
0
179
2
271
2
272
2
273
2
274
3
275
0
276
0
277
2
278
46
279
2
280
0
281
0
282
0
283
0
284
8
285
0
286
0
288
1
289
3
290
0
340
4C
371
-2
372
-2
  0
DIMSTYLE
105
7D
330
4
100
AcDbSymbolTableRecord
100
AcDbDimStyleTableRecord
  2
EZ_M_50_H25_CM
 70
0
 40
1.0
 41
0.125
 42
0.0625
 43
3.75
 44
0.1875
 45
0.0
 46
0.0
 47
0.0
 48
0.0
 49
2.5
140
0.125
141
2.5
142
0.0625
143
0.03937007874
144
100.0
145
0.0
146
0.5
147
0.05
148
0.0
 69
0
 70
0
 71
0
 72
0
 73
0
 74
0
 75
0
 76
0
 77
1
 78
12
 79
3
170
0
171
3
172
1
173
0
174
0
175
0
176
0
177
0
178
0
179
2
271
2
272
2
273
2
274
3
275
0
276
0
277
2
278
46
279
2
280
0
281
0
282
0
283
0
284
8
285
0
286
0
288
1
289
3
290
0
340
4C
371
-2
372
-2
  0
DIMSTYLE
105
7E
330
4
100
AcDbSymbolTableRecord
100
AcDbDimStyleTableRecord
  2
EZ_M_25_H25_CM
 70
0
 40
1.0
 41
0.0625
 42
0.03125
 43
3.75
 44
0.09375
 45
0.0
 46
0.0
 47
0.0
 48
0.0
 49
2.5
140
0.0625
141
2.5
142
0.03125
143
0.03937007874
144
100.0
145
0.0
146
0.5
147
0.025
148
0.0
 69
0
 70
0
 71
0
 72
0
 73
0
 74
0
 75
0
 76
0
 77
1
 78
12
 79
3
170
0
171
3
172
1
173
0
174
0
175
0
176
0
177
0
178
0
179
2
271
2
272
2
273
2
274
3
275
0
276
0
277
2
278
46
279
2
280
0
281
0
282
0
283
0
284
8
285
0
286
0
288
1
289
3
290
0
340
4C
371
-2
372
-2
  0
DIMSTYLE
105
7F
330
4
100
AcDbSymbolTableRecord
100
AcDbDimStyleTableRecord
  2
EZ_M_20_H25_CM
 70
0
 40
1.0
 41
0.05
 42
0.025
 43
3.75
 44
0.07500000000000001
 45
0.0
 46
0.0
 47
0.0
 48
0.0
 49
2.5
140
0.05
141
2.5
142
0.025
143
0.03937007874
144
100.0
145
0.0
146
0.5
147
0.020000000000000004
148
0.0
 69
0
 70
0
 71
0
 72
0
 73
0
 74
0
 75
0
 76
0
 77
1
 78
12
 79
3
170
0
171
3
172
1
173
0
174
0
175
0
176
0
177
0
178
0
179
2
271
2
272
2
273
2
274
3
275
0
276
0
277
2
278
46
279
2
280
0
281
0
282
0
283
0
284
8
285
0
286
0
288
1
289
3
290
0
340
4C
371
-2
372
-2
  0
DIMSTYLE
105
80
330
4
100
AcDbSymbolTableRecord
100
AcDbDimStyleTableRecord
  2
EZ_M_10_H25_CM
 70
0
 40
1.0
 41
0.025
 42
0.0125
 43
3.75
 44
0.037500000000000006
 45
0.0
 46
0.0
 47
0.0
 48
0.0
 49
2.5
140
0.025
141
2.5
142
0.0125
143
0.03937007874
144
100.0
145
0.0
146
0.5
147
0.010000000000000002
148
0.0
 69
0
 70
0
 71
0
 72
0
 73
0
 74
0
 75
0
 76
0
 77
1
 78
12
 79
3
170
0
171
3
172
1
173
0
174
0
175
0
176
0
177
0
178
0
179
2
271
2
272
2
273
2
274
3
275
0
276
0
277
2
278
46
279
2
280
0
281
0
282
0
283
0
284
8
285
0
286
0
288
1
289
3
290
0
340
4C
371
-2
372
-2
  0
DIMSTYLE
105
81
330
4
100
AcDbSymbolTableRecord
100
AcDbDimStyleTableRecord
  2
EZ_M_5_H25_CM
 70
0
 40
1.0
 41
0.0125
 42
0.00625
 43
3.75
 44
0.018750000000000003
 45
0.0
 46
0.0
 47
0.0
 48
0.0
 49
2.5
140
0.0125
141
2.5
142
0.00625
143
0.03937007874
144
100.0
145
0.0
146
0.5
147
0.005000000000000001
148
0.0
 69
0
 70
0
 71
0
 72
0
 73
0
 74
0
 75
0
 76
0
 77
1
 78
12
 79
3
170
0
171
3
172
1
173
0
174
0
175
0
176
0
177
0
178
0
179
2
271
2
272
2
273
2
274
3
275
0
276
0
277
2
278
46
279
2
280
0
281
0
282
0
283
0
284
8
285
0
286
0
288
1
289
3
290
0
340
4C
371
-2
372
-2
  0
DIMSTYLE
105
82
330
4
100
AcDbSymbolTableRecord
100
AcDbDimStyleTableRecord
  2
EZ_M_1_H25_CM
 70
0
 40
1.0
 41
0.0025
 42
0.00125
 43
3.75
 44
0.00375
 45
0.0
 46
0.0
 47
0.0
 48
0.0
 49
2.5
140
0.0025
141
2.5
142
0.00125
143
0.03937007874
144
100.0
145
0.0
146
0.5
147
0.001
148
0.0
 69
0
 70
0
 71
0
 72
0
 73
0
 74
0
 75
0
 76
0
 77
1
 78
12
 79
3
170
0
171
3
172
1
173
0
174
0
175
0
176
0
177
0
178
0
179
2
271
2
272
2
273
2
274
3
275
0
276
0
277
2
278
46
279
2
280
0
281
0
282
0
283
0
284
8
285
0
286
0
288
1
289
3
290
0
340
4C
371
-2
372
-2
  0
DIMSTYLE
105
83
330
4
100
AcDbSymbolTableRecord
100
AcDbDimStyleTableRecord
  2
EZ_RADIUS
 70
0
 40
1.0
 41
0.25
 42
0.125
 43
3.75
 44
0.375
 45
0.0
 46
0.0
 47
0.0
 48
0.0
 49
2.5
140
0.25
141
0.0
142
0.0
143
0.03937007874
144
100.0
145
0.0
146
0.5
147
0.1
148
0.0
 69
0
 70
0
 71
0
 72
0
 73
0
 74
0
 75
0
 76
0
 77
1
 78
12
 79
3
170
0
171
3
172
0
173
0
174
0
175
0
176
0
177
0
178
0
179
2
271
2
272
2
273
2
274
3
275
0
276
0
277
2
278
46
279
1
280
0
281
0
282
0
283
0
284
8
285
0
286
0
288
1
289
3
290
0
340
4C
342
84
371
-2
372
-2
  0
DIMSTYLE
105
88
330
4
100
AcDbSymbolTableRecord
100
AcDbDimStyleTableRecord
  2
EZ_RADIUS_INSIDE
 70
0
 40
1.0
 41
0.25
 42
0.125
 43
3.75
 44
0.375
 45
0.0
 46
0.0
 47
0.0
 48
0.0
 49
2.5
140
0.25
141
0.0
142
0.0
143
0.03937007874
144
100.0
145
0.0
146
0.5
147
0.1
148
0.0
 69
0
 70
0
 71
0
 72
0
 73
0
 74
0
 75
0
 76
0
 77
0
 78
12
 79
3
170
0
171
3
172
0
173
0
174
1
175
0
176
0
177
0
178
0
179
2
271
2
272
2
273
2
274
3
275
0
276
0
277
2
278
46
279
0
280
0
281
0
282
0
283
0
284
8
285
0
286
0
288
1
289
0
290
0
340
4C
342
84
371
-2
372
-2
  0
DIMSTYLE
105
89
330
4
100
AcDbSymbolTableRecord
100
AcDbDimStyleTableRecord
  2
EZ_CURVED
 70
0
 40
1.0
 41
0.25
 42
0.125
 43
3.75
 44
0.375
 45
0.0
 46
0.0
 47
0.0
 48
0.0
 49
2.5
140
0.25
141
2.5
142
0.0
143
0.03937007874
144
100.0
145
0.0
146
0.5
147
0.1
148
0.0
 69
0
 70
0
 71
0
 72
0
 73
0
 74
0
 75
0
 76
0
 77
1
 78
12
 79
2
 90
2
170
0
171
3
172
1
173
0
174
0
175
0
176
0
177
0
178
0
179
2
271
2
272
2
273
2
274
3
275
0
276
0
277
2
278
46
279
2
280
0
281
0
282
0
283
0
284
8
285
0
286
0
288
1
289
3
290
0
340
4C
371
-2
372
-2
  0
ENDTAB
  0
TABLE
  2
BLOCK_RECORD
  5
9
330
0
100
AcDbSymbolTable
 70
5
  0
BLOCK_RECORD
  5
17
330
9
100
AcDbSymbolTableRecord
100
AcDbBlockTableRecord
  2
*Model_Space
340
1A
 70
0
280
1
281
0
  0
BLOCK_RECORD
  5
1B
330
9
100
AcDbSymbolTableRecord
100
AcDbBlockTableRecord
  2
*Paper_Space
340
1E
 70
0
280
1
281
0
  0
BLOCK_RECORD
  5
74
330
9
100
AcDbSymbolTableRecord
100
AcDbBlockTableRecord
  2
_ARCHTICK
340
0
 70
0
280
1
281
0
  0
BLOCK_RECORD
  5
78
330
9
100
AcDbSymbolTableRecord
100
AcDbBlockTableRecord
  2
_CLOSEDFILLED
340
0
 70
0
280
1
281
0
  0
BLOCK_RECORD
  5
84
330
9
100
AcDbSymbolTableRecord
100
AcDbBlockTableRecord
  2
_CLOSEDBLANK
340
0
 70
0
280
1
281
0
  0
ENDTAB
  0
ENDSEC
  0
SECTION
  2
BLOCKS
  0
BLOCK
  5
18
330
17
100
AcDbEntity
  8
0
100
AcDbBlockBegin
  2
*Model_Space
 70
0
 10
0.0
 20
0.0
 30
0.0
  3
*Model_Space
  1

  0
ENDBLK
  5
19
330
17
100
AcDbEntity
  8
0
100
AcDbBlockEnd
  0
BLOCK
  5
1C
330
1B
100
AcDbEntity
  8
0
100
AcDbBlockBegin
  2
*Paper_Space
 70
0
 10
0.0
 20
0.0
 30
0.0
  3
*Paper_Space
  1

  0
ENDBLK
  5
1D
330
1B
100
AcDbEntity
  8
0
100
AcDbBlockEnd
  0
BLOCK
  5
75
330
74
100
AcDbEntity
  8
0
100
AcDbBlockBegin
  2
_ARCHTICK
 70
0
 10
0.0
 20
0.0
 30
0.0
  3
_ARCHTICK
  1

  0
LWPOLYLINE
  5
77
330
74
100
AcDbEntity
  8
0
  6
BYBLOCK
 62
0
100
AcDbPolyline
 90
2
 70
0
 43
0.15
 10
-0.5
 20
-0.5
 10
0.5
 20
0.5
  0
ENDBLK
  5
76
330
74
100
AcDbEntity
  8
0
100
AcDbBlockEnd
  0
BLOCK
  5
79
330
78
100
AcDbEntity
  8
0
100
AcDbBlockBegin
  2
_CLOSEDFILLED
 70
0
 10
0.0
 20
0.0
 30
0.0
  3
_CLOSEDFILLED
  1

  0
SOLID
  5
7B
330
78
100
AcDbEntity
  8
0
  6
BYBLOCK
 62
0
100
AcDbTrace
 10
-1.0
 20
0.16439898372402537
 30
0.0
 11
0.0
 21
0.0
 31
0.0
 12
-1.0
 22
-0.16439898372402537
 32
0.0
 13
-1.0
 23
-0.16439898372402537
 33
0.0
  0
ENDBLK
  5
7A
330
78
100
AcDbEntity
  8
0
100
AcDbBlockEnd
  0
BLOCK
  5
85
330
84
100
AcDbEntity
  8
0
100
AcDbBlockBegin
  2
_CLOSEDBLANK
 70
0
 10
0.0
 20
0.0
 30
0.0
  3
_CLOSEDBLANK
  1

  0
LWPOLYLINE
  5
87
330
84
100
AcDbEntity
  8
0
  6
BYBLOCK
 62
0
100
AcDbPolyline
 90
3
 70
1
 10
-1.0
 20
0.16439898372402537
 10
0.0
 20
0.0
 10
-1.0
 20
-0.16439898372402537
  0
ENDBLK
  5
86
330
84
100
AcDbEntity
  8
0
100
AcDbBlockEnd
  0
ENDSEC
  0
SECTION
  2
ENTITIES
  0
LWPOLYLINE
  5
8C
330
17
100
AcDbEntity
  8
CORTE
100
AcDbPolyline
 90
85
 70
1
 10
-13.047886855367985
 20
-196.0
 10
-13.854542238463033
 20
-195.95922779501402
 10
-14.652975341899934
 20
-195.83732677323096
 10
-15.435047696138456
 20
-195.6355394780128
 10
-16.19278759759338
 20
-195.35592273760065
 10
-16.918471364617663
 20
-195.00132669975886
 10
-17.604702065385275
 20
-194.575365780073
 10
-18.244484915196374
 20
-194.0823818200264
 10
-64.69659805982839
 20
-154.39513952170003
 10
-65.25554153339488
 20
-153.8691721622198
 10
-65.76151069064039
 20
-153.2920632627932
 10
-66.20984856400962
 20
-152.66912456501953
 10
-66.59642862740854
 20
-152.00608963044695
 10
-66.91769277697449
 20
-151.309061068561
 10
-67.1706840800569
 20
-150.58445436803592
 10
-67.35307399098582
 20
-149.83893884822933
 10
-67.46318378313242
 20
-149.07937627440504
 10
-67.5
 20
-148.31275770167363
 10
-67.5
 20
-75.32616383822818
 10
-67.45207140684033
 20
-74.45177242672396
 10
-67.30885991487192
 20
-73.58785810277583
 10
-67.07208150542832
 20
-72.74477241592308
 10
-60.10607518685028
 20
-52.31115388142751
 10
-60.02669851886317
 20
-51.995574173718666
 10
-60.0
 20
-51.671261983955745
 10
-60.0
 20
-31.0
 10
-59.96147781337758
 20
-30.215862877363513
 10
-59.84628224322584
 20
-29.439277423870973
 10
-59.65552268585767
 20
-28.6777225819643
 10
-59.391036260090296
 20
-27.93853254107928
 10
-59.05537011478684
 20
-27.228826105392017
 10
-58.65175689842036
 20
-26.555438135843183
 10
-58.184083626901895
 20
-25.924853726690834
 10
-57.65685424949238
 20
-25.34314575050762
 10
-57.075146273309166
 20
-24.815916373098105
 10
-56.44456186415682
 20
-24.348243101579637
 10
-55.77117389460798
 20
-23.94462988521316
 10
-55.06146745892072
 20
-23.608963739909704
 10
-54.322277418035696
 20
-23.344477314142328
 10
-53.560722576129024
 20
-23.153717756774157
 10
-52.78413712263649
 20
-23.038522186622423
 10
-52.0
 20
-23.0
 10
52.0
 20
-23.0
 10
52.78413712263649
 20
-23.038522186622426
 10
53.560722576129024
 20
-23.153717756774157
 10
54.322277418035696
 20
-23.344477314142328
 10
55.06146745892072
 20
-23.608963739909704
 10
55.77117389460798
 20
-23.94462988521316
 10
56.44456186415682
 20
-24.348243101579637
 10
57.075146273309166
 20
-24.815916373098105
 10
57.65685424949238
 20
-25.34314575050762
 10
58.184083626901895
 20
-25.924853726690834
 10
58.65175689842036
 20
-26.555438135843183
 10
59.05537011478684
 20
-27.228826105392017
 10
59.391036260090296
 20
-27.938532541079283
 10
59.65552268585767
 20
-28.677722581964304
 10
59.84628224322584
 20
-29.439277423870973
 10
59.96147781337758
 20
-30.215862877363513
 10
60.0
 20
-31.0
 10
60.0
 20
-51.671261983955745
 10
60.02669851886317
 20
-51.99557417371866
 10
60.10607518685029
 20
-52.31115388142752
 10
67.07208150542832
 20
-72.74477241592308
 10
67.30885991487192
 20
-73.58785810277583
 10
67.45207140684033
 20
-74.45177242672396
 10
67.5
 20
-75.32616383822818
 10
67.5
 20
-148.31275770167363
 10
67.46318378313242
 20
-149.07937627440504
 10
67.35307399098582
 20
-149.83893884822933
 10
67.1706840800569
 20
-150.58445436803592
 10
66.91769277697449
 20
-151.309061068561
 10
66.59642862740854
 20
-152.00608963044698
 10
66.2098485640096
 20
-152.66912456501953
 10
65.76151069064039
 20
-153.2920632627932
 10
65.25554153339488
 20
-153.8691721622198
 10
64.69659805982839
 20
-154.39513952170003
 10
18.244484915196374
 20
-194.0823818200264
 10
17.60470206538528
 20
-194.575365780073
 10
16.918471364617666
 20
-195.00132669975886
 10
16.192787597593384
 20
-195.35592273760065
 10
15.435047696138458
 20
-195.6355394780128
 10
14.652975341899934
 20
-195.83732677323096
 10
13.854542238463035
 20
-195.95922779501402
 10
13.047886855367985
 20
-196.0
 10
-13.047886855367985
 20
-196.0
  0
LWPOLYLINE
  5
8D
330
17
100
AcDbEntity
  8
CORTE
100
AcDbPolyline
 90
99
 70
1
 10
-60.0
 20
-109.89986865491957
 10
-59.98073030914743
 20
-109.31124049184828
 10
-59.923003752364295
 20
-108.7251329249391
 10
-59.827067523629076
 20
-108.14405575677442
 10
-59.693332436601615
 20
-107.57049724899689
 10
-59.52237116545595
 20
-107.00691346719111
 10
-59.31491579260158
 20
-106.45571776363376
 10
-59.07185467379419
 20
-105.91927044294856
 10
-58.79422863405995
 20
-105.39986865491957
 10
-58.48322651072291
 20
-104.89973655774315
 10
-58.14018006262111
 20
-104.42101579384108
 10
-57.7665582673108
 20
-103.96575631901895
 10
-57.36396103067893
 20
-103.53590762424065
 10
-56.93411233590062
 20
-103.13331038760877
 10
-56.47885286107849
 20
-102.75968859229846
 10
-56.00013209717642
 20
-102.41664214419667
 10
-55.5
 20
-102.10564002085962
 10
-54.980598211971014
 20
-101.82801398112538
 10
-54.44415089128581
 20
-101.58495286231799
 10
-53.892955187728454
 20
-101.37749748946362
 10
-53.329371405922686
 20
-101.20653621831795
 10
-52.75581289814515
 20
-101.0728011312905
 10
-52.17473572998046
 20
-100.97686490255528
 10
-51.58862816307129
 20
-100.91913834577214
 10
-51.0
 20
-100.89986865491957
 10
-50.411371836928716
 20
-100.91913834577214
 10
-49.82526427001954
 20
-100.97686490255528
 10
-49.24418710185485
 20
-101.0728011312905
 10
-48.670628594077314
 20
-101.20653621831795
 10
-48.107044812271546
 20
-101.37749748946362
 10
-47.55584910871419
 20
-101.58495286231799
 10
-47.019401788028986
 20
-101.82801398112538
 10
-46.5
 20
-102.10564002085962
 10
-45.99986790282358
 20
-102.41664214419666
 10
-45.52114713892151
 20
-102.75968859229846
 10
-45.065887664099385
 20
-103.13331038760877
 10
-44.63603896932107
 20
-103.53590762424065
 10
-44.2334417326892
 20
-103.96575631901895
 10
-43.85981993737889
 20
-104.4210157938411
 10
-43.51677348927709
 20
-104.89973655774315
 10
-43.20577136594005
 20
-105.39986865491957
 10
-42.92814532620581
 20
-105.91927044294856
 10
-42.68508420739842
 20
-106.45571776363377
 10
-42.47762883454405
 20
-107.00691346719111
 10
-42.306667563398385
 20
-107.57049724899689
 10
-42.172932476370924
 20
-108.14405575677442
 10
-42.076996247635705
 20
-108.7251329249391
 10
-42.01926969085257
 20
-109.31124049184828
 10
-42.0
 20
-109.89986865491957
 10
-42.0
 20
-125.89986865491957
 10
-42.01926969085257
 20
-126.48849681799086
 10
-42.076996247635705
 20
-127.07460438490004
 10
-42.172932476370924
 20
-127.65568155306472
 10
-42.306667563398385
 20
-128.22924006084227
 10
-42.47762883454405
 20
-128.79282384264803
 10
-42.68508420739842
 20
-129.34401954620537
 10
-42.92814532620581
 20
-129.88046686689057
 10
-43.20577136594005
 20
-130.39986865491957
 10
-43.51677348927709
 20
-130.900000752096
 10
-43.85981993737888
 20
-131.37872151599805
 10
-44.2334417326892
 20
-131.83398099082018
 10
-44.63603896932107
 20
-132.2638296855985
 10
-45.06588766409938
 20
-132.66642692223036
 10
-45.52114713892151
 20
-133.04004871754069
 10
-45.99986790282358
 20
-133.3830951656425
 10
-46.5
 20
-133.69409728897952
 10
-47.019401788028986
 20
-133.97172332871378
 10
-47.55584910871419
 20
-134.21478444752114
 10
-48.107044812271546
 20
-134.42223982037552
 10
-48.670628594077314
 20
-134.5932010915212
 10
-49.24418710185485
 20
-134.72693617854864
 10
-49.82526427001953
 20
-134.82287240728385
 10
-50.41137183692871
 20
-134.880598964067
 10
-51.0
 20
-134.89986865491957
 10
-51.588628163071284
 20
-134.880598964067
 10
-52.17473572998046
 20
-134.82287240728385
 10
-52.75581289814515
 20
-134.72693617854864
 10
-53.329371405922686
 20
-134.5932010915212
 10
-53.892955187728454
 20
-134.42223982037552
 10
-54.44415089128581
 20
-134.21478444752114
 10
-54.980598211971014
 20
-133.97172332871378
 10
-55.5
 20
-133.69409728897952
 10
-56.00013209717642
 20
-133.3830951656425
 10
-56.47885286107848
 20
-133.04004871754069
 10
-56.934112335900615
 20
-132.66642692223036
 10
-57.36396103067893
 20
-132.2638296855985
 10
-57.7665582673108
 20
-131.83398099082018
 10
-58.14018006262111
 20
-131.37872151599805
 10
-58.48322651072291
 20
-130.900000752096
 10
-58.79422863405995
 20
-130.39986865491957
 10
-59.07185467379419
 20
-129.8804668668906
 10
-59.31491579260158
 20
-129.34401954620537
 10
-59.52237116545595
 20
-128.79282384264803
 10
-59.693332436601615
 20
-128.22924006084227
 10
-59.827067523629076
 20
-127.65568155306472
 10
-59.923003752364295
 20
-127.07460438490004
 10
-59.98073030914743
 20
-126.48849681799086
 10
-60.0
 20
-125.89986865491957
 10
-60.0
 20
-109.89986865491957
  0
LWPOLYLINE
  5
8E
330
17
100
AcDbEntity
  8
CORTE
100
AcDbPolyline
 90
99
 70
1
 10
-47.0932667397366
 20
-65.72166542464407
 10
-46.73043092917673
 20
-65.13817797793824
 10
-46.33021007305796
 20
-64.5796704200525
 10
-45.894317978529266
 20
-64.04853436609335
 10
-45.424621202458745
 20
-63.54704422218532
 10
-44.923131058550716
 20
-63.0773474461148
 10
-44.39199500459157
 20
-62.64145535158609
 10
-43.833487446705824
 20
-62.24123449546735
 10
-43.24999999999999
 20
-61.87839868490747
 10
-42.644031247299516
 20
-61.554501638550846
 10
-42.018176039833456
 20
-61.27093033327556
 10
-41.3751143856832
 20
-61.02889906494546
 10
-40.717599973576476
 20
-60.82944424860885
 10
-40.04844838116936
 20
-60.673419980410145
 10
-39.37052501831054
 20
-60.56149438021906
 10
-38.686732856916514
 20
-60.49414673063873
 10
-38.00000000000001
 20
-60.47166542464407
 10
-37.3132671430835
 20
-60.49414673063873
 10
-36.62947498168946
 20
-60.56149438021905
 10
-35.951551618830656
 20
-60.673419980410145
 10
-35.28240002642354
 20
-60.82944424860885
 10
-34.6248856143168
 20
-61.028899064945456
 10
-33.98182396016656
 20
-61.270930333275544
 10
-33.355968752700484
 20
-61.55450163855084
 10
-32.75000000000001
 20
-61.87839868490747
 10
-32.166512553294176
 20
-62.24123449546734
 10
-31.608004995408443
 20
-62.64145535158609
 10
-31.076868941449284
 20
-63.0773474461148
 10
-30.575378797541255
 20
-63.54704422218532
 10
-30.10568202147075
 20
-64.04853436609335
 10
-29.669789926942038
 20
-64.5796704200525
 10
-29.269569070823273
 20
-65.13817797793826
 10
-28.9067332602634
 20
-65.72166542464407
 10
-28.58283621390678
 20
-66.32763417734455
 10
-28.299264908631493
 20
-66.95348938481062
 10
-28.057233640301398
 20
-67.59655103896087
 10
-27.857778823964786
 20
-68.2540654510676
 10
-27.701754555766094
 20
-68.92321704347472
 10
-27.589828955574994
 20
-69.60114040633353
 10
-27.522481305994667
 20
-70.28493256772755
 10
-27.5
 20
-70.97166542464407
 10
-27.52248130599466
 20
-71.65839828156057
 10
-27.589828955574987
 20
-72.3421904429546
 10
-27.70175455576608
 20
-73.02011380581342
 10
-27.857778823964786
 20
-73.68926539822053
 10
-28.057233640301384
 20
-74.34677981032726
 10
-28.299264908631493
 20
-74.98984146447751
 10
-28.582836213906766
 20
-75.61569667194357
 10
-28.906733260263394
 20
-76.22166542464407
 10
-36.90673326026339
 20
-90.07807188519509
 10
-37.26956907082327
 20
-90.66155933190092
 10
-37.66978992694204
 20
-91.22006688978666
 10
-38.105682021470734
 20
-91.75120294374582
 10
-38.575378797541255
 20
-92.25269308765382
 10
-39.07686894144927
 20
-92.72238986372435
 10
-39.60800499540843
 20
-93.15828195825307
 10
-40.166512553294176
 20
-93.5585028143718
 10
-40.74999999999999
 20
-93.92133862493169
 10
-41.355968752700484
 20
-94.2452356712883
 10
-41.98182396016656
 20
-94.52880697656359
 10
-42.6248856143168
 20
-94.7708382448937
 10
-43.28240002642354
 20
-94.97029306123031
 10
-43.951551618830656
 20
-95.126317329429
 10
-44.62947498168946
 20
-95.23824292962009
 10
-45.3132671430835
 20
-95.30559057920041
 10
-45.99999999999999
 20
-95.32807188519509
 10
-46.6867328569165
 20
-95.30559057920043
 10
-47.37052501831055
 20
-95.2382429296201
 10
-48.048448381169344
 20
-95.12631732942901
 10
-48.717599973576476
 20
-94.97029306123031
 10
-49.37511438568318
 20
-94.7708382448937
 10
-50.01817603983344
 20
-94.5288069765636
 10
-50.644031247299516
 20
-94.24523567128831
 10
-51.24999999999999
 20
-93.92133862493169
 10
-51.833487446705824
 20
-93.55850281437182
 10
-52.39199500459156
 20
-93.15828195825306
 10
-52.923131058550716
 20
-92.72238986372435
 10
-53.424621202458745
 20
-92.25269308765384
 10
-53.894317978529266
 20
-91.75120294374581
 10
-54.33021007305796
 20
-91.22006688978665
 10
-54.73043092917671
 20
-90.66155933190092
 10
-55.0932667397366
 20
-90.07807188519509
 10
-55.41716378609322
 20
-89.4721031324946
 10
-55.70073509136851
 20
-88.84624792502852
 10
-55.942766359698616
 20
-88.20318627087829
 10
-56.14222117603523
 20
-87.54567185877156
 10
-56.29824544423392
 20
-86.87652026636444
 10
-56.41017104442502
 20
-86.19859690350562
 10
-56.47751869400533
 20
-85.5148047421116
 10
-56.49999999999999
 20
-84.82807188519509
 10
-56.47751869400533
 20
-84.1413390282786
 10
-56.41017104442502
 20
-83.45754686688456
 10
-56.298245444233935
 20
-82.77962350402575
 10
-56.142221176035214
 20
-82.11047191161862
 10
-55.942766359698616
 20
-81.4529574995119
 10
-55.70073509136852
 20
-80.80989584536165
 10
-55.417163786093234
 20
-80.18404063789558
 10
-55.0932667397366
 20
-79.57807188519509
 10
-47.0932667397366
 20
-65.72166542464407
  0
LWPOLYLINE
  5
8F
330
17
100
AcDbEntity
  8
CORTE
100
AcDbPolyline
 90
99
 70
1
 10
42.0
 20
-109.89986865491957
 10
42.01926969085257
 20
-109.31124049184828
 10
42.076996247635705
 20
-108.7251329249391
 10
42.172932476370924
 20
-108.14405575677442
 10
42.306667563398385
 20
-107.57049724899689
 10
42.47762883454405
 20
-107.00691346719111
 10
42.68508420739842
 20
-106.45571776363376
 10
42.92814532620581
 20
-105.91927044294856
 10
43.20577136594005
 20
-105.39986865491957
 10
43.51677348927709
 20
-104.89973655774315
 10
43.85981993737889
 20
-104.42101579384108
 10
44.2334417326892
 20
-103.96575631901895
 10
44.63603896932107
 20
-103.53590762424065
 10
45.06588766409938
 20
-103.13331038760877
 10
45.52114713892151
 20
-102.75968859229846
 10
45.99986790282358
 20
-102.41664214419667
 10
46.5
 20
-102.10564002085962
 10
47.019401788028986
 20
-101.82801398112538
 10
47.55584910871419
 20
-101.58495286231799
 10
48.107044812271546
 20
-101.37749748946362
 10
48.670628594077314
 20
-101.20653621831795
 10
49.24418710185485
 20
-101.0728011312905
 10
49.82526427001954
 20
-100.97686490255528
 10
50.41137183692871
 20
-100.91913834577214
 10
51.0
 20
-100.89986865491957
 10
51.588628163071284
 20
-100.91913834577214
 10
52.17473572998046
 20
-100.97686490255528
 10
52.75581289814515
 20
-101.0728011312905
 10
53.329371405922686
 20
-101.20653621831795
 10
53.892955187728454
 20
-101.37749748946362
 10
54.44415089128581
 20
-101.58495286231799
 10
54.980598211971014
 20
-101.82801398112538
 10
55.5
 20
-102.10564002085962
 10
56.00013209717642
 20
-102.41664214419666
 10
56.47885286107849
 20
-102.75968859229846
 10
56.934112335900615
 20
-103.13331038760877
 10
57.36396103067893
 20
-103.53590762424065
 10
57.7665582673108
 20
-103.96575631901895
 10
58.14018006262111
 20
-104.4210157938411
 10
58.48322651072291
 20
-104.89973655774315
 10
58.79422863405995
 20
-105.39986865491957
 10
59.07185467379419
 20
-105.91927044294856
 10
59.31491579260158
 20
-106.45571776363377
 10
59.52237116545595
 20
-107.00691346719111
 10
59.693332436601615
 20
-107.57049724899689
 10
59.827067523629076
 20
-108.14405575677442
 10
59.923003752364295
 20
-108.7251329249391
 10
59.98073030914743
 20
-109.31124049184828
 10
60.0
 20
-109.89986865491957
 10
60.0
 20
-125.89986865491957
 10
59.98073030914743
 20
-126.48849681799086
 10
59.923003752364295
 20
-127.07460438490004
 10
59.827067523629076
 20
-127.65568155306472
 10
59.693332436601615
 20
-128.22924006084227
 10
59.52237116545595
 20
-128.79282384264803
 10
59.31491579260158
 20
-129.34401954620537
 10
59.07185467379419
 20
-129.88046686689057
 10
58.79422863405995
 20
-130.39986865491957
 10
58.48322651072291
 20
-130.900000752096
 10
58.14018006262112
 20
-131.37872151599805
 10
57.7665582673108
 20
-131.83398099082018
 10
57.36396103067893
 20
-132.2638296855985
 10
56.93411233590062
 20
-132.66642692223036
 10
56.47885286107849
 20
-133.04004871754069
 10
56.00013209717642
 20
-133.3830951656425
 10
55.5
 20
-133.69409728897952
 10
54.980598211971014
 20
-133.97172332871378
 10
54.44415089128581
 20
-134.21478444752114
 10
53.892955187728454
 20
-134.42223982037552
 10
53.329371405922686
 20
-134.5932010915212
 10
52.75581289814515
 20
-134.72693617854864
 10
52.17473572998047
 20
-134.82287240728385
 10
51.58862816307129
 20
-134.880598964067
 10
51.0
 20
-134.89986865491957
 10
50.411371836928716
 20
-134.880598964067
 10
49.82526427001954
 20
-134.82287240728385
 10
49.24418710185485
 20
-134.72693617854864
 10
48.670628594077314
 20
-134.5932010915212
 10
48.107044812271546
 20
-134.42223982037552
 10
47.55584910871419
 20
-134.21478444752114
 10
47.019401788028986
 20
-133.97172332871378
 10
46.5
 20
-133.69409728897952
 10
45.99986790282358
 20
-133.3830951656425
 10
45.52114713892152
 20
-133.04004871754069
 10
45.065887664099385
 20
-132.66642692223036
 10
44.63603896932107
 20
-132.2638296855985
 10
44.2334417326892
 20
-131.83398099082018
 10
43.85981993737889
 20
-131.37872151599805
 10
43.51677348927709
 20
-130.900000752096
 10
43.20577136594005
 20
-130.39986865491957
 10
42.92814532620581
 20
-129.8804668668906
 10
42.68508420739842
 20
-129.34401954620537
 10
42.47762883454405
 20
-128.79282384264803
 10
42.306667563398385
 20
-128.22924006084227
 10
42.172932476370924
 20
-127.65568155306472
 10
42.076996247635705
 20
-127.07460438490004
 10
42.01926969085257
 20
-126.48849681799086
 10
42.0
 20
-125.89986865491957
 10
42.0
 20
-109.89986865491957
  0
LWPOLYLINE
  5
90
330
17
100
AcDbEntity
  8
CORTE
100
AcDbPolyline
 90
99
 70
1
 10
28.906733260263394
 20
-76.22166542464407
 10
28.582836213906766
 20
-75.61569667194357
 10
28.299264908631493
 20
-74.98984146447751
 10
28.057233640301384
 20
-74.34677981032726
 10
27.857778823964786
 20
-73.68926539822053
 10
27.70175455576608
 20
-73.02011380581341
 10
27.589828955574987
 20
-72.3421904429546
 10
27.522481305994667
 20
-71.65839828156058
 10
27.5
 20
-70.97166542464407
 10
27.522481305994667
 20
-70.28493256772757
 10
27.589828955574994
 20
-69.60114040633353
 10
27.701754555766094
 20
-68.92321704347472
 10
27.857778823964786
 20
-68.2540654510676
 10
28.057233640301398
 20
-67.59655103896087
 10
28.299264908631493
 20
-66.95348938481062
 10
28.58283621390678
 20
-66.32763417734455
 10
28.9067332602634
 20
-65.72166542464407
 10
29.269569070823287
 20
-65.13817797793824
 10
29.669789926942038
 20
-64.5796704200525
 10
30.10568202147075
 20
-64.04853436609335
 10
30.575378797541255
 20
-63.54704422218532
 10
31.076868941449284
 20
-63.0773474461148
 10
31.60800499540843
 20
-62.64145535158609
 10
32.166512553294176
 20
-62.24123449546734
 10
32.75000000000001
 20
-61.87839868490747
 10
33.355968752700484
 20
-61.55450163855084
 10
33.98182396016656
 20
-61.27093033327555
 10
34.6248856143168
 20
-61.028899064945456
 10
35.28240002642354
 20
-60.82944424860885
 10
35.951551618830656
 20
-60.673419980410145
 10
36.62947498168946
 20
-60.56149438021905
 10
37.3132671430835
 20
-60.49414673063873
 10
38.00000000000001
 20
-60.47166542464407
 10
38.6867328569165
 20
-60.494146730638725
 10
39.37052501831054
 20
-60.56149438021906
 10
40.048448381169344
 20
-60.673419980410145
 10
40.717599973576476
 20
-60.82944424860885
 10
41.3751143856832
 20
-61.02889906494546
 10
42.018176039833456
 20
-61.27093033327556
 10
42.644031247299516
 20
-61.55450163855083
 10
43.24999999999999
 20
-61.87839868490747
 10
43.83348744670581
 20
-62.24123449546734
 10
44.39199500459157
 20
-62.64145535158609
 10
44.92313105855073
 20
-63.077347446114814
 10
45.424621202458745
 20
-63.54704422218532
 10
45.894317978529266
 20
-64.04853436609335
 10
46.33021007305796
 20
-64.5796704200525
 10
46.73043092917673
 20
-65.13817797793824
 10
47.0932667397366
 20
-65.72166542464407
 10
55.0932667397366
 20
-79.57807188519509
 10
55.417163786093234
 20
-80.18404063789558
 10
55.70073509136852
 20
-80.80989584536165
 10
55.942766359698616
 20
-81.4529574995119
 10
56.14222117603523
 20
-82.11047191161862
 10
56.29824544423392
 20
-82.77962350402574
 10
56.41017104442502
 20
-83.45754686688456
 10
56.47751869400533
 20
-84.14133902827858
 10
56.49999999999999
 20
-84.82807188519509
 10
56.47751869400533
 20
-85.51480474211158
 10
56.41017104442502
 20
-86.19859690350562
 10
56.29824544423392
 20
-86.87652026636444
 10
56.14222117603523
 20
-87.54567185877156
 10
55.942766359698616
 20
-88.20318627087828
 10
55.70073509136851
 20
-88.84624792502852
 10
55.41716378609322
 20
-89.4721031324946
 10
55.0932667397366
 20
-90.07807188519509
 10
54.73043092917673
 20
-90.66155933190092
 10
54.33021007305796
 20
-91.22006688978665
 10
53.894317978529266
 20
-91.75120294374581
 10
53.424621202458745
 20
-92.25269308765384
 10
52.923131058550716
 20
-92.72238986372435
 10
52.39199500459157
 20
-93.15828195825306
 10
51.83348744670584
 20
-93.5585028143718
 10
51.24999999999999
 20
-93.92133862493169
 10
50.644031247299516
 20
-94.24523567128831
 10
50.018176039833456
 20
-94.5288069765636
 10
49.3751143856832
 20
-94.7708382448937
 10
48.717599973576476
 20
-94.97029306123031
 10
48.048448381169344
 20
-95.12631732942901
 10
47.37052501831055
 20
-95.2382429296201
 10
46.6867328569165
 20
-95.30559057920043
 10
45.99999999999999
 20
-95.32807188519509
 10
45.3132671430835
 20
-95.30559057920041
 10
44.62947498168946
 20
-95.23824292962009
 10
43.951551618830656
 20
-95.12631732942901
 10
43.28240002642354
 20
-94.97029306123031
 10
42.6248856143168
 20
-94.7708382448937
 10
41.98182396016656
 20
-94.52880697656359
 10
41.3559687527005
 20
-94.24523567128831
 10
40.74999999999999
 20
-93.92133862493169
 10
40.166512553294176
 20
-93.55850281437182
 10
39.60800499540843
 20
-93.15828195825307
 10
39.076868941449284
 20
-92.72238986372436
 10
38.575378797541255
 20
-92.25269308765382
 10
38.105682021470734
 20
-91.75120294374582
 10
37.66978992694204
 20
-91.22006688978666
 10
37.26956907082327
 20
-90.66155933190092
 10
36.90673326026339
 20
-90.07807188519509
 10
28.906733260263394
 20
-76.22166542464407
  0
LWPOLYLINE
  5
91
330
17
100
AcDbEntity
  8
CORTE
100
AcDbPolyline
 90
385
 70
1
 10
32.05
 20
-143.89986865491957
 10
32.045709720001454
 20
-144.5676035935024
 10
32.032840028617514
 20
-145.23515976329577
 10
32.01139437137577
 20
-145.90235844337096
 10
31.98137848979724
 20
-146.56902100850778
 10
31.942800419859225
 20
-147.23496897701708
 10
31.89567048984391
 20
-147.90002405852454
 10
31.84000131757319
 20
-148.56400820170316
 10
31.77580780703062
 20
-149.22674364194216
 10
31.703107144371227
 20
-149.8880529489386
 10
31.62191879332037
 20
-150.54775907420003
 10
31.532264489962827
 20
-151.20568539844436
 10
31.434168236923533
 20
-151.86165577888542
 10
31.327656296941477
 20
-152.51549459639037
 10
31.21275718583854
 20
-153.16702680249742
 10
31.08950166488513
 20
-153.81607796628037
 10
30.957922732564636
 20
-154.46247432104803
 10
30.818055615738928
 20
-155.1060428108658
 10
30.66993776021729
 20
-155.74661113688694
 10
30.51360882073127
 20
-156.384007803481
 10
30.349110650318135
 20
-157.01806216414755
 10
30.176487289115816
 20
-157.64860446720232
 10
29.995784952572286
 20
-158.27546590122364
 10
29.80705201907259
 20
-158.8984786402476
 10
29.61033901698674
 20
-159.5174758886989
 10
29.405698611142096
 20
-160.13229192604632
 10
29.193185588723683
 20
-160.74276215116984
 10
28.972856844606355
 20
-161.34872312642847
 10
28.74477136612266
 20
-161.9500126214165
 10
28.508990217270483
 20
-162.5464696563964
 10
28.26557652236478
 20
-163.13793454539703
 10
28.01459544913762
 20
-163.72424893896553
 10
27.756114191291257
 20
-164.30525586656105
 10
27.49020195050872
 20
-164.88079977857987
 10
27.21692991792685
 20
-165.45072658799958
 10
26.93637125507674
 20
-166.01488371163202
 10
26.64860107429657
 20
-166.5731201109733
 10
26.353696418622288
 20
-167.1252863326407
 10
26.051736241161265
 20
-167.67123454838483
 10
25.742801383954667
 20
-168.21081859466682
 10
25.426974556334088
 20
-168.74389401178985
 10
25.104340312778245
 20
-169.27031808257453
 10
24.77498503027572
 20
-169.78994987056774
 10
24.43899688519974
 20
-170.30265025777464
 10
24.096465829701224
 20
-170.8082819819041
 10
23.747483567626436
 20
-171.3067096731169
 10
23.392143529965633
 20
-171.79779989026767
 10
23.030540849839323
 20
-172.2814211566303
 10
22.662772337028848
 20
-172.75744399509747
 10
22.288936452058053
 20
-173.22574096284455
 10
21.909133279833025
 20
-173.68618668544954
 10
21.523464502846938
 20
-174.13865789045843
 10
21.132033373957206
 20
-174.58303344038862
 10
20.734944688742182
 20
-175.01919436515985
 10
20.332304757444838
 20
-175.4470238939459
 10
19.924221376510978
 20
-175.86640748643663
 10
19.510803799729494
 20
-176.2772328635032
 10
19.092162708982492
 20
-176.6793900372581
 10
18.668410184613062
 20
-177.0727713405014
 10
18.23965967541869
 20
-177.4572714555459
 10
17.806025968278256
 20
-177.8327874424133
 10
17.367625157420793
 20
-178.19921876639353
 10
16.924574613344298
 20
-178.55646732496055
 10
16.47699295139276
 20
-178.9044374740367
 10
16.025000000000002
 20
-179.24303605359884
 10
15.568716768608699
 20
-179.57217241261952
 10
15.108265415273229
 20
-179.89175843333678
 10
14.643769213954982
 20
-180.20170855484488
 10
14.175352521518995
 20
-180.50193979600147
 10
13.703140744440542
 20
-180.7923717776434
 10
13.227260305230857
 20
-181.07292674410635
 10
12.747838608590706
 20
-181.34352958404173
 10
12.265004007301128
 20
-181.6041078505258
 10
11.778885767860253
 20
-181.85459178045568
 10
11.289614035875536
 20
-182.09491431322635
 10
10.79731980122066
 20
-182.32501110868463
 10
10.302134862966332
 20
-182.54482056435444
 10
9.804191794094539
 20
-182.75428383192926
 10
9.303623906005523
 20
-182.95334483302742
 10
8.800565212827083
 20
-183.14195027420536
 10
8.295150395535796
 20
-183.32004966122594
 10
7.78751476589961
 20
-183.48759531257656
 10
7.2777942302516685
 20
-183.64454237223504
 10
6.766125253104837
 20
-183.79084882167834
 10
6.252644820616912
 20
-183.92647549113212
 10
5.737490403916082
 20
-184.05138607005745
 10
5.220799922296571
 20
-184.1655471168718
 10
4.702711706294351
 20
-184.26892806790252
 10
4.183364460652657
 20
-184.36150124556917
 10
3.662897227187435
 20
-184.44324186579357
 10
3.1414493475624226
 20
-184.51412804463507
 10
2.619160425984069
 20
-184.5741408041496
 10
2.0961702918260916
 20
-184.62326407747022
 10
1.5726189621937507
 20
-184.66148471310882
 10
1.048646604437933
 20
-184.6887924784771
 10
0.5243934986289063
 20
-184.7051800626258
 10
0.0
 20
-184.7106430782025
 10
-0.5243934986288952
 20
-184.7051800626258
 10
-1.048646604437922
 20
-184.6887924784771
 10
-1.5726189621937399
 20
-184.66148471310882
 10
-2.0961702918260805
 20
-184.62326407747022
 10
-2.6191604259840577
 20
-184.5741408041496
 10
-3.1414493475624115
 20
-184.51412804463513
 10
-3.662897227187424
 20
-184.44324186579357
 10
-4.183364460652646
 20
-184.36150124556917
 10
-4.70271170629434
 20
-184.26892806790252
 10
-5.22079992229656
 20
-184.1655471168718
 10
-5.7374904039160715
 20
-184.05138607005745
 10
-6.252644820616901
 20
-183.92647549113212
 10
-6.766125253104827
 20
-183.79084882167834
 10
-7.277794230251658
 20
-183.64454237223504
 10
-7.7875147658996
 20
-183.4875953125766
 10
-8.295150395535785
 20
-183.32004966122594
 10
-8.800565212827072
 20
-183.14195027420536
 10
-9.303623906005512
 20
-182.95334483302742
 10
-9.804191794094528
 20
-182.75428383192926
 10
-10.302134862966321
 20
-182.54482056435444
 10
-10.797319801220649
 20
-182.32501110868463
 10
-11.289614035875525
 20
-182.09491431322635
 10
-11.778885767860242
 20
-181.85459178045568
 10
-12.265004007301117
 20
-181.6041078505258
 10
-12.747838608590696
 20
-181.34352958404173
 10
-13.227260305230846
 20
-181.07292674410635
 10
-13.703140744440532
 20
-180.7923717776434
 10
-14.175352521518985
 20
-180.50193979600147
 10
-14.643769213954979
 20
-180.20170855484488
 10
-15.108265415273213
 20
-179.8917584333368
 10
-15.568716768608688
 20
-179.57217241261958
 10
-16.02499999999999
 20
-179.24303605359884
 10
-16.476992951392752
 20
-178.9044374740367
 10
-16.924574613344294
 20
-178.55646732496055
 10
-17.367625157420783
 20
-178.19921876639353
 10
-17.80602596827824
 20
-177.8327874424133
 10
-18.23965967541868
 20
-177.4572714555459
 10
-18.668410184613055
 20
-177.0727713405014
 10
-19.09216270898249
 20
-176.6793900372581
 10
-19.510803799729484
 20
-176.27723286350323
 10
-19.92422137651097
 20
-175.86640748643663
 10
-20.33230475744483
 20
-175.44702389394593
 10
-20.734944688742175
 20
-175.01919436515985
 10
-21.132033373957192
 20
-174.58303344038862
 10
-21.523464502846927
 20
-174.13865789045843
 10
-21.909133279833018
 20
-173.68618668544954
 10
-22.28893645205805
 20
-173.22574096284455
 10
-22.662772337028844
 20
-172.75744399509747
 10
-23.030540849839312
 20
-172.28142115663036
 10
-23.392143529965622
 20
-171.7977998902677
 10
-23.74748356762643
 20
-171.3067096731169
 10
-24.09646582970122
 20
-170.8082819819041
 10
-24.438996885199735
 20
-170.30265025777467
 10
-24.774985030275708
 20
-169.78994987056777
 10
-25.104340312778234
 20
-169.27031808257453
 10
-25.42697455633408
 20
-168.74389401178985
 10
-25.742801383954664
 20
-168.21081859466682
 10
-26.05173624116126
 20
-167.67123454838483
 10
-26.35369641862228
 20
-167.1252863326407
 10
-26.648601074296565
 20
-166.5731201109733
 10
-26.936371255076732
 20
-166.01488371163202
 10
-27.216929917926848
 20
-165.4507265879996
 10
-27.49020195050871
 20
-164.88079977857987
 10
-27.75611419129125
 20
-164.30525586656105
 10
-28.014595449137612
 20
-163.72424893896553
 10
-28.265576522364775
 20
-163.13793454539703
 10
-28.50899021727048
 20
-162.5464696563964
 10
-28.744771366122652
 20
-161.9500126214165
 10
-28.972856844606348
 20
-161.3487231264285
 10
-29.19318558872368
 20
-160.74276215116984
 10
-29.405698611142093
 20
-160.13229192604632
 10
-29.61033901698674
 20
-159.51747588869893
 10
-29.807052019072582
 20
-158.8984786402476
 10
-29.99578495257228
 20
-158.27546590122364
 10
-30.176487289115812
 20
-157.64860446720232
 10
-30.34911065031813
 20
-157.0180621641476
 10
-30.51360882073127
 20
-156.384007803481
 10
-30.669937760217287
 20
-155.74661113688694
 10
-30.818055615738928
 20
-155.1060428108658
 10
-30.957922732564633
 20
-154.46247432104803
 10
-31.08950166488513
 20
-153.81607796628037
 10
-31.212757185838537
 20
-153.16702680249747
 10
-31.327656296941473
 20
-152.51549459639037
 10
-31.434168236923533
 20
-151.86165577888542
 10
-31.532264489962827
 20
-151.2056853984444
 10
-31.62191879332037
 20
-150.54775907420003
 10
-31.703107144371224
 20
-149.88805294893865
 10
-31.77580780703062
 20
-149.22674364194216
 10
-31.84000131757319
 20
-148.5640082017032
 10
-31.895670489843905
 20
-147.90002405852454
 10
-31.942800419859225
 20
-147.23496897701708
 10
-31.98137848979724
 20
-146.56902100850778
 10
-32.01139437137577
 20
-145.90235844337096
 10
-32.032840028617514
 20
-145.2351597632958
 10
-32.045709720001454
 20
-144.5676035935024
 10
-32.05
 20
-143.89986865491957
 10
-32.045709720001454
 20
-143.23213371633673
 10
-32.032840028617514
 20
-142.56457754654335
 10
-32.01139437137577
 20
-141.89737886646822
 10
-31.98137848979724
 20
-141.2307163013314
 10
-31.942800419859225
 20
-140.56476833282204
 10
-31.89567048984391
 20
-139.8997132513146
 10
-31.840001317573194
 20
-139.23572910813596
 10
-31.775807807030624
 20
-138.57299366789695
 10
-31.703107144371227
 20
-137.91168436090052
 10
-31.621918793320372
 20
-137.25197823563914
 10
-31.53226448996283
 20
-136.59405191139479
 10
-31.434168236923536
 20
-135.93808153095375
 10
-31.327656296941477
 20
-135.28424271344875
 10
-31.21275718583854
 20
-134.6327105073417
 10
-31.089501664885134
 20
-133.98365934355877
 10
-30.95792273256464
 20
-133.3372629887911
 10
-30.81805561573893
 20
-132.69369449897331
 10
-30.669937760217294
 20
-132.05312617295223
 10
-30.513608820731275
 20
-131.41572950635816
 10
-30.34911065031814
 20
-130.78167514569157
 10
-30.17648728911582
 20
-130.1511328426368
 10
-29.99578495257229
 20
-129.5242714086155
 10
-29.80705201907259
 20
-128.90125866959158
 10
-29.610339016986746
 20
-128.28226142114025
 10
-29.4056986111421
 20
-127.66744538379282
 10
-29.19318558872369
 20
-127.05697515866933
 10
-28.97285684460636
 20
-126.45101418341065
 10
-28.74477136612266
 20
-125.84972468842264
 10
-28.50899021727049
 20
-125.25326765344278
 10
-28.265576522364785
 20
-124.66180276444209
 10
-28.014595449137623
 20
-124.07548837087364
 10
-27.75611419129126
 20
-123.49448144327809
 10
-27.49020195050872
 20
-122.91893753125927
 10
-27.216929917926862
 20
-122.34901072183953
 10
-26.936371255076747
 20
-121.78485359820712
 10
-26.64860107429658
 20
-121.22661719886582
 10
-26.353696418622295
 20
-120.67445097719843
 10
-26.051736241161276
 20
-120.12850276145431
 10
-25.742801383954678
 20
-119.58891871517233
 10
-25.42697455633409
 20
-119.0558432980493
 10
-25.10434031277825
 20
-118.52941922726461
 10
-24.774985030275722
 20
-118.00978743927138
 10
-24.43899688519975
 20
-117.49708705206447
 10
-24.096465829701234
 20
-116.99145532793503
 10
-23.747483567626443
 20
-116.49302763672225
 10
-23.39214352996564
 20
-116.00193741957145
 10
-23.030540849839326
 20
-115.51831615320881
 10
-22.66277233702886
 20
-115.0422933147417
 10
-22.288936452058064
 20
-114.57399634699459
 10
-21.909133279833032
 20
-114.1135506243896
 10
-21.523464502846945
 20
-113.66107941938068
 10
-21.13203337395721
 20
-113.21670386945053
 10
-20.734944688742182
 20
-112.78054294467927
 10
-20.33230475744485
 20
-112.35271341589325
 10
-19.924221376511
 20
-111.93332982340254
 10
-19.5108037997295
 20
-111.52250444633594
 10
-19.092162708982507
 20
-111.12034727258103
 10
-18.668410184613062
 20
-110.72696596933773
 10
-18.239659675418697
 20
-110.34246585429324
 10
-17.806025968278274
 20
-109.96694986742588
 10
-17.3676251574208
 20
-109.60051854344562
 10
-16.924574613344312
 20
-109.24326998487857
 10
-16.476992951392756
 20
-108.8952998358024
 10
-16.025000000000013
 20
-108.5567012562403
 10
-15.56871676860872
 20
-108.2275648972196
 10
-15.10826541527323
 20
-107.90797887650237
 10
-14.643769213954998
 20
-107.59802875499426
 10
-14.175352521518992
 20
-107.29779751383768
 10
-13.703140744440551
 20
-107.0073655321957
 10
-13.227260305230873
 20
-106.72681056573276
 10
-12.74783860859071
 20
-106.45620772579741
 10
-12.265004007301144
 20
-106.19562945931335
 10
-11.77888576786025
 20
-105.94514552938347
 10
-11.289614035875546
 20
-105.70482299661276
 10
-10.797319801220675
 20
-105.47472620115448
 10
-10.302134862966335
 20
-105.2549167454847
 10
-9.804191794094555
 20
-105.04545347790986
 10
-9.303623906005521
 20
-104.84639247681173
 10
-8.800565212827093
 20
-104.65778703563376
 10
-8.295150395535813
 20
-104.47968764861321
 10
-7.787514765899615
 20
-104.31214199726256
 10
-7.277794230251679
 20
-104.15519493760408
 10
-6.766125253104862
 20
-104.0088884881608
 10
-6.252644820616923
 20
-103.87326181870702
 10
-5.7374904039161
 20
-103.7483512397817
 10
-5.2207999222965755
 20
-103.63419019296731
 10
-4.7027117062943615
 20
-103.5308092419366
 10
-4.183364460652682
 20
-103.43823606426994
 10
-3.6628972271874387
 20
-103.35649544404558
 10
-3.1414493475624408
 20
-103.28560926520402
 10
-2.619160425984073
 20
-103.22559650568951
 10
-2.0961702918261027
 20
-103.17647323236889
 10
-1.572618962193776
 20
-103.13825259673027
 10
-1.048646604437937
 20
-103.11094483136205
 10
-0.5243934986289244
 20
-103.09455724721332
 10
0.0
 20
-103.08909423163661
 10
0.5243934986288842
 20
-103.09455724721332
 10
1.0486466044378968
 20
-103.11094483136205
 10
1.5726189621937359
 20
-103.13825259673027
 10
2.0961702918260627
 20
-103.17647323236889
 10
2.619160425984061
 20
-103.22559650568951
 10
3.141449347562401
 20
-103.28560926520402
 10
3.6628972271873987
 20
-103.35649544404555
 10
4.183364460652642
 20
-103.43823606426994
 10
4.7027117062943224
 20
-103.53080924193657
 10
5.220799922296564
 20
-103.63419019296731
 10
5.737490403916061
 20
-103.7483512397817
 10
6.252644820616883
 20
-103.873261818707
 10
6.766125253104822
 20
-104.00888848816078
 10
7.27779423025164
 20
-104.15519493760408
 10
7.787514765899603
 20
-104.31214199726256
 10
8.295150395535774
 20
-104.47968764861321
 10
8.800565212827054
 20
-104.65778703563376
 10
9.303623906005509
 20
-104.84639247681173
 10
9.804191794094518
 20
-105.04545347790986
 10
10.302134862966325
 20
-105.25491674548468
 10
10.797319801220638
 20
-105.47472620115448
 10
11.289614035875507
 20
-105.70482299661276
 10
11.778885767860238
 20
-105.94514552938347
 10
12.265004007301107
 20
-106.19562945931332
 10
12.747838608590673
 20
-106.45620772579741
 10
13.227260305230837
 20
-106.72681056573273
 10
13.703140744440516
 20
-107.00736553219568
 10
14.175352521518981
 20
-107.29779751383765
 10
14.643769213954963
 20
-107.59802875499423
 10
15.108265415273197
 20
-107.90797887650231
 10
15.568716768608684
 20
-108.22756489721957
 10
16.024999999999977
 20
-108.5567012562403
 10
16.47699295139275
 20
-108.8952998358024
 10
16.924574613344273
 20
-109.24326998487857
 10
17.367625157420765
 20
-109.60051854344559
 10
17.806025968278238
 20
-109.96694986742585
 10
18.239659675418665
 20
-110.34246585429321
 10
18.66841018461305
 20
-110.72696596933773
 10
19.092162708982475
 20
-111.120347272581
 10
19.51080379972947
 20
-111.52250444633592
 10
19.924221376510967
 20
-111.93332982340249
 10
20.332304757444817
 20
-112.35271341589319
 10
20.73494468874217
 20
-112.78054294467927
 10
21.13203337395719
 20
-113.21670386945053
 10
21.523464502846913
 20
-113.66107941938066
 10
21.909133279833014
 20
-114.1135506243896
 10
22.288936452058035
 20
-114.57399634699453
 10
22.66277233702884
 20
-115.04229331474167
 10
23.03054084983931
 20
-115.51831615320879
 10
23.39214352996561
 20
-116.00193741957142
 10
23.74748356762643
 20
-116.49302763672222
 10
24.09646582970121
 20
-116.991455327935
 10
24.43899688519973
 20
-117.49708705206444
 10
24.774985030275708
 20
-118.00978743927138
 10
25.104340312778223
 20
-118.52941922726455
 10
25.426974556334077
 20
-119.05584329804927
 10
25.742801383954653
 20
-119.5889187151723
 10
26.05173624116126
 20
-120.12850276145429
 10
26.353696418622278
 20
-120.6744509771984
 10
26.648601074296558
 20
-121.2266171988658
 10
26.936371255076732
 20
-121.78485359820709
 10
27.21692991792684
 20
-122.3490107218395
 10
27.490201950508702
 20
-122.91893753125922
 10
27.756114191291246
 20
-123.49448144327809
 10
28.014595449137605
 20
-124.07548837087361
 10
28.26557652236477
 20
-124.66180276444209
 10
28.508990217270473
 20
-125.25326765344269
 10
28.74477136612264
 20
-125.84972468842258
 10
28.972856844606348
 20
-126.45101418341062
 10
29.193185588723672
 20
-127.05697515866925
 10
29.40569861114209
 20
-127.6674453837928
 10
29.61033901698673
 20
-128.2822614211402
 10
29.807052019072575
 20
-128.9012586695915
 10
29.99578495257228
 20
-129.52427140861545
 10
30.176487289115805
 20
-130.15113284263677
 10
30.34911065031813
 20
-130.78167514569154
 10
30.513608820731264
 20
-131.4157295063581
 10
30.669937760217284
 20
-132.05312617295215
 10
30.818055615738924
 20
-132.69369449897331
 10
30.95792273256463
 20
-133.33726298879105
 10
31.08950166488513
 20
-133.9836593435587
 10
31.212757185838537
 20
-134.63271050734167
 10
31.32765629694147
 20
-135.28424271344872
 10
31.43416823692353
 20
-135.9380815309537
 10
31.532264489962824
 20
-136.59405191139473
 10
31.62191879332037
 20
-137.2519782356391
 10
31.703107144371224
 20
-137.9116843609005
 10
31.775807807030617
 20
-138.57299366789692
 10
31.84000131757319
 20
-139.23572910813593
 10
31.895670489843905
 20
-139.89971325131458
 10
31.942800419859225
 20
-140.56476833282204
 10
31.98137848979724
 20
-141.23071630133134
 10
32.01139437137577
 20
-141.89737886646813
 10
32.032840028617514
 20
-142.56457754654332
 10
32.045709720001454
 20
-143.23213371633668
 10
32.05
 20
-143.89986865491957
  0
TEXT
  5
92
330
17
100
AcDbEntity
  8
NOTAS
100
AcDbText
 10
-67.5
 20
-208.0
 30
0.0
 40
4.0
  1
07 Ala de la gin pole - Al 6061-T6 10 mm - cantidad 1 - medidas en mm
 11
-67.5
 21
-208.0
 31
0.0
100
AcDbText
  0
ENDSEC
  0
SECTION
  2
OBJECTS
  0
DICTIONARY
  5
A
330
0
100
AcDbDictionary
281
1
  3
ACAD_COLOR
350
B
  3
ACAD_GROUP
350
C
  3
ACAD_LAYOUT
350
D
  3
ACAD_MATERIAL
350
E
  3
ACAD_MLEADERSTYLE
350
F
  3
ACAD_MLINESTYLE
350
10
  3
ACAD_PLOTSETTINGS
350
11
  3
ACAD_PLOTSTYLENAME
350
12
  3
ACAD_SCALELIST
350
14
  3
ACAD_TABLESTYLE
350
15
  3
ACAD_VISUALSTYLE
350
16
  3
EZDXF_META
350
2D
  0
DICTIONARY
  5
B
330
A
100
AcDbDictionary
281
1
  0
DICTIONARY
  5
C
330
A
100
AcDbDictionary
281
1
  0
DICTIONARY
  5
D
330
A
100
AcDbDictionary
281
1
  3
Model
350
1A
  3
Layout1
350
1E
  0
DICTIONARY
  5
E
330
A
100
AcDbDictionary
281
1
  3
ByBlock
350
1F
  3
ByLayer
350
20
  3
Global
350
21
  0
DICTIONARY
  5
F
330
A
100
AcDbDictionary
281
1
  3
Standard
350
2C
  0
DICTIONARY
  5
10
330
A
100
AcDbDictionary
281
1
  3
Standard
350
22
  0
DICTIONARY
  5
11
330
A
100
AcDbDictionary
281
1
  0
ACDBDICTIONARYWDFLT
  5
12
330
A
100
AcDbDictionary
281
1
  3
Normal
350
13
100
AcDbDictionaryWithDefault
340
13
  0
ACDBPLACEHOLDER
  5
13
330
12
  0
DICTIONARY
  5
14
330
A
100
AcDbDictionary
281
1
  0
DICTIONARY
  5
15
330
A
100
AcDbDictionary
281
1
  0
DICTIONARY
  5
16
330
A
100
AcDbDictionary
281
1
  3
2dWireframe
350
5A
  3
Basic
350
5B
  3
Brighten
350
5C
  3
ColorChange
350
5D
  3
Conceptual
350
5E
  3
Dim
350
5F
  3
EdgeColorOff
350
60
  3
Facepattern
350
61
  3
Flat
350
62
  3
FlatWithEdges
350
63
  3
Gouraud
350
64
  3
GouraudWithEdges
350
65
  3
Hidden
350
66
  3
JitterOff
350
67
  3
Linepattern
350
68
  3
Modeling
350
69
  3
OverhangOff
350
6A
  3
Realistic
350
6B
  3
Shaded
350
6C
  3
Shaded with edges
350
6D
  3
Shades of Gray
350
6E
  3
Sketchy
350
6F
  3
Thicken
350
70
  3
Wireframe
350
71
  3
X-Ray
350
72
  0
LAYOUT
  5
1A
330
D
100
AcDbPlotSettings
  1

  4
A3
  6

 40
7.5
 41
20.0
 42
7.5
 43
20.0
 44
420.0
 45
297.0
 46
0.0
 47
0.0
 48
0.0
 49
0.0
140
0.0
141
0.0
142
1.0
143
1.0
 70
1024
 72
1
 73
0
 74
5
  7

 75
16
 76
0
 77
2
 78
300
147
1.0
148
0.0
149
0.0
100
AcDbLayout
  1
Model
 70
1
 71
0
 10
0.0
 20
0.0
 11
420.0
 21
297.0
 12
0.0
 22
0.0
 32
0.0
 14
1e+20
 24
1e+20
 34
1e+20
 15
-1e+20
 25
-1e+20
 35
-1e+20
146
0.0
 13
0.0
 23
0.0
 33
0.0
 16
1.0
 26
0.0
 36
0.0
 17
0.0
 27
1.0
 37
0.0
 76
1
330
17
  0
LAYOUT
  5
1E
330
D
100
AcDbPlotSettings
  1

  4
A3
  6

 40
7.5
 41
20.0
 42
7.5
 43
20.0
 44
420.0
 45
297.0
 46
0.0
 47
0.0
 48
0.0
 49
0.0
140
0.0
141
0.0
142
1.0
143
1.0
 70
0
 72
1
 73
0
 74
5
  7

 75
16
 76
0
 77
2
 78
300
147
1.0
148
0.0
149
0.0
100
AcDbLayout
  1
Layout1
 70
1
 71
1
 10
0.0
 20
0.0
 11
420.0
 21
297.0
 12
0.0
 22
0.0
 32
0.0
 14
1e+20
 24
1e+20
 34
1e+20
 15
-1e+20
 25
-1e+20
 35
-1e+20
146
0.0
 13
0.0
 23
0.0
 33
0.0
 16
1.0
 26
0.0
 36
0.0
 17
0.0
 27
1.0
 37
0.0
 76
1
330
1B
  0
MATERIAL
  5
1F
102
{ACAD_REACTORS
330
E
102
}
330
E
100
AcDbMaterial
  1
ByBlock
  2

 70
0
 40
1.0
 71
1
 41
1.0
 91
-1023410177
 42
1.0
 72
1
  3

 73
1
 74
1
 75
1
 44
0.5
 73
0
 45
1.0
 46
1.0
 77
1
  4

 78
1
 79
1
170
1
 48
1.0
171
1
  6

172
1
173
1
174
1
140
1.0
141
1.0
175
1
  7

176
1
177
1
178
1
143
1.0
179
1
  8

270
1
271
1
272
1
145
1.0
146
1.0
273
1
  9

274
1
275
1
276
1
 42
1.0
 72
1
  3

 73
1
 74
1
 75
1
 94
63
  0
MATERIAL
  5
20
102
{ACAD_REACTORS
330
E
102
}
330
E
100
AcDbMaterial
  1
ByLayer
  2

 70
0
 40
1.0
 71
1
 41
1.0
 91
-1023410177
 42
1.0
 72
1
  3

 73
1
 74
1
 75
1
 44
0.5
 73
0
 45
1.0
 46
1.0
 77
1
  4

 78
1
 79
1
170
1
 48
1.0
171
1
  6

172
1
173
1
174
1
140
1.0
141
1.0
175
1
  7

176
1
177
1
178
1
143
1.0
179
1
  8

270
1
271
1
272
1
145
1.0
146
1.0
273
1
  9

274
1
275
1
276
1
 42
1.0
 72
1
  3

 73
1
 74
1
 75
1
 94
63
  0
MATERIAL
  5
21
102
{ACAD_REACTORS
330
E
102
}
330
E
100
AcDbMaterial
  1
Global
  2

 70
0
 40
1.0
 71
1
 41
1.0
 91
-1023410177
 42
1.0
 72
1
  3

 73
1
 74
1
 75
1
 44
0.5
 73
0
 45
1.0
 46
1.0
 77
1
  4

 78
1
 79
1
170
1
 48
1.0
171
1
  6

172
1
173
1
174
1
140
1.0
141
1.0
175
1
  7

176
1
177
1
178
1
143
1.0
179
1
  8

270
1
271
1
272
1
145
1.0
146
1.0
273
1
  9

274
1
275
1
276
1
 42
1.0
 72
1
  3

 73
1
 74
1
 75
1
 94
63
  0
MLINESTYLE
  5
22
102
{ACAD_REACTORS
330
10
102
}
330
10
100
AcDbMlineStyle
  2
Standard
 70
0
  3

 62
256
 51
90.0
 52
90.0
 71
2
 49
0.5
 62
256
  6
BYLAYER
 49
-0.5
 62
256
  6
BYLAYER
  0
MLEADERSTYLE
  5
2C
102
{ACAD_REACTORS
330
F
102
}
330
F
100
AcDbMLeaderStyle
179
2
170
2
171
1
172
0
 90
2
 40
0.0
 41
0.0
173
1
 91
-1056964608
 92
-2
290
1
 42
2.0
291
1
 43
8.0
  3
Standard
 44
4.0
300

342
29
174
1
175
1
176
0
178
1
 93
-1056964608
 45
4.0
292
0
297
0
 46
4.0
 94
-1056964608
 47
1.0
 49
1.0
140
1.0
294
1
141
0.0
177
0
142
1.0
295
0
296
0
143
3.75
271
0
272
9
273
9
  0
DICTIONARY
  5
2D
330
A
100
AcDbDictionary
280
1
281
1
  3
CREATED_BY_EZDXF
350
2E
  3
WRITTEN_BY_EZDXF
350
95
  0
DICTIONARYVAR
  5
2E
330
2D
100
DictionaryVariables
280
0
  1
1.4.4 @ 2026-09-25T04:50:42.687037+00:00
  0
VISUALSTYLE
  5
5A
102
{ACAD_REACTORS
330
16
102
}
330
16
100
AcDbVisualStyle
  2
2dWireframe
 70
4
 90
0
 40
0.6
 62
7
290
0
291
0
  0
VISUALSTYLE
  5
5B
102
{ACAD_REACTORS
330
16
102
}
330
16
100
AcDbVisualStyle
  2
Basic
 70
7
 90
1
 40
0.6
 62
7
290
0
291
1
  0
VISUALSTYLE
  5
5C
102
{ACAD_REACTORS
330
16
102
}
330
16
100
AcDbVisualStyle
  2
Brighten
 70
12
 90
2
 40
0.6
 62
7
290
0
291
1
  0
VISUALSTYLE
  5
5D
102
{ACAD_REACTORS
330
16
102
}
330
16
100
AcDbVisualStyle
  2
ColorChange
 70
16
 90
2
 40
0.6
 62
8
290
0
291
1
  0
VISUALSTYLE
  5
5E
102
{ACAD_REACTORS
330
16
102
}
330
16
100
AcDbVisualStyle
  2
Conceptual
 70
9
 90
3
 40
0.6
 62
7
290
0
291
0
  0
VISUALSTYLE
  5
5F
102
{ACAD_REACTORS
330
16
102
}
330
16
100
AcDbVisualStyle
  2
Dim
 70
11
 90
2
 40
0.6
 62
7
290
0
291
1
  0
VISUALSTYLE
  5
60
102
{ACAD_REACTORS
330
16
102
}
330
16
100
AcDbVisualStyle
  2
EdgeColorOff
 70
22
 90
2
 40
0.6
 62
7
290
0
291
1
  0
VISUALSTYLE
  5
61
102
{ACAD_REACTORS
330
16
102
}
330
16
100
AcDbVisualStyle
  2
Facepattern
 70
15
 90
2
 40
0.6
 62
7
290
0
291
1
  0
VISUALSTYLE
  5
62
102
{ACAD_REACTORS
330
16
102
}
330
16
100
AcDbVisualStyle
  2
Flat
 70
0
 90
2
 40
0.6
 62
7
290
0
291
1
  0
VISUALSTYLE
  5
63
102
{ACAD_REACTORS
330
16
102
}
330
16
100
AcDbVisualStyle
  2
FlatWithEdges
 70
1
 90
2
 40
0.6
 62
7
290
0
291
1
  0
VISUALSTYLE
  5
64
102
{ACAD_REACTORS
330
16
102
}
330
16
100
AcDbVisualStyle
  2
Gouraud
 70
2
 90
2
 40
0.6
 62
7
290
0
291
1
  0
VISUALSTYLE
  5
65
102
{ACAD_REACTORS
330
16
102
}
330
16
100
AcDbVisualStyle
  2
GouraudWithEdges
 70
3
 90
2
 40
0.6
 62
7
290
0
291
1
  0
VISUALSTYLE
  5
66
102
{ACAD_REACTORS
330
16
102
}
330
16
100
AcDbVisualStyle
  2
Hidden
 70
6
 90
1
 40
0.6
 62
7
290
0
291
0
  0
VISUALSTYLE
  5
67
102
{ACAD_REACTORS
330
16
102
}
330
16
100
AcDbVisualStyle
  2
JitterOff
 70
20
 90
2
 40
0.6
 62
7
290
0
291
1
  0
VISUALSTYLE
  5
68
102
{ACAD_REACTORS
330
16
102
}
330
16
100
AcDbVisualStyle
  2
Linepattern
 70
14
 90
2
 40
0.6
 62
7
290
0
291
1
  0
VISUALSTYLE
  5
69
102
{ACAD_REACTORS
330
16
102
}
330
16
100
AcDbVisualStyle
  2
Modeling
 70
10
 90
2
 40
0.6
 62
7
290
0
291
0
  0
VISUALSTYLE
  5
6A
102
{ACAD_REACTORS
330
16
102
}
330
16
100
AcDbVisualStyle
  2
OverhangOff
 70
21
 90
2
 40
0.6
 62
7
290
0
291
1
  0
VISUALSTYLE
  5
6B
102
{ACAD_REACTORS
330
16
102
}
330
16
100
AcDbVisualStyle
  2
Realistic
 70
8
 90
2
 40
0.6
 62
7
290
0
291
0
  0
VISUALSTYLE
  5
6C
102
{ACAD_REACTORS
330
16
102
}
330
16
100
AcDbVisualStyle
  2
Shaded
 70
27
 90
2
 40
0.6
 62
7
290
0
291
0
  0
VISUALSTYLE
  5
6D
102
{ACAD_REACTORS
330
16
102
}
330
16
100
AcDbVisualStyle
  2
Shaded with edges
 70
26
 90
2
 40
0.6
 62
7
290
0
291
0
  0
VISUALSTYLE
  5
6E
102
{ACAD_REACTORS
330
16
102
}
330
16
100
AcDbVisualStyle
  2
Shades of Gray
 70
23
 90
2
 40
0.6
 62
7
290
0
291
0
  0
VISUALSTYLE
  5
6F
102
{ACAD_REACTORS
330
16
102
}
330
16
100
AcDbVisualStyle
  2
Sketchy
 70
24
 90
1
 40
0.6
 62
7
290
0
291
0
  0
VISUALSTYLE
  5
70
102
{ACAD_REACTORS
330
16
102
}
330
16
100
AcDbVisualStyle
  2
Thicken
 70
13
 90
2
 40
0.6
 62
7
290
0
291
1
  0
VISUALSTYLE
  5
71
102
{ACAD_REACTORS
330
16
102
}
330
16
100
AcDbVisualStyle
  2
Wireframe
 70
5
 90
0
 40
0.6
 62
7
290
0
291
0
  0
VISUALSTYLE
  5
72
102
{ACAD_REACTORS
330
16
102
}
330
16
100
AcDbVisualStyle
  2
X-Ray
 70
25
 90
2
 40
0.5
 62
7
290
0
291
0
  0
DICTIONARYVAR
  5
95
330
2D
100
DictionaryVariables
280
0
  1
1.4.4 @ 2026-09-25T04:50:42.693529+00:00
  0
ENDSEC
  0
EOF
