                                                                        S0000001
,,31HOpen CASCADE IGES processor 7.9,13HFilename.iges,                  G0000001
16HOpen CASCADE 7.9,31HOpen CASCADE IGES processor 7.9,32,308,15,308,15,G0000002
,1.,2,2HMM,1,0.01,15H20260926.043350,1.125E-07,610.005769,4Hroot,,11,0, G0000003
15H20260926.043350,;                                                    G0000004
     186       1       0       0       0       0       0       000000000D0000001
     186       0       0       1       0                               0D0000002
     514       2       0       0       0       0       0       000010000D0000003
     514       0       0       3       1                               0D0000004
     510       5       0       0       0       0       0       000010000D0000005
     510       0       0       1       1                               0D0000006
     190       6       0       0       0       0       0       000010000D0000007
     190       0       0       1       1                               0D0000008
     116       7       0       0       0       0       0       000010400D0000009
     116       0       0       1       0                               0D0000010
     123       8       0       0       0       0       0       000010200D0000011
     123       0       0       1       0                               0D0000012
     123       9       0       0       0       0       0       000010200D0000013
     123       0       0       1       0                               0D0000014
     508      10       0       0       0       0       0       000010000D0000015
     508       0       0       1       1                               0D0000016
     504      11       0       0       0       0       0       000010001D0000017
     504       0       0      21       1                               0D0000018
     110      32       0       0       0       0       0       000010000D0000019
     110       0       0       1       0                               0D0000020
     502      33       0       0       0       0       0       000010000D0000021
     502       0       0      14       1                               0D0000022
     110      47       0       0       0       0       0       000010000D0000023
     110       0       0       1       0                               0D0000024
     110      48       0       0       0       0       0       000010000D0000025
     110       0       0       1       0                               0D0000026
     110      49       0       0       0       0       0       000010000D0000027
     110       0       0       1       0                               0D0000028
     110      50       0       0       0       0       0       000010000D0000029
     110       0       0       1       0                               0D0000030
     110      51       0       0       0       0       0       000010000D0000031
     110       0       0       1       0                               0D0000032
     110      52       0       0       0       0       0       000010000D0000033
     110       0       0       1       0                               0D0000034
     110      53       0       0       0       0       0       000010000D0000035
     110       0       0       1       0                               0D0000036
     110      54       0       0       0       0       0       000010000D0000037
     110       0       0       1       0                               0D0000038
     110      55       0       0       0       0       0       000010000D0000039
     110       0       0       1       0                               0D0000040
     110      56       0       0       0       0       0       000010000D0000041
     110       0       0       1       0                               0D0000042
     110      57       0       0       0       0       0       000010000D0000043
     110       0       0       1       0                               0D0000044
     110      58       0       0       0       0       0       000010000D0000045
     110       0       0       1       0                               0D0000046
     110      59       0       0       0       0       0       000010000D0000047
     110       0       0       1       0                               0D0000048
     110      60       0       0       0       0       0       000010000D0000049
     110       0       0       1       0                               0D0000050
     100      61       0       0       0       0      53       000010000D0000051
     100       0       0       1       0                               0D0000052
     124      62       0       0       0       0       0       000000000D0000053
     124       0       0       1       0                               0D0000054
     110      63       0       0       0       0       0       000010000D0000055
     110       0       0       1       0                               0D0000056
     110      64       0       0       0       0       0       000010000D0000057
     110       0       0       1       0                               0D0000058
     110      65       0       0       0       0       0       000010000D0000059
     110       0       0       1       0                               0D0000060
     110      66       0       0       0       0       0       000010000D0000061
     110       0       0       1       0                               0D0000062
     110      67       0       0       0       0       0       000010000D0000063
     110       0       0       1       0                               0D0000064
     110      68       0       0       0       0       0       000010000D0000065
     110       0       0       1       0                               0D0000066
     110      69       0       0       0       0       0       000010000D0000067
     110       0       0       1       0                               0D0000068
     110      70       0       0       0       0       0       000010000D0000069
     110       0       0       1       0                               0D0000070
     110      71       0       0       0       0       0       000010000D0000071
     110       0       0       1       0                               0D0000072
     100      72       0       0       0       0      75       000010000D0000073
     100       0       0       1       0                               0D0000074
     124      73       0       0       0       0       0       000000000D0000075
     124       0       0       1       0                               0D0000076
     110      74       0       0       0       0       0       000010000D0000077
     110       0       0       1       0                               0D0000078
     110      75       0       0       0       0       0       000010000D0000079
     110       0       0       1       0                               0D0000080
     110      76       0       0       0       0       0       000010000D0000081
     110       0       0       1       0                               0D0000082
     110      77       0       0       0       0       0       000010000D0000083
     110       0       0       1       0                               0D0000084
     110      78       0       0       0       0       0       000010000D0000085
     110       0       0       1       0                               0D0000086
     110      79       0       0       0       0       0       000010000D0000087
     110       0       0       1       0                               0D0000088
     110      80       0       0       0       0       0       000010000D0000089
     110       0       0       1       0                               0D0000090
     100      81       0       0       0       0      93       000010000D0000091
     100       0       0       1       0                               0D0000092
     124      82       0       0       0       0       0       000000000D0000093
     124       0       0       1       0                               0D0000094
     110      83       0       0       0       0       0       000010000D0000095
     110       0       0       1       0                               0D0000096
     110      84       0       0       0       0       0       000010000D0000097
     110       0       0       1       0                               0D0000098
     110      85       0       0       0       0       0       000010000D0000099
     110       0       0       1       0                               0D0000100
     110      86       0       0       0       0       0       000010000D0000101
     110       0       0       1       0                               0D0000102
     110      87       0       0       0       0       0       000010000D0000103
     110       0       0       1       0                               0D0000104
     110      88       0       0       0       0       0       000010000D0000105
     110       0       0       1       0                               0D0000106
     110      89       0       0       0       0       0       000010000D0000107
     110       0       0       1       0                               0D0000108
     100      90       0       0       0       0     111       000010000D0000109
     100       0       0       1       0                               0D0000110
     124      91       0       0       0       0       0       000000000D0000111
     124       0       0       1       0                               0D0000112
     110      92       0       0       0       0       0       000010000D0000113
     110       0       0       1       0                               0D0000114
     110      93       0       0       0       0       0       000010000D0000115
     110       0       0       1       0                               0D0000116
     110      94       0       0       0       0       0       000010000D0000117
     110       0       0       1       0                               0D0000118
     110      95       0       0       0       0       0       000010000D0000119
     110       0       0       1       0                               0D0000120
     110      96       0       0       0       0       0       000010000D0000121
     110       0       0       1       0                               0D0000122
     110      97       0       0       0       0       0       000010000D0000123
     110       0       0       1       0                               0D0000124
     110      98       0       0       0       0       0       000010000D0000125
     110       0       0       1       0                               0D0000126
     110      99       0       0       0       0       0       000010000D0000127
     110       0       0       1       0                               0D0000128
     110     100       0       0       0       0       0       000010000D0000129
     110       0       0       1       0                               0D0000130
     110     101       0       0       0       0       0       000010000D0000131
     110       0       0       1       0                               0D0000132
     110     102       0       0       0       0       0       000010000D0000133
     110       0       0       1       0                               0D0000134
     100     103       0       0       0       0     137       000010000D0000135
     100       0       0       1       0                               0D0000136
     124     104       0       0       0       0       0       000000000D0000137
     124       0       0       1       0                               0D0000138
     110     105       0       0       0       0       0       000010000D0000139
     110       0       0       1       0                               0D0000140
     110     106       0       0       0       0       0       000010000D0000141
     110       0       0       1       0                               0D0000142
     110     107       0       0       0       0       0       000010000D0000143
     110       0       0       1       0                               0D0000144
     110     108       0       0       0       0       0       000010000D0000145
     110       0       0       1       0                               0D0000146
     110     109       0       0       0       0       0       000010000D0000147
     110       0       0       1       0                               0D0000148
     110     110       0       0       0       0       0       000010000D0000149
     110       0       0       1       0                               0D0000150
     110     111       0       0       0       0       0       000010000D0000151
     110       0       0       1       0                               0D0000152
     110     112       0       0       0       0       0       000010000D0000153
     110       0       0       1       0                               0D0000154
     110     113       0       0       0       0       0       000010000D0000155
     110       0       0       1       0                               0D0000156
     110     114       0       0       0       0       0       000010000D0000157
     110       0       0       1       0                               0D0000158
     110     115       0       0       0       0       0       000010000D0000159
     110       0       0       1       0                               0D0000160
     110     116       0       0       0       0       0       000010000D0000161
     110       0       0       1       0                               0D0000162
     110     117       0       0       0       0       0       000010000D0000163
     110       0       0       1       0                               0D0000164
     110     118       0       0       0       0       0       000010000D0000165
     110       0       0       1       0                               0D0000166
     110     119       0       0       0       0       0       000010000D0000167
     110       0       0       1       0                               0D0000168
     100     120       0       0       0       0     171       000010000D0000169
     100       0       0       1       0                               0D0000170
     124     121       0       0       0       0       0       000000000D0000171
     124       0       0       1       0                               0D0000172
     110     122       0       0       0       0       0       000010000D0000173
     110       0       0       1       0                               0D0000174
     110     123       0       0       0       0       0       000010000D0000175
     110       0       0       1       0                               0D0000176
     110     124       0       0       0       0       0       000010000D0000177
     110       0       0       1       0                               0D0000178
     110     125       0       0       0       0       0       000010000D0000179
     110       0       0       1       0                               0D0000180
     110     126       0       0       0       0       0       000010000D0000181
     110       0       0       1       0                               0D0000182
     110     127       0       0       0       0       0       000010000D0000183
     110       0       0       1       0                               0D0000184
     100     128       0       0       0       0     187       000010000D0000185
     100       0       0       1       0                               0D0000186
     124     129       0       0       0       0       0       000000000D0000187
     124       0       0       1       0                               0D0000188
     110     130       0       0       0       0       0       000010000D0000189
     110       0       0       1       0                               0D0000190
     110     131       0       0       0       0       0       000010000D0000191
     110       0       0       1       0                               0D0000192
     110     132       0       0       0       0       0       000010000D0000193
     110       0       0       1       0                               0D0000194
     110     133       0       0       0       0       0       000010000D0000195
     110       0       0       1       0                               0D0000196
     110     134       0       0       0       0       0       000010000D0000197
     110       0       0       1       0                               0D0000198
     100     135       0       0       0       0     201       000010000D0000199
     100       0       0       1       0                               0D0000200
     124     136       0       0       0       0       0       000000000D0000201
     124       0       0       1       0                               0D0000202
     110     137       0       0       0       0       0       000010000D0000203
     110       0       0       1       0                               0D0000204
     510     138       0       0       0       0       0       000010000D0000205
     510       0       0       1       1                               0D0000206
     190     139       0       0       0       0       0       000010000D0000207
     190       0       0       1       1                               0D0000208
     116     140       0       0       0       0       0       000010400D0000209
     116       0       0       1       0                               0D0000210
     123     141       0       0       0       0       0       000010200D0000211
     123       0       0       1       0                               0D0000212
     123     142       0       0       0       0       0       000010200D0000213
     123       0       0       1       0                               0D0000214
     508     143       0       0       0       0       0       000010000D0000215
     508       0       0       1       1                               0D0000216
     508     144       0       0       0       0       0       000010000D0000217
     508       0       0       1       1                               0D0000218
     510     145       0       0       0       0       0       000010000D0000219
     510       0       0       1       1                               0D0000220
     190     146       0       0       0       0       0       000010000D0000221
     190       0       0       1       1                               0D0000222
     116     147       0       0       0       0       0       000010400D0000223
     116       0       0       1       0                               0D0000224
     123     148       0       0       0       0       0       000010200D0000225
     123       0       0       1       0                               0D0000226
     123     149       0       0       0       0       0       000010200D0000227
     123       0       0       1       0                               0D0000228
     508     150       0       0       0       0       0       000010000D0000229
     508       0       0       2       1                               0D0000230
     508     152       0       0       0       0       0       000010000D0000231
     508       0       0       1       1                               0D0000232
     510     153       0       0       0       0       0       000010000D0000233
     510       0       0       1       1                               0D0000234
     190     154       0       0       0       0       0       000010000D0000235
     190       0       0       1       1                               0D0000236
     116     155       0       0       0       0       0       000010400D0000237
     116       0       0       1       0                               0D0000238
     123     156       0       0       0       0       0       000010200D0000239
     123       0       0       1       0                               0D0000240
     123     157       0       0       0       0       0       000010200D0000241
     123       0       0       1       0                               0D0000242
     508     158       0       0       0       0       0       000010000D0000243
     508       0       0       2       1                               0D0000244
     510     160       0       0       0       0       0       000010000D0000245
     510       0       0       1       1                               0D0000246
     190     161       0       0       0       0       0       000010000D0000247
     190       0       0       1       1                               0D0000248
     116     162       0       0       0       0       0       000010400D0000249
     116       0       0       1       0                               0D0000250
     123     163       0       0       0       0       0       000010200D0000251
     123       0       0       1       0                               0D0000252
     123     164       0       0       0       0       0       000010200D0000253
     123       0       0       1       0                               0D0000254
     508     165       0       0       0       0       0       000010000D0000255
     508       0       0       2       1                               0D0000256
     508     167       0       0       0       0       0       000010000D0000257
     508       0       0       1       1                               0D0000258
     510     168       0       0       0       0       0       000010000D0000259
     510       0       0       1       1                               0D0000260
     190     169       0       0       0       0       0       000010000D0000261
     190       0       0       1       1                               0D0000262
     116     170       0       0       0       0       0       000010400D0000263
     116       0       0       1       0                               0D0000264
     123     171       0       0       0       0       0       000010200D0000265
     123       0       0       1       0                               0D0000266
     123     172       0       0       0       0       0       000010200D0000267
     123       0       0       1       0                               0D0000268
     508     173       0       0       0       0       0       000010000D0000269
     508       0       0       1       1                               0D0000270
     510     174       0       0       0       0       0       000010000D0000271
     510       0       0       1       1                               0D0000272
     190     175       0       0       0       0       0       000010000D0000273
     190       0       0       1       1                               0D0000274
     116     176       0       0       0       0       0       000010400D0000275
     116       0       0       1       0                               0D0000276
     123     177       0       0       0       0       0       000010200D0000277
     123       0       0       1       0                               0D0000278
     123     178       0       0       0       0       0       000010200D0000279
     123       0       0       1       0                               0D0000280
     508     179       0       0       0       0       0       000010000D0000281
     508       0       0       2       1                               0D0000282
     508     181       0       0       0       0       0       000010000D0000283
     508       0       0       1       1                               0D0000284
     510     182       0       0       0       0       0       000010000D0000285
     510       0       0       1       1                               0D0000286
     190     183       0       0       0       0       0       000010000D0000287
     190       0       0       1       1                               0D0000288
     116     184       0       0       0       0       0       000010400D0000289
     116       0       0       1       0                               0D0000290
     123     185       0       0       0       0       0       000010200D0000291
     123       0       0       1       0                               0D0000292
     123     186       0       0       0       0       0       000010200D0000293
     123       0       0       1       0                               0D0000294
     508     187       0       0       0       0       0       000010000D0000295
     508       0       0       1       1                               0D0000296
     510     188       0       0       0       0       0       000010000D0000297
     510       0       0       1       1                               0D0000298
     190     189       0       0       0       0       0       000010000D0000299
     190       0       0       1       1                               0D0000300
     116     190       0       0       0       0       0       000010400D0000301
     116       0       0       1       0                               0D0000302
     123     191       0       0       0       0       0       000010200D0000303
     123       0       0       1       0                               0D0000304
     123     192       0       0       0       0       0       000010200D0000305
     123       0       0       1       0                               0D0000306
     508     193       0       0       0       0       0       000010000D0000307
     508       0       0       2       1                               0D0000308
     508     195       0       0       0       0       0       000010000D0000309
     508       0       0       1       1                               0D0000310
     510     196       0       0       0       0       0       000010000D0000311
     510       0       0       1       1                               0D0000312
     190     197       0       0       0       0       0       000010000D0000313
     190       0       0       1       1                               0D0000314
     116     198       0       0       0       0       0       000010400D0000315
     116       0       0       1       0                               0D0000316
     123     199       0       0       0       0       0       000010200D0000317
     123       0       0       1       0                               0D0000318
     123     200       0       0       0       0       0       000010200D0000319
     123       0       0       1       0                               0D0000320
     508     201       0       0       0       0       0       000010000D0000321
     508       0       0       1       1                               0D0000322
     510     202       0       0       0       0       0       000010000D0000323
     510       0       0       1       1                               0D0000324
     190     203       0       0       0       0       0       000010000D0000325
     190       0       0       1       1                               0D0000326
     116     204       0       0       0       0       0       000010400D0000327
     116       0       0       1       0                               0D0000328
     123     205       0       0       0       0       0       000010200D0000329
     123       0       0       1       0                               0D0000330
     123     206       0       0       0       0       0       000010200D0000331
     123       0       0       1       0                               0D0000332
     508     207       0       0       0       0       0       000010000D0000333
     508       0       0       1       1                               0D0000334
     510     208       0       0       0       0       0       000010000D0000335
     510       0       0       1       1                               0D0000336
     190     209       0       0       0       0       0       000010000D0000337
     190       0       0       1       1                               0D0000338
     116     210       0       0       0       0       0       000010400D0000339
     116       0       0       1       0                               0D0000340
     123     211       0       0       0       0       0       000010200D0000341
     123       0       0       1       0                               0D0000342
     123     212       0       0       0       0       0       000010200D0000343
     123       0       0       1       0                               0D0000344
     508     213       0       0       0       0       0       000010000D0000345
     508       0       0       2       1                               0D0000346
     510     215       0       0       0       0       0       000010000D0000347
     510       0       0       1       1                               0D0000348
     192     216       0       0       0       0       0       000010000D0000349
     192       0       0       1       1                               0D0000350
     116     217       0       0       0       0       0       000010400D0000351
     116       0       0       1       0                               0D0000352
     123     218       0       0       0       0       0       000010200D0000353
     123       0       0       1       0                               0D0000354
     123     219       0       0       0       0       0       000010200D0000355
     123       0       0       1       0                               0D0000356
     508     220       0       0       0       0       0       000010000D0000357
     508       0       0       2       1                               0D0000358
     110     222       0       0       0       0       0       000010000D0000359
     110       0       0       1       0                               0D0000360
     110     223       0       0       0       0       0       000010000D0000361
     110       0       0       1       0                               0D0000362
     110     224       0       0       0       0       0       000010000D0000363
     110       0       0       1       0                               0D0000364
     110     225       0       0       0       0       0       000010000D0000365
     110       0       0       1       0                               0D0000366
     510     226       0       0       0       0       0       000010000D0000367
     510       0       0       1       1                               0D0000368
     190     227       0       0       0       0       0       000010000D0000369
     190       0       0       1       1                               0D0000370
     116     228       0       0       0       0       0       000010400D0000371
     116       0       0       1       0                               0D0000372
     123     229       0       0       0       0       0       000010200D0000373
     123       0       0       1       0                               0D0000374
     123     230       0       0       0       0       0       000010200D0000375
     123       0       0       1       0                               0D0000376
     508     231       0       0       0       0       0       000010000D0000377
     508       0       0       2       1                               0D0000378
     508     233       0       0       0       0       0       000010000D0000379
     508       0       0       1       1                               0D0000380
     510     234       0       0       0       0       0       000010000D0000381
     510       0       0       1       1                               0D0000382
     190     235       0       0       0       0       0       000010000D0000383
     190       0       0       1       1                               0D0000384
     116     236       0       0       0       0       0       000010400D0000385
     116       0       0       1       0                               0D0000386
     123     237       0       0       0       0       0       000010200D0000387
     123       0       0       1       0                               0D0000388
     123     238       0       0       0       0       0       000010200D0000389
     123       0       0       1       0                               0D0000390
     508     239       0       0       0       0       0       000010000D0000391
     508       0       0       1       1                               0D0000392
     510     240       0       0       0       0       0       000010000D0000393
     510       0       0       1       1                               0D0000394
     192     241       0       0       0       0       0       000010000D0000395
     192       0       0       1       1                               0D0000396
     116     242       0       0       0       0       0       000010400D0000397
     116       0       0       1       0                               0D0000398
     123     243       0       0       0       0       0       000010200D0000399
     123       0       0       1       0                               0D0000400
     123     244       0       0       0       0       0       000010200D0000401
     123       0       0       1       0                               0D0000402
     508     245       0       0       0       0       0       000010000D0000403
     508       0       0       2       1                               0D0000404
     110     247       0       0       0       0       0       000010000D0000405
     110       0       0       1       0                               0D0000406
     110     248       0       0       0       0       0       000010000D0000407
     110       0       0       1       0                               0D0000408
     110     249       0       0       0       0       0       000010000D0000409
     110       0       0       1       0                               0D0000410
     110     250       0       0       0       0       0       000010000D0000411
     110       0       0       1       0                               0D0000412
     510     251       0       0       0       0       0       000010000D0000413
     510       0       0       1       1                               0D0000414
     190     252       0       0       0       0       0       000010000D0000415
     190       0       0       1       1                               0D0000416
     116     253       0       0       0       0       0       000010400D0000417
     116       0       0       1       0                               0D0000418
     123     254       0       0       0       0       0       000010200D0000419
     123       0       0       1       0                               0D0000420
     123     255       0       0       0       0       0       000010200D0000421
     123       0       0       1       0                               0D0000422
     508     256       0       0       0       0       0       000010000D0000423
     508       0       0       1       1                               0D0000424
     510     257       0       0       0       0       0       000010000D0000425
     510       0       0       1       1                               0D0000426
     190     258       0       0       0       0       0       000010000D0000427
     190       0       0       1       1                               0D0000428
     116     259       0       0       0       0       0       000010400D0000429
     116       0       0       1       0                               0D0000430
     123     260       0       0       0       0       0       000010200D0000431
     123       0       0       1       0                               0D0000432
     123     261       0       0       0       0       0       000010200D0000433
     123       0       0       1       0                               0D0000434
     508     262       0       0       0       0       0       000010000D0000435
     508       0       0       1       1                               0D0000436
     510     263       0       0       0       0       0       000010000D0000437
     510       0       0       1       1                               0D0000438
     190     264       0       0       0       0       0       000010000D0000439
     190       0       0       1       1                               0D0000440
     116     265       0       0       0       0       0       000010400D0000441
     116       0       0       1       0                               0D0000442
     123     266       0       0       0       0       0       000010200D0000443
     123       0       0       1       0                               0D0000444
     123     267       0       0       0       0       0       000010200D0000445
     123       0       0       1       0                               0D0000446
     508     268       0       0       0       0       0       000010000D0000447
     508       0       0       1       1                               0D0000448
     510     269       0       0       0       0       0       000010000D0000449
     510       0       0       1       1                               0D0000450
     190     270       0       0       0       0       0       000010000D0000451
     190       0       0       1       1                               0D0000452
     116     271       0       0       0       0       0       000010400D0000453
     116       0       0       1       0                               0D0000454
     123     272       0       0       0       0       0       000010200D0000455
     123       0       0       1       0                               0D0000456
     123     273       0       0       0       0       0       000010200D0000457
     123       0       0       1       0                               0D0000458
     508     274       0       0       0       0       0       000010000D0000459
     508       0       0       1       1                               0D0000460
     510     275       0       0       0       0       0       000010000D0000461
     510       0       0       1       1                               0D0000462
     190     276       0       0       0       0       0       000010000D0000463
     190       0       0       1       1                               0D0000464
     116     277       0       0       0       0       0       000010400D0000465
     116       0       0       1       0                               0D0000466
     123     278       0       0       0       0       0       000010200D0000467
     123       0       0       1       0                               0D0000468
     123     279       0       0       0       0       0       000010200D0000469
     123       0       0       1       0                               0D0000470
     508     280       0       0       0       0       0       000010000D0000471
     508       0       0       2       1                               0D0000472
     508     282       0       0       0       0       0       000010000D0000473
     508       0       0       1       1                               0D0000474
     510     283       0       0       0       0       0       000010000D0000475
     510       0       0       1       1                               0D0000476
     190     284       0       0       0       0       0       000010000D0000477
     190       0       0       1       1                               0D0000478
     116     285       0       0       0       0       0       000010400D0000479
     116       0       0       1       0                               0D0000480
     123     286       0       0       0       0       0       000010200D0000481
     123       0       0       1       0                               0D0000482
     123     287       0       0       0       0       0       000010200D0000483
     123       0       0       1       0                               0D0000484
     508     288       0       0       0       0       0       000010000D0000485
     508       0       0       1       1                               0D0000486
     510     289       0       0       0       0       0       000010000D0000487
     510       0       0       1       1                               0D0000488
     190     290       0       0       0       0       0       000010000D0000489
     190       0       0       1       1                               0D0000490
     116     291       0       0       0       0       0       000010400D0000491
     116       0       0       1       0                               0D0000492
     123     292       0       0       0       0       0       000010200D0000493
     123       0       0       1       0                               0D0000494
     123     293       0       0       0       0       0       000010200D0000495
     123       0       0       1       0                               0D0000496
     508     294       0       0       0       0       0       000010000D0000497
     508       0       0       1       1                               0D0000498
     510     295       0       0       0       0       0       000010000D0000499
     510       0       0       1       1                               0D0000500
     190     296       0       0       0       0       0       000010000D0000501
     190       0       0       1       1                               0D0000502
     116     297       0       0       0       0       0       000010400D0000503
     116       0       0       1       0                               0D0000504
     123     298       0       0       0       0       0       000010200D0000505
     123       0       0       1       0                               0D0000506
     123     299       0       0       0       0       0       000010200D0000507
     123       0       0       1       0                               0D0000508
     508     300       0       0       0       0       0       000010000D0000509
     508       0       0       1       1                               0D0000510
     508     301       0       0       0       0       0       000010000D0000511
     508       0       0       1       1                               0D0000512
     510     302       0       0       0       0       0       000010000D0000513
     510       0       0       1       1                               0D0000514
     192     303       0       0       0       0       0       000010000D0000515
     192       0       0       1       1                               0D0000516
     116     304       0       0       0       0       0       000010400D0000517
     116       0       0       1       0                               0D0000518
     123     305       0       0       0       0       0       000010200D0000519
     123       0       0       1       0                               0D0000520
     123     306       0       0       0       0       0       000010200D0000521
     123       0       0       1       0                               0D0000522
     508     307       0       0       0       0       0       000010000D0000523
     508       0       0       2       1                               0D0000524
     110     309       0       0       0       0       0       000010000D0000525
     110       0       0       1       0                               0D0000526
     110     310       0       0       0       0       0       000010000D0000527
     110       0       0       1       0                               0D0000528
     110     311       0       0       0       0       0       000010000D0000529
     110       0       0       1       0                               0D0000530
     110     312       0       0       0       0       0       000010000D0000531
     110       0       0       1       0                               0D0000532
     510     313       0       0       0       0       0       000010000D0000533
     510       0       0       1       1                               0D0000534
     190     314       0       0       0       0       0       000010000D0000535
     190       0       0       1       1                               0D0000536
     116     315       0       0       0       0       0       000010400D0000537
     116       0       0       1       0                               0D0000538
     123     316       0       0       0       0       0       000010200D0000539
     123       0       0       1       0                               0D0000540
     123     317       0       0       0       0       0       000010200D0000541
     123       0       0       1       0                               0D0000542
     508     318       0       0       0       0       0       000010000D0000543
     508       0       0       2       1                               0D0000544
     508     320       0       0       0       0       0       000010000D0000545
     508       0       0       1       1                               0D0000546
     510     321       0       0       0       0       0       000010000D0000547
     510       0       0       1       1                               0D0000548
     190     322       0       0       0       0       0       000010000D0000549
     190       0       0       1       1                               0D0000550
     116     323       0       0       0       0       0       000010400D0000551
     116       0       0       1       0                               0D0000552
     123     324       0       0       0       0       0       000010200D0000553
     123       0       0       1       0                               0D0000554
     123     325       0       0       0       0       0       000010200D0000555
     123       0       0       1       0                               0D0000556
     508     326       0       0       0       0       0       000010000D0000557
     508       0       0       2       1                               0D0000558
     508     328       0       0       0       0       0       000010000D0000559
     508       0       0       1       1                               0D0000560
     510     329       0       0       0       0       0       000010000D0000561
     510       0       0       1       1                               0D0000562
     190     330       0       0       0       0       0       000010000D0000563
     190       0       0       1       1                               0D0000564
     116     331       0       0       0       0       0       000010400D0000565
     116       0       0       1       0                               0D0000566
     123     332       0       0       0       0       0       000010200D0000567
     123       0       0       1       0                               0D0000568
     123     333       0       0       0       0       0       000010200D0000569
     123       0       0       1       0                               0D0000570
     508     334       0       0       0       0       0       000010000D0000571
     508       0       0       1       1                               0D0000572
     510     335       0       0       0       0       0       000010000D0000573
     510       0       0       1       1                               0D0000574
     190     336       0       0       0       0       0       000010000D0000575
     190       0       0       1       1                               0D0000576
     116     337       0       0       0       0       0       000010400D0000577
     116       0       0       1       0                               0D0000578
     123     338       0       0       0       0       0       000010200D0000579
     123       0       0       1       0                               0D0000580
     123     339       0       0       0       0       0       000010200D0000581
     123       0       0       1       0                               0D0000582
     508     340       0       0       0       0       0       000010000D0000583
     508       0       0       1       1                               0D0000584
     510     341       0       0       0       0       0       000010000D0000585
     510       0       0       1       1                               0D0000586
     192     342       0       0       0       0       0       000010000D0000587
     192       0       0       1       1                               0D0000588
     116     343       0       0       0       0       0       000010400D0000589
     116       0       0       1       0                               0D0000590
     123     344       0       0       0       0       0       000010200D0000591
     123       0       0       1       0                               0D0000592
     123     345       0       0       0       0       0       000010200D0000593
     123       0       0       1       0                               0D0000594
     508     346       0       0       0       0       0       000010000D0000595
     508       0       0       2       1                               0D0000596
     110     348       0       0       0       0       0       000010000D0000597
     110       0       0       1       0                               0D0000598
     110     349       0       0       0       0       0       000010000D0000599
     110       0       0       1       0                               0D0000600
     110     350       0       0       0       0       0       000010000D0000601
     110       0       0       1       0                               0D0000602
     110     351       0       0       0       0       0       000010000D0000603
     110       0       0       1       0                               0D0000604
186,3,1,0;                                                       0000001P0000001
514,30,5,0,205,0,219,1,233,1,245,0,259,1,271,0,285,0,297,1,311,  0000003P0000002
1,323,0,335,1,347,0,367,0,381,0,393,0,413,0,425,1,437,0,449,1,   0000003P0000003
461,1,475,1,487,0,499,1,513,0,533,1,547,0,561,0,573,1,585,0;     0000003P0000004
510,7,1,1,15;                                                    0000005P0000005
190,9,11,13;                                                     0000007P0000006
116,-45.,300.,-22.,0;                                            0000009P0000007
123,1.,0.,0.;                                                    0000011P0000008
123,0.,0.,1.;                                                    0000013P0000009
508,4,0,17,1,0,0,0,17,2,1,0,0,17,3,1,0,0,17,4,0,0;               0000015P0000010
504,84,19,21,1,21,2,23,21,1,21,3,25,21,3,21,4,27,21,2,21,4,29,   0000017P0000011
21,1,21,5,31,21,2,21,6,33,21,5,21,6,35,21,7,21,8,37,21,7,21,9,   0000017P0000012
39,21,9,21,10,41,21,8,21,10,43,21,6,21,11,45,21,12,21,11,47,21,  0000017P0000013
13,21,12,49,21,4,21,13,51,21,14,21,14,55,21,3,21,15,57,21,16,21, 0000017P0000014
13,59,21,17,21,16,61,21,18,21,17,63,21,18,21,19,65,21,15,21,19,  0000017P0000015
67,21,5,21,20,69,21,21,21,20,71,21,15,21,21,73,21,22,21,22,77,   0000017P0000016
21,20,21,11,79,21,7,21,17,81,21,8,21,23,83,21,24,21,23,85,21,25, 0000017P0000017
21,24,87,21,26,21,25,89,21,16,21,26,91,21,27,21,27,95,21,10,21,  0000017P0000018
28,97,21,28,21,23,99,21,9,21,18,101,21,29,21,28,103,21,30,21,29, 0000017P0000019
105,21,31,21,30,107,21,19,21,31,109,21,32,21,32,113,21,12,21,33, 0000017P0000020
115,21,13,21,34,117,21,34,21,33,119,21,21,21,29,121,21,24,21,12, 0000017P0000021
123,21,27,21,14,125,21,35,21,15,127,21,35,21,36,129,21,36,21,37, 0000017P0000022
131,21,34,21,37,133,21,19,21,16,135,21,38,21,38,139,21,39,21,21, 0000017P0000023
141,21,35,21,39,143,21,32,21,22,145,21,26,21,31,147,21,40,21,26, 0000017P0000024
149,21,40,21,41,151,21,41,21,25,153,21,29,21,24,155,21,25,21,30, 0000017P0000025
157,21,31,21,42,159,21,30,21,43,161,21,42,21,43,163,21,39,21,44, 0000017P0000026
165,21,44,21,45,167,21,33,21,45,169,21,46,21,46,173,21,37,21,45, 0000017P0000027
175,21,36,21,44,177,21,47,21,48,179,21,47,21,49,181,21,49,21,50, 0000017P0000028
183,21,48,21,50,185,21,51,21,51,189,21,51,21,38,191,21,40,21,47, 0000017P0000029
193,21,42,21,49,195,21,41,21,48,197,21,43,21,50,199,21,52,21,52, 0000017P0000030
203,21,52,21,46;                                                 0000017P0000031
110,-45.,300.,-22.,-45.,300.,22.;                                0000019P0000032
502,52,-45.,300.,-22.,-45.,300.,22.,-45.,380.,-22.,-45.,380.,    0000021P0000033
22.,45.,300.,-22.,45.,300.,22.,-27.5,300.,13.1,27.5,300.,13.1,   0000021P0000034
-27.5,300.,-13.1,27.5,300.,-13.1,45.,380.,22.,25.4,380.,22.,     0000021P0000035
-25.4,380.,22.,8.25,350.,22.,-25.4,380.,-22.,-25.4,380.,13.1,    0000021P0000036
-27.5,380.,13.1,-27.5,380.,-13.1,-25.4,380.,-13.1,45.,380.,-22., 0000021P0000037
25.4,380.,-22.,8.25,350.,-22.,27.5,380.,13.1,25.4,380.,13.1,     0000021P0000038
19.05,380.,13.1,-19.05,380.,13.1,8.25,350.,13.1,27.5,380.,-13.1, 0000021P0000039
25.4,380.,-13.1,19.05,380.,-13.1,-19.05,380.,-13.1,8.25,350.,    0000021P0000040
-13.1,25.4,380.,25.4,-25.4,380.,25.4,-25.4,380.,-25.4,-25.4,     0000021P0000041
610.,-25.4,-25.4,610.,25.4,-25.4,558.25,0.,25.4,380.,-25.4,      0000021P0000042
-19.05,380.,19.05,19.05,380.,19.05,-19.05,380.,-19.05,19.05,     0000021P0000043
380.,-19.05,25.4,610.,-25.4,25.4,610.,25.4,25.4,558.25,0.,       0000021P0000044
-19.05,610.,19.05,19.05,610.,19.05,-19.05,610.,-19.05,19.05,     0000021P0000045
610.,-19.05,-19.05,558.25,0.,19.05,558.25,0.;                    0000021P0000046
110,-45.,300.,-22.,-45.,380.,-22.;                               0000023P0000047
110,-45.,380.,-22.,-45.,380.,22.;                                0000025P0000048
110,-45.,300.,22.,-45.,380.,22.;                                 0000027P0000049
110,-45.,300.,-22.,45.,300.,-22.;                                0000029P0000050
110,-45.,300.,22.,45.,300.,22.;                                  0000031P0000051
110,45.,300.,-22.,45.,300.,22.;                                  0000033P0000052
110,-27.5,300.,13.1,27.5,300.,13.1;                              0000035P0000053
110,-27.5,300.,13.1,-27.5,300.,-13.1;                            0000037P0000054
110,-27.5,300.,-13.1,27.5,300.,-13.1;                            0000039P0000055
110,27.5,300.,13.1,27.5,300.,-13.1;                              0000041P0000056
110,45.,300.,22.,45.,380.,22.;                                   0000043P0000057
110,25.4,380.,22.,45.,380.,22.;                                  0000045P0000058
110,-25.4,380.,22.,25.4,380.,22.;                                0000047P0000059
110,-45.,380.,22.,-25.4,380.,22.;                                0000049P0000060
100,0.,0.,0.,8.25,0.,8.25,0.;                                    0000051P0000061
124,1.,0.,0.,0.,0.,-1.,0.,350.,0.,0.,-1.,22.;                    0000053P0000062
110,-45.,380.,-22.,-25.4,380.,-22.;                              0000055P0000063
110,-25.4,380.,13.1,-25.4,380.,22.;                              0000057P0000064
110,-27.5,380.,13.1,-25.4,380.,13.1;                             0000059P0000065
110,-27.5,380.,-13.1,-27.5,380.,13.1;                            0000061P0000066
110,-27.5,380.,-13.1,-25.4,380.,-13.1;                           0000063P0000067
110,-25.4,380.,-22.,-25.4,380.,-13.1;                            0000065P0000068
110,45.,300.,-22.,45.,380.,-22.;                                 0000067P0000069
110,25.4,380.,-22.,45.,380.,-22.;                                0000069P0000070
110,-25.4,380.,-22.,25.4,380.,-22.;                              0000071P0000071
100,0.,0.,0.,8.25,0.,8.25,0.;                                    0000073P0000072
124,1.,0.,0.,0.,0.,1.,0.,350.,0.,0.,1.,-22.;                     0000075P0000073
110,45.,380.,-22.,45.,380.,22.;                                  0000077P0000074
110,-27.5,300.,13.1,-27.5,380.,13.1;                             0000079P0000075
110,27.5,300.,13.1,27.5,380.,13.1;                               0000081P0000076
110,25.4,380.,13.1,27.5,380.,13.1;                               0000083P0000077
110,19.05,380.,13.1,25.4,380.,13.1;                              0000085P0000078
110,-19.05,380.,13.1,19.05,380.,13.1;                            0000087P0000079
110,-25.4,380.,13.1,-19.05,380.,13.1;                            0000089P0000080
100,0.,0.,0.,8.25,0.,8.25,0.;                                    0000091P0000081
124,1.,0.,0.,0.,0.,-1.,0.,350.,0.,0.,-1.,13.1;                   0000093P0000082
110,27.5,300.,-13.1,27.5,380.,-13.1;                             0000095P0000083
110,27.5,380.,-13.1,27.5,380.,13.1;                              0000097P0000084
110,-27.5,300.,-13.1,-27.5,380.,-13.1;                           0000099P0000085
110,25.4,380.,-13.1,27.5,380.,-13.1;                             0000101P0000086
110,19.05,380.,-13.1,25.4,380.,-13.1;                            0000103P0000087
110,-19.05,380.,-13.1,19.05,380.,-13.1;                          0000105P0000088
110,-25.4,380.,-13.1,-19.05,380.,-13.1;                          0000107P0000089
100,0.,0.,0.,8.25,0.,8.25,0.;                                    0000109P0000090
124,1.,0.,0.,0.,0.,1.,0.,350.,0.,0.,1.,-13.1;                    0000111P0000091
110,25.4,380.,22.,25.4,380.,25.4;                                0000113P0000092
110,-25.4,380.,22.,-25.4,380.,25.4;                              0000115P0000093
110,-25.4,380.,25.4,25.4,380.,25.4;                              0000117P0000094
110,25.4,380.,-22.,25.4,380.,-13.1;                              0000119P0000095
110,25.4,380.,13.1,25.4,380.,22.;                                0000121P0000096
110,8.25,350.,13.1,8.25,350.,22.;                                0000123P0000097
110,-25.4,380.,-25.4,-25.4,380.,-22.;                            0000125P0000098
110,-25.4,380.,-25.4,-25.4,610.,-25.4;                           0000127P0000099
110,-25.4,610.,-25.4,-25.4,610.,25.4;                            0000129P0000100
110,-25.4,380.,25.4,-25.4,610.,25.4;                             0000131P0000101
110,-25.4,380.,-13.1,-25.4,380.,13.1;                            0000133P0000102
100,0.,0.,0.,8.25,0.,8.25,0.;                                    0000135P0000103
124,0.,0.,1.,-25.4,1.,0.,0.,550.,0.,1.,0.,0.;                    0000137P0000104
110,25.4,380.,-25.4,25.4,380.,-22.;                              0000139P0000105
110,-25.4,380.,-25.4,25.4,380.,-25.4;                            0000141P0000106
110,8.25,350.,-13.1,8.25,350.,-22.;                              0000143P0000107
110,-19.05,380.,13.1,-19.05,380.,-13.1;                          0000145P0000108
110,-19.05,380.,19.05,-19.05,380.,13.1;                          0000147P0000109
110,-19.05,380.,19.05,19.05,380.,19.05;                          0000149P0000110
110,19.05,380.,19.05,19.05,380.,13.1;                            0000151P0000111
110,25.4,380.,-13.1,25.4,380.,13.1;                              0000153P0000112
110,19.05,380.,13.1,19.05,380.,-13.1;                            0000155P0000113
110,-19.05,380.,-13.1,-19.05,380.,-19.05;                        0000157P0000114
110,19.05,380.,-13.1,19.05,380.,-19.05;                          0000159P0000115
110,-19.05,380.,-19.05,19.05,380.,-19.05;                        0000161P0000116
110,25.4,380.,-25.4,25.4,610.,-25.4;                             0000163P0000117
110,25.4,610.,-25.4,25.4,610.,25.4;                              0000165P0000118
110,25.4,380.,25.4,25.4,610.,25.4;                               0000167P0000119
100,0.,0.,0.,8.25,0.,8.25,0.;                                    0000169P0000120
124,0.,0.,-1.,25.4,1.,0.,0.,550.,0.,-1.,0.,0.;                   0000171P0000121
110,-25.4,610.,25.4,25.4,610.,25.4;                              0000173P0000122
110,-25.4,610.,-25.4,25.4,610.,-25.4;                            0000175P0000123
110,-19.05,610.,19.05,19.05,610.,19.05;                          0000177P0000124
110,-19.05,610.,19.05,-19.05,610.,-19.05;                        0000179P0000125
110,-19.05,610.,-19.05,19.05,610.,-19.05;                        0000181P0000126
110,19.05,610.,19.05,19.05,610.,-19.05;                          0000183P0000127
100,0.,0.,0.,8.25,0.,8.25,0.;                                    0000185P0000128
124,0.,0.,1.,-19.05,1.,0.,0.,550.,0.,1.,0.,0.;                   0000187P0000129
110,-19.05,558.25,0.,-25.4,558.25,0.;                            0000189P0000130
110,-19.05,380.,19.05,-19.05,610.,19.05;                         0000191P0000131
110,-19.05,380.,-19.05,-19.05,610.,-19.05;                       0000193P0000132
110,19.05,380.,19.05,19.05,610.,19.05;                           0000195P0000133
110,19.05,380.,-19.05,19.05,610.,-19.05;                         0000197P0000134
100,0.,0.,0.,8.25,0.,8.25,0.;                                    0000199P0000135
124,0.,0.,-1.,19.05,1.,0.,0.,550.,0.,-1.,0.,0.;                  0000201P0000136
110,19.05,558.25,0.,25.4,558.25,0.;                              0000203P0000137
510,207,2,1,215,217;                                             0000205P0000138
190,209,211,213;                                                 0000207P0000139
116,-45.,300.,-22.,0;                                            0000209P0000140
123,0.,1.,0.;                                                    0000211P0000141
123,0.,0.,1.;                                                    0000213P0000142
508,4,0,17,5,0,0,0,17,1,1,0,0,17,6,1,0,0,17,7,0,0;               0000215P0000143
508,4,0,17,8,0,0,0,17,9,1,0,0,17,10,1,0,0,17,11,0,0;             0000217P0000144
510,221,2,1,229,231;                                             0000219P0000145
190,223,225,227;                                                 0000221P0000146
116,-45.,300.,22.,0;                                             0000223P0000147
123,0.,0.,1.;                                                    0000225P0000148
123,1.,0.,0.;                                                    0000227P0000149
508,6,0,17,4,0,0,0,17,6,1,0,0,17,12,1,0,0,17,13,0,0,0,17,14,0,0, 0000229P0000150
0,17,15,0,0;                                                     0000229P0000151
508,1,0,17,16,1,0;                                               0000231P0000152
510,235,1,1,243;                                                 0000233P0000153
190,237,239,241;                                                 0000235P0000154
116,-45.,380.,-22.,0;                                            0000237P0000155
123,0.,1.,0.;                                                    0000239P0000156
123,0.,0.,1.;                                                    0000241P0000157
508,8,0,17,17,0,0,0,17,3,1,0,0,17,15,1,0,0,17,18,0,0,0,17,19,0,  0000243P0000158
0,0,17,20,0,0,0,17,21,1,0,0,17,22,0,0;                           0000243P0000159
510,247,2,1,255,257;                                             0000245P0000160
190,249,251,253;                                                 0000247P0000161
116,-45.,300.,-22.,0;                                            0000249P0000162
123,0.,0.,1.;                                                    0000251P0000163
123,1.,0.,0.;                                                    0000253P0000164
508,6,0,17,2,0,0,0,17,5,1,0,0,17,23,1,0,0,17,24,0,0,0,17,25,0,0, 0000255P0000165
0,17,17,0,0;                                                     0000255P0000166
508,1,0,17,26,0,0;                                               0000257P0000167
510,261,1,1,269;                                                 0000259P0000168
190,263,265,267;                                                 0000261P0000169
116,45.,300.,-22.,0;                                             0000263P0000170
123,1.,0.,0.;                                                    0000265P0000171
123,0.,0.,1.;                                                    0000267P0000172
508,4,0,17,7,0,0,0,17,23,1,0,0,17,27,1,0,0,17,12,0,0;            0000269P0000173
510,273,2,1,281,283;                                             0000271P0000174
190,275,277,279;                                                 0000273P0000175
116,-27.5,290.,13.1,0;                                           0000275P0000176
123,0.,0.,1.;                                                    0000277P0000177
123,1.,0.,0.;                                                    0000279P0000178
508,8,0,17,28,0,0,0,17,8,1,0,0,17,29,1,0,0,17,30,0,0,0,17,31,0,  0000281P0000179
0,0,17,32,0,0,0,17,33,0,0,0,17,19,0,0;                           0000281P0000180
508,1,0,17,34,1,0;                                               0000283P0000181
510,287,1,1,295;                                                 0000285P0000182
190,289,291,293;                                                 0000287P0000183
116,27.5,290.,-13.1,0;                                           0000289P0000184
123,1.,0.,0.;                                                    0000291P0000185
123,0.,0.,1.;                                                    0000293P0000186
508,4,0,17,29,0,0,0,17,11,1,0,0,17,35,1,0,0,17,36,1,0;           0000295P0000187
510,299,2,1,307,309;                                             0000297P0000188
190,301,303,305;                                                 0000299P0000189
116,-27.5,290.,-13.1,0;                                          0000301P0000190
123,0.,0.,1.;                                                    0000303P0000191
123,1.,0.,0.;                                                    0000305P0000192
508,8,0,17,37,0,0,0,17,10,1,0,0,17,35,1,0,0,17,38,0,0,0,17,39,0, 0000307P0000193
0,0,17,40,0,0,0,17,41,0,0,0,17,21,0,0;                           0000307P0000194
508,1,0,17,42,0,0;                                               0000309P0000195
510,313,1,1,321;                                                 0000311P0000196
190,315,317,319;                                                 0000313P0000197
116,-27.5,290.,-13.1,0;                                          0000315P0000198
123,1.,0.,0.;                                                    0000317P0000199
123,0.,0.,1.;                                                    0000319P0000200
508,4,0,17,28,0,0,0,17,9,1,0,0,17,37,1,0,0,17,20,1,0;            0000321P0000201
510,325,1,1,333;                                                 0000323P0000202
190,327,329,331;                                                 0000325P0000203
116,-25.4,380.,-25.4,0;                                          0000327P0000204
123,0.,1.,0.;                                                    0000329P0000205
123,0.,0.,1.;                                                    0000331P0000206
508,4,0,17,43,0,0,0,17,14,0,0,0,17,44,1,0,0,17,45,1,0;           0000333P0000207
510,337,1,1,345;                                                 0000335P0000208
190,339,341,343;                                                 0000337P0000209
116,-45.,380.,-22.,0;                                            0000339P0000210
123,0.,1.,0.;                                                    0000341P0000211
123,0.,0.,1.;                                                    0000343P0000212
508,8,0,17,24,0,0,0,17,46,1,0,0,17,38,1,0,0,17,36,1,0,0,17,30,0, 0000345P0000213
0,0,17,47,1,0,0,17,13,1,0,0,17,27,0,0;                           0000345P0000214
510,349,1,1,357;                                                 0000347P0000215
192,351,353,8.25,355;                                            0000349P0000216
116,0.,350.,0.,0;                                                0000351P0000217
123,-0.,-0.,-1.;                                                 0000353P0000218
123,1.,0.,0.;                                                    0000355P0000219
508,4,0,17,34,0,1,0,359,0,17,48,1,1,0,361,0,17,16,1,1,0,363,0,   0000357P0000220
17,48,0,1,0,365;                                                 0000357P0000221
110,0.,-13.1,0.,-360.,-13.1,0.;                                  0000359P0000222
110,-360.,-13.1,0.,-360.,-22.,0.;                                0000361P0000223
110,-360.,-22.,0.,0.,-22.,0.;                                    0000363P0000224
110,0.,-22.,-0.,0.,-13.1,-0.;                                    0000365P0000225
510,369,2,1,377,379;                                             0000367P0000226
190,371,373,375;                                                 0000369P0000227
116,-25.4,380.,-25.4,0;                                          0000371P0000228
123,1.,0.,0.;                                                    0000373P0000229
123,0.,0.,1.;                                                    0000375P0000230
508,8,0,17,49,0,0,0,17,50,1,0,0,17,51,1,0,0,17,52,0,0,0,17,44,0, 0000377P0000231
0,0,17,18,0,0,0,17,53,0,0,0,17,22,0,0;                           0000377P0000232
508,1,0,17,54,0,0;                                               0000379P0000233
510,383,1,1,391;                                                 0000381P0000234
190,385,387,389;                                                 0000383P0000235
116,-25.4,380.,-25.4,0;                                          0000385P0000236
123,0.,1.,0.;                                                    0000387P0000237
123,0.,0.,1.;                                                    0000389P0000238
508,4,0,17,55,0,0,0,17,56,0,0,0,17,49,1,0,0,17,25,1,0;           0000391P0000239
510,395,1,1,403;                                                 0000393P0000240
192,397,399,8.25,401;                                            0000395P0000241
116,0.,350.,0.,0;                                                0000397P0000242
123,0.,0.,1.;                                                    0000399P0000243
123,1.,0.,0.;                                                    0000401P0000244
508,4,0,17,42,0,1,0,405,0,17,57,1,1,0,407,0,17,26,1,1,0,409,0,   0000403P0000245
17,57,0,1,0,411;                                                 0000403P0000246
110,360.,-13.1,-0.,0.,-13.1,-0.;                                 0000405P0000247
110,0.,-13.1,-0.,0.,-22.,-0.;                                    0000407P0000248
110,0.,-22.,0.,360.,-22.,0.;                                     0000409P0000249
110,360.,-22.,-0.,360.,-13.1,-0.;                                0000411P0000250
510,415,1,1,423;                                                 0000413P0000251
190,417,419,421;                                                 0000415P0000252
116,-25.4,380.,-25.4,0;                                          0000417P0000253
123,0.,1.,0.;                                                    0000419P0000254
123,0.,0.,1.;                                                    0000421P0000255
508,4,0,17,41,0,0,0,17,53,1,0,0,17,33,1,0,0,17,58,1,0;           0000423P0000256
510,427,1,1,435;                                                 0000425P0000257
190,429,431,433;                                                 0000427P0000258
116,-45.,380.,-22.,0;                                            0000429P0000259
123,0.,1.,0.;                                                    0000431P0000260
123,0.,0.,1.;                                                    0000433P0000261
508,4,0,17,32,0,0,0,17,59,0,0,0,17,60,1,0,0,17,61,1,0;           0000435P0000262
510,439,1,1,447;                                                 0000437P0000263
190,441,443,445;                                                 0000439P0000264
116,-25.4,380.,-25.4,0;                                          0000441P0000265
123,0.,1.,0.;                                                    0000443P0000266
123,0.,0.,1.;                                                    0000445P0000267
508,4,0,17,62,0,0,0,17,39,0,0,0,17,63,0,0,0,17,31,1,0;           0000447P0000268
510,451,1,1,459;                                                 0000449P0000269
190,453,455,457;                                                 0000451P0000270
116,-45.,380.,-22.,0;                                            0000453P0000271
123,0.,1.,0.;                                                    0000455P0000272
123,0.,0.,1.;                                                    0000457P0000273
508,4,0,17,64,0,0,0,17,40,1,0,0,17,65,1,0,0,17,66,0,0;           0000459P0000274
510,463,2,1,471,473;                                             0000461P0000275
190,465,467,469;                                                 0000463P0000276
116,25.4,380.,-25.4,0;                                           0000465P0000277
123,1.,0.,0.;                                                    0000467P0000278
123,0.,0.,1.;                                                    0000469P0000279
508,8,0,17,55,0,0,0,17,67,1,0,0,17,68,1,0,0,17,69,0,0,0,17,43,0, 0000471P0000280
0,0,17,47,0,0,0,17,62,0,0,0,17,46,0,0;                           0000471P0000281
508,1,0,17,70,1,0;                                               0000473P0000282
510,477,1,1,485;                                                 0000475P0000283
190,479,481,483;                                                 0000477P0000284
116,-25.4,380.,25.4,0;                                           0000479P0000285
123,0.,0.,1.;                                                    0000481P0000286
123,1.,0.,0.;                                                    0000483P0000287
508,4,0,17,52,0,0,0,17,45,1,0,0,17,69,1,0,0,17,71,0,0;           0000485P0000288
510,489,1,1,497;                                                 0000487P0000289
190,491,493,495;                                                 0000489P0000290
116,-25.4,380.,-25.4,0;                                          0000491P0000291
123,0.,0.,1.;                                                    0000493P0000292
123,1.,0.,0.;                                                    0000495P0000293
508,4,0,17,50,0,0,0,17,56,1,0,0,17,67,1,0,0,17,72,0,0;           0000497P0000294
510,501,2,1,509,511;                                             0000499P0000295
190,503,505,507;                                                 0000501P0000296
116,-25.4,610.,-25.4,0;                                          0000503P0000297
123,0.,1.,0.;                                                    0000505P0000298
123,0.,0.,1.;                                                    0000507P0000299
508,4,0,17,72,0,0,0,17,51,1,0,0,17,71,1,0,0,17,68,0,0;           0000509P0000300
508,4,0,17,73,0,0,0,17,74,1,0,0,17,75,1,0,0,17,76,0,0;           0000511P0000301
510,515,1,1,523;                                                 0000513P0000302
192,517,519,8.25,521;                                            0000515P0000303
116,0.,550.,0.,0;                                                0000517P0000304
123,1.,0.,0.;                                                    0000519P0000305
123,0.,1.,0.;                                                    0000521P0000306
508,4,0,17,77,0,1,0,525,0,17,78,1,1,0,527,0,17,54,1,1,0,529,0,   0000523P0000307
17,78,0,1,0,531;                                                 0000523P0000308
110,360.,-19.05,-0.,0.,-19.05,-0.;                               0000525P0000309
110,0.,-19.05,-0.,0.,-25.4,-0.;                                  0000527P0000310
110,0.,-25.4,0.,360.,-25.4,0.;                                   0000529P0000311
110,360.,-25.4,-0.,360.,-19.05,-0.;                              0000531P0000312
510,535,2,1,543,545;                                             0000533P0000313
190,537,539,541;                                                 0000535P0000314
116,-19.05,375.,-19.05,0;                                        0000537P0000315
123,1.,0.,0.;                                                    0000539P0000316
123,0.,0.,1.;                                                    0000541P0000317
508,6,0,17,79,0,0,0,17,59,1,0,0,17,58,1,0,0,17,64,1,0,0,17,80,1, 0000543P0000318
0,0,17,74,0,0;                                                   0000543P0000319
508,1,0,17,77,0,0;                                               0000545P0000320
510,549,2,1,557,559;                                             0000547P0000321
190,551,553,555;                                                 0000549P0000322
116,19.05,375.,-19.05,0;                                         0000551P0000323
123,1.,0.,0.;                                                    0000553P0000324
123,0.,0.,1.;                                                    0000555P0000325
508,6,0,17,81,0,0,0,17,61,1,0,0,17,63,1,0,0,17,65,1,0,0,17,82,1, 0000557P0000326
0,0,17,76,0,0;                                                   0000557P0000327
508,1,0,17,83,1,0;                                               0000559P0000328
510,563,1,1,571;                                                 0000561P0000329
190,565,567,569;                                                 0000563P0000330
116,-19.05,375.,19.05,0;                                         0000565P0000331
123,0.,0.,1.;                                                    0000567P0000332
123,1.,0.,0.;                                                    0000569P0000333
508,4,0,17,79,0,0,0,17,60,1,0,0,17,81,1,0,0,17,73,0,0;           0000571P0000334
510,575,1,1,583;                                                 0000573P0000335
190,577,579,581;                                                 0000575P0000336
116,-19.05,375.,-19.05,0;                                        0000577P0000337
123,0.,0.,1.;                                                    0000579P0000338
123,1.,0.,0.;                                                    0000581P0000339
508,4,0,17,80,0,0,0,17,66,1,0,0,17,82,1,0,0,17,75,0,0;           0000583P0000340
510,587,1,1,595;                                                 0000585P0000341
192,589,591,8.25,593;                                            0000587P0000342
116,0.,550.,0.,0;                                                0000589P0000343
123,-1.,-0.,-0.;                                                 0000591P0000344
123,0.,1.,0.;                                                    0000593P0000345
508,4,0,17,83,0,1,0,597,0,17,84,1,1,0,599,0,17,70,1,1,0,601,0,   0000595P0000346
17,84,0,1,0,603;                                                 0000595P0000347
110,0.,-19.05,0.,-360.,-19.05,0.;                                0000597P0000348
110,-360.,-19.05,0.,-360.,-25.4,0.;                              0000599P0000349
110,-360.,-25.4,0.,0.,-25.4,0.;                                  0000601P0000350
110,0.,-25.4,-0.,0.,-19.05,-0.;                                  0000603P0000351
S      1G      4D    604P    351                                        T0000001
