<svg xmlns="http://www.w3.org/2000/svg" width="54.00mm" height="65.99mm" viewBox="0 0 54.000 65.986"><title>10 Ojo · 1</title><g fill="none" stroke="#ff0000" stroke-width="0.1"><path d="M48.989,39.671 L48.898,41.107 L48.713,42.535 L48.436,43.948 L48.038,45.433 L47.572,46.795 L47.306,47.464 L46.752,48.686 L46.076,49.957 L45.319,51.181 L44.423,52.431 L43.508,53.542 L42.521,54.590 L41.468,55.572 L40.353,56.483 L39.181,57.319 L37.957,58.076 L36.686,58.752 L35.373,59.343 L34.703,59.606 L33.433,60.038 L32.043,60.413 L30.632,60.697 L29.205,60.888 L27.769,60.986 L26.231,60.986 L24.795,60.888 L23.368,60.697 L21.957,60.413 L20.567,60.038 L19.205,59.572 L17.876,59.018 L16.586,58.378 L15.341,57.656 L14.226,56.911 L13.647,56.483 L13.006,55.974 L11.997,55.090 L11.410,54.521 L10.492,53.542 L9.963,52.918 L9.147,51.854 L8.681,51.181 L7.973,50.042 L7.248,48.686 L6.694,47.464 L6.394,46.703 L5.962,45.433 L5.738,44.646 L5.433,43.340 L5.287,42.535 L5.183,41.823 L5.051,40.488 L5.000,39.025 L5.000,8.000 L5.058,7.415 L5.228,6.852 L5.506,6.333 L5.879,5.879 L6.333,5.506 L6.852,5.228 L7.415,5.058 L8.000,5.000 L46.000,5.000 L46.585,5.058 L47.148,5.228 L47.667,5.506 L48.121,5.879 L48.494,6.333 L48.772,6.852 L48.942,7.415 L49.000,8.000 L48.989,39.671Z"/><circle cx="27.000" cy="39.000" r="12.500"/></g></svg>