  0
SECTION
  2
HEADER
  9
$ACADVER
  1
AC1024
  9
$ACADMAINTVER
 70
6
  9
$DWGCODEPAGE
  3
ANSI_1252
  9
$LASTSAVEDBY
  1
ezdxf
  9
$INSBASE
 10
0.0
 20
0.0
 30
0.0
  9
$EXTMIN
 10
1e+20
 20
1e+20
 30
1e+20
  9
$EXTMAX
 10
-1e+20
 20
-1e+20
 30
-1e+20
  9
$LIMMIN
 10
0.0
 20
0.0
  9
$LIMMAX
 10
420.0
 20
297.0
  9
$ORTHOMODE
 70
0
  9
$REGENMODE
 70
1
  9
$FILLMODE
 70
1
  9
$QTEXTMODE
 70
0
  9
$MIRRTEXT
 70
1
  9
$LTSCALE
 40
1.0
  9
$ATTMODE
 70
1
  9
$TEXTSIZE
 40
2.5
  9
$TRACEWID
 40
1.0
  9
$TEXTSTYLE
  7
OpenSans
  9
$CLAYER
  8
0
  9
$CELTYPE
  6
ByLayer
  9
$CECOLOR
 62
256
  9
$CELTSCALE
 40
1.0
  9
$DISPSILH
 70
0
  9
$DIMSCALE
 40
1.0
  9
$DIMASZ
 40
0.175
  9
$DIMEXO
 40
0.125
  9
$DIMDLI
 40
3.75
  9
$DIMRND
 40
0.0
  9
$DIMDLE
 40
0.0
  9
$DIMEXE
 40
0.375
  9
$DIMTP
 40
0.0
  9
$DIMTM
 40
0.0
  9
$DIMTXT
 40
0.25
  9
$DIMCEN
 40
2.5
  9
$DIMTSZ
 40
0.0
  9
$DIMTOL
 70
0
  9
$DIMLIM
 70
0
  9
$DIMTIH
 70
0
  9
$DIMTOH
 70
0
  9
$DIMSE1
 70
0
  9
$DIMSE2
 70
0
  9
$DIMTAD
 70
1
  9
$DIMZIN
 70
12
  9
$DIMBLK
  1
ARCHTICK
  9
$DIMASO
 70
1
  9
$DIMSHO
 70
1
  9
$DIMPOST
  1

  9
$DIMAPOST
  1

  9
$DIMALT
 70
0
  9
$DIMALTD
 70
3
  9
$DIMALTF
 40
0.03937007874
  9
$DIMLFAC
 40
100.0
  9
$DIMTOFL
 70
1
  9
$DIMTVP
 40
0.0
  9
$DIMTIX
 70
0
  9
$DIMSOXD
 70
0
  9
$DIMSAH
 70
0
  9
$DIMBLK1
  1

  9
$DIMBLK2
  1

  9
$DIMSTYLE
  2
EZDXF
  9
$DIMCLRD
 70
0
  9
$DIMCLRE
 70
0
  9
$DIMCLRT
 70
0
  9
$DIMTFAC
 40
0.5
  9
$DIMGAP
 40
0.1
  9
$DIMJUST
 70
0
  9
$DIMSD1
 70
0
  9
$DIMSD2
 70
0
  9
$DIMTOLJ
 70
0
  9
$DIMTZIN
 70
8
  9
$DIMALTZ
 70
0
  9
$DIMALTTZ
 70
0
  9
$DIMUPT
 70
1
  9
$DIMDEC
 70
2
  9
$DIMTDEC
 70
2
  9
$DIMALTU
 70
2
  9
$DIMALTTD
 70
3
  9
$DIMTXSTY
  7
OpenSansCondensed-Light
  9
$DIMAUNIT
 70
0
  9
$DIMADEC
 70
2
  9
$DIMALTRND
 40
0.0
  9
$DIMAZIN
 70
3
  9
$DIMDSEP
 70
46
  9
$DIMATFIT
 70
3
  9
$DIMFRAC
 70
0
  9
$DIMLDRBLK
  1

  9
$DIMLUNIT
 70
2
  9
$DIMLWD
 70
-2
  9
$DIMLWE
 70
-2
  9
$DIMTMOVE
 70
2
  9
$DIMFXL
 40
1.0
  9
$DIMFXLON
 70
0
  9
$DIMJOGANG
 40
0.785398163397
  9
$DIMTFILL
 70
0
  9
$DIMTFILLCLR
 70
0
  9
$DIMARCSYM
 70
0
  9
$DIMLTYPE
  6

  9
$DIMLTEX1
  6

  9
$DIMLTEX2
  6

  9
$DIMTXTDIRECTION
 70
0
  9
$LUNITS
 70
2
  9
$LUPREC
 70
4
  9
$SKETCHINC
 40
1.0
  9
$FILLETRAD
 40
10.0
  9
$AUNITS
 70
0
  9
$AUPREC
 70
2
  9
$MENU
  1
.
  9
$ELEVATION
 40
0.0
  9
$PELEVATION
 40
0.0
  9
$THICKNESS
 40
0.0
  9
$LIMCHECK
 70
0
  9
$CHAMFERA
 40
0.0
  9
$CHAMFERB
 40
0.0
  9
$CHAMFERC
 40
0.0
  9
$CHAMFERD
 40
0.0
  9
$SKPOLY
 70
0
  9
$TDCREATE
 40
2461310.4201041665
  9
$TDUCREATE
 40
2458532.153996898
  9
$TDUPDATE
 40
2461310.4201041665
  9
$TDUUPDATE
 40
2458532.1544311
  9
$TDINDWG
 40
0.0
  9
$TDUSRTIMER
 40
0.0
  9
$USRTIMER
 70
1
  9
$ANGBASE
 50
0.0
  9
$ANGDIR
 70
0
  9
$PDMODE
 70
0
  9
$PDSIZE
 40
0.0
  9
$PLINEWID
 40
0.0
  9
$SPLFRAME
 70
0
  9
$SPLINETYPE
 70
6
  9
$SPLINESEGS
 70
8
  9
$HANDSEED
  5
95
  9
$SURFTAB1
 70
6
  9
$SURFTAB2
 70
6
  9
$SURFTYPE
 70
6
  9
$SURFU
 70
6
  9
$SURFV
 70
6
  9
$UCSBASE
  2

  9
$UCSNAME
  2

  9
$UCSORG
 10
0.0
 20
0.0
 30
0.0
  9
$UCSXDIR
 10
1.0
 20
0.0
 30
0.0
  9
$UCSYDIR
 10
0.0
 20
1.0
 30
0.0
  9
$UCSORTHOREF
  2

  9
$UCSORTHOVIEW
 70
0
  9
$UCSORGTOP
 10
0.0
 20
0.0
 30
0.0
  9
$UCSORGBOTTOM
 10
0.0
 20
0.0
 30
0.0
  9
$UCSORGLEFT
 10
0.0
 20
0.0
 30
0.0
  9
$UCSORGRIGHT
 10
0.0
 20
0.0
 30
0.0
  9
$UCSORGFRONT
 10
0.0
 20
0.0
 30
0.0
  9
$UCSORGBACK
 10
0.0
 20
0.0
 30
0.0
  9
$PUCSBASE
  2

  9
$PUCSNAME
  2

  9
$PUCSORG
 10
0.0
 20
0.0
 30
0.0
  9
$PUCSXDIR
 10
1.0
 20
0.0
 30
0.0
  9
$PUCSYDIR
 10
0.0
 20
1.0
 30
0.0
  9
$PUCSORTHOREF
  2

  9
$PUCSORTHOVIEW
 70
0
  9
$PUCSORGTOP
 10
0.0
 20
0.0
 30
0.0
  9
$PUCSORGBOTTOM
 10
0.0
 20
0.0
 30
0.0
  9
$PUCSORGLEFT
 10
0.0
 20
0.0
 30
0.0
  9
$PUCSORGRIGHT
 10
0.0
 20
0.0
 30
0.0
  9
$PUCSORGFRONT
 10
0.0
 20
0.0
 30
0.0
  9
$PUCSORGBACK
 10
0.0
 20
0.0
 30
0.0
  9
$USERI1
 70
0
  9
$USERI2
 70
0
  9
$USERI3
 70
0
  9
$USERI4
 70
0
  9
$USERI5
 70
0
  9
$USERR1
 40
0.0
  9
$USERR2
 40
0.0
  9
$USERR3
 40
0.0
  9
$USERR4
 40
0.0
  9
$USERR5
 40
0.0
  9
$WORLDVIEW
 70
1
  9
$SHADEDGE
 70
3
  9
$SHADEDIF
 70
70
  9
$TILEMODE
 70
1
  9
$MAXACTVP
 70
64
  9
$PINSBASE
 10
0.0
 20
0.0
 30
0.0
  9
$PLIMCHECK
 70
0
  9
$PEXTMIN
 10
1e+20
 20
1e+20
 30
1e+20
  9
$PEXTMAX
 10
-1e+20
 20
-1e+20
 30
-1e+20
  9
$PLIMMIN
 10
0.0
 20
0.0
  9
$PLIMMAX
 10
420.0
 20
297.0
  9
$UNITMODE
 70
0
  9
$VISRETAIN
 70
1
  9
$PLINEGEN
 70
0
  9
$PSLTSCALE
 70
1
  9
$TREEDEPTH
 70
3020
  9
$CMLSTYLE
  2
Standard
  9
$CMLJUST
 70
0
  9
$CMLSCALE
 40
20.0
  9
$PROXYGRAPHICS
 70
1
  9
$MEASUREMENT
 70
1
  9
$CELWEIGHT
370
-1
  9
$ENDCAPS
280
0
  9
$JOINSTYLE
280
0
  9
$LWDISPLAY
290
0
  9
$INSUNITS
 70
4
  9
$HYPERLINKBASE
  1

  9
$STYLESHEET
  1

  9
$XEDIT
290
1
  9
$CEPSNTYPE
380
0
  9
$PSTYLEMODE
290
1
  9
$FINGERPRINTGUID
  2
{F47DBD50-7C85-47D0-8916-DFA5E4342087}
  9
$VERSIONGUID
  2
{75B9D7C5-B6F4-4FC4-859C-BC8F707922AE}
  9
$EXTNAMES
290
1
  9
$PSVPSCALE
 40
0.0
  9
$OLESTARTUP
290
0
  9
$SORTENTS
280
127
  9
$INDEXCTL
280
0
  9
$HIDETEXT
280
1
  9
$XCLIPFRAME
280
1
  9
$HALOGAP
280
0
  9
$OBSCOLOR
 70
257
  9
$OBSLTYPE
280
0
  9
$INTERSECTIONDISPLAY
280
0
  9
$INTERSECTIONCOLOR
 70
257
  9
$DIMASSOC
280
2
  9
$PROJECTNAME
  1

  9
$CAMERADISPLAY
290
0
  9
$LENSLENGTH
 40
50.0
  9
$CAMERAHEIGHT
 40
0.0
  9
$STEPSPERSEC
 40
24.0
  9
$STEPSIZE
 40
100.0
  9
$3DDWFPREC
 40
2.0
  9
$PSOLWIDTH
 40
0.005
  9
$PSOLHEIGHT
 40
0.08
  9
$LOFTANG1
 40
1.570796326795
  9
$LOFTANG2
 40
1.570796326795
  9
$LOFTMAG1
 40
0.0
  9
$LOFTMAG2
 40
0.0
  9
$LOFTPARAM
 70
7
  9
$LOFTNORMALS
280
1
  9
$LATITUDE
 40
37.795
  9
$LONGITUDE
 40
-122.394
  9
$NORTHDIRECTION
 40
0.0
  9
$TIMEZONE
 70
-8000
  9
$LIGHTGLYPHDISPLAY
280
1
  9
$TILEMODELIGHTSYNCH
280
1
  9
$CMATERIAL
347
20
  9
$SOLIDHIST
280
0
  9
$SHOWHIST
280
1
  9
$DWFFRAME
280
2
  9
$DGNFRAME
280
2
  9
$REALWORLDSCALE
290
1
  9
$INTERFERECOLOR
 62
256
  9
$CSHADOW
280
0
  9
$SHADOWPLANELOCATION
 40
0.0
  0
ENDSEC
  0
SECTION
  2
CLASSES
  0
CLASS
  1
ACDBDICTIONARYWDFLT
  2
AcDbDictionaryWithDefault
  3
ObjectDBX Classes
 90
0
 91
0
280
0
281
0
  0
CLASS
  1
SUN
  2
AcDbSun
  3
SCENEOE
 90
1153
 91
0
280
0
281
0
  0
CLASS
  1
VISUALSTYLE
  2
AcDbVisualStyle
  3
ObjectDBX Classes
 90
4095
 91
0
280
0
281
0
  0
CLASS
  1
MATERIAL
  2
AcDbMaterial
  3
ObjectDBX Classes
 90
1153
 91
0
280
0
281
0
  0
CLASS
  1
SCALE
  2
AcDbScale
  3
ObjectDBX Classes
 90
1153
 91
0
280
0
281
0
  0
CLASS
  1
TABLESTYLE
  2
AcDbTableStyle
  3
ObjectDBX Classes
 90
4095
 91
0
280
0
281
0
  0
CLASS
  1
MLEADERSTYLE
  2
AcDbMLeaderStyle
  3
ACDB_MLEADERSTYLE_CLASS
 90
4095
 91
0
280
0
281
0
  0
CLASS
  1
DICTIONARYVAR
  2
AcDbDictionaryVar
  3
ObjectDBX Classes
 90
0
 91
0
280
0
281
0
  0
CLASS
  1
CELLSTYLEMAP
  2
AcDbCellStyleMap
  3
ObjectDBX Classes
 90
1152
 91
0
280
0
281
0
  0
CLASS
  1
MENTALRAYRENDERSETTINGS
  2
AcDbMentalRayRenderSettings
  3
SCENEOE
 90
1024
 91
0
280
0
281
0
  0
CLASS
  1
ACDBDETAILVIEWSTYLE
  2
AcDbDetailViewStyle
  3
ObjectDBX Classes
 90
1025
 91
0
280
0
281
0
  0
CLASS
  1
ACDBSECTIONVIEWSTYLE
  2
AcDbSectionViewStyle
  3
ObjectDBX Classes
 90
1025
 91
0
280
0
281
0
  0
CLASS
  1
RASTERVARIABLES
  2
AcDbRasterVariables
  3
ISM
 90
0
 91
0
280
0
281
0
  0
CLASS
  1
LAYOUT
  2
AcDbLayout
  3
ObjectDBX Classes
 90
0
 91
0
280
0
281
0
  0
CLASS
  1
ACDBPLACEHOLDER
  2
AcDbPlaceHolder
  3
ObjectDBX Classes
 90
0
 91
0
280
0
281
0
  0
ENDSEC
  0
SECTION
  2
TABLES
  0
TABLE
  2
VPORT
  5
8
330
0
100
AcDbSymbolTable
 70
1
  0
VPORT
  5
23
330
8
100
AcDbSymbolTableRecord
100
AcDbViewportTableRecord
  2
*Active
 70
0
 10
0.0
 20
0.0
 11
1.0
 21
1.0
 12
0.0
 22
0.0
 13
0.0
 23
0.0
 14
0.5
 24
0.5
 15
0.5
 25
0.5
 16
0.0
 26
0.0
 36
1.0
 17
0.0
 27
0.0
 37
0.0
 40
1000.0
 41
1.34
 42
50.0
 43
0.0
 44
0.0
 50
0.0
 51
0.0
 71
0
 72
1000
 73
1
 74
3
 75
0
 76
0
 77
0
 78
0
281
0
 65
0
146
0.0
  0
ENDTAB
  0
TABLE
  2
LTYPE
  5
2
330
0
100
AcDbSymbolTable
 70
21
  0
LTYPE
  5
24
330
2
100
AcDbSymbolTableRecord
100
AcDbLinetypeTableRecord
  2
ByBlock
 70
0
  3

 72
65
 73
0
 40
0.0
  0
LTYPE
  5
25
330
2
100
AcDbSymbolTableRecord
100
AcDbLinetypeTableRecord
  2
ByLayer
 70
0
  3

 72
65
 73
0
 40
0.0
  0
LTYPE
  5
26
330
2
100
AcDbSymbolTableRecord
100
AcDbLinetypeTableRecord
  2
Continuous
 70
0
  3

 72
65
 73
0
 40
0.0
  0
LTYPE
  5
2F
330
2
100
AcDbSymbolTableRecord
100
AcDbLinetypeTableRecord
  2
CENTER
 70
0
  3
Center ____ _ ____ _ ____ _ ____ _ ____ _ ____
 72
65
 73
4
 40
5.08
 49
3.175
 74
0
 49
-0.635
 74
0
 49
0.635
 74
0
 49
-0.635
 74
0
  0
LTYPE
  5
30
330
2
100
AcDbSymbolTableRecord
100
AcDbLinetypeTableRecord
  2
CENTERX2
 70
0
  3
Center (2x) ________  __  ________  __  ________
 72
65
 73
4
 40
8.89
 49
6.35
 74
0
 49
-0.635
 74
0
 49
1.27
 74
0
 49
-0.635
 74
0
  0
LTYPE
  5
31
330
2
100
AcDbSymbolTableRecord
100
AcDbLinetypeTableRecord
  2
CENTER2
 70
0
  3
Center (.5x) ____ _ ____ _ ____ _ ____ _ ____
 72
65
 73
4
 40
2.54
 49
1.587
 74
0
 49
-0.318
 74
0
 49
0.318
 74
0
 49
-0.318
 74
0
  0
LTYPE
  5
32
330
2
100
AcDbSymbolTableRecord
100
AcDbLinetypeTableRecord
  2
DASHED
 70
0
  3
Dashed __ __ __ __ __ __ __ __ __ __ __ __ __ _
 72
65
 73
2
 40
1.524
 49
1.27
 74
0
 49
-0.254
 74
0
  0
LTYPE
  5
33
330
2
100
AcDbSymbolTableRecord
100
AcDbLinetypeTableRecord
  2
DASHEDX2
 70
0
  3
Dashed (2x) ____  ____  ____  ____  ____  ____
 72
65
 73
2
 40
3.048
 49
2.54
 74
0
 49
-0.508
 74
0
  0
LTYPE
  5
34
330
2
100
AcDbSymbolTableRecord
100
AcDbLinetypeTableRecord
  2
DASHED2
 70
0
  3
Dashed (.5x) _ _ _ _ _ _ _ _ _ _ _ _ _ _
 72
65
 73
2
 40
0.762
 49
0.635
 74
0
 49
-0.127
 74
0
  0
LTYPE
  5
35
330
2
100
AcDbSymbolTableRecord
100
AcDbLinetypeTableRecord
  2
PHANTOM
 70
0
  3
Phantom ______  __  __  ______  __  __  ______
 72
65
 73
6
 40
6.35
 49
3.175
 74
0
 49
-0.635
 74
0
 49
0.635
 74
0
 49
-0.635
 74
0
 49
0.635
 74
0
 49
-0.635
 74
0
  0
LTYPE
  5
36
330
2
100
AcDbSymbolTableRecord
100
AcDbLinetypeTableRecord
  2
PHANTOMX2
 70
0
  3
Phantom (2x)____________    ____    ____    ____________
 72
65
 73
6
 40
10.795
 49
6.35
 74
0
 49
-0.635
 74
0
 49
1.27
 74
0
 49
-0.635
 74
0
 49
1.27
 74
0
 49
-0.635
 74
0
  0
LTYPE
  5
37
330
2
100
AcDbSymbolTableRecord
100
AcDbLinetypeTableRecord
  2
PHANTOM2
 70
0
  3
Phantom (.5x) ___ _ _ ___ _ _ ___ _ _ ___ _ _ ___
 72
65
 73
6
 40
3.175
 49
1.587
 74
0
 49
-0.318
 74
0
 49
0.318
 74
0
 49
-0.318
 74
0
 49
0.318
 74
0
 49
-0.318
 74
0
  0
LTYPE
  5
38
330
2
100
AcDbSymbolTableRecord
100
AcDbLinetypeTableRecord
  2
DASHDOT
 70
0
  3
Dash dot __ . __ . __ . __ . __ . __ . __ . __
 72
65
 73
4
 40
3.556
 49
2.54
 74
0
 49
-0.508
 74
0
 49
0.0
 74
0
 49
-0.508
 74
0
  0
LTYPE
  5
39
330
2
100
AcDbSymbolTableRecord
100
AcDbLinetypeTableRecord
  2
DASHDOTX2
 70
0
  3
Dash dot (2x) ____  .  ____  .  ____  .  ____
 72
65
 73
4
 40
6.096
 49
5.08
 74
0
 49
-0.508
 74
0
 49
0.0
 74
0
 49
-0.508
 74
0
  0
LTYPE
  5
3A
330
2
100
AcDbSymbolTableRecord
100
AcDbLinetypeTableRecord
  2
DASHDOT2
 70
0
  3
Dash dot (.5x) _ . _ . _ . _ . _ . _ . _ . _
 72
65
 73
4
 40
1.778
 49
1.27
 74
0
 49
-0.254
 74
0
 49
0.0
 74
0
 49
-0.254
 74
0
  0
LTYPE
  5
3B
330
2
100
AcDbSymbolTableRecord
100
AcDbLinetypeTableRecord
  2
DOT
 70
0
  3
Dot .  .  .  .  .  .  .  .  .  .  .  .  .  .  .  .
 72
65
 73
2
 40
0.508
 49
0.0
 74
0
 49
-0.508
 74
0
  0
LTYPE
  5
3C
330
2
100
AcDbSymbolTableRecord
100
AcDbLinetypeTableRecord
  2
DOTX2
 70
0
  3
Dot (2x) .    .    .    .    .    .    .    . 
 72
65
 73
2
 40
1.016
 49
0.0
 74
0
 49
-1.016
 74
0
  0
LTYPE
  5
3D
330
2
100
AcDbSymbolTableRecord
100
AcDbLinetypeTableRecord
  2
DOT2
 70
0
  3
Dot (.5) . . . . . . . . . . . . . . . . . . . 
 72
65
 73
2
 40
0.254
 49
0.0
 74
0
 49
-0.254
 74
0
  0
LTYPE
  5
3E
330
2
100
AcDbSymbolTableRecord
100
AcDbLinetypeTableRecord
  2
DIVIDE
 70
0
  3
Divide __ . . __ . . __ . . __ . . __ . . __
 72
65
 73
6
 40
4.064
 49
2.54
 74
0
 49
-0.508
 74
0
 49
0.0
 74
0
 49
-0.508
 74
0
 49
0.0
 74
0
 49
-0.508
 74
0
  0
LTYPE
  5
3F
330
2
100
AcDbSymbolTableRecord
100
AcDbLinetypeTableRecord
  2
DIVIDEX2
 70
0
  3
Divide (2x) ____  . .  ____  . .  ____  . .  ____
 72
65
 73
6
 40
6.604
 49
5.08
 74
0
 49
-0.508
 74
0
 49
0.0
 74
0
 49
-0.508
 74
0
 49
0.0
 74
0
 49
-0.508
 74
0
  0
LTYPE
  5
40
330
2
100
AcDbSymbolTableRecord
100
AcDbLinetypeTableRecord
  2
DIVIDE2
 70
0
  3
Divide(.5x) _ . _ . _ . _ . _ . _ . _ . _
 72
65
 73
6
 40
2.032
 49
1.27
 74
0
 49
-0.254
 74
0
 49
0.0
 74
0
 49
-0.254
 74
0
 49
0.0
 74
0
 49
-0.254
 74
0
  0
ENDTAB
  0
TABLE
  2
LAYER
  5
1
330
0
100
AcDbSymbolTable
 70
4
  0
LAYER
  5
27
330
1
100
AcDbSymbolTableRecord
100
AcDbLayerTableRecord
  2
0
 70
0
 62
7
  6
Continuous
370
-3
390
13
347
21
  0
LAYER
  5
28
330
1
100
AcDbSymbolTableRecord
100
AcDbLayerTableRecord
  2
Defpoints
 70
0
 62
7
  6
Continuous
290
0
370
-3
390
13
347
21
  0
LAYER
  5
8A
330
1
100
AcDbSymbolTableRecord
100
AcDbLayerTableRecord
  2
CORTE
 70
0
 62
1
  6
Continuous
370
-3
390
13
347
21
  0
LAYER
  5
8B
330
1
100
AcDbSymbolTableRecord
100
AcDbLayerTableRecord
  2
NOTAS
 70
0
 62
3
  6
Continuous
370
-3
390
13
347
21
  0
ENDTAB
  0
TABLE
  2
STYLE
  5
5
330
0
100
AcDbSymbolTable
 70
26
  0
STYLE
  5
29
330
5
100
AcDbSymbolTableRecord
100
AcDbTextStyleTableRecord
  2
Standard
 70
0
 40
0.0
 41
1.0
 50
0.0
 71
0
 42
2.5
  3
txt
  4

  0
STYLE
  5
41
330
5
100
AcDbSymbolTableRecord
100
AcDbTextStyleTableRecord
  2
OpenSans-Light
 70
0
 40
0.0
 41
1.0
 50
0.0
 71
0
 42
2.5
  3
OpenSans-Light.ttf
  4

  0
STYLE
  5
42
330
5
100
AcDbSymbolTableRecord
100
AcDbTextStyleTableRecord
  2
OpenSans-Light-Italic
 70
0
 40
0.0
 41
1.0
 50
0.0
 71
0
 42
2.5
  3
OpenSans-LightItalic.ttf
  4

  0
STYLE
  5
43
330
5
100
AcDbSymbolTableRecord
100
AcDbTextStyleTableRecord
  2
OpenSans
 70
0
 40
0.0
 41
1.0
 50
0.0
 71
0
 42
2.5
  3
OpenSans-Regular.ttf
  4

  0
STYLE
  5
44
330
5
100
AcDbSymbolTableRecord
100
AcDbTextStyleTableRecord
  2
OpenSans-Italic
 70
0
 40
0.0
 41
1.0
 50
0.0
 71
0
 42
2.5
  3
OpenSans-Italic.ttf
  4

  0
STYLE
  5
45
330
5
100
AcDbSymbolTableRecord
100
AcDbTextStyleTableRecord
  2
OpenSans-SemiBold
 70
0
 40
0.0
 41
1.0
 50
0.0
 71
0
 42
2.5
  3
OpenSans-SemiBold.ttf
  4

  0
STYLE
  5
46
330
5
100
AcDbSymbolTableRecord
100
AcDbTextStyleTableRecord
  2
OpenSans-SemiBoldItalic
 70
0
 40
0.0
 41
1.0
 50
0.0
 71
0
 42
2.5
  3
OpenSans-SemiBoldItalic.ttf
  4

  0
STYLE
  5
47
330
5
100
AcDbSymbolTableRecord
100
AcDbTextStyleTableRecord
  2
OpenSans-Bold
 70
0
 40
0.0
 41
1.0
 50
0.0
 71
0
 42
2.5
  3
OpenSans-Bold.ttf
  4

  0
STYLE
  5
48
330
5
100
AcDbSymbolTableRecord
100
AcDbTextStyleTableRecord
  2
OpenSans-BoldItalic
 70
0
 40
0.0
 41
1.0
 50
0.0
 71
0
 42
2.5
  3
OpenSans-BoldItalic.ttf
  4

  0
STYLE
  5
49
330
5
100
AcDbSymbolTableRecord
100
AcDbTextStyleTableRecord
  2
OpenSans-ExtraBold
 70
0
 40
0.0
 41
1.0
 50
0.0
 71
0
 42
2.5
  3
OpenSans-ExtraBold.ttf
  4

  0
STYLE
  5
4A
330
5
100
AcDbSymbolTableRecord
100
AcDbTextStyleTableRecord
  2
OpenSans-ExtraBoldItalic
 70
0
 40
0.0
 41
1.0
 50
0.0
 71
0
 42
2.5
  3
OpenSans-ExtraBoldItalic.ttf
  4

  0
STYLE
  5
4B
330
5
100
AcDbSymbolTableRecord
100
AcDbTextStyleTableRecord
  2
OpenSansCondensed-Bold
 70
0
 40
0.0
 41
1.0
 50
0.0
 71
0
 42
2.5
  3
OpenSansCondensed-Bold.ttf
  4

  0
STYLE
  5
4C
330
5
100
AcDbSymbolTableRecord
100
AcDbTextStyleTableRecord
  2
OpenSansCondensed-Light
 70
0
 40
0.0
 41
1.0
 50
0.0
 71
0
 42
2.5
  3
OpenSansCondensed-Light.ttf
  4

  0
STYLE
  5
4D
330
5
100
AcDbSymbolTableRecord
100
AcDbTextStyleTableRecord
  2
OpenSansCondensed-Italic
 70
0
 40
0.0
 41
1.0
 50
0.0
 71
0
 42
2.5
  3
OpenSansCondensed-LightItalic.ttf
  4

  0
STYLE
  5
4E
330
5
100
AcDbSymbolTableRecord
100
AcDbTextStyleTableRecord
  2
LiberationSans
 70
0
 40
0.0
 41
1.0
 50
0.0
 71
0
 42
2.5
  3
LiberationSans-Regular.ttf
  4

  0
STYLE
  5
4F
330
5
100
AcDbSymbolTableRecord
100
AcDbTextStyleTableRecord
  2
LiberationSans-Bold
 70
0
 40
0.0
 41
1.0
 50
0.0
 71
0
 42
2.5
  3
LiberationSans-Bold.ttf
  4

  0
STYLE
  5
50
330
5
100
AcDbSymbolTableRecord
100
AcDbTextStyleTableRecord
  2
LiberationSans-BoldItalic
 70
0
 40
0.0
 41
1.0
 50
0.0
 71
0
 42
2.5
  3
LiberationSans-BoldItalic.ttf
  4

  0
STYLE
  5
51
330
5
100
AcDbSymbolTableRecord
100
AcDbTextStyleTableRecord
  2
LiberationSans-Italic
 70
0
 40
0.0
 41
1.0
 50
0.0
 71
0
 42
2.5
  3
LiberationSans-Italic.ttf
  4

  0
STYLE
  5
52
330
5
100
AcDbSymbolTableRecord
100
AcDbTextStyleTableRecord
  2
LiberationSerif
 70
0
 40
0.0
 41
1.0
 50
0.0
 71
0
 42
2.5
  3
LiberationSerif-Regular.ttf
  4

  0
STYLE
  5
53
330
5
100
AcDbSymbolTableRecord
100
AcDbTextStyleTableRecord
  2
LiberationSerif-Bold
 70
0
 40
0.0
 41
1.0
 50
0.0
 71
0
 42
2.5
  3
LiberationSerif-Bold.ttf
  4

  0
STYLE
  5
54
330
5
100
AcDbSymbolTableRecord
100
AcDbTextStyleTableRecord
  2
LiberationSerif-BoldItalic
 70
0
 40
0.0
 41
1.0
 50
0.0
 71
0
 42
2.5
  3
LiberationSerif-BoldItalic.ttf
  4

  0
STYLE
  5
55
330
5
100
AcDbSymbolTableRecord
100
AcDbTextStyleTableRecord
  2
LiberationSerif-Italic
 70
0
 40
0.0
 41
1.0
 50
0.0
 71
0
 42
2.5
  3
LiberationSerif-Italic.ttf
  4

  0
STYLE
  5
56
330
5
100
AcDbSymbolTableRecord
100
AcDbTextStyleTableRecord
  2
LiberationMono
 70
0
 40
0.0
 41
1.0
 50
0.0
 71
0
 42
2.5
  3
LiberationMono-Regular.ttf
  4

  0
STYLE
  5
57
330
5
100
AcDbSymbolTableRecord
100
AcDbTextStyleTableRecord
  2
LiberationMono-Bold
 70
0
 40
0.0
 41
1.0
 50
0.0
 71
0
 42
2.5
  3
LiberationMono-Bold.ttf
  4

  0
STYLE
  5
58
330
5
100
AcDbSymbolTableRecord
100
AcDbTextStyleTableRecord
  2
LiberationMono-BoldItalic
 70
0
 40
0.0
 41
1.0
 50
0.0
 71
0
 42
2.5
  3
LiberationMono-BoldItalic.ttf
  4

  0
STYLE
  5
59
330
5
100
AcDbSymbolTableRecord
100
AcDbTextStyleTableRecord
  2
LiberationMono-Italic
 70
0
 40
0.0
 41
1.0
 50
0.0
 71
0
 42
2.5
  3
LiberationMono-Italic.ttf
  4

  0
ENDTAB
  0
TABLE
  2
VIEW
  5
7
330
0
100
AcDbSymbolTable
 70
0
  0
ENDTAB
  0
TABLE
  2
UCS
  5
6
330
0
100
AcDbSymbolTable
 70
0
  0
ENDTAB
  0
TABLE
  2
APPID
  5
3
330
0
100
AcDbSymbolTable
 70
3
  0
APPID
  5
2A
330
3
100
AcDbSymbolTableRecord
100
AcDbRegAppTableRecord
  2
ACAD
 70
0
  0
APPID
  5
92
330
3
100
AcDbSymbolTableRecord
100
AcDbRegAppTableRecord
  2
HATCHBACKGROUNDCOLOR
 70
0
  0
APPID
  5
93
330
3
100
AcDbSymbolTableRecord
100
AcDbRegAppTableRecord
  2
EZDXF
 70
0
  0
ENDTAB
  0
TABLE
  2
DIMSTYLE
  5
4
330
0
100
AcDbSymbolTable
 70
12
100
AcDbDimStyleTable
  0
DIMSTYLE
105
2B
330
4
100
AcDbSymbolTableRecord
100
AcDbDimStyleTableRecord
  2
Standard
 70
0
 40
1.0
 41
2.5
 42
0.625
 43
3.75
 44
1.25
 45
0.0
 46
0.0
 47
0.0
 48
0.0
 49
2.5
140
2.5
141
2.5
142
0.0
143
0.03937007874
144
1.0
145
0.0
146
1.0
147
0.625
148
0.0
 69
0
 70
0
 71
0
 72
0
 73
0
 74
0
 75
0
 76
0
 77
1
 78
8
 79
3
170
0
171
3
172
1
173
0
174
0
175
0
176
0
177
0
178
0
179
2
271
2
272
2
273
2
274
3
275
0
276
0
277
2
278
44
279
0
280
0
281
0
282
0
283
0
284
8
285
0
286
0
288
0
289
3
290
0
371
-2
372
-2
  0
DIMSTYLE
105
73
330
4
100
AcDbSymbolTableRecord
100
AcDbDimStyleTableRecord
  2
EZDXF
 70
0
 40
1.0
 41
0.175
 42
0.125
 43
3.75
 44
0.375
 45
0.0
 46
0.0
 47
0.0
 48
0.0
 49
2.5
140
0.25
141
2.5
142
0.0
143
0.03937007874
144
100.0
145
0.0
146
0.5
147
0.1
148
0.0
 69
0
 70
0
 71
0
 72
0
 73
0
 74
0
 75
0
 76
0
 77
1
 78
12
 79
3
170
0
171
3
172
1
173
0
174
0
175
0
176
0
177
0
178
0
179
2
271
2
272
2
273
2
274
3
275
0
276
0
277
2
278
46
279
2
280
0
281
0
282
0
283
0
284
8
285
0
286
0
288
1
289
3
290
0
340
4C
342
74
371
-2
372
-2
  0
DIMSTYLE
105
7C
330
4
100
AcDbSymbolTableRecord
100
AcDbDimStyleTableRecord
  2
EZ_M_100_H25_CM
 70
0
 40
1.0
 41
0.25
 42
0.125
 43
3.75
 44
0.375
 45
0.0
 46
0.0
 47
0.0
 48
0.0
 49
2.5
140
0.25
141
2.5
142
0.125
143
0.03937007874
144
100.0
145
0.0
146
0.5
147
0.1
148
0.0
 69
0
 70
0
 71
0
 72
0
 73
0
 74
0
 75
0
 76
0
 77
1
 78
12
 79
3
170
0
171
3
172
1
173
0
174
0
175
0
176
0
177
0
178
0
179
2
271
2
272
2
273
2
274
3
275
0
276
0
277
2
278
46
279
2
280
0
281
0
282
0
283
0
284
8
285
0
286
0
288
1
289
3
290
0
340
4C
371
-2
372
-2
  0
DIMSTYLE
105
7D
330
4
100
AcDbSymbolTableRecord
100
AcDbDimStyleTableRecord
  2
EZ_M_50_H25_CM
 70
0
 40
1.0
 41
0.125
 42
0.0625
 43
3.75
 44
0.1875
 45
0.0
 46
0.0
 47
0.0
 48
0.0
 49
2.5
140
0.125
141
2.5
142
0.0625
143
0.03937007874
144
100.0
145
0.0
146
0.5
147
0.05
148
0.0
 69
0
 70
0
 71
0
 72
0
 73
0
 74
0
 75
0
 76
0
 77
1
 78
12
 79
3
170
0
171
3
172
1
173
0
174
0
175
0
176
0
177
0
178
0
179
2
271
2
272
2
273
2
274
3
275
0
276
0
277
2
278
46
279
2
280
0
281
0
282
0
283
0
284
8
285
0
286
0
288
1
289
3
290
0
340
4C
371
-2
372
-2
  0
DIMSTYLE
105
7E
330
4
100
AcDbSymbolTableRecord
100
AcDbDimStyleTableRecord
  2
EZ_M_25_H25_CM
 70
0
 40
1.0
 41
0.0625
 42
0.03125
 43
3.75
 44
0.09375
 45
0.0
 46
0.0
 47
0.0
 48
0.0
 49
2.5
140
0.0625
141
2.5
142
0.03125
143
0.03937007874
144
100.0
145
0.0
146
0.5
147
0.025
148
0.0
 69
0
 70
0
 71
0
 72
0
 73
0
 74
0
 75
0
 76
0
 77
1
 78
12
 79
3
170
0
171
3
172
1
173
0
174
0
175
0
176
0
177
0
178
0
179
2
271
2
272
2
273
2
274
3
275
0
276
0
277
2
278
46
279
2
280
0
281
0
282
0
283
0
284
8
285
0
286
0
288
1
289
3
290
0
340
4C
371
-2
372
-2
  0
DIMSTYLE
105
7F
330
4
100
AcDbSymbolTableRecord
100
AcDbDimStyleTableRecord
  2
EZ_M_20_H25_CM
 70
0
 40
1.0
 41
0.05
 42
0.025
 43
3.75
 44
0.07500000000000001
 45
0.0
 46
0.0
 47
0.0
 48
0.0
 49
2.5
140
0.05
141
2.5
142
0.025
143
0.03937007874
144
100.0
145
0.0
146
0.5
147
0.020000000000000004
148
0.0
 69
0
 70
0
 71
0
 72
0
 73
0
 74
0
 75
0
 76
0
 77
1
 78
12
 79
3
170
0
171
3
172
1
173
0
174
0
175
0
176
0
177
0
178
0
179
2
271
2
272
2
273
2
274
3
275
0
276
0
277
2
278
46
279
2
280
0
281
0
282
0
283
0
284
8
285
0
286
0
288
1
289
3
290
0
340
4C
371
-2
372
-2
  0
DIMSTYLE
105
80
330
4
100
AcDbSymbolTableRecord
100
AcDbDimStyleTableRecord
  2
EZ_M_10_H25_CM
 70
0
 40
1.0
 41
0.025
 42
0.0125
 43
3.75
 44
0.037500000000000006
 45
0.0
 46
0.0
 47
0.0
 48
0.0
 49
2.5
140
0.025
141
2.5
142
0.0125
143
0.03937007874
144
100.0
145
0.0
146
0.5
147
0.010000000000000002
148
0.0
 69
0
 70
0
 71
0
 72
0
 73
0
 74
0
 75
0
 76
0
 77
1
 78
12
 79
3
170
0
171
3
172
1
173
0
174
0
175
0
176
0
177
0
178
0
179
2
271
2
272
2
273
2
274
3
275
0
276
0
277
2
278
46
279
2
280
0
281
0
282
0
283
0
284
8
285
0
286
0
288
1
289
3
290
0
340
4C
371
-2
372
-2
  0
DIMSTYLE
105
81
330
4
100
AcDbSymbolTableRecord
100
AcDbDimStyleTableRecord
  2
EZ_M_5_H25_CM
 70
0
 40
1.0
 41
0.0125
 42
0.00625
 43
3.75
 44
0.018750000000000003
 45
0.0
 46
0.0
 47
0.0
 48
0.0
 49
2.5
140
0.0125
141
2.5
142
0.00625
143
0.03937007874
144
100.0
145
0.0
146
0.5
147
0.005000000000000001
148
0.0
 69
0
 70
0
 71
0
 72
0
 73
0
 74
0
 75
0
 76
0
 77
1
 78
12
 79
3
170
0
171
3
172
1
173
0
174
0
175
0
176
0
177
0
178
0
179
2
271
2
272
2
273
2
274
3
275
0
276
0
277
2
278
46
279
2
280
0
281
0
282
0
283
0
284
8
285
0
286
0
288
1
289
3
290
0
340
4C
371
-2
372
-2
  0
DIMSTYLE
105
82
330
4
100
AcDbSymbolTableRecord
100
AcDbDimStyleTableRecord
  2
EZ_M_1_H25_CM
 70
0
 40
1.0
 41
0.0025
 42
0.00125
 43
3.75
 44
0.00375
 45
0.0
 46
0.0
 47
0.0
 48
0.0
 49
2.5
140
0.0025
141
2.5
142
0.00125
143
0.03937007874
144
100.0
145
0.0
146
0.5
147
0.001
148
0.0
 69
0
 70
0
 71
0
 72
0
 73
0
 74
0
 75
0
 76
0
 77
1
 78
12
 79
3
170
0
171
3
172
1
173
0
174
0
175
0
176
0
177
0
178
0
179
2
271
2
272
2
273
2
274
3
275
0
276
0
277
2
278
46
279
2
280
0
281
0
282
0
283
0
284
8
285
0
286
0
288
1
289
3
290
0
340
4C
371
-2
372
-2
  0
DIMSTYLE
105
83
330
4
100
AcDbSymbolTableRecord
100
AcDbDimStyleTableRecord
  2
EZ_RADIUS
 70
0
 40
1.0
 41
0.25
 42
0.125
 43
3.75
 44
0.375
 45
0.0
 46
0.0
 47
0.0
 48
0.0
 49
2.5
140
0.25
141
0.0
142
0.0
143
0.03937007874
144
100.0
145
0.0
146
0.5
147
0.1
148
0.0
 69
0
 70
0
 71
0
 72
0
 73
0
 74
0
 75
0
 76
0
 77
1
 78
12
 79
3
170
0
171
3
172
0
173
0
174
0
175
0
176
0
177
0
178
0
179
2
271
2
272
2
273
2
274
3
275
0
276
0
277
2
278
46
279
1
280
0
281
0
282
0
283
0
284
8
285
0
286
0
288
1
289
3
290
0
340
4C
342
84
371
-2
372
-2
  0
DIMSTYLE
105
88
330
4
100
AcDbSymbolTableRecord
100
AcDbDimStyleTableRecord
  2
EZ_RADIUS_INSIDE
 70
0
 40
1.0
 41
0.25
 42
0.125
 43
3.75
 44
0.375
 45
0.0
 46
0.0
 47
0.0
 48
0.0
 49
2.5
140
0.25
141
0.0
142
0.0
143
0.03937007874
144
100.0
145
0.0
146
0.5
147
0.1
148
0.0
 69
0
 70
0
 71
0
 72
0
 73
0
 74
0
 75
0
 76
0
 77
0
 78
12
 79
3
170
0
171
3
172
0
173
0
174
1
175
0
176
0
177
0
178
0
179
2
271
2
272
2
273
2
274
3
275
0
276
0
277
2
278
46
279
0
280
0
281
0
282
0
283
0
284
8
285
0
286
0
288
1
289
0
290
0
340
4C
342
84
371
-2
372
-2
  0
DIMSTYLE
105
89
330
4
100
AcDbSymbolTableRecord
100
AcDbDimStyleTableRecord
  2
EZ_CURVED
 70
0
 40
1.0
 41
0.25
 42
0.125
 43
3.75
 44
0.375
 45
0.0
 46
0.0
 47
0.0
 48
0.0
 49
2.5
140
0.25
141
2.5
142
0.0
143
0.03937007874
144
100.0
145
0.0
146
0.5
147
0.1
148
0.0
 69
0
 70
0
 71
0
 72
0
 73
0
 74
0
 75
0
 76
0
 77
1
 78
12
 79
2
 90
2
170
0
171
3
172
1
173
0
174
0
175
0
176
0
177
0
178
0
179
2
271
2
272
2
273
2
274
3
275
0
276
0
277
2
278
46
279
2
280
0
281
0
282
0
283
0
284
8
285
0
286
0
288
1
289
3
290
0
340
4C
371
-2
372
-2
  0
ENDTAB
  0
TABLE
  2
BLOCK_RECORD
  5
9
330
0
100
AcDbSymbolTable
 70
5
  0
BLOCK_RECORD
  5
17
330
9
100
AcDbSymbolTableRecord
100
AcDbBlockTableRecord
  2
*Model_Space
340
1A
 70
0
280
1
281
0
  0
BLOCK_RECORD
  5
1B
330
9
100
AcDbSymbolTableRecord
100
AcDbBlockTableRecord
  2
*Paper_Space
340
1E
 70
0
280
1
281
0
  0
BLOCK_RECORD
  5
74
330
9
100
AcDbSymbolTableRecord
100
AcDbBlockTableRecord
  2
_ARCHTICK
340
0
 70
0
280
1
281
0
  0
BLOCK_RECORD
  5
78
330
9
100
AcDbSymbolTableRecord
100
AcDbBlockTableRecord
  2
_CLOSEDFILLED
340
0
 70
0
280
1
281
0
  0
BLOCK_RECORD
  5
84
330
9
100
AcDbSymbolTableRecord
100
AcDbBlockTableRecord
  2
_CLOSEDBLANK
340
0
 70
0
280
1
281
0
  0
ENDTAB
  0
ENDSEC
  0
SECTION
  2
BLOCKS
  0
BLOCK
  5
18
330
17
100
AcDbEntity
  8
0
100
AcDbBlockBegin
  2
*Model_Space
 70
0
 10
0.0
 20
0.0
 30
0.0
  3
*Model_Space
  1

  0
ENDBLK
  5
19
330
17
100
AcDbEntity
  8
0
100
AcDbBlockEnd
  0
BLOCK
  5
1C
330
1B
100
AcDbEntity
  8
0
100
AcDbBlockBegin
  2
*Paper_Space
 70
0
 10
0.0
 20
0.0
 30
0.0
  3
*Paper_Space
  1

  0
ENDBLK
  5
1D
330
1B
100
AcDbEntity
  8
0
100
AcDbBlockEnd
  0
BLOCK
  5
75
330
74
100
AcDbEntity
  8
0
100
AcDbBlockBegin
  2
_ARCHTICK
 70
0
 10
0.0
 20
0.0
 30
0.0
  3
_ARCHTICK
  1

  0
LWPOLYLINE
  5
77
330
74
100
AcDbEntity
  8
0
  6
BYBLOCK
 62
0
100
AcDbPolyline
 90
2
 70
0
 43
0.15
 10
-0.5
 20
-0.5
 10
0.5
 20
0.5
  0
ENDBLK
  5
76
330
74
100
AcDbEntity
  8
0
100
AcDbBlockEnd
  0
BLOCK
  5
79
330
78
100
AcDbEntity
  8
0
100
AcDbBlockBegin
  2
_CLOSEDFILLED
 70
0
 10
0.0
 20
0.0
 30
0.0
  3
_CLOSEDFILLED
  1

  0
SOLID
  5
7B
330
78
100
AcDbEntity
  8
0
  6
BYBLOCK
 62
0
100
AcDbTrace
 10
-1.0
 20
0.16439898372402537
 30
0.0
 11
0.0
 21
0.0
 31
0.0
 12
-1.0
 22
-0.16439898372402537
 32
0.0
 13
-1.0
 23
-0.16439898372402537
 33
0.0
  0
ENDBLK
  5
7A
330
78
100
AcDbEntity
  8
0
100
AcDbBlockEnd
  0
BLOCK
  5
85
330
84
100
AcDbEntity
  8
0
100
AcDbBlockBegin
  2
_CLOSEDBLANK
 70
0
 10
0.0
 20
0.0
 30
0.0
  3
_CLOSEDBLANK
  1

  0
LWPOLYLINE
  5
87
330
84
100
AcDbEntity
  8
0
  6
BYBLOCK
 62
0
100
AcDbPolyline
 90
3
 70
1
 10
-1.0
 20
0.16439898372402537
 10
0.0
 20
0.0
 10
-1.0
 20
-0.16439898372402537
  0
ENDBLK
  5
86
330
84
100
AcDbEntity
  8
0
100
AcDbBlockEnd
  0
ENDSEC
  0
SECTION
  2
ENTITIES
  0
LWPOLYLINE
  5
8C
330
17
100
AcDbEntity
  8
CORTE
100
AcDbPolyline
 90
104
 70
1
 10
-148.01443272026737
 20
0.008911438919999667
 10
-90.09344323925734
 20
116.18265822989441
 10
-85.46884040686946
 20
115.3591549916626
 10
-79.4169437697482
 20
114.34741579396518
 10
-73.35308723301249
 20
113.4100188596521
 10
-67.27818399115345
 20
112.54710535725386
 10
-61.193148902253505
 20
111.75880523836975
 10
-55.098898350216444
 20
111.04523721809832
 10
-49.02077546150548
 20
110.4089144446252
 10
-42.9108762302446
 20
109.84482181535414
 10
-36.77003774204516
 20
109.35394398885272
 10
-30.648114858464343
 20
108.94026619386933
 10
-24.521576481519027
 20
108.60174495911116
 10
-18.391345245353424
 20
108.33843126463098
 10
-12.258344340241468
 20
108.15036476450265
 10
-6.148039064074028
 20
108.03787496782293
 10
-0.012271769298309823
 20
108.00007529957836
 10
6.123497373560804
 20
108.03757378084939
 10
12.258344340241528
 20
108.15036476450265
 10
18.415872152870104
 20
108.33933464412789
 10
24.54609045634858
 20
108.60294925346986
 10
30.672612208892332
 20
108.94177122172754
 10
36.79451477886077
 20
109.35574952355877
 10
42.910876230244504
 20
109.84482181535412
 10
49.02077546150586
 20
110.4089144446253
 10
55.09889835021632
 20
111.04523721809831
 10
61.19314890225357
 20
111.75880523836975
 10
67.27818399115351
 20
112.54710535725386
 10
73.35308723301254
 20
113.4100188596521
 10
79.41694376974826
 20
114.34741579396518
 10
85.46884040686953
 20
115.3591549916626
 10
90.09344323925735
 20
116.1826582298944
 10
148.01443272026737
 20
0.008911438919999879
 10
64.09671607420509
 20
0.0
 10
64.0083579834902
 20
0.008565678495241787
 10
63.908598616498146
 20
1.2718462600068714
 10
63.7410385458473
 20
2.1389173333670013
 10
63.597062112574825
 20
2.6591813122645016
 10
63.29501956084069
 20
3.4890360709279786
 10
62.913091436216774
 20
4.285289504927173
 10
62.454955915326195
 20
5.040273258416579
 10
61.925025093677654
 20
5.746716425133667
 10
61.3284024947732
 20
6.397815571201986
 10
60.6708339203873
 20
6.987300255917949
 10
59.95865211535504
 20
7.50949341952247
 10
59.198715779776855
 20
7.959366056390365
 10
58.48903607092786
 20
8.29501956084074
 10
57.65918131226447
 20
8.597062112574834
 10
56.803717183907544
 20
8.816310256532656
 10
55.93088227305745
 20
8.950652513234644
 10
55.04908245704582
 20
8.998795093309806
 10
54.166809950141655
 20
8.960274357394606
 10
53.2925615188856
 20
8.835461281233481
 10
52.43475665358352
 20
8.625557882979642
 10
51.601656484012054
 20
8.332585647103123
 10
50.80128422022315
 20
7.95936605639037
 10
50.04134788464494
 20
7.509493419522453
 10
49.32916607961269
 20
6.987300255917951
 10
48.67159750522679
 20
6.397815571201984
 10
48.074974906322396
 20
5.746716425133728
 10
47.54504408467375
 20
5.0402732584164935
 10
47.08690856378325
 20
4.285289504927206
 10
46.70498043915927
 20
3.489036070927892
 10
46.510702504337765
 20
2.985389463555669
 10
46.25896145415269
 20
2.1389173333669986
 10
46.091401383501854
 20
1.2718462600068607
 10
45.99164201650979
 20
0.008565678495240805
 10
45.90328392579491
 20
0.0
 10
-45.90328392579491
 20
0.0
 10
-45.9916420165098
 20
0.008565678495241305
 10
-46.091401383501854
 20
1.2718462600068714
 10
-46.2589614541527
 20
2.1389173333670013
 10
-46.402937887425175
 20
2.6591813122645016
 10
-46.70498043915931
 20
3.4890360709279786
 10
-47.086908563783226
 20
4.285289504927173
 10
-47.545044084673805
 20
5.040273258416579
 10
-48.074974906322346
 20
5.746716425133667
 10
-48.6715975052268
 20
6.397815571201986
 10
-49.3291660796127
 20
6.987300255917949
 10
-50.04134788464496
 20
7.50949341952247
 10
-50.801284220223145
 20
7.959366056390365
 10
-51.51096392907214
 20
8.29501956084074
 10
-52.34081868773553
 20
8.597062112574834
 10
-53.196282816092456
 20
8.816310256532656
 10
-54.06911772694255
 20
8.950652513234644
 10
-54.95091754295418
 20
8.998795093309806
 10
-55.833190049858345
 20
8.960274357394606
 10
-56.7074384811144
 20
8.835461281233481
 10
-57.56524334641648
 20
8.625557882979642
 10
-58.398343515987946
 20
8.332585647103123
 10
-59.19871577977685
 20
7.95936605639037
 10
-59.95865211535506
 20
7.509493419522453
 10
-60.67083392038731
 20
6.987300255917951
 10
-61.32840249477321
 20
6.397815571201984
 10
-61.925025093677604
 20
5.746716425133728
 10
-62.45495591532625
 20
5.0402732584164935
 10
-62.91309143621675
 20
4.285289504927206
 10
-63.29501956084073
 20
3.489036070927892
 10
-63.489297495662235
 20
2.985389463555669
 10
-63.74103854584731
 20
2.1389173333669986
 10
-63.908598616498146
 20
1.2718462600068607
 10
-64.0083579834902
 20
0.008565678495241938
 10
-64.09671607420509
 20
0.0
 10
-148.01443272026737
 20
0.008911438919999667
  0
LWPOLYLINE
  5
8D
330
17
100
AcDbEntity
  8
CORTE
100
AcDbPolyline
 90
100
 70
1
 10
-111.0
 20
21.0
 10
-111.457821904611
 20
21.014987537329777
 10
-111.91368334554036
 20
21.059885970383327
 10
-112.3656322541129
 20
21.134503037177385
 10
-112.81173331571765
 20
21.238519215976524
 10
-113.25007625712213
 20
21.371489093534258
 10
-113.67878402655563
 20
21.53284327242099
 10
-114.09602083153301
 20
21.72189080927118
 10
-114.5
 20
21.937822173508927
 10
-114.88899163113722
 20
22.179712713882182
 10
-115.26133000306105
 20
22.446526617961354
 10
-115.61542070570047
 20
22.737121347647154
 10
-115.94974746830583
 20
23.050252531694166
 10
-116.26287865235284
 20
23.384579294299517
 10
-116.55347338203865
 20
23.738669996938953
 10
-116.82028728611782
 20
24.111008368862784
 10
-117.06217782649107
 20
24.499999999999996
 10
-117.27810919072881
 20
24.90397916846699
 10
-117.46715672757901
 20
25.32121597344437
 10
-117.62851090646573
 20
25.74992374287787
 10
-117.76148078402348
 20
26.188266684282354
 10
-117.86549696282262
 20
26.6343677458871
 10
-117.94011402961667
 20
27.086316654459637
 10
-117.98501246267023
 20
27.542178095388994
 10
-118.0
 20
28.0
 10
-117.98501246267023
 20
28.457821904611
 10
-117.94011402961667
 20
28.91368334554036
 10
-117.86549696282262
 20
29.365632254112896
 10
-117.76148078402348
 20
29.811733315717643
 10
-117.62851090646573
 20
30.250076257122128
 10
-117.46715672757901
 20
30.678784026555626
 10
-117.27810919072881
 20
31.096020831533007
 10
-117.06217782649107
 20
31.5
 10
-92.26313972081441
 20
74.75
 10
-92.073082867664
 20
75.0556362816078
 10
-91.86344337160179
 20
75.34818785954796
 10
-91.63511894113438
 20
75.62640198305037
 10
-91.38908729652601
 20
75.88908729652601
 10
-91.12640198305039
 20
76.13511894113438
 10
-90.84818785954796
 20
76.36344337160179
 10
-90.55563628160782
 20
76.573082867664
 10
-90.25
 20
76.76313972081441
 10
-89.9325877962045
 20
76.93280007842978
 10
-89.604758878008
 20
77.08133742881208
 10
-89.26791705916739
 20
77.20811571222308
 10
-88.92350474806386
 20
77.31259204458988
 10
-88.57299677108871
 20
77.39431904221777
 10
-88.21789405721029
 20
77.45294673755596
 10
-87.8597172107658
 20
77.48822407781232
 10
-87.5
 20
77.5
 10
-87.14028278923422
 20
77.48822407781232
 10
-86.78210594278971
 20
77.45294673755596
 10
-86.4270032289113
 20
77.39431904221777
 10
-86.07649525193614
 20
77.31259204458988
 10
-85.73208294083261
 20
77.20811571222308
 10
-85.39524112199202
 20
77.08133742881208
 10
-85.0674122037955
 20
76.93280007842979
 10
-84.75
 20
76.76313972081442
 10
-84.4443637183922
 20
76.573082867664
 10
-84.15181214045204
 20
76.36344337160179
 10
-83.87359801694963
 20
76.13511894113438
 10
-83.61091270347399
 20
75.88908729652601
 10
-83.36488105886562
 20
75.62640198305039
 10
-83.13655662839821
 20
75.34818785954796
 10
-82.926917132336
 20
75.05563628160782
 10
-82.73686027918559
 20
74.75
 10
-82.56719992157022
 20
74.43258779620452
 10
-82.41866257118792
 20
74.104758878008
 10
-82.29188428777692
 20
73.76791705916739
 10
-82.18740795541012
 20
73.42350474806386
 10
-82.10568095778223
 20
73.07299677108871
 10
-82.04705326244404
 20
72.71789405721029
 10
-82.01177592218768
 20
72.3597172107658
 10
-82.0
 20
72.0
 10
-82.0
 20
28.0
 10
-82.01498753732977
 20
27.542178095388998
 10
-82.05988597038333
 20
27.08631665445964
 10
-82.13450303717738
 20
26.6343677458871
 10
-82.23851921597652
 20
26.188266684282354
 10
-82.37148909353427
 20
25.74992374287787
 10
-82.53284327242099
 20
25.32121597344437
 10
-82.72189080927119
 20
24.90397916846699
 10
-82.93782217350893
 20
24.5
 10
-83.17971271388218
 20
24.111008368862784
 10
-83.44652661796135
 20
23.738669996938956
 10
-83.73712134764716
 20
23.38457929429952
 10
-84.05025253169417
 20
23.05025253169417
 10
-84.38457929429951
 20
22.73712134764716
 10
-84.73866999693895
 20
22.446526617961354
 10
-85.11100836886278
 20
22.179712713882182
 10
-85.5
 20
21.93782217350893
 10
-85.90397916846699
 20
21.72189080927118
 10
-86.32121597344437
 20
21.532843272420994
 10
-86.74992374287787
 20
21.37148909353426
 10
-87.18826668428235
 20
21.238519215976524
 10
-87.6343677458871
 20
21.13450303717739
 10
-88.08631665445964
 20
21.059885970383327
 10
-88.54217809538899
 20
21.014987537329777
 10
-89.0
 20
21.0
 10
-111.0
 20
21.0
  0
LWPOLYLINE
  5
8E
330
17
100
AcDbEntity
  8
CORTE
100
AcDbPolyline
 90
100
 70
1
 10
89.0
 20
21.0
 10
88.542178095389
 20
21.014987537329777
 10
88.08631665445964
 20
21.059885970383327
 10
87.6343677458871
 20
21.134503037177385
 10
87.18826668428235
 20
21.238519215976524
 10
86.74992374287787
 20
21.371489093534258
 10
86.32121597344437
 20
21.53284327242099
 10
85.90397916846699
 20
21.72189080927118
 10
85.5
 20
21.937822173508927
 10
85.11100836886278
 20
22.179712713882182
 10
84.73866999693895
 20
22.446526617961354
 10
84.38457929429953
 20
22.737121347647154
 10
84.05025253169417
 20
23.050252531694166
 10
83.73712134764716
 20
23.384579294299517
 10
83.44652661796135
 20
23.738669996938953
 10
83.17971271388218
 20
24.111008368862784
 10
82.93782217350893
 20
24.499999999999996
 10
82.72189080927119
 20
24.90397916846699
 10
82.53284327242099
 20
25.32121597344437
 10
82.37148909353427
 20
25.74992374287787
 10
82.23851921597652
 20
26.188266684282354
 10
82.13450303717738
 20
26.6343677458871
 10
82.05988597038333
 20
27.086316654459637
 10
82.01498753732977
 20
27.542178095388994
 10
82.0
 20
28.0
 10
82.0
 20
72.0
 10
82.01177592218768
 20
72.35971721076578
 10
82.04705326244404
 20
72.71789405721029
 10
82.10568095778223
 20
73.0729967710887
 10
82.18740795541012
 20
73.42350474806386
 10
82.29188428777692
 20
73.76791705916739
 10
82.41866257118792
 20
74.10475887800798
 10
82.56719992157022
 20
74.4325877962045
 10
82.73686027918559
 20
74.75
 10
82.926917132336
 20
75.0556362816078
 10
83.13655662839821
 20
75.34818785954796
 10
83.36488105886562
 20
75.62640198305037
 10
83.61091270347399
 20
75.88908729652601
 10
83.87359801694961
 20
76.13511894113438
 10
84.15181214045204
 20
76.36344337160179
 10
84.44436371839218
 20
76.573082867664
 10
84.75
 20
76.76313972081441
 10
85.0674122037955
 20
76.93280007842978
 10
85.395241121992
 20
77.08133742881208
 10
85.73208294083261
 20
77.20811571222308
 10
86.07649525193614
 20
77.31259204458988
 10
86.42700322891129
 20
77.39431904221777
 10
86.78210594278971
 20
77.45294673755596
 10
87.1402827892342
 20
77.48822407781232
 10
87.5
 20
77.5
 10
87.85971721076578
 20
77.48822407781232
 10
88.21789405721029
 20
77.45294673755596
 10
88.5729967710887
 20
77.39431904221777
 10
88.92350474806386
 20
77.31259204458988
 10
89.26791705916739
 20
77.20811571222308
 10
89.60475887800798
 20
77.08133742881208
 10
89.9325877962045
 20
76.93280007842979
 10
90.25
 20
76.76313972081442
 10
90.5556362816078
 20
76.573082867664
 10
90.84818785954796
 20
76.36344337160179
 10
91.12640198305037
 20
76.13511894113438
 10
91.38908729652601
 20
75.88908729652601
 10
91.63511894113438
 20
75.62640198305039
 10
91.86344337160179
 20
75.34818785954796
 10
92.073082867664
 20
75.05563628160782
 10
92.26313972081441
 20
74.75
 10
117.06217782649107
 20
31.500000000000004
 10
117.27810919072881
 20
31.096020831533014
 10
117.46715672757901
 20
30.678784026555633
 10
117.62851090646573
 20
30.25007625712213
 10
117.76148078402348
 20
29.81173331571765
 10
117.86549696282262
 20
29.365632254112903
 10
117.94011402961667
 20
28.913683345540367
 10
117.98501246267023
 20
28.457821904611006
 10
118.0
 20
28.0
 10
117.98501246267023
 20
27.542178095388998
 10
117.94011402961667
 20
27.08631665445964
 10
117.86549696282262
 20
26.6343677458871
 10
117.76148078402348
 20
26.188266684282354
 10
117.62851090646573
 20
25.74992374287787
 10
117.46715672757901
 20
25.32121597344437
 10
117.27810919072881
 20
24.90397916846699
 10
117.06217782649107
 20
24.5
 10
116.82028728611782
 20
24.111008368862784
 10
116.55347338203865
 20
23.738669996938956
 10
116.26287865235284
 20
23.38457929429952
 10
115.94974746830583
 20
23.05025253169417
 10
115.61542070570049
 20
22.73712134764716
 10
115.26133000306105
 20
22.446526617961354
 10
114.88899163113722
 20
22.179712713882182
 10
114.5
 20
21.93782217350893
 10
114.09602083153301
 20
21.72189080927118
 10
113.67878402655563
 20
21.532843272420994
 10
113.25007625712213
 20
21.37148909353426
 10
112.81173331571765
 20
21.238519215976524
 10
112.3656322541129
 20
21.13450303717739
 10
111.91368334554036
 20
21.059885970383327
 10
111.45782190461101
 20
21.014987537329777
 10
111.0
 20
21.0
 10
89.0
 20
21.0
  0
LWPOLYLINE
  5
8F
330
17
100
AcDbEntity
  8
CORTE
100
AcDbPolyline
 90
257
 70
1
 10
-6.5
 20
24.5
 10
-6.503764766297447
 20
24.193234643463597
 10
-6.515056797435346
 20
23.886654070907277
 10
-6.533869291516373
 20
23.58044295500416
 10
-6.560190916597538
 20
23.274785745880493
 10
-6.594005817516125
 20
22.969866560009798
 10
-6.635293625440237
 20
22.665869069307977
 10
-6.684029470138235
 20
22.362976390496236
 10
-6.740183994959619
 20
22.061370974798397
 10
-6.803723374518393
 20
21.761234498039126
 10
-6.8746093350682
 20
21.4627477512092
 10
-6.952799177557003
 20
21.16609053156377
 10
-7.03824580334739
 20
20.87144153431922
 10
-7.130897742587042
 20
20.578978245013857
 10
-7.23069918521224
 20
20.28887683259725
 10
-7.337590014565762
 20
20.001312043312648
 10
-7.451505843608915
 20
19.71645709543638
 10
-7.572378053705867
 20
19.434483574937627
 10
-7.700133835956958
 20
19.155561332121472
 10
-7.834696235056059
 20
18.87985837931742
 10
-7.975984195645562
 20
18.607540789675028
 10
-8.123912611141106
 20
18.3387725971277
 10
-8.2783923749966
 20
18.07371569758473
 10
-8.439330434378661
 20
17.812529751411287
 10
-8.606629846218185
 20
17.555372087254973
 10
-8.780189835605203
 20
17.302397607276934
 10
-8.959905856491938
 20
17.053758693844582
 10
-9.14566965466742
 20
16.809605117742166
 10
-9.337369332965787
 20
16.57008394795443
 10
-9.534889418668943
 20
16.33533946307779
 10
-9.73811093306301
 20
16.10551306441227
 10
-9.946911463106662
 20
15.880743190786665
 10
-10.161165235168156
 20
15.661165235168157
 10
-10.380743190786664
 20
15.446911463106664
 10
-10.605513064412271
 20
15.23811093306301
 10
-10.83533946307779
 20
15.034889418668945
 10
-11.070083947954432
 20
14.837369332965787
 10
-11.309605117742166
 20
14.645669654667422
 10
-11.553758693844582
 20
14.45990585649194
 10
-11.802397607276934
 20
14.280189835605203
 10
-12.055372087254971
 20
14.106629846218185
 10
-12.312529751411283
 20
13.939330434378663
 10
-12.57371569758473
 20
13.7783923749966
 10
-12.838772597127699
 20
13.623912611141108
 10
-13.107540789675028
 20
13.475984195645562
 10
-13.379858379317419
 20
13.33469623505606
 10
-13.655561332121472
 20
13.200133835956958
 10
-13.934483574937627
 20
13.072378053705867
 10
-14.216457095436377
 20
12.951505843608915
 10
-14.501312043312646
 20
12.837590014565764
 10
-14.78887683259725
 20
12.73069918521224
 10
-15.078978245013856
 20
12.630897742587042
 10
-15.37144153431922
 20
12.538245803347388
 10
-15.66609053156377
 20
12.452799177557003
 10
-15.9627477512092
 20
12.3746093350682
 10
-16.261234498039126
 20
12.303723374518393
 10
-16.561370974798397
 20
12.240183994959619
 10
-16.862976390496232
 20
12.184029470138235
 10
-17.165869069307977
 20
12.135293625440237
 10
-17.469866560009798
 20
12.094005817516125
 10
-17.77478574588049
 20
12.06019091659754
 10
-18.080442955004155
 20
12.033869291516373
 10
-18.386654070907273
 20
12.015056797435346
 10
-18.693234643463597
 20
12.003764766297447
 10
-19.0
 20
12.0
 10
-19.306765356536403
 20
12.003764766297447
 10
-19.613345929092723
 20
12.015056797435346
 10
-19.91955704499584
 20
12.033869291516373
 10
-20.225214254119507
 20
12.060190916597538
 10
-20.530133439990202
 20
12.094005817516125
 10
-20.83413093069202
 20
12.135293625440237
 10
-21.137023609503764
 20
12.184029470138235
 10
-21.438629025201603
 20
12.240183994959619
 10
-21.73876550196087
 20
12.303723374518393
 10
-22.0372522487908
 20
12.3746093350682
 10
-22.33390946843623
 20
12.452799177557003
 10
-22.628558465680776
 20
12.538245803347388
 10
-22.921021754986143
 20
12.630897742587042
 10
-23.21112316740275
 20
12.73069918521224
 10
-23.498687956687352
 20
12.837590014565764
 10
-23.78354290456362
 20
12.951505843608915
 10
-24.06551642506237
 20
13.072378053705867
 10
-24.344438667878524
 20
13.200133835956956
 10
-24.620141620682585
 20
13.33469623505606
 10
-24.892459210324972
 20
13.475984195645562
 10
-25.1612274028723
 20
13.623912611141106
 10
-25.42628430241527
 20
13.7783923749966
 10
-25.687470248588713
 20
13.93933043437866
 10
-25.944627912745023
 20
14.106629846218182
 10
-26.197602392723066
 20
14.280189835605203
 10
-26.446241306155418
 20
14.459905856491938
 10
-26.690394882257834
 20
14.64566965466742
 10
-26.929916052045566
 20
14.837369332965785
 10
-27.164660536922206
 20
15.034889418668941
 10
-27.39448693558773
 20
15.238110933063012
 10
-27.619256809213336
 20
15.446911463106664
 10
-27.838834764831844
 20
15.661165235168156
 10
-28.053088536893334
 20
15.880743190786662
 10
-28.261889066936988
 20
16.105513064412268
 10
-28.465110581331057
 20
16.335339463077794
 10
-28.662630667034215
 20
16.57008394795443
 10
-28.854330345332578
 20
16.809605117742162
 10
-29.04009414350806
 20
17.053758693844582
 10
-29.219810164394794
 20
17.30239760727693
 10
-29.393370153781817
 20
17.555372087254973
 10
-29.56066956562134
 20
17.812529751411287
 10
-29.7216076250034
 20
18.073715697584728
 10
-29.876087388858892
 20
18.338772597127697
 10
-30.024015804354438
 20
18.607540789675028
 10
-30.165303764943943
 20
18.879858379317415
 10
-30.299866164043042
 20
19.155561332121476
 10
-30.42762194629413
 20
19.434483574937627
 10
-30.548494156391087
 20
19.716457095436375
 10
-30.662409985434238
 20
20.001312043312645
 10
-30.76930081478776
 20
20.288876832597246
 10
-30.86910225741296
 20
20.578978245013857
 10
-30.96175419665261
 20
20.87144153431922
 10
-31.047200822442996
 20
21.166090531563768
 10
-31.1253906649318
 20
21.4627477512092
 10
-31.196276625481605
 20
21.761234498039123
 10
-31.25981600504038
 20
22.061370974798393
 10
-31.315970529861765
 20
22.362976390496236
 10
-31.364706374559763
 20
22.665869069307977
 10
-31.405994182483873
 20
22.969866560009795
 10
-31.43980908340246
 20
23.27478574588049
 10
-31.466130708483625
 20
23.580442955004152
 10
-31.484943202564654
 20
23.886654070907277
 10
-31.496235233702553
 20
24.193234643463597
 10
-31.5
 20
24.5
 10
-31.496235233702553
 20
24.806765356536403
 10
-31.484943202564654
 20
25.11334592909272
 10
-31.466130708483625
 20
25.419557044995845
 10
-31.439809083402462
 20
25.725214254119507
 10
-31.405994182483873
 20
26.030133439990202
 10
-31.364706374559763
 20
26.33413093069202
 10
-31.315970529861765
 20
26.637023609503764
 10
-31.25981600504038
 20
26.938629025201603
 10
-31.19627662548161
 20
27.238765501960874
 10
-31.1253906649318
 20
27.537252248790796
 10
-31.047200822443
 20
27.83390946843623
 10
-30.961754196652613
 20
28.128558465680776
 10
-30.869102257412962
 20
28.42102175498614
 10
-30.769300814787762
 20
28.71112316740275
 10
-30.662409985434238
 20
28.998687956687352
 10
-30.548494156391087
 20
29.28354290456362
 10
-30.42762194629413
 20
29.56551642506237
 10
-30.299866164043046
 20
29.84443866787852
 10
-30.165303764943943
 20
30.12014162068258
 10
-30.024015804354438
 20
30.392459210324972
 10
-29.876087388858892
 20
30.6612274028723
 10
-29.7216076250034
 20
30.92628430241527
 10
-29.56066956562134
 20
31.18747024858871
 10
-29.393370153781817
 20
31.444627912745023
 10
-29.219810164394797
 20
31.697602392723066
 10
-29.040094143508064
 20
31.946241306155414
 10
-28.854330345332578
 20
32.190394882257834
 10
-28.662630667034215
 20
32.42991605204556
 10
-28.46511058133106
 20
32.664660536922206
 10
-28.261889066936988
 20
32.89448693558773
 10
-28.053088536893338
 20
33.11925680921333
 10
-27.838834764831844
 20
33.338834764831844
 10
-27.61925680921334
 20
33.553088536893334
 10
-27.394486935587736
 20
33.76188906693699
 10
-27.164660536922213
 20
33.965110581331054
 10
-26.929916052045574
 20
34.16263066703421
 10
-26.69039488225784
 20
34.35433034533257
 10
-26.446241306155414
 20
34.540094143508064
 10
-26.197602392723066
 20
34.7198101643948
 10
-25.944627912745027
 20
34.89337015378182
 10
-25.687470248588717
 20
35.06066956562134
 10
-25.426284302415272
 20
35.2216076250034
 10
-25.161227402872303
 20
35.37608738885889
 10
-24.892459210324972
 20
35.524015804354434
 10
-24.62014162068259
 20
35.66530376494394
 10
-24.34443866787853
 20
35.79986616404304
 10
-24.06551642506238
 20
35.92762194629413
 10
-23.783542904563628
 20
36.04849415639108
 10
-23.49868795668735
 20
36.16240998543424
 10
-23.21112316740275
 20
36.26930081478776
 10
-22.921021754986143
 20
36.36910225741296
 10
-22.62855846568078
 20
36.461754196652606
 10
-22.333909468436232
 20
36.547200822442996
 10
-22.0372522487908
 20
36.6253906649318
 10
-21.738765501960877
 20
36.6962766254816
 10
-21.438629025201607
 20
36.75981600504038
 10
-21.13702360950377
 20
36.815970529861765
 10
-20.83413093069203
 20
36.86470637455976
 10
-20.5301334399902
 20
36.90599418248388
 10
-20.225214254119507
 20
36.939809083402466
 10
-19.91955704499584
 20
36.966130708483625
 10
-19.613345929092727
 20
36.98494320256465
 10
-19.306765356536406
 20
36.99623523370255
 10
-19.0
 20
37.0
 10
-18.6932346434636
 20
36.99623523370255
 10
-18.38665407090728
 20
36.98494320256465
 10
-18.080442955004163
 20
36.966130708483625
 10
-17.7747857458805
 20
36.939809083402466
 10
-17.469866560009805
 20
36.90599418248388
 10
-17.165869069307977
 20
36.86470637455976
 10
-16.862976390496232
 20
36.815970529861765
 10
-16.561370974798397
 20
36.75981600504038
 10
-16.26123449803913
 20
36.69627662548161
 10
-15.962747751209204
 20
36.6253906649318
 10
-15.666090531563773
 20
36.547200822443
 10
-15.371441534319224
 20
36.46175419665261
 10
-15.078978245013861
 20
36.36910225741296
 10
-14.788876832597255
 20
36.26930081478776
 10
-14.501312043312655
 20
36.16240998543424
 10
-14.216457095436375
 20
36.04849415639109
 10
-13.934483574937625
 20
35.92762194629413
 10
-13.655561332121472
 20
35.79986616404304
 10
-13.379858379317419
 20
35.66530376494394
 10
-13.107540789675031
 20
35.524015804354434
 10
-12.8387725971277
 20
35.37608738885889
 10
-12.573715697584731
 20
35.2216076250034
 10
-12.312529751411288
 20
35.06066956562134
 10
-12.055372087254977
 20
34.89337015378182
 10
-11.802397607276939
 20
34.7198101643948
 10
-11.553758693844589
 20
34.540094143508064
 10
-11.309605117742162
 20
34.35433034533258
 10
-11.07008394795443
 20
34.16263066703421
 10
-10.83533946307779
 20
33.96511058133106
 10
-10.605513064412271
 20
33.76188906693699
 10
-10.380743190786665
 20
33.55308853689334
 10
-10.161165235168157
 20
33.338834764831844
 10
-9.946911463106666
 20
33.11925680921334
 10
-9.738110933063014
 20
32.894486935587736
 10
-9.534889418668946
 20
32.66466053692221
 10
-9.337369332965793
 20
32.42991605204558
 10
-9.145669654667426
 20
32.19039488225784
 10
-8.959905856491936
 20
31.946241306155414
 10
-8.780189835605203
 20
31.697602392723066
 10
-8.606629846218185
 20
31.444627912745027
 10
-8.439330434378663
 20
31.187470248588717
 10
-8.2783923749966
 20
30.926284302415272
 10
-8.123912611141108
 20
30.661227402872303
 10
-7.975984195645564
 20
30.392459210324972
 10
-7.834696235056061
 20
30.12014162068259
 10
-7.7001338359569615
 20
29.84443866787853
 10
-7.572378053705869
 20
29.56551642506238
 10
-7.451505843608919
 20
29.28354290456363
 10
-7.337590014565762
 20
28.99868795668735
 10
-7.23069918521224
 20
28.71112316740275
 10
-7.130897742587042
 20
28.421021754986143
 10
-7.03824580334739
 20
28.128558465680783
 10
-6.952799177557003
 20
27.833909468436232
 10
-6.8746093350682
 20
27.537252248790804
 10
-6.803723374518395
 20
27.238765501960877
 10
-6.7401839949596205
 20
26.93862902520161
 10
-6.684029470138237
 20
26.63702360950377
 10
-6.635293625440239
 20
26.33413093069203
 10
-6.594005817516125
 20
26.030133439990202
 10
-6.560190916597538
 20
25.725214254119507
 10
-6.533869291516373
 20
25.41955704499584
 10
-6.515056797435346
 20
25.113345929092727
 10
-6.503764766297447
 20
24.806765356536406
 10
-6.5
 20
24.5
  0
LWPOLYLINE
  5
90
330
17
100
AcDbEntity
  8
CORTE
100
AcDbPolyline
 90
257
 70
1
 10
31.5
 20
24.5
 10
31.496235233702553
 20
24.193234643463597
 10
31.484943202564654
 20
23.886654070907277
 10
31.466130708483625
 20
23.58044295500416
 10
31.439809083402462
 20
23.274785745880493
 10
31.405994182483873
 20
22.969866560009798
 10
31.364706374559763
 20
22.665869069307977
 10
31.315970529861765
 20
22.362976390496236
 10
31.25981600504038
 20
22.061370974798397
 10
31.19627662548161
 20
21.761234498039126
 10
31.1253906649318
 20
21.4627477512092
 10
31.047200822442996
 20
21.16609053156377
 10
30.96175419665261
 20
20.87144153431922
 10
30.86910225741296
 20
20.578978245013857
 10
30.769300814787762
 20
20.28887683259725
 10
30.662409985434238
 20
20.001312043312648
 10
30.548494156391087
 20
19.71645709543638
 10
30.42762194629413
 20
19.434483574937627
 10
30.299866164043042
 20
19.155561332121472
 10
30.165303764943943
 20
18.87985837931742
 10
30.024015804354438
 20
18.607540789675028
 10
29.876087388858892
 20
18.3387725971277
 10
29.7216076250034
 20
18.07371569758473
 10
29.56066956562134
 20
17.812529751411287
 10
29.393370153781817
 20
17.555372087254973
 10
29.219810164394797
 20
17.302397607276934
 10
29.040094143508064
 20
17.053758693844582
 10
28.854330345332578
 20
16.809605117742166
 10
28.662630667034215
 20
16.57008394795443
 10
28.465110581331057
 20
16.33533946307779
 10
28.261889066936988
 20
16.10551306441227
 10
28.053088536893338
 20
15.880743190786665
 10
27.838834764831844
 20
15.661165235168157
 10
27.619256809213336
 20
15.446911463106664
 10
27.39448693558773
 20
15.23811093306301
 10
27.16466053692221
 20
15.034889418668945
 10
26.92991605204557
 20
14.837369332965787
 10
26.690394882257834
 20
14.645669654667422
 10
26.446241306155418
 20
14.45990585649194
 10
26.197602392723066
 20
14.280189835605203
 10
25.944627912745027
 20
14.106629846218185
 10
25.687470248588717
 20
13.939330434378663
 10
25.42628430241527
 20
13.7783923749966
 10
25.1612274028723
 20
13.623912611141108
 10
24.892459210324972
 20
13.475984195645562
 10
24.62014162068258
 20
13.33469623505606
 10
24.344438667878528
 20
13.200133835956958
 10
24.065516425062373
 20
13.072378053705867
 10
23.783542904563625
 20
12.951505843608915
 10
23.498687956687355
 20
12.837590014565764
 10
23.21112316740275
 20
12.73069918521224
 10
22.921021754986146
 20
12.630897742587042
 10
22.62855846568078
 20
12.538245803347388
 10
22.333909468436232
 20
12.452799177557003
 10
22.0372522487908
 20
12.3746093350682
 10
21.738765501960874
 20
12.303723374518393
 10
21.438629025201603
 20
12.240183994959619
 10
21.137023609503768
 20
12.184029470138235
 10
20.834130930692023
 20
12.135293625440237
 10
20.530133439990202
 20
12.094005817516125
 10
20.22521425411951
 20
12.06019091659754
 10
19.919557044995845
 20
12.033869291516373
 10
19.613345929092727
 20
12.015056797435346
 10
19.306765356536403
 20
12.003764766297447
 10
19.0
 20
12.0
 10
18.693234643463597
 20
12.003764766297447
 10
18.386654070907277
 20
12.015056797435346
 10
18.08044295500416
 20
12.033869291516373
 10
17.774785745880493
 20
12.060190916597538
 10
17.469866560009798
 20
12.094005817516125
 10
17.16586906930798
 20
12.135293625440237
 10
16.862976390496236
 20
12.184029470138235
 10
16.561370974798397
 20
12.240183994959619
 10
16.26123449803913
 20
12.303723374518393
 10
15.962747751209202
 20
12.3746093350682
 10
15.666090531563771
 20
12.452799177557003
 10
15.371441534319223
 20
12.538245803347388
 10
15.078978245013857
 20
12.630897742587042
 10
14.78887683259725
 20
12.73069918521224
 10
14.501312043312648
 20
12.837590014565764
 10
14.216457095436379
 20
12.951505843608915
 10
13.934483574937628
 20
13.072378053705867
 10
13.655561332121476
 20
13.200133835956956
 10
13.379858379317415
 20
13.33469623505606
 10
13.107540789675028
 20
13.475984195645562
 10
12.8387725971277
 20
13.623912611141106
 10
12.57371569758473
 20
13.7783923749966
 10
12.312529751411287
 20
13.93933043437866
 10
12.055372087254977
 20
14.106629846218182
 10
11.802397607276934
 20
14.280189835605203
 10
11.553758693844582
 20
14.459905856491938
 10
11.309605117742166
 20
14.64566965466742
 10
11.070083947954434
 20
14.837369332965785
 10
10.835339463077794
 20
15.034889418668941
 10
10.60551306441227
 20
15.238110933063012
 10
10.380743190786664
 20
15.446911463106664
 10
10.161165235168157
 20
15.661165235168156
 10
9.946911463106666
 20
15.880743190786662
 10
9.738110933063014
 20
16.105513064412268
 10
9.534889418668943
 20
16.335339463077794
 10
9.337369332965787
 20
16.57008394795443
 10
9.145669654667422
 20
16.809605117742162
 10
8.95990585649194
 20
17.053758693844582
 10
8.780189835605205
 20
17.30239760727693
 10
8.606629846218183
 20
17.555372087254973
 10
8.439330434378661
 20
17.812529751411287
 10
8.2783923749966
 20
18.073715697584728
 10
8.123912611141108
 20
18.338772597127697
 10
7.975984195645562
 20
18.607540789675028
 10
7.834696235056059
 20
18.879858379317415
 10
7.700133835956958
 20
19.155561332121476
 10
7.572378053705867
 20
19.434483574937627
 10
7.451505843608915
 20
19.716457095436375
 10
7.337590014565764
 20
20.001312043312645
 10
7.2306991852122415
 20
20.288876832597246
 10
7.130897742587042
 20
20.578978245013857
 10
7.03824580334739
 20
20.87144153431922
 10
6.952799177557003
 20
21.166090531563768
 10
6.8746093350682
 20
21.4627477512092
 10
6.803723374518395
 20
21.761234498039123
 10
6.740183994959619
 20
22.061370974798393
 10
6.684029470138235
 20
22.362976390496236
 10
6.635293625440237
 20
22.665869069307977
 10
6.594005817516125
 20
22.969866560009795
 10
6.56019091659754
 20
23.27478574588049
 10
6.533869291516373
 20
23.580442955004152
 10
6.515056797435346
 20
23.886654070907277
 10
6.503764766297447
 20
24.193234643463597
 10
6.5
 20
24.5
 10
6.503764766297447
 20
24.806765356536403
 10
6.515056797435346
 20
25.11334592909272
 10
6.533869291516373
 20
25.419557044995845
 10
6.560190916597538
 20
25.725214254119507
 10
6.594005817516125
 20
26.030133439990202
 10
6.635293625440237
 20
26.33413093069202
 10
6.684029470138233
 20
26.637023609503764
 10
6.740183994959619
 20
26.938629025201603
 10
6.803723374518393
 20
27.238765501960874
 10
6.8746093350682
 20
27.537252248790796
 10
6.952799177557001
 20
27.83390946843623
 10
7.0382458033473885
 20
28.128558465680776
 10
7.13089774258704
 20
28.42102175498614
 10
7.23069918521224
 20
28.71112316740275
 10
7.337590014565762
 20
28.998687956687352
 10
7.451505843608915
 20
29.28354290456362
 10
7.572378053705867
 20
29.56551642506237
 10
7.700133835956956
 20
29.84443866787852
 10
7.834696235056059
 20
30.12014162068258
 10
7.975984195645562
 20
30.392459210324972
 10
8.123912611141106
 20
30.6612274028723
 10
8.2783923749966
 20
30.92628430241527
 10
8.43933043437866
 20
31.18747024858871
 10
8.606629846218182
 20
31.444627912745023
 10
8.780189835605203
 20
31.697602392723066
 10
8.959905856491938
 20
31.946241306155414
 10
9.14566965466742
 20
32.190394882257834
 10
9.337369332965785
 20
32.42991605204556
 10
9.53488941866894
 20
32.664660536922206
 10
9.73811093306301
 20
32.89448693558773
 10
9.946911463106662
 20
33.11925680921333
 10
10.161165235168154
 20
33.338834764831844
 10
10.380743190786662
 20
33.553088536893334
 10
10.605513064412266
 20
33.76188906693699
 10
10.835339463077787
 20
33.965110581331054
 10
11.070083947954426
 20
34.16263066703421
 10
11.309605117742159
 20
34.35433034533257
 10
11.553758693844586
 20
34.540094143508064
 10
11.802397607276934
 20
34.7198101643948
 10
12.055372087254973
 20
34.89337015378182
 10
12.312529751411283
 20
35.06066956562134
 10
12.573715697584728
 20
35.2216076250034
 10
12.838772597127697
 20
35.37608738885889
 10
13.107540789675028
 20
35.524015804354434
 10
13.379858379317414
 20
35.66530376494394
 10
13.655561332121469
 20
35.79986616404304
 10
13.93448357493762
 20
35.92762194629413
 10
14.216457095436372
 20
36.04849415639108
 10
14.501312043312652
 20
36.16240998543424
 10
14.78887683259725
 20
36.26930081478776
 10
15.078978245013857
 20
36.36910225741296
 10
15.371441534319219
 20
36.461754196652606
 10
15.666090531563768
 20
36.547200822442996
 10
15.962747751209198
 20
36.6253906649318
 10
16.261234498039123
 20
36.6962766254816
 10
16.561370974798393
 20
36.75981600504038
 10
16.86297639049623
 20
36.815970529861765
 10
17.16586906930797
 20
36.86470637455976
 10
17.4698665600098
 20
36.90599418248388
 10
17.774785745880493
 20
36.939809083402466
 10
18.08044295500416
 20
36.966130708483625
 10
18.386654070907273
 20
36.98494320256465
 10
18.693234643463594
 20
36.99623523370255
 10
19.0
 20
37.0
 10
19.3067653565364
 20
36.99623523370255
 10
19.61334592909272
 20
36.98494320256465
 10
19.919557044995837
 20
36.966130708483625
 10
20.2252142541195
 20
36.939809083402466
 10
20.530133439990195
 20
36.90599418248388
 10
20.834130930692023
 20
36.86470637455976
 10
21.137023609503768
 20
36.815970529861765
 10
21.438629025201603
 20
36.75981600504038
 10
21.73876550196087
 20
36.69627662548161
 10
22.037252248790796
 20
36.6253906649318
 10
22.33390946843623
 20
36.547200822443
 10
22.628558465680776
 20
36.46175419665261
 10
22.92102175498614
 20
36.36910225741296
 10
23.211123167402747
 20
36.26930081478776
 10
23.498687956687345
 20
36.16240998543424
 10
23.783542904563625
 20
36.04849415639109
 10
24.065516425062377
 20
35.92762194629413
 10
24.344438667878528
 20
35.79986616404304
 10
24.62014162068258
 20
35.66530376494394
 10
24.89245921032497
 20
35.524015804354434
 10
25.1612274028723
 20
35.37608738885889
 10
25.42628430241527
 20
35.2216076250034
 10
25.68747024858871
 20
35.06066956562134
 10
25.944627912745023
 20
34.89337015378182
 10
26.197602392723063
 20
34.7198101643948
 10
26.44624130615541
 20
34.540094143508064
 10
26.690394882257838
 20
34.35433034533258
 10
26.92991605204557
 20
34.16263066703421
 10
27.16466053692221
 20
33.96511058133106
 10
27.39448693558773
 20
33.76188906693699
 10
27.619256809213333
 20
33.55308853689334
 10
27.838834764831844
 20
33.338834764831844
 10
28.053088536893334
 20
33.11925680921334
 10
28.261889066936988
 20
32.894486935587736
 10
28.465110581331054
 20
32.66466053692221
 10
28.662630667034207
 20
32.42991605204558
 10
28.854330345332574
 20
32.19039488225784
 10
29.040094143508064
 20
31.946241306155414
 10
29.219810164394797
 20
31.697602392723066
 10
29.393370153781817
 20
31.444627912745027
 10
29.56066956562134
 20
31.187470248588717
 10
29.7216076250034
 20
30.926284302415272
 10
29.876087388858892
 20
30.661227402872303
 10
30.024015804354434
 20
30.392459210324972
 10
30.16530376494394
 20
30.12014162068259
 10
30.29986616404304
 20
29.84443866787853
 10
30.42762194629413
 20
29.56551642506238
 10
30.54849415639108
 20
29.28354290456363
 10
30.662409985434238
 20
28.99868795668735
 10
30.769300814787762
 20
28.71112316740275
 10
30.86910225741296
 20
28.421021754986143
 10
30.96175419665261
 20
28.128558465680783
 10
31.047200822442996
 20
27.833909468436232
 10
31.1253906649318
 20
27.537252248790804
 10
31.196276625481605
 20
27.238765501960877
 10
31.259816005040378
 20
26.93862902520161
 10
31.315970529861765
 20
26.63702360950377
 10
31.36470637455976
 20
26.33413093069203
 10
31.405994182483873
 20
26.030133439990202
 10
31.439809083402462
 20
25.725214254119507
 10
31.466130708483625
 20
25.41955704499584
 10
31.484943202564654
 20
25.113345929092727
 10
31.496235233702553
 20
24.806765356536406
 10
31.5
 20
24.5
  0
TEXT
  5
91
330
17
100
AcDbEntity
  8
NOTAS
100
AcDbText
 10
-148.01443272026737
 20
-12.0
 30
0.0
 40
4.0
  1
01 Placa frontal (cara lisa) - Al6061-T6 15,9mm - cantidad 1 - MEDIDAS EN MILIMETROS
 11
-148.01443272026737
 21
-12.0
 31
0.0
100
AcDbText
  0
ENDSEC
  0
SECTION
  2
OBJECTS
  0
DICTIONARY
  5
A
330
0
100
AcDbDictionary
281
1
  3
ACAD_COLOR
350
B
  3
ACAD_GROUP
350
C
  3
ACAD_LAYOUT
350
D
  3
ACAD_MATERIAL
350
E
  3
ACAD_MLEADERSTYLE
350
F
  3
ACAD_MLINESTYLE
350
10
  3
ACAD_PLOTSETTINGS
350
11
  3
ACAD_PLOTSTYLENAME
350
12
  3
ACAD_SCALELIST
350
14
  3
ACAD_TABLESTYLE
350
15
  3
ACAD_VISUALSTYLE
350
16
  3
EZDXF_META
350
2D
  0
DICTIONARY
  5
B
330
A
100
AcDbDictionary
281
1
  0
DICTIONARY
  5
C
330
A
100
AcDbDictionary
281
1
  0
DICTIONARY
  5
D
330
A
100
AcDbDictionary
281
1
  3
Model
350
1A
  3
Layout1
350
1E
  0
DICTIONARY
  5
E
330
A
100
AcDbDictionary
281
1
  3
ByBlock
350
1F
  3
ByLayer
350
20
  3
Global
350
21
  0
DICTIONARY
  5
F
330
A
100
AcDbDictionary
281
1
  3
Standard
350
2C
  0
DICTIONARY
  5
10
330
A
100
AcDbDictionary
281
1
  3
Standard
350
22
  0
DICTIONARY
  5
11
330
A
100
AcDbDictionary
281
1
  0
ACDBDICTIONARYWDFLT
  5
12
330
A
100
AcDbDictionary
281
1
  3
Normal
350
13
100
AcDbDictionaryWithDefault
340
13
  0
ACDBPLACEHOLDER
  5
13
330
12
  0
DICTIONARY
  5
14
330
A
100
AcDbDictionary
281
1
  0
DICTIONARY
  5
15
330
A
100
AcDbDictionary
281
1
  0
DICTIONARY
  5
16
330
A
100
AcDbDictionary
281
1
  3
2dWireframe
350
5A
  3
Basic
350
5B
  3
Brighten
350
5C
  3
ColorChange
350
5D
  3
Conceptual
350
5E
  3
Dim
350
5F
  3
EdgeColorOff
350
60
  3
Facepattern
350
61
  3
Flat
350
62
  3
FlatWithEdges
350
63
  3
Gouraud
350
64
  3
GouraudWithEdges
350
65
  3
Hidden
350
66
  3
JitterOff
350
67
  3
Linepattern
350
68
  3
Modeling
350
69
  3
OverhangOff
350
6A
  3
Realistic
350
6B
  3
Shaded
350
6C
  3
Shaded with edges
350
6D
  3
Shades of Gray
350
6E
  3
Sketchy
350
6F
  3
Thicken
350
70
  3
Wireframe
350
71
  3
X-Ray
350
72
  0
LAYOUT
  5
1A
330
D
100
AcDbPlotSettings
  1

  4
A3
  6

 40
7.5
 41
20.0
 42
7.5
 43
20.0
 44
420.0
 45
297.0
 46
0.0
 47
0.0
 48
0.0
 49
0.0
140
0.0
141
0.0
142
1.0
143
1.0
 70
1024
 72
1
 73
0
 74
5
  7

 75
16
 76
0
 77
2
 78
300
147
1.0
148
0.0
149
0.0
100
AcDbLayout
  1
Model
 70
1
 71
0
 10
0.0
 20
0.0
 11
420.0
 21
297.0
 12
0.0
 22
0.0
 32
0.0
 14
1e+20
 24
1e+20
 34
1e+20
 15
-1e+20
 25
-1e+20
 35
-1e+20
146
0.0
 13
0.0
 23
0.0
 33
0.0
 16
1.0
 26
0.0
 36
0.0
 17
0.0
 27
1.0
 37
0.0
 76
1
330
17
  0
LAYOUT
  5
1E
330
D
100
AcDbPlotSettings
  1

  4
A3
  6

 40
7.5
 41
20.0
 42
7.5
 43
20.0
 44
420.0
 45
297.0
 46
0.0
 47
0.0
 48
0.0
 49
0.0
140
0.0
141
0.0
142
1.0
143
1.0
 70
0
 72
1
 73
0
 74
5
  7

 75
16
 76
0
 77
2
 78
300
147
1.0
148
0.0
149
0.0
100
AcDbLayout
  1
Layout1
 70
1
 71
1
 10
0.0
 20
0.0
 11
420.0
 21
297.0
 12
0.0
 22
0.0
 32
0.0
 14
1e+20
 24
1e+20
 34
1e+20
 15
-1e+20
 25
-1e+20
 35
-1e+20
146
0.0
 13
0.0
 23
0.0
 33
0.0
 16
1.0
 26
0.0
 36
0.0
 17
0.0
 27
1.0
 37
0.0
 76
1
330
1B
  0
MATERIAL
  5
1F
102
{ACAD_REACTORS
330
E
102
}
330
E
100
AcDbMaterial
  1
ByBlock
  2

 70
0
 40
1.0
 71
1
 41
1.0
 91
-1023410177
 42
1.0
 72
1
  3

 73
1
 74
1
 75
1
 44
0.5
 73
0
 45
1.0
 46
1.0
 77
1
  4

 78
1
 79
1
170
1
 48
1.0
171
1
  6

172
1
173
1
174
1
140
1.0
141
1.0
175
1
  7

176
1
177
1
178
1
143
1.0
179
1
  8

270
1
271
1
272
1
145
1.0
146
1.0
273
1
  9

274
1
275
1
276
1
 42
1.0
 72
1
  3

 73
1
 74
1
 75
1
 94
63
  0
MATERIAL
  5
20
102
{ACAD_REACTORS
330
E
102
}
330
E
100
AcDbMaterial
  1
ByLayer
  2

 70
0
 40
1.0
 71
1
 41
1.0
 91
-1023410177
 42
1.0
 72
1
  3

 73
1
 74
1
 75
1
 44
0.5
 73
0
 45
1.0
 46
1.0
 77
1
  4

 78
1
 79
1
170
1
 48
1.0
171
1
  6

172
1
173
1
174
1
140
1.0
141
1.0
175
1
  7

176
1
177
1
178
1
143
1.0
179
1
  8

270
1
271
1
272
1
145
1.0
146
1.0
273
1
  9

274
1
275
1
276
1
 42
1.0
 72
1
  3

 73
1
 74
1
 75
1
 94
63
  0
MATERIAL
  5
21
102
{ACAD_REACTORS
330
E
102
}
330
E
100
AcDbMaterial
  1
Global
  2

 70
0
 40
1.0
 71
1
 41
1.0
 91
-1023410177
 42
1.0
 72
1
  3

 73
1
 74
1
 75
1
 44
0.5
 73
0
 45
1.0
 46
1.0
 77
1
  4

 78
1
 79
1
170
1
 48
1.0
171
1
  6

172
1
173
1
174
1
140
1.0
141
1.0
175
1
  7

176
1
177
1
178
1
143
1.0
179
1
  8

270
1
271
1
272
1
145
1.0
146
1.0
273
1
  9

274
1
275
1
276
1
 42
1.0
 72
1
  3

 73
1
 74
1
 75
1
 94
63
  0
MLINESTYLE
  5
22
102
{ACAD_REACTORS
330
10
102
}
330
10
100
AcDbMlineStyle
  2
Standard
 70
0
  3

 62
256
 51
90.0
 52
90.0
 71
2
 49
0.5
 62
256
  6
BYLAYER
 49
-0.5
 62
256
  6
BYLAYER
  0
MLEADERSTYLE
  5
2C
102
{ACAD_REACTORS
330
F
102
}
330
F
100
AcDbMLeaderStyle
179
2
170
2
171
1
172
0
 90
2
 40
0.0
 41
0.0
173
1
 91
-1056964608
 92
-2
290
1
 42
2.0
291
1
 43
8.0
  3
Standard
 44
4.0
300

342
29
174
1
175
1
176
0
178
1
 93
-1056964608
 45
4.0
292
0
297
0
 46
4.0
 94
-1056964608
 47
1.0
 49
1.0
140
1.0
294
1
141
0.0
177
0
142
1.0
295
0
296
0
143
3.75
271
0
272
9
273
9
  0
DICTIONARY
  5
2D
330
A
100
AcDbDictionary
280
1
281
1
  3
CREATED_BY_EZDXF
350
2E
  3
WRITTEN_BY_EZDXF
350
94
  0
DICTIONARYVAR
  5
2E
330
2D
100
DictionaryVariables
280
0
  1
1.4.4 @ 2026-09-26T10:04:57.387909+00:00
  0
VISUALSTYLE
  5
5A
102
{ACAD_REACTORS
330
16
102
}
330
16
100
AcDbVisualStyle
  2
2dWireframe
 70
4
 90
0
 40
0.6
 62
7
290
0
291
0
  0
VISUALSTYLE
  5
5B
102
{ACAD_REACTORS
330
16
102
}
330
16
100
AcDbVisualStyle
  2
Basic
 70
7
 90
1
 40
0.6
 62
7
290
0
291
1
  0
VISUALSTYLE
  5
5C
102
{ACAD_REACTORS
330
16
102
}
330
16
100
AcDbVisualStyle
  2
Brighten
 70
12
 90
2
 40
0.6
 62
7
290
0
291
1
  0
VISUALSTYLE
  5
5D
102
{ACAD_REACTORS
330
16
102
}
330
16
100
AcDbVisualStyle
  2
ColorChange
 70
16
 90
2
 40
0.6
 62
8
290
0
291
1
  0
VISUALSTYLE
  5
5E
102
{ACAD_REACTORS
330
16
102
}
330
16
100
AcDbVisualStyle
  2
Conceptual
 70
9
 90
3
 40
0.6
 62
7
290
0
291
0
  0
VISUALSTYLE
  5
5F
102
{ACAD_REACTORS
330
16
102
}
330
16
100
AcDbVisualStyle
  2
Dim
 70
11
 90
2
 40
0.6
 62
7
290
0
291
1
  0
VISUALSTYLE
  5
60
102
{ACAD_REACTORS
330
16
102
}
330
16
100
AcDbVisualStyle
  2
EdgeColorOff
 70
22
 90
2
 40
0.6
 62
7
290
0
291
1
  0
VISUALSTYLE
  5
61
102
{ACAD_REACTORS
330
16
102
}
330
16
100
AcDbVisualStyle
  2
Facepattern
 70
15
 90
2
 40
0.6
 62
7
290
0
291
1
  0
VISUALSTYLE
  5
62
102
{ACAD_REACTORS
330
16
102
}
330
16
100
AcDbVisualStyle
  2
Flat
 70
0
 90
2
 40
0.6
 62
7
290
0
291
1
  0
VISUALSTYLE
  5
63
102
{ACAD_REACTORS
330
16
102
}
330
16
100
AcDbVisualStyle
  2
FlatWithEdges
 70
1
 90
2
 40
0.6
 62
7
290
0
291
1
  0
VISUALSTYLE
  5
64
102
{ACAD_REACTORS
330
16
102
}
330
16
100
AcDbVisualStyle
  2
Gouraud
 70
2
 90
2
 40
0.6
 62
7
290
0
291
1
  0
VISUALSTYLE
  5
65
102
{ACAD_REACTORS
330
16
102
}
330
16
100
AcDbVisualStyle
  2
GouraudWithEdges
 70
3
 90
2
 40
0.6
 62
7
290
0
291
1
  0
VISUALSTYLE
  5
66
102
{ACAD_REACTORS
330
16
102
}
330
16
100
AcDbVisualStyle
  2
Hidden
 70
6
 90
1
 40
0.6
 62
7
290
0
291
0
  0
VISUALSTYLE
  5
67
102
{ACAD_REACTORS
330
16
102
}
330
16
100
AcDbVisualStyle
  2
JitterOff
 70
20
 90
2
 40
0.6
 62
7
290
0
291
1
  0
VISUALSTYLE
  5
68
102
{ACAD_REACTORS
330
16
102
}
330
16
100
AcDbVisualStyle
  2
Linepattern
 70
14
 90
2
 40
0.6
 62
7
290
0
291
1
  0
VISUALSTYLE
  5
69
102
{ACAD_REACTORS
330
16
102
}
330
16
100
AcDbVisualStyle
  2
Modeling
 70
10
 90
2
 40
0.6
 62
7
290
0
291
0
  0
VISUALSTYLE
  5
6A
102
{ACAD_REACTORS
330
16
102
}
330
16
100
AcDbVisualStyle
  2
OverhangOff
 70
21
 90
2
 40
0.6
 62
7
290
0
291
1
  0
VISUALSTYLE
  5
6B
102
{ACAD_REACTORS
330
16
102
}
330
16
100
AcDbVisualStyle
  2
Realistic
 70
8
 90
2
 40
0.6
 62
7
290
0
291
0
  0
VISUALSTYLE
  5
6C
102
{ACAD_REACTORS
330
16
102
}
330
16
100
AcDbVisualStyle
  2
Shaded
 70
27
 90
2
 40
0.6
 62
7
290
0
291
0
  0
VISUALSTYLE
  5
6D
102
{ACAD_REACTORS
330
16
102
}
330
16
100
AcDbVisualStyle
  2
Shaded with edges
 70
26
 90
2
 40
0.6
 62
7
290
0
291
0
  0
VISUALSTYLE
  5
6E
102
{ACAD_REACTORS
330
16
102
}
330
16
100
AcDbVisualStyle
  2
Shades of Gray
 70
23
 90
2
 40
0.6
 62
7
290
0
291
0
  0
VISUALSTYLE
  5
6F
102
{ACAD_REACTORS
330
16
102
}
330
16
100
AcDbVisualStyle
  2
Sketchy
 70
24
 90
1
 40
0.6
 62
7
290
0
291
0
  0
VISUALSTYLE
  5
70
102
{ACAD_REACTORS
330
16
102
}
330
16
100
AcDbVisualStyle
  2
Thicken
 70
13
 90
2
 40
0.6
 62
7
290
0
291
1
  0
VISUALSTYLE
  5
71
102
{ACAD_REACTORS
330
16
102
}
330
16
100
AcDbVisualStyle
  2
Wireframe
 70
5
 90
0
 40
0.6
 62
7
290
0
291
0
  0
VISUALSTYLE
  5
72
102
{ACAD_REACTORS
330
16
102
}
330
16
100
AcDbVisualStyle
  2
X-Ray
 70
25
 90
2
 40
0.5
 62
7
290
0
291
0
  0
DICTIONARYVAR
  5
94
330
2D
100
DictionaryVariables
280
0
  1
1.4.4 @ 2026-09-26T10:04:57.394323+00:00
  0
ENDSEC
  0
EOF
