ISO-10303-21;
HEADER;
FILE_DESCRIPTION(('Open CASCADE Model'),'2;1');
FILE_NAME('Open CASCADE Shape Model','2026-09-24T23:07:39',('Author'),(
    'Open CASCADE'),'Open CASCADE STEP processor 7.9','Open CASCADE 7.9'
  ,'Unknown');
FILE_SCHEMA(('AUTOMOTIVE_DESIGN { 1 0 10303 214 1 1 1 1 }'));
ENDSEC;
DATA;
#1 = APPLICATION_PROTOCOL_DEFINITION('international standard',
  'automotive_design',2000,#2);
#2 = APPLICATION_CONTEXT(
  'core data for automotive mechanical design processes');
#3 = SHAPE_DEFINITION_REPRESENTATION(#4,#10);
#4 = PRODUCT_DEFINITION_SHAPE('','',#5);
#5 = PRODUCT_DEFINITION('design','',#6,#9);
#6 = PRODUCT_DEFINITION_FORMATION('','',#7);
#7 = PRODUCT('Open CASCADE STEP translator 7.9 4',
  'Open CASCADE STEP translator 7.9 4','',(#8));
#8 = PRODUCT_CONTEXT('',#2,'mechanical');
#9 = PRODUCT_DEFINITION_CONTEXT('part definition',#2,'design');
#10 = ADVANCED_BREP_SHAPE_REPRESENTATION('',(#11,#15),#1047);
#11 = AXIS2_PLACEMENT_3D('',#12,#13,#14);
#12 = CARTESIAN_POINT('',(0.,0.,0.));
#13 = DIRECTION('',(0.,0.,1.));
#14 = DIRECTION('',(1.,0.,-0.));
#15 = MANIFOLD_SOLID_BREP('',#16);
#16 = CLOSED_SHELL('',(#17,#885,#935,#962,#1012,#1039,#1043));
#17 = ADVANCED_FACE('',(#18,#105,#300,#495,#690),#31,.T.);
#18 = FACE_BOUND('',#19,.F.);
#19 = EDGE_LOOP('',(#20,#54,#77,#104));
#20 = ORIENTED_EDGE('',*,*,#21,.T.);
#21 = EDGE_CURVE('',#22,#22,#24,.T.);
#22 = VERTEX_POINT('',#23);
#23 = CARTESIAN_POINT('',(12.7,-36.225,0.));
#24 = SURFACE_CURVE('',#25,(#30,#42),.PCURVE_S1.);
#25 = CIRCLE('',#26,12.7);
#26 = AXIS2_PLACEMENT_3D('',#27,#28,#29);
#27 = CARTESIAN_POINT('',(0.,-36.225,0.));
#28 = DIRECTION('',(0.,-1.,0.));
#29 = DIRECTION('',(1.,0.,0.));
#30 = PCURVE('',#31,#36);
#31 = CYLINDRICAL_SURFACE('',#32,12.7);
#32 = AXIS2_PLACEMENT_3D('',#33,#34,#35);
#33 = CARTESIAN_POINT('',(0.,0.,0.));
#34 = DIRECTION('',(-0.,1.,-0.));
#35 = DIRECTION('',(1.,0.,0.));
#36 = DEFINITIONAL_REPRESENTATION('',(#37),#41);
#37 = LINE('',#38,#39);
#38 = CARTESIAN_POINT('',(-0.,-36.225));
#39 = VECTOR('',#40,1.);
#40 = DIRECTION('',(-1.,0.));
#41 = ( GEOMETRIC_REPRESENTATION_CONTEXT(2) 
PARAMETRIC_REPRESENTATION_CONTEXT() REPRESENTATION_CONTEXT('2D SPACE',''
  ) );
#42 = PCURVE('',#43,#48);
#43 = PLANE('',#44);
#44 = AXIS2_PLACEMENT_3D('',#45,#46,#47);
#45 = CARTESIAN_POINT('',(0.,-36.225,1.204325410458E-15));
#46 = DIRECTION('',(-0.,-1.,-0.));
#47 = DIRECTION('',(0.,0.,-1.));
#48 = DEFINITIONAL_REPRESENTATION('',(#49),#53);
#49 = CIRCLE('',#50,12.7);
#50 = AXIS2_PLACEMENT_2D('',#51,#52);
#51 = CARTESIAN_POINT('',(1.204325410458E-15,0.));
#52 = DIRECTION('',(0.,1.));
#53 = ( GEOMETRIC_REPRESENTATION_CONTEXT(2) 
PARAMETRIC_REPRESENTATION_CONTEXT() REPRESENTATION_CONTEXT('2D SPACE',''
  ) );
#54 = ORIENTED_EDGE('',*,*,#55,.F.);
#55 = EDGE_CURVE('',#56,#22,#58,.T.);
#56 = VERTEX_POINT('',#57);
#57 = CARTESIAN_POINT('',(12.7,36.225,0.));
#58 = SEAM_CURVE('',#59,(#63,#70),.PCURVE_S1.);
#59 = LINE('',#60,#61);
#60 = CARTESIAN_POINT('',(12.7,36.225,0.));
#61 = VECTOR('',#62,1.);
#62 = DIRECTION('',(0.,-1.,0.));
#63 = PCURVE('',#31,#64);
#64 = DEFINITIONAL_REPRESENTATION('',(#65),#69);
#65 = LINE('',#66,#67);
#66 = CARTESIAN_POINT('',(-6.28318530718,36.225));
#67 = VECTOR('',#68,1.);
#68 = DIRECTION('',(-0.,-1.));
#69 = ( GEOMETRIC_REPRESENTATION_CONTEXT(2) 
PARAMETRIC_REPRESENTATION_CONTEXT() REPRESENTATION_CONTEXT('2D SPACE',''
  ) );
#70 = PCURVE('',#31,#71);
#71 = DEFINITIONAL_REPRESENTATION('',(#72),#76);
#72 = LINE('',#73,#74);
#73 = CARTESIAN_POINT('',(-0.,36.225));
#74 = VECTOR('',#75,1.);
#75 = DIRECTION('',(-0.,-1.));
#76 = ( GEOMETRIC_REPRESENTATION_CONTEXT(2) 
PARAMETRIC_REPRESENTATION_CONTEXT() REPRESENTATION_CONTEXT('2D SPACE',''
  ) );
#77 = ORIENTED_EDGE('',*,*,#78,.F.);
#78 = EDGE_CURVE('',#56,#56,#79,.T.);
#79 = SURFACE_CURVE('',#80,(#85,#92),.PCURVE_S1.);
#80 = CIRCLE('',#81,12.7);
#81 = AXIS2_PLACEMENT_3D('',#82,#83,#84);
#82 = CARTESIAN_POINT('',(0.,36.225,0.));
#83 = DIRECTION('',(0.,-1.,0.));
#84 = DIRECTION('',(1.,0.,0.));
#85 = PCURVE('',#31,#86);
#86 = DEFINITIONAL_REPRESENTATION('',(#87),#91);
#87 = LINE('',#88,#89);
#88 = CARTESIAN_POINT('',(0.,36.225));
#89 = VECTOR('',#90,1.);
#90 = DIRECTION('',(-1.,-0.));
#91 = ( GEOMETRIC_REPRESENTATION_CONTEXT(2) 
PARAMETRIC_REPRESENTATION_CONTEXT() REPRESENTATION_CONTEXT('2D SPACE',''
  ) );
#92 = PCURVE('',#93,#98);
#93 = PLANE('',#94);
#94 = AXIS2_PLACEMENT_3D('',#95,#96,#97);
#95 = CARTESIAN_POINT('',(0.,36.225,1.204325410458E-15));
#96 = DIRECTION('',(-0.,-1.,-0.));
#97 = DIRECTION('',(0.,0.,-1.));
#98 = DEFINITIONAL_REPRESENTATION('',(#99),#103);
#99 = CIRCLE('',#100,12.7);
#100 = AXIS2_PLACEMENT_2D('',#101,#102);
#101 = CARTESIAN_POINT('',(1.204325410458E-15,0.));
#102 = DIRECTION('',(0.,1.));
#103 = ( GEOMETRIC_REPRESENTATION_CONTEXT(2) 
PARAMETRIC_REPRESENTATION_CONTEXT() REPRESENTATION_CONTEXT('2D SPACE',''
  ) );
#104 = ORIENTED_EDGE('',*,*,#55,.T.);
#105 = FACE_BOUND('',#106,.F.);
#106 = EDGE_LOOP('',(#107));
#107 = ORIENTED_EDGE('',*,*,#108,.T.);
#108 = EDGE_CURVE('',#109,#109,#111,.T.);
#109 = VERTEX_POINT('',#110);
#110 = CARTESIAN_POINT('',(2.6,-29.225,12.43100961306));
#111 = SURFACE_CURVE('',#112,(#171,#233),.PCURVE_S1.);
#112 = B_SPLINE_CURVE_WITH_KNOTS('',8,(#113,#114,#115,#116,#117,#118,
    #119,#120,#121,#122,#123,#124,#125,#126,#127,#128,#129,#130,#131,
    #132,#133,#134,#135,#136,#137,#138,#139,#140,#141,#142,#143,#144,
    #145,#146,#147,#148,#149,#150,#151,#152,#153,#154,#155,#156,#157,
    #158,#159,#160,#161,#162,#163,#164,#165,#166,#167,#168,#169,#170),
  .UNSPECIFIED.,.T.,.F.,(9,7,7,7,7,7,7,7,9),(0.,0.181561742836,
    0.336006069395,0.443054996509,0.55982210468,0.681201150845,
    0.77991105234,0.878620953834,1.),.UNSPECIFIED.);
#113 = CARTESIAN_POINT('',(2.6,-29.225,12.43100961306));
#114 = CARTESIAN_POINT('',(2.6,-28.96281045961,12.43100961306));
#115 = CARTESIAN_POINT('',(2.569782881066,-28.70105478475,
    12.437329420188));
#116 = CARTESIAN_POINT('',(2.509525397667,-28.44167086839,
    12.449933428228));
#117 = CARTESIAN_POINT('',(2.418680876421,-28.18674188273,
    12.468503403366));
#118 = CARTESIAN_POINT('',(2.296195944994,-27.93888933887,
    12.492416925734));
#119 = CARTESIAN_POINT('',(2.140638417279,-27.70154349496,
    12.520612507732));
#120 = CARTESIAN_POINT('',(1.950397678186,-27.47933754931,
    12.551418738668));
#121 = CARTESIAN_POINT('',(1.531636336624,-27.1083473736,12.608799915948
    ));
#122 = CARTESIAN_POINT('',(1.305689964084,-26.94700889772,
    12.636332052235));
#123 = CARTESIAN_POINT('',(1.048730838124,-26.80705597279,
    12.662627925549));
#124 = CARTESIAN_POINT('',(0.765775981701,-26.69798857219,
    12.684716438559));
#125 = CARTESIAN_POINT('',(0.463962929058,-26.62666580104,
    12.699697421297));
#126 = CARTESIAN_POINT('',(0.151671345881,-26.59730756297,
    12.705784511349));
#127 = CARTESIAN_POINT('',(-0.162132661993,-26.61141445468,
    12.702669091139));
#128 = CARTESIAN_POINT('',(-0.681126418059,-26.7065235903,
    12.683503814851));
#129 = CARTESIAN_POINT('',(-0.889875608388,-26.76562834537,
    12.671724872326));
#130 = CARTESIAN_POINT('',(-1.092678258565,-26.84448679899,
    12.656333508862));
#131 = CARTESIAN_POINT('',(-1.287373673479,-26.94239203699,
    12.637877039298));
#132 = CARTESIAN_POINT('',(-1.471900908133,-27.05835985281,12.6170994081
    ));
#133 = CARTESIAN_POINT('',(-1.644333191013,-27.19114093207,
    12.594889949661));
#134 = CARTESIAN_POINT('',(-1.802918736348,-27.33923130815,
    12.572210866749));
#135 = CARTESIAN_POINT('',(-2.102338059975,-27.67720585805,
    12.525779938149));
#136 = CARTESIAN_POINT('',(-2.240358555396,-27.8697828774,
    12.502101591098));
#137 = CARTESIAN_POINT('',(-2.358132675405,-28.07634441383,
    12.480197001375));
#138 = CARTESIAN_POINT('',(-2.454020119929,-28.29435758253,
    12.461261996252));
#139 = CARTESIAN_POINT('',(-2.526784757529,-28.52109974367,
    12.446322768725));
#140 = CARTESIAN_POINT('',(-2.575589458313,-28.75373020631,
    12.436115221669));
#141 = CARTESIAN_POINT('',(-2.6,-28.98934481567,12.43100961306));
#142 = CARTESIAN_POINT('',(-2.6,-29.46996283195,12.43100961306));
#143 = CARTESIAN_POINT('',(-2.573624294753,-29.71460702029,
    12.436526140861));
#144 = CARTESIAN_POINT('',(-2.52098753958,-29.95732252333,12.4475356143)
  );
#145 = CARTESIAN_POINT('',(-2.441696146761,-30.19635751125,
    12.463792236485));
#146 = CARTESIAN_POINT('',(-2.334955436101,-30.42962557465,
    12.484816372603));
#147 = CARTESIAN_POINT('',(-2.199670418784,-30.65447446457,
    12.509808466046));
#148 = CARTESIAN_POINT('',(-2.034581655659,-30.86737360651,
    12.537533945198));
#149 = CARTESIAN_POINT('',(-1.678998630715,-31.22295663145,
    12.589556844645));
#150 = CARTESIAN_POINT('',(-1.495633623697,-31.3747017539,
    12.614020924416));
#151 = CARTESIAN_POINT('',(-1.288979813457,-31.5125064348,
    12.638309562306));
#152 = CARTESIAN_POINT('',(-1.060813525294,-31.63086183357,
    12.660748314039));
#153 = CARTESIAN_POINT('',(-0.81390823428,-31.72497922742,
    12.679524104958));
#154 = CARTESIAN_POINT('',(-0.551859067859,-31.79079982306,
    12.69299813162));
#155 = CARTESIAN_POINT('',(-0.278937505777,-31.825,12.7));
#156 = CARTESIAN_POINT('',(0.278937505777,-31.825,12.7));
#157 = CARTESIAN_POINT('',(0.551859067859,-31.79079982306,12.69299813162
    ));
#158 = CARTESIAN_POINT('',(0.81390823428,-31.72497922742,12.679524104958
    ));
#159 = CARTESIAN_POINT('',(1.060813525294,-31.63086183357,
    12.660748314039));
#160 = CARTESIAN_POINT('',(1.288979813457,-31.5125064348,12.638309562306
    ));
#161 = CARTESIAN_POINT('',(1.495633623697,-31.3747017539,12.614020924416
    ));
#162 = CARTESIAN_POINT('',(1.678998630715,-31.22295663145,
    12.589556844645));
#163 = CARTESIAN_POINT('',(2.034581655659,-30.86737360651,
    12.537533945198));
#164 = CARTESIAN_POINT('',(2.199670418784,-30.65447446457,
    12.509808466046));
#165 = CARTESIAN_POINT('',(2.334955436101,-30.42962557465,
    12.484816372603));
#166 = CARTESIAN_POINT('',(2.441696146761,-30.19635751125,
    12.463792236485));
#167 = CARTESIAN_POINT('',(2.52098753958,-29.95732252333,12.4475356143)
  );
#168 = CARTESIAN_POINT('',(2.573624294753,-29.71460702029,
    12.436526140861));
#169 = CARTESIAN_POINT('',(2.6,-29.46996283195,12.43100961306));
#170 = CARTESIAN_POINT('',(2.6,-29.225,12.43100961306));
#171 = PCURVE('',#31,#172);
#172 = DEFINITIONAL_REPRESENTATION('',(#173),#232);
#173 = B_SPLINE_CURVE_WITH_KNOTS('',8,(#174,#175,#176,#177,#178,#179,
    #180,#181,#182,#183,#184,#185,#186,#187,#188,#189,#190,#191,#192,
    #193,#194,#195,#196,#197,#198,#199,#200,#201,#202,#203,#204,#205,
    #206,#207,#208,#209,#210,#211,#212,#213,#214,#215,#216,#217,#218,
    #219,#220,#221,#222,#223,#224,#225,#226,#227,#228,#229,#230,#231),
  .UNSPECIFIED.,.T.,.F.,(9,7,7,7,7,7,7,7,9),(0.,0.181561742836,
    0.336006069395,0.443054996509,0.55982210468,0.681201150845,
    0.77991105234,0.878620953834,1.),.UNSPECIFIED.);
#174 = CARTESIAN_POINT('',(-1.36461418179,-29.225));
#175 = CARTESIAN_POINT('',(-1.36461418179,-28.96281045961));
#176 = CARTESIAN_POINT('',(-1.367044962554,-28.70105478475));
#177 = CARTESIAN_POINT('',(-1.371892335701,-28.44167086839));
#178 = CARTESIAN_POINT('',(-1.379193270536,-28.18674188273));
#179 = CARTESIAN_POINT('',(-1.389019011447,-27.93888933887));
#180 = CARTESIAN_POINT('',(-1.401464504068,-27.70154349496));
#181 = CARTESIAN_POINT('',(-1.416634715301,-27.47933754931));
#182 = CARTESIAN_POINT('',(-1.449916165264,-27.1083473736));
#183 = CARTESIAN_POINT('',(-1.467836812875,-26.94700889772));
#184 = CARTESIAN_POINT('',(-1.488169068383,-26.80705597279));
#185 = CARTESIAN_POINT('',(-1.51050300074,-26.69798857219));
#186 = CARTESIAN_POINT('',(-1.534276449745,-26.62666580104));
#187 = CARTESIAN_POINT('',(-1.558853415212,-26.59730756297));
#188 = CARTESIAN_POINT('',(-1.583554607737,-26.61141445468));
#189 = CARTESIAN_POINT('',(-1.624448111742,-26.7065235903));
#190 = CARTESIAN_POINT('',(-1.640908094743,-26.76562834537));
#191 = CARTESIAN_POINT('',(-1.65691777808,-26.84448679899));
#192 = CARTESIAN_POINT('',(-1.672311777162,-26.94239203699));
#193 = CARTESIAN_POINT('',(-1.686929371282,-27.05835985281));
#194 = CARTESIAN_POINT('',(-1.700616588292,-27.19114093207));
#195 = CARTESIAN_POINT('',(-1.713229810153,-27.33923130815));
#196 = CARTESIAN_POINT('',(-1.737087917074,-27.67720585805));
#197 = CARTESIAN_POINT('',(-1.748113018047,-27.8697828774));
#198 = CARTESIAN_POINT('',(-1.757544288416,-28.07634441383));
#199 = CARTESIAN_POINT('',(-1.765239766636,-28.29435758253));
#200 = CARTESIAN_POINT('',(-1.771088755899,-28.52109974367));
#201 = CARTESIAN_POINT('',(-1.775014787557,-28.75373020631));
#202 = CARTESIAN_POINT('',(-1.7769784718,-28.98934481567));
#203 = CARTESIAN_POINT('',(-1.7769784718,-29.46996283195));
#204 = CARTESIAN_POINT('',(-1.774856707543,-29.71460702029));
#205 = CARTESIAN_POINT('',(-1.770622385092,-29.95732252333));
#206 = CARTESIAN_POINT('',(-1.764249166097,-30.19635751125));
#207 = CARTESIAN_POINT('',(-1.755683464565,-30.42962557465));
#208 = CARTESIAN_POINT('',(-1.744852644796,-30.65447446457));
#209 = CARTESIAN_POINT('',(-1.731674423593,-30.86737360651));
#210 = CARTESIAN_POINT('',(-1.703377696688,-31.22295663145));
#211 = CARTESIAN_POINT('',(-1.688812749671,-31.3747017539));
#212 = CARTESIAN_POINT('',(-1.672432169923,-31.5125064348));
#213 = CARTESIAN_POINT('',(-1.654386681311,-31.63086183357));
#214 = CARTESIAN_POINT('',(-1.634899681804,-31.72497922742));
#215 = CARTESIAN_POINT('',(-1.614249812875,-31.79079982306));
#216 = CARTESIAN_POINT('',(-1.592759909927,-31.825));
#217 = CARTESIAN_POINT('',(-1.548832743663,-31.825));
#218 = CARTESIAN_POINT('',(-1.527342840715,-31.79079982306));
#219 = CARTESIAN_POINT('',(-1.506692971786,-31.72497922742));
#220 = CARTESIAN_POINT('',(-1.487205972279,-31.63086183357));
#221 = CARTESIAN_POINT('',(-1.469160483667,-31.5125064348));
#222 = CARTESIAN_POINT('',(-1.452779903918,-31.3747017539));
#223 = CARTESIAN_POINT('',(-1.438214956902,-31.22295663145));
#224 = CARTESIAN_POINT('',(-1.409918229997,-30.86737360651));
#225 = CARTESIAN_POINT('',(-1.396740008794,-30.65447446457));
#226 = CARTESIAN_POINT('',(-1.385909189025,-30.42962557465));
#227 = CARTESIAN_POINT('',(-1.377343487492,-30.19635751125));
#228 = CARTESIAN_POINT('',(-1.370970268498,-29.95732252333));
#229 = CARTESIAN_POINT('',(-1.366735946047,-29.71460702029));
#230 = CARTESIAN_POINT('',(-1.36461418179,-29.46996283195));
#231 = CARTESIAN_POINT('',(-1.36461418179,-29.225));
#232 = ( GEOMETRIC_REPRESENTATION_CONTEXT(2) 
PARAMETRIC_REPRESENTATION_CONTEXT() REPRESENTATION_CONTEXT('2D SPACE',''
  ) );
#233 = PCURVE('',#234,#239);
#234 = CYLINDRICAL_SURFACE('',#235,2.6);
#235 = AXIS2_PLACEMENT_3D('',#236,#237,#238);
#236 = CARTESIAN_POINT('',(0.,-29.225,0.));
#237 = DIRECTION('',(-0.,-0.,-1.));
#238 = DIRECTION('',(1.,0.,0.));
#239 = DEFINITIONAL_REPRESENTATION('',(#240),#299);
#240 = B_SPLINE_CURVE_WITH_KNOTS('',8,(#241,#242,#243,#244,#245,#246,
    #247,#248,#249,#250,#251,#252,#253,#254,#255,#256,#257,#258,#259,
    #260,#261,#262,#263,#264,#265,#266,#267,#268,#269,#270,#271,#272,
    #273,#274,#275,#276,#277,#278,#279,#280,#281,#282,#283,#284,#285,
    #286,#287,#288,#289,#290,#291,#292,#293,#294,#295,#296,#297,#298),
  .UNSPECIFIED.,.F.,.F.,(9,7,7,7,7,7,7,7,9),(0.,0.181561742836,
    0.336006069395,0.443054996509,0.55982210468,0.681201150845,
    0.77991105234,0.878620953834,1.),.UNSPECIFIED.);
#241 = CARTESIAN_POINT('',(0.,-12.43100961306));
#242 = CARTESIAN_POINT('',(-0.100842130919,-12.43100961306));
#243 = CARTESIAN_POINT('',(-0.201517074024,-12.43732942018));
#244 = CARTESIAN_POINT('',(-0.302843910261,-12.44993342822));
#245 = CARTESIAN_POINT('',(-0.405558208365,-12.46850340336));
#246 = CARTESIAN_POINT('',(-0.510390085707,-12.49241692573));
#247 = CARTESIAN_POINT('',(-0.618100423381,-12.52061250773));
#248 = CARTESIAN_POINT('',(-0.729542137258,-12.55141873866));
#249 = CARTESIAN_POINT('',(-0.944718812864,-12.60879991594));
#250 = CARTESIAN_POINT('',(-1.05091529026,-12.63633205223));
#251 = CARTESIAN_POINT('',(-1.162058903307,-12.66262792554));
#252 = CARTESIAN_POINT('',(-1.276675307899,-12.68471643855));
#253 = CARTESIAN_POINT('',(-1.393755142298,-12.69969742129));
#254 = CARTESIAN_POINT('',(-1.512487342752,-12.70578451134));
#255 = CARTESIAN_POINT('',(-1.632182423195,-12.70266909113));
#256 = CARTESIAN_POINT('',(-1.835119535074,-12.68350381485));
#257 = CARTESIAN_POINT('',(-1.918190077888,-12.67172487232));
#258 = CARTESIAN_POINT('',(-2.001254714182,-12.65633350886));
#259 = CARTESIAN_POINT('',(-2.084318998675,-12.63787703929));
#260 = CARTESIAN_POINT('',(-2.16738906848,-12.6170994081));
#261 = CARTESIAN_POINT('',(-2.250467287137,-12.59488994966));
#262 = CARTESIAN_POINT('',(-2.33354747608,-12.57221086674));
#263 = CARTESIAN_POINT('',(-2.507212599548,-12.52577993814));
#264 = CARTESIAN_POINT('',(-2.597855114763,-12.50210159109));
#265 = CARTESIAN_POINT('',(-2.688493088602,-12.48019700137));
#266 = CARTESIAN_POINT('',(-2.779116578365,-12.46126199625));
#267 = CARTESIAN_POINT('',(-2.869727223829,-12.44632276872));
#268 = CARTESIAN_POINT('',(-2.960335020015,-12.43611522166));
#269 = CARTESIAN_POINT('',(-3.050956044234,-12.43100961306));
#270 = CARTESIAN_POINT('',(-3.23580912742,-12.43100961306));
#271 = CARTESIAN_POINT('',(-3.329902769305,-12.43652614086));
#272 = CARTESIAN_POINT('',(-3.424530264418,-12.4475356143));
#273 = CARTESIAN_POINT('',(-3.520275143054,-12.46379223648));
#274 = CARTESIAN_POINT('',(-3.617733160104,-12.4848163726));
#275 = CARTESIAN_POINT('',(-3.71752493159,-12.50980846604));
#276 = CARTESIAN_POINT('',(-3.820324289607,-12.53753394519));
#277 = CARTESIAN_POINT('',(-4.013735957463,-12.58955684464));
#278 = CARTESIAN_POINT('',(-4.1048739671,-12.61402092441));
#279 = CARTESIAN_POINT('',(-4.199548586028,-12.6383095623));
#280 = CARTESIAN_POINT('',(-4.297198192122,-12.66074831403));
#281 = CARTESIAN_POINT('',(-4.397465528076,-12.67952410495));
#282 = CARTESIAN_POINT('',(-4.500135582833,-12.69299813162));
#283 = CARTESIAN_POINT('',(-4.605105324317,-12.7));
#284 = CARTESIAN_POINT('',(-4.819672636453,-12.7));
#285 = CARTESIAN_POINT('',(-4.924642377936,-12.69299813162));
#286 = CARTESIAN_POINT('',(-5.027312432693,-12.67952410495));
#287 = CARTESIAN_POINT('',(-5.127579768648,-12.66074831403));
#288 = CARTESIAN_POINT('',(-5.225229374742,-12.6383095623));
#289 = CARTESIAN_POINT('',(-5.319903993669,-12.61402092441));
#290 = CARTESIAN_POINT('',(-5.411042003306,-12.58955684464));
#291 = CARTESIAN_POINT('',(-5.604453671162,-12.53753394519));
#292 = CARTESIAN_POINT('',(-5.70725302918,-12.50980846604));
#293 = CARTESIAN_POINT('',(-5.807044800666,-12.4848163726));
#294 = CARTESIAN_POINT('',(-5.904502817715,-12.46379223648));
#295 = CARTESIAN_POINT('',(-6.000247696352,-12.4475356143));
#296 = CARTESIAN_POINT('',(-6.094875191464,-12.43652614086));
#297 = CARTESIAN_POINT('',(-6.188968833349,-12.43100961306));
#298 = CARTESIAN_POINT('',(-6.28318530718,-12.43100961306));
#299 = ( GEOMETRIC_REPRESENTATION_CONTEXT(2) 
PARAMETRIC_REPRESENTATION_CONTEXT() REPRESENTATION_CONTEXT('2D SPACE',''
  ) );
#300 = FACE_BOUND('',#301,.F.);
#301 = EDGE_LOOP('',(#302));
#302 = ORIENTED_EDGE('',*,*,#303,.F.);
#303 = EDGE_CURVE('',#304,#304,#306,.T.);
#304 = VERTEX_POINT('',#305);
#305 = CARTESIAN_POINT('',(2.6,-29.225,-12.43100961306));
#306 = SURFACE_CURVE('',#307,(#366,#428),.PCURVE_S1.);
#307 = B_SPLINE_CURVE_WITH_KNOTS('',8,(#308,#309,#310,#311,#312,#313,
    #314,#315,#316,#317,#318,#319,#320,#321,#322,#323,#324,#325,#326,
    #327,#328,#329,#330,#331,#332,#333,#334,#335,#336,#337,#338,#339,
    #340,#341,#342,#343,#344,#345,#346,#347,#348,#349,#350,#351,#352,
    #353,#354,#355,#356,#357,#358,#359,#360,#361,#362,#363,#364,#365),
  .UNSPECIFIED.,.T.,.F.,(9,7,7,7,7,7,7,7,9),(0.,0.181561745112,
    0.336006071236,0.443054998048,0.559822105891,0.681201151714,
    0.77991105295,0.878620954171,1.),.UNSPECIFIED.);
#308 = CARTESIAN_POINT('',(2.6,-29.225,-12.43100961306));
#309 = CARTESIAN_POINT('',(2.6,-28.96281045559,-12.43100961306));
#310 = CARTESIAN_POINT('',(2.569782883735,-28.7010547964,-12.43732941978
    ));
#311 = CARTESIAN_POINT('',(2.50952539176,-28.44167085635,-12.4499334291)
  );
#312 = CARTESIAN_POINT('',(2.418680878847,-28.1867418821,-12.46850340303
    ));
#313 = CARTESIAN_POINT('',(2.296195950775,-27.93888935095,
    -12.49241692486));
#314 = CARTESIAN_POINT('',(2.140638409285,-27.70154348471,
    -12.52061250887));
#315 = CARTESIAN_POINT('',(1.950397681661,-27.47933755239,
    -12.55141873819));
#316 = CARTESIAN_POINT('',(1.531636336623,-27.1083473736,-12.60879991594
    ));
#317 = CARTESIAN_POINT('',(1.305689964089,-26.94700889772,
    -12.63633205223));
#318 = CARTESIAN_POINT('',(1.048730838113,-26.80705597279,
    -12.66262792555));
#319 = CARTESIAN_POINT('',(0.765775981715,-26.6979885722,-12.68471643855
    ));
#320 = CARTESIAN_POINT('',(0.463962929048,-26.62666580104,
    -12.69969742129));
#321 = CARTESIAN_POINT('',(0.151671345886,-26.59730756297,
    -12.70578451134));
#322 = CARTESIAN_POINT('',(-0.162132661995,-26.61141445468,
    -12.70266909113));
#323 = CARTESIAN_POINT('',(-0.68112641806,-26.7065235903,-12.68350381485
    ));
#324 = CARTESIAN_POINT('',(-0.889875608387,-26.76562834537,
    -12.67172487232));
#325 = CARTESIAN_POINT('',(-1.092678258565,-26.84448679899,
    -12.65633350886));
#326 = CARTESIAN_POINT('',(-1.287373673479,-26.94239203699,
    -12.63787703929));
#327 = CARTESIAN_POINT('',(-1.471900908133,-27.05835985281,
    -12.6170994081));
#328 = CARTESIAN_POINT('',(-1.644333191013,-27.19114093207,
    -12.59488994966));
#329 = CARTESIAN_POINT('',(-1.802918736348,-27.33923130815,
    -12.57221086674));
#330 = CARTESIAN_POINT('',(-2.102338059975,-27.67720585805,
    -12.52577993814));
#331 = CARTESIAN_POINT('',(-2.240358555396,-27.8697828774,
    -12.50210159109));
#332 = CARTESIAN_POINT('',(-2.358132675404,-28.07634441383,
    -12.48019700137));
#333 = CARTESIAN_POINT('',(-2.454020119929,-28.29435758253,
    -12.46126199625));
#334 = CARTESIAN_POINT('',(-2.526784757529,-28.52109974367,
    -12.44632276872));
#335 = CARTESIAN_POINT('',(-2.575589458313,-28.75373020631,
    -12.43611522166));
#336 = CARTESIAN_POINT('',(-2.6,-28.98934481567,-12.43100961306));
#337 = CARTESIAN_POINT('',(-2.6,-29.46996283195,-12.43100961306));
#338 = CARTESIAN_POINT('',(-2.573624294753,-29.71460702029,
    -12.43652614086));
#339 = CARTESIAN_POINT('',(-2.52098753958,-29.95732252333,-12.4475356143
    ));
#340 = CARTESIAN_POINT('',(-2.441696146761,-30.19635751125,
    -12.46379223648));
#341 = CARTESIAN_POINT('',(-2.334955436101,-30.42962557465,
    -12.4848163726));
#342 = CARTESIAN_POINT('',(-2.199670418784,-30.65447446457,
    -12.50980846604));
#343 = CARTESIAN_POINT('',(-2.034581655659,-30.86737360651,
    -12.53753394519));
#344 = CARTESIAN_POINT('',(-1.678998630683,-31.22295663148,
    -12.58955684465));
#345 = CARTESIAN_POINT('',(-1.495633623713,-31.37470175387,
    -12.61402092441));
#346 = CARTESIAN_POINT('',(-1.288979813496,-31.51250643478,
    -12.6383095623));
#347 = CARTESIAN_POINT('',(-1.060813525296,-31.63086183359,
    -12.66074831404));
#348 = CARTESIAN_POINT('',(-0.813908234239,-31.72497922743,
    -12.67952410496));
#349 = CARTESIAN_POINT('',(-0.551859067835,-31.79079982305,
    -12.69299813161));
#350 = CARTESIAN_POINT('',(-0.27893750582,-31.825,-12.7));
#351 = CARTESIAN_POINT('',(0.278937505777,-31.825,-12.7));
#352 = CARTESIAN_POINT('',(0.551859067859,-31.79079982306,
    -12.69299813162));
#353 = CARTESIAN_POINT('',(0.81390823428,-31.72497922742,-12.67952410495
    ));
#354 = CARTESIAN_POINT('',(1.060813525294,-31.63086183357,
    -12.66074831403));
#355 = CARTESIAN_POINT('',(1.288979813458,-31.5125064348,-12.6383095623)
  );
#356 = CARTESIAN_POINT('',(1.495633623696,-31.3747017539,-12.61402092441
    ));
#357 = CARTESIAN_POINT('',(1.678998630715,-31.22295663145,
    -12.58955684464));
#358 = CARTESIAN_POINT('',(2.034581655659,-30.86737360651,
    -12.53753394519));
#359 = CARTESIAN_POINT('',(2.199670418783,-30.65447446457,
    -12.50980846604));
#360 = CARTESIAN_POINT('',(2.334955436101,-30.42962557465,-12.4848163726
    ));
#361 = CARTESIAN_POINT('',(2.441696146761,-30.19635751125,
    -12.46379223648));
#362 = CARTESIAN_POINT('',(2.52098753958,-29.95732252333,-12.4475356143)
  );
#363 = CARTESIAN_POINT('',(2.573624294753,-29.71460702029,
    -12.43652614086));
#364 = CARTESIAN_POINT('',(2.6,-29.46996283195,-12.43100961306));
#365 = CARTESIAN_POINT('',(2.6,-29.225,-12.43100961306));
#366 = PCURVE('',#31,#367);
#367 = DEFINITIONAL_REPRESENTATION('',(#368),#427);
#368 = B_SPLINE_CURVE_WITH_KNOTS('',8,(#369,#370,#371,#372,#373,#374,
    #375,#376,#377,#378,#379,#380,#381,#382,#383,#384,#385,#386,#387,
    #388,#389,#390,#391,#392,#393,#394,#395,#396,#397,#398,#399,#400,
    #401,#402,#403,#404,#405,#406,#407,#408,#409,#410,#411,#412,#413,
    #414,#415,#416,#417,#418,#419,#420,#421,#422,#423,#424,#425,#426),
  .UNSPECIFIED.,.T.,.F.,(9,7,7,7,7,7,7,7,9),(0.,0.181561745112,
    0.336006071236,0.443054998048,0.559822105891,0.681201151714,
    0.77991105295,0.878620954171,1.),.UNSPECIFIED.);
#369 = CARTESIAN_POINT('',(-4.91857112539,-29.225));
#370 = CARTESIAN_POINT('',(-4.91857112539,-28.96281045559));
#371 = CARTESIAN_POINT('',(-4.916140344838,-28.7010547964));
#372 = CARTESIAN_POINT('',(-4.911292971009,-28.44167085635));
#373 = CARTESIAN_POINT('',(-4.903992036837,-28.1867418821));
#374 = CARTESIAN_POINT('',(-4.894166296193,-27.93888935095));
#375 = CARTESIAN_POINT('',(-4.881720802475,-27.70154348471));
#376 = CARTESIAN_POINT('',(-4.866550592155,-27.47933755239));
#377 = CARTESIAN_POINT('',(-4.833269141916,-27.1083473736));
#378 = CARTESIAN_POINT('',(-4.815348494304,-26.94700889772));
#379 = CARTESIAN_POINT('',(-4.795016238796,-26.80705597279));
#380 = CARTESIAN_POINT('',(-4.77268230644,-26.6979885722));
#381 = CARTESIAN_POINT('',(-4.748908857434,-26.62666580104));
#382 = CARTESIAN_POINT('',(-4.724331891968,-26.59730756297));
#383 = CARTESIAN_POINT('',(-4.699630699442,-26.61141445468));
#384 = CARTESIAN_POINT('',(-4.658737195438,-26.7065235903));
#385 = CARTESIAN_POINT('',(-4.642277212437,-26.76562834537));
#386 = CARTESIAN_POINT('',(-4.6262675291,-26.84448679899));
#387 = CARTESIAN_POINT('',(-4.610873530018,-26.94239203699));
#388 = CARTESIAN_POINT('',(-4.596255935898,-27.05835985281));
#389 = CARTESIAN_POINT('',(-4.582568718888,-27.19114093207));
#390 = CARTESIAN_POINT('',(-4.569955497027,-27.33923130815));
#391 = CARTESIAN_POINT('',(-4.546097390106,-27.67720585805));
#392 = CARTESIAN_POINT('',(-4.535072289132,-27.8697828774));
#393 = CARTESIAN_POINT('',(-4.525641018764,-28.07634441383));
#394 = CARTESIAN_POINT('',(-4.517945540544,-28.29435758253));
#395 = CARTESIAN_POINT('',(-4.512096551281,-28.52109974367));
#396 = CARTESIAN_POINT('',(-4.508170519622,-28.75373020631));
#397 = CARTESIAN_POINT('',(-4.506206835379,-28.98934481567));
#398 = CARTESIAN_POINT('',(-4.506206835379,-29.46996283195));
#399 = CARTESIAN_POINT('',(-4.508328599637,-29.71460702029));
#400 = CARTESIAN_POINT('',(-4.512562922088,-29.95732252333));
#401 = CARTESIAN_POINT('',(-4.518936141082,-30.19635751125));
#402 = CARTESIAN_POINT('',(-4.527501842615,-30.42962557465));
#403 = CARTESIAN_POINT('',(-4.538332662384,-30.65447446457));
#404 = CARTESIAN_POINT('',(-4.551510883587,-30.86737360651));
#405 = CARTESIAN_POINT('',(-4.579807610494,-31.22295663148));
#406 = CARTESIAN_POINT('',(-4.594372557507,-31.37470175387));
#407 = CARTESIAN_POINT('',(-4.610753137254,-31.51250643478));
#408 = CARTESIAN_POINT('',(-4.628798625869,-31.63086183359));
#409 = CARTESIAN_POINT('',(-4.648285625379,-31.72497922743));
#410 = CARTESIAN_POINT('',(-4.668935494307,-31.79079982305));
#411 = CARTESIAN_POINT('',(-4.690425397249,-31.825));
#412 = CARTESIAN_POINT('',(-4.734352563517,-31.825));
#413 = CARTESIAN_POINT('',(-4.755842466465,-31.79079982306));
#414 = CARTESIAN_POINT('',(-4.776492335394,-31.72497922742));
#415 = CARTESIAN_POINT('',(-4.7959793349,-31.63086183357));
#416 = CARTESIAN_POINT('',(-4.814024823513,-31.5125064348));
#417 = CARTESIAN_POINT('',(-4.830405403261,-31.3747017539));
#418 = CARTESIAN_POINT('',(-4.844970350278,-31.22295663145));
#419 = CARTESIAN_POINT('',(-4.873267077183,-30.86737360651));
#420 = CARTESIAN_POINT('',(-4.886445298386,-30.65447446457));
#421 = CARTESIAN_POINT('',(-4.897276118155,-30.42962557465));
#422 = CARTESIAN_POINT('',(-4.905841819687,-30.19635751125));
#423 = CARTESIAN_POINT('',(-4.912215038681,-29.95732252333));
#424 = CARTESIAN_POINT('',(-4.916449361133,-29.71460702029));
#425 = CARTESIAN_POINT('',(-4.91857112539,-29.46996283195));
#426 = CARTESIAN_POINT('',(-4.91857112539,-29.225));
#427 = ( GEOMETRIC_REPRESENTATION_CONTEXT(2) 
PARAMETRIC_REPRESENTATION_CONTEXT() REPRESENTATION_CONTEXT('2D SPACE',''
  ) );
#428 = PCURVE('',#429,#434);
#429 = CYLINDRICAL_SURFACE('',#430,2.6);
#430 = AXIS2_PLACEMENT_3D('',#431,#432,#433);
#431 = CARTESIAN_POINT('',(0.,-29.225,0.));
#432 = DIRECTION('',(0.,0.,1.));
#433 = DIRECTION('',(1.,0.,0.));
#434 = DEFINITIONAL_REPRESENTATION('',(#435),#494);
#435 = B_SPLINE_CURVE_WITH_KNOTS('',8,(#436,#437,#438,#439,#440,#441,
    #442,#443,#444,#445,#446,#447,#448,#449,#450,#451,#452,#453,#454,
    #455,#456,#457,#458,#459,#460,#461,#462,#463,#464,#465,#466,#467,
    #468,#469,#470,#471,#472,#473,#474,#475,#476,#477,#478,#479,#480,
    #481,#482,#483,#484,#485,#486,#487,#488,#489,#490,#491,#492,#493),
  .UNSPECIFIED.,.F.,.F.,(9,7,7,7,7,7,7,7,9),(0.,0.181561745112,
    0.336006071236,0.443054998048,0.559822105891,0.681201151714,
    0.77991105295,0.878620954171,1.),.UNSPECIFIED.);
#436 = CARTESIAN_POINT('',(0.,-12.43100961306));
#437 = CARTESIAN_POINT('',(0.100842132464,-12.43100961306));
#438 = CARTESIAN_POINT('',(0.201517069153,-12.43732941978));
#439 = CARTESIAN_POINT('',(0.302843915788,-12.4499334291));
#440 = CARTESIAN_POINT('',(0.405558208192,-12.46850340303));
#441 = CARTESIAN_POINT('',(0.510390080187,-12.49241692486));
#442 = CARTESIAN_POINT('',(0.618100428631,-12.52061250887));
#443 = CARTESIAN_POINT('',(0.729542135472,-12.55141873819));
#444 = CARTESIAN_POINT('',(0.944718812865,-12.60879991594));
#445 = CARTESIAN_POINT('',(1.050915290258,-12.63633205223));
#446 = CARTESIAN_POINT('',(1.16205890331,-12.66262792555));
#447 = CARTESIAN_POINT('',(1.276675307895,-12.68471643855));
#448 = CARTESIAN_POINT('',(1.393755142301,-12.69969742129));
#449 = CARTESIAN_POINT('',(1.512487342751,-12.70578451134));
#450 = CARTESIAN_POINT('',(1.632182423196,-12.70266909113));
#451 = CARTESIAN_POINT('',(1.835119535074,-12.68350381485));
#452 = CARTESIAN_POINT('',(1.918190077888,-12.67172487232));
#453 = CARTESIAN_POINT('',(2.001254714182,-12.65633350886));
#454 = CARTESIAN_POINT('',(2.084318998675,-12.63787703929));
#455 = CARTESIAN_POINT('',(2.16738906848,-12.6170994081));
#456 = CARTESIAN_POINT('',(2.250467287137,-12.59488994966));
#457 = CARTESIAN_POINT('',(2.33354747608,-12.57221086674));
#458 = CARTESIAN_POINT('',(2.507212599548,-12.52577993814));
#459 = CARTESIAN_POINT('',(2.597855114763,-12.50210159109));
#460 = CARTESIAN_POINT('',(2.688493088602,-12.48019700137));
#461 = CARTESIAN_POINT('',(2.779116578365,-12.46126199625));
#462 = CARTESIAN_POINT('',(2.869727223829,-12.44632276872));
#463 = CARTESIAN_POINT('',(2.960335020015,-12.43611522166));
#464 = CARTESIAN_POINT('',(3.050956044234,-12.43100961306));
#465 = CARTESIAN_POINT('',(3.23580912742,-12.43100961306));
#466 = CARTESIAN_POINT('',(3.329902769305,-12.43652614086));
#467 = CARTESIAN_POINT('',(3.424530264418,-12.4475356143));
#468 = CARTESIAN_POINT('',(3.520275143054,-12.46379223648));
#469 = CARTESIAN_POINT('',(3.617733160104,-12.4848163726));
#470 = CARTESIAN_POINT('',(3.71752493159,-12.50980846604));
#471 = CARTESIAN_POINT('',(3.820324289607,-12.53753394519));
#472 = CARTESIAN_POINT('',(4.01373595748,-12.58955684465));
#473 = CARTESIAN_POINT('',(4.104873967088,-12.61402092441));
#474 = CARTESIAN_POINT('',(4.199548586013,-12.6383095623));
#475 = CARTESIAN_POINT('',(4.297198192123,-12.66074831404));
#476 = CARTESIAN_POINT('',(4.397465528091,-12.67952410496));
#477 = CARTESIAN_POINT('',(4.500135582843,-12.69299813161));
#478 = CARTESIAN_POINT('',(4.6051053243,-12.7));
#479 = CARTESIAN_POINT('',(4.819672636453,-12.7));
#480 = CARTESIAN_POINT('',(4.924642377936,-12.69299813162));
#481 = CARTESIAN_POINT('',(5.027312432693,-12.67952410495));
#482 = CARTESIAN_POINT('',(5.127579768648,-12.66074831403));
#483 = CARTESIAN_POINT('',(5.225229374742,-12.6383095623));
#484 = CARTESIAN_POINT('',(5.319903993669,-12.61402092441));
#485 = CARTESIAN_POINT('',(5.411042003306,-12.58955684464));
#486 = CARTESIAN_POINT('',(5.604453671162,-12.53753394519));
#487 = CARTESIAN_POINT('',(5.70725302918,-12.50980846604));
#488 = CARTESIAN_POINT('',(5.807044800666,-12.4848163726));
#489 = CARTESIAN_POINT('',(5.904502817715,-12.46379223648));
#490 = CARTESIAN_POINT('',(6.000247696351,-12.4475356143));
#491 = CARTESIAN_POINT('',(6.094875191465,-12.43652614086));
#492 = CARTESIAN_POINT('',(6.188968833349,-12.43100961306));
#493 = CARTESIAN_POINT('',(6.28318530718,-12.43100961306));
#494 = ( GEOMETRIC_REPRESENTATION_CONTEXT(2) 
PARAMETRIC_REPRESENTATION_CONTEXT() REPRESENTATION_CONTEXT('2D SPACE',''
  ) );
#495 = FACE_BOUND('',#496,.F.);
#496 = EDGE_LOOP('',(#497));
#497 = ORIENTED_EDGE('',*,*,#498,.F.);
#498 = EDGE_CURVE('',#499,#499,#501,.T.);
#499 = VERTEX_POINT('',#500);
#500 = CARTESIAN_POINT('',(2.6,29.225,-12.43100961306));
#501 = SURFACE_CURVE('',#502,(#561,#623),.PCURVE_S1.);
#502 = B_SPLINE_CURVE_WITH_KNOTS('',8,(#503,#504,#505,#506,#507,#508,
    #509,#510,#511,#512,#513,#514,#515,#516,#517,#518,#519,#520,#521,
    #522,#523,#524,#525,#526,#527,#528,#529,#530,#531,#532,#533,#534,
    #535,#536,#537,#538,#539,#540,#541,#542,#543,#544,#545,#546,#547,
    #548,#549,#550,#551,#552,#553,#554,#555,#556,#557,#558,#559,#560),
  .UNSPECIFIED.,.T.,.F.,(9,7,7,7,7,7,7,7,9),(0.,0.181561745118,
    0.336006071246,0.443054998062,0.559822105908,0.681201151735,
    0.779911052955,0.878620954174,1.),.UNSPECIFIED.);
#503 = CARTESIAN_POINT('',(2.6,29.225,-12.43100961306));
#504 = CARTESIAN_POINT('',(2.6,29.487189544406,-12.43100961306));
#505 = CARTESIAN_POINT('',(2.569782883735,29.748945203591,
    -12.43732941978));
#506 = CARTESIAN_POINT('',(2.50952539176,30.008329143645,-12.4499334291)
  );
#507 = CARTESIAN_POINT('',(2.418680878847,30.263258117897,
    -12.46850340303));
#508 = CARTESIAN_POINT('',(2.296195950775,30.511110649043,
    -12.49241692486));
#509 = CARTESIAN_POINT('',(2.140638409285,30.748456515287,
    -12.52061250887));
#510 = CARTESIAN_POINT('',(1.950397681661,30.970662447604,
    -12.55141873819));
#511 = CARTESIAN_POINT('',(1.531636336623,31.341652626394,
    -12.60879991594));
#512 = CARTESIAN_POINT('',(1.305689964086,31.502991102274,
    -12.63633205223));
#513 = CARTESIAN_POINT('',(1.04873083812,31.642944027209,-12.66262792554
    ));
#514 = CARTESIAN_POINT('',(0.765775981704,31.752011427801,
    -12.68471643855));
#515 = CARTESIAN_POINT('',(0.463962929057,31.823334198958,
    -12.69969742129));
#516 = CARTESIAN_POINT('',(0.151671345882,31.852692437028,
    -12.70578451134));
#517 = CARTESIAN_POINT('',(-0.162132661994,31.838585545315,
    -12.70266909113));
#518 = CARTESIAN_POINT('',(-0.681126418059,31.743476409699,
    -12.68350381485));
#519 = CARTESIAN_POINT('',(-0.889875608388,31.684371654629,
    -12.67172487232));
#520 = CARTESIAN_POINT('',(-1.092678258565,31.605513201003,
    -12.65633350886));
#521 = CARTESIAN_POINT('',(-1.287373673479,31.507607963002,
    -12.63787703929));
#522 = CARTESIAN_POINT('',(-1.471900908133,31.391640147188,
    -12.6170994081));
#523 = CARTESIAN_POINT('',(-1.644333191013,31.258859067922,
    -12.59488994966));
#524 = CARTESIAN_POINT('',(-1.802918736348,31.110768691846,
    -12.57221086674));
#525 = CARTESIAN_POINT('',(-2.102338059975,30.77279414195,
    -12.52577993814));
#526 = CARTESIAN_POINT('',(-2.240358555396,30.580217122591,
    -12.50210159109));
#527 = CARTESIAN_POINT('',(-2.358132675404,30.373655586166,
    -12.48019700137));
#528 = CARTESIAN_POINT('',(-2.454020119929,30.155642417463,
    -12.46126199625));
#529 = CARTESIAN_POINT('',(-2.52678475753,29.928900256323,
    -12.44632276872));
#530 = CARTESIAN_POINT('',(-2.575589458313,29.696269793686,
    -12.43611522166));
#531 = CARTESIAN_POINT('',(-2.6,29.460655184324,-12.43100961306));
#532 = CARTESIAN_POINT('',(-2.6,28.980037168042,-12.43100961306));
#533 = CARTESIAN_POINT('',(-2.573624294753,28.735392979704,
    -12.43652614086));
#534 = CARTESIAN_POINT('',(-2.52098753958,28.492677476665,-12.4475356143
    ));
#535 = CARTESIAN_POINT('',(-2.441696146761,28.25364248875,
    -12.46379223648));
#536 = CARTESIAN_POINT('',(-2.334955436101,28.020374425347,
    -12.4848163726));
#537 = CARTESIAN_POINT('',(-2.199670418784,27.795525535424,
    -12.50980846604));
#538 = CARTESIAN_POINT('',(-2.034581655659,27.582626393489,
    -12.53753394519));
#539 = CARTESIAN_POINT('',(-1.678998630714,27.227043368544,
    -12.58955684464));
#540 = CARTESIAN_POINT('',(-1.495633623696,27.075298246093,
    -12.61402092441));
#541 = CARTESIAN_POINT('',(-1.288979813458,26.937493565194,
    -12.6383095623));
#542 = CARTESIAN_POINT('',(-1.060813525295,26.819138166425,
    -12.66074831403));
#543 = CARTESIAN_POINT('',(-0.81390823428,26.725020772577,
    -12.67952410495));
#544 = CARTESIAN_POINT('',(-0.551859067859,26.659200176938,
    -12.69299813162));
#545 = CARTESIAN_POINT('',(-0.278937505777,26.625,-12.7));
#546 = CARTESIAN_POINT('',(0.278937505776,26.625,-12.7));
#547 = CARTESIAN_POINT('',(0.551859067859,26.659200176938,
    -12.69299813162));
#548 = CARTESIAN_POINT('',(0.813908234281,26.725020772577,
    -12.67952410495));
#549 = CARTESIAN_POINT('',(1.060813525295,26.819138166425,
    -12.66074831403));
#550 = CARTESIAN_POINT('',(1.288979813458,26.937493565195,-12.6383095623
    ));
#551 = CARTESIAN_POINT('',(1.495633623696,27.075298246093,
    -12.61402092441));
#552 = CARTESIAN_POINT('',(1.678998630714,27.227043368544,
    -12.58955684464));
#553 = CARTESIAN_POINT('',(2.034581655659,27.582626393489,
    -12.53753394519));
#554 = CARTESIAN_POINT('',(2.199670418784,27.795525535424,
    -12.50980846604));
#555 = CARTESIAN_POINT('',(2.334955436101,28.020374425347,-12.4848163726
    ));
#556 = CARTESIAN_POINT('',(2.441696146761,28.25364248875,-12.46379223648
    ));
#557 = CARTESIAN_POINT('',(2.52098753958,28.492677476665,-12.4475356143)
  );
#558 = CARTESIAN_POINT('',(2.573624294753,28.735392979704,
    -12.43652614086));
#559 = CARTESIAN_POINT('',(2.6,28.980037168042,-12.43100961306));
#560 = CARTESIAN_POINT('',(2.6,29.225,-12.43100961306));
#561 = PCURVE('',#31,#562);
#562 = DEFINITIONAL_REPRESENTATION('',(#563),#622);
#563 = B_SPLINE_CURVE_WITH_KNOTS('',8,(#564,#565,#566,#567,#568,#569,
    #570,#571,#572,#573,#574,#575,#576,#577,#578,#579,#580,#581,#582,
    #583,#584,#585,#586,#587,#588,#589,#590,#591,#592,#593,#594,#595,
    #596,#597,#598,#599,#600,#601,#602,#603,#604,#605,#606,#607,#608,
    #609,#610,#611,#612,#613,#614,#615,#616,#617,#618,#619,#620,#621),
  .UNSPECIFIED.,.T.,.F.,(9,7,7,7,7,7,7,7,9),(0.,0.181561745118,
    0.336006071246,0.443054998062,0.559822105908,0.681201151735,
    0.779911052955,0.878620954174,1.),.UNSPECIFIED.);
#564 = CARTESIAN_POINT('',(-4.91857112539,29.225));
#565 = CARTESIAN_POINT('',(-4.91857112539,29.487189544406));
#566 = CARTESIAN_POINT('',(-4.916140344838,29.748945203591));
#567 = CARTESIAN_POINT('',(-4.911292971009,30.008329143645));
#568 = CARTESIAN_POINT('',(-4.903992036837,30.263258117897));
#569 = CARTESIAN_POINT('',(-4.894166296193,30.511110649043));
#570 = CARTESIAN_POINT('',(-4.881720802475,30.748456515287));
#571 = CARTESIAN_POINT('',(-4.866550592155,30.970662447604));
#572 = CARTESIAN_POINT('',(-4.833269141916,31.341652626394));
#573 = CARTESIAN_POINT('',(-4.815348494304,31.502991102274));
#574 = CARTESIAN_POINT('',(-4.795016238796,31.642944027209));
#575 = CARTESIAN_POINT('',(-4.77268230644,31.752011427801));
#576 = CARTESIAN_POINT('',(-4.748908857435,31.823334198958));
#577 = CARTESIAN_POINT('',(-4.724331891968,31.852692437028));
#578 = CARTESIAN_POINT('',(-4.699630699442,31.838585545315));
#579 = CARTESIAN_POINT('',(-4.658737195438,31.743476409699));
#580 = CARTESIAN_POINT('',(-4.642277212437,31.684371654629));
#581 = CARTESIAN_POINT('',(-4.6262675291,31.605513201003));
#582 = CARTESIAN_POINT('',(-4.610873530018,31.507607963002));
#583 = CARTESIAN_POINT('',(-4.596255935898,31.391640147188));
#584 = CARTESIAN_POINT('',(-4.582568718888,31.258859067922));
#585 = CARTESIAN_POINT('',(-4.569955497027,31.110768691846));
#586 = CARTESIAN_POINT('',(-4.546097390106,30.77279414195));
#587 = CARTESIAN_POINT('',(-4.535072289132,30.580217122591));
#588 = CARTESIAN_POINT('',(-4.525641018764,30.373655586166));
#589 = CARTESIAN_POINT('',(-4.517945540544,30.155642417463));
#590 = CARTESIAN_POINT('',(-4.512096551281,29.928900256323));
#591 = CARTESIAN_POINT('',(-4.508170519622,29.696269793686));
#592 = CARTESIAN_POINT('',(-4.506206835379,29.460655184324));
#593 = CARTESIAN_POINT('',(-4.506206835379,28.980037168042));
#594 = CARTESIAN_POINT('',(-4.508328599637,28.735392979703));
#595 = CARTESIAN_POINT('',(-4.512562922088,28.492677476666));
#596 = CARTESIAN_POINT('',(-4.518936141082,28.25364248875));
#597 = CARTESIAN_POINT('',(-4.527501842615,28.020374425347));
#598 = CARTESIAN_POINT('',(-4.538332662384,27.795525535424));
#599 = CARTESIAN_POINT('',(-4.551510883587,27.582626393489));
#600 = CARTESIAN_POINT('',(-4.579807610492,27.227043368544));
#601 = CARTESIAN_POINT('',(-4.594372557508,27.075298246093));
#602 = CARTESIAN_POINT('',(-4.610753137257,26.937493565195));
#603 = CARTESIAN_POINT('',(-4.628798625869,26.819138166425));
#604 = CARTESIAN_POINT('',(-4.648285625375,26.725020772576));
#605 = CARTESIAN_POINT('',(-4.668935494305,26.659200176938));
#606 = CARTESIAN_POINT('',(-4.690425397253,26.625));
#607 = CARTESIAN_POINT('',(-4.734352563517,26.625));
#608 = CARTESIAN_POINT('',(-4.755842466465,26.659200176938));
#609 = CARTESIAN_POINT('',(-4.776492335394,26.725020772577));
#610 = CARTESIAN_POINT('',(-4.795979334901,26.819138166425));
#611 = CARTESIAN_POINT('',(-4.814024823513,26.937493565195));
#612 = CARTESIAN_POINT('',(-4.830405403261,27.075298246093));
#613 = CARTESIAN_POINT('',(-4.844970350278,27.227043368544));
#614 = CARTESIAN_POINT('',(-4.873267077183,27.582626393489));
#615 = CARTESIAN_POINT('',(-4.886445298386,27.795525535424));
#616 = CARTESIAN_POINT('',(-4.897276118155,28.020374425347));
#617 = CARTESIAN_POINT('',(-4.905841819687,28.25364248875));
#618 = CARTESIAN_POINT('',(-4.912215038681,28.492677476665));
#619 = CARTESIAN_POINT('',(-4.916449361133,28.735392979704));
#620 = CARTESIAN_POINT('',(-4.91857112539,28.980037168042));
#621 = CARTESIAN_POINT('',(-4.91857112539,29.225));
#622 = ( GEOMETRIC_REPRESENTATION_CONTEXT(2) 
PARAMETRIC_REPRESENTATION_CONTEXT() REPRESENTATION_CONTEXT('2D SPACE',''
  ) );
#623 = PCURVE('',#624,#629);
#624 = CYLINDRICAL_SURFACE('',#625,2.6);
#625 = AXIS2_PLACEMENT_3D('',#626,#627,#628);
#626 = CARTESIAN_POINT('',(0.,29.225,0.));
#627 = DIRECTION('',(0.,0.,1.));
#628 = DIRECTION('',(1.,0.,0.));
#629 = DEFINITIONAL_REPRESENTATION('',(#630),#689);
#630 = B_SPLINE_CURVE_WITH_KNOTS('',8,(#631,#632,#633,#634,#635,#636,
    #637,#638,#639,#640,#641,#642,#643,#644,#645,#646,#647,#648,#649,
    #650,#651,#652,#653,#654,#655,#656,#657,#658,#659,#660,#661,#662,
    #663,#664,#665,#666,#667,#668,#669,#670,#671,#672,#673,#674,#675,
    #676,#677,#678,#679,#680,#681,#682,#683,#684,#685,#686,#687,#688),
  .UNSPECIFIED.,.F.,.F.,(9,7,7,7,7,7,7,7,9),(0.,0.181561745118,
    0.336006071246,0.443054998062,0.559822105908,0.681201151735,
    0.779911052955,0.878620954174,1.),.UNSPECIFIED.);
#631 = CARTESIAN_POINT('',(0.,-12.43100961306));
#632 = CARTESIAN_POINT('',(0.100842132464,-12.43100961306));
#633 = CARTESIAN_POINT('',(0.201517069153,-12.43732941978));
#634 = CARTESIAN_POINT('',(0.302843915788,-12.4499334291));
#635 = CARTESIAN_POINT('',(0.405558208192,-12.46850340303));
#636 = CARTESIAN_POINT('',(0.510390080188,-12.49241692486));
#637 = CARTESIAN_POINT('',(0.618100428631,-12.52061250887));
#638 = CARTESIAN_POINT('',(0.729542135472,-12.55141873819));
#639 = CARTESIAN_POINT('',(0.944718812864,-12.60879991594));
#640 = CARTESIAN_POINT('',(1.050915290259,-12.63633205223));
#641 = CARTESIAN_POINT('',(1.162058903308,-12.66262792554));
#642 = CARTESIAN_POINT('',(1.276675307898,-12.68471643855));
#643 = CARTESIAN_POINT('',(1.393755142299,-12.69969742129));
#644 = CARTESIAN_POINT('',(1.512487342752,-12.70578451134));
#645 = CARTESIAN_POINT('',(1.632182423195,-12.70266909113));
#646 = CARTESIAN_POINT('',(1.835119535074,-12.68350381485));
#647 = CARTESIAN_POINT('',(1.918190077888,-12.67172487232));
#648 = CARTESIAN_POINT('',(2.001254714182,-12.65633350886));
#649 = CARTESIAN_POINT('',(2.084318998675,-12.63787703929));
#650 = CARTESIAN_POINT('',(2.16738906848,-12.6170994081));
#651 = CARTESIAN_POINT('',(2.250467287137,-12.59488994966));
#652 = CARTESIAN_POINT('',(2.33354747608,-12.57221086674));
#653 = CARTESIAN_POINT('',(2.507212599548,-12.52577993814));
#654 = CARTESIAN_POINT('',(2.597855114763,-12.50210159109));
#655 = CARTESIAN_POINT('',(2.688493088602,-12.48019700137));
#656 = CARTESIAN_POINT('',(2.779116578365,-12.46126199625));
#657 = CARTESIAN_POINT('',(2.869727223829,-12.44632276872));
#658 = CARTESIAN_POINT('',(2.960335020014,-12.43611522166));
#659 = CARTESIAN_POINT('',(3.050956044234,-12.43100961306));
#660 = CARTESIAN_POINT('',(3.23580912742,-12.43100961306));
#661 = CARTESIAN_POINT('',(3.329902769305,-12.43652614086));
#662 = CARTESIAN_POINT('',(3.424530264418,-12.4475356143));
#663 = CARTESIAN_POINT('',(3.520275143054,-12.46379223648));
#664 = CARTESIAN_POINT('',(3.617733160104,-12.4848163726));
#665 = CARTESIAN_POINT('',(3.71752493159,-12.50980846604));
#666 = CARTESIAN_POINT('',(3.820324289607,-12.53753394519));
#667 = CARTESIAN_POINT('',(4.013735957463,-12.58955684464));
#668 = CARTESIAN_POINT('',(4.104873967101,-12.61402092441));
#669 = CARTESIAN_POINT('',(4.199548586027,-12.6383095623));
#670 = CARTESIAN_POINT('',(4.297198192122,-12.66074831403));
#671 = CARTESIAN_POINT('',(4.397465528076,-12.67952410495));
#672 = CARTESIAN_POINT('',(4.500135582833,-12.69299813162));
#673 = CARTESIAN_POINT('',(4.605105324317,-12.7));
#674 = CARTESIAN_POINT('',(4.819672636452,-12.7));
#675 = CARTESIAN_POINT('',(4.924642377936,-12.69299813162));
#676 = CARTESIAN_POINT('',(5.027312432693,-12.67952410495));
#677 = CARTESIAN_POINT('',(5.127579768648,-12.66074831403));
#678 = CARTESIAN_POINT('',(5.225229374742,-12.6383095623));
#679 = CARTESIAN_POINT('',(5.319903993669,-12.61402092441));
#680 = CARTESIAN_POINT('',(5.411042003306,-12.58955684464));
#681 = CARTESIAN_POINT('',(5.604453671162,-12.53753394519));
#682 = CARTESIAN_POINT('',(5.70725302918,-12.50980846604));
#683 = CARTESIAN_POINT('',(5.807044800666,-12.4848163726));
#684 = CARTESIAN_POINT('',(5.904502817715,-12.46379223648));
#685 = CARTESIAN_POINT('',(6.000247696351,-12.4475356143));
#686 = CARTESIAN_POINT('',(6.094875191464,-12.43652614086));
#687 = CARTESIAN_POINT('',(6.188968833349,-12.43100961306));
#688 = CARTESIAN_POINT('',(6.28318530718,-12.43100961306));
#689 = ( GEOMETRIC_REPRESENTATION_CONTEXT(2) 
PARAMETRIC_REPRESENTATION_CONTEXT() REPRESENTATION_CONTEXT('2D SPACE',''
  ) );
#690 = FACE_BOUND('',#691,.F.);
#691 = EDGE_LOOP('',(#692));
#692 = ORIENTED_EDGE('',*,*,#693,.T.);
#693 = EDGE_CURVE('',#694,#694,#696,.T.);
#694 = VERTEX_POINT('',#695);
#695 = CARTESIAN_POINT('',(2.6,29.225,12.43100961306));
#696 = SURFACE_CURVE('',#697,(#756,#818),.PCURVE_S1.);
#697 = B_SPLINE_CURVE_WITH_KNOTS('',8,(#698,#699,#700,#701,#702,#703,
    #704,#705,#706,#707,#708,#709,#710,#711,#712,#713,#714,#715,#716,
    #717,#718,#719,#720,#721,#722,#723,#724,#725,#726,#727,#728,#729,
    #730,#731,#732,#733,#734,#735,#736,#737,#738,#739,#740,#741,#742,
    #743,#744,#745,#746,#747,#748,#749,#750,#751,#752,#753,#754,#755),
  .UNSPECIFIED.,.T.,.F.,(9,7,7,7,7,7,7,7,9),(0.,0.181561745124,
    0.336006071256,0.443054998075,0.559822105924,0.681201151754,
    0.779911052957,0.878620954175,1.),.UNSPECIFIED.);
#698 = CARTESIAN_POINT('',(2.6,29.225,12.43100961306));
#699 = CARTESIAN_POINT('',(2.6,29.487189544406,12.43100961306));
#700 = CARTESIAN_POINT('',(2.569782883735,29.748945203591,
    12.437329419782));
#701 = CARTESIAN_POINT('',(2.50952539176,30.008329143645,12.449933429109
    ));
#702 = CARTESIAN_POINT('',(2.418680878847,30.263258117897,12.46850340303
    ));
#703 = CARTESIAN_POINT('',(2.296195950775,30.511110649043,
    12.492416924868));
#704 = CARTESIAN_POINT('',(2.140638409284,30.748456515287,
    12.520612508874));
#705 = CARTESIAN_POINT('',(1.950397681661,30.970662447604,
    12.551418738191));
#706 = CARTESIAN_POINT('',(1.531636336623,31.341652626394,
    12.608799915948));
#707 = CARTESIAN_POINT('',(1.305689964086,31.502991102274,
    12.636332052234));
#708 = CARTESIAN_POINT('',(1.04873083812,31.642944027209,12.662627925549
    ));
#709 = CARTESIAN_POINT('',(0.765775981705,31.752011427801,
    12.684716438559));
#710 = CARTESIAN_POINT('',(0.463962929056,31.823334198958,
    12.699697421297));
#711 = CARTESIAN_POINT('',(0.151671345882,31.852692437028,
    12.705784511349));
#712 = CARTESIAN_POINT('',(-0.162132661994,31.838585545315,
    12.702669091139));
#713 = CARTESIAN_POINT('',(-0.681126418059,31.743476409699,
    12.683503814851));
#714 = CARTESIAN_POINT('',(-0.889875608388,31.684371654629,
    12.671724872326));
#715 = CARTESIAN_POINT('',(-1.092678258565,31.605513201003,
    12.656333508862));
#716 = CARTESIAN_POINT('',(-1.287373673479,31.507607963002,
    12.637877039298));
#717 = CARTESIAN_POINT('',(-1.471900908133,31.391640147188,12.6170994081
    ));
#718 = CARTESIAN_POINT('',(-1.644333191013,31.258859067922,
    12.594889949661));
#719 = CARTESIAN_POINT('',(-1.802918736348,31.110768691846,
    12.572210866749));
#720 = CARTESIAN_POINT('',(-2.102338059975,30.77279414195,
    12.525779938149));
#721 = CARTESIAN_POINT('',(-2.240358555396,30.580217122591,
    12.502101591098));
#722 = CARTESIAN_POINT('',(-2.358132675404,30.373655586166,
    12.480197001375));
#723 = CARTESIAN_POINT('',(-2.454020119929,30.155642417463,
    12.461261996252));
#724 = CARTESIAN_POINT('',(-2.52678475753,29.928900256323,
    12.446322768725));
#725 = CARTESIAN_POINT('',(-2.575589458313,29.696269793685,
    12.436115221669));
#726 = CARTESIAN_POINT('',(-2.6,29.460655184324,12.43100961306));
#727 = CARTESIAN_POINT('',(-2.6,28.980037168042,12.43100961306));
#728 = CARTESIAN_POINT('',(-2.573624294753,28.735392979704,
    12.436526140861));
#729 = CARTESIAN_POINT('',(-2.52098753958,28.492677476665,12.4475356143)
  );
#730 = CARTESIAN_POINT('',(-2.441696146761,28.25364248875,
    12.463792236485));
#731 = CARTESIAN_POINT('',(-2.334955436101,28.020374425347,
    12.484816372603));
#732 = CARTESIAN_POINT('',(-2.199670418784,27.795525535424,
    12.509808466046));
#733 = CARTESIAN_POINT('',(-2.034581655659,27.582626393489,
    12.537533945198));
#734 = CARTESIAN_POINT('',(-1.678998630747,27.227043368577,
    12.589556844641));
#735 = CARTESIAN_POINT('',(-1.495633623679,27.075298246063,
    12.61402092442));
#736 = CARTESIAN_POINT('',(-1.288979813419,26.937493565175,
    12.63830956231));
#737 = CARTESIAN_POINT('',(-1.060813525293,26.819138166442,
    12.660748314036));
#738 = CARTESIAN_POINT('',(-0.813908234323,26.725020772592,
    12.679524104955));
#739 = CARTESIAN_POINT('',(-0.551859067884,26.659200176927,
    12.692998131622));
#740 = CARTESIAN_POINT('',(-0.278937505732,26.625,12.7));
#741 = CARTESIAN_POINT('',(0.278937505776,26.625,12.7));
#742 = CARTESIAN_POINT('',(0.551859067859,26.659200176938,12.69299813162
    ));
#743 = CARTESIAN_POINT('',(0.813908234281,26.725020772577,
    12.679524104958));
#744 = CARTESIAN_POINT('',(1.060813525295,26.819138166425,
    12.660748314039));
#745 = CARTESIAN_POINT('',(1.288979813458,26.937493565195,
    12.638309562306));
#746 = CARTESIAN_POINT('',(1.495633623696,27.075298246093,
    12.614020924416));
#747 = CARTESIAN_POINT('',(1.678998630714,27.227043368544,
    12.589556844645));
#748 = CARTESIAN_POINT('',(2.034581655659,27.582626393489,
    12.537533945198));
#749 = CARTESIAN_POINT('',(2.199670418784,27.795525535424,
    12.509808466046));
#750 = CARTESIAN_POINT('',(2.334955436101,28.020374425347,
    12.484816372603));
#751 = CARTESIAN_POINT('',(2.441696146761,28.25364248875,12.463792236485
    ));
#752 = CARTESIAN_POINT('',(2.52098753958,28.492677476665,12.4475356143)
  );
#753 = CARTESIAN_POINT('',(2.573624294753,28.735392979704,
    12.436526140861));
#754 = CARTESIAN_POINT('',(2.6,28.980037168042,12.43100961306));
#755 = CARTESIAN_POINT('',(2.6,29.225,12.43100961306));
#756 = PCURVE('',#31,#757);
#757 = DEFINITIONAL_REPRESENTATION('',(#758),#817);
#758 = B_SPLINE_CURVE_WITH_KNOTS('',8,(#759,#760,#761,#762,#763,#764,
    #765,#766,#767,#768,#769,#770,#771,#772,#773,#774,#775,#776,#777,
    #778,#779,#780,#781,#782,#783,#784,#785,#786,#787,#788,#789,#790,
    #791,#792,#793,#794,#795,#796,#797,#798,#799,#800,#801,#802,#803,
    #804,#805,#806,#807,#808,#809,#810,#811,#812,#813,#814,#815,#816),
  .UNSPECIFIED.,.T.,.F.,(9,7,7,7,7,7,7,7,9),(0.,0.181561745124,
    0.336006071256,0.443054998075,0.559822105924,0.681201151754,
    0.779911052957,0.878620954175,1.),.UNSPECIFIED.);
#759 = CARTESIAN_POINT('',(-1.36461418179,29.225));
#760 = CARTESIAN_POINT('',(-1.36461418179,29.487189544406));
#761 = CARTESIAN_POINT('',(-1.367044962341,29.748945203591));
#762 = CARTESIAN_POINT('',(-1.371892336171,30.008329143645));
#763 = CARTESIAN_POINT('',(-1.379193270343,30.263258117897));
#764 = CARTESIAN_POINT('',(-1.389019010987,30.511110649043));
#765 = CARTESIAN_POINT('',(-1.401464504704,30.748456515288));
#766 = CARTESIAN_POINT('',(-1.416634715025,30.970662447604));
#767 = CARTESIAN_POINT('',(-1.449916165264,31.341652626394));
#768 = CARTESIAN_POINT('',(-1.467836812875,31.502991102274));
#769 = CARTESIAN_POINT('',(-1.488169068383,31.642944027209));
#770 = CARTESIAN_POINT('',(-1.51050300074,31.752011427801));
#771 = CARTESIAN_POINT('',(-1.534276449745,31.823334198958));
#772 = CARTESIAN_POINT('',(-1.558853415212,31.852692437028));
#773 = CARTESIAN_POINT('',(-1.583554607737,31.838585545315));
#774 = CARTESIAN_POINT('',(-1.624448111742,31.743476409699));
#775 = CARTESIAN_POINT('',(-1.640908094743,31.684371654629));
#776 = CARTESIAN_POINT('',(-1.65691777808,31.605513201003));
#777 = CARTESIAN_POINT('',(-1.672311777162,31.507607963002));
#778 = CARTESIAN_POINT('',(-1.686929371282,31.391640147188));
#779 = CARTESIAN_POINT('',(-1.700616588292,31.258859067922));
#780 = CARTESIAN_POINT('',(-1.713229810153,31.110768691846));
#781 = CARTESIAN_POINT('',(-1.737087917074,30.77279414195));
#782 = CARTESIAN_POINT('',(-1.748113018047,30.580217122591));
#783 = CARTESIAN_POINT('',(-1.757544288416,30.373655586166));
#784 = CARTESIAN_POINT('',(-1.765239766636,30.155642417463));
#785 = CARTESIAN_POINT('',(-1.771088755899,29.928900256323));
#786 = CARTESIAN_POINT('',(-1.775014787557,29.696269793685));
#787 = CARTESIAN_POINT('',(-1.7769784718,29.460655184324));
#788 = CARTESIAN_POINT('',(-1.7769784718,28.980037168042));
#789 = CARTESIAN_POINT('',(-1.774856707543,28.735392979704));
#790 = CARTESIAN_POINT('',(-1.770622385092,28.492677476666));
#791 = CARTESIAN_POINT('',(-1.764249166097,28.25364248875));
#792 = CARTESIAN_POINT('',(-1.755683464565,28.020374425347));
#793 = CARTESIAN_POINT('',(-1.744852644796,27.795525535424));
#794 = CARTESIAN_POINT('',(-1.731674423593,27.582626393489));
#795 = CARTESIAN_POINT('',(-1.703377696691,27.227043368577));
#796 = CARTESIAN_POINT('',(-1.68881274967,27.075298246064));
#797 = CARTESIAN_POINT('',(-1.67243216992,26.937493565175));
#798 = CARTESIAN_POINT('',(-1.654386681311,26.819138166442));
#799 = CARTESIAN_POINT('',(-1.634899681808,26.725020772592));
#800 = CARTESIAN_POINT('',(-1.614249812877,26.659200176927));
#801 = CARTESIAN_POINT('',(-1.592759909923,26.625));
#802 = CARTESIAN_POINT('',(-1.548832743663,26.625));
#803 = CARTESIAN_POINT('',(-1.527342840715,26.659200176938));
#804 = CARTESIAN_POINT('',(-1.506692971786,26.725020772577));
#805 = CARTESIAN_POINT('',(-1.487205972279,26.819138166425));
#806 = CARTESIAN_POINT('',(-1.469160483667,26.937493565195));
#807 = CARTESIAN_POINT('',(-1.452779903918,27.075298246093));
#808 = CARTESIAN_POINT('',(-1.438214956902,27.227043368544));
#809 = CARTESIAN_POINT('',(-1.409918229997,27.582626393489));
#810 = CARTESIAN_POINT('',(-1.396740008794,27.795525535424));
#811 = CARTESIAN_POINT('',(-1.385909189025,28.020374425347));
#812 = CARTESIAN_POINT('',(-1.377343487492,28.25364248875));
#813 = CARTESIAN_POINT('',(-1.370970268498,28.492677476666));
#814 = CARTESIAN_POINT('',(-1.366735946047,28.735392979704));
#815 = CARTESIAN_POINT('',(-1.36461418179,28.980037168042));
#816 = CARTESIAN_POINT('',(-1.36461418179,29.225));
#817 = ( GEOMETRIC_REPRESENTATION_CONTEXT(2) 
PARAMETRIC_REPRESENTATION_CONTEXT() REPRESENTATION_CONTEXT('2D SPACE',''
  ) );
#818 = PCURVE('',#819,#824);
#819 = CYLINDRICAL_SURFACE('',#820,2.6);
#820 = AXIS2_PLACEMENT_3D('',#821,#822,#823);
#821 = CARTESIAN_POINT('',(0.,29.225,0.));
#822 = DIRECTION('',(-0.,-0.,-1.));
#823 = DIRECTION('',(1.,0.,0.));
#824 = DEFINITIONAL_REPRESENTATION('',(#825),#884);
#825 = B_SPLINE_CURVE_WITH_KNOTS('',8,(#826,#827,#828,#829,#830,#831,
    #832,#833,#834,#835,#836,#837,#838,#839,#840,#841,#842,#843,#844,
    #845,#846,#847,#848,#849,#850,#851,#852,#853,#854,#855,#856,#857,
    #858,#859,#860,#861,#862,#863,#864,#865,#866,#867,#868,#869,#870,
    #871,#872,#873,#874,#875,#876,#877,#878,#879,#880,#881,#882,#883),
  .UNSPECIFIED.,.F.,.F.,(9,7,7,7,7,7,7,7,9),(0.,0.181561745124,
    0.336006071256,0.443054998075,0.559822105924,0.681201151754,
    0.779911052957,0.878620954175,1.),.UNSPECIFIED.);
#826 = CARTESIAN_POINT('',(0.,-12.43100961306));
#827 = CARTESIAN_POINT('',(-0.100842132464,-12.43100961306));
#828 = CARTESIAN_POINT('',(-0.201517069153,-12.43732941978));
#829 = CARTESIAN_POINT('',(-0.302843915788,-12.4499334291));
#830 = CARTESIAN_POINT('',(-0.405558208192,-12.46850340303));
#831 = CARTESIAN_POINT('',(-0.510390080188,-12.49241692486));
#832 = CARTESIAN_POINT('',(-0.618100428631,-12.52061250887));
#833 = CARTESIAN_POINT('',(-0.729542135472,-12.55141873819));
#834 = CARTESIAN_POINT('',(-0.944718812864,-12.60879991594));
#835 = CARTESIAN_POINT('',(-1.050915290259,-12.63633205223));
#836 = CARTESIAN_POINT('',(-1.162058903308,-12.66262792554));
#837 = CARTESIAN_POINT('',(-1.276675307898,-12.68471643855));
#838 = CARTESIAN_POINT('',(-1.393755142299,-12.69969742129));
#839 = CARTESIAN_POINT('',(-1.512487342752,-12.70578451134));
#840 = CARTESIAN_POINT('',(-1.632182423195,-12.70266909113));
#841 = CARTESIAN_POINT('',(-1.835119535074,-12.68350381485));
#842 = CARTESIAN_POINT('',(-1.918190077888,-12.67172487232));
#843 = CARTESIAN_POINT('',(-2.001254714182,-12.65633350886));
#844 = CARTESIAN_POINT('',(-2.084318998675,-12.63787703929));
#845 = CARTESIAN_POINT('',(-2.16738906848,-12.6170994081));
#846 = CARTESIAN_POINT('',(-2.250467287137,-12.59488994966));
#847 = CARTESIAN_POINT('',(-2.33354747608,-12.57221086674));
#848 = CARTESIAN_POINT('',(-2.507212599548,-12.52577993814));
#849 = CARTESIAN_POINT('',(-2.597855114763,-12.50210159109));
#850 = CARTESIAN_POINT('',(-2.688493088602,-12.48019700137));
#851 = CARTESIAN_POINT('',(-2.779116578365,-12.46126199625));
#852 = CARTESIAN_POINT('',(-2.869727223829,-12.44632276872));
#853 = CARTESIAN_POINT('',(-2.960335020014,-12.43611522166));
#854 = CARTESIAN_POINT('',(-3.050956044234,-12.43100961306));
#855 = CARTESIAN_POINT('',(-3.23580912742,-12.43100961306));
#856 = CARTESIAN_POINT('',(-3.329902769305,-12.43652614086));
#857 = CARTESIAN_POINT('',(-3.424530264418,-12.4475356143));
#858 = CARTESIAN_POINT('',(-3.520275143054,-12.46379223648));
#859 = CARTESIAN_POINT('',(-3.617733160103,-12.4848163726));
#860 = CARTESIAN_POINT('',(-3.71752493159,-12.50980846604));
#861 = CARTESIAN_POINT('',(-3.820324289607,-12.53753394519));
#862 = CARTESIAN_POINT('',(-4.013735957446,-12.58955684464));
#863 = CARTESIAN_POINT('',(-4.104873967113,-12.61402092442));
#864 = CARTESIAN_POINT('',(-4.199548586042,-12.63830956231));
#865 = CARTESIAN_POINT('',(-4.29719819212,-12.66074831403));
#866 = CARTESIAN_POINT('',(-4.397465528061,-12.67952410495));
#867 = CARTESIAN_POINT('',(-4.500135582823,-12.69299813162));
#868 = CARTESIAN_POINT('',(-4.605105324334,-12.7));
#869 = CARTESIAN_POINT('',(-4.819672636453,-12.7));
#870 = CARTESIAN_POINT('',(-4.924642377936,-12.69299813162));
#871 = CARTESIAN_POINT('',(-5.027312432694,-12.67952410495));
#872 = CARTESIAN_POINT('',(-5.127579768648,-12.66074831403));
#873 = CARTESIAN_POINT('',(-5.225229374742,-12.6383095623));
#874 = CARTESIAN_POINT('',(-5.319903993669,-12.61402092441));
#875 = CARTESIAN_POINT('',(-5.411042003306,-12.58955684464));
#876 = CARTESIAN_POINT('',(-5.604453671162,-12.53753394519));
#877 = CARTESIAN_POINT('',(-5.70725302918,-12.50980846604));
#878 = CARTESIAN_POINT('',(-5.807044800666,-12.4848163726));
#879 = CARTESIAN_POINT('',(-5.904502817715,-12.46379223648));
#880 = CARTESIAN_POINT('',(-6.000247696351,-12.4475356143));
#881 = CARTESIAN_POINT('',(-6.094875191465,-12.43652614086));
#882 = CARTESIAN_POINT('',(-6.188968833349,-12.43100961306));
#883 = CARTESIAN_POINT('',(-6.28318530718,-12.43100961306));
#884 = ( GEOMETRIC_REPRESENTATION_CONTEXT(2) 
PARAMETRIC_REPRESENTATION_CONTEXT() REPRESENTATION_CONTEXT('2D SPACE',''
  ) );
#885 = ADVANCED_FACE('',(#886),#819,.F.);
#886 = FACE_BOUND('',#887,.T.);
#887 = EDGE_LOOP('',(#888,#912,#933,#934));
#888 = ORIENTED_EDGE('',*,*,#889,.F.);
#889 = EDGE_CURVE('',#890,#890,#892,.T.);
#890 = VERTEX_POINT('',#891);
#891 = CARTESIAN_POINT('',(2.6,29.225,0.));
#892 = SURFACE_CURVE('',#893,(#898,#905),.PCURVE_S1.);
#893 = CIRCLE('',#894,2.6);
#894 = AXIS2_PLACEMENT_3D('',#895,#896,#897);
#895 = CARTESIAN_POINT('',(0.,29.225,0.));
#896 = DIRECTION('',(0.,0.,1.));
#897 = DIRECTION('',(1.,0.,0.));
#898 = PCURVE('',#819,#899);
#899 = DEFINITIONAL_REPRESENTATION('',(#900),#904);
#900 = LINE('',#901,#902);
#901 = CARTESIAN_POINT('',(-0.,0.));
#902 = VECTOR('',#903,1.);
#903 = DIRECTION('',(-1.,0.));
#904 = ( GEOMETRIC_REPRESENTATION_CONTEXT(2) 
PARAMETRIC_REPRESENTATION_CONTEXT() REPRESENTATION_CONTEXT('2D SPACE',''
  ) );
#905 = PCURVE('',#624,#906);
#906 = DEFINITIONAL_REPRESENTATION('',(#907),#911);
#907 = LINE('',#908,#909);
#908 = CARTESIAN_POINT('',(0.,0.));
#909 = VECTOR('',#910,1.);
#910 = DIRECTION('',(1.,0.));
#911 = ( GEOMETRIC_REPRESENTATION_CONTEXT(2) 
PARAMETRIC_REPRESENTATION_CONTEXT() REPRESENTATION_CONTEXT('2D SPACE',''
  ) );
#912 = ORIENTED_EDGE('',*,*,#913,.T.);
#913 = EDGE_CURVE('',#890,#694,#914,.T.);
#914 = SEAM_CURVE('',#915,(#919,#926),.PCURVE_S1.);
#915 = LINE('',#916,#917);
#916 = CARTESIAN_POINT('',(2.6,29.225,0.));
#917 = VECTOR('',#918,1.);
#918 = DIRECTION('',(0.,0.,1.));
#919 = PCURVE('',#819,#920);
#920 = DEFINITIONAL_REPRESENTATION('',(#921),#925);
#921 = LINE('',#922,#923);
#922 = CARTESIAN_POINT('',(-6.28318530718,0.));
#923 = VECTOR('',#924,1.);
#924 = DIRECTION('',(-0.,-1.));
#925 = ( GEOMETRIC_REPRESENTATION_CONTEXT(2) 
PARAMETRIC_REPRESENTATION_CONTEXT() REPRESENTATION_CONTEXT('2D SPACE',''
  ) );
#926 = PCURVE('',#819,#927);
#927 = DEFINITIONAL_REPRESENTATION('',(#928),#932);
#928 = LINE('',#929,#930);
#929 = CARTESIAN_POINT('',(-0.,0.));
#930 = VECTOR('',#931,1.);
#931 = DIRECTION('',(-0.,-1.));
#932 = ( GEOMETRIC_REPRESENTATION_CONTEXT(2) 
PARAMETRIC_REPRESENTATION_CONTEXT() REPRESENTATION_CONTEXT('2D SPACE',''
  ) );
#933 = ORIENTED_EDGE('',*,*,#693,.T.);
#934 = ORIENTED_EDGE('',*,*,#913,.F.);
#935 = ADVANCED_FACE('',(#936),#624,.F.);
#936 = FACE_BOUND('',#937,.F.);
#937 = EDGE_LOOP('',(#938,#939,#960,#961));
#938 = ORIENTED_EDGE('',*,*,#889,.F.);
#939 = ORIENTED_EDGE('',*,*,#940,.T.);
#940 = EDGE_CURVE('',#890,#499,#941,.T.);
#941 = SEAM_CURVE('',#942,(#946,#953),.PCURVE_S1.);
#942 = LINE('',#943,#944);
#943 = CARTESIAN_POINT('',(2.6,29.225,0.));
#944 = VECTOR('',#945,1.);
#945 = DIRECTION('',(-0.,-0.,-1.));
#946 = PCURVE('',#624,#947);
#947 = DEFINITIONAL_REPRESENTATION('',(#948),#952);
#948 = LINE('',#949,#950);
#949 = CARTESIAN_POINT('',(6.28318530718,0.));
#950 = VECTOR('',#951,1.);
#951 = DIRECTION('',(0.,-1.));
#952 = ( GEOMETRIC_REPRESENTATION_CONTEXT(2) 
PARAMETRIC_REPRESENTATION_CONTEXT() REPRESENTATION_CONTEXT('2D SPACE',''
  ) );
#953 = PCURVE('',#624,#954);
#954 = DEFINITIONAL_REPRESENTATION('',(#955),#959);
#955 = LINE('',#956,#957);
#956 = CARTESIAN_POINT('',(0.,0.));
#957 = VECTOR('',#958,1.);
#958 = DIRECTION('',(0.,-1.));
#959 = ( GEOMETRIC_REPRESENTATION_CONTEXT(2) 
PARAMETRIC_REPRESENTATION_CONTEXT() REPRESENTATION_CONTEXT('2D SPACE',''
  ) );
#960 = ORIENTED_EDGE('',*,*,#498,.T.);
#961 = ORIENTED_EDGE('',*,*,#940,.F.);
#962 = ADVANCED_FACE('',(#963),#429,.F.);
#963 = FACE_BOUND('',#964,.F.);
#964 = EDGE_LOOP('',(#965,#989,#1010,#1011));
#965 = ORIENTED_EDGE('',*,*,#966,.F.);
#966 = EDGE_CURVE('',#967,#967,#969,.T.);
#967 = VERTEX_POINT('',#968);
#968 = CARTESIAN_POINT('',(2.6,-29.225,0.));
#969 = SURFACE_CURVE('',#970,(#975,#982),.PCURVE_S1.);
#970 = CIRCLE('',#971,2.6);
#971 = AXIS2_PLACEMENT_3D('',#972,#973,#974);
#972 = CARTESIAN_POINT('',(0.,-29.225,0.));
#973 = DIRECTION('',(0.,0.,1.));
#974 = DIRECTION('',(1.,0.,0.));
#975 = PCURVE('',#429,#976);
#976 = DEFINITIONAL_REPRESENTATION('',(#977),#981);
#977 = LINE('',#978,#979);
#978 = CARTESIAN_POINT('',(0.,0.));
#979 = VECTOR('',#980,1.);
#980 = DIRECTION('',(1.,0.));
#981 = ( GEOMETRIC_REPRESENTATION_CONTEXT(2) 
PARAMETRIC_REPRESENTATION_CONTEXT() REPRESENTATION_CONTEXT('2D SPACE',''
  ) );
#982 = PCURVE('',#234,#983);
#983 = DEFINITIONAL_REPRESENTATION('',(#984),#988);
#984 = LINE('',#985,#986);
#985 = CARTESIAN_POINT('',(-0.,0.));
#986 = VECTOR('',#987,1.);
#987 = DIRECTION('',(-1.,0.));
#988 = ( GEOMETRIC_REPRESENTATION_CONTEXT(2) 
PARAMETRIC_REPRESENTATION_CONTEXT() REPRESENTATION_CONTEXT('2D SPACE',''
  ) );
#989 = ORIENTED_EDGE('',*,*,#990,.T.);
#990 = EDGE_CURVE('',#967,#304,#991,.T.);
#991 = SEAM_CURVE('',#992,(#996,#1003),.PCURVE_S1.);
#992 = LINE('',#993,#994);
#993 = CARTESIAN_POINT('',(2.6,-29.225,0.));
#994 = VECTOR('',#995,1.);
#995 = DIRECTION('',(-0.,-0.,-1.));
#996 = PCURVE('',#429,#997);
#997 = DEFINITIONAL_REPRESENTATION('',(#998),#1002);
#998 = LINE('',#999,#1000);
#999 = CARTESIAN_POINT('',(6.28318530718,0.));
#1000 = VECTOR('',#1001,1.);
#1001 = DIRECTION('',(0.,-1.));
#1002 = ( GEOMETRIC_REPRESENTATION_CONTEXT(2) 
PARAMETRIC_REPRESENTATION_CONTEXT() REPRESENTATION_CONTEXT('2D SPACE',''
  ) );
#1003 = PCURVE('',#429,#1004);
#1004 = DEFINITIONAL_REPRESENTATION('',(#1005),#1009);
#1005 = LINE('',#1006,#1007);
#1006 = CARTESIAN_POINT('',(0.,0.));
#1007 = VECTOR('',#1008,1.);
#1008 = DIRECTION('',(0.,-1.));
#1009 = ( GEOMETRIC_REPRESENTATION_CONTEXT(2) 
PARAMETRIC_REPRESENTATION_CONTEXT() REPRESENTATION_CONTEXT('2D SPACE',''
  ) );
#1010 = ORIENTED_EDGE('',*,*,#303,.T.);
#1011 = ORIENTED_EDGE('',*,*,#990,.F.);
#1012 = ADVANCED_FACE('',(#1013),#234,.F.);
#1013 = FACE_BOUND('',#1014,.T.);
#1014 = EDGE_LOOP('',(#1015,#1016,#1037,#1038));
#1015 = ORIENTED_EDGE('',*,*,#966,.F.);
#1016 = ORIENTED_EDGE('',*,*,#1017,.T.);
#1017 = EDGE_CURVE('',#967,#109,#1018,.T.);
#1018 = SEAM_CURVE('',#1019,(#1023,#1030),.PCURVE_S1.);
#1019 = LINE('',#1020,#1021);
#1020 = CARTESIAN_POINT('',(2.6,-29.225,0.));
#1021 = VECTOR('',#1022,1.);
#1022 = DIRECTION('',(0.,0.,1.));
#1023 = PCURVE('',#234,#1024);
#1024 = DEFINITIONAL_REPRESENTATION('',(#1025),#1029);
#1025 = LINE('',#1026,#1027);
#1026 = CARTESIAN_POINT('',(-6.28318530718,0.));
#1027 = VECTOR('',#1028,1.);
#1028 = DIRECTION('',(-0.,-1.));
#1029 = ( GEOMETRIC_REPRESENTATION_CONTEXT(2) 
PARAMETRIC_REPRESENTATION_CONTEXT() REPRESENTATION_CONTEXT('2D SPACE',''
  ) );
#1030 = PCURVE('',#234,#1031);
#1031 = DEFINITIONAL_REPRESENTATION('',(#1032),#1036);
#1032 = LINE('',#1033,#1034);
#1033 = CARTESIAN_POINT('',(-0.,0.));
#1034 = VECTOR('',#1035,1.);
#1035 = DIRECTION('',(-0.,-1.));
#1036 = ( GEOMETRIC_REPRESENTATION_CONTEXT(2) 
PARAMETRIC_REPRESENTATION_CONTEXT() REPRESENTATION_CONTEXT('2D SPACE',''
  ) );
#1037 = ORIENTED_EDGE('',*,*,#108,.T.);
#1038 = ORIENTED_EDGE('',*,*,#1017,.F.);
#1039 = ADVANCED_FACE('',(#1040),#93,.F.);
#1040 = FACE_BOUND('',#1041,.F.);
#1041 = EDGE_LOOP('',(#1042));
#1042 = ORIENTED_EDGE('',*,*,#78,.T.);
#1043 = ADVANCED_FACE('',(#1044),#43,.T.);
#1044 = FACE_BOUND('',#1045,.T.);
#1045 = EDGE_LOOP('',(#1046));
#1046 = ORIENTED_EDGE('',*,*,#21,.T.);
#1047 = ( GEOMETRIC_REPRESENTATION_CONTEXT(3) 
GLOBAL_UNCERTAINTY_ASSIGNED_CONTEXT((#1051)) 
GLOBAL_UNIT_ASSIGNED_CONTEXT((#1048,#1049,#1050)) REPRESENTATION_CONTEXT
('Context #1','3D Context with UNIT and UNCERTAINTY') );
#1048 = ( LENGTH_UNIT() NAMED_UNIT(*) SI_UNIT(.MILLI.,.METRE.) );
#1049 = ( NAMED_UNIT(*) PLANE_ANGLE_UNIT() SI_UNIT($,.RADIAN.) );
#1050 = ( NAMED_UNIT(*) SI_UNIT($,.STERADIAN.) SOLID_ANGLE_UNIT() );
#1051 = UNCERTAINTY_MEASURE_WITH_UNIT(LENGTH_MEASURE(1.E-07),#1048,
  'distance_accuracy_value','confusion accuracy');
#1052 = PRODUCT_RELATED_PRODUCT_CATEGORY('part',$,(#7));
ENDSEC;
END-ISO-10303-21;
