  0
SECTION
  2
HEADER
  9
$ACADVER
  1
AC1024
  9
$ACADMAINTVER
 70
6
  9
$DWGCODEPAGE
  3
ANSI_1252
  9
$LASTSAVEDBY
  1
ezdxf
  9
$INSBASE
 10
0.0
 20
0.0
 30
0.0
  9
$EXTMIN
 10
1e+20
 20
1e+20
 30
1e+20
  9
$EXTMAX
 10
-1e+20
 20
-1e+20
 30
-1e+20
  9
$LIMMIN
 10
0.0
 20
0.0
  9
$LIMMAX
 10
420.0
 20
297.0
  9
$ORTHOMODE
 70
0
  9
$REGENMODE
 70
1
  9
$FILLMODE
 70
1
  9
$QTEXTMODE
 70
0
  9
$MIRRTEXT
 70
1
  9
$LTSCALE
 40
1.0
  9
$ATTMODE
 70
1
  9
$TEXTSIZE
 40
2.5
  9
$TRACEWID
 40
1.0
  9
$TEXTSTYLE
  7
OpenSans
  9
$CLAYER
  8
0
  9
$CELTYPE
  6
ByLayer
  9
$CECOLOR
 62
256
  9
$CELTSCALE
 40
1.0
  9
$DISPSILH
 70
0
  9
$DIMSCALE
 40
1.0
  9
$DIMASZ
 40
0.175
  9
$DIMEXO
 40
0.125
  9
$DIMDLI
 40
3.75
  9
$DIMRND
 40
0.0
  9
$DIMDLE
 40
0.0
  9
$DIMEXE
 40
0.375
  9
$DIMTP
 40
0.0
  9
$DIMTM
 40
0.0
  9
$DIMTXT
 40
0.25
  9
$DIMCEN
 40
2.5
  9
$DIMTSZ
 40
0.0
  9
$DIMTOL
 70
0
  9
$DIMLIM
 70
0
  9
$DIMTIH
 70
0
  9
$DIMTOH
 70
0
  9
$DIMSE1
 70
0
  9
$DIMSE2
 70
0
  9
$DIMTAD
 70
1
  9
$DIMZIN
 70
12
  9
$DIMBLK
  1
ARCHTICK
  9
$DIMASO
 70
1
  9
$DIMSHO
 70
1
  9
$DIMPOST
  1

  9
$DIMAPOST
  1

  9
$DIMALT
 70
0
  9
$DIMALTD
 70
3
  9
$DIMALTF
 40
0.03937007874
  9
$DIMLFAC
 40
100.0
  9
$DIMTOFL
 70
1
  9
$DIMTVP
 40
0.0
  9
$DIMTIX
 70
0
  9
$DIMSOXD
 70
0
  9
$DIMSAH
 70
0
  9
$DIMBLK1
  1

  9
$DIMBLK2
  1

  9
$DIMSTYLE
  2
EZDXF
  9
$DIMCLRD
 70
0
  9
$DIMCLRE
 70
0
  9
$DIMCLRT
 70
0
  9
$DIMTFAC
 40
0.5
  9
$DIMGAP
 40
0.1
  9
$DIMJUST
 70
0
  9
$DIMSD1
 70
0
  9
$DIMSD2
 70
0
  9
$DIMTOLJ
 70
0
  9
$DIMTZIN
 70
8
  9
$DIMALTZ
 70
0
  9
$DIMALTTZ
 70
0
  9
$DIMUPT
 70
1
  9
$DIMDEC
 70
2
  9
$DIMTDEC
 70
2
  9
$DIMALTU
 70
2
  9
$DIMALTTD
 70
3
  9
$DIMTXSTY
  7
OpenSansCondensed-Light
  9
$DIMAUNIT
 70
0
  9
$DIMADEC
 70
2
  9
$DIMALTRND
 40
0.0
  9
$DIMAZIN
 70
3
  9
$DIMDSEP
 70
46
  9
$DIMATFIT
 70
3
  9
$DIMFRAC
 70
0
  9
$DIMLDRBLK
  1

  9
$DIMLUNIT
 70
2
  9
$DIMLWD
 70
-2
  9
$DIMLWE
 70
-2
  9
$DIMTMOVE
 70
2
  9
$DIMFXL
 40
1.0
  9
$DIMFXLON
 70
0
  9
$DIMJOGANG
 40
0.785398163397
  9
$DIMTFILL
 70
0
  9
$DIMTFILLCLR
 70
0
  9
$DIMARCSYM
 70
0
  9
$DIMLTYPE
  6

  9
$DIMLTEX1
  6

  9
$DIMLTEX2
  6

  9
$DIMTXTDIRECTION
 70
0
  9
$LUNITS
 70
2
  9
$LUPREC
 70
4
  9
$SKETCHINC
 40
1.0
  9
$FILLETRAD
 40
10.0
  9
$AUNITS
 70
0
  9
$AUPREC
 70
2
  9
$MENU
  1
.
  9
$ELEVATION
 40
0.0
  9
$PELEVATION
 40
0.0
  9
$THICKNESS
 40
0.0
  9
$LIMCHECK
 70
0
  9
$CHAMFERA
 40
0.0
  9
$CHAMFERB
 40
0.0
  9
$CHAMFERC
 40
0.0
  9
$CHAMFERD
 40
0.0
  9
$SKPOLY
 70
0
  9
$TDCREATE
 40
2461308.980150463
  9
$TDUCREATE
 40
2458532.153996898
  9
$TDUPDATE
 40
2461308.980150463
  9
$TDUUPDATE
 40
2458532.1544311
  9
$TDINDWG
 40
0.0
  9
$TDUSRTIMER
 40
0.0
  9
$USRTIMER
 70
1
  9
$ANGBASE
 50
0.0
  9
$ANGDIR
 70
0
  9
$PDMODE
 70
0
  9
$PDSIZE
 40
0.0
  9
$PLINEWID
 40
0.0
  9
$SPLFRAME
 70
0
  9
$SPLINETYPE
 70
6
  9
$SPLINESEGS
 70
8
  9
$HANDSEED
  5
A2
  9
$SURFTAB1
 70
6
  9
$SURFTAB2
 70
6
  9
$SURFTYPE
 70
6
  9
$SURFU
 70
6
  9
$SURFV
 70
6
  9
$UCSBASE
  2

  9
$UCSNAME
  2

  9
$UCSORG
 10
0.0
 20
0.0
 30
0.0
  9
$UCSXDIR
 10
1.0
 20
0.0
 30
0.0
  9
$UCSYDIR
 10
0.0
 20
1.0
 30
0.0
  9
$UCSORTHOREF
  2

  9
$UCSORTHOVIEW
 70
0
  9
$UCSORGTOP
 10
0.0
 20
0.0
 30
0.0
  9
$UCSORGBOTTOM
 10
0.0
 20
0.0
 30
0.0
  9
$UCSORGLEFT
 10
0.0
 20
0.0
 30
0.0
  9
$UCSORGRIGHT
 10
0.0
 20
0.0
 30
0.0
  9
$UCSORGFRONT
 10
0.0
 20
0.0
 30
0.0
  9
$UCSORGBACK
 10
0.0
 20
0.0
 30
0.0
  9
$PUCSBASE
  2

  9
$PUCSNAME
  2

  9
$PUCSORG
 10
0.0
 20
0.0
 30
0.0
  9
$PUCSXDIR
 10
1.0
 20
0.0
 30
0.0
  9
$PUCSYDIR
 10
0.0
 20
1.0
 30
0.0
  9
$PUCSORTHOREF
  2

  9
$PUCSORTHOVIEW
 70
0
  9
$PUCSORGTOP
 10
0.0
 20
0.0
 30
0.0
  9
$PUCSORGBOTTOM
 10
0.0
 20
0.0
 30
0.0
  9
$PUCSORGLEFT
 10
0.0
 20
0.0
 30
0.0
  9
$PUCSORGRIGHT
 10
0.0
 20
0.0
 30
0.0
  9
$PUCSORGFRONT
 10
0.0
 20
0.0
 30
0.0
  9
$PUCSORGBACK
 10
0.0
 20
0.0
 30
0.0
  9
$USERI1
 70
0
  9
$USERI2
 70
0
  9
$USERI3
 70
0
  9
$USERI4
 70
0
  9
$USERI5
 70
0
  9
$USERR1
 40
0.0
  9
$USERR2
 40
0.0
  9
$USERR3
 40
0.0
  9
$USERR4
 40
0.0
  9
$USERR5
 40
0.0
  9
$WORLDVIEW
 70
1
  9
$SHADEDGE
 70
3
  9
$SHADEDIF
 70
70
  9
$TILEMODE
 70
1
  9
$MAXACTVP
 70
64
  9
$PINSBASE
 10
0.0
 20
0.0
 30
0.0
  9
$PLIMCHECK
 70
0
  9
$PEXTMIN
 10
1e+20
 20
1e+20
 30
1e+20
  9
$PEXTMAX
 10
-1e+20
 20
-1e+20
 30
-1e+20
  9
$PLIMMIN
 10
0.0
 20
0.0
  9
$PLIMMAX
 10
420.0
 20
297.0
  9
$UNITMODE
 70
0
  9
$VISRETAIN
 70
1
  9
$PLINEGEN
 70
0
  9
$PSLTSCALE
 70
1
  9
$TREEDEPTH
 70
3020
  9
$CMLSTYLE
  2
Standard
  9
$CMLJUST
 70
0
  9
$CMLSCALE
 40
20.0
  9
$PROXYGRAPHICS
 70
1
  9
$MEASUREMENT
 70
1
  9
$CELWEIGHT
370
-1
  9
$ENDCAPS
280
0
  9
$JOINSTYLE
280
0
  9
$LWDISPLAY
290
0
  9
$INSUNITS
 70
4
  9
$HYPERLINKBASE
  1

  9
$STYLESHEET
  1

  9
$XEDIT
290
1
  9
$CEPSNTYPE
380
0
  9
$PSTYLEMODE
290
1
  9
$FINGERPRINTGUID
  2
{5C435F57-4053-4C18-A3CB-25DB2C8F60D5}
  9
$VERSIONGUID
  2
{36A5D6FF-3C47-403F-8E76-B68118A7F9DF}
  9
$EXTNAMES
290
1
  9
$PSVPSCALE
 40
0.0
  9
$OLESTARTUP
290
0
  9
$SORTENTS
280
127
  9
$INDEXCTL
280
0
  9
$HIDETEXT
280
1
  9
$XCLIPFRAME
280
1
  9
$HALOGAP
280
0
  9
$OBSCOLOR
 70
257
  9
$OBSLTYPE
280
0
  9
$INTERSECTIONDISPLAY
280
0
  9
$INTERSECTIONCOLOR
 70
257
  9
$DIMASSOC
280
2
  9
$PROJECTNAME
  1

  9
$CAMERADISPLAY
290
0
  9
$LENSLENGTH
 40
50.0
  9
$CAMERAHEIGHT
 40
0.0
  9
$STEPSPERSEC
 40
24.0
  9
$STEPSIZE
 40
100.0
  9
$3DDWFPREC
 40
2.0
  9
$PSOLWIDTH
 40
0.005
  9
$PSOLHEIGHT
 40
0.08
  9
$LOFTANG1
 40
1.570796326795
  9
$LOFTANG2
 40
1.570796326795
  9
$LOFTMAG1
 40
0.0
  9
$LOFTMAG2
 40
0.0
  9
$LOFTPARAM
 70
7
  9
$LOFTNORMALS
280
1
  9
$LATITUDE
 40
37.795
  9
$LONGITUDE
 40
-122.394
  9
$NORTHDIRECTION
 40
0.0
  9
$TIMEZONE
 70
-8000
  9
$LIGHTGLYPHDISPLAY
280
1
  9
$TILEMODELIGHTSYNCH
280
1
  9
$CMATERIAL
347
20
  9
$SOLIDHIST
280
0
  9
$SHOWHIST
280
1
  9
$DWFFRAME
280
2
  9
$DGNFRAME
280
2
  9
$REALWORLDSCALE
290
1
  9
$INTERFERECOLOR
 62
256
  9
$CSHADOW
280
0
  9
$SHADOWPLANELOCATION
 40
0.0
  0
ENDSEC
  0
SECTION
  2
CLASSES
  0
CLASS
  1
ACDBDICTIONARYWDFLT
  2
AcDbDictionaryWithDefault
  3
ObjectDBX Classes
 90
0
 91
0
280
0
281
0
  0
CLASS
  1
SUN
  2
AcDbSun
  3
SCENEOE
 90
1153
 91
0
280
0
281
0
  0
CLASS
  1
VISUALSTYLE
  2
AcDbVisualStyle
  3
ObjectDBX Classes
 90
4095
 91
0
280
0
281
0
  0
CLASS
  1
MATERIAL
  2
AcDbMaterial
  3
ObjectDBX Classes
 90
1153
 91
0
280
0
281
0
  0
CLASS
  1
SCALE
  2
AcDbScale
  3
ObjectDBX Classes
 90
1153
 91
0
280
0
281
0
  0
CLASS
  1
TABLESTYLE
  2
AcDbTableStyle
  3
ObjectDBX Classes
 90
4095
 91
0
280
0
281
0
  0
CLASS
  1
MLEADERSTYLE
  2
AcDbMLeaderStyle
  3
ACDB_MLEADERSTYLE_CLASS
 90
4095
 91
0
280
0
281
0
  0
CLASS
  1
DICTIONARYVAR
  2
AcDbDictionaryVar
  3
ObjectDBX Classes
 90
0
 91
0
280
0
281
0
  0
CLASS
  1
CELLSTYLEMAP
  2
AcDbCellStyleMap
  3
ObjectDBX Classes
 90
1152
 91
0
280
0
281
0
  0
CLASS
  1
MENTALRAYRENDERSETTINGS
  2
AcDbMentalRayRenderSettings
  3
SCENEOE
 90
1024
 91
0
280
0
281
0
  0
CLASS
  1
ACDBDETAILVIEWSTYLE
  2
AcDbDetailViewStyle
  3
ObjectDBX Classes
 90
1025
 91
0
280
0
281
0
  0
CLASS
  1
ACDBSECTIONVIEWSTYLE
  2
AcDbSectionViewStyle
  3
ObjectDBX Classes
 90
1025
 91
0
280
0
281
0
  0
CLASS
  1
RASTERVARIABLES
  2
AcDbRasterVariables
  3
ISM
 90
0
 91
0
280
0
281
0
  0
CLASS
  1
ACDBPLACEHOLDER
  2
AcDbPlaceHolder
  3
ObjectDBX Classes
 90
0
 91
0
280
0
281
0
  0
CLASS
  1
LAYOUT
  2
AcDbLayout
  3
ObjectDBX Classes
 90
0
 91
0
280
0
281
0
  0
ENDSEC
  0
SECTION
  2
TABLES
  0
TABLE
  2
VPORT
  5
8
330
0
100
AcDbSymbolTable
 70
1
  0
VPORT
  5
23
330
8
100
AcDbSymbolTableRecord
100
AcDbViewportTableRecord
  2
*Active
 70
0
 10
0.0
 20
0.0
 11
1.0
 21
1.0
 12
0.0
 22
0.0
 13
0.0
 23
0.0
 14
0.5
 24
0.5
 15
0.5
 25
0.5
 16
0.0
 26
0.0
 36
1.0
 17
0.0
 27
0.0
 37
0.0
 40
1000.0
 41
1.34
 42
50.0
 43
0.0
 44
0.0
 50
0.0
 51
0.0
 71
0
 72
1000
 73
1
 74
3
 75
0
 76
0
 77
0
 78
0
281
0
 65
0
146
0.0
  0
ENDTAB
  0
TABLE
  2
LTYPE
  5
2
330
0
100
AcDbSymbolTable
 70
21
  0
LTYPE
  5
24
330
2
100
AcDbSymbolTableRecord
100
AcDbLinetypeTableRecord
  2
ByBlock
 70
0
  3

 72
65
 73
0
 40
0.0
  0
LTYPE
  5
25
330
2
100
AcDbSymbolTableRecord
100
AcDbLinetypeTableRecord
  2
ByLayer
 70
0
  3

 72
65
 73
0
 40
0.0
  0
LTYPE
  5
26
330
2
100
AcDbSymbolTableRecord
100
AcDbLinetypeTableRecord
  2
Continuous
 70
0
  3

 72
65
 73
0
 40
0.0
  0
LTYPE
  5
2F
330
2
100
AcDbSymbolTableRecord
100
AcDbLinetypeTableRecord
  2
CENTER
 70
0
  3
Center ____ _ ____ _ ____ _ ____ _ ____ _ ____
 72
65
 73
4
 40
5.08
 49
3.175
 74
0
 49
-0.635
 74
0
 49
0.635
 74
0
 49
-0.635
 74
0
  0
LTYPE
  5
30
330
2
100
AcDbSymbolTableRecord
100
AcDbLinetypeTableRecord
  2
CENTERX2
 70
0
  3
Center (2x) ________  __  ________  __  ________
 72
65
 73
4
 40
8.89
 49
6.35
 74
0
 49
-0.635
 74
0
 49
1.27
 74
0
 49
-0.635
 74
0
  0
LTYPE
  5
31
330
2
100
AcDbSymbolTableRecord
100
AcDbLinetypeTableRecord
  2
CENTER2
 70
0
  3
Center (.5x) ____ _ ____ _ ____ _ ____ _ ____
 72
65
 73
4
 40
2.54
 49
1.587
 74
0
 49
-0.318
 74
0
 49
0.318
 74
0
 49
-0.318
 74
0
  0
LTYPE
  5
32
330
2
100
AcDbSymbolTableRecord
100
AcDbLinetypeTableRecord
  2
DASHED
 70
0
  3
Dashed __ __ __ __ __ __ __ __ __ __ __ __ __ _
 72
65
 73
2
 40
1.524
 49
1.27
 74
0
 49
-0.254
 74
0
  0
LTYPE
  5
33
330
2
100
AcDbSymbolTableRecord
100
AcDbLinetypeTableRecord
  2
DASHEDX2
 70
0
  3
Dashed (2x) ____  ____  ____  ____  ____  ____
 72
65
 73
2
 40
3.048
 49
2.54
 74
0
 49
-0.508
 74
0
  0
LTYPE
  5
34
330
2
100
AcDbSymbolTableRecord
100
AcDbLinetypeTableRecord
  2
DASHED2
 70
0
  3
Dashed (.5x) _ _ _ _ _ _ _ _ _ _ _ _ _ _
 72
65
 73
2
 40
0.762
 49
0.635
 74
0
 49
-0.127
 74
0
  0
LTYPE
  5
35
330
2
100
AcDbSymbolTableRecord
100
AcDbLinetypeTableRecord
  2
PHANTOM
 70
0
  3
Phantom ______  __  __  ______  __  __  ______
 72
65
 73
6
 40
6.35
 49
3.175
 74
0
 49
-0.635
 74
0
 49
0.635
 74
0
 49
-0.635
 74
0
 49
0.635
 74
0
 49
-0.635
 74
0
  0
LTYPE
  5
36
330
2
100
AcDbSymbolTableRecord
100
AcDbLinetypeTableRecord
  2
PHANTOMX2
 70
0
  3
Phantom (2x)____________    ____    ____    ____________
 72
65
 73
6
 40
10.795
 49
6.35
 74
0
 49
-0.635
 74
0
 49
1.27
 74
0
 49
-0.635
 74
0
 49
1.27
 74
0
 49
-0.635
 74
0
  0
LTYPE
  5
37
330
2
100
AcDbSymbolTableRecord
100
AcDbLinetypeTableRecord
  2
PHANTOM2
 70
0
  3
Phantom (.5x) ___ _ _ ___ _ _ ___ _ _ ___ _ _ ___
 72
65
 73
6
 40
3.175
 49
1.587
 74
0
 49
-0.318
 74
0
 49
0.318
 74
0
 49
-0.318
 74
0
 49
0.318
 74
0
 49
-0.318
 74
0
  0
LTYPE
  5
38
330
2
100
AcDbSymbolTableRecord
100
AcDbLinetypeTableRecord
  2
DASHDOT
 70
0
  3
Dash dot __ . __ . __ . __ . __ . __ . __ . __
 72
65
 73
4
 40
3.556
 49
2.54
 74
0
 49
-0.508
 74
0
 49
0.0
 74
0
 49
-0.508
 74
0
  0
LTYPE
  5
39
330
2
100
AcDbSymbolTableRecord
100
AcDbLinetypeTableRecord
  2
DASHDOTX2
 70
0
  3
Dash dot (2x) ____  .  ____  .  ____  .  ____
 72
65
 73
4
 40
6.096
 49
5.08
 74
0
 49
-0.508
 74
0
 49
0.0
 74
0
 49
-0.508
 74
0
  0
LTYPE
  5
3A
330
2
100
AcDbSymbolTableRecord
100
AcDbLinetypeTableRecord
  2
DASHDOT2
 70
0
  3
Dash dot (.5x) _ . _ . _ . _ . _ . _ . _ . _
 72
65
 73
4
 40
1.778
 49
1.27
 74
0
 49
-0.254
 74
0
 49
0.0
 74
0
 49
-0.254
 74
0
  0
LTYPE
  5
3B
330
2
100
AcDbSymbolTableRecord
100
AcDbLinetypeTableRecord
  2
DOT
 70
0
  3
Dot .  .  .  .  .  .  .  .  .  .  .  .  .  .  .  .
 72
65
 73
2
 40
0.508
 49
0.0
 74
0
 49
-0.508
 74
0
  0
LTYPE
  5
3C
330
2
100
AcDbSymbolTableRecord
100
AcDbLinetypeTableRecord
  2
DOTX2
 70
0
  3
Dot (2x) .    .    .    .    .    .    .    . 
 72
65
 73
2
 40
1.016
 49
0.0
 74
0
 49
-1.016
 74
0
  0
LTYPE
  5
3D
330
2
100
AcDbSymbolTableRecord
100
AcDbLinetypeTableRecord
  2
DOT2
 70
0
  3
Dot (.5) . . . . . . . . . . . . . . . . . . . 
 72
65
 73
2
 40
0.254
 49
0.0
 74
0
 49
-0.254
 74
0
  0
LTYPE
  5
3E
330
2
100
AcDbSymbolTableRecord
100
AcDbLinetypeTableRecord
  2
DIVIDE
 70
0
  3
Divide __ . . __ . . __ . . __ . . __ . . __
 72
65
 73
6
 40
4.064
 49
2.54
 74
0
 49
-0.508
 74
0
 49
0.0
 74
0
 49
-0.508
 74
0
 49
0.0
 74
0
 49
-0.508
 74
0
  0
LTYPE
  5
3F
330
2
100
AcDbSymbolTableRecord
100
AcDbLinetypeTableRecord
  2
DIVIDEX2
 70
0
  3
Divide (2x) ____  . .  ____  . .  ____  . .  ____
 72
65
 73
6
 40
6.604
 49
5.08
 74
0
 49
-0.508
 74
0
 49
0.0
 74
0
 49
-0.508
 74
0
 49
0.0
 74
0
 49
-0.508
 74
0
  0
LTYPE
  5
40
330
2
100
AcDbSymbolTableRecord
100
AcDbLinetypeTableRecord
  2
DIVIDE2
 70
0
  3
Divide(.5x) _ . _ . _ . _ . _ . _ . _ . _
 72
65
 73
6
 40
2.032
 49
1.27
 74
0
 49
-0.254
 74
0
 49
0.0
 74
0
 49
-0.254
 74
0
 49
0.0
 74
0
 49
-0.254
 74
0
  0
ENDTAB
  0
TABLE
  2
LAYER
  5
1
330
0
100
AcDbSymbolTable
 70
4
  0
LAYER
  5
27
330
1
100
AcDbSymbolTableRecord
100
AcDbLayerTableRecord
  2
0
 70
0
 62
7
  6
Continuous
370
-3
390
13
347
21
  0
LAYER
  5
28
330
1
100
AcDbSymbolTableRecord
100
AcDbLayerTableRecord
  2
Defpoints
 70
0
 62
7
  6
Continuous
290
0
370
-3
390
13
347
21
  0
LAYER
  5
8A
330
1
100
AcDbSymbolTableRecord
100
AcDbLayerTableRecord
  2
CORTE
 70
0
 62
1
  6
Continuous
370
-3
390
13
347
21
  0
LAYER
  5
8B
330
1
100
AcDbSymbolTableRecord
100
AcDbLayerTableRecord
  2
NOTAS
 70
0
 62
3
  6
Continuous
370
-3
390
13
347
21
  0
ENDTAB
  0
TABLE
  2
STYLE
  5
5
330
0
100
AcDbSymbolTable
 70
26
  0
STYLE
  5
29
330
5
100
AcDbSymbolTableRecord
100
AcDbTextStyleTableRecord
  2
Standard
 70
0
 40
0.0
 41
1.0
 50
0.0
 71
0
 42
2.5
  3
txt
  4

  0
STYLE
  5
41
330
5
100
AcDbSymbolTableRecord
100
AcDbTextStyleTableRecord
  2
OpenSans-Light
 70
0
 40
0.0
 41
1.0
 50
0.0
 71
0
 42
2.5
  3
OpenSans-Light.ttf
  4

  0
STYLE
  5
42
330
5
100
AcDbSymbolTableRecord
100
AcDbTextStyleTableRecord
  2
OpenSans-Light-Italic
 70
0
 40
0.0
 41
1.0
 50
0.0
 71
0
 42
2.5
  3
OpenSans-LightItalic.ttf
  4

  0
STYLE
  5
43
330
5
100
AcDbSymbolTableRecord
100
AcDbTextStyleTableRecord
  2
OpenSans
 70
0
 40
0.0
 41
1.0
 50
0.0
 71
0
 42
2.5
  3
OpenSans-Regular.ttf
  4

  0
STYLE
  5
44
330
5
100
AcDbSymbolTableRecord
100
AcDbTextStyleTableRecord
  2
OpenSans-Italic
 70
0
 40
0.0
 41
1.0
 50
0.0
 71
0
 42
2.5
  3
OpenSans-Italic.ttf
  4

  0
STYLE
  5
45
330
5
100
AcDbSymbolTableRecord
100
AcDbTextStyleTableRecord
  2
OpenSans-SemiBold
 70
0
 40
0.0
 41
1.0
 50
0.0
 71
0
 42
2.5
  3
OpenSans-SemiBold.ttf
  4

  0
STYLE
  5
46
330
5
100
AcDbSymbolTableRecord
100
AcDbTextStyleTableRecord
  2
OpenSans-SemiBoldItalic
 70
0
 40
0.0
 41
1.0
 50
0.0
 71
0
 42
2.5
  3
OpenSans-SemiBoldItalic.ttf
  4

  0
STYLE
  5
47
330
5
100
AcDbSymbolTableRecord
100
AcDbTextStyleTableRecord
  2
OpenSans-Bold
 70
0
 40
0.0
 41
1.0
 50
0.0
 71
0
 42
2.5
  3
OpenSans-Bold.ttf
  4

  0
STYLE
  5
48
330
5
100
AcDbSymbolTableRecord
100
AcDbTextStyleTableRecord
  2
OpenSans-BoldItalic
 70
0
 40
0.0
 41
1.0
 50
0.0
 71
0
 42
2.5
  3
OpenSans-BoldItalic.ttf
  4

  0
STYLE
  5
49
330
5
100
AcDbSymbolTableRecord
100
AcDbTextStyleTableRecord
  2
OpenSans-ExtraBold
 70
0
 40
0.0
 41
1.0
 50
0.0
 71
0
 42
2.5
  3
OpenSans-ExtraBold.ttf
  4

  0
STYLE
  5
4A
330
5
100
AcDbSymbolTableRecord
100
AcDbTextStyleTableRecord
  2
OpenSans-ExtraBoldItalic
 70
0
 40
0.0
 41
1.0
 50
0.0
 71
0
 42
2.5
  3
OpenSans-ExtraBoldItalic.ttf
  4

  0
STYLE
  5
4B
330
5
100
AcDbSymbolTableRecord
100
AcDbTextStyleTableRecord
  2
OpenSansCondensed-Bold
 70
0
 40
0.0
 41
1.0
 50
0.0
 71
0
 42
2.5
  3
OpenSansCondensed-Bold.ttf
  4

  0
STYLE
  5
4C
330
5
100
AcDbSymbolTableRecord
100
AcDbTextStyleTableRecord
  2
OpenSansCondensed-Light
 70
0
 40
0.0
 41
1.0
 50
0.0
 71
0
 42
2.5
  3
OpenSansCondensed-Light.ttf
  4

  0
STYLE
  5
4D
330
5
100
AcDbSymbolTableRecord
100
AcDbTextStyleTableRecord
  2
OpenSansCondensed-Italic
 70
0
 40
0.0
 41
1.0
 50
0.0
 71
0
 42
2.5
  3
OpenSansCondensed-LightItalic.ttf
  4

  0
STYLE
  5
4E
330
5
100
AcDbSymbolTableRecord
100
AcDbTextStyleTableRecord
  2
LiberationSans
 70
0
 40
0.0
 41
1.0
 50
0.0
 71
0
 42
2.5
  3
LiberationSans-Regular.ttf
  4

  0
STYLE
  5
4F
330
5
100
AcDbSymbolTableRecord
100
AcDbTextStyleTableRecord
  2
LiberationSans-Bold
 70
0
 40
0.0
 41
1.0
 50
0.0
 71
0
 42
2.5
  3
LiberationSans-Bold.ttf
  4

  0
STYLE
  5
50
330
5
100
AcDbSymbolTableRecord
100
AcDbTextStyleTableRecord
  2
LiberationSans-BoldItalic
 70
0
 40
0.0
 41
1.0
 50
0.0
 71
0
 42
2.5
  3
LiberationSans-BoldItalic.ttf
  4

  0
STYLE
  5
51
330
5
100
AcDbSymbolTableRecord
100
AcDbTextStyleTableRecord
  2
LiberationSans-Italic
 70
0
 40
0.0
 41
1.0
 50
0.0
 71
0
 42
2.5
  3
LiberationSans-Italic.ttf
  4

  0
STYLE
  5
52
330
5
100
AcDbSymbolTableRecord
100
AcDbTextStyleTableRecord
  2
LiberationSerif
 70
0
 40
0.0
 41
1.0
 50
0.0
 71
0
 42
2.5
  3
LiberationSerif-Regular.ttf
  4

  0
STYLE
  5
53
330
5
100
AcDbSymbolTableRecord
100
AcDbTextStyleTableRecord
  2
LiberationSerif-Bold
 70
0
 40
0.0
 41
1.0
 50
0.0
 71
0
 42
2.5
  3
LiberationSerif-Bold.ttf
  4

  0
STYLE
  5
54
330
5
100
AcDbSymbolTableRecord
100
AcDbTextStyleTableRecord
  2
LiberationSerif-BoldItalic
 70
0
 40
0.0
 41
1.0
 50
0.0
 71
0
 42
2.5
  3
LiberationSerif-BoldItalic.ttf
  4

  0
STYLE
  5
55
330
5
100
AcDbSymbolTableRecord
100
AcDbTextStyleTableRecord
  2
LiberationSerif-Italic
 70
0
 40
0.0
 41
1.0
 50
0.0
 71
0
 42
2.5
  3
LiberationSerif-Italic.ttf
  4

  0
STYLE
  5
56
330
5
100
AcDbSymbolTableRecord
100
AcDbTextStyleTableRecord
  2
LiberationMono
 70
0
 40
0.0
 41
1.0
 50
0.0
 71
0
 42
2.5
  3
LiberationMono-Regular.ttf
  4

  0
STYLE
  5
57
330
5
100
AcDbSymbolTableRecord
100
AcDbTextStyleTableRecord
  2
LiberationMono-Bold
 70
0
 40
0.0
 41
1.0
 50
0.0
 71
0
 42
2.5
  3
LiberationMono-Bold.ttf
  4

  0
STYLE
  5
58
330
5
100
AcDbSymbolTableRecord
100
AcDbTextStyleTableRecord
  2
LiberationMono-BoldItalic
 70
0
 40
0.0
 41
1.0
 50
0.0
 71
0
 42
2.5
  3
LiberationMono-BoldItalic.ttf
  4

  0
STYLE
  5
59
330
5
100
AcDbSymbolTableRecord
100
AcDbTextStyleTableRecord
  2
LiberationMono-Italic
 70
0
 40
0.0
 41
1.0
 50
0.0
 71
0
 42
2.5
  3
LiberationMono-Italic.ttf
  4

  0
ENDTAB
  0
TABLE
  2
VIEW
  5
7
330
0
100
AcDbSymbolTable
 70
0
  0
ENDTAB
  0
TABLE
  2
UCS
  5
6
330
0
100
AcDbSymbolTable
 70
0
  0
ENDTAB
  0
TABLE
  2
APPID
  5
3
330
0
100
AcDbSymbolTable
 70
3
  0
APPID
  5
2A
330
3
100
AcDbSymbolTableRecord
100
AcDbRegAppTableRecord
  2
ACAD
 70
0
  0
APPID
  5
9F
330
3
100
AcDbSymbolTableRecord
100
AcDbRegAppTableRecord
  2
HATCHBACKGROUNDCOLOR
 70
0
  0
APPID
  5
A0
330
3
100
AcDbSymbolTableRecord
100
AcDbRegAppTableRecord
  2
EZDXF
 70
0
  0
ENDTAB
  0
TABLE
  2
DIMSTYLE
  5
4
330
0
100
AcDbSymbolTable
 70
12
100
AcDbDimStyleTable
  0
DIMSTYLE
105
2B
330
4
100
AcDbSymbolTableRecord
100
AcDbDimStyleTableRecord
  2
Standard
 70
0
 40
1.0
 41
2.5
 42
0.625
 43
3.75
 44
1.25
 45
0.0
 46
0.0
 47
0.0
 48
0.0
 49
2.5
140
2.5
141
2.5
142
0.0
143
0.03937007874
144
1.0
145
0.0
146
1.0
147
0.625
148
0.0
 69
0
 70
0
 71
0
 72
0
 73
0
 74
0
 75
0
 76
0
 77
1
 78
8
 79
3
170
0
171
3
172
1
173
0
174
0
175
0
176
0
177
0
178
0
179
2
271
2
272
2
273
2
274
3
275
0
276
0
277
2
278
44
279
0
280
0
281
0
282
0
283
0
284
8
285
0
286
0
288
0
289
3
290
0
371
-2
372
-2
  0
DIMSTYLE
105
73
330
4
100
AcDbSymbolTableRecord
100
AcDbDimStyleTableRecord
  2
EZDXF
 70
0
 40
1.0
 41
0.175
 42
0.125
 43
3.75
 44
0.375
 45
0.0
 46
0.0
 47
0.0
 48
0.0
 49
2.5
140
0.25
141
2.5
142
0.0
143
0.03937007874
144
100.0
145
0.0
146
0.5
147
0.1
148
0.0
 69
0
 70
0
 71
0
 72
0
 73
0
 74
0
 75
0
 76
0
 77
1
 78
12
 79
3
170
0
171
3
172
1
173
0
174
0
175
0
176
0
177
0
178
0
179
2
271
2
272
2
273
2
274
3
275
0
276
0
277
2
278
46
279
2
280
0
281
0
282
0
283
0
284
8
285
0
286
0
288
1
289
3
290
0
340
4C
342
74
371
-2
372
-2
  0
DIMSTYLE
105
7C
330
4
100
AcDbSymbolTableRecord
100
AcDbDimStyleTableRecord
  2
EZ_M_100_H25_CM
 70
0
 40
1.0
 41
0.25
 42
0.125
 43
3.75
 44
0.375
 45
0.0
 46
0.0
 47
0.0
 48
0.0
 49
2.5
140
0.25
141
2.5
142
0.125
143
0.03937007874
144
100.0
145
0.0
146
0.5
147
0.1
148
0.0
 69
0
 70
0
 71
0
 72
0
 73
0
 74
0
 75
0
 76
0
 77
1
 78
12
 79
3
170
0
171
3
172
1
173
0
174
0
175
0
176
0
177
0
178
0
179
2
271
2
272
2
273
2
274
3
275
0
276
0
277
2
278
46
279
2
280
0
281
0
282
0
283
0
284
8
285
0
286
0
288
1
289
3
290
0
340
4C
371
-2
372
-2
  0
DIMSTYLE
105
7D
330
4
100
AcDbSymbolTableRecord
100
AcDbDimStyleTableRecord
  2
EZ_M_50_H25_CM
 70
0
 40
1.0
 41
0.125
 42
0.0625
 43
3.75
 44
0.1875
 45
0.0
 46
0.0
 47
0.0
 48
0.0
 49
2.5
140
0.125
141
2.5
142
0.0625
143
0.03937007874
144
100.0
145
0.0
146
0.5
147
0.05
148
0.0
 69
0
 70
0
 71
0
 72
0
 73
0
 74
0
 75
0
 76
0
 77
1
 78
12
 79
3
170
0
171
3
172
1
173
0
174
0
175
0
176
0
177
0
178
0
179
2
271
2
272
2
273
2
274
3
275
0
276
0
277
2
278
46
279
2
280
0
281
0
282
0
283
0
284
8
285
0
286
0
288
1
289
3
290
0
340
4C
371
-2
372
-2
  0
DIMSTYLE
105
7E
330
4
100
AcDbSymbolTableRecord
100
AcDbDimStyleTableRecord
  2
EZ_M_25_H25_CM
 70
0
 40
1.0
 41
0.0625
 42
0.03125
 43
3.75
 44
0.09375
 45
0.0
 46
0.0
 47
0.0
 48
0.0
 49
2.5
140
0.0625
141
2.5
142
0.03125
143
0.03937007874
144
100.0
145
0.0
146
0.5
147
0.025
148
0.0
 69
0
 70
0
 71
0
 72
0
 73
0
 74
0
 75
0
 76
0
 77
1
 78
12
 79
3
170
0
171
3
172
1
173
0
174
0
175
0
176
0
177
0
178
0
179
2
271
2
272
2
273
2
274
3
275
0
276
0
277
2
278
46
279
2
280
0
281
0
282
0
283
0
284
8
285
0
286
0
288
1
289
3
290
0
340
4C
371
-2
372
-2
  0
DIMSTYLE
105
7F
330
4
100
AcDbSymbolTableRecord
100
AcDbDimStyleTableRecord
  2
EZ_M_20_H25_CM
 70
0
 40
1.0
 41
0.05
 42
0.025
 43
3.75
 44
0.07500000000000001
 45
0.0
 46
0.0
 47
0.0
 48
0.0
 49
2.5
140
0.05
141
2.5
142
0.025
143
0.03937007874
144
100.0
145
0.0
146
0.5
147
0.020000000000000004
148
0.0
 69
0
 70
0
 71
0
 72
0
 73
0
 74
0
 75
0
 76
0
 77
1
 78
12
 79
3
170
0
171
3
172
1
173
0
174
0
175
0
176
0
177
0
178
0
179
2
271
2
272
2
273
2
274
3
275
0
276
0
277
2
278
46
279
2
280
0
281
0
282
0
283
0
284
8
285
0
286
0
288
1
289
3
290
0
340
4C
371
-2
372
-2
  0
DIMSTYLE
105
80
330
4
100
AcDbSymbolTableRecord
100
AcDbDimStyleTableRecord
  2
EZ_M_10_H25_CM
 70
0
 40
1.0
 41
0.025
 42
0.0125
 43
3.75
 44
0.037500000000000006
 45
0.0
 46
0.0
 47
0.0
 48
0.0
 49
2.5
140
0.025
141
2.5
142
0.0125
143
0.03937007874
144
100.0
145
0.0
146
0.5
147
0.010000000000000002
148
0.0
 69
0
 70
0
 71
0
 72
0
 73
0
 74
0
 75
0
 76
0
 77
1
 78
12
 79
3
170
0
171
3
172
1
173
0
174
0
175
0
176
0
177
0
178
0
179
2
271
2
272
2
273
2
274
3
275
0
276
0
277
2
278
46
279
2
280
0
281
0
282
0
283
0
284
8
285
0
286
0
288
1
289
3
290
0
340
4C
371
-2
372
-2
  0
DIMSTYLE
105
81
330
4
100
AcDbSymbolTableRecord
100
AcDbDimStyleTableRecord
  2
EZ_M_5_H25_CM
 70
0
 40
1.0
 41
0.0125
 42
0.00625
 43
3.75
 44
0.018750000000000003
 45
0.0
 46
0.0
 47
0.0
 48
0.0
 49
2.5
140
0.0125
141
2.5
142
0.00625
143
0.03937007874
144
100.0
145
0.0
146
0.5
147
0.005000000000000001
148
0.0
 69
0
 70
0
 71
0
 72
0
 73
0
 74
0
 75
0
 76
0
 77
1
 78
12
 79
3
170
0
171
3
172
1
173
0
174
0
175
0
176
0
177
0
178
0
179
2
271
2
272
2
273
2
274
3
275
0
276
0
277
2
278
46
279
2
280
0
281
0
282
0
283
0
284
8
285
0
286
0
288
1
289
3
290
0
340
4C
371
-2
372
-2
  0
DIMSTYLE
105
82
330
4
100
AcDbSymbolTableRecord
100
AcDbDimStyleTableRecord
  2
EZ_M_1_H25_CM
 70
0
 40
1.0
 41
0.0025
 42
0.00125
 43
3.75
 44
0.00375
 45
0.0
 46
0.0
 47
0.0
 48
0.0
 49
2.5
140
0.0025
141
2.5
142
0.00125
143
0.03937007874
144
100.0
145
0.0
146
0.5
147
0.001
148
0.0
 69
0
 70
0
 71
0
 72
0
 73
0
 74
0
 75
0
 76
0
 77
1
 78
12
 79
3
170
0
171
3
172
1
173
0
174
0
175
0
176
0
177
0
178
0
179
2
271
2
272
2
273
2
274
3
275
0
276
0
277
2
278
46
279
2
280
0
281
0
282
0
283
0
284
8
285
0
286
0
288
1
289
3
290
0
340
4C
371
-2
372
-2
  0
DIMSTYLE
105
83
330
4
100
AcDbSymbolTableRecord
100
AcDbDimStyleTableRecord
  2
EZ_RADIUS
 70
0
 40
1.0
 41
0.25
 42
0.125
 43
3.75
 44
0.375
 45
0.0
 46
0.0
 47
0.0
 48
0.0
 49
2.5
140
0.25
141
0.0
142
0.0
143
0.03937007874
144
100.0
145
0.0
146
0.5
147
0.1
148
0.0
 69
0
 70
0
 71
0
 72
0
 73
0
 74
0
 75
0
 76
0
 77
1
 78
12
 79
3
170
0
171
3
172
0
173
0
174
0
175
0
176
0
177
0
178
0
179
2
271
2
272
2
273
2
274
3
275
0
276
0
277
2
278
46
279
1
280
0
281
0
282
0
283
0
284
8
285
0
286
0
288
1
289
3
290
0
340
4C
342
84
371
-2
372
-2
  0
DIMSTYLE
105
88
330
4
100
AcDbSymbolTableRecord
100
AcDbDimStyleTableRecord
  2
EZ_RADIUS_INSIDE
 70
0
 40
1.0
 41
0.25
 42
0.125
 43
3.75
 44
0.375
 45
0.0
 46
0.0
 47
0.0
 48
0.0
 49
2.5
140
0.25
141
0.0
142
0.0
143
0.03937007874
144
100.0
145
0.0
146
0.5
147
0.1
148
0.0
 69
0
 70
0
 71
0
 72
0
 73
0
 74
0
 75
0
 76
0
 77
0
 78
12
 79
3
170
0
171
3
172
0
173
0
174
1
175
0
176
0
177
0
178
0
179
2
271
2
272
2
273
2
274
3
275
0
276
0
277
2
278
46
279
0
280
0
281
0
282
0
283
0
284
8
285
0
286
0
288
1
289
0
290
0
340
4C
342
84
371
-2
372
-2
  0
DIMSTYLE
105
89
330
4
100
AcDbSymbolTableRecord
100
AcDbDimStyleTableRecord
  2
EZ_CURVED
 70
0
 40
1.0
 41
0.25
 42
0.125
 43
3.75
 44
0.375
 45
0.0
 46
0.0
 47
0.0
 48
0.0
 49
2.5
140
0.25
141
2.5
142
0.0
143
0.03937007874
144
100.0
145
0.0
146
0.5
147
0.1
148
0.0
 69
0
 70
0
 71
0
 72
0
 73
0
 74
0
 75
0
 76
0
 77
1
 78
12
 79
2
 90
2
170
0
171
3
172
1
173
0
174
0
175
0
176
0
177
0
178
0
179
2
271
2
272
2
273
2
274
3
275
0
276
0
277
2
278
46
279
2
280
0
281
0
282
0
283
0
284
8
285
0
286
0
288
1
289
3
290
0
340
4C
371
-2
372
-2
  0
ENDTAB
  0
TABLE
  2
BLOCK_RECORD
  5
9
330
0
100
AcDbSymbolTable
 70
5
  0
BLOCK_RECORD
  5
17
330
9
100
AcDbSymbolTableRecord
100
AcDbBlockTableRecord
  2
*Model_Space
340
1A
 70
0
280
1
281
0
  0
BLOCK_RECORD
  5
1B
330
9
100
AcDbSymbolTableRecord
100
AcDbBlockTableRecord
  2
*Paper_Space
340
1E
 70
0
280
1
281
0
  0
BLOCK_RECORD
  5
74
330
9
100
AcDbSymbolTableRecord
100
AcDbBlockTableRecord
  2
_ARCHTICK
340
0
 70
0
280
1
281
0
  0
BLOCK_RECORD
  5
78
330
9
100
AcDbSymbolTableRecord
100
AcDbBlockTableRecord
  2
_CLOSEDFILLED
340
0
 70
0
280
1
281
0
  0
BLOCK_RECORD
  5
84
330
9
100
AcDbSymbolTableRecord
100
AcDbBlockTableRecord
  2
_CLOSEDBLANK
340
0
 70
0
280
1
281
0
  0
ENDTAB
  0
ENDSEC
  0
SECTION
  2
BLOCKS
  0
BLOCK
  5
18
330
17
100
AcDbEntity
  8
0
100
AcDbBlockBegin
  2
*Model_Space
 70
0
 10
0.0
 20
0.0
 30
0.0
  3
*Model_Space
  1

  0
ENDBLK
  5
19
330
17
100
AcDbEntity
  8
0
100
AcDbBlockEnd
  0
BLOCK
  5
1C
330
1B
100
AcDbEntity
  8
0
100
AcDbBlockBegin
  2
*Paper_Space
 70
0
 10
0.0
 20
0.0
 30
0.0
  3
*Paper_Space
  1

  0
ENDBLK
  5
1D
330
1B
100
AcDbEntity
  8
0
100
AcDbBlockEnd
  0
BLOCK
  5
75
330
74
100
AcDbEntity
  8
0
100
AcDbBlockBegin
  2
_ARCHTICK
 70
0
 10
0.0
 20
0.0
 30
0.0
  3
_ARCHTICK
  1

  0
LWPOLYLINE
  5
77
330
74
100
AcDbEntity
  8
0
  6
BYBLOCK
 62
0
100
AcDbPolyline
 90
2
 70
0
 43
0.15
 10
-0.5
 20
-0.5
 10
0.5
 20
0.5
  0
ENDBLK
  5
76
330
74
100
AcDbEntity
  8
0
100
AcDbBlockEnd
  0
BLOCK
  5
79
330
78
100
AcDbEntity
  8
0
100
AcDbBlockBegin
  2
_CLOSEDFILLED
 70
0
 10
0.0
 20
0.0
 30
0.0
  3
_CLOSEDFILLED
  1

  0
SOLID
  5
7B
330
78
100
AcDbEntity
  8
0
  6
BYBLOCK
 62
0
100
AcDbTrace
 10
-1.0
 20
0.16439898372402537
 30
0.0
 11
0.0
 21
0.0
 31
0.0
 12
-1.0
 22
-0.16439898372402537
 32
0.0
 13
-1.0
 23
-0.16439898372402537
 33
0.0
  0
ENDBLK
  5
7A
330
78
100
AcDbEntity
  8
0
100
AcDbBlockEnd
  0
BLOCK
  5
85
330
84
100
AcDbEntity
  8
0
100
AcDbBlockBegin
  2
_CLOSEDBLANK
 70
0
 10
0.0
 20
0.0
 30
0.0
  3
_CLOSEDBLANK
  1

  0
LWPOLYLINE
  5
87
330
84
100
AcDbEntity
  8
0
  6
BYBLOCK
 62
0
100
AcDbPolyline
 90
3
 70
1
 10
-1.0
 20
0.16439898372402537
 10
0.0
 20
0.0
 10
-1.0
 20
-0.16439898372402537
  0
ENDBLK
  5
86
330
84
100
AcDbEntity
  8
0
100
AcDbBlockEnd
  0
ENDSEC
  0
SECTION
  2
ENTITIES
  0
LWPOLYLINE
  5
8C
330
17
100
AcDbEntity
  8
CORTE
100
AcDbPolyline
 90
346
 70
1
 10
-171.33191613401468
 20
12.27805146451215
 10
-160.5175829364671
 20
31.039455451398137
 10
-160.04532406434885
 20
31.938516250178075
 10
-159.4700371002548
 20
33.37407161784857
 10
-159.14862471848343
 20
34.55573320292348
 10
-159.00839648212536
 20
35.31658933991633
 10
-158.89428893155016
 20
36.406538880996564
 10
-158.87389468942777
 20
37.17994051944783
 10
-158.90339720891052
 20
37.953048287365355
 10
-159.05177070221703
 20
39.16862030385901
 10
-159.41492343090854
 20
40.67191481936447
 10
-159.66839734926296
 20
41.402884717640184
 10
-160.10698014234862
 20
42.40720322728183
 10
-160.7031897871091
 20
43.47685928428952
 10
-161.1347942915908
 20
44.118952401510484
 10
-161.81513021139887
 20
44.978111043100014
 10
-162.34119451225015
 20
45.5454049447427
 10
-163.24570673096213
 20
46.3709276076657
 10
-164.50061248268662
 20
47.274800308322554
 10
-165.4549101800408
 20
47.81361979574427
 10
-167.7303196050311
 20
48.91349236078592
 10
-169.15003429822477
 20
49.71775080035356
 10
-171.23194132898487
 20
51.10612054463118
 10
-172.56800644233257
 20
52.145931362414224
 10
-174.46757775947287
 20
53.86760244805438
 10
-175.43616217714705
 20
54.876642627021845
 10
-176.3145661077912
 20
55.885046428341596
 10
-177.39387945536924
 20
57.268058671015716
 10
-178.782249199646
 20
59.34996570177456
 10
-179.47662959193227
 20
60.564113027160246
 10
-180.08368672052717
 20
61.75573097537815
 10
-180.79460983613384
 20
63.35954782568784
 10
-181.26986584504664
 20
64.60958919215501
 10
-181.70317230162823
 20
65.93946263411127
 10
-182.32609892199957
 20
68.42632510350131
 10
-182.5708547448903
 20
69.80342802053117
 10
-182.74098178567135
 20
71.12990021469513
 10
-182.87003760240341
 20
72.87946723593504
 10
-182.86777928120586
 20
75.38184656999701
 10
-182.77059136428608
 20
76.77715025225761
 10
-182.61331345848254
 20
78.10520723606533
 10
-182.3133915245456
 20
79.8336999317933
 10
-181.70317230162854
 20
82.26053736588773
 10
-181.16996269815462
 20
83.86738646976939
 10
-180.68262769920938
 20
85.11276845562531
 10
-180.11059818707835
 20
86.38913051013243
 10
-178.93297639618623
 20
88.59709662155122
 10
-178.02912983340474
 20
90.02864749903667
 10
-176.54027810512335
 20
92.03992270714163
 10
-175.3944036434273
 20
93.36830965516353
 10
-173.66830965516448
 20
95.0944036434264
 10
-172.33992270714188
 20
96.24027810512317
 10
-171.28166723939518
 20
97.05793760447128
 10
-170.13483992627
 20
97.85862791339441
 10
-167.98963858749798
 20
99.14704502274881
 10
-166.42263694873063
 20
99.93580736322049
 10
-164.10987567730592
 20
100.89134005912595
 10
-162.50160978517533
 20
101.42026098336491
 10
-161.21100447463994
 20
101.77070302465948
 10
-159.84506327703994
 20
102.0715726004366
 10
-158.4660044450727
 20
102.30505620779924
 10
-157.0160211120629
 20
102.47585549109776
 10
-154.57789595426556
 20
102.59563289944403
 10
-153.17946723593363
 20
102.57003760240337
 10
-151.72284974774232
 20
102.47059136428604
 10
-150.33399555492664
 20
102.30505620779913
 10
-148.72632510350087
 20
102.02609892199948
 10
-147.3628905662511
 20
101.71406668076808
 10
-146.01640904200667
 20
101.33550973419658
 10
-144.6901243226941
 20
100.89134005912595
 10
-143.38723154437415
 20
100.38262769920915
 10
-142.05573097537632
 20
99.78368672052623
 10
-139.84989399444632
 20
98.60208160666387
 10
-138.66516007372917
 20
97.85862791339385
 10
-136.76920122080347
 20
96.55587644484271
 10
-135.3650556229295
 20
95.80434253460484
 10
-134.62867693830296
 20
95.50011633541392
 10
-133.42615300026787
 20
95.12024378903352
 10
-132.6486384806694
 20
94.94623712462204
 10
-131.53107666111202
 20
94.78886712816659
 10
-129.9390150793756
 20
94.74681955718383
 10
-128.68332242052566
 20
94.8634511118868
 10
-127.12623980311275
 20
95.1979982697247
 10
-126.05677942576665
 20
95.55850380033897
 10
-124.61492181959764
 20
96.23487257682088
 10
-123.54487312953773
 20
96.90222763519927
 10
-122.30316194890204
 20
97.89951466617428
 10
-121.34687478985833
 20
98.85293169731301
 10
-93.81625062136136
 20
82.97681601543432
 10
-92.9150256332513
 20
82.50352867475928
 10
-92.20477755178138
 20
82.1921788242162
 10
-91.04338172405244
 20
81.79485896003706
 10
-90.29125534837404
 20
81.60592251126617
 10
-89.2082282328874
 20
81.42226554473461
 10
-88.43586221661063
 20
81.35268247520042
 10
-87.20840839253412
 20
81.3449073290359
 10
-85.66751638502159
 20
81.51432618608554
 10
-84.16133791842346
 20
81.88103772762283
 10
-83.12917849185638
 20
82.2569692804146
 10
-74.66180784086994
 20
86.30968338814044
 10
-73.313077396829
 20
87.16595150990638
 10
-72.43243202303667
 20
87.87738322266931
 10
-71.31179672331668
 20
89.01599879961253
 10
-70.53813828464067
 20
90.01687658646995
 10
-69.93861317253123
 20
90.97721038065623
 10
-69.25201502108055
 20
92.41972619875347
 10
-68.8482609313069
 20
93.61859498179463
 10
-68.59580243919275
 20
94.72219638903613
 10
-68.43817319686858
 20
95.97736838757807
 10
-68.40712552533346
 20
96.77599983081322
 10
-68.54638582435445
 20
99.88345480706761
 10
-68.51350911364275
 20
101.22270352603252
 10
-68.42639538752566
 20
102.32591625924393
 10
-68.0777191061466
 20
104.57291251579638
 10
-67.62646598575793
 20
106.37441595551248
 10
-67.28763819421832
 20
107.42789808216934
 10
-66.78554448076652
 20
108.73580203305477
 10
-66.30495042644216
 20
109.80031621871271
 10
-65.42949116668528
 20
111.43818529360038
 10
-64.84484234278071
 20
112.37776744339527
 10
-63.50252741547304
 20
114.21318509670728
 10
-62.62750298128448
 20
115.227581591639
 10
-61.81637847373213
 20
116.06796134494664
 10
-60.440313530884396
 20
117.31515391028317
 10
-59.573305207827005
 20
118.0028496506029
 10
-57.74335819275353
 20
119.24657757014803
 10
-55.7451777042218
 20
120.33186189299407
 10
-54.52045459632899
 20
120.87474430968061
 10
-53.4859161801601
 20
121.26767865720808
 10
-51.305577302484764
 20
121.9131937264835
 10
-49.48410191140959
 20
122.27550770864605
 10
-48.38689780034523
 20
122.4196326619716
 10
-46.11654519293208
 20
122.54638582435445
 10
-44.777296473967404
 20
122.51350911364274
 10
-43.67408374075723
 20
122.42639538752576
 10
-41.715724138956425
 20
122.13590018203746
 10
-39.5666564637753
 20
121.60937730402156
 10
-37.47954540367008
 20
120.87474430968022
 10
-35.47449097908318
 20
119.93907611634114
 10
-33.57080296019585
 20
118.81138372019376
 10
-31.786814903293163
 20
117.5025274154734
 10
-30.13970758858735
 20
116.02511220388593
 10
-28.645343559922267
 20
114.39336640155858
 10
-27.82114720783865
 20
113.33725637766533
 10
-27.188616279805778
 20
112.42919703980344
 10
-26.570508833314562
 20
111.43818529360009
 10
-26.00839044074613
 20
110.40415606543696
 10
-25.982064576375237
 20
109.06758279126166
 10
-25.86545197849812
 20
107.37027084092448
 10
-25.638079544312653
 20
105.68421979456998
 10
-25.338074526234
 20
104.17599271934729
 10
-24.902915462873587
 20
102.53127300331202
 10
-24.59261917022725
 20
101.56553713326952
 10
-23.98832421996044
 20
99.97516171601039
 10
-23.28130758262916
 20
98.42771419532431
 10
-22.034919361539536
 20
96.2014707221192
 10
-20.576322821485995
 20
94.10811462890325
 10
-18.91956504449947
 20
92.16780607919938
 10
-17.832193920800655
 20
91.08043495550058
 10
-16.55661506720871
 20
89.95466191309406
 10
-14.512103724059232
 20
88.42835363250568
 10
-12.32783288892375
 20
87.10979209869744
 10
-10.804346826933637
 20
86.35252294333678
 10
-9.873675594327784
 20
85.94906214385685
 10
-7.468726996688042
 20
85.09708453712643
 10
-4.991850475248703
 20
84.48493561962181
 10
-2.4668997049093004
 20
84.11851072005317
 10
0.08180865813246277
 20
84.00133871051167
 10
2.6297291590752727
 20
84.13454802150184
 10
4.991850475248723
 20
84.48493561962181
 10
7.4687269966880185
 20
85.09708453712642
 10
9.873675594327988
 20
85.94906214385693
 10
12.18353529849441
 20
87.03266342972209
 10
13.798529277880965
 20
87.96508063846055
 10
15.891885371096707
 20
89.42367717851397
 10
17.832193920800687
 20
91.0804349555006
 10
19.6007686949787
 20
92.91939848635222
 10
21.085273914208166
 20
94.78986175391897
 10
22.474596812017772
 20
96.92982097906365
 10
23.64747705666339
 20
99.19565317306673
 10
24.361118292335924
 20
100.9185355228961
 10
25.091604749679682
 20
103.19203021540662
 10
25.638079544312664
 20
105.68421979457008
 10
25.881489279946813
 20
107.53310029509049
 10
25.982064576375233
 20
109.06758279126164
 10
26.00839044074613
 20
110.40415606543695
 10
26.060490004259638
 20
110.52467276429807
 10
27.18861627980594
 20
112.42919703980368
 10
28.4974725845269
 20
114.21318509670719
 10
29.97488779611326
 20
115.8602924114118
 10
31.55968646911591
 20
117.31515391028343
 10
33.37699538743129
 20
118.6818856402055
 10
35.21517199661741
 20
119.79961349987649
 10
37.20780538613478
 20
120.76137094892714
 10
38.572101917831084
 20
121.28763819421846
 10
40.63472759578358
 20
121.89901706815174
 10
42.80704187793599
 20
122.31945597350868
 10
45.01010609225393
 20
122.52494631678519
 10
47.28394344341246
 20
122.50974675648652
 10
49.42352565645922
 20
122.28525451059988
 10
51.591377363324426
 20
121.84238072426056
 10
53.705381049621565
 20
121.18915287128723
 10
55.74517770422194
 20
120.33186189299401
 10
57.69112297027654
 20
119.27876397014391
 10
59.52447633110733
 20
118.04000101141806
 10
61.22758159163917
 20
116.62750298128431
 10
62.627502981285154
 20
115.22758159163826
 10
63.50252741547323
 20
114.21318509670702
 10
64.17885279216144
 20
113.33725637766521
 10
65.4294911666854
 20
111.43818529360018
 10
66.30495042644205
 20
109.80031621871291
 10
66.76137094892732
 20
108.79219461386481
 10
67.54171473658971
 20
106.65639712833007
 10
68.09042650360033
 20
104.51288748050284
 10
68.31945597350878
 20
103.19295812206332
 10
68.44924224058647
 20
102.09394826729682
 10
68.54638582435445
 20
99.8834548070676
 10
68.4145912861518
 20
96.70567043850434
 10
68.48227568071488
 20
95.61818520133014
 10
68.58935206295557
 20
94.85646427281588
 10
68.85801645411586
 20
93.6689380724777
 10
69.19941333007114
 20
92.63421420040982
 10
69.69019421282225
 20
91.5199731328244
 10
70.2231472866471
 20
90.5696224925659
 10
71.11738776060334
 20
89.31876772829227
 10
71.93436048136593
 20
88.41601936628973
 10
73.09002313897545
 20
87.40174746567607
 10
73.982624031212
 20
86.77687230573044
 10
75.25675417399596
 20
86.06832787147304
 10
82.47655877994458
 20
82.57690815229483
 10
83.41404129132098
 20
82.16918709029171
 10
84.14840524959686
 20
81.90982946465786
 10
85.3410831833711
 20
81.598130105525
 10
86.43049831102084
 20
81.42430609092315
 10
87.66095463680558
 20
81.34937696085511
 10
88.76341191994818
 20
81.38972602838314
 10
89.98509889994439
 20
81.55440167048948
 10
91.05889276035343
 20
81.80739742885967
 10
92.22559439808549
 20
82.20544822047941
 10
92.93903445025231
 20
82.51779433163368
 10
93.84420418575787
 20
82.99295501336346
 10
121.34932063426328
 20
98.85431813393835
 10
122.33381442936886
 20
97.87155519579828
 10
123.55425121159384
 20
96.89576172434649
 10
124.89117113668054
 20
96.08688351828371
 10
126.01720161035726
 20
95.57408394904314
 10
127.06488833172807
 20
95.21572257835881
 10
128.59040206001904
 20
94.87742285454604
 10
130.14694696620285
 20
94.74028499190342
 10
131.70811204218992
 20
94.80663590640057
 10
132.92975521927897
 20
95.00283981495996
 10
133.68841053767332
 20
95.19125563870193
 10
134.73871616721138
 20
95.54186713693856
 10
135.45842376974755
 20
95.84695627410296
 10
136.83067791382788
 20
96.59432325383365
 10
138.71658967013758
 20
97.89208653598051
 10
140.86411302716076
 20
99.1766295919325
 10
142.11086948986744
 20
99.81059818707827
 10
143.33083896356158
 20
100.35845416736889
 10
144.96760729014684
 20
100.98982538205722
 10
146.2394626341101
 20
101.40317230162788
 10
147.58899552536008
 20
101.77070302465948
 10
150.04285176558153
 20
102.26110794293656
 10
151.7839788879371
 20
102.47585549109776
 10
153.1181534300061
 20
102.56777928120597
 10
154.57789595426559
 20
102.59563289944403
 10
157.0771502522577
 20
102.47059136428604
 10
158.46600444507337
 20
102.30505620779913
 10
159.78474446501846
 20
102.08280308255185
 10
161.49643864381915
 20
101.69842930104774
 10
162.78359095799334
 20
101.33550973419658
 10
164.10987567730592
 20
100.89134005912595
 10
166.47841929698163
 20
99.91025716878401
 10
167.73031960503144
 20
99.28650763921388
 10
168.89709662155065
 20
98.63297639618656
 10
170.37924049010962
 20
97.69441914245105
 10
171.46888719283777
 20
96.91908582372754
 10
172.56800644233257
 20
96.05406863758577
 10
174.46757775947205
 20
94.33239755194643
 10
175.43616217714603
 20
93.32335737297927
 10
176.31456610779168
 20
92.31495357165781
 10
177.3938794553686
 20
90.93194132898522
 10
178.15862791339424
 20
89.83483992627026
 10
178.9020816066635
 20
88.6501060055543
 10
180.11059818707758
 20
86.38913051013404
 10
180.68262769920844
 20
85.1127684556276
 10
181.16996269815402
 20
83.86738646977089
 10
181.72026098336457
 20
82.20160978517663
 10
182.07070302465928
 20
80.9110044746409
 10
182.3715726004369
 20
79.5450632770384
 10
182.74774451122516
 20
77.00911824420562
 10
182.85634207806362
 20
75.61465618827904
 10
182.89563289944405
 20
74.27789595426536
 10
182.86777928120588
 20
72.81815343000353
 10
182.77585549109793
 20
71.48397888793906
 10
182.56110794293667
 20
69.74285176558213
 10
182.3260989219996
 20
68.42632510350137
 10
182.01406668076805
 20
67.06289056625093
 10
181.26986584504718
 20
64.60958919215648
 10
180.7718275281225
 20
63.3025789810981
 10
180.21025716878316
 20
62.021580703016525
 10
179.5865076392142
 20
60.7696803949692
 10
178.93297639618638
 20
59.60290337844905
 10
177.99441914245136
 20
58.12075950989075
 10
177.21908582372834
 20
57.03111280716327
 10
176.31456610779165
 20
55.885046428342115
 10
175.43616217714703
 20
54.87664262702182
 10
174.46757775947177
 20
53.8676024480533
 10
172.61495357165813
 20
52.18543389220859
 10
171.23194132898396
 20
51.106120544630535
 10
169.15003429822542
 20
49.71775080035397
 10
167.73031960503113
 20
48.913492360785945
 10
165.45491018004074
 20
47.81361979574424
 10
164.50061248268673
 20
47.27480030832262
 10
163.24570673096218
 20
46.37092760766574
 10
162.3411945122501
 20
45.545404944742636
 10
161.32672841715654
 20
44.378086287901354
 10
160.70318978710935
 20
43.47685928428991
 10
160.3138729756894
 20
42.808279865060335
 10
159.78785455834608
 20
41.70241610970302
 10
159.5148240621249
 20
40.97852359861874
 10
159.28902434128565
 20
40.23853677066796
 10
159.05177070221703
 20
39.16862030385897
 10
158.9436024486008
 20
38.402548735153
 10
158.87389468942777
 20
37.179940519447825
 10
158.89428893155016
 20
36.40653888099654
 10
159.00839648212536
 20
35.316589339916405
 10
159.14862471848343
 20
34.55573320292342
 10
159.4700371002548
 20
33.374071617848564
 10
160.04532406434888
 20
31.938516250177987
 10
160.517582936467
 20
31.039455451398297
 10
171.33190646837352
 20
12.278015391848413
 10
88.81111914040004
 20
-35.38225658375458
 10
88.42188551782526
 20
-35.510801690087035
 10
59.97683608816061
 20
-39.70828865223538
 10
58.99542462826443
 20
-39.892734478713194
 10
57.835972087765604
 20
-40.21782487318406
 10
56.21271682604716
 20
-40.89364158697642
 10
29.99571083172867
 20
-53.98277109730476
 10
-29.99613134920788
 20
-53.98267182659394
 10
-56.21271682604716
 20
-40.89364158697642
 10
-57.835972087765604
 20
-40.21782487318406
 10
-58.99542462826443
 20
-39.892734478713194
 10
-59.97683608816061
 20
-39.70828865223538
 10
-88.64022802523215
 20
-35.45726658166029
 10
-171.33191613401468
 20
12.27805146451215
  0
LWPOLYLINE
  5
8D
330
17
100
AcDbEntity
  8
CORTE
100
AcDbPolyline
 90
53
 70
1
 10
-44.429139854688444
 20
-4.228344058124622
 10
-52.429139854688444
 20
-24.228344058124623
 10
-52.7566907304842
 20
-24.916797542547254
 10
-53.16890033648077
 20
-25.558156269916257
 10
-53.65911311603892
 20
-26.142064830571176
 10
-54.219414069429966
 20
-26.659095408078258
 10
-54.840756549811985
 20
-27.100900001219795
 10
-55.513108330836076
 20
-27.460345211233722
 10
-56.22561358746811
 20
-27.731627418022057
 10
-56.96676817467537
 20
-27.91036648568736
 10
-57.724605373919964
 20
-27.993676484423084
 10
-58.486889108386805
 20
-27.980212286878643
 10
-59.241311507283704
 20
-27.870191286652
 10
-59.97569162933052
 20
-27.66538988824188
 10
-60.67817213683811
 20
-27.3691148251331
 10
-61.337410744867796
 20
-26.98614976911454
 10
-61.94276335432371
 20
-26.522678092878383
 10
-62.48445591210196
 20
-25.98618303297952
 10
-78.48445591210196
 20
-7.986183032979518
 10
-78.96421306662405
 20
-7.369953802229196
 10
-79.35986743456012
 20
-6.69663143272156
 10
-79.66471591223153
 20
-5.9776232284514785
 10
-79.87359381268499
 20
-5.225110494440667
 10
-79.98296236487084
 20
-4.451842163303905
 10
-79.99096866685272
 20
-3.6709188051727506
 10
-79.89747707733203
 20
-2.895570680241013
 10
-79.7040715136579
 20
-2.1389335941249845
 10
-79.41402861739022
 20
-1.4138263534557733
 10
-79.03226224203974
 20
-0.7325335920102796
 10
-78.56524020346386
 20
-0.10659764670061112
 10
-78.02087470331756
 20
0.4533769905792697
 10
-77.40838828198521
 20
0.9379033323087516
 10
-76.73815757199422
 20
1.3387726221417866
 10
-76.02153749901142
 20
1.6491934061501787
 10
-75.27066890877659
 20
1.8639065923894549
 10
-74.49827287912244
 20
1.9792745494692774
 10
-50.49827287912244
 20
3.9792745494692774
 10
-49.73601615804242
 20
3.9941898978248354
 10
-48.97802173310114
 20
3.9123227603021133
 10
-48.23652821968753
 20
3.73499496774335
 10
-47.523507808658735
 20
3.4650696634375784
 10
-46.85047296275579
 20
3.1069050746677966
 10
-46.22829053581207
 20
2.666284144558193
 10
-45.66700631599509
 20
2.150321160389102
 10
-45.17568282601502
 20
1.5673468859635165
 10
-44.76225299918583
 20
0.9267740526836343
 10
-44.43339209389252
 20
0.23894538112516273
 10
-44.194409914539854
 20
-0.48503341303947156
 10
-44.04916507918842
 20
-1.2334729324743852
 10
-44.000002718117024
 20
-1.9942888357664466
 10
-44.04771660923348
 20
-2.7551969517980446
 10
-44.19153636169735
 20
-3.503911620580126
 10
-44.429139854688444
 20
-4.228344058124622
  0
LWPOLYLINE
  5
8E
330
17
100
AcDbEntity
  8
CORTE
100
AcDbPolyline
 90
53
 70
1
 10
44.429139854688444
 20
-4.228344058124622
 10
44.19153636169735
 20
-3.5039116205801264
 10
44.04771660923348
 20
-2.7551969517980437
 10
44.000002718117024
 20
-1.9942888357664466
 10
44.04916507918842
 20
-1.2334729324743836
 10
44.194409914539854
 20
-0.4850334130394711
 10
44.43339209389252
 20
0.23894538112516273
 10
44.76225299918583
 20
0.9267740526836361
 10
45.17568282601502
 20
1.5673468859635173
 10
45.66700631599509
 20
2.150321160389101
 10
46.22829053581207
 20
2.666284144558194
 10
46.85047296275579
 20
3.1069050746677966
 10
47.523507808658735
 20
3.4650696634375784
 10
48.23652821968753
 20
3.7349949677433507
 10
48.97802173310114
 20
3.9123227603021133
 10
49.73601615804242
 20
3.9941898978248354
 10
50.49827287912244
 20
3.9792745494692774
 10
74.49827287912244
 20
1.9792745494692774
 10
75.27066890877659
 20
1.8639065923894549
 10
76.02153749901142
 20
1.6491934061501787
 10
76.73815757199422
 20
1.3387726221417866
 10
77.40838828198521
 20
0.9379033323087524
 10
78.02087470331756
 20
0.4533769905792706
 10
78.56524020346386
 20
-0.106597646700612
 10
79.03226224203974
 20
-0.7325335920102791
 10
79.41402861739022
 20
-1.4138263534557716
 10
79.7040715136579
 20
-2.1389335941249836
 10
79.89747707733203
 20
-2.8955706802410135
 10
79.99096866685272
 20
-3.67091880517275
 10
79.98296236487084
 20
-4.451842163303906
 10
79.87359381268499
 20
-5.225110494440669
 10
79.66471591223153
 20
-5.977623228451479
 10
79.35986743456012
 20
-6.69663143272156
 10
78.96421306662405
 20
-7.369953802229197
 10
78.48445591210196
 20
-7.986183032979518
 10
62.48445591210196
 20
-25.98618303297952
 10
61.94276335432371
 20
-26.522678092878387
 10
61.337410744867796
 20
-26.98614976911454
 10
60.6781721368381
 20
-27.3691148251331
 10
59.97569162933051
 20
-27.66538988824188
 10
59.241311507283704
 20
-27.870191286652
 10
58.486889108386805
 20
-27.980212286878643
 10
57.724605373919964
 20
-27.993676484423084
 10
56.96676817467537
 20
-27.91036648568736
 10
56.22561358746811
 20
-27.731627418022057
 10
55.513108330836076
 20
-27.460345211233722
 10
54.84075654981198
 20
-27.100900001219795
 10
54.219414069429966
 20
-26.659095408078258
 10
53.65911311603892
 20
-26.14206483057118
 10
53.16890033648077
 20
-25.558156269916253
 10
52.7566907304842
 20
-24.916797542547254
 10
52.429139854688444
 20
-24.228344058124623
 10
44.429139854688444
 20
-4.228344058124622
  0
CIRCLE
  5
8F
330
17
100
AcDbEntity
  8
CORTE
100
AcDbCircle
 10
-46.0
 20
100.0
 30
0.0
 40
6.55
  0
CIRCLE
  5
90
330
17
100
AcDbEntity
  8
CORTE
100
AcDbCircle
 10
46.0
 20
100.0
 30
0.0
 40
6.55
  0
CIRCLE
  5
91
330
17
100
AcDbEntity
  8
CORTE
100
AcDbCircle
 10
0.0
 20
0.0
 30
0.0
 40
12.9
  0
CIRCLE
  5
92
330
17
100
AcDbEntity
  8
CORTE
100
AcDbCircle
 10
-56.0
 20
40.0
 30
0.0
 40
6.55
  0
CIRCLE
  5
93
330
17
100
AcDbEntity
  8
CORTE
100
AcDbCircle
 10
56.0
 20
40.0
 30
0.0
 40
6.55
  0
CIRCLE
  5
94
330
17
100
AcDbEntity
  8
CORTE
100
AcDbCircle
 10
-34.0
 20
-32.0
 30
0.0
 40
6.55
  0
CIRCLE
  5
95
330
17
100
AcDbEntity
  8
CORTE
100
AcDbCircle
 10
34.0
 20
-32.0
 30
0.0
 40
6.55
  0
CIRCLE
  5
96
330
17
100
AcDbEntity
  8
CORTE
100
AcDbCircle
 10
-16.0
 20
31.0
 30
0.0
 40
5.25
  0
CIRCLE
  5
97
330
17
100
AcDbEntity
  8
CORTE
100
AcDbCircle
 10
16.0
 20
31.0
 30
0.0
 40
5.25
  0
CIRCLE
  5
98
330
17
100
AcDbEntity
  8
CORTE
100
AcDbCircle
 10
-92.5
 20
53.3
 30
0.0
 40
6.55
  0
CIRCLE
  5
99
330
17
100
AcDbEntity
  8
CORTE
100
AcDbCircle
 10
-115.0
 20
14.4
 30
0.0
 40
6.55
  0
CIRCLE
  5
9A
330
17
100
AcDbEntity
  8
CORTE
100
AcDbCircle
 10
-154.4
 20
74.1
 30
0.0
 40
12.5
  0
CIRCLE
  5
9B
330
17
100
AcDbEntity
  8
CORTE
100
AcDbCircle
 10
92.5
 20
53.3
 30
0.0
 40
6.55
  0
CIRCLE
  5
9C
330
17
100
AcDbEntity
  8
CORTE
100
AcDbCircle
 10
115.0
 20
14.4
 30
0.0
 40
6.55
  0
CIRCLE
  5
9D
330
17
100
AcDbEntity
  8
CORTE
100
AcDbCircle
 10
154.4
 20
74.1
 30
0.0
 40
12.5
  0
TEXT
  5
9E
330
17
100
AcDbEntity
  8
NOTAS
100
AcDbText
 10
-182.87003760240341
 20
-67.98277109730476
 30
0.0
 40
5.0
  1
01 Placa de cabeza - aluminio 6061-T6 1/2" (12,7 mm) - cantidad 2
 11
-182.87003760240341
 21
-67.98277109730476
 31
0.0
100
AcDbText
  0
ENDSEC
  0
SECTION
  2
OBJECTS
  0
DICTIONARY
  5
A
330
0
100
AcDbDictionary
281
1
  3
ACAD_COLOR
350
B
  3
ACAD_GROUP
350
C
  3
ACAD_LAYOUT
350
D
  3
ACAD_MATERIAL
350
E
  3
ACAD_MLEADERSTYLE
350
F
  3
ACAD_MLINESTYLE
350
10
  3
ACAD_PLOTSETTINGS
350
11
  3
ACAD_PLOTSTYLENAME
350
12
  3
ACAD_SCALELIST
350
14
  3
ACAD_TABLESTYLE
350
15
  3
ACAD_VISUALSTYLE
350
16
  3
EZDXF_META
350
2D
  0
DICTIONARY
  5
B
330
A
100
AcDbDictionary
281
1
  0
DICTIONARY
  5
C
330
A
100
AcDbDictionary
281
1
  0
DICTIONARY
  5
D
330
A
100
AcDbDictionary
281
1
  3
Model
350
1A
  3
Layout1
350
1E
  0
DICTIONARY
  5
E
330
A
100
AcDbDictionary
281
1
  3
ByBlock
350
1F
  3
ByLayer
350
20
  3
Global
350
21
  0
DICTIONARY
  5
F
330
A
100
AcDbDictionary
281
1
  3
Standard
350
2C
  0
DICTIONARY
  5
10
330
A
100
AcDbDictionary
281
1
  3
Standard
350
22
  0
DICTIONARY
  5
11
330
A
100
AcDbDictionary
281
1
  0
ACDBDICTIONARYWDFLT
  5
12
330
A
100
AcDbDictionary
281
1
  3
Normal
350
13
100
AcDbDictionaryWithDefault
340
13
  0
ACDBPLACEHOLDER
  5
13
330
12
  0
DICTIONARY
  5
14
330
A
100
AcDbDictionary
281
1
  0
DICTIONARY
  5
15
330
A
100
AcDbDictionary
281
1
  0
DICTIONARY
  5
16
330
A
100
AcDbDictionary
281
1
  3
2dWireframe
350
5A
  3
Basic
350
5B
  3
Brighten
350
5C
  3
ColorChange
350
5D
  3
Conceptual
350
5E
  3
Dim
350
5F
  3
EdgeColorOff
350
60
  3
Facepattern
350
61
  3
Flat
350
62
  3
FlatWithEdges
350
63
  3
Gouraud
350
64
  3
GouraudWithEdges
350
65
  3
Hidden
350
66
  3
JitterOff
350
67
  3
Linepattern
350
68
  3
Modeling
350
69
  3
OverhangOff
350
6A
  3
Realistic
350
6B
  3
Shaded
350
6C
  3
Shaded with edges
350
6D
  3
Shades of Gray
350
6E
  3
Sketchy
350
6F
  3
Thicken
350
70
  3
Wireframe
350
71
  3
X-Ray
350
72
  0
LAYOUT
  5
1A
330
D
100
AcDbPlotSettings
  1

  4
A3
  6

 40
7.5
 41
20.0
 42
7.5
 43
20.0
 44
420.0
 45
297.0
 46
0.0
 47
0.0
 48
0.0
 49
0.0
140
0.0
141
0.0
142
1.0
143
1.0
 70
1024
 72
1
 73
0
 74
5
  7

 75
16
 76
0
 77
2
 78
300
147
1.0
148
0.0
149
0.0
100
AcDbLayout
  1
Model
 70
1
 71
0
 10
0.0
 20
0.0
 11
420.0
 21
297.0
 12
0.0
 22
0.0
 32
0.0
 14
1e+20
 24
1e+20
 34
1e+20
 15
-1e+20
 25
-1e+20
 35
-1e+20
146
0.0
 13
0.0
 23
0.0
 33
0.0
 16
1.0
 26
0.0
 36
0.0
 17
0.0
 27
1.0
 37
0.0
 76
1
330
17
  0
LAYOUT
  5
1E
330
D
100
AcDbPlotSettings
  1

  4
A3
  6

 40
7.5
 41
20.0
 42
7.5
 43
20.0
 44
420.0
 45
297.0
 46
0.0
 47
0.0
 48
0.0
 49
0.0
140
0.0
141
0.0
142
1.0
143
1.0
 70
0
 72
1
 73
0
 74
5
  7

 75
16
 76
0
 77
2
 78
300
147
1.0
148
0.0
149
0.0
100
AcDbLayout
  1
Layout1
 70
1
 71
1
 10
0.0
 20
0.0
 11
420.0
 21
297.0
 12
0.0
 22
0.0
 32
0.0
 14
1e+20
 24
1e+20
 34
1e+20
 15
-1e+20
 25
-1e+20
 35
-1e+20
146
0.0
 13
0.0
 23
0.0
 33
0.0
 16
1.0
 26
0.0
 36
0.0
 17
0.0
 27
1.0
 37
0.0
 76
1
330
1B
  0
MATERIAL
  5
1F
102
{ACAD_REACTORS
330
E
102
}
330
E
100
AcDbMaterial
  1
ByBlock
  2

 70
0
 40
1.0
 71
1
 41
1.0
 91
-1023410177
 42
1.0
 72
1
  3

 73
1
 74
1
 75
1
 44
0.5
 73
0
 45
1.0
 46
1.0
 77
1
  4

 78
1
 79
1
170
1
 48
1.0
171
1
  6

172
1
173
1
174
1
140
1.0
141
1.0
175
1
  7

176
1
177
1
178
1
143
1.0
179
1
  8

270
1
271
1
272
1
145
1.0
146
1.0
273
1
  9

274
1
275
1
276
1
 42
1.0
 72
1
  3

 73
1
 74
1
 75
1
 94
63
  0
MATERIAL
  5
20
102
{ACAD_REACTORS
330
E
102
}
330
E
100
AcDbMaterial
  1
ByLayer
  2

 70
0
 40
1.0
 71
1
 41
1.0
 91
-1023410177
 42
1.0
 72
1
  3

 73
1
 74
1
 75
1
 44
0.5
 73
0
 45
1.0
 46
1.0
 77
1
  4

 78
1
 79
1
170
1
 48
1.0
171
1
  6

172
1
173
1
174
1
140
1.0
141
1.0
175
1
  7

176
1
177
1
178
1
143
1.0
179
1
  8

270
1
271
1
272
1
145
1.0
146
1.0
273
1
  9

274
1
275
1
276
1
 42
1.0
 72
1
  3

 73
1
 74
1
 75
1
 94
63
  0
MATERIAL
  5
21
102
{ACAD_REACTORS
330
E
102
}
330
E
100
AcDbMaterial
  1
Global
  2

 70
0
 40
1.0
 71
1
 41
1.0
 91
-1023410177
 42
1.0
 72
1
  3

 73
1
 74
1
 75
1
 44
0.5
 73
0
 45
1.0
 46
1.0
 77
1
  4

 78
1
 79
1
170
1
 48
1.0
171
1
  6

172
1
173
1
174
1
140
1.0
141
1.0
175
1
  7

176
1
177
1
178
1
143
1.0
179
1
  8

270
1
271
1
272
1
145
1.0
146
1.0
273
1
  9

274
1
275
1
276
1
 42
1.0
 72
1
  3

 73
1
 74
1
 75
1
 94
63
  0
MLINESTYLE
  5
22
102
{ACAD_REACTORS
330
10
102
}
330
10
100
AcDbMlineStyle
  2
Standard
 70
0
  3

 62
256
 51
90.0
 52
90.0
 71
2
 49
0.5
 62
256
  6
BYLAYER
 49
-0.5
 62
256
  6
BYLAYER
  0
MLEADERSTYLE
  5
2C
102
{ACAD_REACTORS
330
F
102
}
330
F
100
AcDbMLeaderStyle
179
2
170
2
171
1
172
0
 90
2
 40
0.0
 41
0.0
173
1
 91
-1056964608
 92
-2
290
1
 42
2.0
291
1
 43
8.0
  3
Standard
 44
4.0
300

342
29
174
1
175
1
176
0
178
1
 93
-1056964608
 45
4.0
292
0
297
0
 46
4.0
 94
-1056964608
 47
1.0
 49
1.0
140
1.0
294
1
141
0.0
177
0
142
1.0
295
0
296
0
143
3.75
271
0
272
9
273
9
  0
DICTIONARY
  5
2D
330
A
100
AcDbDictionary
280
1
281
1
  3
CREATED_BY_EZDXF
350
2E
  3
WRITTEN_BY_EZDXF
350
A1
  0
DICTIONARYVAR
  5
2E
330
2D
100
DictionaryVariables
280
0
  1
1.4.4 @ 2026-09-24T23:31:25.239977+00:00
  0
VISUALSTYLE
  5
5A
102
{ACAD_REACTORS
330
16
102
}
330
16
100
AcDbVisualStyle
  2
2dWireframe
 70
4
 90
0
 40
0.6
 62
7
290
0
291
0
  0
VISUALSTYLE
  5
5B
102
{ACAD_REACTORS
330
16
102
}
330
16
100
AcDbVisualStyle
  2
Basic
 70
7
 90
1
 40
0.6
 62
7
290
0
291
1
  0
VISUALSTYLE
  5
5C
102
{ACAD_REACTORS
330
16
102
}
330
16
100
AcDbVisualStyle
  2
Brighten
 70
12
 90
2
 40
0.6
 62
7
290
0
291
1
  0
VISUALSTYLE
  5
5D
102
{ACAD_REACTORS
330
16
102
}
330
16
100
AcDbVisualStyle
  2
ColorChange
 70
16
 90
2
 40
0.6
 62
8
290
0
291
1
  0
VISUALSTYLE
  5
5E
102
{ACAD_REACTORS
330
16
102
}
330
16
100
AcDbVisualStyle
  2
Conceptual
 70
9
 90
3
 40
0.6
 62
7
290
0
291
0
  0
VISUALSTYLE
  5
5F
102
{ACAD_REACTORS
330
16
102
}
330
16
100
AcDbVisualStyle
  2
Dim
 70
11
 90
2
 40
0.6
 62
7
290
0
291
1
  0
VISUALSTYLE
  5
60
102
{ACAD_REACTORS
330
16
102
}
330
16
100
AcDbVisualStyle
  2
EdgeColorOff
 70
22
 90
2
 40
0.6
 62
7
290
0
291
1
  0
VISUALSTYLE
  5
61
102
{ACAD_REACTORS
330
16
102
}
330
16
100
AcDbVisualStyle
  2
Facepattern
 70
15
 90
2
 40
0.6
 62
7
290
0
291
1
  0
VISUALSTYLE
  5
62
102
{ACAD_REACTORS
330
16
102
}
330
16
100
AcDbVisualStyle
  2
Flat
 70
0
 90
2
 40
0.6
 62
7
290
0
291
1
  0
VISUALSTYLE
  5
63
102
{ACAD_REACTORS
330
16
102
}
330
16
100
AcDbVisualStyle
  2
FlatWithEdges
 70
1
 90
2
 40
0.6
 62
7
290
0
291
1
  0
VISUALSTYLE
  5
64
102
{ACAD_REACTORS
330
16
102
}
330
16
100
AcDbVisualStyle
  2
Gouraud
 70
2
 90
2
 40
0.6
 62
7
290
0
291
1
  0
VISUALSTYLE
  5
65
102
{ACAD_REACTORS
330
16
102
}
330
16
100
AcDbVisualStyle
  2
GouraudWithEdges
 70
3
 90
2
 40
0.6
 62
7
290
0
291
1
  0
VISUALSTYLE
  5
66
102
{ACAD_REACTORS
330
16
102
}
330
16
100
AcDbVisualStyle
  2
Hidden
 70
6
 90
1
 40
0.6
 62
7
290
0
291
0
  0
VISUALSTYLE
  5
67
102
{ACAD_REACTORS
330
16
102
}
330
16
100
AcDbVisualStyle
  2
JitterOff
 70
20
 90
2
 40
0.6
 62
7
290
0
291
1
  0
VISUALSTYLE
  5
68
102
{ACAD_REACTORS
330
16
102
}
330
16
100
AcDbVisualStyle
  2
Linepattern
 70
14
 90
2
 40
0.6
 62
7
290
0
291
1
  0
VISUALSTYLE
  5
69
102
{ACAD_REACTORS
330
16
102
}
330
16
100
AcDbVisualStyle
  2
Modeling
 70
10
 90
2
 40
0.6
 62
7
290
0
291
0
  0
VISUALSTYLE
  5
6A
102
{ACAD_REACTORS
330
16
102
}
330
16
100
AcDbVisualStyle
  2
OverhangOff
 70
21
 90
2
 40
0.6
 62
7
290
0
291
1
  0
VISUALSTYLE
  5
6B
102
{ACAD_REACTORS
330
16
102
}
330
16
100
AcDbVisualStyle
  2
Realistic
 70
8
 90
2
 40
0.6
 62
7
290
0
291
0
  0
VISUALSTYLE
  5
6C
102
{ACAD_REACTORS
330
16
102
}
330
16
100
AcDbVisualStyle
  2
Shaded
 70
27
 90
2
 40
0.6
 62
7
290
0
291
0
  0
VISUALSTYLE
  5
6D
102
{ACAD_REACTORS
330
16
102
}
330
16
100
AcDbVisualStyle
  2
Shaded with edges
 70
26
 90
2
 40
0.6
 62
7
290
0
291
0
  0
VISUALSTYLE
  5
6E
102
{ACAD_REACTORS
330
16
102
}
330
16
100
AcDbVisualStyle
  2
Shades of Gray
 70
23
 90
2
 40
0.6
 62
7
290
0
291
0
  0
VISUALSTYLE
  5
6F
102
{ACAD_REACTORS
330
16
102
}
330
16
100
AcDbVisualStyle
  2
Sketchy
 70
24
 90
1
 40
0.6
 62
7
290
0
291
0
  0
VISUALSTYLE
  5
70
102
{ACAD_REACTORS
330
16
102
}
330
16
100
AcDbVisualStyle
  2
Thicken
 70
13
 90
2
 40
0.6
 62
7
290
0
291
1
  0
VISUALSTYLE
  5
71
102
{ACAD_REACTORS
330
16
102
}
330
16
100
AcDbVisualStyle
  2
Wireframe
 70
5
 90
0
 40
0.6
 62
7
290
0
291
0
  0
VISUALSTYLE
  5
72
102
{ACAD_REACTORS
330
16
102
}
330
16
100
AcDbVisualStyle
  2
X-Ray
 70
25
 90
2
 40
0.5
 62
7
290
0
291
0
  0
DICTIONARYVAR
  5
A1
330
2D
100
DictionaryVariables
280
0
  1
1.4.4 @ 2026-09-24T23:31:25.245562+00:00
  0
ENDSEC
  0
EOF
