  0
SECTION
  2
HEADER
  9
$ACADVER
  1
AC1024
  9
$ACADMAINTVER
 70
6
  9
$DWGCODEPAGE
  3
ANSI_1252
  9
$LASTSAVEDBY
  1
ezdxf
  9
$INSBASE
 10
0.0
 20
0.0
 30
0.0
  9
$EXTMIN
 10
1e+20
 20
1e+20
 30
1e+20
  9
$EXTMAX
 10
-1e+20
 20
-1e+20
 30
-1e+20
  9
$LIMMIN
 10
0.0
 20
0.0
  9
$LIMMAX
 10
420.0
 20
297.0
  9
$ORTHOMODE
 70
0
  9
$REGENMODE
 70
1
  9
$FILLMODE
 70
1
  9
$QTEXTMODE
 70
0
  9
$MIRRTEXT
 70
1
  9
$LTSCALE
 40
1.0
  9
$ATTMODE
 70
1
  9
$TEXTSIZE
 40
2.5
  9
$TRACEWID
 40
1.0
  9
$TEXTSTYLE
  7
OpenSans
  9
$CLAYER
  8
0
  9
$CELTYPE
  6
ByLayer
  9
$CECOLOR
 62
256
  9
$CELTSCALE
 40
1.0
  9
$DISPSILH
 70
0
  9
$DIMSCALE
 40
1.0
  9
$DIMASZ
 40
0.175
  9
$DIMEXO
 40
0.125
  9
$DIMDLI
 40
3.75
  9
$DIMRND
 40
0.0
  9
$DIMDLE
 40
0.0
  9
$DIMEXE
 40
0.375
  9
$DIMTP
 40
0.0
  9
$DIMTM
 40
0.0
  9
$DIMTXT
 40
0.25
  9
$DIMCEN
 40
2.5
  9
$DIMTSZ
 40
0.0
  9
$DIMTOL
 70
0
  9
$DIMLIM
 70
0
  9
$DIMTIH
 70
0
  9
$DIMTOH
 70
0
  9
$DIMSE1
 70
0
  9
$DIMSE2
 70
0
  9
$DIMTAD
 70
1
  9
$DIMZIN
 70
12
  9
$DIMBLK
  1
ARCHTICK
  9
$DIMASO
 70
1
  9
$DIMSHO
 70
1
  9
$DIMPOST
  1

  9
$DIMAPOST
  1

  9
$DIMALT
 70
0
  9
$DIMALTD
 70
3
  9
$DIMALTF
 40
0.03937007874
  9
$DIMLFAC
 40
100.0
  9
$DIMTOFL
 70
1
  9
$DIMTVP
 40
0.0
  9
$DIMTIX
 70
0
  9
$DIMSOXD
 70
0
  9
$DIMSAH
 70
0
  9
$DIMBLK1
  1

  9
$DIMBLK2
  1

  9
$DIMSTYLE
  2
EZDXF
  9
$DIMCLRD
 70
0
  9
$DIMCLRE
 70
0
  9
$DIMCLRT
 70
0
  9
$DIMTFAC
 40
0.5
  9
$DIMGAP
 40
0.1
  9
$DIMJUST
 70
0
  9
$DIMSD1
 70
0
  9
$DIMSD2
 70
0
  9
$DIMTOLJ
 70
0
  9
$DIMTZIN
 70
8
  9
$DIMALTZ
 70
0
  9
$DIMALTTZ
 70
0
  9
$DIMUPT
 70
1
  9
$DIMDEC
 70
2
  9
$DIMTDEC
 70
2
  9
$DIMALTU
 70
2
  9
$DIMALTTD
 70
3
  9
$DIMTXSTY
  7
OpenSansCondensed-Light
  9
$DIMAUNIT
 70
0
  9
$DIMADEC
 70
2
  9
$DIMALTRND
 40
0.0
  9
$DIMAZIN
 70
3
  9
$DIMDSEP
 70
46
  9
$DIMATFIT
 70
3
  9
$DIMFRAC
 70
0
  9
$DIMLDRBLK
  1

  9
$DIMLUNIT
 70
2
  9
$DIMLWD
 70
-2
  9
$DIMLWE
 70
-2
  9
$DIMTMOVE
 70
2
  9
$DIMFXL
 40
1.0
  9
$DIMFXLON
 70
0
  9
$DIMJOGANG
 40
0.785398163397
  9
$DIMTFILL
 70
0
  9
$DIMTFILLCLR
 70
0
  9
$DIMARCSYM
 70
0
  9
$DIMLTYPE
  6

  9
$DIMLTEX1
  6

  9
$DIMLTEX2
  6

  9
$DIMTXTDIRECTION
 70
0
  9
$LUNITS
 70
2
  9
$LUPREC
 70
4
  9
$SKETCHINC
 40
1.0
  9
$FILLETRAD
 40
10.0
  9
$AUNITS
 70
0
  9
$AUPREC
 70
2
  9
$MENU
  1
.
  9
$ELEVATION
 40
0.0
  9
$PELEVATION
 40
0.0
  9
$THICKNESS
 40
0.0
  9
$LIMCHECK
 70
0
  9
$CHAMFERA
 40
0.0
  9
$CHAMFERB
 40
0.0
  9
$CHAMFERC
 40
0.0
  9
$CHAMFERD
 40
0.0
  9
$SKPOLY
 70
0
  9
$TDCREATE
 40
2461310.1902662036
  9
$TDUCREATE
 40
2458532.153996898
  9
$TDUPDATE
 40
2461310.1902662036
  9
$TDUUPDATE
 40
2458532.1544311
  9
$TDINDWG
 40
0.0
  9
$TDUSRTIMER
 40
0.0
  9
$USRTIMER
 70
1
  9
$ANGBASE
 50
0.0
  9
$ANGDIR
 70
0
  9
$PDMODE
 70
0
  9
$PDSIZE
 40
0.0
  9
$PLINEWID
 40
0.0
  9
$SPLFRAME
 70
0
  9
$SPLINETYPE
 70
6
  9
$SPLINESEGS
 70
8
  9
$HANDSEED
  5
9C
  9
$SURFTAB1
 70
6
  9
$SURFTAB2
 70
6
  9
$SURFTYPE
 70
6
  9
$SURFU
 70
6
  9
$SURFV
 70
6
  9
$UCSBASE
  2

  9
$UCSNAME
  2

  9
$UCSORG
 10
0.0
 20
0.0
 30
0.0
  9
$UCSXDIR
 10
1.0
 20
0.0
 30
0.0
  9
$UCSYDIR
 10
0.0
 20
1.0
 30
0.0
  9
$UCSORTHOREF
  2

  9
$UCSORTHOVIEW
 70
0
  9
$UCSORGTOP
 10
0.0
 20
0.0
 30
0.0
  9
$UCSORGBOTTOM
 10
0.0
 20
0.0
 30
0.0
  9
$UCSORGLEFT
 10
0.0
 20
0.0
 30
0.0
  9
$UCSORGRIGHT
 10
0.0
 20
0.0
 30
0.0
  9
$UCSORGFRONT
 10
0.0
 20
0.0
 30
0.0
  9
$UCSORGBACK
 10
0.0
 20
0.0
 30
0.0
  9
$PUCSBASE
  2

  9
$PUCSNAME
  2

  9
$PUCSORG
 10
0.0
 20
0.0
 30
0.0
  9
$PUCSXDIR
 10
1.0
 20
0.0
 30
0.0
  9
$PUCSYDIR
 10
0.0
 20
1.0
 30
0.0
  9
$PUCSORTHOREF
  2

  9
$PUCSORTHOVIEW
 70
0
  9
$PUCSORGTOP
 10
0.0
 20
0.0
 30
0.0
  9
$PUCSORGBOTTOM
 10
0.0
 20
0.0
 30
0.0
  9
$PUCSORGLEFT
 10
0.0
 20
0.0
 30
0.0
  9
$PUCSORGRIGHT
 10
0.0
 20
0.0
 30
0.0
  9
$PUCSORGFRONT
 10
0.0
 20
0.0
 30
0.0
  9
$PUCSORGBACK
 10
0.0
 20
0.0
 30
0.0
  9
$USERI1
 70
0
  9
$USERI2
 70
0
  9
$USERI3
 70
0
  9
$USERI4
 70
0
  9
$USERI5
 70
0
  9
$USERR1
 40
0.0
  9
$USERR2
 40
0.0
  9
$USERR3
 40
0.0
  9
$USERR4
 40
0.0
  9
$USERR5
 40
0.0
  9
$WORLDVIEW
 70
1
  9
$SHADEDGE
 70
3
  9
$SHADEDIF
 70
70
  9
$TILEMODE
 70
1
  9
$MAXACTVP
 70
64
  9
$PINSBASE
 10
0.0
 20
0.0
 30
0.0
  9
$PLIMCHECK
 70
0
  9
$PEXTMIN
 10
1e+20
 20
1e+20
 30
1e+20
  9
$PEXTMAX
 10
-1e+20
 20
-1e+20
 30
-1e+20
  9
$PLIMMIN
 10
0.0
 20
0.0
  9
$PLIMMAX
 10
420.0
 20
297.0
  9
$UNITMODE
 70
0
  9
$VISRETAIN
 70
1
  9
$PLINEGEN
 70
0
  9
$PSLTSCALE
 70
1
  9
$TREEDEPTH
 70
3020
  9
$CMLSTYLE
  2
Standard
  9
$CMLJUST
 70
0
  9
$CMLSCALE
 40
20.0
  9
$PROXYGRAPHICS
 70
1
  9
$MEASUREMENT
 70
1
  9
$CELWEIGHT
370
-1
  9
$ENDCAPS
280
0
  9
$JOINSTYLE
280
0
  9
$LWDISPLAY
290
0
  9
$INSUNITS
 70
4
  9
$HYPERLINKBASE
  1

  9
$STYLESHEET
  1

  9
$XEDIT
290
1
  9
$CEPSNTYPE
380
0
  9
$PSTYLEMODE
290
1
  9
$FINGERPRINTGUID
  2
{CC76C66C-1C84-4AF6-A99D-DEE19EA51141}
  9
$VERSIONGUID
  2
{7B828C13-8806-4C77-83BA-8B75FCB72B16}
  9
$EXTNAMES
290
1
  9
$PSVPSCALE
 40
0.0
  9
$OLESTARTUP
290
0
  9
$SORTENTS
280
127
  9
$INDEXCTL
280
0
  9
$HIDETEXT
280
1
  9
$XCLIPFRAME
280
1
  9
$HALOGAP
280
0
  9
$OBSCOLOR
 70
257
  9
$OBSLTYPE
280
0
  9
$INTERSECTIONDISPLAY
280
0
  9
$INTERSECTIONCOLOR
 70
257
  9
$DIMASSOC
280
2
  9
$PROJECTNAME
  1

  9
$CAMERADISPLAY
290
0
  9
$LENSLENGTH
 40
50.0
  9
$CAMERAHEIGHT
 40
0.0
  9
$STEPSPERSEC
 40
24.0
  9
$STEPSIZE
 40
100.0
  9
$3DDWFPREC
 40
2.0
  9
$PSOLWIDTH
 40
0.005
  9
$PSOLHEIGHT
 40
0.08
  9
$LOFTANG1
 40
1.570796326795
  9
$LOFTANG2
 40
1.570796326795
  9
$LOFTMAG1
 40
0.0
  9
$LOFTMAG2
 40
0.0
  9
$LOFTPARAM
 70
7
  9
$LOFTNORMALS
280
1
  9
$LATITUDE
 40
37.795
  9
$LONGITUDE
 40
-122.394
  9
$NORTHDIRECTION
 40
0.0
  9
$TIMEZONE
 70
-8000
  9
$LIGHTGLYPHDISPLAY
280
1
  9
$TILEMODELIGHTSYNCH
280
1
  9
$CMATERIAL
347
20
  9
$SOLIDHIST
280
0
  9
$SHOWHIST
280
1
  9
$DWFFRAME
280
2
  9
$DGNFRAME
280
2
  9
$REALWORLDSCALE
290
1
  9
$INTERFERECOLOR
 62
256
  9
$CSHADOW
280
0
  9
$SHADOWPLANELOCATION
 40
0.0
  0
ENDSEC
  0
SECTION
  2
CLASSES
  0
CLASS
  1
ACDBDICTIONARYWDFLT
  2
AcDbDictionaryWithDefault
  3
ObjectDBX Classes
 90
0
 91
0
280
0
281
0
  0
CLASS
  1
SUN
  2
AcDbSun
  3
SCENEOE
 90
1153
 91
0
280
0
281
0
  0
CLASS
  1
VISUALSTYLE
  2
AcDbVisualStyle
  3
ObjectDBX Classes
 90
4095
 91
0
280
0
281
0
  0
CLASS
  1
MATERIAL
  2
AcDbMaterial
  3
ObjectDBX Classes
 90
1153
 91
0
280
0
281
0
  0
CLASS
  1
SCALE
  2
AcDbScale
  3
ObjectDBX Classes
 90
1153
 91
0
280
0
281
0
  0
CLASS
  1
TABLESTYLE
  2
AcDbTableStyle
  3
ObjectDBX Classes
 90
4095
 91
0
280
0
281
0
  0
CLASS
  1
MLEADERSTYLE
  2
AcDbMLeaderStyle
  3
ACDB_MLEADERSTYLE_CLASS
 90
4095
 91
0
280
0
281
0
  0
CLASS
  1
DICTIONARYVAR
  2
AcDbDictionaryVar
  3
ObjectDBX Classes
 90
0
 91
0
280
0
281
0
  0
CLASS
  1
CELLSTYLEMAP
  2
AcDbCellStyleMap
  3
ObjectDBX Classes
 90
1152
 91
0
280
0
281
0
  0
CLASS
  1
MENTALRAYRENDERSETTINGS
  2
AcDbMentalRayRenderSettings
  3
SCENEOE
 90
1024
 91
0
280
0
281
0
  0
CLASS
  1
ACDBDETAILVIEWSTYLE
  2
AcDbDetailViewStyle
  3
ObjectDBX Classes
 90
1025
 91
0
280
0
281
0
  0
CLASS
  1
ACDBSECTIONVIEWSTYLE
  2
AcDbSectionViewStyle
  3
ObjectDBX Classes
 90
1025
 91
0
280
0
281
0
  0
CLASS
  1
RASTERVARIABLES
  2
AcDbRasterVariables
  3
ISM
 90
0
 91
0
280
0
281
0
  0
CLASS
  1
LAYOUT
  2
AcDbLayout
  3
ObjectDBX Classes
 90
0
 91
0
280
0
281
0
  0
CLASS
  1
ACDBPLACEHOLDER
  2
AcDbPlaceHolder
  3
ObjectDBX Classes
 90
0
 91
0
280
0
281
0
  0
ENDSEC
  0
SECTION
  2
TABLES
  0
TABLE
  2
VPORT
  5
8
330
0
100
AcDbSymbolTable
 70
1
  0
VPORT
  5
23
330
8
100
AcDbSymbolTableRecord
100
AcDbViewportTableRecord
  2
*Active
 70
0
 10
0.0
 20
0.0
 11
1.0
 21
1.0
 12
0.0
 22
0.0
 13
0.0
 23
0.0
 14
0.5
 24
0.5
 15
0.5
 25
0.5
 16
0.0
 26
0.0
 36
1.0
 17
0.0
 27
0.0
 37
0.0
 40
1000.0
 41
1.34
 42
50.0
 43
0.0
 44
0.0
 50
0.0
 51
0.0
 71
0
 72
1000
 73
1
 74
3
 75
0
 76
0
 77
0
 78
0
281
0
 65
0
146
0.0
  0
ENDTAB
  0
TABLE
  2
LTYPE
  5
2
330
0
100
AcDbSymbolTable
 70
21
  0
LTYPE
  5
24
330
2
100
AcDbSymbolTableRecord
100
AcDbLinetypeTableRecord
  2
ByBlock
 70
0
  3

 72
65
 73
0
 40
0.0
  0
LTYPE
  5
25
330
2
100
AcDbSymbolTableRecord
100
AcDbLinetypeTableRecord
  2
ByLayer
 70
0
  3

 72
65
 73
0
 40
0.0
  0
LTYPE
  5
26
330
2
100
AcDbSymbolTableRecord
100
AcDbLinetypeTableRecord
  2
Continuous
 70
0
  3

 72
65
 73
0
 40
0.0
  0
LTYPE
  5
2F
330
2
100
AcDbSymbolTableRecord
100
AcDbLinetypeTableRecord
  2
CENTER
 70
0
  3
Center ____ _ ____ _ ____ _ ____ _ ____ _ ____
 72
65
 73
4
 40
5.08
 49
3.175
 74
0
 49
-0.635
 74
0
 49
0.635
 74
0
 49
-0.635
 74
0
  0
LTYPE
  5
30
330
2
100
AcDbSymbolTableRecord
100
AcDbLinetypeTableRecord
  2
CENTERX2
 70
0
  3
Center (2x) ________  __  ________  __  ________
 72
65
 73
4
 40
8.89
 49
6.35
 74
0
 49
-0.635
 74
0
 49
1.27
 74
0
 49
-0.635
 74
0
  0
LTYPE
  5
31
330
2
100
AcDbSymbolTableRecord
100
AcDbLinetypeTableRecord
  2
CENTER2
 70
0
  3
Center (.5x) ____ _ ____ _ ____ _ ____ _ ____
 72
65
 73
4
 40
2.54
 49
1.587
 74
0
 49
-0.318
 74
0
 49
0.318
 74
0
 49
-0.318
 74
0
  0
LTYPE
  5
32
330
2
100
AcDbSymbolTableRecord
100
AcDbLinetypeTableRecord
  2
DASHED
 70
0
  3
Dashed __ __ __ __ __ __ __ __ __ __ __ __ __ _
 72
65
 73
2
 40
1.524
 49
1.27
 74
0
 49
-0.254
 74
0
  0
LTYPE
  5
33
330
2
100
AcDbSymbolTableRecord
100
AcDbLinetypeTableRecord
  2
DASHEDX2
 70
0
  3
Dashed (2x) ____  ____  ____  ____  ____  ____
 72
65
 73
2
 40
3.048
 49
2.54
 74
0
 49
-0.508
 74
0
  0
LTYPE
  5
34
330
2
100
AcDbSymbolTableRecord
100
AcDbLinetypeTableRecord
  2
DASHED2
 70
0
  3
Dashed (.5x) _ _ _ _ _ _ _ _ _ _ _ _ _ _
 72
65
 73
2
 40
0.762
 49
0.635
 74
0
 49
-0.127
 74
0
  0
LTYPE
  5
35
330
2
100
AcDbSymbolTableRecord
100
AcDbLinetypeTableRecord
  2
PHANTOM
 70
0
  3
Phantom ______  __  __  ______  __  __  ______
 72
65
 73
6
 40
6.35
 49
3.175
 74
0
 49
-0.635
 74
0
 49
0.635
 74
0
 49
-0.635
 74
0
 49
0.635
 74
0
 49
-0.635
 74
0
  0
LTYPE
  5
36
330
2
100
AcDbSymbolTableRecord
100
AcDbLinetypeTableRecord
  2
PHANTOMX2
 70
0
  3
Phantom (2x)____________    ____    ____    ____________
 72
65
 73
6
 40
10.795
 49
6.35
 74
0
 49
-0.635
 74
0
 49
1.27
 74
0
 49
-0.635
 74
0
 49
1.27
 74
0
 49
-0.635
 74
0
  0
LTYPE
  5
37
330
2
100
AcDbSymbolTableRecord
100
AcDbLinetypeTableRecord
  2
PHANTOM2
 70
0
  3
Phantom (.5x) ___ _ _ ___ _ _ ___ _ _ ___ _ _ ___
 72
65
 73
6
 40
3.175
 49
1.587
 74
0
 49
-0.318
 74
0
 49
0.318
 74
0
 49
-0.318
 74
0
 49
0.318
 74
0
 49
-0.318
 74
0
  0
LTYPE
  5
38
330
2
100
AcDbSymbolTableRecord
100
AcDbLinetypeTableRecord
  2
DASHDOT
 70
0
  3
Dash dot __ . __ . __ . __ . __ . __ . __ . __
 72
65
 73
4
 40
3.556
 49
2.54
 74
0
 49
-0.508
 74
0
 49
0.0
 74
0
 49
-0.508
 74
0
  0
LTYPE
  5
39
330
2
100
AcDbSymbolTableRecord
100
AcDbLinetypeTableRecord
  2
DASHDOTX2
 70
0
  3
Dash dot (2x) ____  .  ____  .  ____  .  ____
 72
65
 73
4
 40
6.096
 49
5.08
 74
0
 49
-0.508
 74
0
 49
0.0
 74
0
 49
-0.508
 74
0
  0
LTYPE
  5
3A
330
2
100
AcDbSymbolTableRecord
100
AcDbLinetypeTableRecord
  2
DASHDOT2
 70
0
  3
Dash dot (.5x) _ . _ . _ . _ . _ . _ . _ . _
 72
65
 73
4
 40
1.778
 49
1.27
 74
0
 49
-0.254
 74
0
 49
0.0
 74
0
 49
-0.254
 74
0
  0
LTYPE
  5
3B
330
2
100
AcDbSymbolTableRecord
100
AcDbLinetypeTableRecord
  2
DOT
 70
0
  3
Dot .  .  .  .  .  .  .  .  .  .  .  .  .  .  .  .
 72
65
 73
2
 40
0.508
 49
0.0
 74
0
 49
-0.508
 74
0
  0
LTYPE
  5
3C
330
2
100
AcDbSymbolTableRecord
100
AcDbLinetypeTableRecord
  2
DOTX2
 70
0
  3
Dot (2x) .    .    .    .    .    .    .    . 
 72
65
 73
2
 40
1.016
 49
0.0
 74
0
 49
-1.016
 74
0
  0
LTYPE
  5
3D
330
2
100
AcDbSymbolTableRecord
100
AcDbLinetypeTableRecord
  2
DOT2
 70
0
  3
Dot (.5) . . . . . . . . . . . . . . . . . . . 
 72
65
 73
2
 40
0.254
 49
0.0
 74
0
 49
-0.254
 74
0
  0
LTYPE
  5
3E
330
2
100
AcDbSymbolTableRecord
100
AcDbLinetypeTableRecord
  2
DIVIDE
 70
0
  3
Divide __ . . __ . . __ . . __ . . __ . . __
 72
65
 73
6
 40
4.064
 49
2.54
 74
0
 49
-0.508
 74
0
 49
0.0
 74
0
 49
-0.508
 74
0
 49
0.0
 74
0
 49
-0.508
 74
0
  0
LTYPE
  5
3F
330
2
100
AcDbSymbolTableRecord
100
AcDbLinetypeTableRecord
  2
DIVIDEX2
 70
0
  3
Divide (2x) ____  . .  ____  . .  ____  . .  ____
 72
65
 73
6
 40
6.604
 49
5.08
 74
0
 49
-0.508
 74
0
 49
0.0
 74
0
 49
-0.508
 74
0
 49
0.0
 74
0
 49
-0.508
 74
0
  0
LTYPE
  5
40
330
2
100
AcDbSymbolTableRecord
100
AcDbLinetypeTableRecord
  2
DIVIDE2
 70
0
  3
Divide(.5x) _ . _ . _ . _ . _ . _ . _ . _
 72
65
 73
6
 40
2.032
 49
1.27
 74
0
 49
-0.254
 74
0
 49
0.0
 74
0
 49
-0.254
 74
0
 49
0.0
 74
0
 49
-0.254
 74
0
  0
ENDTAB
  0
TABLE
  2
LAYER
  5
1
330
0
100
AcDbSymbolTable
 70
4
  0
LAYER
  5
27
330
1
100
AcDbSymbolTableRecord
100
AcDbLayerTableRecord
  2
0
 70
0
 62
7
  6
Continuous
370
-3
390
13
347
21
  0
LAYER
  5
28
330
1
100
AcDbSymbolTableRecord
100
AcDbLayerTableRecord
  2
Defpoints
 70
0
 62
7
  6
Continuous
290
0
370
-3
390
13
347
21
  0
LAYER
  5
8A
330
1
100
AcDbSymbolTableRecord
100
AcDbLayerTableRecord
  2
CORTE
 70
0
 62
1
  6
Continuous
370
-3
390
13
347
21
  0
LAYER
  5
8B
330
1
100
AcDbSymbolTableRecord
100
AcDbLayerTableRecord
  2
NOTAS
 70
0
 62
3
  6
Continuous
370
-3
390
13
347
21
  0
ENDTAB
  0
TABLE
  2
STYLE
  5
5
330
0
100
AcDbSymbolTable
 70
26
  0
STYLE
  5
29
330
5
100
AcDbSymbolTableRecord
100
AcDbTextStyleTableRecord
  2
Standard
 70
0
 40
0.0
 41
1.0
 50
0.0
 71
0
 42
2.5
  3
txt
  4

  0
STYLE
  5
41
330
5
100
AcDbSymbolTableRecord
100
AcDbTextStyleTableRecord
  2
OpenSans-Light
 70
0
 40
0.0
 41
1.0
 50
0.0
 71
0
 42
2.5
  3
OpenSans-Light.ttf
  4

  0
STYLE
  5
42
330
5
100
AcDbSymbolTableRecord
100
AcDbTextStyleTableRecord
  2
OpenSans-Light-Italic
 70
0
 40
0.0
 41
1.0
 50
0.0
 71
0
 42
2.5
  3
OpenSans-LightItalic.ttf
  4

  0
STYLE
  5
43
330
5
100
AcDbSymbolTableRecord
100
AcDbTextStyleTableRecord
  2
OpenSans
 70
0
 40
0.0
 41
1.0
 50
0.0
 71
0
 42
2.5
  3
OpenSans-Regular.ttf
  4

  0
STYLE
  5
44
330
5
100
AcDbSymbolTableRecord
100
AcDbTextStyleTableRecord
  2
OpenSans-Italic
 70
0
 40
0.0
 41
1.0
 50
0.0
 71
0
 42
2.5
  3
OpenSans-Italic.ttf
  4

  0
STYLE
  5
45
330
5
100
AcDbSymbolTableRecord
100
AcDbTextStyleTableRecord
  2
OpenSans-SemiBold
 70
0
 40
0.0
 41
1.0
 50
0.0
 71
0
 42
2.5
  3
OpenSans-SemiBold.ttf
  4

  0
STYLE
  5
46
330
5
100
AcDbSymbolTableRecord
100
AcDbTextStyleTableRecord
  2
OpenSans-SemiBoldItalic
 70
0
 40
0.0
 41
1.0
 50
0.0
 71
0
 42
2.5
  3
OpenSans-SemiBoldItalic.ttf
  4

  0
STYLE
  5
47
330
5
100
AcDbSymbolTableRecord
100
AcDbTextStyleTableRecord
  2
OpenSans-Bold
 70
0
 40
0.0
 41
1.0
 50
0.0
 71
0
 42
2.5
  3
OpenSans-Bold.ttf
  4

  0
STYLE
  5
48
330
5
100
AcDbSymbolTableRecord
100
AcDbTextStyleTableRecord
  2
OpenSans-BoldItalic
 70
0
 40
0.0
 41
1.0
 50
0.0
 71
0
 42
2.5
  3
OpenSans-BoldItalic.ttf
  4

  0
STYLE
  5
49
330
5
100
AcDbSymbolTableRecord
100
AcDbTextStyleTableRecord
  2
OpenSans-ExtraBold
 70
0
 40
0.0
 41
1.0
 50
0.0
 71
0
 42
2.5
  3
OpenSans-ExtraBold.ttf
  4

  0
STYLE
  5
4A
330
5
100
AcDbSymbolTableRecord
100
AcDbTextStyleTableRecord
  2
OpenSans-ExtraBoldItalic
 70
0
 40
0.0
 41
1.0
 50
0.0
 71
0
 42
2.5
  3
OpenSans-ExtraBoldItalic.ttf
  4

  0
STYLE
  5
4B
330
5
100
AcDbSymbolTableRecord
100
AcDbTextStyleTableRecord
  2
OpenSansCondensed-Bold
 70
0
 40
0.0
 41
1.0
 50
0.0
 71
0
 42
2.5
  3
OpenSansCondensed-Bold.ttf
  4

  0
STYLE
  5
4C
330
5
100
AcDbSymbolTableRecord
100
AcDbTextStyleTableRecord
  2
OpenSansCondensed-Light
 70
0
 40
0.0
 41
1.0
 50
0.0
 71
0
 42
2.5
  3
OpenSansCondensed-Light.ttf
  4

  0
STYLE
  5
4D
330
5
100
AcDbSymbolTableRecord
100
AcDbTextStyleTableRecord
  2
OpenSansCondensed-Italic
 70
0
 40
0.0
 41
1.0
 50
0.0
 71
0
 42
2.5
  3
OpenSansCondensed-LightItalic.ttf
  4

  0
STYLE
  5
4E
330
5
100
AcDbSymbolTableRecord
100
AcDbTextStyleTableRecord
  2
LiberationSans
 70
0
 40
0.0
 41
1.0
 50
0.0
 71
0
 42
2.5
  3
LiberationSans-Regular.ttf
  4

  0
STYLE
  5
4F
330
5
100
AcDbSymbolTableRecord
100
AcDbTextStyleTableRecord
  2
LiberationSans-Bold
 70
0
 40
0.0
 41
1.0
 50
0.0
 71
0
 42
2.5
  3
LiberationSans-Bold.ttf
  4

  0
STYLE
  5
50
330
5
100
AcDbSymbolTableRecord
100
AcDbTextStyleTableRecord
  2
LiberationSans-BoldItalic
 70
0
 40
0.0
 41
1.0
 50
0.0
 71
0
 42
2.5
  3
LiberationSans-BoldItalic.ttf
  4

  0
STYLE
  5
51
330
5
100
AcDbSymbolTableRecord
100
AcDbTextStyleTableRecord
  2
LiberationSans-Italic
 70
0
 40
0.0
 41
1.0
 50
0.0
 71
0
 42
2.5
  3
LiberationSans-Italic.ttf
  4

  0
STYLE
  5
52
330
5
100
AcDbSymbolTableRecord
100
AcDbTextStyleTableRecord
  2
LiberationSerif
 70
0
 40
0.0
 41
1.0
 50
0.0
 71
0
 42
2.5
  3
LiberationSerif-Regular.ttf
  4

  0
STYLE
  5
53
330
5
100
AcDbSymbolTableRecord
100
AcDbTextStyleTableRecord
  2
LiberationSerif-Bold
 70
0
 40
0.0
 41
1.0
 50
0.0
 71
0
 42
2.5
  3
LiberationSerif-Bold.ttf
  4

  0
STYLE
  5
54
330
5
100
AcDbSymbolTableRecord
100
AcDbTextStyleTableRecord
  2
LiberationSerif-BoldItalic
 70
0
 40
0.0
 41
1.0
 50
0.0
 71
0
 42
2.5
  3
LiberationSerif-BoldItalic.ttf
  4

  0
STYLE
  5
55
330
5
100
AcDbSymbolTableRecord
100
AcDbTextStyleTableRecord
  2
LiberationSerif-Italic
 70
0
 40
0.0
 41
1.0
 50
0.0
 71
0
 42
2.5
  3
LiberationSerif-Italic.ttf
  4

  0
STYLE
  5
56
330
5
100
AcDbSymbolTableRecord
100
AcDbTextStyleTableRecord
  2
LiberationMono
 70
0
 40
0.0
 41
1.0
 50
0.0
 71
0
 42
2.5
  3
LiberationMono-Regular.ttf
  4

  0
STYLE
  5
57
330
5
100
AcDbSymbolTableRecord
100
AcDbTextStyleTableRecord
  2
LiberationMono-Bold
 70
0
 40
0.0
 41
1.0
 50
0.0
 71
0
 42
2.5
  3
LiberationMono-Bold.ttf
  4

  0
STYLE
  5
58
330
5
100
AcDbSymbolTableRecord
100
AcDbTextStyleTableRecord
  2
LiberationMono-BoldItalic
 70
0
 40
0.0
 41
1.0
 50
0.0
 71
0
 42
2.5
  3
LiberationMono-BoldItalic.ttf
  4

  0
STYLE
  5
59
330
5
100
AcDbSymbolTableRecord
100
AcDbTextStyleTableRecord
  2
LiberationMono-Italic
 70
0
 40
0.0
 41
1.0
 50
0.0
 71
0
 42
2.5
  3
LiberationMono-Italic.ttf
  4

  0
ENDTAB
  0
TABLE
  2
VIEW
  5
7
330
0
100
AcDbSymbolTable
 70
0
  0
ENDTAB
  0
TABLE
  2
UCS
  5
6
330
0
100
AcDbSymbolTable
 70
0
  0
ENDTAB
  0
TABLE
  2
APPID
  5
3
330
0
100
AcDbSymbolTable
 70
3
  0
APPID
  5
2A
330
3
100
AcDbSymbolTableRecord
100
AcDbRegAppTableRecord
  2
ACAD
 70
0
  0
APPID
  5
99
330
3
100
AcDbSymbolTableRecord
100
AcDbRegAppTableRecord
  2
HATCHBACKGROUNDCOLOR
 70
0
  0
APPID
  5
9A
330
3
100
AcDbSymbolTableRecord
100
AcDbRegAppTableRecord
  2
EZDXF
 70
0
  0
ENDTAB
  0
TABLE
  2
DIMSTYLE
  5
4
330
0
100
AcDbSymbolTable
 70
12
100
AcDbDimStyleTable
  0
DIMSTYLE
105
2B
330
4
100
AcDbSymbolTableRecord
100
AcDbDimStyleTableRecord
  2
Standard
 70
0
 40
1.0
 41
2.5
 42
0.625
 43
3.75
 44
1.25
 45
0.0
 46
0.0
 47
0.0
 48
0.0
 49
2.5
140
2.5
141
2.5
142
0.0
143
0.03937007874
144
1.0
145
0.0
146
1.0
147
0.625
148
0.0
 69
0
 70
0
 71
0
 72
0
 73
0
 74
0
 75
0
 76
0
 77
1
 78
8
 79
3
170
0
171
3
172
1
173
0
174
0
175
0
176
0
177
0
178
0
179
2
271
2
272
2
273
2
274
3
275
0
276
0
277
2
278
44
279
0
280
0
281
0
282
0
283
0
284
8
285
0
286
0
288
0
289
3
290
0
371
-2
372
-2
  0
DIMSTYLE
105
73
330
4
100
AcDbSymbolTableRecord
100
AcDbDimStyleTableRecord
  2
EZDXF
 70
0
 40
1.0
 41
0.175
 42
0.125
 43
3.75
 44
0.375
 45
0.0
 46
0.0
 47
0.0
 48
0.0
 49
2.5
140
0.25
141
2.5
142
0.0
143
0.03937007874
144
100.0
145
0.0
146
0.5
147
0.1
148
0.0
 69
0
 70
0
 71
0
 72
0
 73
0
 74
0
 75
0
 76
0
 77
1
 78
12
 79
3
170
0
171
3
172
1
173
0
174
0
175
0
176
0
177
0
178
0
179
2
271
2
272
2
273
2
274
3
275
0
276
0
277
2
278
46
279
2
280
0
281
0
282
0
283
0
284
8
285
0
286
0
288
1
289
3
290
0
340
4C
342
74
371
-2
372
-2
  0
DIMSTYLE
105
7C
330
4
100
AcDbSymbolTableRecord
100
AcDbDimStyleTableRecord
  2
EZ_M_100_H25_CM
 70
0
 40
1.0
 41
0.25
 42
0.125
 43
3.75
 44
0.375
 45
0.0
 46
0.0
 47
0.0
 48
0.0
 49
2.5
140
0.25
141
2.5
142
0.125
143
0.03937007874
144
100.0
145
0.0
146
0.5
147
0.1
148
0.0
 69
0
 70
0
 71
0
 72
0
 73
0
 74
0
 75
0
 76
0
 77
1
 78
12
 79
3
170
0
171
3
172
1
173
0
174
0
175
0
176
0
177
0
178
0
179
2
271
2
272
2
273
2
274
3
275
0
276
0
277
2
278
46
279
2
280
0
281
0
282
0
283
0
284
8
285
0
286
0
288
1
289
3
290
0
340
4C
371
-2
372
-2
  0
DIMSTYLE
105
7D
330
4
100
AcDbSymbolTableRecord
100
AcDbDimStyleTableRecord
  2
EZ_M_50_H25_CM
 70
0
 40
1.0
 41
0.125
 42
0.0625
 43
3.75
 44
0.1875
 45
0.0
 46
0.0
 47
0.0
 48
0.0
 49
2.5
140
0.125
141
2.5
142
0.0625
143
0.03937007874
144
100.0
145
0.0
146
0.5
147
0.05
148
0.0
 69
0
 70
0
 71
0
 72
0
 73
0
 74
0
 75
0
 76
0
 77
1
 78
12
 79
3
170
0
171
3
172
1
173
0
174
0
175
0
176
0
177
0
178
0
179
2
271
2
272
2
273
2
274
3
275
0
276
0
277
2
278
46
279
2
280
0
281
0
282
0
283
0
284
8
285
0
286
0
288
1
289
3
290
0
340
4C
371
-2
372
-2
  0
DIMSTYLE
105
7E
330
4
100
AcDbSymbolTableRecord
100
AcDbDimStyleTableRecord
  2
EZ_M_25_H25_CM
 70
0
 40
1.0
 41
0.0625
 42
0.03125
 43
3.75
 44
0.09375
 45
0.0
 46
0.0
 47
0.0
 48
0.0
 49
2.5
140
0.0625
141
2.5
142
0.03125
143
0.03937007874
144
100.0
145
0.0
146
0.5
147
0.025
148
0.0
 69
0
 70
0
 71
0
 72
0
 73
0
 74
0
 75
0
 76
0
 77
1
 78
12
 79
3
170
0
171
3
172
1
173
0
174
0
175
0
176
0
177
0
178
0
179
2
271
2
272
2
273
2
274
3
275
0
276
0
277
2
278
46
279
2
280
0
281
0
282
0
283
0
284
8
285
0
286
0
288
1
289
3
290
0
340
4C
371
-2
372
-2
  0
DIMSTYLE
105
7F
330
4
100
AcDbSymbolTableRecord
100
AcDbDimStyleTableRecord
  2
EZ_M_20_H25_CM
 70
0
 40
1.0
 41
0.05
 42
0.025
 43
3.75
 44
0.07500000000000001
 45
0.0
 46
0.0
 47
0.0
 48
0.0
 49
2.5
140
0.05
141
2.5
142
0.025
143
0.03937007874
144
100.0
145
0.0
146
0.5
147
0.020000000000000004
148
0.0
 69
0
 70
0
 71
0
 72
0
 73
0
 74
0
 75
0
 76
0
 77
1
 78
12
 79
3
170
0
171
3
172
1
173
0
174
0
175
0
176
0
177
0
178
0
179
2
271
2
272
2
273
2
274
3
275
0
276
0
277
2
278
46
279
2
280
0
281
0
282
0
283
0
284
8
285
0
286
0
288
1
289
3
290
0
340
4C
371
-2
372
-2
  0
DIMSTYLE
105
80
330
4
100
AcDbSymbolTableRecord
100
AcDbDimStyleTableRecord
  2
EZ_M_10_H25_CM
 70
0
 40
1.0
 41
0.025
 42
0.0125
 43
3.75
 44
0.037500000000000006
 45
0.0
 46
0.0
 47
0.0
 48
0.0
 49
2.5
140
0.025
141
2.5
142
0.0125
143
0.03937007874
144
100.0
145
0.0
146
0.5
147
0.010000000000000002
148
0.0
 69
0
 70
0
 71
0
 72
0
 73
0
 74
0
 75
0
 76
0
 77
1
 78
12
 79
3
170
0
171
3
172
1
173
0
174
0
175
0
176
0
177
0
178
0
179
2
271
2
272
2
273
2
274
3
275
0
276
0
277
2
278
46
279
2
280
0
281
0
282
0
283
0
284
8
285
0
286
0
288
1
289
3
290
0
340
4C
371
-2
372
-2
  0
DIMSTYLE
105
81
330
4
100
AcDbSymbolTableRecord
100
AcDbDimStyleTableRecord
  2
EZ_M_5_H25_CM
 70
0
 40
1.0
 41
0.0125
 42
0.00625
 43
3.75
 44
0.018750000000000003
 45
0.0
 46
0.0
 47
0.0
 48
0.0
 49
2.5
140
0.0125
141
2.5
142
0.00625
143
0.03937007874
144
100.0
145
0.0
146
0.5
147
0.005000000000000001
148
0.0
 69
0
 70
0
 71
0
 72
0
 73
0
 74
0
 75
0
 76
0
 77
1
 78
12
 79
3
170
0
171
3
172
1
173
0
174
0
175
0
176
0
177
0
178
0
179
2
271
2
272
2
273
2
274
3
275
0
276
0
277
2
278
46
279
2
280
0
281
0
282
0
283
0
284
8
285
0
286
0
288
1
289
3
290
0
340
4C
371
-2
372
-2
  0
DIMSTYLE
105
82
330
4
100
AcDbSymbolTableRecord
100
AcDbDimStyleTableRecord
  2
EZ_M_1_H25_CM
 70
0
 40
1.0
 41
0.0025
 42
0.00125
 43
3.75
 44
0.00375
 45
0.0
 46
0.0
 47
0.0
 48
0.0
 49
2.5
140
0.0025
141
2.5
142
0.00125
143
0.03937007874
144
100.0
145
0.0
146
0.5
147
0.001
148
0.0
 69
0
 70
0
 71
0
 72
0
 73
0
 74
0
 75
0
 76
0
 77
1
 78
12
 79
3
170
0
171
3
172
1
173
0
174
0
175
0
176
0
177
0
178
0
179
2
271
2
272
2
273
2
274
3
275
0
276
0
277
2
278
46
279
2
280
0
281
0
282
0
283
0
284
8
285
0
286
0
288
1
289
3
290
0
340
4C
371
-2
372
-2
  0
DIMSTYLE
105
83
330
4
100
AcDbSymbolTableRecord
100
AcDbDimStyleTableRecord
  2
EZ_RADIUS
 70
0
 40
1.0
 41
0.25
 42
0.125
 43
3.75
 44
0.375
 45
0.0
 46
0.0
 47
0.0
 48
0.0
 49
2.5
140
0.25
141
0.0
142
0.0
143
0.03937007874
144
100.0
145
0.0
146
0.5
147
0.1
148
0.0
 69
0
 70
0
 71
0
 72
0
 73
0
 74
0
 75
0
 76
0
 77
1
 78
12
 79
3
170
0
171
3
172
0
173
0
174
0
175
0
176
0
177
0
178
0
179
2
271
2
272
2
273
2
274
3
275
0
276
0
277
2
278
46
279
1
280
0
281
0
282
0
283
0
284
8
285
0
286
0
288
1
289
3
290
0
340
4C
342
84
371
-2
372
-2
  0
DIMSTYLE
105
88
330
4
100
AcDbSymbolTableRecord
100
AcDbDimStyleTableRecord
  2
EZ_RADIUS_INSIDE
 70
0
 40
1.0
 41
0.25
 42
0.125
 43
3.75
 44
0.375
 45
0.0
 46
0.0
 47
0.0
 48
0.0
 49
2.5
140
0.25
141
0.0
142
0.0
143
0.03937007874
144
100.0
145
0.0
146
0.5
147
0.1
148
0.0
 69
0
 70
0
 71
0
 72
0
 73
0
 74
0
 75
0
 76
0
 77
0
 78
12
 79
3
170
0
171
3
172
0
173
0
174
1
175
0
176
0
177
0
178
0
179
2
271
2
272
2
273
2
274
3
275
0
276
0
277
2
278
46
279
0
280
0
281
0
282
0
283
0
284
8
285
0
286
0
288
1
289
0
290
0
340
4C
342
84
371
-2
372
-2
  0
DIMSTYLE
105
89
330
4
100
AcDbSymbolTableRecord
100
AcDbDimStyleTableRecord
  2
EZ_CURVED
 70
0
 40
1.0
 41
0.25
 42
0.125
 43
3.75
 44
0.375
 45
0.0
 46
0.0
 47
0.0
 48
0.0
 49
2.5
140
0.25
141
2.5
142
0.0
143
0.03937007874
144
100.0
145
0.0
146
0.5
147
0.1
148
0.0
 69
0
 70
0
 71
0
 72
0
 73
0
 74
0
 75
0
 76
0
 77
1
 78
12
 79
2
 90
2
170
0
171
3
172
1
173
0
174
0
175
0
176
0
177
0
178
0
179
2
271
2
272
2
273
2
274
3
275
0
276
0
277
2
278
46
279
2
280
0
281
0
282
0
283
0
284
8
285
0
286
0
288
1
289
3
290
0
340
4C
371
-2
372
-2
  0
ENDTAB
  0
TABLE
  2
BLOCK_RECORD
  5
9
330
0
100
AcDbSymbolTable
 70
5
  0
BLOCK_RECORD
  5
17
330
9
100
AcDbSymbolTableRecord
100
AcDbBlockTableRecord
  2
*Model_Space
340
1A
 70
0
280
1
281
0
  0
BLOCK_RECORD
  5
1B
330
9
100
AcDbSymbolTableRecord
100
AcDbBlockTableRecord
  2
*Paper_Space
340
1E
 70
0
280
1
281
0
  0
BLOCK_RECORD
  5
74
330
9
100
AcDbSymbolTableRecord
100
AcDbBlockTableRecord
  2
_ARCHTICK
340
0
 70
0
280
1
281
0
  0
BLOCK_RECORD
  5
78
330
9
100
AcDbSymbolTableRecord
100
AcDbBlockTableRecord
  2
_CLOSEDFILLED
340
0
 70
0
280
1
281
0
  0
BLOCK_RECORD
  5
84
330
9
100
AcDbSymbolTableRecord
100
AcDbBlockTableRecord
  2
_CLOSEDBLANK
340
0
 70
0
280
1
281
0
  0
ENDTAB
  0
ENDSEC
  0
SECTION
  2
BLOCKS
  0
BLOCK
  5
18
330
17
100
AcDbEntity
  8
0
100
AcDbBlockBegin
  2
*Model_Space
 70
0
 10
0.0
 20
0.0
 30
0.0
  3
*Model_Space
  1

  0
ENDBLK
  5
19
330
17
100
AcDbEntity
  8
0
100
AcDbBlockEnd
  0
BLOCK
  5
1C
330
1B
100
AcDbEntity
  8
0
100
AcDbBlockBegin
  2
*Paper_Space
 70
0
 10
0.0
 20
0.0
 30
0.0
  3
*Paper_Space
  1

  0
ENDBLK
  5
1D
330
1B
100
AcDbEntity
  8
0
100
AcDbBlockEnd
  0
BLOCK
  5
75
330
74
100
AcDbEntity
  8
0
100
AcDbBlockBegin
  2
_ARCHTICK
 70
0
 10
0.0
 20
0.0
 30
0.0
  3
_ARCHTICK
  1

  0
LWPOLYLINE
  5
77
330
74
100
AcDbEntity
  8
0
  6
BYBLOCK
 62
0
100
AcDbPolyline
 90
2
 70
0
 43
0.15
 10
-0.5
 20
-0.5
 10
0.5
 20
0.5
  0
ENDBLK
  5
76
330
74
100
AcDbEntity
  8
0
100
AcDbBlockEnd
  0
BLOCK
  5
79
330
78
100
AcDbEntity
  8
0
100
AcDbBlockBegin
  2
_CLOSEDFILLED
 70
0
 10
0.0
 20
0.0
 30
0.0
  3
_CLOSEDFILLED
  1

  0
SOLID
  5
7B
330
78
100
AcDbEntity
  8
0
  6
BYBLOCK
 62
0
100
AcDbTrace
 10
-1.0
 20
0.16439898372402537
 30
0.0
 11
0.0
 21
0.0
 31
0.0
 12
-1.0
 22
-0.16439898372402537
 32
0.0
 13
-1.0
 23
-0.16439898372402537
 33
0.0
  0
ENDBLK
  5
7A
330
78
100
AcDbEntity
  8
0
100
AcDbBlockEnd
  0
BLOCK
  5
85
330
84
100
AcDbEntity
  8
0
100
AcDbBlockBegin
  2
_CLOSEDBLANK
 70
0
 10
0.0
 20
0.0
 30
0.0
  3
_CLOSEDBLANK
  1

  0
LWPOLYLINE
  5
87
330
84
100
AcDbEntity
  8
0
  6
BYBLOCK
 62
0
100
AcDbPolyline
 90
3
 70
1
 10
-1.0
 20
0.16439898372402537
 10
0.0
 20
0.0
 10
-1.0
 20
-0.16439898372402537
  0
ENDBLK
  5
86
330
84
100
AcDbEntity
  8
0
100
AcDbBlockEnd
  0
ENDSEC
  0
SECTION
  2
ENTITIES
  0
LWPOLYLINE
  5
8C
330
17
100
AcDbEntity
  8
CORTE
100
AcDbPolyline
 90
257
 70
1
 10
82.5
 20
0.0
 10
82.47515254243685
 20
-2.0246513531402637
 10
82.40062513692672
 20
-4.048083132011986
 10
82.27646267599194
 20
-6.069076496972563
 10
82.10273995045624
 20
-8.08641407718875
 10
81.87956160439357
 20
-10.098880703935336
 10
81.60706207209444
 20
-12.105264142567345
 10
81.28540549708765
 20
-14.10435582272485
 10
80.9147856332665
 20
-16.09495156633058
 10
80.4954257281786
 20
-18.07585231294176
 10
80.02757838854988
 20
-20.04586484201927
 10
79.51152542812379
 20
-22.003802491679114
 10
78.94757769790724
 20
-23.94848587349314
 10
78.33607489892553
 20
-25.87874358290855
 10
77.67738537759922
 20
-27.793412904858155
 10
76.97190590386596
 20
-29.69134051413652
 10
76.22006143218115
 20
-31.57138317011991
 10
75.42230484554128
 20
-33.432408405411664
 10
74.57911668268407
 20
-35.273295207998274
 10
73.69100484863002
 20
-37.09293469650504
 10
72.75850430873929
 20
-38.890230788144805
 10
71.7821767664687
 20
-40.664100858957184
 10
70.76261032502245
 20
-42.41347639594079
 10
69.70041913310084
 20
-44.137303640685516
 10
68.59624301495998
 20
-45.83454422411718
 10
67.45074708500566
 20
-47.50417579197224
 10
66.26462134715321
 20
-49.14519262062575
 10
65.03858027919502
 20
-50.75660622290171
 10
63.7733624024258
 20
-52.337445943500754
 10
62.46972983678498
 20
-53.88675954368658
 10
61.12846784178413
 20
-55.40361377487901
 10
59.75038434349603
 20
-56.88709494080801
 10
58.33630944789017
 20
-58.336309447890166
 10
56.88709494080802
 20
-59.750384343496016
 10
55.40361377487901
 20
-61.12846784178413
 10
53.88675954368658
 20
-62.46972983678497
 10
52.337445943500754
 20
-63.7733624024258
 10
50.75660622290171
 20
-65.03858027919502
 10
49.145192620625764
 20
-66.2646213471532
 10
47.50417579197224
 20
-67.45074708500566
 10
45.83454422411719
 20
-68.59624301495998
 10
44.13730364068552
 20
-69.70041913310082
 10
42.41347639594079
 20
-70.76261032502245
 10
40.66410085895719
 20
-71.78217676646868
 10
38.89023078814482
 20
-72.75850430873928
 10
37.09293469650505
 20
-73.69100484863002
 10
35.27329520799828
 20
-74.57911668268407
 10
33.432408405411664
 20
-75.42230484554128
 10
31.571383170119912
 20
-76.22006143218115
 10
29.691340514136535
 20
-76.97190590386596
 10
27.793412904858155
 20
-77.67738537759922
 10
25.878743582908555
 20
-78.33607489892553
 10
23.94848587349314
 20
-78.94757769790724
 10
22.00380249167912
 20
-79.51152542812379
 10
20.045864842019277
 20
-80.02757838854988
 10
18.075852312941755
 20
-80.4954257281786
 10
16.094951566330586
 20
-80.9147856332665
 10
14.104355822724862
 20
-81.28540549708765
 10
12.105264142567345
 20
-81.60706207209444
 10
10.098880703935343
 20
-81.87956160439357
 10
8.086414077188763
 20
-82.10273995045624
 10
6.069076496972565
 20
-82.27646267599194
 10
4.048083132011995
 20
-82.40062513692672
 10
2.024651353140262
 20
-82.47515254243685
 10
0.0
 20
-82.5
 10
-2.0246513531402517
 20
-82.47515254243685
 10
-4.048083132011985
 20
-82.40062513692672
 10
-6.069076496972555
 20
-82.27646267599194
 10
-8.086414077188753
 20
-82.10273995045624
 10
-10.098880703935333
 20
-81.87956160439357
 10
-12.105264142567336
 20
-81.60706207209444
 10
-14.104355822724854
 20
-81.28540549708765
 10
-16.094951566330575
 20
-80.9147856332665
 10
-18.07585231294175
 20
-80.4954257281786
 10
-20.04586484201927
 20
-80.02757838854988
 10
-22.00380249167911
 20
-79.51152542812379
 10
-23.94848587349313
 20
-78.94757769790724
 10
-25.87874358290854
 20
-78.33607489892553
 10
-27.793412904858144
 20
-77.67738537759922
 10
-29.691340514136524
 20
-76.97190590386596
 10
-31.5713831701199
 20
-76.22006143218115
 10
-33.43240840541166
 20
-75.42230484554128
 10
-35.27329520799825
 20
-74.57911668268409
 10
-37.092934696505054
 20
-73.69100484863
 10
-38.89023078814481
 20
-72.75850430873929
 10
-40.66410085895718
 20
-71.7821767664687
 10
-42.41347639594079
 20
-70.76261032502245
 10
-44.13730364068551
 20
-69.70041913310085
 10
-45.83454422411716
 20
-68.59624301496
 10
-47.50417579197224
 20
-67.45074708500566
 10
-49.14519262062575
 20
-66.26462134715321
 10
-50.7566062229017
 20
-65.03858027919502
 10
-52.33744594350075
 20
-63.77336240242581
 10
-53.886759543686566
 20
-62.469729836784985
 10
-55.40361377487902
 20
-61.128467841784115
 10
-56.88709494080802
 20
-59.750384343496016
 10
-58.336309447890166
 20
-58.33630944789017
 10
-59.75038434349601
 20
-56.88709494080803
 10
-61.12846784178411
 20
-55.403613774879034
 10
-62.46972983678498
 20
-53.88675954368657
 10
-63.7733624024258
 20
-52.337445943500754
 10
-65.03858027919502
 20
-50.75660622290172
 10
-66.2646213471532
 20
-49.145192620625764
 10
-67.45074708500564
 20
-47.50417579197225
 10
-68.59624301496
 20
-45.83454422411718
 10
-69.70041913310084
 20
-44.137303640685516
 10
-70.76261032502244
 20
-42.4134763959408
 10
-71.78217676646868
 20
-40.66410085895719
 10
-72.75850430873928
 20
-38.89023078814483
 10
-73.69100484863
 20
-37.09293469650507
 10
-74.57911668268407
 20
-35.27329520799827
 10
-75.42230484554128
 20
-33.43240840541167
 10
-76.22006143218115
 20
-31.571383170119915
 10
-76.97190590386596
 20
-29.691340514136538
 10
-77.67738537759921
 20
-27.793412904858176
 10
-78.33607489892553
 20
-25.87874358290854
 10
-78.94757769790724
 20
-23.948485873493148
 10
-79.51152542812379
 20
-22.003802491679124
 10
-80.02757838854988
 20
-20.045864842019284
 10
-80.4954257281786
 20
-18.07585231294178
 10
-80.9147856332665
 20
-16.09495156633061
 10
-81.28540549708765
 20
-14.10435582272485
 10
-81.60706207209444
 20
-12.105264142567348
 10
-81.87956160439357
 20
-10.098880703935349
 10
-82.10273995045624
 20
-8.086414077188769
 10
-82.27646267599194
 20
-6.069076496972587
 10
-82.40062513692672
 20
-4.048083132011982
 10
-82.47515254243685
 20
-2.024651353140267
 10
-82.5
 20
0.0
 10
-82.47515254243685
 20
2.024651353140247
 10
-82.40062513692672
 20
4.048083132011962
 10
-82.27646267599194
 20
6.069076496972569
 10
-82.10273995045624
 20
8.08641407718875
 10
-81.87956160439357
 20
10.098880703935329
 10
-81.60706207209444
 20
12.10526414256733
 10
-81.28540549708767
 20
14.10435582272483
 10
-80.9147856332665
 20
16.09495156633059
 10
-80.4954257281786
 20
18.07585231294176
 10
-80.02757838854988
 20
20.045864842019263
 10
-79.51152542812379
 20
22.003802491679107
 10
-78.94757769790724
 20
23.948485873493123
 10
-78.33607489892553
 20
25.878743582908523
 10
-77.67738537759922
 20
27.793412904858158
 10
-76.97190590386596
 20
29.69134051413652
 10
-76.22006143218117
 20
31.571383170119898
 10
-75.42230484554128
 20
33.43240840541165
 10
-74.57911668268409
 20
35.27329520799825
 10
-73.69100484863002
 20
37.09293469650505
 10
-72.75850430873929
 20
38.890230788144805
 10
-71.7821767664687
 20
40.66410085895718
 10
-70.76261032502245
 20
42.413476395940776
 10
-69.70041913310085
 20
44.137303640685495
 10
-68.59624301496
 20
45.83454422411716
 10
-67.45074708500566
 20
47.50417579197224
 10
-66.26462134715321
 20
49.14519262062574
 10
-65.03858027919502
 20
50.7566062229017
 10
-63.77336240242581
 20
52.33744594350073
 10
-62.46972983678499
 20
53.886759543686566
 10
-61.12846784178413
 20
55.40361377487902
 10
-59.75038434349603
 20
56.88709494080801
 10
-58.33630944789019
 20
58.336309447890166
 10
-56.88709494080803
 20
59.75038434349601
 10
-55.40361377487904
 20
61.12846784178411
 10
-53.88675954368661
 20
62.46972983678495
 10
-52.33744594350079
 20
63.773362402425775
 10
-50.75660622290175
 20
65.03858027919499
 10
-49.145192620625735
 20
66.26462134715322
 10
-47.50417579197223
 20
67.45074708500566
 10
-45.83454422411718
 20
68.59624301495998
 10
-44.13730364068552
 20
69.70041913310082
 10
-42.4134763959408
 20
70.76261032502244
 10
-40.6641008589572
 20
71.78217676646868
 10
-38.89023078814483
 20
72.75850430873928
 10
-37.09293469650507
 20
73.69100484863
 10
-35.2732952079983
 20
74.57911668268406
 10
-33.43240840541171
 20
75.42230484554126
 10
-31.571383170119955
 20
76.22006143218114
 10
-29.691340514136506
 20
76.97190590386596
 10
-27.793412904858144
 20
77.67738537759922
 10
-25.878743582908545
 20
78.33607489892553
 10
-23.94848587349315
 20
78.94757769790724
 10
-22.003802491679128
 20
79.51152542812379
 10
-20.04586484201929
 20
80.02757838854988
 10
-18.075852312941784
 20
80.4954257281786
 10
-16.094951566330614
 20
80.9147856332665
 10
-14.104355822724889
 20
81.28540549708764
 10
-12.10526414256739
 20
81.60706207209442
 10
-10.098880703935317
 20
81.87956160439359
 10
-8.086414077188737
 20
82.10273995045624
 10
-6.069076496972557
 20
82.27646267599194
 10
-4.048083132011987
 20
82.40062513692672
 10
-2.024651353140272
 20
82.47515254243685
 10
0.0
 20
82.5
 10
2.024651353140242
 20
82.47515254243685
 10
4.048083132011957
 20
82.40062513692672
 10
6.069076496972526
 20
82.27646267599194
 10
8.086414077188708
 20
82.10273995045624
 10
10.098880703935286
 20
81.87956160439359
 10
12.10526414256736
 20
81.60706207209442
 10
14.104355822724859
 20
81.28540549708765
 10
16.094951566330586
 20
80.9147856332665
 10
18.075852312941755
 20
80.4954257281786
 10
20.04586484201926
 20
80.02757838854988
 10
22.003802491679103
 20
79.51152542812379
 10
23.94848587349312
 20
78.94757769790724
 10
25.87874358290852
 20
78.33607489892553
 10
27.79341290485812
 20
77.67738537759922
 10
29.691340514136478
 20
76.97190590386597
 10
31.571383170119926
 20
76.22006143218114
 10
33.43240840541168
 20
75.42230484554128
 10
35.273295207998274
 20
74.57911668268407
 10
37.09293469650505
 20
73.69100484863002
 10
38.8902307881448
 20
72.75850430873929
 10
40.66410085895717
 20
71.7821767664687
 10
42.413476395940776
 20
70.76261032502246
 10
44.137303640685495
 20
69.70041913310085
 10
45.83454422411715
 20
68.59624301496
 10
47.5041757919722
 20
67.45074708500569
 10
49.145192620625714
 20
66.26462134715324
 10
50.75660622290173
 20
65.038580279195
 10
52.33744594350076
 20
63.77336240242579
 10
53.88675954368658
 20
62.46972983678498
 10
55.40361377487901
 20
61.12846784178413
 10
56.88709494080801
 20
59.75038434349603
 10
58.33630944789016
 20
58.33630944789019
 10
59.750384343496
 20
56.88709494080804
 10
61.12846784178411
 20
55.40361377487904
 10
62.46972983678495
 20
53.88675954368661
 10
63.773362402425775
 20
52.33744594350079
 10
65.03858027919499
 20
50.75660622290176
 10
66.26462134715322
 20
49.14519262062574
 10
67.45074708500566
 20
47.50417579197223
 10
68.59624301495998
 20
45.83454422411718
 10
69.70041913310082
 20
44.13730364068552
 10
70.76261032502244
 20
42.413476395940805
 10
71.78217676646868
 20
40.6641008589572
 10
72.75850430873928
 20
38.89023078814483
 10
73.69100484863
 20
37.092934696505075
 10
74.57911668268406
 20
35.27329520799831
 10
75.42230484554126
 20
33.43240840541171
 10
76.22006143218114
 20
31.571383170119958
 10
76.97190590386596
 20
29.69134051413651
 10
77.67738537759922
 20
27.79341290485815
 10
78.33607489892553
 20
25.87874358290855
 10
78.94757769790724
 20
23.948485873493155
 10
79.51152542812379
 20
22.003802491679135
 10
80.02757838854988
 20
20.045864842019295
 10
80.4954257281786
 20
18.075852312941787
 10
80.9147856332665
 20
16.094951566330618
 10
81.28540549708764
 20
14.104355822724896
 10
81.60706207209442
 20
12.105264142567396
 10
81.87956160439357
 20
10.098880703935322
 10
82.10273995045624
 20
8.086414077188742
 10
82.27646267599194
 20
6.069076496972562
 10
82.40062513692672
 20
4.0480831320119925
 10
82.47515254243685
 20
2.024651353140277
 10
82.5
 20
0.0
  0
LWPOLYLINE
  5
8D
330
17
100
AcDbEntity
  8
CORTE
100
AcDbPolyline
 90
697
 70
1
 10
-5.25
 20
-25.799913741296645
 10
-5.264473132941959
 20
-25.648429282918965
 10
-5.307368852824948
 20
-25.502425961303135
 10
-5.3771350710076975
 20
-25.367186590158443
 10
-5.471247448113666
 20
-25.247604512978796
 10
-5.586300731779508
 20
-25.148006548015438
 10
-5.718131968330461
 20
-25.071996431737528
 10
-5.861971130235262
 20
-25.02232442543962
 10
-6.241409786914936
 20
-24.930572365186716
 10
-6.247758449561125
 20
-24.92898210797919
 10
-6.648481633087658
 20
-24.825114834749613
 10
-6.654803426526772
 20
-24.823420915302883
 10
-7.053773519960766
 20
-24.713011020778296
 10
-7.060066751696071
 20
-24.7112138925955
 10
-7.4571769410962085
 20
-24.594290936174435
 10
-7.463439926277486
 20
-24.592391080390215
 10
-7.858583895643615
 20
-24.468986365175407
 10
-7.864814957518187
 20
-24.466984290427114
 10
-8.25788691725444
 20
-24.33713085484497
 10
-8.264084387616498
 20
-24.33502709713639
 10
-8.65497910285489
 20
-24.198759706091433
 10
-8.661141322491279
 20
-24.196554828649536
 10
-9.049754141264533
 20
-24.053909964217347
 10
-9.055879460400257
 20
-24.051604557341072
 10
-9.442106341659432
 20
-23.902620409001266
 10
-9.44819312039839
 20
-23.900215089903806
 10
-9.831930661868114
 20
-23.74493154431545
 10
-9.837977270632877
 20
-23.74242695695872
 10
-10.219122736494189
 20
-23.580885587281845
 10
-10.225127556460942
 20
-23.57828240220462
 10
-10.603578904856311
 20
-23.410526456970068
 10
-10.609540328389425
 20
-23.407825371108007
 10
-10.985196238741551
 20
-23.233899762638806
 10
-10.991112669824522
 20
-23.231101499137573
 10
-11.363872569962064
 20
-23.051052791525006
 10
-11.369742424622737
 20
-23.048158099547628
 10
-11.739506517707357
 20
-22.862034496184183
 10
-11.745328224443737
 20
-22.85904415070968
 10
-12.111997515686175
 20
-22.66689548138477
 10
-12.117769515886474
 20
-22.663810283001
 10
-12.481245839051644
 20
-22.465687990559406
 10
-12.48696658741168
 20
-22.46250876524867
 10
-12.847152631098146
 20
-22.258465891819164
 10
-12.85282059603577
 20
-22.255193490736666
 10
-13.209619929729955
 20
-22.045284663530435
 10
-13.215233593793775
 20
-22.041919962777143
 10
-13.568550693686483
 20
-21.826201379462923
 10
-13.574108553962835
 20
-21.82274527985061
 10
-13.923848828522742
 20
-21.601274693509524
 10
-13.929349397038013
 20
-21.59772812031964
 10
-14.275419212336931
 20
-21.370564823982797
 10
-14.280861016455725
 20
-21.366928726718875
 10
-14.623167721235777
 20
-21.134133537493728
 10
-14.628549304055538
 20
-21.130408889626946
 10
-14.967001254534503
 20
-20.892044132414895
 10
-14.972321175275749
 20
-20.888231931123286
 10
-15.306827759682394
 20
-20.64436142193373
 10
-15.312084594073275
 20
-20.64046268783607
 10
-15.642556256906278
 20
-20.391151716701323
 10
-15.647748597565524
 20
-20.3871674935827
 10
-15.97409686356939
 20
-20.132482807078503
 10
-15.979223320382017
 20
-20.12841416161165
 10
-16.301360818234627
 20
-19.86842394498703
 10
-16.30642001872382
 20
-19.864271966446996
 10
-16.62426050442775
 20
-19.59904582536948
 10
-16.629251094123035
 20
-19.594811625341464
 10
-16.94270947409465
 20
-19.32442056726236
 10
-16.947630116894565
 20
-19.320105279344038
 10
-17.25662247074562
 20
-19.04462169448809
 10
-17.26147184927522
 20
-19.04022647398628
 10
-17.56591545228104
 20
-18.75972411597045
 10
-17.570692268244166
 20
-18.755250139592217
 10
-17.870505613490437
 20
-18.469804105680602
 10
-17.875208588018566
 20
-18.46525257121701
 10
-18.170311408223
 20
-18.174939282215227
 10
-18.174939282215224
 20
-18.170311408223004
 10
-18.465252571216986
 20
-17.87520858801859
 10
-18.469804105680605
 20
-17.870505613490426
 10
-18.755250139592192
 20
-17.570692268244187
 10
-18.759724115970457
 20
-17.565915452281033
 10
-19.040226473986166
 20
-17.26147184927535
 10
-19.04462169448816
 20
-17.25662247074554
 10
-19.320105279344293
 20
-16.947630116894278
 10
-19.32442056726221
 20
-16.942709474094823
 10
-19.594811625341503
 20
-16.62925109412299
 10
-19.599045825369448
 20
-16.624260504427784
 10
-19.864271966447166
 20
-16.30642001872362
 10
-19.86842394498672
 20
-16.30136081823501
 10
-20.128414161611726
 20
-15.979223320381925
 10
-20.132482807078286
 20
-15.974096863569663
 10
-20.38716749358285
 20
-15.647748597565338
 10
-20.391151716701273
 20
-15.64255625690635
 10
-20.64046268783597
 20
-15.312084594073406
 10
-20.64436142193377
 20
-15.306827759682335
 10
-20.888231931123222
 20
-14.972321175275836
 10
-20.892044132414917
 20
-14.967001254534468
 10
-21.130408889626924
 20
-14.628549304055566
 10
-21.134133537493764
 20
-14.623167721235726
 10
-21.366928726718836
 20
-14.280861016455784
 10
-21.37056482398272
 20
-14.275419212337049
 10
-21.597728120319847
 20
-13.929349397037706
 10
-21.601274693509488
 20
-13.923848828522802
 10
-21.82274527985063
 20
-13.574108553962802
 10
-21.826201379462947
 20
-13.568550693686438
 10
-22.041919962777055
 20
-13.215233593793922
 10
-22.045284663530456
 20
-13.209619929729921
 10
-22.255193490736612
 20
-12.852820596035869
 10
-22.25846589181921
 20
-12.84715263109807
 10
-22.462508765248696
 20
-12.486966587411642
 10
-22.46568799055937
 20
-12.481245839051716
 10
-22.66381028300094
 20
-12.117769515886573
 10
-22.666895481384746
 20
-12.11199751568621
 10
-22.859044150709774
 20
-11.745328224443552
 10
-22.862034496184048
 20
-11.73950651770762
 10
-23.048158099547724
 20
-11.369742424622553
 10
-23.051052791524885
 20
-11.363872569962325
 10
-23.23110149913764
 20
-10.991112669824378
 10
-23.233899762638767
 20
-10.985196238741635
 10
-23.407825371107965
 20
-10.609540328389512
 10
-23.410526456970103
 20
-10.603578904856226
 10
-23.57828240220461
 20
-10.225127556460974
 10
-23.580885587281823
 20
-10.21912273649424
 10
-23.742426956958745
 20
-9.837977270632813
 10
-23.744931544315385
 20
-9.83193066186827
 10
-23.90021508990382
 20
-9.448193120398365
 10
-23.902620409001234
 20
-9.442106341659526
 10
-24.0516045573411
 20
-9.055879460400183
 10
-24.053909964217407
 20
-9.049754141264367
 10
-24.196554828649457
 20
-8.661141322491495
 10
-24.198759706091444
 20
-8.65497910285485
 10
-24.335027097136468
 20
-8.264084387616267
 10
-24.33713085484485
 20
-8.25788691725479
 10
-24.466984290427202
 20
-7.864814957517936
 10
-24.468986365175372
 20
-7.8585838956437275
 10
-24.59239108039024
 20
-7.463439926277411
 10
-24.594290936174396
 20
-7.457176941096348
 10
-24.71121389259553
 20
-7.0600667516959685
 10
-24.71301102077821
 20
-7.053773519961072
 10
-24.823420915302965
 20
-6.65480342652647
 10
-24.825114834749595
 20
-6.648481633087723
 10
-24.92898210797917
 20
-6.247758449561223
 10
-24.9305723651867
 20
-6.24140978691502
 10
-25.02786920934063
 20
-5.839040796581974
 10
-25.02935537855844
 20
-5.832666964420058
 10
-25.12005574491881
 20
-5.428759891188849
 10
-25.121437428263683
 20
-5.422362595939323
 10
-25.205517034149143
 20
-5.017025575500557
 10
-25.206793861710963
 20
-5.01060652987439
 10
-25.284230196977887
 20
-4.603948080749894
 10
-25.285401826919184
 20
-4.597509003280042
 10
-25.356174159988118
 20
-4.189637997770202
 10
-25.357240278635047
 20
-4.183180612354375
 10
-25.42132966204123
 20
-3.7742062473892157
 10
-25.42228998396805
 20
-3.767732282825709
 10
-25.479679259433752
 20
-3.3577640507324027
 10
-25.480533527539116
 20
-3.3512752402576873
 10
-25.531207330567483
 20
-2.9404228994459665
 10
-25.53195531614327
 20
-2.933920980270654
 10
-25.575900080131913
 20
-2.522294525846938
 10
-25.57654158292418
 20
-2.5157812386929397
 10
-25.613745542797197
 20
-2.1034908730121926
 10
-25.61428039106016
 20
-2.0969679616436707
 10
-25.64473358641791
 20
-1.6841240648059053
 10
-25.64516163695967
 20
-1.677593275565124
 10
-25.66885591474537
 20
-1.264306375864173
 10
-25.669177052966514
 20
-1.25776945720056
 10
-25.68610606964901
 20
-0.8441502015338354
 10
-25.686320209573086
 20
-0.8376089035382556
 10
-25.69647943284525
 20
-0.4237680277820855
 10
-25.696586517141817
 20
-0.41722410171840896
 10
-25.69997322713392
 20
-0.00327240108247907
 10
-25.69997322713392
 20
0.003272401082478933
 10
-25.696586517141817
 20
0.417224101718391
 10
-25.69647943284525
 20
0.4237680277820683
 10
-25.686320209573086
 20
0.8376089035382379
 10
-25.68610606964901
 20
0.8441502015338177
 10
-25.669177052966514
 20
1.2577694572005422
 10
-25.66885591474537
 20
1.2643063758641553
 10
-25.64516163695967
 20
1.6775932755651062
 10
-25.64473358641791
 20
1.6841240648058875
 10
-25.614280391060152
 20
2.0969679616437364
 10
-25.6137455427972
 20
2.1034908730121282
 10
-25.576541582924182
 20
2.515781238692907
 10
-25.57590008013192
 20
2.5222945258468994
 10
-25.531955316143275
 20
2.933920980270637
 10
-25.531207330567486
 20
2.940422899445949
 10
-25.48053352753912
 20
3.35127524025767
 10
-25.479679259433755
 20
3.3577640507323854
 10
-25.422289983968042
 20
3.767732282825757
 10
-25.421329662041185
 20
3.7742062473895546
 10
-25.357240278635082
 20
4.183180612354179
 10
-25.356174159988168
 20
4.189637997769932
 10
-25.285401826919152
 20
4.597509003280241
 10
-25.284230196977934
 20
4.603948080749652
 10
-25.20679386171099
 20
5.010606529874233
 10
-25.20551703414909
 20
5.01702557550082
 10
-25.121437428263736
 20
5.422362595939061
 10
-25.120055744918787
 20
5.428759891188944
 10
-25.02935537855844
 20
5.83266696442004
 10
-25.02786920934063
 20
5.839040796581957
 10
-24.93057236518671
 20
6.241409786914958
 10
-24.92898210797916
 20
6.2477584495612435
 10
-24.825114834749616
 20
6.648481633087641
 10
-24.823420915302925
 20
6.654803426526627
 10
-24.713011020778342
 20
7.05377351996059
 10
-24.711213892595435
 20
7.060066751696296
 10
-24.594290936174442
 20
7.457176941096182
 10
-24.59239108039022
 20
7.463439926277463
 10
-24.468986365175418
 20
7.858583895643566
 10
-24.466984290427188
 20
7.864814957517958
 10
-24.337130854844933
 20
8.257886917254554
 10
-24.33502709713641
 20
8.264084387616435
 10
-24.198759706091444
 20
8.654979102854858
 10
-24.196554828649504
 20
8.661141322491368
 10
-24.053909964217368
 20
9.049754141264481
 10
-24.051604557341125
 20
9.055879460400126
 10
-23.902620409001237
 20
9.442106341659503
 10
-23.90021508990384
 20
9.448193120398313
 10
-23.74493154431527
 20
9.831930661868542
 10
-23.742426956958884
 20
9.837977270632482
 10
-23.580885587281784
 20
10.219122736494331
 10
-23.57828240220465
 20
10.22512755646088
 10
-23.41052645697011
 20
10.60357890485621
 10
-23.407825371107972
 20
10.609540328389496
 10
-23.233899762638764
 20
10.985196238741644
 10
-23.231101499137637
 20
10.991112669824387
 10
-23.051052791525013
 20
11.363872569962048
 10
-23.048158099547578
 20
11.369742424622837
 10
-22.86203449618424
 20
11.739506517707246
 10
-22.859044150709646
 20
11.745328224443805
 10
-22.666895481384778
 20
12.111997515686152
 10
-22.663810283000913
 20
12.117769515886632
 10
-22.465687990559502
 20
12.481245839051471
 10
-22.46250876524859
 20
12.486966587411823
 10
-22.258465891819217
 20
12.847152631098053
 10
-22.25519349073662
 20
12.852820596035853
 10
-22.045284663530328
 20
13.209619929730138
 10
-22.04191996277721
 20
13.215233593793664
 10
-21.826201379462873
 20
13.568550693686564
 10
-21.822745279850775
 20
13.574108553962574
 10
-21.60127469350941
 20
13.923848828522923
 10
-21.59772812031973
 20
13.929349397037882
 10
-21.370564823982885
 20
14.275419212336798
 10
-21.366928726718754
 20
14.280861016455907
 10
-21.13413353749376
 20
14.623167721235733
 10
-21.13040888962678
 20
14.62854930405578
 10
-20.892044132414938
 20
14.967001254534448
 10
-20.888231931123407
 20
14.972321175275585
 10
-20.644361421933883
 20
15.306827759682184
 10
-20.640462687836
 20
15.31208459407337
 10
-20.391151716701206
 20
15.642556256906433
 10
-20.387167493582734
 20
15.647748597565485
 10
-20.132482807078418
 20
15.974096863569505
 10
-20.1284141616117
 20
15.979223320381962
 10
-19.868423944986823
 20
16.30136081823488
 10
-19.864271966447227
 20
16.306420018723543
 10
-19.599045825369483
 20
16.624260504427742
 10
-19.59481162534147
 20
16.629251094123028
 10
-19.32442056726236
 20
16.94270947409465
 10
-19.320105279344038
 20
16.947630116894565
 10
-19.04462169448809
 20
17.25662247074562
 10
-19.04022647398628
 20
17.26147184927522
 10
-18.75972411597043
 20
17.56591545228106
 10
-18.75525013959224
 20
17.57069226824414
 10
-18.469804105680623
 20
17.87050561349041
 10
-18.465252571216997
 20
17.87520858801858
 10
-18.174939282215238
 20
18.170311408222993
 10
-18.170311408223014
 20
18.174939282215217
 10
-17.875208588018594
 20
18.465252571216983
 10
-17.870505613490423
 20
18.46980410568061
 10
-17.570692268244187
 20
18.755250139592192
 10
-17.565915452281033
 20
18.759724115970457
 10
-17.261471849275182
 20
19.04022647398632
 10
-17.256622470745697
 20
19.044621694488022
 10
-16.947630116894455
 20
19.320105279344137
 10
-16.94270947409454
 20
19.324420567262457
 10
-16.629251094123042
 20
19.59481162534146
 10
-16.624260504427756
 20
19.599045825369473
 10
-16.306420018723834
 20
19.864271966446985
 10
-16.301360818234848
 20
19.868423944986844
 10
-15.979223320381669
 20
20.128414161611932
 10
-15.974096863569848
 20
20.132482807078144
 10
-15.647748597565373
 20
20.38716749358282
 10
-15.642556256906293
 20
20.391151716701312
 10
-15.312084594073298
 20
20.640462687836052
 10
-15.30682775968245
 20
20.644361421933688
 10
-14.972321175275765
 20
20.888231931123276
 10
-14.967001254534393
 20
20.892044132414973
 10
-14.628549304055639
 20
21.130408889626874
 10
-14.623167721235754
 20
21.134133537493742
 10
-14.28086101645585
 20
21.36692872671879
 10
-14.275419212336853
 20
21.370564823982846
 10
-13.929349397037994
 20
21.597728120319655
 10
-13.92384882852285
 20
21.601274693509456
 10
-13.574108553962683
 20
21.822745279850707
 10
-13.568550693686607
 20
21.826201379462844
 10
-13.215233593793881
 20
22.041919962777076
 10
-13.209619929729834
 20
22.045284663530506
 10
-12.852820596035691
 20
22.255193490736715
 10
-12.847152631098346
 20
22.25846589181905
 10
-12.486966587411603
 20
22.462508765248717
 10
-12.481245839051608
 20
22.465687990559427
 10
-12.117769515886698
 20
22.663810283000874
 10
-12.111997515686005
 20
22.666895481384856
 10
-11.745328224443973
 20
22.85904415070956
 10
-11.739506517707344
 20
22.86203449618419
 10
-11.369742424622745
 20
23.048158099547624
 10
-11.363872569962242
 20
23.05105279152492
 10
-10.991112669824432
 20
23.231101499137615
 10
-10.985196238741603
 20
23.23389976263878
 10
-10.609540328389434
 20
23.407825371108
 10
-10.603578904856391
 20
23.41052645697003
 10
-10.225127556460839
 20
23.57828240220467
 10
-10.21912273649414
 20
23.580885587281866
 10
-9.83797727063306
 20
23.74242695695864
 10
-9.831930661868126
 20
23.74493154431544
 10
-9.448193120398285
 20
23.90021508990385
 10
-9.442106341659514
 20
23.902620409001234
 10
-9.055879460400416
 20
24.05160455734101
 10
-9.049754141264334
 20
24.053909964217418
 10
-8.661141322491215
 20
24.196554828649557
 10
-8.65497910285501
 20
24.198759706091387
 10
-8.264084387616506
 20
24.335027097136386
 10
-8.257886917254547
 20
24.337130854844933
 10
-7.864814957518167
 20
24.46698429042712
 10
-7.858583895643544
 20
24.46898636517543
 10
-7.463439926277615
 20
24.592391080390176
 10
-7.457176941096282
 20
24.594290936174417
 10
-7.060066751695898
 20
24.71121389259555
 10
-7.05377351996096
 20
24.71301102077824
 10
-6.654803426526679
 20
24.823420915302908
 10
-6.648481633087657
 20
24.82511483474961
 10
-6.247758449561287
 20
24.928982107979152
 10
-6.241409786914885
 20
24.93057236518673
 10
-5.861971130235261
 20
25.022324425439624
 10
-5.71813196833046
 20
25.07199643173753
 10
-5.586300731779508
 20
25.14800654801544
 10
-5.471247448113666
 20
25.2476045129788
 10
-5.3771350710076975
 20
25.367186590158447
 10
-5.307368852824948
 20
25.50242596130314
 10
-5.264473132941959
 20
25.64842928291897
 10
-5.25
 20
25.79991374129665
 10
-5.25
 20
31.11069852018442
 10
-5.246476205558624
 20
31.146476205558624
 10
-5.210698520184424
 20
31.15
 10
5.210698520184424
 20
31.15
 10
5.246476205558624
 20
31.146476205558624
 10
5.25
 20
31.11069852018442
 10
5.25
 20
25.799913741296645
 10
5.264473132941959
 20
25.648429282918965
 10
5.307368852824948
 20
25.502425961303135
 10
5.377135071007697
 20
25.367186590158443
 10
5.471247448113665
 20
25.2476045129788
 10
5.586300731779506
 20
25.14800654801544
 10
5.718131968330458
 20
25.071996431737528
 10
5.861971130235259
 20
25.02232442543962
 10
6.241409786915131
 20
24.930572365186666
 10
6.2477584495611795
 20
24.928982107979177
 10
6.648481633087691
 20
24.825114834749606
 10
6.654803426526653
 20
24.82342091530292
 10
7.053773519960614
 20
24.713011020778335
 10
7.060066751696234
 20
24.711213892595453
 10
7.457176941096512
 20
24.594290936174346
 10
7.463439926277241
 20
24.59239108039029
 10
7.858583895643819
 20
24.468986365175343
 10
7.864814957517876
 20
24.46698429042722
 10
8.257886917254584
 20
24.337130854844922
 10
8.264084387616359
 20
24.33502709713644
 10
8.654979102855116
 20
24.198759706091355
 10
8.661141322491227
 20
24.196554828649557
 10
9.049754141264426
 20
24.053909964217386
 10
9.05587946040018
 20
24.0516045573411
 10
9.442106341659201
 20
23.902620409001354
 10
9.448193120398537
 20
23.900215089903746
 10
9.831930661868396
 20
23.744931544315328
 10
9.83797727063277
 20
23.74242695695876
 10
10.219122736494135
 20
23.580885587281866
 10
10.225127556460762
 20
23.5782824022047
 10
10.603578904856295
 20
23.41052645697007
 10
10.609540328389492
 20
23.407825371107972
 10
10.98519623874155
 20
23.23389976263881
 10
10.991112669824378
 20
23.231101499137644
 10
11.363872569962226
 20
23.05105279152493
 10
11.369742424622663
 20
23.04815809954767
 10
11.739506517707689
 20
22.862034496184016
 10
11.745328224443407
 20
22.859044150709853
 10
12.111997515686486
 20
22.6668954813846
 10
12.117769515886414
 20
22.66381028300103
 10
12.481245839051377
 20
22.46568799055955
 10
12.486966587411914
 20
22.46250876524854
 10
12.847152631097929
 20
22.258465891819288
 10
12.852820596035937
 20
22.255193490736573
 10
13.20961992973003
 20
22.045284663530396
 10
13.215233593793801
 20
22.04191996277713
 10
13.568550693686502
 20
21.826201379462912
 10
13.57410855396262
 20
21.822745279850746
 10
13.92384882852295
 20
21.601274693509392
 10
13.929349397037793
 20
21.597728120319786
 10
14.275419212337026
 20
21.370564823982733
 10
14.280861016455624
 20
21.366928726718942
 10
14.623167721235923
 20
21.13413353749363
 10
14.628549304055422
 20
21.130408889627024
 10
14.967001254534493
 20
20.892044132414902
 10
14.972321175275795
 20
20.888231931123254
 10
15.306827759682319
 20
20.644361421933784
 10
15.31208459407348
 20
20.640462687835917
 10
15.64255625690629
 20
20.39115171670132
 10
15.64774859756529
 20
20.38716749358289
 10
15.974096863569601
 20
20.13248280707834
 10
15.979223320381777
 20
20.128414161611847
 10
16.30136081823494
 20
19.868423944986777
 10
16.306420018723532
 20
19.864271966447237
 10
16.62426050442789
 20
19.599045825369355
 10
16.629251094122953
 20
19.594811625341528
 10
16.942709474094677
 20
19.324420567262337
 10
16.947630116894533
 20
19.320105279344066
 10
17.256622470745597
 20
19.04462169448811
 10
17.26147184927513
 20
19.040226473986365
 10
17.565915452281086
 20
18.759724115970407
 10
17.570692268244123
 20
18.755250139592256
 10
17.870505613490376
 20
18.46980410568065
 10
17.87520858801858
 20
18.46525257121699
 10
18.170311408223004
 20
18.174939282215227
 10
18.174939282215224
 20
18.170311408223007
 10
18.465252571216972
 20
17.8752085880186
 10
18.469804105680623
 20
17.87050561349041
 10
18.755250139592235
 20
17.570692268244148
 10
18.759724115970386
 20
17.56591545228111
 10
19.040226473986337
 20
17.261471849275164
 10
19.044621694488
 20
17.256622470745718
 10
19.320105279344283
 20
16.94763011689429
 10
19.324420567262198
 20
16.942709474094837
 10
19.5948116253415
 20
16.629251094122992
 10
19.599045825369444
 20
16.624260504427788
 10
19.864271966447014
 20
16.306420018723802
 10
19.8684239449868
 20
16.301360818234905
 10
20.128414161611932
 20
15.979223320381669
 10
20.132482807078144
 20
15.974096863569848
 10
20.38716749358282
 20
15.647748597565373
 10
20.391151716701312
 20
15.642556256906293
 10
20.640462687836052
 20
15.312084594073298
 10
20.644361421933688
 20
15.30682775968245
 10
20.888231931123386
 20
14.972321175275614
 10
20.8920441324148
 20
14.96700125453464
 10
21.130408889627
 20
14.62854930405546
 10
21.13413353749361
 20
14.623167721235946
 10
21.366928726718847
 20
14.280861016455766
 10
21.370564823982825
 20
14.275419212336883
 10
21.59772812031973
 20
13.929349397037885
 10
21.60127469350938
 20
13.923848828522972
 10
21.8227452798506
 20
13.574108553962848
 10
21.82620137946296
 20
13.568550693686417
 10
22.041919962777172
 20
13.21523359379373
 10
22.045284663530346
 20
13.209619929730113
 10
22.255193490736744
 20
12.852820596035642
 10
22.258465891819124
 20
12.847152631098213
 10
22.46250876524857
 20
12.486966587411858
 10
22.46568799055946
 20
12.48124583905155
 10
22.663810283000846
 20
12.117769515886746
 10
22.666895481384756
 20
12.111997515686188
 10
22.85904415070966
 20
11.745328224443778
 10
22.862034496184226
 20
11.739506517707277
 10
23.04815809954764
 20
11.369742424622716
 10
23.051052791524864
 20
11.363872569962355
 10
23.231101499137722
 20
10.991112669824215
 10
23.2338997626387
 20
10.985196238741782
 10
23.407825371107933
 20
10.609540328389578
 10
23.410526456970064
 20
10.603578904856311
 10
23.578282402204618
 20
10.22512755646095
 10
23.580885587281887
 20
10.219122736494088
 10
23.742426956958738
 20
9.837977270632825
 10
23.744931544315378
 20
9.831930661868284
 10
23.900215089903735
 20
9.44819312039857
 10
23.902620409001344
 20
9.442106341659233
 10
24.05160455734101
 20
9.05587946040042
 10
24.053909964217418
 20
9.049754141264335
 10
24.196554828649557
 20
8.661141322491217
 10
24.198759706091387
 20
8.654979102855012
 10
24.335027097136386
 20
8.264084387616508
 10
24.337130854844954
 20
8.257886917254485
 10
24.46698429042711
 20
7.8648149575182
 10
24.46898636517543
 20
7.858583895643544
 10
24.59239108039026
 20
7.463439926277348
 10
24.594290936174318
 20
7.457176941096611
 10
24.711213892595573
 20
7.06006675169582
 10
24.71301102077822
 20
7.053773519961025
 10
24.823420915302908
 20
6.65480342652668
 10
24.82511483474961
 20
6.648481633087658
 10
24.92898210797916
 20
6.247758449561257
 10
24.93057236518671
 20
6.2414097869149785
 10
25.027869209340583
 20
5.8390407965821645
 10
25.029355378558485
 20
5.83266696441985
 10
25.120055744918798
 20
5.428759891188904
 10
25.121437428263693
 20
5.422362595939266
 10
25.205517034149096
 20
5.0170255755007735
 10
25.20679386171102
 20
5.010606529874074
 10
25.28423019697786
 20
4.603948080750044
 10
25.285401826919173
 20
4.59750900328011
 10
25.356174159988143
 20
4.189637997770064
 10
25.35724027863503
 20
4.183180612354493
 10
25.421329662041252
 20
3.7742062473891007
 10
25.422289983968035
 20
3.7677322828258015
 10
25.47967925943373
 20
3.3577640507325404
 10
25.480533527539123
 20
3.3512752402576393
 10
25.53120733056751
 20
2.940422899445746
 10
25.53195531614325
 20
2.933920980270866
 10
25.575900080131902
 20
2.522294525847056
 10
25.57654158292419
 20
2.515781238692824
 10
25.613745542797226
 20
2.103490873011893
 10
25.614280391060134
 20
2.0969679616439896
 10
25.644733586417892
 20
1.6841240648061744
 10
25.645161636959685
 20
1.677593275564841
 10
25.668855914745354
 20
1.264306375864414
 10
25.669177052966518
 20
1.2577694572003828
 10
25.686106069649014
 20
0.8441502015337762
 10
25.686320209573086
 20
0.8376089035383077
 10
25.69647943284525
 20
0.42376802778209777
 10
25.696586517141817
 20
0.41722410171842506
 10
25.69997322713392
 20
0.0032724010824791835
 10
25.69997322713392
 20
-0.003272401082479027
 10
25.696586517141817
 20
-0.4172241017184036
 10
25.69647943284525
 20
-0.42376802778207967
 10
25.686320209573086
 20
-0.837608903538248
 10
25.68610606964901
 20
-0.8441502015338269
 10
25.669177052966514
 20
-1.257769457200551
 10
25.66885591474537
 20
-1.2643063758641615
 10
25.64516163695967
 20
-1.6775932755650678
 10
25.644733586417907
 20
-1.684124064805942
 10
25.61428039106015
 20
-2.096967961643807
 10
25.613745542797208
 20
-2.103490873012079
 10
25.576541582924175
 20
-2.515781238693013
 10
25.575900080131934
 20
-2.522294525846771
 10
25.53195531614324
 20
-2.9339209802709343
 10
25.531207330567515
 20
-2.9404228994457124
 10
25.48053352753911
 20
-3.351275240257733
 10
25.479679259433752
 20
-3.357764050732388
 10
25.42228998396808
 20
-3.7677322828254938
 10
25.421329662041185
 20
-3.774206247389528
 10
25.35724027863507
 20
-4.183180612354212
 10
25.35617415998812
 20
-4.189637997770178
 10
25.28540182691915
 20
-4.597509003280257
 10
25.28423019697789
 20
-4.603948080749866
 10
25.206793861711006
 20
-5.010606529874161
 10
25.20551703414914
 20
-5.0170255755005675
 10
25.12143742826368
 20
-5.422362595939334
 10
25.120055744918815
 20
-5.428759891188815
 10
25.029355378558435
 20
-5.832666964420053
 10
25.027869209340615
 20
-5.8390407965820135
 10
24.93057236518663
 20
-6.241409786915287
 10
24.92898210797928
 20
-6.247758449560784
 10
24.82511483474958
 20
-6.648481633087785
 10
24.823420915302936
 20
-6.6548034265265805
 10
24.713011020778268
 20
-7.05377351996085
 10
24.71121389259552
 20
-7.060066751695992
 10
24.59429093617437
 20
-7.457176941096445
 10
24.592391080390314
 20
-7.46343992627717
 10
24.46898636517531
 20
-7.858583895643926
 10
24.466984290427224
 20
-7.86481495751786
 10
24.33713085484497
 20
-8.257886917254446
 10
24.33502709713639
 20
-8.264084387616501
 10
24.19875970609136
 20
-8.654979102855108
 10
24.196554828649603
 20
-8.661141322491105
 10
24.0539099642174
 20
-9.049754141264394
 10
24.051604557341044
 20
-9.055879460400334
 10
23.902620409001237
 20
-9.442106341659507
 10
23.90021508990384
 20
-9.448193120398317
 10
23.744931544315357
 20
-9.831930661868338
 10
23.74242695695876
 20
-9.837977270632782
 10
23.580885587281944
 20
-10.219122736493961
 10
23.578282402204547
 20
-10.225127556461121
 10
23.410526456970114
 20
-10.603578904856201
 10
23.407825371107943
 20
-10.609540328389558
 10
23.23389976263877
 20
-10.985196238741624
 10
23.231101499137644
 20
-10.991112669824368
 10
23.051052791525017
 20
-11.363872569962044
 10
23.048158099547614
 20
-11.369742424622768
 10
22.86203449618401
 20
-11.739506517707701
 10
22.859044150709845
 20
-11.74532822444342
 10
22.666895481384703
 20
-12.11199751568629
 10
22.663810283000867
 20
-12.117769515886707
 10
22.46568799055953
 20
-12.481245839051427
 10
22.46250876524866
 20
-12.486966587411711
 10
22.258465891819057
 20
-12.847152631098336
 10
22.25519349073678
 20
-12.852820596035585
 10
22.045284663530367
 20
-13.209619929730076
 10
22.041919962777122
 20
-13.215233593793812
 10
21.8262013794629
 20
-13.568550693686513
 10
21.82274527985074
 20
-13.574108553962631
 10
21.60127469350936
 20
-13.923848828522997
 10
21.59772812031983
 20
-13.929349397037726
 10
21.370564823982722
 20
-14.27541921233704
 10
21.366928726718836
 20
-14.280861016455777
 10
21.13413353749395
 20
-14.623167721235456
 10
21.130408889626683
 20
-14.628549304055914
 10
20.892044132414835
 20
-14.967001254534589
 10
20.888231931123393
 20
-14.972321175275603
 10
20.644361421933684
 20
-15.306827759682452
 10
20.640462687836084
 20
-15.312084594073255
 10
20.391151716701152
 20
-15.6425562569065
 10
20.387167493582727
 20
-15.647748597565498
 10
20.132482807078542
 20
-15.974096863569347
 10
20.128414161611754
 20
-15.979223320381891
 10
19.868423944986983
 20
-16.301360818234684
 10
19.864271966447024
 20
-16.30642001872379
 10
19.599045825369426
 20
-16.624260504427813
 10
19.59481162534155
 20
-16.629251094122935
 10
19.32442056726239
 20
-16.942709474094617
 10
19.32010527934409
 20
-16.94763011689451
 10
19.04462169448803
 20
-17.25662247074569
 10
19.040226473986326
 20
-17.261471849275175
 10
18.759724115970464
 20
-17.565915452281025
 10
18.7552501395922
 20
-17.57069226824418
 10
18.469804105680616
 20
-17.870505613490415
 10
18.465252571216997
 20
-17.87520858801858
 10
18.174939282215227
 20
-18.170311408223
 10
18.170311408223004
 20
-18.174939282215224
 10
17.8752085880186
 20
-18.465252571216972
 10
17.870505613490383
 20
-18.469804105680645
 10
17.570692268244112
 20
-18.75525013959227
 10
17.565915452281125
 20
-18.759724115970375
 10
17.26147184927516
 20
-19.04022647398634
 10
17.256622470745715
 20
-19.044621694488004
 10
16.947630116894405
 20
-19.32010527934418
 10
16.942709474094677
 20
-19.324420567262337
 10
16.62925109412309
 20
-19.594811625341418
 10
16.62426050442772
 20
-19.5990458253695
 10
16.306420018723855
 20
-19.864271966446967
 10
16.30136081823447
 20
-19.868423944987157
 10
15.979223320382024
 20
-20.12841416161165
 10
15.974096863569562
 20
-20.13248280707837
 10
15.64774859756544
 20
-20.38716749358277
 10
15.642556256906355
 20
-20.391151716701266
 10
15.312084594073466
 20
-20.640462687835925
 10
15.306827759682218
 20
-20.644361421933855
 10
14.972321175275543
 20
-20.88823193112344
 10
14.967001254534804
 20
-20.892044132414686
 10
14.628549304055442
 20
-21.13040888962701
 10
14.623167721235943
 20
-21.134133537493614
 10
14.280861016455638
 20
-21.366928726718932
 10
14.27541921233704
 20
-21.370564823982722
 10
13.929349397037825
 20
-21.597728120319765
 10
13.923848828522948
 20
-21.601274693509392
 10
13.574108553962871
 20
-21.82274527985059
 10
13.568550693686301
 20
-21.826201379463036
 10
13.215233593793672
 20
-22.041919962777207
 10
13.20961992973024
 20
-22.045284663530268
 10
12.852820596035768
 20
-22.255193490736673
 10
12.847152631098064
 20
-22.258465891819213
 10
12.486966587411915
 20
-22.46250876524854
 10
12.481245839051384
 20
-22.46568799055955
 10
12.117769515886623
 20
-22.663810283000913
 10
12.111997515686204
 20
-22.666895481384746
 10
11.745328224443737
 20
-22.85904415070968
 10
11.739506517707344
 20
-22.862034496184187
 10
11.369742424622933
 20
-23.048158099547532
 10
11.363872569961972
 20
-23.051052791525052
 10
10.991112669824668
 20
-23.2311014991375
 10
10.985196238741544
 20
-23.23389976263881
 10
10.609540328389585
 20
-23.407825371107933
 10
10.60357890485616
 20
-23.410526456970132
 10
10.225127556460972
 20
-23.57828240220461
 10
10.219122736494239
 20
-23.580885587281823
 10
9.837977270632775
 20
-23.742426956958763
 10
9.831930661868196
 20
-23.744931544315413
 10
9.448193120398546
 20
-23.900215089903742
 10
9.442106341659363
 20
-23.90262040900129
 10
9.055879460400229
 20
-24.051604557341083
 10
9.049754141264541
 20
-24.053909964217343
 10
8.661141322491288
 20
-24.196554828649532
 10
8.654979102854899
 20
-24.19875970609143
 10
8.264084387616265
 20
-24.335027097136468
 10
8.257886917254789
 20
-24.33713085484485
 10
7.864814957517817
 20
-24.46698429042724
 10
7.858583895643874
 20
-24.46898636517533
 10
7.463439926277326
 20
-24.592391080390268
 10
7.457176941096469
 20
-24.59429093617436
 10
7.060066751696061
 20
-24.711213892595502
 10
7.053773519960721
 20
-24.713011020778307
 10
6.654803426526743
 20
-24.82342091530289
 10
6.648481633087581
 20
-24.82511483474963
 10
6.247758449561303
 20
-24.92898210797915
 10
6.2414097869149465
 20
-24.930572365186713
 10
5.8619711302352595
 20
-25.022324425439624
 10
5.718131968330459
 20
-25.07199643173753
 10
5.586300731779507
 20
-25.148006548015445
 10
5.471247448113665
 20
-25.247604512978803
 10
5.377135071007697
 20
-25.367186590158447
 10
5.307368852824948
 20
-25.50242596130314
 10
5.264473132941959
 20
-25.64842928291897
 10
5.25
 20
-25.79991374129665
 10
5.25
 20
-31.11069852018442
 10
5.246476205558624
 20
-31.146476205558624
 10
5.210698520184424
 20
-31.15
 10
-5.210698520184424
 20
-31.15
 10
-5.246476205558624
 20
-31.14647620555862
 10
-5.25
 20
-31.11069852018442
 10
-5.25
 20
-25.799913741296645
  0
CIRCLE
  5
8E
330
17
100
AcDbEntity
  8
CORTE
100
AcDbCircle
 10
0.0
 20
59.0
 30
0.0
 40
5.0
  0
CIRCLE
  5
8F
330
17
100
AcDbEntity
  8
CORTE
100
AcDbCircle
 10
-34.68
 20
47.73
 30
0.0
 40
12.0
  0
CIRCLE
  5
90
330
17
100
AcDbEntity
  8
CORTE
100
AcDbCircle
 10
-56.11
 20
18.23
 30
0.0
 40
12.0
  0
CIRCLE
  5
91
330
17
100
AcDbEntity
  8
CORTE
100
AcDbCircle
 10
-56.11
 20
-18.23
 30
0.0
 40
12.0
  0
CIRCLE
  5
92
330
17
100
AcDbEntity
  8
CORTE
100
AcDbCircle
 10
-34.68
 20
-47.73
 30
0.0
 40
12.0
  0
CIRCLE
  5
93
330
17
100
AcDbEntity
  8
CORTE
100
AcDbCircle
 10
-0.0
 20
-59.0
 30
0.0
 40
12.0
  0
CIRCLE
  5
94
330
17
100
AcDbEntity
  8
CORTE
100
AcDbCircle
 10
34.68
 20
-47.73
 30
0.0
 40
12.0
  0
CIRCLE
  5
95
330
17
100
AcDbEntity
  8
CORTE
100
AcDbCircle
 10
56.11
 20
-18.23
 30
0.0
 40
12.0
  0
CIRCLE
  5
96
330
17
100
AcDbEntity
  8
CORTE
100
AcDbCircle
 10
56.11
 20
18.23
 30
0.0
 40
12.0
  0
CIRCLE
  5
97
330
17
100
AcDbEntity
  8
CORTE
100
AcDbCircle
 10
34.68
 20
47.73
 30
0.0
 40
12.0
  0
TEXT
  5
98
330
17
100
AcDbEntity
  8
NOTAS
100
AcDbText
 10
-82.5
 20
-94.5
 30
0.0
 40
4.0
  1
15 Disco del carrete naranja - Al6061-T6 10mm - cantidad 1 - MEDIDAS EN MILIMETROS
 11
-82.5
 21
-94.5
 31
0.0
100
AcDbText
  0
ENDSEC
  0
SECTION
  2
OBJECTS
  0
DICTIONARY
  5
A
330
0
100
AcDbDictionary
281
1
  3
ACAD_COLOR
350
B
  3
ACAD_GROUP
350
C
  3
ACAD_LAYOUT
350
D
  3
ACAD_MATERIAL
350
E
  3
ACAD_MLEADERSTYLE
350
F
  3
ACAD_MLINESTYLE
350
10
  3
ACAD_PLOTSETTINGS
350
11
  3
ACAD_PLOTSTYLENAME
350
12
  3
ACAD_SCALELIST
350
14
  3
ACAD_TABLESTYLE
350
15
  3
ACAD_VISUALSTYLE
350
16
  3
EZDXF_META
350
2D
  0
DICTIONARY
  5
B
330
A
100
AcDbDictionary
281
1
  0
DICTIONARY
  5
C
330
A
100
AcDbDictionary
281
1
  0
DICTIONARY
  5
D
330
A
100
AcDbDictionary
281
1
  3
Model
350
1A
  3
Layout1
350
1E
  0
DICTIONARY
  5
E
330
A
100
AcDbDictionary
281
1
  3
ByBlock
350
1F
  3
ByLayer
350
20
  3
Global
350
21
  0
DICTIONARY
  5
F
330
A
100
AcDbDictionary
281
1
  3
Standard
350
2C
  0
DICTIONARY
  5
10
330
A
100
AcDbDictionary
281
1
  3
Standard
350
22
  0
DICTIONARY
  5
11
330
A
100
AcDbDictionary
281
1
  0
ACDBDICTIONARYWDFLT
  5
12
330
A
100
AcDbDictionary
281
1
  3
Normal
350
13
100
AcDbDictionaryWithDefault
340
13
  0
ACDBPLACEHOLDER
  5
13
330
12
  0
DICTIONARY
  5
14
330
A
100
AcDbDictionary
281
1
  0
DICTIONARY
  5
15
330
A
100
AcDbDictionary
281
1
  0
DICTIONARY
  5
16
330
A
100
AcDbDictionary
281
1
  3
2dWireframe
350
5A
  3
Basic
350
5B
  3
Brighten
350
5C
  3
ColorChange
350
5D
  3
Conceptual
350
5E
  3
Dim
350
5F
  3
EdgeColorOff
350
60
  3
Facepattern
350
61
  3
Flat
350
62
  3
FlatWithEdges
350
63
  3
Gouraud
350
64
  3
GouraudWithEdges
350
65
  3
Hidden
350
66
  3
JitterOff
350
67
  3
Linepattern
350
68
  3
Modeling
350
69
  3
OverhangOff
350
6A
  3
Realistic
350
6B
  3
Shaded
350
6C
  3
Shaded with edges
350
6D
  3
Shades of Gray
350
6E
  3
Sketchy
350
6F
  3
Thicken
350
70
  3
Wireframe
350
71
  3
X-Ray
350
72
  0
LAYOUT
  5
1A
330
D
100
AcDbPlotSettings
  1

  4
A3
  6

 40
7.5
 41
20.0
 42
7.5
 43
20.0
 44
420.0
 45
297.0
 46
0.0
 47
0.0
 48
0.0
 49
0.0
140
0.0
141
0.0
142
1.0
143
1.0
 70
1024
 72
1
 73
0
 74
5
  7

 75
16
 76
0
 77
2
 78
300
147
1.0
148
0.0
149
0.0
100
AcDbLayout
  1
Model
 70
1
 71
0
 10
0.0
 20
0.0
 11
420.0
 21
297.0
 12
0.0
 22
0.0
 32
0.0
 14
1e+20
 24
1e+20
 34
1e+20
 15
-1e+20
 25
-1e+20
 35
-1e+20
146
0.0
 13
0.0
 23
0.0
 33
0.0
 16
1.0
 26
0.0
 36
0.0
 17
0.0
 27
1.0
 37
0.0
 76
1
330
17
  0
LAYOUT
  5
1E
330
D
100
AcDbPlotSettings
  1

  4
A3
  6

 40
7.5
 41
20.0
 42
7.5
 43
20.0
 44
420.0
 45
297.0
 46
0.0
 47
0.0
 48
0.0
 49
0.0
140
0.0
141
0.0
142
1.0
143
1.0
 70
0
 72
1
 73
0
 74
5
  7

 75
16
 76
0
 77
2
 78
300
147
1.0
148
0.0
149
0.0
100
AcDbLayout
  1
Layout1
 70
1
 71
1
 10
0.0
 20
0.0
 11
420.0
 21
297.0
 12
0.0
 22
0.0
 32
0.0
 14
1e+20
 24
1e+20
 34
1e+20
 15
-1e+20
 25
-1e+20
 35
-1e+20
146
0.0
 13
0.0
 23
0.0
 33
0.0
 16
1.0
 26
0.0
 36
0.0
 17
0.0
 27
1.0
 37
0.0
 76
1
330
1B
  0
MATERIAL
  5
1F
102
{ACAD_REACTORS
330
E
102
}
330
E
100
AcDbMaterial
  1
ByBlock
  2

 70
0
 40
1.0
 71
1
 41
1.0
 91
-1023410177
 42
1.0
 72
1
  3

 73
1
 74
1
 75
1
 44
0.5
 73
0
 45
1.0
 46
1.0
 77
1
  4

 78
1
 79
1
170
1
 48
1.0
171
1
  6

172
1
173
1
174
1
140
1.0
141
1.0
175
1
  7

176
1
177
1
178
1
143
1.0
179
1
  8

270
1
271
1
272
1
145
1.0
146
1.0
273
1
  9

274
1
275
1
276
1
 42
1.0
 72
1
  3

 73
1
 74
1
 75
1
 94
63
  0
MATERIAL
  5
20
102
{ACAD_REACTORS
330
E
102
}
330
E
100
AcDbMaterial
  1
ByLayer
  2

 70
0
 40
1.0
 71
1
 41
1.0
 91
-1023410177
 42
1.0
 72
1
  3

 73
1
 74
1
 75
1
 44
0.5
 73
0
 45
1.0
 46
1.0
 77
1
  4

 78
1
 79
1
170
1
 48
1.0
171
1
  6

172
1
173
1
174
1
140
1.0
141
1.0
175
1
  7

176
1
177
1
178
1
143
1.0
179
1
  8

270
1
271
1
272
1
145
1.0
146
1.0
273
1
  9

274
1
275
1
276
1
 42
1.0
 72
1
  3

 73
1
 74
1
 75
1
 94
63
  0
MATERIAL
  5
21
102
{ACAD_REACTORS
330
E
102
}
330
E
100
AcDbMaterial
  1
Global
  2

 70
0
 40
1.0
 71
1
 41
1.0
 91
-1023410177
 42
1.0
 72
1
  3

 73
1
 74
1
 75
1
 44
0.5
 73
0
 45
1.0
 46
1.0
 77
1
  4

 78
1
 79
1
170
1
 48
1.0
171
1
  6

172
1
173
1
174
1
140
1.0
141
1.0
175
1
  7

176
1
177
1
178
1
143
1.0
179
1
  8

270
1
271
1
272
1
145
1.0
146
1.0
273
1
  9

274
1
275
1
276
1
 42
1.0
 72
1
  3

 73
1
 74
1
 75
1
 94
63
  0
MLINESTYLE
  5
22
102
{ACAD_REACTORS
330
10
102
}
330
10
100
AcDbMlineStyle
  2
Standard
 70
0
  3

 62
256
 51
90.0
 52
90.0
 71
2
 49
0.5
 62
256
  6
BYLAYER
 49
-0.5
 62
256
  6
BYLAYER
  0
MLEADERSTYLE
  5
2C
102
{ACAD_REACTORS
330
F
102
}
330
F
100
AcDbMLeaderStyle
179
2
170
2
171
1
172
0
 90
2
 40
0.0
 41
0.0
173
1
 91
-1056964608
 92
-2
290
1
 42
2.0
291
1
 43
8.0
  3
Standard
 44
4.0
300

342
29
174
1
175
1
176
0
178
1
 93
-1056964608
 45
4.0
292
0
297
0
 46
4.0
 94
-1056964608
 47
1.0
 49
1.0
140
1.0
294
1
141
0.0
177
0
142
1.0
295
0
296
0
143
3.75
271
0
272
9
273
9
  0
DICTIONARY
  5
2D
330
A
100
AcDbDictionary
280
1
281
1
  3
CREATED_BY_EZDXF
350
2E
  3
WRITTEN_BY_EZDXF
350
9B
  0
DICTIONARYVAR
  5
2E
330
2D
100
DictionaryVariables
280
0
  1
1.4.4 @ 2026-09-26T04:33:59.274351+00:00
  0
VISUALSTYLE
  5
5A
102
{ACAD_REACTORS
330
16
102
}
330
16
100
AcDbVisualStyle
  2
2dWireframe
 70
4
 90
0
 40
0.6
 62
7
290
0
291
0
  0
VISUALSTYLE
  5
5B
102
{ACAD_REACTORS
330
16
102
}
330
16
100
AcDbVisualStyle
  2
Basic
 70
7
 90
1
 40
0.6
 62
7
290
0
291
1
  0
VISUALSTYLE
  5
5C
102
{ACAD_REACTORS
330
16
102
}
330
16
100
AcDbVisualStyle
  2
Brighten
 70
12
 90
2
 40
0.6
 62
7
290
0
291
1
  0
VISUALSTYLE
  5
5D
102
{ACAD_REACTORS
330
16
102
}
330
16
100
AcDbVisualStyle
  2
ColorChange
 70
16
 90
2
 40
0.6
 62
8
290
0
291
1
  0
VISUALSTYLE
  5
5E
102
{ACAD_REACTORS
330
16
102
}
330
16
100
AcDbVisualStyle
  2
Conceptual
 70
9
 90
3
 40
0.6
 62
7
290
0
291
0
  0
VISUALSTYLE
  5
5F
102
{ACAD_REACTORS
330
16
102
}
330
16
100
AcDbVisualStyle
  2
Dim
 70
11
 90
2
 40
0.6
 62
7
290
0
291
1
  0
VISUALSTYLE
  5
60
102
{ACAD_REACTORS
330
16
102
}
330
16
100
AcDbVisualStyle
  2
EdgeColorOff
 70
22
 90
2
 40
0.6
 62
7
290
0
291
1
  0
VISUALSTYLE
  5
61
102
{ACAD_REACTORS
330
16
102
}
330
16
100
AcDbVisualStyle
  2
Facepattern
 70
15
 90
2
 40
0.6
 62
7
290
0
291
1
  0
VISUALSTYLE
  5
62
102
{ACAD_REACTORS
330
16
102
}
330
16
100
AcDbVisualStyle
  2
Flat
 70
0
 90
2
 40
0.6
 62
7
290
0
291
1
  0
VISUALSTYLE
  5
63
102
{ACAD_REACTORS
330
16
102
}
330
16
100
AcDbVisualStyle
  2
FlatWithEdges
 70
1
 90
2
 40
0.6
 62
7
290
0
291
1
  0
VISUALSTYLE
  5
64
102
{ACAD_REACTORS
330
16
102
}
330
16
100
AcDbVisualStyle
  2
Gouraud
 70
2
 90
2
 40
0.6
 62
7
290
0
291
1
  0
VISUALSTYLE
  5
65
102
{ACAD_REACTORS
330
16
102
}
330
16
100
AcDbVisualStyle
  2
GouraudWithEdges
 70
3
 90
2
 40
0.6
 62
7
290
0
291
1
  0
VISUALSTYLE
  5
66
102
{ACAD_REACTORS
330
16
102
}
330
16
100
AcDbVisualStyle
  2
Hidden
 70
6
 90
1
 40
0.6
 62
7
290
0
291
0
  0
VISUALSTYLE
  5
67
102
{ACAD_REACTORS
330
16
102
}
330
16
100
AcDbVisualStyle
  2
JitterOff
 70
20
 90
2
 40
0.6
 62
7
290
0
291
1
  0
VISUALSTYLE
  5
68
102
{ACAD_REACTORS
330
16
102
}
330
16
100
AcDbVisualStyle
  2
Linepattern
 70
14
 90
2
 40
0.6
 62
7
290
0
291
1
  0
VISUALSTYLE
  5
69
102
{ACAD_REACTORS
330
16
102
}
330
16
100
AcDbVisualStyle
  2
Modeling
 70
10
 90
2
 40
0.6
 62
7
290
0
291
0
  0
VISUALSTYLE
  5
6A
102
{ACAD_REACTORS
330
16
102
}
330
16
100
AcDbVisualStyle
  2
OverhangOff
 70
21
 90
2
 40
0.6
 62
7
290
0
291
1
  0
VISUALSTYLE
  5
6B
102
{ACAD_REACTORS
330
16
102
}
330
16
100
AcDbVisualStyle
  2
Realistic
 70
8
 90
2
 40
0.6
 62
7
290
0
291
0
  0
VISUALSTYLE
  5
6C
102
{ACAD_REACTORS
330
16
102
}
330
16
100
AcDbVisualStyle
  2
Shaded
 70
27
 90
2
 40
0.6
 62
7
290
0
291
0
  0
VISUALSTYLE
  5
6D
102
{ACAD_REACTORS
330
16
102
}
330
16
100
AcDbVisualStyle
  2
Shaded with edges
 70
26
 90
2
 40
0.6
 62
7
290
0
291
0
  0
VISUALSTYLE
  5
6E
102
{ACAD_REACTORS
330
16
102
}
330
16
100
AcDbVisualStyle
  2
Shades of Gray
 70
23
 90
2
 40
0.6
 62
7
290
0
291
0
  0
VISUALSTYLE
  5
6F
102
{ACAD_REACTORS
330
16
102
}
330
16
100
AcDbVisualStyle
  2
Sketchy
 70
24
 90
1
 40
0.6
 62
7
290
0
291
0
  0
VISUALSTYLE
  5
70
102
{ACAD_REACTORS
330
16
102
}
330
16
100
AcDbVisualStyle
  2
Thicken
 70
13
 90
2
 40
0.6
 62
7
290
0
291
1
  0
VISUALSTYLE
  5
71
102
{ACAD_REACTORS
330
16
102
}
330
16
100
AcDbVisualStyle
  2
Wireframe
 70
5
 90
0
 40
0.6
 62
7
290
0
291
0
  0
VISUALSTYLE
  5
72
102
{ACAD_REACTORS
330
16
102
}
330
16
100
AcDbVisualStyle
  2
X-Ray
 70
25
 90
2
 40
0.5
 62
7
290
0
291
0
  0
DICTIONARYVAR
  5
9B
330
2D
100
DictionaryVariables
280
0
  1
1.4.4 @ 2026-09-26T04:33:59.283677+00:00
  0
ENDSEC
  0
EOF
