  0
SECTION
  2
HEADER
  9
$ACADVER
  1
AC1024
  9
$ACADMAINTVER
 70
6
  9
$DWGCODEPAGE
  3
ANSI_1252
  9
$LASTSAVEDBY
  1
ezdxf
  9
$INSBASE
 10
0.0
 20
0.0
 30
0.0
  9
$EXTMIN
 10
1e+20
 20
1e+20
 30
1e+20
  9
$EXTMAX
 10
-1e+20
 20
-1e+20
 30
-1e+20
  9
$LIMMIN
 10
0.0
 20
0.0
  9
$LIMMAX
 10
420.0
 20
297.0
  9
$ORTHOMODE
 70
0
  9
$REGENMODE
 70
1
  9
$FILLMODE
 70
1
  9
$QTEXTMODE
 70
0
  9
$MIRRTEXT
 70
1
  9
$LTSCALE
 40
1.0
  9
$ATTMODE
 70
1
  9
$TEXTSIZE
 40
2.5
  9
$TRACEWID
 40
1.0
  9
$TEXTSTYLE
  7
OpenSans
  9
$CLAYER
  8
0
  9
$CELTYPE
  6
ByLayer
  9
$CECOLOR
 62
256
  9
$CELTSCALE
 40
1.0
  9
$DISPSILH
 70
0
  9
$DIMSCALE
 40
1.0
  9
$DIMASZ
 40
0.175
  9
$DIMEXO
 40
0.125
  9
$DIMDLI
 40
3.75
  9
$DIMRND
 40
0.0
  9
$DIMDLE
 40
0.0
  9
$DIMEXE
 40
0.375
  9
$DIMTP
 40
0.0
  9
$DIMTM
 40
0.0
  9
$DIMTXT
 40
0.25
  9
$DIMCEN
 40
2.5
  9
$DIMTSZ
 40
0.0
  9
$DIMTOL
 70
0
  9
$DIMLIM
 70
0
  9
$DIMTIH
 70
0
  9
$DIMTOH
 70
0
  9
$DIMSE1
 70
0
  9
$DIMSE2
 70
0
  9
$DIMTAD
 70
1
  9
$DIMZIN
 70
12
  9
$DIMBLK
  1
ARCHTICK
  9
$DIMASO
 70
1
  9
$DIMSHO
 70
1
  9
$DIMPOST
  1

  9
$DIMAPOST
  1

  9
$DIMALT
 70
0
  9
$DIMALTD
 70
3
  9
$DIMALTF
 40
0.03937007874
  9
$DIMLFAC
 40
100.0
  9
$DIMTOFL
 70
1
  9
$DIMTVP
 40
0.0
  9
$DIMTIX
 70
0
  9
$DIMSOXD
 70
0
  9
$DIMSAH
 70
0
  9
$DIMBLK1
  1

  9
$DIMBLK2
  1

  9
$DIMSTYLE
  2
EZDXF
  9
$DIMCLRD
 70
0
  9
$DIMCLRE
 70
0
  9
$DIMCLRT
 70
0
  9
$DIMTFAC
 40
0.5
  9
$DIMGAP
 40
0.1
  9
$DIMJUST
 70
0
  9
$DIMSD1
 70
0
  9
$DIMSD2
 70
0
  9
$DIMTOLJ
 70
0
  9
$DIMTZIN
 70
8
  9
$DIMALTZ
 70
0
  9
$DIMALTTZ
 70
0
  9
$DIMUPT
 70
1
  9
$DIMDEC
 70
2
  9
$DIMTDEC
 70
2
  9
$DIMALTU
 70
2
  9
$DIMALTTD
 70
3
  9
$DIMTXSTY
  7
OpenSansCondensed-Light
  9
$DIMAUNIT
 70
0
  9
$DIMADEC
 70
2
  9
$DIMALTRND
 40
0.0
  9
$DIMAZIN
 70
3
  9
$DIMDSEP
 70
46
  9
$DIMATFIT
 70
3
  9
$DIMFRAC
 70
0
  9
$DIMLDRBLK
  1

  9
$DIMLUNIT
 70
2
  9
$DIMLWD
 70
-2
  9
$DIMLWE
 70
-2
  9
$DIMTMOVE
 70
2
  9
$DIMFXL
 40
1.0
  9
$DIMFXLON
 70
0
  9
$DIMJOGANG
 40
0.785398163397
  9
$DIMTFILL
 70
0
  9
$DIMTFILLCLR
 70
0
  9
$DIMARCSYM
 70
0
  9
$DIMLTYPE
  6

  9
$DIMLTEX1
  6

  9
$DIMLTEX2
  6

  9
$DIMTXTDIRECTION
 70
0
  9
$LUNITS
 70
2
  9
$LUPREC
 70
4
  9
$SKETCHINC
 40
1.0
  9
$FILLETRAD
 40
10.0
  9
$AUNITS
 70
0
  9
$AUPREC
 70
2
  9
$MENU
  1
.
  9
$ELEVATION
 40
0.0
  9
$PELEVATION
 40
0.0
  9
$THICKNESS
 40
0.0
  9
$LIMCHECK
 70
0
  9
$CHAMFERA
 40
0.0
  9
$CHAMFERB
 40
0.0
  9
$CHAMFERC
 40
0.0
  9
$CHAMFERD
 40
0.0
  9
$SKPOLY
 70
0
  9
$TDCREATE
 40
2461310.1902662036
  9
$TDUCREATE
 40
2458532.153996898
  9
$TDUPDATE
 40
2461310.1902662036
  9
$TDUUPDATE
 40
2458532.1544311
  9
$TDINDWG
 40
0.0
  9
$TDUSRTIMER
 40
0.0
  9
$USRTIMER
 70
1
  9
$ANGBASE
 50
0.0
  9
$ANGDIR
 70
0
  9
$PDMODE
 70
0
  9
$PDSIZE
 40
0.0
  9
$PLINEWID
 40
0.0
  9
$SPLFRAME
 70
0
  9
$SPLINETYPE
 70
6
  9
$SPLINESEGS
 70
8
  9
$HANDSEED
  5
9C
  9
$SURFTAB1
 70
6
  9
$SURFTAB2
 70
6
  9
$SURFTYPE
 70
6
  9
$SURFU
 70
6
  9
$SURFV
 70
6
  9
$UCSBASE
  2

  9
$UCSNAME
  2

  9
$UCSORG
 10
0.0
 20
0.0
 30
0.0
  9
$UCSXDIR
 10
1.0
 20
0.0
 30
0.0
  9
$UCSYDIR
 10
0.0
 20
1.0
 30
0.0
  9
$UCSORTHOREF
  2

  9
$UCSORTHOVIEW
 70
0
  9
$UCSORGTOP
 10
0.0
 20
0.0
 30
0.0
  9
$UCSORGBOTTOM
 10
0.0
 20
0.0
 30
0.0
  9
$UCSORGLEFT
 10
0.0
 20
0.0
 30
0.0
  9
$UCSORGRIGHT
 10
0.0
 20
0.0
 30
0.0
  9
$UCSORGFRONT
 10
0.0
 20
0.0
 30
0.0
  9
$UCSORGBACK
 10
0.0
 20
0.0
 30
0.0
  9
$PUCSBASE
  2

  9
$PUCSNAME
  2

  9
$PUCSORG
 10
0.0
 20
0.0
 30
0.0
  9
$PUCSXDIR
 10
1.0
 20
0.0
 30
0.0
  9
$PUCSYDIR
 10
0.0
 20
1.0
 30
0.0
  9
$PUCSORTHOREF
  2

  9
$PUCSORTHOVIEW
 70
0
  9
$PUCSORGTOP
 10
0.0
 20
0.0
 30
0.0
  9
$PUCSORGBOTTOM
 10
0.0
 20
0.0
 30
0.0
  9
$PUCSORGLEFT
 10
0.0
 20
0.0
 30
0.0
  9
$PUCSORGRIGHT
 10
0.0
 20
0.0
 30
0.0
  9
$PUCSORGFRONT
 10
0.0
 20
0.0
 30
0.0
  9
$PUCSORGBACK
 10
0.0
 20
0.0
 30
0.0
  9
$USERI1
 70
0
  9
$USERI2
 70
0
  9
$USERI3
 70
0
  9
$USERI4
 70
0
  9
$USERI5
 70
0
  9
$USERR1
 40
0.0
  9
$USERR2
 40
0.0
  9
$USERR3
 40
0.0
  9
$USERR4
 40
0.0
  9
$USERR5
 40
0.0
  9
$WORLDVIEW
 70
1
  9
$SHADEDGE
 70
3
  9
$SHADEDIF
 70
70
  9
$TILEMODE
 70
1
  9
$MAXACTVP
 70
64
  9
$PINSBASE
 10
0.0
 20
0.0
 30
0.0
  9
$PLIMCHECK
 70
0
  9
$PEXTMIN
 10
1e+20
 20
1e+20
 30
1e+20
  9
$PEXTMAX
 10
-1e+20
 20
-1e+20
 30
-1e+20
  9
$PLIMMIN
 10
0.0
 20
0.0
  9
$PLIMMAX
 10
420.0
 20
297.0
  9
$UNITMODE
 70
0
  9
$VISRETAIN
 70
1
  9
$PLINEGEN
 70
0
  9
$PSLTSCALE
 70
1
  9
$TREEDEPTH
 70
3020
  9
$CMLSTYLE
  2
Standard
  9
$CMLJUST
 70
0
  9
$CMLSCALE
 40
20.0
  9
$PROXYGRAPHICS
 70
1
  9
$MEASUREMENT
 70
1
  9
$CELWEIGHT
370
-1
  9
$ENDCAPS
280
0
  9
$JOINSTYLE
280
0
  9
$LWDISPLAY
290
0
  9
$INSUNITS
 70
4
  9
$HYPERLINKBASE
  1

  9
$STYLESHEET
  1

  9
$XEDIT
290
1
  9
$CEPSNTYPE
380
0
  9
$PSTYLEMODE
290
1
  9
$FINGERPRINTGUID
  2
{2FE17DD9-A8C4-41BF-9046-5FFDB777A6BB}
  9
$VERSIONGUID
  2
{B479B3BB-C9E2-42B8-AB57-53F64A207135}
  9
$EXTNAMES
290
1
  9
$PSVPSCALE
 40
0.0
  9
$OLESTARTUP
290
0
  9
$SORTENTS
280
127
  9
$INDEXCTL
280
0
  9
$HIDETEXT
280
1
  9
$XCLIPFRAME
280
1
  9
$HALOGAP
280
0
  9
$OBSCOLOR
 70
257
  9
$OBSLTYPE
280
0
  9
$INTERSECTIONDISPLAY
280
0
  9
$INTERSECTIONCOLOR
 70
257
  9
$DIMASSOC
280
2
  9
$PROJECTNAME
  1

  9
$CAMERADISPLAY
290
0
  9
$LENSLENGTH
 40
50.0
  9
$CAMERAHEIGHT
 40
0.0
  9
$STEPSPERSEC
 40
24.0
  9
$STEPSIZE
 40
100.0
  9
$3DDWFPREC
 40
2.0
  9
$PSOLWIDTH
 40
0.005
  9
$PSOLHEIGHT
 40
0.08
  9
$LOFTANG1
 40
1.570796326795
  9
$LOFTANG2
 40
1.570796326795
  9
$LOFTMAG1
 40
0.0
  9
$LOFTMAG2
 40
0.0
  9
$LOFTPARAM
 70
7
  9
$LOFTNORMALS
280
1
  9
$LATITUDE
 40
37.795
  9
$LONGITUDE
 40
-122.394
  9
$NORTHDIRECTION
 40
0.0
  9
$TIMEZONE
 70
-8000
  9
$LIGHTGLYPHDISPLAY
280
1
  9
$TILEMODELIGHTSYNCH
280
1
  9
$CMATERIAL
347
20
  9
$SOLIDHIST
280
0
  9
$SHOWHIST
280
1
  9
$DWFFRAME
280
2
  9
$DGNFRAME
280
2
  9
$REALWORLDSCALE
290
1
  9
$INTERFERECOLOR
 62
256
  9
$CSHADOW
280
0
  9
$SHADOWPLANELOCATION
 40
0.0
  0
ENDSEC
  0
SECTION
  2
CLASSES
  0
CLASS
  1
ACDBDICTIONARYWDFLT
  2
AcDbDictionaryWithDefault
  3
ObjectDBX Classes
 90
0
 91
0
280
0
281
0
  0
CLASS
  1
SUN
  2
AcDbSun
  3
SCENEOE
 90
1153
 91
0
280
0
281
0
  0
CLASS
  1
VISUALSTYLE
  2
AcDbVisualStyle
  3
ObjectDBX Classes
 90
4095
 91
0
280
0
281
0
  0
CLASS
  1
MATERIAL
  2
AcDbMaterial
  3
ObjectDBX Classes
 90
1153
 91
0
280
0
281
0
  0
CLASS
  1
SCALE
  2
AcDbScale
  3
ObjectDBX Classes
 90
1153
 91
0
280
0
281
0
  0
CLASS
  1
TABLESTYLE
  2
AcDbTableStyle
  3
ObjectDBX Classes
 90
4095
 91
0
280
0
281
0
  0
CLASS
  1
MLEADERSTYLE
  2
AcDbMLeaderStyle
  3
ACDB_MLEADERSTYLE_CLASS
 90
4095
 91
0
280
0
281
0
  0
CLASS
  1
DICTIONARYVAR
  2
AcDbDictionaryVar
  3
ObjectDBX Classes
 90
0
 91
0
280
0
281
0
  0
CLASS
  1
CELLSTYLEMAP
  2
AcDbCellStyleMap
  3
ObjectDBX Classes
 90
1152
 91
0
280
0
281
0
  0
CLASS
  1
MENTALRAYRENDERSETTINGS
  2
AcDbMentalRayRenderSettings
  3
SCENEOE
 90
1024
 91
0
280
0
281
0
  0
CLASS
  1
ACDBDETAILVIEWSTYLE
  2
AcDbDetailViewStyle
  3
ObjectDBX Classes
 90
1025
 91
0
280
0
281
0
  0
CLASS
  1
ACDBSECTIONVIEWSTYLE
  2
AcDbSectionViewStyle
  3
ObjectDBX Classes
 90
1025
 91
0
280
0
281
0
  0
CLASS
  1
RASTERVARIABLES
  2
AcDbRasterVariables
  3
ISM
 90
0
 91
0
280
0
281
0
  0
CLASS
  1
LAYOUT
  2
AcDbLayout
  3
ObjectDBX Classes
 90
0
 91
0
280
0
281
0
  0
CLASS
  1
ACDBPLACEHOLDER
  2
AcDbPlaceHolder
  3
ObjectDBX Classes
 90
0
 91
0
280
0
281
0
  0
ENDSEC
  0
SECTION
  2
TABLES
  0
TABLE
  2
VPORT
  5
8
330
0
100
AcDbSymbolTable
 70
1
  0
VPORT
  5
23
330
8
100
AcDbSymbolTableRecord
100
AcDbViewportTableRecord
  2
*Active
 70
0
 10
0.0
 20
0.0
 11
1.0
 21
1.0
 12
0.0
 22
0.0
 13
0.0
 23
0.0
 14
0.5
 24
0.5
 15
0.5
 25
0.5
 16
0.0
 26
0.0
 36
1.0
 17
0.0
 27
0.0
 37
0.0
 40
1000.0
 41
1.34
 42
50.0
 43
0.0
 44
0.0
 50
0.0
 51
0.0
 71
0
 72
1000
 73
1
 74
3
 75
0
 76
0
 77
0
 78
0
281
0
 65
0
146
0.0
  0
ENDTAB
  0
TABLE
  2
LTYPE
  5
2
330
0
100
AcDbSymbolTable
 70
21
  0
LTYPE
  5
24
330
2
100
AcDbSymbolTableRecord
100
AcDbLinetypeTableRecord
  2
ByBlock
 70
0
  3

 72
65
 73
0
 40
0.0
  0
LTYPE
  5
25
330
2
100
AcDbSymbolTableRecord
100
AcDbLinetypeTableRecord
  2
ByLayer
 70
0
  3

 72
65
 73
0
 40
0.0
  0
LTYPE
  5
26
330
2
100
AcDbSymbolTableRecord
100
AcDbLinetypeTableRecord
  2
Continuous
 70
0
  3

 72
65
 73
0
 40
0.0
  0
LTYPE
  5
2F
330
2
100
AcDbSymbolTableRecord
100
AcDbLinetypeTableRecord
  2
CENTER
 70
0
  3
Center ____ _ ____ _ ____ _ ____ _ ____ _ ____
 72
65
 73
4
 40
5.08
 49
3.175
 74
0
 49
-0.635
 74
0
 49
0.635
 74
0
 49
-0.635
 74
0
  0
LTYPE
  5
30
330
2
100
AcDbSymbolTableRecord
100
AcDbLinetypeTableRecord
  2
CENTERX2
 70
0
  3
Center (2x) ________  __  ________  __  ________
 72
65
 73
4
 40
8.89
 49
6.35
 74
0
 49
-0.635
 74
0
 49
1.27
 74
0
 49
-0.635
 74
0
  0
LTYPE
  5
31
330
2
100
AcDbSymbolTableRecord
100
AcDbLinetypeTableRecord
  2
CENTER2
 70
0
  3
Center (.5x) ____ _ ____ _ ____ _ ____ _ ____
 72
65
 73
4
 40
2.54
 49
1.587
 74
0
 49
-0.318
 74
0
 49
0.318
 74
0
 49
-0.318
 74
0
  0
LTYPE
  5
32
330
2
100
AcDbSymbolTableRecord
100
AcDbLinetypeTableRecord
  2
DASHED
 70
0
  3
Dashed __ __ __ __ __ __ __ __ __ __ __ __ __ _
 72
65
 73
2
 40
1.524
 49
1.27
 74
0
 49
-0.254
 74
0
  0
LTYPE
  5
33
330
2
100
AcDbSymbolTableRecord
100
AcDbLinetypeTableRecord
  2
DASHEDX2
 70
0
  3
Dashed (2x) ____  ____  ____  ____  ____  ____
 72
65
 73
2
 40
3.048
 49
2.54
 74
0
 49
-0.508
 74
0
  0
LTYPE
  5
34
330
2
100
AcDbSymbolTableRecord
100
AcDbLinetypeTableRecord
  2
DASHED2
 70
0
  3
Dashed (.5x) _ _ _ _ _ _ _ _ _ _ _ _ _ _
 72
65
 73
2
 40
0.762
 49
0.635
 74
0
 49
-0.127
 74
0
  0
LTYPE
  5
35
330
2
100
AcDbSymbolTableRecord
100
AcDbLinetypeTableRecord
  2
PHANTOM
 70
0
  3
Phantom ______  __  __  ______  __  __  ______
 72
65
 73
6
 40
6.35
 49
3.175
 74
0
 49
-0.635
 74
0
 49
0.635
 74
0
 49
-0.635
 74
0
 49
0.635
 74
0
 49
-0.635
 74
0
  0
LTYPE
  5
36
330
2
100
AcDbSymbolTableRecord
100
AcDbLinetypeTableRecord
  2
PHANTOMX2
 70
0
  3
Phantom (2x)____________    ____    ____    ____________
 72
65
 73
6
 40
10.795
 49
6.35
 74
0
 49
-0.635
 74
0
 49
1.27
 74
0
 49
-0.635
 74
0
 49
1.27
 74
0
 49
-0.635
 74
0
  0
LTYPE
  5
37
330
2
100
AcDbSymbolTableRecord
100
AcDbLinetypeTableRecord
  2
PHANTOM2
 70
0
  3
Phantom (.5x) ___ _ _ ___ _ _ ___ _ _ ___ _ _ ___
 72
65
 73
6
 40
3.175
 49
1.587
 74
0
 49
-0.318
 74
0
 49
0.318
 74
0
 49
-0.318
 74
0
 49
0.318
 74
0
 49
-0.318
 74
0
  0
LTYPE
  5
38
330
2
100
AcDbSymbolTableRecord
100
AcDbLinetypeTableRecord
  2
DASHDOT
 70
0
  3
Dash dot __ . __ . __ . __ . __ . __ . __ . __
 72
65
 73
4
 40
3.556
 49
2.54
 74
0
 49
-0.508
 74
0
 49
0.0
 74
0
 49
-0.508
 74
0
  0
LTYPE
  5
39
330
2
100
AcDbSymbolTableRecord
100
AcDbLinetypeTableRecord
  2
DASHDOTX2
 70
0
  3
Dash dot (2x) ____  .  ____  .  ____  .  ____
 72
65
 73
4
 40
6.096
 49
5.08
 74
0
 49
-0.508
 74
0
 49
0.0
 74
0
 49
-0.508
 74
0
  0
LTYPE
  5
3A
330
2
100
AcDbSymbolTableRecord
100
AcDbLinetypeTableRecord
  2
DASHDOT2
 70
0
  3
Dash dot (.5x) _ . _ . _ . _ . _ . _ . _ . _
 72
65
 73
4
 40
1.778
 49
1.27
 74
0
 49
-0.254
 74
0
 49
0.0
 74
0
 49
-0.254
 74
0
  0
LTYPE
  5
3B
330
2
100
AcDbSymbolTableRecord
100
AcDbLinetypeTableRecord
  2
DOT
 70
0
  3
Dot .  .  .  .  .  .  .  .  .  .  .  .  .  .  .  .
 72
65
 73
2
 40
0.508
 49
0.0
 74
0
 49
-0.508
 74
0
  0
LTYPE
  5
3C
330
2
100
AcDbSymbolTableRecord
100
AcDbLinetypeTableRecord
  2
DOTX2
 70
0
  3
Dot (2x) .    .    .    .    .    .    .    . 
 72
65
 73
2
 40
1.016
 49
0.0
 74
0
 49
-1.016
 74
0
  0
LTYPE
  5
3D
330
2
100
AcDbSymbolTableRecord
100
AcDbLinetypeTableRecord
  2
DOT2
 70
0
  3
Dot (.5) . . . . . . . . . . . . . . . . . . . 
 72
65
 73
2
 40
0.254
 49
0.0
 74
0
 49
-0.254
 74
0
  0
LTYPE
  5
3E
330
2
100
AcDbSymbolTableRecord
100
AcDbLinetypeTableRecord
  2
DIVIDE
 70
0
  3
Divide __ . . __ . . __ . . __ . . __ . . __
 72
65
 73
6
 40
4.064
 49
2.54
 74
0
 49
-0.508
 74
0
 49
0.0
 74
0
 49
-0.508
 74
0
 49
0.0
 74
0
 49
-0.508
 74
0
  0
LTYPE
  5
3F
330
2
100
AcDbSymbolTableRecord
100
AcDbLinetypeTableRecord
  2
DIVIDEX2
 70
0
  3
Divide (2x) ____  . .  ____  . .  ____  . .  ____
 72
65
 73
6
 40
6.604
 49
5.08
 74
0
 49
-0.508
 74
0
 49
0.0
 74
0
 49
-0.508
 74
0
 49
0.0
 74
0
 49
-0.508
 74
0
  0
LTYPE
  5
40
330
2
100
AcDbSymbolTableRecord
100
AcDbLinetypeTableRecord
  2
DIVIDE2
 70
0
  3
Divide(.5x) _ . _ . _ . _ . _ . _ . _ . _
 72
65
 73
6
 40
2.032
 49
1.27
 74
0
 49
-0.254
 74
0
 49
0.0
 74
0
 49
-0.254
 74
0
 49
0.0
 74
0
 49
-0.254
 74
0
  0
ENDTAB
  0
TABLE
  2
LAYER
  5
1
330
0
100
AcDbSymbolTable
 70
4
  0
LAYER
  5
27
330
1
100
AcDbSymbolTableRecord
100
AcDbLayerTableRecord
  2
0
 70
0
 62
7
  6
Continuous
370
-3
390
13
347
21
  0
LAYER
  5
28
330
1
100
AcDbSymbolTableRecord
100
AcDbLayerTableRecord
  2
Defpoints
 70
0
 62
7
  6
Continuous
290
0
370
-3
390
13
347
21
  0
LAYER
  5
8A
330
1
100
AcDbSymbolTableRecord
100
AcDbLayerTableRecord
  2
CORTE
 70
0
 62
1
  6
Continuous
370
-3
390
13
347
21
  0
LAYER
  5
8B
330
1
100
AcDbSymbolTableRecord
100
AcDbLayerTableRecord
  2
NOTAS
 70
0
 62
3
  6
Continuous
370
-3
390
13
347
21
  0
ENDTAB
  0
TABLE
  2
STYLE
  5
5
330
0
100
AcDbSymbolTable
 70
26
  0
STYLE
  5
29
330
5
100
AcDbSymbolTableRecord
100
AcDbTextStyleTableRecord
  2
Standard
 70
0
 40
0.0
 41
1.0
 50
0.0
 71
0
 42
2.5
  3
txt
  4

  0
STYLE
  5
41
330
5
100
AcDbSymbolTableRecord
100
AcDbTextStyleTableRecord
  2
OpenSans-Light
 70
0
 40
0.0
 41
1.0
 50
0.0
 71
0
 42
2.5
  3
OpenSans-Light.ttf
  4

  0
STYLE
  5
42
330
5
100
AcDbSymbolTableRecord
100
AcDbTextStyleTableRecord
  2
OpenSans-Light-Italic
 70
0
 40
0.0
 41
1.0
 50
0.0
 71
0
 42
2.5
  3
OpenSans-LightItalic.ttf
  4

  0
STYLE
  5
43
330
5
100
AcDbSymbolTableRecord
100
AcDbTextStyleTableRecord
  2
OpenSans
 70
0
 40
0.0
 41
1.0
 50
0.0
 71
0
 42
2.5
  3
OpenSans-Regular.ttf
  4

  0
STYLE
  5
44
330
5
100
AcDbSymbolTableRecord
100
AcDbTextStyleTableRecord
  2
OpenSans-Italic
 70
0
 40
0.0
 41
1.0
 50
0.0
 71
0
 42
2.5
  3
OpenSans-Italic.ttf
  4

  0
STYLE
  5
45
330
5
100
AcDbSymbolTableRecord
100
AcDbTextStyleTableRecord
  2
OpenSans-SemiBold
 70
0
 40
0.0
 41
1.0
 50
0.0
 71
0
 42
2.5
  3
OpenSans-SemiBold.ttf
  4

  0
STYLE
  5
46
330
5
100
AcDbSymbolTableRecord
100
AcDbTextStyleTableRecord
  2
OpenSans-SemiBoldItalic
 70
0
 40
0.0
 41
1.0
 50
0.0
 71
0
 42
2.5
  3
OpenSans-SemiBoldItalic.ttf
  4

  0
STYLE
  5
47
330
5
100
AcDbSymbolTableRecord
100
AcDbTextStyleTableRecord
  2
OpenSans-Bold
 70
0
 40
0.0
 41
1.0
 50
0.0
 71
0
 42
2.5
  3
OpenSans-Bold.ttf
  4

  0
STYLE
  5
48
330
5
100
AcDbSymbolTableRecord
100
AcDbTextStyleTableRecord
  2
OpenSans-BoldItalic
 70
0
 40
0.0
 41
1.0
 50
0.0
 71
0
 42
2.5
  3
OpenSans-BoldItalic.ttf
  4

  0
STYLE
  5
49
330
5
100
AcDbSymbolTableRecord
100
AcDbTextStyleTableRecord
  2
OpenSans-ExtraBold
 70
0
 40
0.0
 41
1.0
 50
0.0
 71
0
 42
2.5
  3
OpenSans-ExtraBold.ttf
  4

  0
STYLE
  5
4A
330
5
100
AcDbSymbolTableRecord
100
AcDbTextStyleTableRecord
  2
OpenSans-ExtraBoldItalic
 70
0
 40
0.0
 41
1.0
 50
0.0
 71
0
 42
2.5
  3
OpenSans-ExtraBoldItalic.ttf
  4

  0
STYLE
  5
4B
330
5
100
AcDbSymbolTableRecord
100
AcDbTextStyleTableRecord
  2
OpenSansCondensed-Bold
 70
0
 40
0.0
 41
1.0
 50
0.0
 71
0
 42
2.5
  3
OpenSansCondensed-Bold.ttf
  4

  0
STYLE
  5
4C
330
5
100
AcDbSymbolTableRecord
100
AcDbTextStyleTableRecord
  2
OpenSansCondensed-Light
 70
0
 40
0.0
 41
1.0
 50
0.0
 71
0
 42
2.5
  3
OpenSansCondensed-Light.ttf
  4

  0
STYLE
  5
4D
330
5
100
AcDbSymbolTableRecord
100
AcDbTextStyleTableRecord
  2
OpenSansCondensed-Italic
 70
0
 40
0.0
 41
1.0
 50
0.0
 71
0
 42
2.5
  3
OpenSansCondensed-LightItalic.ttf
  4

  0
STYLE
  5
4E
330
5
100
AcDbSymbolTableRecord
100
AcDbTextStyleTableRecord
  2
LiberationSans
 70
0
 40
0.0
 41
1.0
 50
0.0
 71
0
 42
2.5
  3
LiberationSans-Regular.ttf
  4

  0
STYLE
  5
4F
330
5
100
AcDbSymbolTableRecord
100
AcDbTextStyleTableRecord
  2
LiberationSans-Bold
 70
0
 40
0.0
 41
1.0
 50
0.0
 71
0
 42
2.5
  3
LiberationSans-Bold.ttf
  4

  0
STYLE
  5
50
330
5
100
AcDbSymbolTableRecord
100
AcDbTextStyleTableRecord
  2
LiberationSans-BoldItalic
 70
0
 40
0.0
 41
1.0
 50
0.0
 71
0
 42
2.5
  3
LiberationSans-BoldItalic.ttf
  4

  0
STYLE
  5
51
330
5
100
AcDbSymbolTableRecord
100
AcDbTextStyleTableRecord
  2
LiberationSans-Italic
 70
0
 40
0.0
 41
1.0
 50
0.0
 71
0
 42
2.5
  3
LiberationSans-Italic.ttf
  4

  0
STYLE
  5
52
330
5
100
AcDbSymbolTableRecord
100
AcDbTextStyleTableRecord
  2
LiberationSerif
 70
0
 40
0.0
 41
1.0
 50
0.0
 71
0
 42
2.5
  3
LiberationSerif-Regular.ttf
  4

  0
STYLE
  5
53
330
5
100
AcDbSymbolTableRecord
100
AcDbTextStyleTableRecord
  2
LiberationSerif-Bold
 70
0
 40
0.0
 41
1.0
 50
0.0
 71
0
 42
2.5
  3
LiberationSerif-Bold.ttf
  4

  0
STYLE
  5
54
330
5
100
AcDbSymbolTableRecord
100
AcDbTextStyleTableRecord
  2
LiberationSerif-BoldItalic
 70
0
 40
0.0
 41
1.0
 50
0.0
 71
0
 42
2.5
  3
LiberationSerif-BoldItalic.ttf
  4

  0
STYLE
  5
55
330
5
100
AcDbSymbolTableRecord
100
AcDbTextStyleTableRecord
  2
LiberationSerif-Italic
 70
0
 40
0.0
 41
1.0
 50
0.0
 71
0
 42
2.5
  3
LiberationSerif-Italic.ttf
  4

  0
STYLE
  5
56
330
5
100
AcDbSymbolTableRecord
100
AcDbTextStyleTableRecord
  2
LiberationMono
 70
0
 40
0.0
 41
1.0
 50
0.0
 71
0
 42
2.5
  3
LiberationMono-Regular.ttf
  4

  0
STYLE
  5
57
330
5
100
AcDbSymbolTableRecord
100
AcDbTextStyleTableRecord
  2
LiberationMono-Bold
 70
0
 40
0.0
 41
1.0
 50
0.0
 71
0
 42
2.5
  3
LiberationMono-Bold.ttf
  4

  0
STYLE
  5
58
330
5
100
AcDbSymbolTableRecord
100
AcDbTextStyleTableRecord
  2
LiberationMono-BoldItalic
 70
0
 40
0.0
 41
1.0
 50
0.0
 71
0
 42
2.5
  3
LiberationMono-BoldItalic.ttf
  4

  0
STYLE
  5
59
330
5
100
AcDbSymbolTableRecord
100
AcDbTextStyleTableRecord
  2
LiberationMono-Italic
 70
0
 40
0.0
 41
1.0
 50
0.0
 71
0
 42
2.5
  3
LiberationMono-Italic.ttf
  4

  0
ENDTAB
  0
TABLE
  2
VIEW
  5
7
330
0
100
AcDbSymbolTable
 70
0
  0
ENDTAB
  0
TABLE
  2
UCS
  5
6
330
0
100
AcDbSymbolTable
 70
0
  0
ENDTAB
  0
TABLE
  2
APPID
  5
3
330
0
100
AcDbSymbolTable
 70
3
  0
APPID
  5
2A
330
3
100
AcDbSymbolTableRecord
100
AcDbRegAppTableRecord
  2
ACAD
 70
0
  0
APPID
  5
99
330
3
100
AcDbSymbolTableRecord
100
AcDbRegAppTableRecord
  2
HATCHBACKGROUNDCOLOR
 70
0
  0
APPID
  5
9A
330
3
100
AcDbSymbolTableRecord
100
AcDbRegAppTableRecord
  2
EZDXF
 70
0
  0
ENDTAB
  0
TABLE
  2
DIMSTYLE
  5
4
330
0
100
AcDbSymbolTable
 70
12
100
AcDbDimStyleTable
  0
DIMSTYLE
105
2B
330
4
100
AcDbSymbolTableRecord
100
AcDbDimStyleTableRecord
  2
Standard
 70
0
 40
1.0
 41
2.5
 42
0.625
 43
3.75
 44
1.25
 45
0.0
 46
0.0
 47
0.0
 48
0.0
 49
2.5
140
2.5
141
2.5
142
0.0
143
0.03937007874
144
1.0
145
0.0
146
1.0
147
0.625
148
0.0
 69
0
 70
0
 71
0
 72
0
 73
0
 74
0
 75
0
 76
0
 77
1
 78
8
 79
3
170
0
171
3
172
1
173
0
174
0
175
0
176
0
177
0
178
0
179
2
271
2
272
2
273
2
274
3
275
0
276
0
277
2
278
44
279
0
280
0
281
0
282
0
283
0
284
8
285
0
286
0
288
0
289
3
290
0
371
-2
372
-2
  0
DIMSTYLE
105
73
330
4
100
AcDbSymbolTableRecord
100
AcDbDimStyleTableRecord
  2
EZDXF
 70
0
 40
1.0
 41
0.175
 42
0.125
 43
3.75
 44
0.375
 45
0.0
 46
0.0
 47
0.0
 48
0.0
 49
2.5
140
0.25
141
2.5
142
0.0
143
0.03937007874
144
100.0
145
0.0
146
0.5
147
0.1
148
0.0
 69
0
 70
0
 71
0
 72
0
 73
0
 74
0
 75
0
 76
0
 77
1
 78
12
 79
3
170
0
171
3
172
1
173
0
174
0
175
0
176
0
177
0
178
0
179
2
271
2
272
2
273
2
274
3
275
0
276
0
277
2
278
46
279
2
280
0
281
0
282
0
283
0
284
8
285
0
286
0
288
1
289
3
290
0
340
4C
342
74
371
-2
372
-2
  0
DIMSTYLE
105
7C
330
4
100
AcDbSymbolTableRecord
100
AcDbDimStyleTableRecord
  2
EZ_M_100_H25_CM
 70
0
 40
1.0
 41
0.25
 42
0.125
 43
3.75
 44
0.375
 45
0.0
 46
0.0
 47
0.0
 48
0.0
 49
2.5
140
0.25
141
2.5
142
0.125
143
0.03937007874
144
100.0
145
0.0
146
0.5
147
0.1
148
0.0
 69
0
 70
0
 71
0
 72
0
 73
0
 74
0
 75
0
 76
0
 77
1
 78
12
 79
3
170
0
171
3
172
1
173
0
174
0
175
0
176
0
177
0
178
0
179
2
271
2
272
2
273
2
274
3
275
0
276
0
277
2
278
46
279
2
280
0
281
0
282
0
283
0
284
8
285
0
286
0
288
1
289
3
290
0
340
4C
371
-2
372
-2
  0
DIMSTYLE
105
7D
330
4
100
AcDbSymbolTableRecord
100
AcDbDimStyleTableRecord
  2
EZ_M_50_H25_CM
 70
0
 40
1.0
 41
0.125
 42
0.0625
 43
3.75
 44
0.1875
 45
0.0
 46
0.0
 47
0.0
 48
0.0
 49
2.5
140
0.125
141
2.5
142
0.0625
143
0.03937007874
144
100.0
145
0.0
146
0.5
147
0.05
148
0.0
 69
0
 70
0
 71
0
 72
0
 73
0
 74
0
 75
0
 76
0
 77
1
 78
12
 79
3
170
0
171
3
172
1
173
0
174
0
175
0
176
0
177
0
178
0
179
2
271
2
272
2
273
2
274
3
275
0
276
0
277
2
278
46
279
2
280
0
281
0
282
0
283
0
284
8
285
0
286
0
288
1
289
3
290
0
340
4C
371
-2
372
-2
  0
DIMSTYLE
105
7E
330
4
100
AcDbSymbolTableRecord
100
AcDbDimStyleTableRecord
  2
EZ_M_25_H25_CM
 70
0
 40
1.0
 41
0.0625
 42
0.03125
 43
3.75
 44
0.09375
 45
0.0
 46
0.0
 47
0.0
 48
0.0
 49
2.5
140
0.0625
141
2.5
142
0.03125
143
0.03937007874
144
100.0
145
0.0
146
0.5
147
0.025
148
0.0
 69
0
 70
0
 71
0
 72
0
 73
0
 74
0
 75
0
 76
0
 77
1
 78
12
 79
3
170
0
171
3
172
1
173
0
174
0
175
0
176
0
177
0
178
0
179
2
271
2
272
2
273
2
274
3
275
0
276
0
277
2
278
46
279
2
280
0
281
0
282
0
283
0
284
8
285
0
286
0
288
1
289
3
290
0
340
4C
371
-2
372
-2
  0
DIMSTYLE
105
7F
330
4
100
AcDbSymbolTableRecord
100
AcDbDimStyleTableRecord
  2
EZ_M_20_H25_CM
 70
0
 40
1.0
 41
0.05
 42
0.025
 43
3.75
 44
0.07500000000000001
 45
0.0
 46
0.0
 47
0.0
 48
0.0
 49
2.5
140
0.05
141
2.5
142
0.025
143
0.03937007874
144
100.0
145
0.0
146
0.5
147
0.020000000000000004
148
0.0
 69
0
 70
0
 71
0
 72
0
 73
0
 74
0
 75
0
 76
0
 77
1
 78
12
 79
3
170
0
171
3
172
1
173
0
174
0
175
0
176
0
177
0
178
0
179
2
271
2
272
2
273
2
274
3
275
0
276
0
277
2
278
46
279
2
280
0
281
0
282
0
283
0
284
8
285
0
286
0
288
1
289
3
290
0
340
4C
371
-2
372
-2
  0
DIMSTYLE
105
80
330
4
100
AcDbSymbolTableRecord
100
AcDbDimStyleTableRecord
  2
EZ_M_10_H25_CM
 70
0
 40
1.0
 41
0.025
 42
0.0125
 43
3.75
 44
0.037500000000000006
 45
0.0
 46
0.0
 47
0.0
 48
0.0
 49
2.5
140
0.025
141
2.5
142
0.0125
143
0.03937007874
144
100.0
145
0.0
146
0.5
147
0.010000000000000002
148
0.0
 69
0
 70
0
 71
0
 72
0
 73
0
 74
0
 75
0
 76
0
 77
1
 78
12
 79
3
170
0
171
3
172
1
173
0
174
0
175
0
176
0
177
0
178
0
179
2
271
2
272
2
273
2
274
3
275
0
276
0
277
2
278
46
279
2
280
0
281
0
282
0
283
0
284
8
285
0
286
0
288
1
289
3
290
0
340
4C
371
-2
372
-2
  0
DIMSTYLE
105
81
330
4
100
AcDbSymbolTableRecord
100
AcDbDimStyleTableRecord
  2
EZ_M_5_H25_CM
 70
0
 40
1.0
 41
0.0125
 42
0.00625
 43
3.75
 44
0.018750000000000003
 45
0.0
 46
0.0
 47
0.0
 48
0.0
 49
2.5
140
0.0125
141
2.5
142
0.00625
143
0.03937007874
144
100.0
145
0.0
146
0.5
147
0.005000000000000001
148
0.0
 69
0
 70
0
 71
0
 72
0
 73
0
 74
0
 75
0
 76
0
 77
1
 78
12
 79
3
170
0
171
3
172
1
173
0
174
0
175
0
176
0
177
0
178
0
179
2
271
2
272
2
273
2
274
3
275
0
276
0
277
2
278
46
279
2
280
0
281
0
282
0
283
0
284
8
285
0
286
0
288
1
289
3
290
0
340
4C
371
-2
372
-2
  0
DIMSTYLE
105
82
330
4
100
AcDbSymbolTableRecord
100
AcDbDimStyleTableRecord
  2
EZ_M_1_H25_CM
 70
0
 40
1.0
 41
0.0025
 42
0.00125
 43
3.75
 44
0.00375
 45
0.0
 46
0.0
 47
0.0
 48
0.0
 49
2.5
140
0.0025
141
2.5
142
0.00125
143
0.03937007874
144
100.0
145
0.0
146
0.5
147
0.001
148
0.0
 69
0
 70
0
 71
0
 72
0
 73
0
 74
0
 75
0
 76
0
 77
1
 78
12
 79
3
170
0
171
3
172
1
173
0
174
0
175
0
176
0
177
0
178
0
179
2
271
2
272
2
273
2
274
3
275
0
276
0
277
2
278
46
279
2
280
0
281
0
282
0
283
0
284
8
285
0
286
0
288
1
289
3
290
0
340
4C
371
-2
372
-2
  0
DIMSTYLE
105
83
330
4
100
AcDbSymbolTableRecord
100
AcDbDimStyleTableRecord
  2
EZ_RADIUS
 70
0
 40
1.0
 41
0.25
 42
0.125
 43
3.75
 44
0.375
 45
0.0
 46
0.0
 47
0.0
 48
0.0
 49
2.5
140
0.25
141
0.0
142
0.0
143
0.03937007874
144
100.0
145
0.0
146
0.5
147
0.1
148
0.0
 69
0
 70
0
 71
0
 72
0
 73
0
 74
0
 75
0
 76
0
 77
1
 78
12
 79
3
170
0
171
3
172
0
173
0
174
0
175
0
176
0
177
0
178
0
179
2
271
2
272
2
273
2
274
3
275
0
276
0
277
2
278
46
279
1
280
0
281
0
282
0
283
0
284
8
285
0
286
0
288
1
289
3
290
0
340
4C
342
84
371
-2
372
-2
  0
DIMSTYLE
105
88
330
4
100
AcDbSymbolTableRecord
100
AcDbDimStyleTableRecord
  2
EZ_RADIUS_INSIDE
 70
0
 40
1.0
 41
0.25
 42
0.125
 43
3.75
 44
0.375
 45
0.0
 46
0.0
 47
0.0
 48
0.0
 49
2.5
140
0.25
141
0.0
142
0.0
143
0.03937007874
144
100.0
145
0.0
146
0.5
147
0.1
148
0.0
 69
0
 70
0
 71
0
 72
0
 73
0
 74
0
 75
0
 76
0
 77
0
 78
12
 79
3
170
0
171
3
172
0
173
0
174
1
175
0
176
0
177
0
178
0
179
2
271
2
272
2
273
2
274
3
275
0
276
0
277
2
278
46
279
0
280
0
281
0
282
0
283
0
284
8
285
0
286
0
288
1
289
0
290
0
340
4C
342
84
371
-2
372
-2
  0
DIMSTYLE
105
89
330
4
100
AcDbSymbolTableRecord
100
AcDbDimStyleTableRecord
  2
EZ_CURVED
 70
0
 40
1.0
 41
0.25
 42
0.125
 43
3.75
 44
0.375
 45
0.0
 46
0.0
 47
0.0
 48
0.0
 49
2.5
140
0.25
141
2.5
142
0.0
143
0.03937007874
144
100.0
145
0.0
146
0.5
147
0.1
148
0.0
 69
0
 70
0
 71
0
 72
0
 73
0
 74
0
 75
0
 76
0
 77
1
 78
12
 79
2
 90
2
170
0
171
3
172
1
173
0
174
0
175
0
176
0
177
0
178
0
179
2
271
2
272
2
273
2
274
3
275
0
276
0
277
2
278
46
279
2
280
0
281
0
282
0
283
0
284
8
285
0
286
0
288
1
289
3
290
0
340
4C
371
-2
372
-2
  0
ENDTAB
  0
TABLE
  2
BLOCK_RECORD
  5
9
330
0
100
AcDbSymbolTable
 70
5
  0
BLOCK_RECORD
  5
17
330
9
100
AcDbSymbolTableRecord
100
AcDbBlockTableRecord
  2
*Model_Space
340
1A
 70
0
280
1
281
0
  0
BLOCK_RECORD
  5
1B
330
9
100
AcDbSymbolTableRecord
100
AcDbBlockTableRecord
  2
*Paper_Space
340
1E
 70
0
280
1
281
0
  0
BLOCK_RECORD
  5
74
330
9
100
AcDbSymbolTableRecord
100
AcDbBlockTableRecord
  2
_ARCHTICK
340
0
 70
0
280
1
281
0
  0
BLOCK_RECORD
  5
78
330
9
100
AcDbSymbolTableRecord
100
AcDbBlockTableRecord
  2
_CLOSEDFILLED
340
0
 70
0
280
1
281
0
  0
BLOCK_RECORD
  5
84
330
9
100
AcDbSymbolTableRecord
100
AcDbBlockTableRecord
  2
_CLOSEDBLANK
340
0
 70
0
280
1
281
0
  0
ENDTAB
  0
ENDSEC
  0
SECTION
  2
BLOCKS
  0
BLOCK
  5
18
330
17
100
AcDbEntity
  8
0
100
AcDbBlockBegin
  2
*Model_Space
 70
0
 10
0.0
 20
0.0
 30
0.0
  3
*Model_Space
  1

  0
ENDBLK
  5
19
330
17
100
AcDbEntity
  8
0
100
AcDbBlockEnd
  0
BLOCK
  5
1C
330
1B
100
AcDbEntity
  8
0
100
AcDbBlockBegin
  2
*Paper_Space
 70
0
 10
0.0
 20
0.0
 30
0.0
  3
*Paper_Space
  1

  0
ENDBLK
  5
1D
330
1B
100
AcDbEntity
  8
0
100
AcDbBlockEnd
  0
BLOCK
  5
75
330
74
100
AcDbEntity
  8
0
100
AcDbBlockBegin
  2
_ARCHTICK
 70
0
 10
0.0
 20
0.0
 30
0.0
  3
_ARCHTICK
  1

  0
LWPOLYLINE
  5
77
330
74
100
AcDbEntity
  8
0
  6
BYBLOCK
 62
0
100
AcDbPolyline
 90
2
 70
0
 43
0.15
 10
-0.5
 20
-0.5
 10
0.5
 20
0.5
  0
ENDBLK
  5
76
330
74
100
AcDbEntity
  8
0
100
AcDbBlockEnd
  0
BLOCK
  5
79
330
78
100
AcDbEntity
  8
0
100
AcDbBlockBegin
  2
_CLOSEDFILLED
 70
0
 10
0.0
 20
0.0
 30
0.0
  3
_CLOSEDFILLED
  1

  0
SOLID
  5
7B
330
78
100
AcDbEntity
  8
0
  6
BYBLOCK
 62
0
100
AcDbTrace
 10
-1.0
 20
0.16439898372402537
 30
0.0
 11
0.0
 21
0.0
 31
0.0
 12
-1.0
 22
-0.16439898372402537
 32
0.0
 13
-1.0
 23
-0.16439898372402537
 33
0.0
  0
ENDBLK
  5
7A
330
78
100
AcDbEntity
  8
0
100
AcDbBlockEnd
  0
BLOCK
  5
85
330
84
100
AcDbEntity
  8
0
100
AcDbBlockBegin
  2
_CLOSEDBLANK
 70
0
 10
0.0
 20
0.0
 30
0.0
  3
_CLOSEDBLANK
  1

  0
LWPOLYLINE
  5
87
330
84
100
AcDbEntity
  8
0
  6
BYBLOCK
 62
0
100
AcDbPolyline
 90
3
 70
1
 10
-1.0
 20
0.16439898372402537
 10
0.0
 20
0.0
 10
-1.0
 20
-0.16439898372402537
  0
ENDBLK
  5
86
330
84
100
AcDbEntity
  8
0
100
AcDbBlockEnd
  0
ENDSEC
  0
SECTION
  2
ENTITIES
  0
LWPOLYLINE
  5
8C
330
17
100
AcDbEntity
  8
CORTE
100
AcDbPolyline
 90
257
 70
1
 10
82.5
 20
0.0
 10
82.47515254243685
 20
-2.0246513531402637
 10
82.40062513692672
 20
-4.048083132011986
 10
82.27646267599194
 20
-6.069076496972563
 10
82.10273995045624
 20
-8.08641407718875
 10
81.87956160439357
 20
-10.098880703935336
 10
81.60706207209444
 20
-12.105264142567345
 10
81.28540549708765
 20
-14.10435582272485
 10
80.9147856332665
 20
-16.09495156633058
 10
80.4954257281786
 20
-18.07585231294176
 10
80.02757838854988
 20
-20.04586484201927
 10
79.51152542812379
 20
-22.003802491679114
 10
78.94757769790724
 20
-23.94848587349314
 10
78.33607489892553
 20
-25.87874358290855
 10
77.67738537759922
 20
-27.793412904858155
 10
76.97190590386596
 20
-29.69134051413652
 10
76.22006143218115
 20
-31.57138317011991
 10
75.42230484554128
 20
-33.432408405411664
 10
74.57911668268407
 20
-35.273295207998274
 10
73.69100484863002
 20
-37.09293469650504
 10
72.75850430873929
 20
-38.890230788144805
 10
71.7821767664687
 20
-40.664100858957184
 10
70.76261032502245
 20
-42.41347639594079
 10
69.70041913310084
 20
-44.137303640685516
 10
68.59624301495998
 20
-45.83454422411718
 10
67.45074708500566
 20
-47.50417579197224
 10
66.26462134715321
 20
-49.14519262062575
 10
65.03858027919502
 20
-50.75660622290171
 10
63.7733624024258
 20
-52.337445943500754
 10
62.46972983678498
 20
-53.88675954368658
 10
61.12846784178413
 20
-55.40361377487901
 10
59.75038434349603
 20
-56.88709494080801
 10
58.33630944789017
 20
-58.336309447890166
 10
56.88709494080802
 20
-59.750384343496016
 10
55.40361377487901
 20
-61.12846784178413
 10
53.88675954368658
 20
-62.46972983678497
 10
52.337445943500754
 20
-63.7733624024258
 10
50.75660622290171
 20
-65.03858027919502
 10
49.145192620625764
 20
-66.2646213471532
 10
47.50417579197224
 20
-67.45074708500566
 10
45.83454422411719
 20
-68.59624301495998
 10
44.13730364068552
 20
-69.70041913310082
 10
42.41347639594079
 20
-70.76261032502245
 10
40.66410085895719
 20
-71.78217676646868
 10
38.89023078814482
 20
-72.75850430873928
 10
37.09293469650505
 20
-73.69100484863002
 10
35.27329520799828
 20
-74.57911668268407
 10
33.432408405411664
 20
-75.42230484554128
 10
31.571383170119912
 20
-76.22006143218115
 10
29.691340514136535
 20
-76.97190590386596
 10
27.793412904858155
 20
-77.67738537759922
 10
25.878743582908555
 20
-78.33607489892553
 10
23.94848587349314
 20
-78.94757769790724
 10
22.00380249167912
 20
-79.51152542812379
 10
20.045864842019277
 20
-80.02757838854988
 10
18.075852312941755
 20
-80.4954257281786
 10
16.094951566330586
 20
-80.9147856332665
 10
14.104355822724862
 20
-81.28540549708765
 10
12.105264142567345
 20
-81.60706207209444
 10
10.098880703935343
 20
-81.87956160439357
 10
8.086414077188763
 20
-82.10273995045624
 10
6.069076496972565
 20
-82.27646267599194
 10
4.048083132011995
 20
-82.40062513692672
 10
2.024651353140262
 20
-82.47515254243685
 10
0.0
 20
-82.5
 10
-2.0246513531402517
 20
-82.47515254243685
 10
-4.048083132011985
 20
-82.40062513692672
 10
-6.069076496972555
 20
-82.27646267599194
 10
-8.086414077188753
 20
-82.10273995045624
 10
-10.098880703935333
 20
-81.87956160439357
 10
-12.105264142567336
 20
-81.60706207209444
 10
-14.104355822724854
 20
-81.28540549708765
 10
-16.094951566330575
 20
-80.9147856332665
 10
-18.07585231294175
 20
-80.4954257281786
 10
-20.04586484201927
 20
-80.02757838854988
 10
-22.00380249167911
 20
-79.51152542812379
 10
-23.94848587349313
 20
-78.94757769790724
 10
-25.87874358290854
 20
-78.33607489892553
 10
-27.793412904858144
 20
-77.67738537759922
 10
-29.691340514136524
 20
-76.97190590386596
 10
-31.5713831701199
 20
-76.22006143218115
 10
-33.43240840541166
 20
-75.42230484554128
 10
-35.27329520799825
 20
-74.57911668268409
 10
-37.092934696505054
 20
-73.69100484863
 10
-38.89023078814481
 20
-72.75850430873929
 10
-40.66410085895718
 20
-71.7821767664687
 10
-42.41347639594079
 20
-70.76261032502245
 10
-44.13730364068551
 20
-69.70041913310085
 10
-45.83454422411716
 20
-68.59624301496
 10
-47.50417579197224
 20
-67.45074708500566
 10
-49.14519262062575
 20
-66.26462134715321
 10
-50.7566062229017
 20
-65.03858027919502
 10
-52.33744594350075
 20
-63.77336240242581
 10
-53.886759543686566
 20
-62.469729836784985
 10
-55.40361377487902
 20
-61.128467841784115
 10
-56.88709494080802
 20
-59.750384343496016
 10
-58.336309447890166
 20
-58.33630944789017
 10
-59.75038434349601
 20
-56.88709494080803
 10
-61.12846784178411
 20
-55.403613774879034
 10
-62.46972983678498
 20
-53.88675954368657
 10
-63.7733624024258
 20
-52.337445943500754
 10
-65.03858027919502
 20
-50.75660622290172
 10
-66.2646213471532
 20
-49.145192620625764
 10
-67.45074708500564
 20
-47.50417579197225
 10
-68.59624301496
 20
-45.83454422411718
 10
-69.70041913310084
 20
-44.137303640685516
 10
-70.76261032502244
 20
-42.4134763959408
 10
-71.78217676646868
 20
-40.66410085895719
 10
-72.75850430873928
 20
-38.89023078814483
 10
-73.69100484863
 20
-37.09293469650507
 10
-74.57911668268407
 20
-35.27329520799827
 10
-75.42230484554128
 20
-33.43240840541167
 10
-76.22006143218115
 20
-31.571383170119915
 10
-76.97190590386596
 20
-29.691340514136538
 10
-77.67738537759921
 20
-27.793412904858176
 10
-78.33607489892553
 20
-25.87874358290854
 10
-78.94757769790724
 20
-23.948485873493148
 10
-79.51152542812379
 20
-22.003802491679124
 10
-80.02757838854988
 20
-20.045864842019284
 10
-80.4954257281786
 20
-18.07585231294178
 10
-80.9147856332665
 20
-16.09495156633061
 10
-81.28540549708765
 20
-14.10435582272485
 10
-81.60706207209444
 20
-12.105264142567348
 10
-81.87956160439357
 20
-10.098880703935349
 10
-82.10273995045624
 20
-8.086414077188769
 10
-82.27646267599194
 20
-6.069076496972587
 10
-82.40062513692672
 20
-4.048083132011982
 10
-82.47515254243685
 20
-2.024651353140267
 10
-82.5
 20
0.0
 10
-82.47515254243685
 20
2.024651353140247
 10
-82.40062513692672
 20
4.048083132011962
 10
-82.27646267599194
 20
6.069076496972569
 10
-82.10273995045624
 20
8.08641407718875
 10
-81.87956160439357
 20
10.098880703935329
 10
-81.60706207209444
 20
12.10526414256733
 10
-81.28540549708767
 20
14.10435582272483
 10
-80.9147856332665
 20
16.09495156633059
 10
-80.4954257281786
 20
18.07585231294176
 10
-80.02757838854988
 20
20.045864842019263
 10
-79.51152542812379
 20
22.003802491679107
 10
-78.94757769790724
 20
23.948485873493123
 10
-78.33607489892553
 20
25.878743582908523
 10
-77.67738537759922
 20
27.793412904858158
 10
-76.97190590386596
 20
29.69134051413652
 10
-76.22006143218117
 20
31.571383170119898
 10
-75.42230484554128
 20
33.43240840541165
 10
-74.57911668268409
 20
35.27329520799825
 10
-73.69100484863002
 20
37.09293469650505
 10
-72.75850430873929
 20
38.890230788144805
 10
-71.7821767664687
 20
40.66410085895718
 10
-70.76261032502245
 20
42.413476395940776
 10
-69.70041913310085
 20
44.137303640685495
 10
-68.59624301496
 20
45.83454422411716
 10
-67.45074708500566
 20
47.50417579197224
 10
-66.26462134715321
 20
49.14519262062574
 10
-65.03858027919502
 20
50.7566062229017
 10
-63.77336240242581
 20
52.33744594350073
 10
-62.46972983678499
 20
53.886759543686566
 10
-61.12846784178413
 20
55.40361377487902
 10
-59.75038434349603
 20
56.88709494080801
 10
-58.33630944789019
 20
58.336309447890166
 10
-56.88709494080803
 20
59.75038434349601
 10
-55.40361377487904
 20
61.12846784178411
 10
-53.88675954368661
 20
62.46972983678495
 10
-52.33744594350079
 20
63.773362402425775
 10
-50.75660622290175
 20
65.03858027919499
 10
-49.145192620625735
 20
66.26462134715322
 10
-47.50417579197223
 20
67.45074708500566
 10
-45.83454422411718
 20
68.59624301495998
 10
-44.13730364068552
 20
69.70041913310082
 10
-42.4134763959408
 20
70.76261032502244
 10
-40.6641008589572
 20
71.78217676646868
 10
-38.89023078814483
 20
72.75850430873928
 10
-37.09293469650507
 20
73.69100484863
 10
-35.2732952079983
 20
74.57911668268406
 10
-33.43240840541171
 20
75.42230484554126
 10
-31.571383170119955
 20
76.22006143218114
 10
-29.691340514136506
 20
76.97190590386596
 10
-27.793412904858144
 20
77.67738537759922
 10
-25.878743582908545
 20
78.33607489892553
 10
-23.94848587349315
 20
78.94757769790724
 10
-22.003802491679128
 20
79.51152542812379
 10
-20.04586484201929
 20
80.02757838854988
 10
-18.075852312941784
 20
80.4954257281786
 10
-16.094951566330614
 20
80.9147856332665
 10
-14.104355822724889
 20
81.28540549708764
 10
-12.10526414256739
 20
81.60706207209442
 10
-10.098880703935317
 20
81.87956160439359
 10
-8.086414077188737
 20
82.10273995045624
 10
-6.069076496972557
 20
82.27646267599194
 10
-4.048083132011987
 20
82.40062513692672
 10
-2.024651353140272
 20
82.47515254243685
 10
0.0
 20
82.5
 10
2.024651353140242
 20
82.47515254243685
 10
4.048083132011957
 20
82.40062513692672
 10
6.069076496972526
 20
82.27646267599194
 10
8.086414077188708
 20
82.10273995045624
 10
10.098880703935286
 20
81.87956160439359
 10
12.10526414256736
 20
81.60706207209442
 10
14.104355822724859
 20
81.28540549708765
 10
16.094951566330586
 20
80.9147856332665
 10
18.075852312941755
 20
80.4954257281786
 10
20.04586484201926
 20
80.02757838854988
 10
22.003802491679103
 20
79.51152542812379
 10
23.94848587349312
 20
78.94757769790724
 10
25.87874358290852
 20
78.33607489892553
 10
27.79341290485812
 20
77.67738537759922
 10
29.691340514136478
 20
76.97190590386597
 10
31.571383170119926
 20
76.22006143218114
 10
33.43240840541168
 20
75.42230484554128
 10
35.273295207998274
 20
74.57911668268407
 10
37.09293469650505
 20
73.69100484863002
 10
38.8902307881448
 20
72.75850430873929
 10
40.66410085895717
 20
71.7821767664687
 10
42.413476395940776
 20
70.76261032502246
 10
44.137303640685495
 20
69.70041913310085
 10
45.83454422411715
 20
68.59624301496
 10
47.5041757919722
 20
67.45074708500569
 10
49.145192620625714
 20
66.26462134715324
 10
50.75660622290173
 20
65.038580279195
 10
52.33744594350076
 20
63.77336240242579
 10
53.88675954368658
 20
62.46972983678498
 10
55.40361377487901
 20
61.12846784178413
 10
56.88709494080801
 20
59.75038434349603
 10
58.33630944789016
 20
58.33630944789019
 10
59.750384343496
 20
56.88709494080804
 10
61.12846784178411
 20
55.40361377487904
 10
62.46972983678495
 20
53.88675954368661
 10
63.773362402425775
 20
52.33744594350079
 10
65.03858027919499
 20
50.75660622290176
 10
66.26462134715322
 20
49.14519262062574
 10
67.45074708500566
 20
47.50417579197223
 10
68.59624301495998
 20
45.83454422411718
 10
69.70041913310082
 20
44.13730364068552
 10
70.76261032502244
 20
42.413476395940805
 10
71.78217676646868
 20
40.6641008589572
 10
72.75850430873928
 20
38.89023078814483
 10
73.69100484863
 20
37.092934696505075
 10
74.57911668268406
 20
35.27329520799831
 10
75.42230484554126
 20
33.43240840541171
 10
76.22006143218114
 20
31.571383170119958
 10
76.97190590386596
 20
29.69134051413651
 10
77.67738537759922
 20
27.79341290485815
 10
78.33607489892553
 20
25.87874358290855
 10
78.94757769790724
 20
23.948485873493155
 10
79.51152542812379
 20
22.003802491679135
 10
80.02757838854988
 20
20.045864842019295
 10
80.4954257281786
 20
18.075852312941787
 10
80.9147856332665
 20
16.094951566330618
 10
81.28540549708764
 20
14.104355822724896
 10
81.60706207209442
 20
12.105264142567396
 10
81.87956160439357
 20
10.098880703935322
 10
82.10273995045624
 20
8.086414077188742
 10
82.27646267599194
 20
6.069076496972562
 10
82.40062513692672
 20
4.0480831320119925
 10
82.47515254243685
 20
2.024651353140277
 10
82.5
 20
0.0
  0
LWPOLYLINE
  5
8D
330
17
100
AcDbEntity
  8
CORTE
100
AcDbPolyline
 90
385
 70
1
 10
30.5
 20
0.0
 10
30.495917206241636
 20
-0.49903281460784676
 10
30.483669918029154
 20
-0.9979320260641722
 10
30.463261414257758
 20
-1.4965640669862494
 10
30.434697158777407
 20
-1.9947954415193634
 10
30.39798479893
 20
-2.49249276107688
 10
30.353134163502006
 20
-2.9895227800515984
 10
30.30015726009305
 20
-3.4857524314888146
 10
30.239068271901218
 20
-3.9810488627115728
 10
30.16988355392582
 20
-4.475279470888533
 10
30.09262162858881
 20
-4.9683119385349555
 10
30.00730318077586
 20
-5.460014268937297
 10
29.91395105229853
 20
-5.950254821491912
 10
29.81259023577894
 20
-6.438902346948437
 10
29.703247867958677
 20
-6.9258260225483825
 10
29.58595322243359
 20
-7.410895487049547
 10
29.460737701816583
 20
-7.893980875626882
 10
29.32763482933034
 20
-8.374952854640435
 10
29.18668023983237
 20
-8.853682656261102
 10
29.037911670274692
 20
-9.33004211294488
 10
28.881368949600724
 20
-9.803903691746427
 10
28.717093988082134
 20
-10.275140528462712
 10
28.545130766098435
 20
-10.743626461597621
 10
28.365525322362373
 20
-11.209236066138457
 10
28.178325741594247
 20
-11.671844687135238
 10
27.983582141648487
 20
-12.131328473073836
 10
27.781346660095863
 20
-12.587564409034037
 10
27.571673440265023
 20
-13.040430349623602
 10
27.354618616746997
 20
-13.489805051679538
 10
27.13024030036661
 20
-13.93556820672783
 10
26.89859856262483
 20
-14.377600473192926
 10
26.659755419616147
 20
-14.815783508348371
 10
26.41377481542538
 20
-15.249999999999998
 10
26.1607226050083
 20
-15.680133697893261
 10
25.900666536560657
 20
-16.10606944483622
 10
25.63367623338036
 20
-16.527693207529925
 10
25.35982317522763
 20
-16.944892107097868
 10
25.07918067918814
 20
-17.357554449306395
 10
24.791823880044266
 20
-17.765569754467965
 10
24.49782971015967
 20
-18.168828787019216
 10
24.197276878882676
 20
-18.567223584765976
 10
23.89024585147384
 20
-18.96064748778736
 10
23.57681882756348
 20
-19.348995166991187
 10
23.25707971914484
 20
-19.732162652313146
 10
22.93111412810881
 20
-20.110047360552098
 10
22.599009323326253
 20
-20.48254812283406
 10
22.26085421728399
 20
-20.849565211697573
 10
21.916739342280792
 20
-21.211000367793154
 10
21.5667568261897
 20
-21.566756826189696
 10
21.211000367793154
 20
-21.91673934228079
 10
20.849565211697577
 20
-22.260854217283985
 10
20.48254812283406
 20
-22.59900932332625
 10
20.1100473605521
 20
-22.931114128108806
 10
19.732162652313153
 20
-23.257079719144837
 10
19.34899516699119
 20
-23.576818827563475
 10
18.960647487787362
 20
-23.890245851473836
 10
18.56722358476598
 20
-24.197276878882672
 10
18.16882878701922
 20
-24.497829710159667
 10
17.76556975446797
 20
-24.791823880044262
 10
17.3575544493064
 20
-25.079180679188138
 10
16.944892107097875
 20
-25.359823175227625
 10
16.52769320752993
 20
-25.633676233380356
 10
16.106069444836226
 20
-25.900666536560657
 10
15.680133697893268
 20
-26.160722605008296
 10
15.250000000000004
 20
-26.413774815425377
 10
14.815783508348373
 20
-26.659755419616143
 10
14.377600473192933
 20
-26.898598562624827
 10
13.935568206727833
 20
-27.130240300366605
 10
13.489805051679545
 20
-27.354618616746993
 10
13.040430349623607
 20
-27.571673440265023
 10
12.587564409034046
 20
-27.78134666009586
 10
12.131328473073841
 20
-27.983582141648483
 10
11.67184468713524
 20
-28.178325741594247
 10
11.209236066138464
 20
-28.36552532236237
 10
10.743626461597625
 20
-28.54513076609843
 10
10.275140528462718
 20
-28.71709398808213
 10
9.803903691746433
 20
-28.88136894960072
 10
9.330042112944883
 20
-29.037911670274692
 10
8.853682656261107
 20
-29.18668023983237
 10
8.374952854640439
 20
-29.32763482933034
 10
7.893980875626889
 20
-29.46073770181658
 10
7.410895487049552
 20
-29.58595322243359
 10
6.9258260225483905
 20
-29.703247867958677
 10
6.438902346948442
 20
-29.812590235778938
 10
5.950254821491914
 20
-29.91395105229853
 10
5.460014268937302
 20
-30.00730318077586
 10
4.968311938534959
 20
-30.09262162858881
 10
4.47527947088854
 20
-30.169883553925818
 10
3.981048862711577
 20
-30.239068271901218
 10
3.485752431488823
 20
-30.30015726009305
 10
2.9895227800516033
 20
-30.353134163502002
 10
2.4924927610768832
 20
-30.39798479893
 10
1.9947954415193698
 20
-30.434697158777407
 10
1.4965640669862528
 20
-30.463261414257758
 10
0.9979320260641797
 20
-30.483669918029154
 10
0.49903281460785154
 20
-30.495917206241636
 10
0.0
 20
-30.5
 10
-0.499032814607841
 20
-30.495917206241636
 10
-0.9979320260641692
 20
-30.483669918029154
 10
-1.4965640669862426
 20
-30.463261414257758
 10
-1.9947954415193592
 20
-30.434697158777407
 10
-2.4924927610768726
 20
-30.39798479893
 10
-2.989522780051593
 20
-30.353134163502006
 10
-3.4857524314888124
 20
-30.30015726009305
 10
-3.981048862711567
 20
-30.23906827190122
 10
-4.4752794708885295
 20
-30.16988355392582
 10
-4.968311938534949
 20
-30.092621628588812
 10
-5.460014268937292
 20
-30.007303180775864
 10
-5.950254821491903
 20
-29.913951052298533
 10
-6.438902346948431
 20
-29.81259023577894
 10
-6.92582602254838
 20
-29.703247867958677
 10
-7.410895487049541
 20
-29.585953222433595
 10
-7.8939808756268794
 20
-29.460737701816583
 10
-8.374952854640428
 20
-29.327634829330343
 10
-8.853682656261096
 20
-29.186680239832373
 10
-9.330042112944872
 20
-29.037911670274696
 10
-9.803903691746422
 20
-28.881368949600724
 10
-10.275140528462709
 20
-28.717093988082134
 10
-10.743626461597614
 20
-28.545130766098435
 10
-11.209236066138454
 20
-28.365525322362373
 10
-11.67184468713523
 20
-28.17832574159425
 10
-12.13132847307383
 20
-27.983582141648487
 10
-12.587564409034036
 20
-27.781346660095863
 10
-13.040430349623596
 20
-27.571673440265027
 10
-13.489805051679534
 20
-27.354618616746997
 10
-13.93556820672783
 20
-27.13024030036661
 10
-14.377600473192919
 20
-26.898598562624837
 10
-14.815783508348362
 20
-26.65975541961615
 10
-15.249999999999993
 20
-26.41377481542538
 10
-15.680133697893261
 20
-26.1607226050083
 10
-16.106069444836223
 20
-25.900666536560657
 10
-16.527693207529918
 20
-25.633676233380363
 10
-16.94489210709786
 20
-25.359823175227636
 10
-17.357554449306388
 20
-25.079180679188145
 10
-17.76556975446796
 20
-24.791823880044266
 10
-18.16882878701922
 20
-24.49782971015967
 10
-18.56722358476597
 20
-24.19727687888268
 10
-18.960647487787355
 20
-23.89024585147384
 10
-19.348995166991184
 20
-23.576818827563482
 10
-19.732162652313146
 20
-23.25707971914484
 10
-20.11004736055209
 20
-22.93111412810882
 10
-20.482548122834054
 20
-22.59900932332626
 10
-20.84956521169757
 20
-22.260854217283992
 10
-21.211000367793154
 20
-21.916739342280795
 10
-21.566756826189696
 20
-21.5667568261897
 10
-21.91673934228078
 20
-21.211000367793165
 10
-22.260854217283978
 20
-20.849565211697584
 10
-22.599009323326246
 20
-20.482548122834064
 10
-22.931114128108806
 20
-20.1100473605521
 10
-23.257079719144837
 20
-19.73216265231315
 10
-23.576818827563468
 20
-19.348995166991198
 10
-23.89024585147383
 20
-18.96064748778737
 10
-24.19727687888267
 20
-18.567223584765987
 10
-24.497829710159667
 20
-18.16882878701922
 10
-24.791823880044262
 20
-17.765569754467965
 10
-25.079180679188134
 20
-17.357554449306406
 10
-25.35982317522762
 20
-16.944892107097875
 10
-25.633676233380356
 20
-16.527693207529936
 10
-25.900666536560653
 20
-16.106069444836226
 10
-26.16072260500829
 20
-15.680133697893273
 10
-26.413774815425374
 20
-15.25000000000001
 10
-26.65975541961614
 20
-14.81578350834838
 10
-26.898598562624827
 20
-14.377600473192935
 10
-27.130240300366605
 20
-13.935568206727835
 10
-27.35461861674699
 20
-13.489805051679552
 10
-27.571673440265016
 20
-13.040430349623614
 10
-27.78134666009586
 20
-12.587564409034048
 10
-27.983582141648483
 20
-12.131328473073843
 10
-28.178325741594247
 20
-11.671844687135241
 10
-28.365525322362366
 20
-11.209236066138471
 10
-28.545130766098428
 20
-10.743626461597634
 10
-28.71709398808213
 20
-10.27514052846272
 10
-28.88136894960072
 20
-9.803903691746433
 10
-29.037911670274692
 20
-9.330042112944884
 10
-29.186680239832366
 20
-8.853682656261114
 10
-29.32763482933034
 20
-8.374952854640448
 10
-29.46073770181658
 20
-7.893980875626891
 10
-29.58595322243359
 20
-7.410895487049554
 10
-29.703247867958673
 20
-6.9258260225483985
 10
-29.812590235778938
 20
-6.43890234694845
 10
-29.91395105229853
 20
-5.950254821491923
 10
-30.00730318077586
 20
-5.460014268937304
 10
-30.09262162858881
 20
-4.968311938534962
 10
-30.169883553925818
 20
-4.475279470888548
 10
-30.239068271901218
 20
-3.9810488627115856
 10
-30.30015726009305
 20
-3.485752431488825
 10
-30.353134163502002
 20
-2.989522780051605
 10
-30.39798479893
 20
-2.492492761076885
 10
-30.434697158777407
 20
-1.9947954415193787
 10
-30.463261414257758
 20
-1.4965640669862614
 10
-30.483669918029154
 20
-0.9979320260641817
 10
-30.495917206241636
 20
-0.49903281460785337
 10
-30.5
 20
0.0
 10
-30.495917206241636
 20
0.4990328146078324
 10
-30.483669918029154
 20
0.9979320260641608
 10
-30.463261414257758
 20
1.4965640669862406
 10
-30.434697158777407
 20
1.9947954415193574
 10
-30.39798479893
 20
2.492492761076864
 10
-30.353134163502006
 20
2.9895227800515842
 10
-30.300157260093055
 20
3.485752431488804
 10
-30.23906827190122
 20
3.981048862711565
 10
-30.16988355392582
 20
4.475279470888529
 10
-30.092621628588812
 20
4.96831193853494
 10
-30.007303180775864
 20
5.460014268937283
 10
-29.913951052298533
 20
5.950254821491901
 10
-29.81259023577894
 20
6.43890234694843
 10
-29.703247867958677
 20
6.925826022548377
 10
-29.585953222433595
 20
7.410895487049533
 10
-29.460737701816587
 20
7.893980875626871
 10
-29.327634829330343
 20
8.374952854640426
 10
-29.186680239832373
 20
8.853682656261094
 10
-29.037911670274696
 20
9.330042112944863
 10
-28.881368949600727
 20
9.803903691746413
 10
-28.717093988082137
 20
10.2751405284627
 10
-28.54513076609844
 20
10.743626461597612
 10
-28.365525322362373
 20
11.209236066138452
 10
-28.178325741594254
 20
11.671844687135222
 10
-27.98358214164849
 20
12.131328473073824
 10
-27.781346660095867
 20
12.587564409034028
 10
-27.571673440265027
 20
13.040430349623595
 10
-27.354618616746997
 20
13.489805051679532
 10
-27.130240300366616
 20
13.935568206727815
 10
-26.898598562624837
 20
14.377600473192917
 10
-26.65975541961615
 20
14.81578350834836
 10
-26.413774815425384
 20
15.249999999999991
 10
-26.1607226050083
 20
15.680133697893258
 10
-25.900666536560667
 20
16.10606944483621
 10
-25.633676233380367
 20
16.527693207529914
 10
-25.359823175227636
 20
16.94489210709786
 10
-25.07918067918815
 20
17.357554449306388
 10
-24.791823880044277
 20
17.765569754467947
 10
-24.49782971015968
 20
18.168828787019205
 10
-24.19727687888268
 20
18.56722358476597
 10
-23.890245851473843
 20
18.960647487787355
 10
-23.576818827563482
 20
19.34899516699118
 10
-23.257079719144848
 20
19.732162652313136
 10
-22.93111412810882
 20
20.11004736055209
 10
-22.59900932332626
 20
20.482548122834054
 10
-22.260854217283995
 20
20.849565211697566
 10
-21.916739342280795
 20
21.21100036779315
 10
-21.56675682618971
 20
21.56675682618969
 10
-21.211000367793165
 20
21.91673934228078
 10
-20.849565211697584
 20
22.260854217283978
 10
-20.482548122834068
 20
22.599009323326246
 10
-20.110047360552105
 20
22.931114128108806
 10
-19.732162652313153
 20
23.257079719144837
 10
-19.3489951669912
 20
23.576818827563468
 10
-18.96064748778738
 20
23.89024585147382
 10
-18.567223584765987
 20
24.197276878882665
 10
-18.168828787019233
 20
24.497829710159657
 10
-17.76556975446797
 20
24.791823880044262
 10
-17.357554449306406
 20
25.079180679188134
 10
-16.94489210709789
 20
25.359823175227618
 10
-16.527693207529936
 20
25.633676233380356
 10
-16.10606944483624
 20
25.900666536560646
 10
-15.680133697893265
 20
26.160722605008296
 10
-15.250000000000014
 20
26.41377481542537
 10
-14.815783508348392
 20
26.659755419616133
 10
-14.377600473192935
 20
26.898598562624827
 10
-13.935568206727847
 20
27.1302403003666
 10
-13.489805051679541
 20
27.354618616746993
 10
-13.040430349623616
 20
27.571673440265016
 10
-12.58756440903406
 20
27.781346660095853
 10
-12.131328473073845
 20
27.983582141648483
 10
-11.671844687135255
 20
28.17832574159424
 10
-11.209236066138462
 20
28.36552532236237
 10
-10.743626461597636
 20
28.545130766098428
 10
-10.275140528462734
 20
28.717093988082123
 10
-9.803903691746434
 20
28.88136894960072
 10
-9.330042112944897
 20
29.037911670274685
 10
-8.853682656261105
 20
29.18668023983237
 10
-8.37495285464045
 20
29.327634829330336
 10
-7.893980875626906
 20
29.460737701816576
 10
-7.410895487049555
 20
29.58595322243359
 10
-6.9258260225484
 20
29.703247867958673
 10
-6.438902346948466
 20
29.812590235778938
 10
-5.950254821491924
 20
29.913951052298525
 10
-5.460014268937319
 20
30.007303180775857
 10
-4.9683119385349634
 20
30.09262162858881
 10
-4.47527947088855
 20
30.169883553925818
 10
-3.9810488627116007
 20
30.239068271901214
 10
-3.4857524314888266
 20
30.30015726009305
 10
-2.9895227800516206
 20
30.353134163502002
 10
-2.492492761076887
 20
30.39798479893
 10
-1.9947954415193803
 20
30.434697158777407
 10
-1.496564066986277
 20
30.463261414257754
 10
-0.9979320260641836
 20
30.483669918029154
 10
-0.4990328146078688
 20
30.495917206241636
 10
0.0
 20
30.5
 10
0.4990328146078305
 20
30.495917206241636
 10
0.9979320260641453
 20
30.483669918029154
 10
1.4965640669862386
 20
30.463261414257758
 10
1.9947954415193423
 20
30.43469715877741
 10
2.4924927610768757
 20
30.39798479893
 10
2.989522780051583
 20
30.353134163502006
 10
3.4857524314887884
 20
30.300157260093055
 10
3.981048862711564
 20
30.23906827190122
 10
4.475279470888513
 20
30.169883553925825
 10
4.968311938534952
 20
30.09262162858881
 10
5.4600142689372815
 20
30.007303180775864
 10
5.950254821491886
 20
29.913951052298536
 10
6.438902346948428
 20
29.81259023577894
 10
6.925826022548363
 20
29.703247867958684
 10
7.410895487049545
 20
29.58595322243359
 10
7.893980875626869
 20
29.460737701816587
 10
8.374952854640412
 20
29.327634829330346
 10
8.853682656261093
 20
29.186680239832373
 10
9.330042112944861
 20
29.037911670274696
 10
9.803903691746426
 20
28.881368949600724
 10
10.275140528462698
 20
28.717093988082137
 10
10.743626461597598
 20
28.545130766098442
 10
11.20923606613845
 20
28.365525322362373
 10
11.67184468713522
 20
28.178325741594254
 10
12.13132847307381
 20
27.983582141648498
 10
12.587564409034027
 20
27.781346660095867
 10
13.040430349623582
 20
27.57167344026503
 10
13.48980505167953
 20
27.354618616746997
 10
13.935568206727813
 20
27.130240300366616
 10
14.377600473192903
 20
26.898598562624844
 10
14.815783508348359
 20
26.65975541961615
 10
15.24999999999998
 20
26.41377481542539
 10
15.680133697893258
 20
26.160722605008303
 10
16.106069444836205
 20
25.900666536560667
 10
16.527693207529904
 20
25.633676233380374
 10
16.944892107097857
 20
25.359823175227636
 10
17.357554449306377
 20
25.079180679188156
 10
17.765569754467958
 20
24.79182388004427
 10
18.168828787019205
 20
24.49782971015968
 10
18.567223584765955
 20
24.19727687888269
 10
18.96064748778735
 20
23.890245851473843
 10
19.34899516699117
 20
23.576818827563493
 10
19.732162652313143
 20
23.257079719144844
 10
20.110047360552088
 20
22.931114128108824
 10
20.48254812283404
 20
22.599009323326275
 10
20.849565211697566
 20
22.260854217283995
 10
21.21100036779314
 20
21.916739342280806
 10
21.566756826189692
 20
21.566756826189703
 10
21.916739342280778
 20
21.211000367793165
 10
22.26085421728397
 20
20.849565211697595
 10
22.599009323326246
 20
20.482548122834068
 10
22.931114128108796
 20
20.110047360552116
 10
23.257079719144834
 20
19.732162652313153
 10
23.576818827563468
 20
19.3489951669912
 10
23.89024585147382
 20
18.96064748778738
 10
24.197276878882665
 20
18.567223584765987
 10
24.497829710159657
 20
18.168828787019233
 10
24.791823880044262
 20
17.76556975446797
 10
25.07918067918813
 20
17.35755444930641
 10
25.359823175227618
 20
16.94489210709789
 10
25.633676233380356
 20
16.52769320752994
 10
25.900666536560646
 20
16.10606944483624
 10
26.16072260500828
 20
15.680133697893291
 10
26.41377481542537
 20
15.250000000000014
 10
26.659755419616133
 20
14.815783508348394
 10
26.898598562624823
 20
14.377600473192937
 10
27.1302403003666
 20
13.935568206727849
 10
27.35461861674698
 20
13.489805051679566
 10
27.571673440265016
 20
13.040430349623618
 10
27.781346660095853
 20
12.587564409034062
 10
27.98358214164848
 20
12.131328473073847
 10
28.17832574159424
 20
11.671844687135257
 10
28.36552532236236
 20
11.209236066138487
 10
28.545130766098428
 20
10.743626461597637
 10
28.717093988082123
 20
10.275140528462735
 10
28.88136894960072
 20
9.803903691746436
 10
29.037911670274685
 20
9.330042112944898
 10
29.186680239832363
 20
8.853682656261132
 10
29.327634829330336
 20
8.37495285464045
 10
29.460737701816576
 20
7.893980875626908
 10
29.58595322243359
 20
7.410895487049557
 10
29.703247867958673
 20
6.925826022548402
 10
29.812590235778938
 20
6.438902346948467
 10
29.913951052298525
 20
5.950254821491926
 10
30.007303180775857
 20
5.4600142689373214
 10
30.09262162858881
 20
4.968311938534965
 10
30.169883553925818
 20
4.475279470888553
 10
30.239068271901214
 20
3.9810488627116034
 10
30.30015726009305
 20
3.485752431488829
 10
30.353134163502002
 20
2.9895227800516224
 10
30.39798479893
 20
2.4924927610768886
 10
30.434697158777407
 20
1.994795441519382
 10
30.463261414257754
 20
1.496564066986279
 10
30.483669918029154
 20
0.9979320260641855
 10
30.495917206241636
 20
0.4990328146078707
 10
30.5
 20
0.0
  0
CIRCLE
  5
8E
330
17
100
AcDbEntity
  8
CORTE
100
AcDbCircle
 10
0.0
 20
59.0
 30
0.0
 40
5.0
  0
CIRCLE
  5
8F
330
17
100
AcDbEntity
  8
CORTE
100
AcDbCircle
 10
-34.68
 20
47.73
 30
0.0
 40
12.0
  0
CIRCLE
  5
90
330
17
100
AcDbEntity
  8
CORTE
100
AcDbCircle
 10
-56.11
 20
18.23
 30
0.0
 40
12.0
  0
CIRCLE
  5
91
330
17
100
AcDbEntity
  8
CORTE
100
AcDbCircle
 10
-56.11
 20
-18.23
 30
0.0
 40
12.0
  0
CIRCLE
  5
92
330
17
100
AcDbEntity
  8
CORTE
100
AcDbCircle
 10
-34.68
 20
-47.73
 30
0.0
 40
12.0
  0
CIRCLE
  5
93
330
17
100
AcDbEntity
  8
CORTE
100
AcDbCircle
 10
-0.0
 20
-59.0
 30
0.0
 40
12.0
  0
CIRCLE
  5
94
330
17
100
AcDbEntity
  8
CORTE
100
AcDbCircle
 10
34.68
 20
-47.73
 30
0.0
 40
12.0
  0
CIRCLE
  5
95
330
17
100
AcDbEntity
  8
CORTE
100
AcDbCircle
 10
56.11
 20
-18.23
 30
0.0
 40
12.0
  0
CIRCLE
  5
96
330
17
100
AcDbEntity
  8
CORTE
100
AcDbCircle
 10
56.11
 20
18.23
 30
0.0
 40
12.0
  0
CIRCLE
  5
97
330
17
100
AcDbEntity
  8
CORTE
100
AcDbCircle
 10
34.68
 20
47.73
 30
0.0
 40
12.0
  0
TEXT
  5
98
330
17
100
AcDbEntity
  8
NOTAS
100
AcDbText
 10
-82.5
 20
-94.5
 30
0.0
 40
4.0
  1
16 Disco del carrete azul - Al6061-T6 10mm - cantidad 1 - MEDIDAS EN MILIMETROS
 11
-82.5
 21
-94.5
 31
0.0
100
AcDbText
  0
ENDSEC
  0
SECTION
  2
OBJECTS
  0
DICTIONARY
  5
A
330
0
100
AcDbDictionary
281
1
  3
ACAD_COLOR
350
B
  3
ACAD_GROUP
350
C
  3
ACAD_LAYOUT
350
D
  3
ACAD_MATERIAL
350
E
  3
ACAD_MLEADERSTYLE
350
F
  3
ACAD_MLINESTYLE
350
10
  3
ACAD_PLOTSETTINGS
350
11
  3
ACAD_PLOTSTYLENAME
350
12
  3
ACAD_SCALELIST
350
14
  3
ACAD_TABLESTYLE
350
15
  3
ACAD_VISUALSTYLE
350
16
  3
EZDXF_META
350
2D
  0
DICTIONARY
  5
B
330
A
100
AcDbDictionary
281
1
  0
DICTIONARY
  5
C
330
A
100
AcDbDictionary
281
1
  0
DICTIONARY
  5
D
330
A
100
AcDbDictionary
281
1
  3
Model
350
1A
  3
Layout1
350
1E
  0
DICTIONARY
  5
E
330
A
100
AcDbDictionary
281
1
  3
ByBlock
350
1F
  3
ByLayer
350
20
  3
Global
350
21
  0
DICTIONARY
  5
F
330
A
100
AcDbDictionary
281
1
  3
Standard
350
2C
  0
DICTIONARY
  5
10
330
A
100
AcDbDictionary
281
1
  3
Standard
350
22
  0
DICTIONARY
  5
11
330
A
100
AcDbDictionary
281
1
  0
ACDBDICTIONARYWDFLT
  5
12
330
A
100
AcDbDictionary
281
1
  3
Normal
350
13
100
AcDbDictionaryWithDefault
340
13
  0
ACDBPLACEHOLDER
  5
13
330
12
  0
DICTIONARY
  5
14
330
A
100
AcDbDictionary
281
1
  0
DICTIONARY
  5
15
330
A
100
AcDbDictionary
281
1
  0
DICTIONARY
  5
16
330
A
100
AcDbDictionary
281
1
  3
2dWireframe
350
5A
  3
Basic
350
5B
  3
Brighten
350
5C
  3
ColorChange
350
5D
  3
Conceptual
350
5E
  3
Dim
350
5F
  3
EdgeColorOff
350
60
  3
Facepattern
350
61
  3
Flat
350
62
  3
FlatWithEdges
350
63
  3
Gouraud
350
64
  3
GouraudWithEdges
350
65
  3
Hidden
350
66
  3
JitterOff
350
67
  3
Linepattern
350
68
  3
Modeling
350
69
  3
OverhangOff
350
6A
  3
Realistic
350
6B
  3
Shaded
350
6C
  3
Shaded with edges
350
6D
  3
Shades of Gray
350
6E
  3
Sketchy
350
6F
  3
Thicken
350
70
  3
Wireframe
350
71
  3
X-Ray
350
72
  0
LAYOUT
  5
1A
330
D
100
AcDbPlotSettings
  1

  4
A3
  6

 40
7.5
 41
20.0
 42
7.5
 43
20.0
 44
420.0
 45
297.0
 46
0.0
 47
0.0
 48
0.0
 49
0.0
140
0.0
141
0.0
142
1.0
143
1.0
 70
1024
 72
1
 73
0
 74
5
  7

 75
16
 76
0
 77
2
 78
300
147
1.0
148
0.0
149
0.0
100
AcDbLayout
  1
Model
 70
1
 71
0
 10
0.0
 20
0.0
 11
420.0
 21
297.0
 12
0.0
 22
0.0
 32
0.0
 14
1e+20
 24
1e+20
 34
1e+20
 15
-1e+20
 25
-1e+20
 35
-1e+20
146
0.0
 13
0.0
 23
0.0
 33
0.0
 16
1.0
 26
0.0
 36
0.0
 17
0.0
 27
1.0
 37
0.0
 76
1
330
17
  0
LAYOUT
  5
1E
330
D
100
AcDbPlotSettings
  1

  4
A3
  6

 40
7.5
 41
20.0
 42
7.5
 43
20.0
 44
420.0
 45
297.0
 46
0.0
 47
0.0
 48
0.0
 49
0.0
140
0.0
141
0.0
142
1.0
143
1.0
 70
0
 72
1
 73
0
 74
5
  7

 75
16
 76
0
 77
2
 78
300
147
1.0
148
0.0
149
0.0
100
AcDbLayout
  1
Layout1
 70
1
 71
1
 10
0.0
 20
0.0
 11
420.0
 21
297.0
 12
0.0
 22
0.0
 32
0.0
 14
1e+20
 24
1e+20
 34
1e+20
 15
-1e+20
 25
-1e+20
 35
-1e+20
146
0.0
 13
0.0
 23
0.0
 33
0.0
 16
1.0
 26
0.0
 36
0.0
 17
0.0
 27
1.0
 37
0.0
 76
1
330
1B
  0
MATERIAL
  5
1F
102
{ACAD_REACTORS
330
E
102
}
330
E
100
AcDbMaterial
  1
ByBlock
  2

 70
0
 40
1.0
 71
1
 41
1.0
 91
-1023410177
 42
1.0
 72
1
  3

 73
1
 74
1
 75
1
 44
0.5
 73
0
 45
1.0
 46
1.0
 77
1
  4

 78
1
 79
1
170
1
 48
1.0
171
1
  6

172
1
173
1
174
1
140
1.0
141
1.0
175
1
  7

176
1
177
1
178
1
143
1.0
179
1
  8

270
1
271
1
272
1
145
1.0
146
1.0
273
1
  9

274
1
275
1
276
1
 42
1.0
 72
1
  3

 73
1
 74
1
 75
1
 94
63
  0
MATERIAL
  5
20
102
{ACAD_REACTORS
330
E
102
}
330
E
100
AcDbMaterial
  1
ByLayer
  2

 70
0
 40
1.0
 71
1
 41
1.0
 91
-1023410177
 42
1.0
 72
1
  3

 73
1
 74
1
 75
1
 44
0.5
 73
0
 45
1.0
 46
1.0
 77
1
  4

 78
1
 79
1
170
1
 48
1.0
171
1
  6

172
1
173
1
174
1
140
1.0
141
1.0
175
1
  7

176
1
177
1
178
1
143
1.0
179
1
  8

270
1
271
1
272
1
145
1.0
146
1.0
273
1
  9

274
1
275
1
276
1
 42
1.0
 72
1
  3

 73
1
 74
1
 75
1
 94
63
  0
MATERIAL
  5
21
102
{ACAD_REACTORS
330
E
102
}
330
E
100
AcDbMaterial
  1
Global
  2

 70
0
 40
1.0
 71
1
 41
1.0
 91
-1023410177
 42
1.0
 72
1
  3

 73
1
 74
1
 75
1
 44
0.5
 73
0
 45
1.0
 46
1.0
 77
1
  4

 78
1
 79
1
170
1
 48
1.0
171
1
  6

172
1
173
1
174
1
140
1.0
141
1.0
175
1
  7

176
1
177
1
178
1
143
1.0
179
1
  8

270
1
271
1
272
1
145
1.0
146
1.0
273
1
  9

274
1
275
1
276
1
 42
1.0
 72
1
  3

 73
1
 74
1
 75
1
 94
63
  0
MLINESTYLE
  5
22
102
{ACAD_REACTORS
330
10
102
}
330
10
100
AcDbMlineStyle
  2
Standard
 70
0
  3

 62
256
 51
90.0
 52
90.0
 71
2
 49
0.5
 62
256
  6
BYLAYER
 49
-0.5
 62
256
  6
BYLAYER
  0
MLEADERSTYLE
  5
2C
102
{ACAD_REACTORS
330
F
102
}
330
F
100
AcDbMLeaderStyle
179
2
170
2
171
1
172
0
 90
2
 40
0.0
 41
0.0
173
1
 91
-1056964608
 92
-2
290
1
 42
2.0
291
1
 43
8.0
  3
Standard
 44
4.0
300

342
29
174
1
175
1
176
0
178
1
 93
-1056964608
 45
4.0
292
0
297
0
 46
4.0
 94
-1056964608
 47
1.0
 49
1.0
140
1.0
294
1
141
0.0
177
0
142
1.0
295
0
296
0
143
3.75
271
0
272
9
273
9
  0
DICTIONARY
  5
2D
330
A
100
AcDbDictionary
280
1
281
1
  3
CREATED_BY_EZDXF
350
2E
  3
WRITTEN_BY_EZDXF
350
9B
  0
DICTIONARYVAR
  5
2E
330
2D
100
DictionaryVariables
280
0
  1
1.4.4 @ 2026-09-26T04:33:59.299744+00:00
  0
VISUALSTYLE
  5
5A
102
{ACAD_REACTORS
330
16
102
}
330
16
100
AcDbVisualStyle
  2
2dWireframe
 70
4
 90
0
 40
0.6
 62
7
290
0
291
0
  0
VISUALSTYLE
  5
5B
102
{ACAD_REACTORS
330
16
102
}
330
16
100
AcDbVisualStyle
  2
Basic
 70
7
 90
1
 40
0.6
 62
7
290
0
291
1
  0
VISUALSTYLE
  5
5C
102
{ACAD_REACTORS
330
16
102
}
330
16
100
AcDbVisualStyle
  2
Brighten
 70
12
 90
2
 40
0.6
 62
7
290
0
291
1
  0
VISUALSTYLE
  5
5D
102
{ACAD_REACTORS
330
16
102
}
330
16
100
AcDbVisualStyle
  2
ColorChange
 70
16
 90
2
 40
0.6
 62
8
290
0
291
1
  0
VISUALSTYLE
  5
5E
102
{ACAD_REACTORS
330
16
102
}
330
16
100
AcDbVisualStyle
  2
Conceptual
 70
9
 90
3
 40
0.6
 62
7
290
0
291
0
  0
VISUALSTYLE
  5
5F
102
{ACAD_REACTORS
330
16
102
}
330
16
100
AcDbVisualStyle
  2
Dim
 70
11
 90
2
 40
0.6
 62
7
290
0
291
1
  0
VISUALSTYLE
  5
60
102
{ACAD_REACTORS
330
16
102
}
330
16
100
AcDbVisualStyle
  2
EdgeColorOff
 70
22
 90
2
 40
0.6
 62
7
290
0
291
1
  0
VISUALSTYLE
  5
61
102
{ACAD_REACTORS
330
16
102
}
330
16
100
AcDbVisualStyle
  2
Facepattern
 70
15
 90
2
 40
0.6
 62
7
290
0
291
1
  0
VISUALSTYLE
  5
62
102
{ACAD_REACTORS
330
16
102
}
330
16
100
AcDbVisualStyle
  2
Flat
 70
0
 90
2
 40
0.6
 62
7
290
0
291
1
  0
VISUALSTYLE
  5
63
102
{ACAD_REACTORS
330
16
102
}
330
16
100
AcDbVisualStyle
  2
FlatWithEdges
 70
1
 90
2
 40
0.6
 62
7
290
0
291
1
  0
VISUALSTYLE
  5
64
102
{ACAD_REACTORS
330
16
102
}
330
16
100
AcDbVisualStyle
  2
Gouraud
 70
2
 90
2
 40
0.6
 62
7
290
0
291
1
  0
VISUALSTYLE
  5
65
102
{ACAD_REACTORS
330
16
102
}
330
16
100
AcDbVisualStyle
  2
GouraudWithEdges
 70
3
 90
2
 40
0.6
 62
7
290
0
291
1
  0
VISUALSTYLE
  5
66
102
{ACAD_REACTORS
330
16
102
}
330
16
100
AcDbVisualStyle
  2
Hidden
 70
6
 90
1
 40
0.6
 62
7
290
0
291
0
  0
VISUALSTYLE
  5
67
102
{ACAD_REACTORS
330
16
102
}
330
16
100
AcDbVisualStyle
  2
JitterOff
 70
20
 90
2
 40
0.6
 62
7
290
0
291
1
  0
VISUALSTYLE
  5
68
102
{ACAD_REACTORS
330
16
102
}
330
16
100
AcDbVisualStyle
  2
Linepattern
 70
14
 90
2
 40
0.6
 62
7
290
0
291
1
  0
VISUALSTYLE
  5
69
102
{ACAD_REACTORS
330
16
102
}
330
16
100
AcDbVisualStyle
  2
Modeling
 70
10
 90
2
 40
0.6
 62
7
290
0
291
0
  0
VISUALSTYLE
  5
6A
102
{ACAD_REACTORS
330
16
102
}
330
16
100
AcDbVisualStyle
  2
OverhangOff
 70
21
 90
2
 40
0.6
 62
7
290
0
291
1
  0
VISUALSTYLE
  5
6B
102
{ACAD_REACTORS
330
16
102
}
330
16
100
AcDbVisualStyle
  2
Realistic
 70
8
 90
2
 40
0.6
 62
7
290
0
291
0
  0
VISUALSTYLE
  5
6C
102
{ACAD_REACTORS
330
16
102
}
330
16
100
AcDbVisualStyle
  2
Shaded
 70
27
 90
2
 40
0.6
 62
7
290
0
291
0
  0
VISUALSTYLE
  5
6D
102
{ACAD_REACTORS
330
16
102
}
330
16
100
AcDbVisualStyle
  2
Shaded with edges
 70
26
 90
2
 40
0.6
 62
7
290
0
291
0
  0
VISUALSTYLE
  5
6E
102
{ACAD_REACTORS
330
16
102
}
330
16
100
AcDbVisualStyle
  2
Shades of Gray
 70
23
 90
2
 40
0.6
 62
7
290
0
291
0
  0
VISUALSTYLE
  5
6F
102
{ACAD_REACTORS
330
16
102
}
330
16
100
AcDbVisualStyle
  2
Sketchy
 70
24
 90
1
 40
0.6
 62
7
290
0
291
0
  0
VISUALSTYLE
  5
70
102
{ACAD_REACTORS
330
16
102
}
330
16
100
AcDbVisualStyle
  2
Thicken
 70
13
 90
2
 40
0.6
 62
7
290
0
291
1
  0
VISUALSTYLE
  5
71
102
{ACAD_REACTORS
330
16
102
}
330
16
100
AcDbVisualStyle
  2
Wireframe
 70
5
 90
0
 40
0.6
 62
7
290
0
291
0
  0
VISUALSTYLE
  5
72
102
{ACAD_REACTORS
330
16
102
}
330
16
100
AcDbVisualStyle
  2
X-Ray
 70
25
 90
2
 40
0.5
 62
7
290
0
291
0
  0
DICTIONARYVAR
  5
9B
330
2D
100
DictionaryVariables
280
0
  1
1.4.4 @ 2026-09-26T04:33:59.308035+00:00
  0
ENDSEC
  0
EOF
