  0
SECTION
  2
HEADER
  9
$ACADVER
  1
AC1024
  9
$ACADMAINTVER
 70
6
  9
$DWGCODEPAGE
  3
ANSI_1252
  9
$LASTSAVEDBY
  1
ezdxf
  9
$INSBASE
 10
0.0
 20
0.0
 30
0.0
  9
$EXTMIN
 10
1e+20
 20
1e+20
 30
1e+20
  9
$EXTMAX
 10
-1e+20
 20
-1e+20
 30
-1e+20
  9
$LIMMIN
 10
0.0
 20
0.0
  9
$LIMMAX
 10
420.0
 20
297.0
  9
$ORTHOMODE
 70
0
  9
$REGENMODE
 70
1
  9
$FILLMODE
 70
1
  9
$QTEXTMODE
 70
0
  9
$MIRRTEXT
 70
1
  9
$LTSCALE
 40
1.0
  9
$ATTMODE
 70
1
  9
$TEXTSIZE
 40
2.5
  9
$TRACEWID
 40
1.0
  9
$TEXTSTYLE
  7
OpenSans
  9
$CLAYER
  8
0
  9
$CELTYPE
  6
ByLayer
  9
$CECOLOR
 62
256
  9
$CELTSCALE
 40
1.0
  9
$DISPSILH
 70
0
  9
$DIMSCALE
 40
1.0
  9
$DIMASZ
 40
0.175
  9
$DIMEXO
 40
0.125
  9
$DIMDLI
 40
3.75
  9
$DIMRND
 40
0.0
  9
$DIMDLE
 40
0.0
  9
$DIMEXE
 40
0.375
  9
$DIMTP
 40
0.0
  9
$DIMTM
 40
0.0
  9
$DIMTXT
 40
0.25
  9
$DIMCEN
 40
2.5
  9
$DIMTSZ
 40
0.0
  9
$DIMTOL
 70
0
  9
$DIMLIM
 70
0
  9
$DIMTIH
 70
0
  9
$DIMTOH
 70
0
  9
$DIMSE1
 70
0
  9
$DIMSE2
 70
0
  9
$DIMTAD
 70
1
  9
$DIMZIN
 70
12
  9
$DIMBLK
  1
ARCHTICK
  9
$DIMASO
 70
1
  9
$DIMSHO
 70
1
  9
$DIMPOST
  1

  9
$DIMAPOST
  1

  9
$DIMALT
 70
0
  9
$DIMALTD
 70
3
  9
$DIMALTF
 40
0.03937007874
  9
$DIMLFAC
 40
100.0
  9
$DIMTOFL
 70
1
  9
$DIMTVP
 40
0.0
  9
$DIMTIX
 70
0
  9
$DIMSOXD
 70
0
  9
$DIMSAH
 70
0
  9
$DIMBLK1
  1

  9
$DIMBLK2
  1

  9
$DIMSTYLE
  2
EZDXF
  9
$DIMCLRD
 70
0
  9
$DIMCLRE
 70
0
  9
$DIMCLRT
 70
0
  9
$DIMTFAC
 40
0.5
  9
$DIMGAP
 40
0.1
  9
$DIMJUST
 70
0
  9
$DIMSD1
 70
0
  9
$DIMSD2
 70
0
  9
$DIMTOLJ
 70
0
  9
$DIMTZIN
 70
8
  9
$DIMALTZ
 70
0
  9
$DIMALTTZ
 70
0
  9
$DIMUPT
 70
1
  9
$DIMDEC
 70
2
  9
$DIMTDEC
 70
2
  9
$DIMALTU
 70
2
  9
$DIMALTTD
 70
3
  9
$DIMTXSTY
  7
OpenSansCondensed-Light
  9
$DIMAUNIT
 70
0
  9
$DIMADEC
 70
2
  9
$DIMALTRND
 40
0.0
  9
$DIMAZIN
 70
3
  9
$DIMDSEP
 70
46
  9
$DIMATFIT
 70
3
  9
$DIMFRAC
 70
0
  9
$DIMLDRBLK
  1

  9
$DIMLUNIT
 70
2
  9
$DIMLWD
 70
-2
  9
$DIMLWE
 70
-2
  9
$DIMTMOVE
 70
2
  9
$DIMFXL
 40
1.0
  9
$DIMFXLON
 70
0
  9
$DIMJOGANG
 40
0.785398163397
  9
$DIMTFILL
 70
0
  9
$DIMTFILLCLR
 70
0
  9
$DIMARCSYM
 70
0
  9
$DIMLTYPE
  6

  9
$DIMLTEX1
  6

  9
$DIMLTEX2
  6

  9
$DIMTXTDIRECTION
 70
0
  9
$LUNITS
 70
2
  9
$LUPREC
 70
4
  9
$SKETCHINC
 40
1.0
  9
$FILLETRAD
 40
10.0
  9
$AUNITS
 70
0
  9
$AUPREC
 70
2
  9
$MENU
  1
.
  9
$ELEVATION
 40
0.0
  9
$PELEVATION
 40
0.0
  9
$THICKNESS
 40
0.0
  9
$LIMCHECK
 70
0
  9
$CHAMFERA
 40
0.0
  9
$CHAMFERB
 40
0.0
  9
$CHAMFERC
 40
0.0
  9
$CHAMFERD
 40
0.0
  9
$SKPOLY
 70
0
  9
$TDCREATE
 40
2461310.1902662036
  9
$TDUCREATE
 40
2458532.153996898
  9
$TDUPDATE
 40
2461310.1902662036
  9
$TDUUPDATE
 40
2458532.1544311
  9
$TDINDWG
 40
0.0
  9
$TDUSRTIMER
 40
0.0
  9
$USRTIMER
 70
1
  9
$ANGBASE
 50
0.0
  9
$ANGDIR
 70
0
  9
$PDMODE
 70
0
  9
$PDSIZE
 40
0.0
  9
$PLINEWID
 40
0.0
  9
$SPLFRAME
 70
0
  9
$SPLINETYPE
 70
6
  9
$SPLINESEGS
 70
8
  9
$HANDSEED
  5
98
  9
$SURFTAB1
 70
6
  9
$SURFTAB2
 70
6
  9
$SURFTYPE
 70
6
  9
$SURFU
 70
6
  9
$SURFV
 70
6
  9
$UCSBASE
  2

  9
$UCSNAME
  2

  9
$UCSORG
 10
0.0
 20
0.0
 30
0.0
  9
$UCSXDIR
 10
1.0
 20
0.0
 30
0.0
  9
$UCSYDIR
 10
0.0
 20
1.0
 30
0.0
  9
$UCSORTHOREF
  2

  9
$UCSORTHOVIEW
 70
0
  9
$UCSORGTOP
 10
0.0
 20
0.0
 30
0.0
  9
$UCSORGBOTTOM
 10
0.0
 20
0.0
 30
0.0
  9
$UCSORGLEFT
 10
0.0
 20
0.0
 30
0.0
  9
$UCSORGRIGHT
 10
0.0
 20
0.0
 30
0.0
  9
$UCSORGFRONT
 10
0.0
 20
0.0
 30
0.0
  9
$UCSORGBACK
 10
0.0
 20
0.0
 30
0.0
  9
$PUCSBASE
  2

  9
$PUCSNAME
  2

  9
$PUCSORG
 10
0.0
 20
0.0
 30
0.0
  9
$PUCSXDIR
 10
1.0
 20
0.0
 30
0.0
  9
$PUCSYDIR
 10
0.0
 20
1.0
 30
0.0
  9
$PUCSORTHOREF
  2

  9
$PUCSORTHOVIEW
 70
0
  9
$PUCSORGTOP
 10
0.0
 20
0.0
 30
0.0
  9
$PUCSORGBOTTOM
 10
0.0
 20
0.0
 30
0.0
  9
$PUCSORGLEFT
 10
0.0
 20
0.0
 30
0.0
  9
$PUCSORGRIGHT
 10
0.0
 20
0.0
 30
0.0
  9
$PUCSORGFRONT
 10
0.0
 20
0.0
 30
0.0
  9
$PUCSORGBACK
 10
0.0
 20
0.0
 30
0.0
  9
$USERI1
 70
0
  9
$USERI2
 70
0
  9
$USERI3
 70
0
  9
$USERI4
 70
0
  9
$USERI5
 70
0
  9
$USERR1
 40
0.0
  9
$USERR2
 40
0.0
  9
$USERR3
 40
0.0
  9
$USERR4
 40
0.0
  9
$USERR5
 40
0.0
  9
$WORLDVIEW
 70
1
  9
$SHADEDGE
 70
3
  9
$SHADEDIF
 70
70
  9
$TILEMODE
 70
1
  9
$MAXACTVP
 70
64
  9
$PINSBASE
 10
0.0
 20
0.0
 30
0.0
  9
$PLIMCHECK
 70
0
  9
$PEXTMIN
 10
1e+20
 20
1e+20
 30
1e+20
  9
$PEXTMAX
 10
-1e+20
 20
-1e+20
 30
-1e+20
  9
$PLIMMIN
 10
0.0
 20
0.0
  9
$PLIMMAX
 10
420.0
 20
297.0
  9
$UNITMODE
 70
0
  9
$VISRETAIN
 70
1
  9
$PLINEGEN
 70
0
  9
$PSLTSCALE
 70
1
  9
$TREEDEPTH
 70
3020
  9
$CMLSTYLE
  2
Standard
  9
$CMLJUST
 70
0
  9
$CMLSCALE
 40
20.0
  9
$PROXYGRAPHICS
 70
1
  9
$MEASUREMENT
 70
1
  9
$CELWEIGHT
370
-1
  9
$ENDCAPS
280
0
  9
$JOINSTYLE
280
0
  9
$LWDISPLAY
290
0
  9
$INSUNITS
 70
4
  9
$HYPERLINKBASE
  1

  9
$STYLESHEET
  1

  9
$XEDIT
290
1
  9
$CEPSNTYPE
380
0
  9
$PSTYLEMODE
290
1
  9
$FINGERPRINTGUID
  2
{FDBD8FB6-C6FE-477B-9A67-27E3827BE3FE}
  9
$VERSIONGUID
  2
{B95FE312-56FC-4BB5-A7CA-76785F713DEB}
  9
$EXTNAMES
290
1
  9
$PSVPSCALE
 40
0.0
  9
$OLESTARTUP
290
0
  9
$SORTENTS
280
127
  9
$INDEXCTL
280
0
  9
$HIDETEXT
280
1
  9
$XCLIPFRAME
280
1
  9
$HALOGAP
280
0
  9
$OBSCOLOR
 70
257
  9
$OBSLTYPE
280
0
  9
$INTERSECTIONDISPLAY
280
0
  9
$INTERSECTIONCOLOR
 70
257
  9
$DIMASSOC
280
2
  9
$PROJECTNAME
  1

  9
$CAMERADISPLAY
290
0
  9
$LENSLENGTH
 40
50.0
  9
$CAMERAHEIGHT
 40
0.0
  9
$STEPSPERSEC
 40
24.0
  9
$STEPSIZE
 40
100.0
  9
$3DDWFPREC
 40
2.0
  9
$PSOLWIDTH
 40
0.005
  9
$PSOLHEIGHT
 40
0.08
  9
$LOFTANG1
 40
1.570796326795
  9
$LOFTANG2
 40
1.570796326795
  9
$LOFTMAG1
 40
0.0
  9
$LOFTMAG2
 40
0.0
  9
$LOFTPARAM
 70
7
  9
$LOFTNORMALS
280
1
  9
$LATITUDE
 40
37.795
  9
$LONGITUDE
 40
-122.394
  9
$NORTHDIRECTION
 40
0.0
  9
$TIMEZONE
 70
-8000
  9
$LIGHTGLYPHDISPLAY
280
1
  9
$TILEMODELIGHTSYNCH
280
1
  9
$CMATERIAL
347
20
  9
$SOLIDHIST
280
0
  9
$SHOWHIST
280
1
  9
$DWFFRAME
280
2
  9
$DGNFRAME
280
2
  9
$REALWORLDSCALE
290
1
  9
$INTERFERECOLOR
 62
256
  9
$CSHADOW
280
0
  9
$SHADOWPLANELOCATION
 40
0.0
  0
ENDSEC
  0
SECTION
  2
CLASSES
  0
CLASS
  1
ACDBDICTIONARYWDFLT
  2
AcDbDictionaryWithDefault
  3
ObjectDBX Classes
 90
0
 91
0
280
0
281
0
  0
CLASS
  1
SUN
  2
AcDbSun
  3
SCENEOE
 90
1153
 91
0
280
0
281
0
  0
CLASS
  1
VISUALSTYLE
  2
AcDbVisualStyle
  3
ObjectDBX Classes
 90
4095
 91
0
280
0
281
0
  0
CLASS
  1
MATERIAL
  2
AcDbMaterial
  3
ObjectDBX Classes
 90
1153
 91
0
280
0
281
0
  0
CLASS
  1
SCALE
  2
AcDbScale
  3
ObjectDBX Classes
 90
1153
 91
0
280
0
281
0
  0
CLASS
  1
TABLESTYLE
  2
AcDbTableStyle
  3
ObjectDBX Classes
 90
4095
 91
0
280
0
281
0
  0
CLASS
  1
MLEADERSTYLE
  2
AcDbMLeaderStyle
  3
ACDB_MLEADERSTYLE_CLASS
 90
4095
 91
0
280
0
281
0
  0
CLASS
  1
DICTIONARYVAR
  2
AcDbDictionaryVar
  3
ObjectDBX Classes
 90
0
 91
0
280
0
281
0
  0
CLASS
  1
CELLSTYLEMAP
  2
AcDbCellStyleMap
  3
ObjectDBX Classes
 90
1152
 91
0
280
0
281
0
  0
CLASS
  1
MENTALRAYRENDERSETTINGS
  2
AcDbMentalRayRenderSettings
  3
SCENEOE
 90
1024
 91
0
280
0
281
0
  0
CLASS
  1
ACDBDETAILVIEWSTYLE
  2
AcDbDetailViewStyle
  3
ObjectDBX Classes
 90
1025
 91
0
280
0
281
0
  0
CLASS
  1
ACDBSECTIONVIEWSTYLE
  2
AcDbSectionViewStyle
  3
ObjectDBX Classes
 90
1025
 91
0
280
0
281
0
  0
CLASS
  1
RASTERVARIABLES
  2
AcDbRasterVariables
  3
ISM
 90
0
 91
0
280
0
281
0
  0
CLASS
  1
LAYOUT
  2
AcDbLayout
  3
ObjectDBX Classes
 90
0
 91
0
280
0
281
0
  0
CLASS
  1
ACDBPLACEHOLDER
  2
AcDbPlaceHolder
  3
ObjectDBX Classes
 90
0
 91
0
280
0
281
0
  0
ENDSEC
  0
SECTION
  2
TABLES
  0
TABLE
  2
VPORT
  5
8
330
0
100
AcDbSymbolTable
 70
1
  0
VPORT
  5
23
330
8
100
AcDbSymbolTableRecord
100
AcDbViewportTableRecord
  2
*Active
 70
0
 10
0.0
 20
0.0
 11
1.0
 21
1.0
 12
0.0
 22
0.0
 13
0.0
 23
0.0
 14
0.5
 24
0.5
 15
0.5
 25
0.5
 16
0.0
 26
0.0
 36
1.0
 17
0.0
 27
0.0
 37
0.0
 40
1000.0
 41
1.34
 42
50.0
 43
0.0
 44
0.0
 50
0.0
 51
0.0
 71
0
 72
1000
 73
1
 74
3
 75
0
 76
0
 77
0
 78
0
281
0
 65
0
146
0.0
  0
ENDTAB
  0
TABLE
  2
LTYPE
  5
2
330
0
100
AcDbSymbolTable
 70
21
  0
LTYPE
  5
24
330
2
100
AcDbSymbolTableRecord
100
AcDbLinetypeTableRecord
  2
ByBlock
 70
0
  3

 72
65
 73
0
 40
0.0
  0
LTYPE
  5
25
330
2
100
AcDbSymbolTableRecord
100
AcDbLinetypeTableRecord
  2
ByLayer
 70
0
  3

 72
65
 73
0
 40
0.0
  0
LTYPE
  5
26
330
2
100
AcDbSymbolTableRecord
100
AcDbLinetypeTableRecord
  2
Continuous
 70
0
  3

 72
65
 73
0
 40
0.0
  0
LTYPE
  5
2F
330
2
100
AcDbSymbolTableRecord
100
AcDbLinetypeTableRecord
  2
CENTER
 70
0
  3
Center ____ _ ____ _ ____ _ ____ _ ____ _ ____
 72
65
 73
4
 40
5.08
 49
3.175
 74
0
 49
-0.635
 74
0
 49
0.635
 74
0
 49
-0.635
 74
0
  0
LTYPE
  5
30
330
2
100
AcDbSymbolTableRecord
100
AcDbLinetypeTableRecord
  2
CENTERX2
 70
0
  3
Center (2x) ________  __  ________  __  ________
 72
65
 73
4
 40
8.89
 49
6.35
 74
0
 49
-0.635
 74
0
 49
1.27
 74
0
 49
-0.635
 74
0
  0
LTYPE
  5
31
330
2
100
AcDbSymbolTableRecord
100
AcDbLinetypeTableRecord
  2
CENTER2
 70
0
  3
Center (.5x) ____ _ ____ _ ____ _ ____ _ ____
 72
65
 73
4
 40
2.54
 49
1.587
 74
0
 49
-0.318
 74
0
 49
0.318
 74
0
 49
-0.318
 74
0
  0
LTYPE
  5
32
330
2
100
AcDbSymbolTableRecord
100
AcDbLinetypeTableRecord
  2
DASHED
 70
0
  3
Dashed __ __ __ __ __ __ __ __ __ __ __ __ __ _
 72
65
 73
2
 40
1.524
 49
1.27
 74
0
 49
-0.254
 74
0
  0
LTYPE
  5
33
330
2
100
AcDbSymbolTableRecord
100
AcDbLinetypeTableRecord
  2
DASHEDX2
 70
0
  3
Dashed (2x) ____  ____  ____  ____  ____  ____
 72
65
 73
2
 40
3.048
 49
2.54
 74
0
 49
-0.508
 74
0
  0
LTYPE
  5
34
330
2
100
AcDbSymbolTableRecord
100
AcDbLinetypeTableRecord
  2
DASHED2
 70
0
  3
Dashed (.5x) _ _ _ _ _ _ _ _ _ _ _ _ _ _
 72
65
 73
2
 40
0.762
 49
0.635
 74
0
 49
-0.127
 74
0
  0
LTYPE
  5
35
330
2
100
AcDbSymbolTableRecord
100
AcDbLinetypeTableRecord
  2
PHANTOM
 70
0
  3
Phantom ______  __  __  ______  __  __  ______
 72
65
 73
6
 40
6.35
 49
3.175
 74
0
 49
-0.635
 74
0
 49
0.635
 74
0
 49
-0.635
 74
0
 49
0.635
 74
0
 49
-0.635
 74
0
  0
LTYPE
  5
36
330
2
100
AcDbSymbolTableRecord
100
AcDbLinetypeTableRecord
  2
PHANTOMX2
 70
0
  3
Phantom (2x)____________    ____    ____    ____________
 72
65
 73
6
 40
10.795
 49
6.35
 74
0
 49
-0.635
 74
0
 49
1.27
 74
0
 49
-0.635
 74
0
 49
1.27
 74
0
 49
-0.635
 74
0
  0
LTYPE
  5
37
330
2
100
AcDbSymbolTableRecord
100
AcDbLinetypeTableRecord
  2
PHANTOM2
 70
0
  3
Phantom (.5x) ___ _ _ ___ _ _ ___ _ _ ___ _ _ ___
 72
65
 73
6
 40
3.175
 49
1.587
 74
0
 49
-0.318
 74
0
 49
0.318
 74
0
 49
-0.318
 74
0
 49
0.318
 74
0
 49
-0.318
 74
0
  0
LTYPE
  5
38
330
2
100
AcDbSymbolTableRecord
100
AcDbLinetypeTableRecord
  2
DASHDOT
 70
0
  3
Dash dot __ . __ . __ . __ . __ . __ . __ . __
 72
65
 73
4
 40
3.556
 49
2.54
 74
0
 49
-0.508
 74
0
 49
0.0
 74
0
 49
-0.508
 74
0
  0
LTYPE
  5
39
330
2
100
AcDbSymbolTableRecord
100
AcDbLinetypeTableRecord
  2
DASHDOTX2
 70
0
  3
Dash dot (2x) ____  .  ____  .  ____  .  ____
 72
65
 73
4
 40
6.096
 49
5.08
 74
0
 49
-0.508
 74
0
 49
0.0
 74
0
 49
-0.508
 74
0
  0
LTYPE
  5
3A
330
2
100
AcDbSymbolTableRecord
100
AcDbLinetypeTableRecord
  2
DASHDOT2
 70
0
  3
Dash dot (.5x) _ . _ . _ . _ . _ . _ . _ . _
 72
65
 73
4
 40
1.778
 49
1.27
 74
0
 49
-0.254
 74
0
 49
0.0
 74
0
 49
-0.254
 74
0
  0
LTYPE
  5
3B
330
2
100
AcDbSymbolTableRecord
100
AcDbLinetypeTableRecord
  2
DOT
 70
0
  3
Dot .  .  .  .  .  .  .  .  .  .  .  .  .  .  .  .
 72
65
 73
2
 40
0.508
 49
0.0
 74
0
 49
-0.508
 74
0
  0
LTYPE
  5
3C
330
2
100
AcDbSymbolTableRecord
100
AcDbLinetypeTableRecord
  2
DOTX2
 70
0
  3
Dot (2x) .    .    .    .    .    .    .    . 
 72
65
 73
2
 40
1.016
 49
0.0
 74
0
 49
-1.016
 74
0
  0
LTYPE
  5
3D
330
2
100
AcDbSymbolTableRecord
100
AcDbLinetypeTableRecord
  2
DOT2
 70
0
  3
Dot (.5) . . . . . . . . . . . . . . . . . . . 
 72
65
 73
2
 40
0.254
 49
0.0
 74
0
 49
-0.254
 74
0
  0
LTYPE
  5
3E
330
2
100
AcDbSymbolTableRecord
100
AcDbLinetypeTableRecord
  2
DIVIDE
 70
0
  3
Divide __ . . __ . . __ . . __ . . __ . . __
 72
65
 73
6
 40
4.064
 49
2.54
 74
0
 49
-0.508
 74
0
 49
0.0
 74
0
 49
-0.508
 74
0
 49
0.0
 74
0
 49
-0.508
 74
0
  0
LTYPE
  5
3F
330
2
100
AcDbSymbolTableRecord
100
AcDbLinetypeTableRecord
  2
DIVIDEX2
 70
0
  3
Divide (2x) ____  . .  ____  . .  ____  . .  ____
 72
65
 73
6
 40
6.604
 49
5.08
 74
0
 49
-0.508
 74
0
 49
0.0
 74
0
 49
-0.508
 74
0
 49
0.0
 74
0
 49
-0.508
 74
0
  0
LTYPE
  5
40
330
2
100
AcDbSymbolTableRecord
100
AcDbLinetypeTableRecord
  2
DIVIDE2
 70
0
  3
Divide(.5x) _ . _ . _ . _ . _ . _ . _ . _
 72
65
 73
6
 40
2.032
 49
1.27
 74
0
 49
-0.254
 74
0
 49
0.0
 74
0
 49
-0.254
 74
0
 49
0.0
 74
0
 49
-0.254
 74
0
  0
ENDTAB
  0
TABLE
  2
LAYER
  5
1
330
0
100
AcDbSymbolTable
 70
4
  0
LAYER
  5
27
330
1
100
AcDbSymbolTableRecord
100
AcDbLayerTableRecord
  2
0
 70
0
 62
7
  6
Continuous
370
-3
390
13
347
21
  0
LAYER
  5
28
330
1
100
AcDbSymbolTableRecord
100
AcDbLayerTableRecord
  2
Defpoints
 70
0
 62
7
  6
Continuous
290
0
370
-3
390
13
347
21
  0
LAYER
  5
8A
330
1
100
AcDbSymbolTableRecord
100
AcDbLayerTableRecord
  2
CORTE
 70
0
 62
1
  6
Continuous
370
-3
390
13
347
21
  0
LAYER
  5
8B
330
1
100
AcDbSymbolTableRecord
100
AcDbLayerTableRecord
  2
NOTAS
 70
0
 62
3
  6
Continuous
370
-3
390
13
347
21
  0
ENDTAB
  0
TABLE
  2
STYLE
  5
5
330
0
100
AcDbSymbolTable
 70
26
  0
STYLE
  5
29
330
5
100
AcDbSymbolTableRecord
100
AcDbTextStyleTableRecord
  2
Standard
 70
0
 40
0.0
 41
1.0
 50
0.0
 71
0
 42
2.5
  3
txt
  4

  0
STYLE
  5
41
330
5
100
AcDbSymbolTableRecord
100
AcDbTextStyleTableRecord
  2
OpenSans-Light
 70
0
 40
0.0
 41
1.0
 50
0.0
 71
0
 42
2.5
  3
OpenSans-Light.ttf
  4

  0
STYLE
  5
42
330
5
100
AcDbSymbolTableRecord
100
AcDbTextStyleTableRecord
  2
OpenSans-Light-Italic
 70
0
 40
0.0
 41
1.0
 50
0.0
 71
0
 42
2.5
  3
OpenSans-LightItalic.ttf
  4

  0
STYLE
  5
43
330
5
100
AcDbSymbolTableRecord
100
AcDbTextStyleTableRecord
  2
OpenSans
 70
0
 40
0.0
 41
1.0
 50
0.0
 71
0
 42
2.5
  3
OpenSans-Regular.ttf
  4

  0
STYLE
  5
44
330
5
100
AcDbSymbolTableRecord
100
AcDbTextStyleTableRecord
  2
OpenSans-Italic
 70
0
 40
0.0
 41
1.0
 50
0.0
 71
0
 42
2.5
  3
OpenSans-Italic.ttf
  4

  0
STYLE
  5
45
330
5
100
AcDbSymbolTableRecord
100
AcDbTextStyleTableRecord
  2
OpenSans-SemiBold
 70
0
 40
0.0
 41
1.0
 50
0.0
 71
0
 42
2.5
  3
OpenSans-SemiBold.ttf
  4

  0
STYLE
  5
46
330
5
100
AcDbSymbolTableRecord
100
AcDbTextStyleTableRecord
  2
OpenSans-SemiBoldItalic
 70
0
 40
0.0
 41
1.0
 50
0.0
 71
0
 42
2.5
  3
OpenSans-SemiBoldItalic.ttf
  4

  0
STYLE
  5
47
330
5
100
AcDbSymbolTableRecord
100
AcDbTextStyleTableRecord
  2
OpenSans-Bold
 70
0
 40
0.0
 41
1.0
 50
0.0
 71
0
 42
2.5
  3
OpenSans-Bold.ttf
  4

  0
STYLE
  5
48
330
5
100
AcDbSymbolTableRecord
100
AcDbTextStyleTableRecord
  2
OpenSans-BoldItalic
 70
0
 40
0.0
 41
1.0
 50
0.0
 71
0
 42
2.5
  3
OpenSans-BoldItalic.ttf
  4

  0
STYLE
  5
49
330
5
100
AcDbSymbolTableRecord
100
AcDbTextStyleTableRecord
  2
OpenSans-ExtraBold
 70
0
 40
0.0
 41
1.0
 50
0.0
 71
0
 42
2.5
  3
OpenSans-ExtraBold.ttf
  4

  0
STYLE
  5
4A
330
5
100
AcDbSymbolTableRecord
100
AcDbTextStyleTableRecord
  2
OpenSans-ExtraBoldItalic
 70
0
 40
0.0
 41
1.0
 50
0.0
 71
0
 42
2.5
  3
OpenSans-ExtraBoldItalic.ttf
  4

  0
STYLE
  5
4B
330
5
100
AcDbSymbolTableRecord
100
AcDbTextStyleTableRecord
  2
OpenSansCondensed-Bold
 70
0
 40
0.0
 41
1.0
 50
0.0
 71
0
 42
2.5
  3
OpenSansCondensed-Bold.ttf
  4

  0
STYLE
  5
4C
330
5
100
AcDbSymbolTableRecord
100
AcDbTextStyleTableRecord
  2
OpenSansCondensed-Light
 70
0
 40
0.0
 41
1.0
 50
0.0
 71
0
 42
2.5
  3
OpenSansCondensed-Light.ttf
  4

  0
STYLE
  5
4D
330
5
100
AcDbSymbolTableRecord
100
AcDbTextStyleTableRecord
  2
OpenSansCondensed-Italic
 70
0
 40
0.0
 41
1.0
 50
0.0
 71
0
 42
2.5
  3
OpenSansCondensed-LightItalic.ttf
  4

  0
STYLE
  5
4E
330
5
100
AcDbSymbolTableRecord
100
AcDbTextStyleTableRecord
  2
LiberationSans
 70
0
 40
0.0
 41
1.0
 50
0.0
 71
0
 42
2.5
  3
LiberationSans-Regular.ttf
  4

  0
STYLE
  5
4F
330
5
100
AcDbSymbolTableRecord
100
AcDbTextStyleTableRecord
  2
LiberationSans-Bold
 70
0
 40
0.0
 41
1.0
 50
0.0
 71
0
 42
2.5
  3
LiberationSans-Bold.ttf
  4

  0
STYLE
  5
50
330
5
100
AcDbSymbolTableRecord
100
AcDbTextStyleTableRecord
  2
LiberationSans-BoldItalic
 70
0
 40
0.0
 41
1.0
 50
0.0
 71
0
 42
2.5
  3
LiberationSans-BoldItalic.ttf
  4

  0
STYLE
  5
51
330
5
100
AcDbSymbolTableRecord
100
AcDbTextStyleTableRecord
  2
LiberationSans-Italic
 70
0
 40
0.0
 41
1.0
 50
0.0
 71
0
 42
2.5
  3
LiberationSans-Italic.ttf
  4

  0
STYLE
  5
52
330
5
100
AcDbSymbolTableRecord
100
AcDbTextStyleTableRecord
  2
LiberationSerif
 70
0
 40
0.0
 41
1.0
 50
0.0
 71
0
 42
2.5
  3
LiberationSerif-Regular.ttf
  4

  0
STYLE
  5
53
330
5
100
AcDbSymbolTableRecord
100
AcDbTextStyleTableRecord
  2
LiberationSerif-Bold
 70
0
 40
0.0
 41
1.0
 50
0.0
 71
0
 42
2.5
  3
LiberationSerif-Bold.ttf
  4

  0
STYLE
  5
54
330
5
100
AcDbSymbolTableRecord
100
AcDbTextStyleTableRecord
  2
LiberationSerif-BoldItalic
 70
0
 40
0.0
 41
1.0
 50
0.0
 71
0
 42
2.5
  3
LiberationSerif-BoldItalic.ttf
  4

  0
STYLE
  5
55
330
5
100
AcDbSymbolTableRecord
100
AcDbTextStyleTableRecord
  2
LiberationSerif-Italic
 70
0
 40
0.0
 41
1.0
 50
0.0
 71
0
 42
2.5
  3
LiberationSerif-Italic.ttf
  4

  0
STYLE
  5
56
330
5
100
AcDbSymbolTableRecord
100
AcDbTextStyleTableRecord
  2
LiberationMono
 70
0
 40
0.0
 41
1.0
 50
0.0
 71
0
 42
2.5
  3
LiberationMono-Regular.ttf
  4

  0
STYLE
  5
57
330
5
100
AcDbSymbolTableRecord
100
AcDbTextStyleTableRecord
  2
LiberationMono-Bold
 70
0
 40
0.0
 41
1.0
 50
0.0
 71
0
 42
2.5
  3
LiberationMono-Bold.ttf
  4

  0
STYLE
  5
58
330
5
100
AcDbSymbolTableRecord
100
AcDbTextStyleTableRecord
  2
LiberationMono-BoldItalic
 70
0
 40
0.0
 41
1.0
 50
0.0
 71
0
 42
2.5
  3
LiberationMono-BoldItalic.ttf
  4

  0
STYLE
  5
59
330
5
100
AcDbSymbolTableRecord
100
AcDbTextStyleTableRecord
  2
LiberationMono-Italic
 70
0
 40
0.0
 41
1.0
 50
0.0
 71
0
 42
2.5
  3
LiberationMono-Italic.ttf
  4

  0
ENDTAB
  0
TABLE
  2
VIEW
  5
7
330
0
100
AcDbSymbolTable
 70
0
  0
ENDTAB
  0
TABLE
  2
UCS
  5
6
330
0
100
AcDbSymbolTable
 70
0
  0
ENDTAB
  0
TABLE
  2
APPID
  5
3
330
0
100
AcDbSymbolTable
 70
3
  0
APPID
  5
2A
330
3
100
AcDbSymbolTableRecord
100
AcDbRegAppTableRecord
  2
ACAD
 70
0
  0
APPID
  5
95
330
3
100
AcDbSymbolTableRecord
100
AcDbRegAppTableRecord
  2
HATCHBACKGROUNDCOLOR
 70
0
  0
APPID
  5
96
330
3
100
AcDbSymbolTableRecord
100
AcDbRegAppTableRecord
  2
EZDXF
 70
0
  0
ENDTAB
  0
TABLE
  2
DIMSTYLE
  5
4
330
0
100
AcDbSymbolTable
 70
12
100
AcDbDimStyleTable
  0
DIMSTYLE
105
2B
330
4
100
AcDbSymbolTableRecord
100
AcDbDimStyleTableRecord
  2
Standard
 70
0
 40
1.0
 41
2.5
 42
0.625
 43
3.75
 44
1.25
 45
0.0
 46
0.0
 47
0.0
 48
0.0
 49
2.5
140
2.5
141
2.5
142
0.0
143
0.03937007874
144
1.0
145
0.0
146
1.0
147
0.625
148
0.0
 69
0
 70
0
 71
0
 72
0
 73
0
 74
0
 75
0
 76
0
 77
1
 78
8
 79
3
170
0
171
3
172
1
173
0
174
0
175
0
176
0
177
0
178
0
179
2
271
2
272
2
273
2
274
3
275
0
276
0
277
2
278
44
279
0
280
0
281
0
282
0
283
0
284
8
285
0
286
0
288
0
289
3
290
0
371
-2
372
-2
  0
DIMSTYLE
105
73
330
4
100
AcDbSymbolTableRecord
100
AcDbDimStyleTableRecord
  2
EZDXF
 70
0
 40
1.0
 41
0.175
 42
0.125
 43
3.75
 44
0.375
 45
0.0
 46
0.0
 47
0.0
 48
0.0
 49
2.5
140
0.25
141
2.5
142
0.0
143
0.03937007874
144
100.0
145
0.0
146
0.5
147
0.1
148
0.0
 69
0
 70
0
 71
0
 72
0
 73
0
 74
0
 75
0
 76
0
 77
1
 78
12
 79
3
170
0
171
3
172
1
173
0
174
0
175
0
176
0
177
0
178
0
179
2
271
2
272
2
273
2
274
3
275
0
276
0
277
2
278
46
279
2
280
0
281
0
282
0
283
0
284
8
285
0
286
0
288
1
289
3
290
0
340
4C
342
74
371
-2
372
-2
  0
DIMSTYLE
105
7C
330
4
100
AcDbSymbolTableRecord
100
AcDbDimStyleTableRecord
  2
EZ_M_100_H25_CM
 70
0
 40
1.0
 41
0.25
 42
0.125
 43
3.75
 44
0.375
 45
0.0
 46
0.0
 47
0.0
 48
0.0
 49
2.5
140
0.25
141
2.5
142
0.125
143
0.03937007874
144
100.0
145
0.0
146
0.5
147
0.1
148
0.0
 69
0
 70
0
 71
0
 72
0
 73
0
 74
0
 75
0
 76
0
 77
1
 78
12
 79
3
170
0
171
3
172
1
173
0
174
0
175
0
176
0
177
0
178
0
179
2
271
2
272
2
273
2
274
3
275
0
276
0
277
2
278
46
279
2
280
0
281
0
282
0
283
0
284
8
285
0
286
0
288
1
289
3
290
0
340
4C
371
-2
372
-2
  0
DIMSTYLE
105
7D
330
4
100
AcDbSymbolTableRecord
100
AcDbDimStyleTableRecord
  2
EZ_M_50_H25_CM
 70
0
 40
1.0
 41
0.125
 42
0.0625
 43
3.75
 44
0.1875
 45
0.0
 46
0.0
 47
0.0
 48
0.0
 49
2.5
140
0.125
141
2.5
142
0.0625
143
0.03937007874
144
100.0
145
0.0
146
0.5
147
0.05
148
0.0
 69
0
 70
0
 71
0
 72
0
 73
0
 74
0
 75
0
 76
0
 77
1
 78
12
 79
3
170
0
171
3
172
1
173
0
174
0
175
0
176
0
177
0
178
0
179
2
271
2
272
2
273
2
274
3
275
0
276
0
277
2
278
46
279
2
280
0
281
0
282
0
283
0
284
8
285
0
286
0
288
1
289
3
290
0
340
4C
371
-2
372
-2
  0
DIMSTYLE
105
7E
330
4
100
AcDbSymbolTableRecord
100
AcDbDimStyleTableRecord
  2
EZ_M_25_H25_CM
 70
0
 40
1.0
 41
0.0625
 42
0.03125
 43
3.75
 44
0.09375
 45
0.0
 46
0.0
 47
0.0
 48
0.0
 49
2.5
140
0.0625
141
2.5
142
0.03125
143
0.03937007874
144
100.0
145
0.0
146
0.5
147
0.025
148
0.0
 69
0
 70
0
 71
0
 72
0
 73
0
 74
0
 75
0
 76
0
 77
1
 78
12
 79
3
170
0
171
3
172
1
173
0
174
0
175
0
176
0
177
0
178
0
179
2
271
2
272
2
273
2
274
3
275
0
276
0
277
2
278
46
279
2
280
0
281
0
282
0
283
0
284
8
285
0
286
0
288
1
289
3
290
0
340
4C
371
-2
372
-2
  0
DIMSTYLE
105
7F
330
4
100
AcDbSymbolTableRecord
100
AcDbDimStyleTableRecord
  2
EZ_M_20_H25_CM
 70
0
 40
1.0
 41
0.05
 42
0.025
 43
3.75
 44
0.07500000000000001
 45
0.0
 46
0.0
 47
0.0
 48
0.0
 49
2.5
140
0.05
141
2.5
142
0.025
143
0.03937007874
144
100.0
145
0.0
146
0.5
147
0.020000000000000004
148
0.0
 69
0
 70
0
 71
0
 72
0
 73
0
 74
0
 75
0
 76
0
 77
1
 78
12
 79
3
170
0
171
3
172
1
173
0
174
0
175
0
176
0
177
0
178
0
179
2
271
2
272
2
273
2
274
3
275
0
276
0
277
2
278
46
279
2
280
0
281
0
282
0
283
0
284
8
285
0
286
0
288
1
289
3
290
0
340
4C
371
-2
372
-2
  0
DIMSTYLE
105
80
330
4
100
AcDbSymbolTableRecord
100
AcDbDimStyleTableRecord
  2
EZ_M_10_H25_CM
 70
0
 40
1.0
 41
0.025
 42
0.0125
 43
3.75
 44
0.037500000000000006
 45
0.0
 46
0.0
 47
0.0
 48
0.0
 49
2.5
140
0.025
141
2.5
142
0.0125
143
0.03937007874
144
100.0
145
0.0
146
0.5
147
0.010000000000000002
148
0.0
 69
0
 70
0
 71
0
 72
0
 73
0
 74
0
 75
0
 76
0
 77
1
 78
12
 79
3
170
0
171
3
172
1
173
0
174
0
175
0
176
0
177
0
178
0
179
2
271
2
272
2
273
2
274
3
275
0
276
0
277
2
278
46
279
2
280
0
281
0
282
0
283
0
284
8
285
0
286
0
288
1
289
3
290
0
340
4C
371
-2
372
-2
  0
DIMSTYLE
105
81
330
4
100
AcDbSymbolTableRecord
100
AcDbDimStyleTableRecord
  2
EZ_M_5_H25_CM
 70
0
 40
1.0
 41
0.0125
 42
0.00625
 43
3.75
 44
0.018750000000000003
 45
0.0
 46
0.0
 47
0.0
 48
0.0
 49
2.5
140
0.0125
141
2.5
142
0.00625
143
0.03937007874
144
100.0
145
0.0
146
0.5
147
0.005000000000000001
148
0.0
 69
0
 70
0
 71
0
 72
0
 73
0
 74
0
 75
0
 76
0
 77
1
 78
12
 79
3
170
0
171
3
172
1
173
0
174
0
175
0
176
0
177
0
178
0
179
2
271
2
272
2
273
2
274
3
275
0
276
0
277
2
278
46
279
2
280
0
281
0
282
0
283
0
284
8
285
0
286
0
288
1
289
3
290
0
340
4C
371
-2
372
-2
  0
DIMSTYLE
105
82
330
4
100
AcDbSymbolTableRecord
100
AcDbDimStyleTableRecord
  2
EZ_M_1_H25_CM
 70
0
 40
1.0
 41
0.0025
 42
0.00125
 43
3.75
 44
0.00375
 45
0.0
 46
0.0
 47
0.0
 48
0.0
 49
2.5
140
0.0025
141
2.5
142
0.00125
143
0.03937007874
144
100.0
145
0.0
146
0.5
147
0.001
148
0.0
 69
0
 70
0
 71
0
 72
0
 73
0
 74
0
 75
0
 76
0
 77
1
 78
12
 79
3
170
0
171
3
172
1
173
0
174
0
175
0
176
0
177
0
178
0
179
2
271
2
272
2
273
2
274
3
275
0
276
0
277
2
278
46
279
2
280
0
281
0
282
0
283
0
284
8
285
0
286
0
288
1
289
3
290
0
340
4C
371
-2
372
-2
  0
DIMSTYLE
105
83
330
4
100
AcDbSymbolTableRecord
100
AcDbDimStyleTableRecord
  2
EZ_RADIUS
 70
0
 40
1.0
 41
0.25
 42
0.125
 43
3.75
 44
0.375
 45
0.0
 46
0.0
 47
0.0
 48
0.0
 49
2.5
140
0.25
141
0.0
142
0.0
143
0.03937007874
144
100.0
145
0.0
146
0.5
147
0.1
148
0.0
 69
0
 70
0
 71
0
 72
0
 73
0
 74
0
 75
0
 76
0
 77
1
 78
12
 79
3
170
0
171
3
172
0
173
0
174
0
175
0
176
0
177
0
178
0
179
2
271
2
272
2
273
2
274
3
275
0
276
0
277
2
278
46
279
1
280
0
281
0
282
0
283
0
284
8
285
0
286
0
288
1
289
3
290
0
340
4C
342
84
371
-2
372
-2
  0
DIMSTYLE
105
88
330
4
100
AcDbSymbolTableRecord
100
AcDbDimStyleTableRecord
  2
EZ_RADIUS_INSIDE
 70
0
 40
1.0
 41
0.25
 42
0.125
 43
3.75
 44
0.375
 45
0.0
 46
0.0
 47
0.0
 48
0.0
 49
2.5
140
0.25
141
0.0
142
0.0
143
0.03937007874
144
100.0
145
0.0
146
0.5
147
0.1
148
0.0
 69
0
 70
0
 71
0
 72
0
 73
0
 74
0
 75
0
 76
0
 77
0
 78
12
 79
3
170
0
171
3
172
0
173
0
174
1
175
0
176
0
177
0
178
0
179
2
271
2
272
2
273
2
274
3
275
0
276
0
277
2
278
46
279
0
280
0
281
0
282
0
283
0
284
8
285
0
286
0
288
1
289
0
290
0
340
4C
342
84
371
-2
372
-2
  0
DIMSTYLE
105
89
330
4
100
AcDbSymbolTableRecord
100
AcDbDimStyleTableRecord
  2
EZ_CURVED
 70
0
 40
1.0
 41
0.25
 42
0.125
 43
3.75
 44
0.375
 45
0.0
 46
0.0
 47
0.0
 48
0.0
 49
2.5
140
0.25
141
2.5
142
0.0
143
0.03937007874
144
100.0
145
0.0
146
0.5
147
0.1
148
0.0
 69
0
 70
0
 71
0
 72
0
 73
0
 74
0
 75
0
 76
0
 77
1
 78
12
 79
2
 90
2
170
0
171
3
172
1
173
0
174
0
175
0
176
0
177
0
178
0
179
2
271
2
272
2
273
2
274
3
275
0
276
0
277
2
278
46
279
2
280
0
281
0
282
0
283
0
284
8
285
0
286
0
288
1
289
3
290
0
340
4C
371
-2
372
-2
  0
ENDTAB
  0
TABLE
  2
BLOCK_RECORD
  5
9
330
0
100
AcDbSymbolTable
 70
5
  0
BLOCK_RECORD
  5
17
330
9
100
AcDbSymbolTableRecord
100
AcDbBlockTableRecord
  2
*Model_Space
340
1A
 70
0
280
1
281
0
  0
BLOCK_RECORD
  5
1B
330
9
100
AcDbSymbolTableRecord
100
AcDbBlockTableRecord
  2
*Paper_Space
340
1E
 70
0
280
1
281
0
  0
BLOCK_RECORD
  5
74
330
9
100
AcDbSymbolTableRecord
100
AcDbBlockTableRecord
  2
_ARCHTICK
340
0
 70
0
280
1
281
0
  0
BLOCK_RECORD
  5
78
330
9
100
AcDbSymbolTableRecord
100
AcDbBlockTableRecord
  2
_CLOSEDFILLED
340
0
 70
0
280
1
281
0
  0
BLOCK_RECORD
  5
84
330
9
100
AcDbSymbolTableRecord
100
AcDbBlockTableRecord
  2
_CLOSEDBLANK
340
0
 70
0
280
1
281
0
  0
ENDTAB
  0
ENDSEC
  0
SECTION
  2
BLOCKS
  0
BLOCK
  5
18
330
17
100
AcDbEntity
  8
0
100
AcDbBlockBegin
  2
*Model_Space
 70
0
 10
0.0
 20
0.0
 30
0.0
  3
*Model_Space
  1

  0
ENDBLK
  5
19
330
17
100
AcDbEntity
  8
0
100
AcDbBlockEnd
  0
BLOCK
  5
1C
330
1B
100
AcDbEntity
  8
0
100
AcDbBlockBegin
  2
*Paper_Space
 70
0
 10
0.0
 20
0.0
 30
0.0
  3
*Paper_Space
  1

  0
ENDBLK
  5
1D
330
1B
100
AcDbEntity
  8
0
100
AcDbBlockEnd
  0
BLOCK
  5
75
330
74
100
AcDbEntity
  8
0
100
AcDbBlockBegin
  2
_ARCHTICK
 70
0
 10
0.0
 20
0.0
 30
0.0
  3
_ARCHTICK
  1

  0
LWPOLYLINE
  5
77
330
74
100
AcDbEntity
  8
0
  6
BYBLOCK
 62
0
100
AcDbPolyline
 90
2
 70
0
 43
0.15
 10
-0.5
 20
-0.5
 10
0.5
 20
0.5
  0
ENDBLK
  5
76
330
74
100
AcDbEntity
  8
0
100
AcDbBlockEnd
  0
BLOCK
  5
79
330
78
100
AcDbEntity
  8
0
100
AcDbBlockBegin
  2
_CLOSEDFILLED
 70
0
 10
0.0
 20
0.0
 30
0.0
  3
_CLOSEDFILLED
  1

  0
SOLID
  5
7B
330
78
100
AcDbEntity
  8
0
  6
BYBLOCK
 62
0
100
AcDbTrace
 10
-1.0
 20
0.16439898372402537
 30
0.0
 11
0.0
 21
0.0
 31
0.0
 12
-1.0
 22
-0.16439898372402537
 32
0.0
 13
-1.0
 23
-0.16439898372402537
 33
0.0
  0
ENDBLK
  5
7A
330
78
100
AcDbEntity
  8
0
100
AcDbBlockEnd
  0
BLOCK
  5
85
330
84
100
AcDbEntity
  8
0
100
AcDbBlockBegin
  2
_CLOSEDBLANK
 70
0
 10
0.0
 20
0.0
 30
0.0
  3
_CLOSEDBLANK
  1

  0
LWPOLYLINE
  5
87
330
84
100
AcDbEntity
  8
0
  6
BYBLOCK
 62
0
100
AcDbPolyline
 90
3
 70
1
 10
-1.0
 20
0.16439898372402537
 10
0.0
 20
0.0
 10
-1.0
 20
-0.16439898372402537
  0
ENDBLK
  5
86
330
84
100
AcDbEntity
  8
0
100
AcDbBlockEnd
  0
ENDSEC
  0
SECTION
  2
ENTITIES
  0
LWPOLYLINE
  5
8C
330
17
100
AcDbEntity
  8
CORTE
100
AcDbPolyline
 90
397
 70
1
 10
-92.0
 20
150.0
 10
-92.52210476888021
 20
150.03422055450477
 10
-93.03527618041008
 20
150.13629669484374
 10
-93.53073372946037
 20
150.30448186995486
 10
-94.0
 20
150.53589838486224
 10
-94.43504571603488
 20
150.82658663883507
 10
-94.82842712474618
 20
151.17157287525382
 10
-95.17341336116495
 20
151.5649542839651
 10
-95.46410161513775
 20
152.0
 10
-95.69551813004514
 20
152.46926627053963
 10
-95.86370330515628
 20
152.96472381958992
 10
-95.96577944549524
 20
153.4778952311198
 10
-96.0
 20
154.0
 10
-96.0
 20
181.4266467564823
 10
-95.95860554727868
 20
182.00061724444703
 10
-95.83527893947279
 20
182.56270813529798
 10
-95.63257269530034
 20
183.10128570663198
 10
-95.35468227178173
 20
183.60520289654238
 10
-94.36536005605058
 20
184.8545076722693
 10
-93.9186510016152
 20
185.49994232118127
 10
-93.33011042488658
 20
186.5193245023911
 10
-92.8442629500923
 20
187.59161272929416
 10
-92.57982591708353
 20
188.33067153676762
 10
-92.27517489693747
 20
189.46764462253034
 10
-92.08341088835816
 20
190.62914209361304
 10
-92.00642609756416
 20
191.80370302596685
 10
-92.0449436962929
 20
192.98029395101577
 10
-92.19858361718768
 20
194.14730501203104
 10
-92.46590261350644
 20
195.29377366163595
 10
-92.84426295009229
 20
196.4083872707058
 10
-93.33011042488653
 20
197.4806754976088
 10
-93.918651001615
 20
198.50005767881845
 10
-94.36536005605035
 20
199.1454923277304
 10
-95.30143973233939
 20
200.31492553962036
 10
-95.54804333271285
 20
200.72635879057745
 10
-95.74362370702929
 20
201.16435305183265
 10
-95.88536827925303
 20
201.62260967421292
 10
-95.97123866803622
 20
202.0945386222978
 10
-96.0
 20
202.57335324351766
 10
-96.0
 20
230.50786669499104
 10
-95.95927525054998
 20
231.07719919044723
 10
-95.83793025480881
 20
231.6349387242878
 10
-95.63843588505078
 20
232.16972839512576
 10
-95.36485432038843
 20
232.67067861528446
 10
-95.02275633115927
 20
233.1275888486624
 10
-71.19624080015147
 20
260.6197221536714
 10
-70.85381204896653
 20
260.9691487103257
 10
-70.4712862055972
 20
261.2741574762456
 10
-70.05438576983009
 20
261.5301855895273
 10
-69.60934747755135
 20
261.7334029277124
 10
-69.14282900059351
 20
261.8807694055502
 10
-68.66180934947603
 20
261.9700804539833
 10
-68.1734844689922
 20
262.0
 10
-31.130946441651552
 20
262.0
 10
-30.479015496080763
 20
262.0427298116891
 10
-29.96694518146803
 20
262.1445869302336
 10
-29.47255072121664
 20
262.31241123532436
 10
-29.00429134161443
 20
262.54333120657145
 10
-28.570179090472667
 20
262.8333957392435
 10
-28.177641748765794
 20
263.1776417487661
 10
-27.833395739243624
 20
263.57017909047244
 10
-27.54333120657141
 20
264.00429134161453
 10
-27.312411235324326
 20
264.47255072121675
 10
-27.14458693023365
 20
264.9669451814678
 10
-27.04272981168915
 20
265.4790154960807
 10
-27.0
 20
266.13094644165193
 10
-27.0
 20
376.0
 10
-26.96577944549524
 20
376.5221047688802
 10
-26.86370330515627
 20
377.0352761804101
 10
-26.695518130045148
 20
377.53073372946034
 10
-26.464101615137753
 20
378.0
 10
-26.17341336116494
 20
378.4350457160349
 10
-25.82842712474619
 20
378.8284271247462
 10
-25.43504571603488
 20
379.17341336116493
 10
-25.0
 20
379.46410161513774
 10
-24.53073372946036
 20
379.6955181300452
 10
-24.035276180410083
 20
379.86370330515626
 10
-23.522104768880208
 20
379.96577944549523
 10
-23.0
 20
380.0
 10
23.0
 20
380.0
 10
23.522104768880208
 20
379.96577944549523
 10
24.035276180410083
 20
379.86370330515626
 10
24.53073372946036
 20
379.6955181300452
 10
25.0
 20
379.46410161513774
 10
25.43504571603488
 20
379.17341336116493
 10
25.82842712474619
 20
378.8284271247462
 10
26.17341336116494
 20
378.4350457160349
 10
26.464101615137753
 20
378.0
 10
26.695518130045148
 20
377.53073372946034
 10
26.86370330515627
 20
377.0352761804101
 10
26.96577944549524
 20
376.5221047688802
 10
27.0
 20
376.0
 10
27.0
 20
266.13094644165193
 10
27.04272981168915
 20
265.4790154960807
 10
27.14458693023365
 20
264.9669451814678
 10
27.312411235324372
 20
264.4725507212166
 10
27.543331206571345
 20
264.0042913416146
 10
27.833395739243592
 20
263.57017909047244
 10
28.177641748765794
 20
263.1776417487661
 10
28.570179090472667
 20
262.8333957392435
 10
29.00429134161443
 20
262.54333120657145
 10
29.47255072121664
 20
262.31241123532436
 10
29.96694518146803
 20
262.1445869302336
 10
30.479015496080763
 20
262.0427298116891
 10
31.130946441651552
 20
262.0
 10
68.1734844689922
 20
262.0
 10
68.66180934947603
 20
261.9700804539833
 10
69.14282900059351
 20
261.8807694055502
 10
69.60934747755135
 20
261.7334029277124
 10
70.05438576983009
 20
261.5301855895273
 10
70.4712862055972
 20
261.2741574762456
 10
70.85381204896653
 20
260.9691487103257
 10
71.19624080015147
 20
260.6197221536714
 10
95.02275633115927
 20
233.1275888486624
 10
95.36485432038843
 20
232.67067861528446
 10
95.63843588505078
 20
232.16972839512576
 10
95.83793025480881
 20
231.6349387242878
 10
95.95927525054998
 20
231.07719919044723
 10
96.0
 20
230.50786669499104
 10
96.0
 20
202.57335324351766
 10
95.95860554727868
 20
201.99938275555294
 10
95.83527893947277
 20
201.437291864702
 10
95.63257269530034
 20
200.89871429336796
 10
95.35468227178171
 20
200.3947971034576
 10
94.36536005605029
 20
199.14549232773038
 10
93.91865100161516
 20
198.50005767881865
 10
93.33011042488653
 20
197.48067549760881
 10
92.84426295009217
 20
196.40838727070556
 10
92.4659026135063
 20
195.2937736616355
 10
92.19858361718768
 20
194.14730501203104
 10
92.08341088835816
 20
193.37085790638685
 10
92.00642609756416
 20
192.19629697403317
 10
92.0449436962929
 20
191.01970604898423
 10
92.19858361718768
 20
189.85269498796896
 10
92.46590261350643
 20
188.70622633836402
 10
92.8442629500923
 20
187.59161272929416
 10
93.3301104248866
 20
186.51932450239104
 10
93.918651001615
 20
185.49994232118155
 10
94.36536005605065
 20
184.85450767226916
 10
95.35468227178177
 20
183.60520289654232
 10
95.63257269530037
 20
183.10128570663196
 10
95.83527893947279
 20
182.56270813529795
 10
95.95860554727868
 20
182.000617244447
 10
96.0
 20
181.4266467564823
 10
96.0
 20
154.0
 10
95.96577944549524
 20
153.4778952311198
 10
95.86370330515628
 20
152.96472381958992
 10
95.69551813004514
 20
152.46926627053963
 10
95.46410161513775
 20
152.0
 10
95.17341336116495
 20
151.5649542839651
 10
94.82842712474618
 20
151.17157287525382
 10
94.43504571603488
 20
150.82658663883507
 10
94.0
 20
150.53589838486224
 10
93.53073372946037
 20
150.30448186995486
 10
93.03527618041008
 20
150.13629669484374
 10
92.52210476888021
 20
150.03422055450477
 10
92.0
 20
150.0
 10
60.13094644165182
 20
150.0
 10
59.47901549608077
 20
149.95727018831087
 10
58.96694518146771
 20
149.85541306976634
 10
58.472550721216784
 20
149.6875887646757
 10
58.004291341614554
 20
149.4566687934286
 10
57.570179090472394
 20
149.16660426075634
 10
57.17764174876599
 20
148.82235825123408
 10
56.83339573924364
 20
148.4298209095276
 10
56.543331206571324
 20
147.99570865838533
 10
56.31241123532435
 20
147.52744927878334
 10
56.14458693023367
 20
147.0330548185323
 10
56.04272981168914
 20
146.52098450391924
 10
56.0
 20
145.86905355834813
 10
56.0
 20
104.13094644165186
 10
56.04272981168914
 20
103.47901549608075
 10
56.14458693023368
 20
102.96694518146768
 10
56.31241123532431
 20
102.47255072121675
 10
56.54333120657139
 20
102.00429134161458
 10
56.8333957392436
 20
101.57017909047245
 10
57.177641748765964
 20
101.17764174876594
 10
57.57017909047244
 20
100.83339573924361
 10
58.00429134161456
 20
100.54333120657138
 10
58.47255072121671
 20
100.31241123532433
 10
58.966945181467715
 20
100.14458693023367
 10
59.47901549608076
 20
100.04272981168914
 10
60.13094644165182
 20
100.0
 10
82.0
 20
100.0
 10
82.52210476888021
 20
99.96577944549524
 10
83.03527618041008
 20
99.86370330515628
 10
83.53073372946037
 20
99.69551813004514
 10
84.0
 20
99.46410161513775
 10
84.43504571603488
 20
99.17341336116495
 10
84.82842712474618
 20
98.82842712474618
 10
85.17341336116495
 20
98.43504571603488
 10
85.46410161513775
 20
98.0
 10
85.69551813004514
 20
97.53073372946037
 10
85.86370330515628
 20
97.03527618041008
 10
85.96577944549524
 20
96.52210476888021
 10
86.0
 20
96.0
 10
86.0
 20
66.0
 10
85.96577944549524
 20
65.47789523111979
 10
85.86370330515628
 20
64.96472381958992
 10
85.69551813004514
 20
64.46926627053963
 10
85.46410161513775
 20
64.0
 10
85.17341336116495
 20
63.564954283965115
 10
84.82842712474618
 20
63.17157287525381
 10
84.43504571603488
 20
62.82658663883506
 10
84.0
 20
62.53589838486224
 10
83.53073372946037
 20
62.304481869954856
 10
83.03527618041008
 20
62.13629669484373
 10
82.52210476888021
 20
62.034220554504756
 10
82.0
 20
62.0
 10
60.13094644165182
 20
62.0
 10
59.47901549608076
 20
61.957270188310865
 10
58.966945181467715
 20
61.85541306976633
 10
58.47255072121671
 20
61.68758876467567
 10
58.00429134161456
 20
61.45666879342861
 10
57.57017909047247
 20
61.16660426075641
 10
57.177641748765936
 20
60.822358251234036
 10
56.83339573924361
 20
60.42982090952756
 10
56.54333120657138
 20
59.995708658385425
 10
56.31241123532435
 20
59.52744927878332
 10
56.14458693023367
 20
59.03305481853227
 10
56.04272981168914
 20
58.520984503919244
 10
56.0
 20
57.869053558348135
 10
56.0
 20
12.049088001261175
 10
55.93499305124163
 20
10.627651209582133
 10
55.82085740462848
 20
9.702274073161337
 10
55.52427440066293
 20
8.260640191497433
 10
55.0878146944431
 20
6.855018388931787
 10
54.515681631532814
 20
5.498945571813475
 10
53.813385166087805
 20
4.205481462676608
 10
53.10464255106105
 20
3.1447762674092017
 10
52.178391681395375
 20
2.0009541424940065
 10
51.535470553866105
 20
1.3256747823659896
 10
50.9990158047411
 20
0.8215814365477048
 10
50.01288494349974
 20
0.01228697213547747
 10
49.250576897340544
 20
-0.5245893946375602
 10
48.156371252911846
 20
-1.1804290193337041
 10
47.32353791627363
 20
-1.5996406888067058
 10
46.14494373643569
 20
-2.0878285265014593
 10
45.4474894442642
 20
-2.3233095437596285
 10
44.54887462706996
 20
-2.5719884547214837
 10
43.297686081455694
 20
-2.820863581933473
 10
42.37230863818827
 20
-2.934996740701049
 10
41.09814475383366
 20
-2.9975906815225497
 10
40.362129638922525
 20
-2.9843411615478104
 10
39.43226678905211
 20
-2.9157491002794806
 10
38.702274073161256
 20
-2.820857404628457
 10
37.451086196643814
 20
-2.571978913639185
 10
36.5524720480177
 20
-2.3232975867826315
 10
35.35134445007857
 20
-1.8935254389063894
 10
34.49894557181342
 20
-1.515681631532786
 10
33.37387903762717
 20
-0.9143190958894438
 10
32.74938943075343
 20
-0.5245672131947896
 10
31.987082827971236
 20
0.012311203015567429
 10
31.000954142494162
 20
0.8216083186044907
 10
30.325674782366093
 20
1.4645294461337905
 10
29.821581436547802
 20
2.000984195258803
 10
29.01228697213546
 20
2.98711505650028
 10
28.584485394319223
 20
3.5861806699142647
 10
28.085660401588488
 20
4.37391375736562
 10
27.48430089065069
 20
5.49898190829072
 10
27.106459374924096
 20
6.351381802373016
 10
26.846030194951155
 20
7.0399095370182305
 10
26.475715546246896
 20
8.260679239532529
 10
26.27142911912008
 20
9.170413731639705
 10
26.065003259298955
 20
10.627691361811712
 10
25.999999954641492
 20
12.04909169857342
 10
25.99999999995566
 20
145.86905355902462
 10
25.957270188310854
 20
146.52098450391927
 10
25.85541306976632
 20
147.03305481853232
 10
25.687588764675688
 20
147.52744927878325
 10
25.456668793428648
 20
147.99570865838538
 10
25.166604260756415
 20
148.4298209095275
 10
24.822358251233958
 20
148.82235825123414
 10
24.42982090952759
 20
149.16660426075637
 10
23.995708658385446
 20
149.4566687934286
 10
23.527449278783212
 20
149.6875887646757
 10
23.033054818532285
 20
149.85541306976634
 10
22.52098450391924
 20
149.95727018831087
 10
21.869053558348174
 20
150.0
 10
-21.869053558348174
 20
150.0
 10
-22.52098450391924
 20
149.95727018831087
 10
-23.033054818532285
 20
149.85541306976634
 10
-23.527449278783212
 20
149.6875887646757
 10
-23.995708658385446
 20
149.4566687934286
 10
-24.42982090952759
 20
149.16660426075637
 10
-24.822358251234032
 20
148.82235825123405
 10
-25.16660426075635
 20
148.4298209095276
 10
-25.456668793428676
 20
147.99570865838533
 10
-25.687588764675674
 20
147.5274492787833
 10
-25.85541306976632
 20
147.03305481853232
 10
-25.957270188310854
 20
146.52098450391927
 10
-26.0
 20
145.8690535583481
 10
-26.0
 20
12.049088001260857
 10
-26.0252925501174
 20
11.166036311565296
 10
-26.084250899720516
 20
10.43226678905213
 10
-26.309739034664066
 20
8.977816780285435
 10
-26.61971061985877
 20
7.740347903103549
 10
-27.106474561093634
 20
6.351344450078518
 10
-27.72704074727874
 20
5.016740637868429
 10
-28.186614833912355
 20
4.205481462676334
 10
-29.012311203015543
 20
2.9870828279712693
 10
-29.953455568371265
 20
1.8554835125941427
 10
-31.000984195258756
 20
0.8215814365478415
 10
-31.98711505650026
 20
0.012286972135476137
 10
-33.20551591105809
 20
-0.8134061213413735
 10
-34.498981908290666
 20
-1.5156991093492849
 10
-35.85505626356431
 20
-2.0878285265014593
 10
-36.740386564041536
 20
-2.3803008320201444
 10
-38.17041373163988
 20
-2.7285708808799574
 10
-39.62769136181173
 20
-2.934996740701049
 10
-41.09818507434945
 20
-2.997590417609492
 10
-42.37234879041787
 20
-2.9349930512416282
 10
-43.297725926838744
 20
-2.820857404628457
 10
-44.548913803356186
 20
-2.571978913639185
 10
-45.9601285154338
 20
-2.153956469961942
 10
-47.32357447842564
 20
-1.5996236881393502
 10
-48.15640668802441
 20
-1.1804097796235675
 10
-49.25061056924659
 20
-0.5245672131947732
 10
-50.438503886336925
 20
0.3444432552194283
 10
-51.144516487405824
 20
0.9534555683712358
 10
-52.04657170477895
 20
1.8555132108926125
 10
-52.98771302786453
 20
2.98711505650027
 10
-53.524589394637566
 20
3.749423102659477
 10
-54.27297802693032
 20
5.016776321796491
 10
-54.81840869637496
 20
6.16999659149793
 10
-55.15396980504883
 20
7.039909537018211
 10
-55.57198845472144
 20
8.45112537292992
 10
-55.728570880880014
 20
9.170413731640176
 10
-55.915753315023366
 20
10.432306889545494
 10
-55.97470969191169
 20
11.16607657056349
 10
-56.0000000453585
 20
12.049091701167189
 10
-56.000000000129255
 20
57.86905356032023
 10
-56.04272981168914
 20
58.52098450391924
 10
-56.14458693023367
 20
59.03305481853228
 10
-56.31241123532434
 20
59.527449278783315
 10
-56.54333120657137
 20
59.995708658385404
 10
-56.83339573924361
 20
60.42982090952756
 10
-57.17764174876595
 20
60.82235825123405
 10
-57.57017909047247
 20
61.16660426075641
 10
-58.00429134161456
 20
61.45666879342861
 10
-58.47255072121671
 20
61.68758876467567
 10
-58.966945181467715
 20
61.85541306976633
 10
-59.47901549608076
 20
61.957270188310865
 10
-60.13094644165182
 20
62.0
 10
-82.0
 20
62.0
 10
-82.52210476888021
 20
62.034220554504756
 10
-83.03527618041008
 20
62.13629669484373
 10
-83.53073372946037
 20
62.304481869954856
 10
-84.0
 20
62.53589838486225
 10
-84.43504571603488
 20
62.82658663883506
 10
-84.82842712474618
 20
63.17157287525381
 10
-85.17341336116495
 20
63.564954283965115
 10
-85.46410161513775
 20
64.0
 10
-85.69551813004514
 20
64.46926627053963
 10
-85.86370330515628
 20
64.96472381958992
 10
-85.96577944549524
 20
65.47789523111979
 10
-86.0
 20
66.0
 10
-86.0
 20
96.0
 10
-85.96577944549524
 20
96.52210476888021
 10
-85.86370330515628
 20
97.03527618041008
 10
-85.69551813004514
 20
97.53073372946037
 10
-85.46410161513775
 20
98.0
 10
-85.17341336116495
 20
98.43504571603488
 10
-84.82842712474618
 20
98.82842712474618
 10
-84.43504571603488
 20
99.17341336116495
 10
-84.0
 20
99.46410161513775
 10
-83.53073372946037
 20
99.69551813004514
 10
-83.03527618041008
 20
99.86370330515628
 10
-82.52210476888021
 20
99.96577944549524
 10
-82.0
 20
100.0
 10
-60.13094644165182
 20
100.0
 10
-59.47901549608076
 20
100.04272981168914
 10
-58.966945181467715
 20
100.14458693023367
 10
-58.47255072121671
 20
100.31241123532433
 10
-58.00429134161456
 20
100.54333120657138
 10
-57.57017909047244
 20
100.83339573924361
 10
-57.177641748765964
 20
101.17764174876594
 10
-56.8333957392436
 20
101.57017909047245
 10
-56.54333120657139
 20
102.00429134161458
 10
-56.31241123532431
 20
102.47255072121675
 10
-56.14458693023368
 20
102.96694518146768
 10
-56.04272981168914
 20
103.47901549608075
 10
-56.0
 20
104.13094644165186
 10
-56.0
 20
145.86905355834813
 10
-56.04272981168915
 20
146.52098450391927
 10
-56.144586930233665
 20
147.03305481853226
 10
-56.31241123532435
 20
147.52744927878334
 10
-56.543331206571324
 20
147.99570865838533
 10
-56.83339573924364
 20
148.4298209095276
 10
-57.17764174876599
 20
148.82235825123408
 10
-57.570179090472394
 20
149.16660426075634
 10
-58.004291341614554
 20
149.4566687934286
 10
-58.472550721216784
 20
149.6875887646757
 10
-58.96694518146771
 20
149.85541306976634
 10
-59.47901549608077
 20
149.95727018831087
 10
-60.13094644165182
 20
150.0
 10
-92.0
 20
150.0
  0
LWPOLYLINE
  5
8D
330
17
100
AcDbEntity
  8
CORTE
100
AcDbPolyline
 90
67
 70
1
 10
-76.0
 20
73.0
 10
-76.78413712263648
 20
73.03852218662243
 10
-77.56072257612902
 20
73.15371775677416
 10
-78.3222774180357
 20
73.34447731414232
 10
-79.06146745892072
 20
73.60896373990971
 10
-79.77117389460798
 20
73.94462988521316
 10
-80.44456186415681
 20
74.34824310157964
 10
-81.07514627330917
 20
74.8159163730981
 10
-81.65685424949238
 20
75.34314575050762
 10
-82.1840836269019
 20
75.92485372669084
 10
-82.65175689842036
 20
76.55543813584319
 10
-83.05537011478684
 20
77.22882610539202
 10
-83.39103626009029
 20
77.93853254107928
 10
-83.65552268585768
 20
78.6777225819643
 10
-83.84628224322584
 20
79.43927742387098
 10
-83.96147781337757
 20
80.21586287736352
 10
-84.0
 20
81.0
 10
-83.96147781337757
 20
81.78413712263648
 10
-83.84628224322584
 20
82.56072257612902
 10
-83.65552268585768
 20
83.3222774180357
 10
-83.39103626009029
 20
84.06146745892072
 10
-83.05537011478684
 20
84.77117389460798
 10
-82.65175689842036
 20
85.44456186415681
 10
-82.1840836269019
 20
86.07514627330916
 10
-81.65685424949238
 20
86.65685424949238
 10
-81.07514627330916
 20
87.1840836269019
 10
-80.44456186415681
 20
87.65175689842036
 10
-79.77117389460798
 20
88.05537011478684
 10
-79.06146745892072
 20
88.39103626009029
 10
-78.3222774180357
 20
88.65552268585768
 10
-77.56072257612902
 20
88.84628224322584
 10
-76.78413712263648
 20
88.96147781337757
 10
-76.0
 20
89.0
 10
-68.0
 20
89.0
 10
-67.21586287736352
 20
88.96147781337757
 10
-66.43927742387098
 20
88.84628224322584
 10
-65.6777225819643
 20
88.65552268585768
 10
-64.93853254107928
 20
88.39103626009029
 10
-64.22882610539202
 20
88.05537011478684
 10
-63.55543813584318
 20
87.65175689842036
 10
-62.924853726690834
 20
87.1840836269019
 10
-62.34314575050762
 20
86.65685424949238
 10
-61.815916373098105
 20
86.07514627330916
 10
-61.34824310157964
 20
85.44456186415681
 10
-60.94462988521316
 20
84.77117389460798
 10
-60.608963739909704
 20
84.06146745892072
 10
-60.34447731414233
 20
83.3222774180357
 10
-60.15371775677416
 20
82.56072257612902
 10
-60.03852218662242
 20
81.78413712263648
 10
-60.0
 20
81.0
 10
-60.03852218662242
 20
80.21586287736352
 10
-60.15371775677416
 20
79.43927742387098
 10
-60.34447731414233
 20
78.6777225819643
 10
-60.608963739909704
 20
77.93853254107928
 10
-60.94462988521316
 20
77.22882610539202
 10
-61.34824310157964
 20
76.55543813584319
 10
-61.815916373098105
 20
75.92485372669084
 10
-62.34314575050762
 20
75.34314575050762
 10
-62.924853726690834
 20
74.8159163730981
 10
-63.55543813584318
 20
74.34824310157964
 10
-64.22882610539202
 20
73.94462988521316
 10
-64.93853254107928
 20
73.60896373990971
 10
-65.6777225819643
 20
73.34447731414232
 10
-66.43927742387098
 20
73.15371775677416
 10
-67.21586287736352
 20
73.03852218662243
 10
-68.0
 20
73.0
 10
-76.0
 20
73.0
  0
LWPOLYLINE
  5
8E
330
17
100
AcDbEntity
  8
CORTE
100
AcDbPolyline
 90
67
 70
1
 10
76.0
 20
89.0
 10
76.78413712263648
 20
88.96147781337757
 10
77.56072257612902
 20
88.84628224322584
 10
78.3222774180357
 20
88.65552268585768
 10
79.06146745892072
 20
88.39103626009029
 10
79.77117389460798
 20
88.05537011478684
 10
80.44456186415682
 20
87.65175689842036
 10
81.07514627330916
 20
87.1840836269019
 10
81.65685424949238
 20
86.65685424949238
 10
82.1840836269019
 20
86.07514627330916
 10
82.65175689842036
 20
85.44456186415681
 10
83.05537011478684
 20
84.77117389460798
 10
83.39103626009029
 20
84.06146745892072
 10
83.65552268585768
 20
83.3222774180357
 10
83.84628224322584
 20
82.56072257612902
 10
83.96147781337757
 20
81.78413712263648
 10
84.0
 20
81.0
 10
83.96147781337757
 20
80.21586287736352
 10
83.84628224322584
 20
79.43927742387098
 10
83.65552268585768
 20
78.6777225819643
 10
83.39103626009029
 20
77.93853254107928
 10
83.05537011478684
 20
77.22882610539202
 10
82.65175689842036
 20
76.55543813584319
 10
82.1840836269019
 20
75.92485372669084
 10
81.65685424949238
 20
75.34314575050762
 10
81.07514627330916
 20
74.8159163730981
 10
80.44456186415681
 20
74.34824310157964
 10
79.77117389460798
 20
73.94462988521316
 10
79.06146745892072
 20
73.60896373990971
 10
78.3222774180357
 20
73.34447731414232
 10
77.56072257612902
 20
73.15371775677416
 10
76.78413712263648
 20
73.03852218662243
 10
76.0
 20
73.0
 10
68.0
 20
73.0
 10
67.21586287736352
 20
73.03852218662243
 10
66.43927742387098
 20
73.15371775677416
 10
65.6777225819643
 20
73.34447731414232
 10
64.93853254107928
 20
73.60896373990971
 10
64.22882610539202
 20
73.94462988521316
 10
63.55543813584318
 20
74.34824310157964
 10
62.924853726690834
 20
74.8159163730981
 10
62.34314575050762
 20
75.34314575050762
 10
61.815916373098105
 20
75.92485372669084
 10
61.348243101579634
 20
76.55543813584319
 10
60.94462988521316
 20
77.22882610539202
 10
60.608963739909704
 20
77.93853254107928
 10
60.34447731414233
 20
78.6777225819643
 10
60.15371775677416
 20
79.43927742387098
 10
60.03852218662242
 20
80.21586287736352
 10
60.0
 20
81.0
 10
60.03852218662242
 20
81.78413712263648
 10
60.15371775677416
 20
82.56072257612902
 10
60.34447731414233
 20
83.3222774180357
 10
60.608963739909704
 20
84.06146745892072
 10
60.94462988521316
 20
84.77117389460798
 10
61.34824310157964
 20
85.44456186415681
 10
61.815916373098105
 20
86.07514627330916
 10
62.34314575050762
 20
86.65685424949238
 10
62.924853726690834
 20
87.1840836269019
 10
63.55543813584318
 20
87.65175689842036
 10
64.22882610539202
 20
88.05537011478684
 10
64.93853254107928
 20
88.39103626009029
 10
65.6777225819643
 20
88.65552268585768
 10
66.43927742387098
 20
88.84628224322584
 10
67.21586287736352
 20
88.96147781337757
 10
68.0
 20
89.0
 10
76.0
 20
89.0
  0
CIRCLE
  5
8F
330
17
100
AcDbEntity
  8
CORTE
100
AcDbCircle
 10
-66.0
 20
170.0
 30
0.0
 40
12.5
  0
CIRCLE
  5
90
330
17
100
AcDbEntity
  8
CORTE
100
AcDbCircle
 10
-66.0
 20
214.0
 30
0.0
 40
12.5
  0
CIRCLE
  5
91
330
17
100
AcDbEntity
  8
CORTE
100
AcDbCircle
 10
66.0
 20
170.0
 30
0.0
 40
12.5
  0
CIRCLE
  5
92
330
17
100
AcDbEntity
  8
CORTE
100
AcDbCircle
 10
66.0
 20
214.0
 30
0.0
 40
12.5
  0
CIRCLE
  5
93
330
17
100
AcDbEntity
  8
CORTE
100
AcDbCircle
 10
0.0
 20
350.0
 30
0.0
 40
8.25
  0
TEXT
  5
94
330
17
100
AcDbEntity
  8
NOTAS
100
AcDbText
 10
-96.0
 20
-14.99759068152255
 30
0.0
 40
4.0
  1
17 AHP poste de enganche - Al6061-T6 25,4mm chorro de agua - cantidad 1 - MEDIDAS EN MILIMETROS
 11
-96.0
 21
-14.99759068152255
 31
0.0
100
AcDbText
  0
ENDSEC
  0
SECTION
  2
OBJECTS
  0
DICTIONARY
  5
A
330
0
100
AcDbDictionary
281
1
  3
ACAD_COLOR
350
B
  3
ACAD_GROUP
350
C
  3
ACAD_LAYOUT
350
D
  3
ACAD_MATERIAL
350
E
  3
ACAD_MLEADERSTYLE
350
F
  3
ACAD_MLINESTYLE
350
10
  3
ACAD_PLOTSETTINGS
350
11
  3
ACAD_PLOTSTYLENAME
350
12
  3
ACAD_SCALELIST
350
14
  3
ACAD_TABLESTYLE
350
15
  3
ACAD_VISUALSTYLE
350
16
  3
EZDXF_META
350
2D
  0
DICTIONARY
  5
B
330
A
100
AcDbDictionary
281
1
  0
DICTIONARY
  5
C
330
A
100
AcDbDictionary
281
1
  0
DICTIONARY
  5
D
330
A
100
AcDbDictionary
281
1
  3
Model
350
1A
  3
Layout1
350
1E
  0
DICTIONARY
  5
E
330
A
100
AcDbDictionary
281
1
  3
ByBlock
350
1F
  3
ByLayer
350
20
  3
Global
350
21
  0
DICTIONARY
  5
F
330
A
100
AcDbDictionary
281
1
  3
Standard
350
2C
  0
DICTIONARY
  5
10
330
A
100
AcDbDictionary
281
1
  3
Standard
350
22
  0
DICTIONARY
  5
11
330
A
100
AcDbDictionary
281
1
  0
ACDBDICTIONARYWDFLT
  5
12
330
A
100
AcDbDictionary
281
1
  3
Normal
350
13
100
AcDbDictionaryWithDefault
340
13
  0
ACDBPLACEHOLDER
  5
13
330
12
  0
DICTIONARY
  5
14
330
A
100
AcDbDictionary
281
1
  0
DICTIONARY
  5
15
330
A
100
AcDbDictionary
281
1
  0
DICTIONARY
  5
16
330
A
100
AcDbDictionary
281
1
  3
2dWireframe
350
5A
  3
Basic
350
5B
  3
Brighten
350
5C
  3
ColorChange
350
5D
  3
Conceptual
350
5E
  3
Dim
350
5F
  3
EdgeColorOff
350
60
  3
Facepattern
350
61
  3
Flat
350
62
  3
FlatWithEdges
350
63
  3
Gouraud
350
64
  3
GouraudWithEdges
350
65
  3
Hidden
350
66
  3
JitterOff
350
67
  3
Linepattern
350
68
  3
Modeling
350
69
  3
OverhangOff
350
6A
  3
Realistic
350
6B
  3
Shaded
350
6C
  3
Shaded with edges
350
6D
  3
Shades of Gray
350
6E
  3
Sketchy
350
6F
  3
Thicken
350
70
  3
Wireframe
350
71
  3
X-Ray
350
72
  0
LAYOUT
  5
1A
330
D
100
AcDbPlotSettings
  1

  4
A3
  6

 40
7.5
 41
20.0
 42
7.5
 43
20.0
 44
420.0
 45
297.0
 46
0.0
 47
0.0
 48
0.0
 49
0.0
140
0.0
141
0.0
142
1.0
143
1.0
 70
1024
 72
1
 73
0
 74
5
  7

 75
16
 76
0
 77
2
 78
300
147
1.0
148
0.0
149
0.0
100
AcDbLayout
  1
Model
 70
1
 71
0
 10
0.0
 20
0.0
 11
420.0
 21
297.0
 12
0.0
 22
0.0
 32
0.0
 14
1e+20
 24
1e+20
 34
1e+20
 15
-1e+20
 25
-1e+20
 35
-1e+20
146
0.0
 13
0.0
 23
0.0
 33
0.0
 16
1.0
 26
0.0
 36
0.0
 17
0.0
 27
1.0
 37
0.0
 76
1
330
17
  0
LAYOUT
  5
1E
330
D
100
AcDbPlotSettings
  1

  4
A3
  6

 40
7.5
 41
20.0
 42
7.5
 43
20.0
 44
420.0
 45
297.0
 46
0.0
 47
0.0
 48
0.0
 49
0.0
140
0.0
141
0.0
142
1.0
143
1.0
 70
0
 72
1
 73
0
 74
5
  7

 75
16
 76
0
 77
2
 78
300
147
1.0
148
0.0
149
0.0
100
AcDbLayout
  1
Layout1
 70
1
 71
1
 10
0.0
 20
0.0
 11
420.0
 21
297.0
 12
0.0
 22
0.0
 32
0.0
 14
1e+20
 24
1e+20
 34
1e+20
 15
-1e+20
 25
-1e+20
 35
-1e+20
146
0.0
 13
0.0
 23
0.0
 33
0.0
 16
1.0
 26
0.0
 36
0.0
 17
0.0
 27
1.0
 37
0.0
 76
1
330
1B
  0
MATERIAL
  5
1F
102
{ACAD_REACTORS
330
E
102
}
330
E
100
AcDbMaterial
  1
ByBlock
  2

 70
0
 40
1.0
 71
1
 41
1.0
 91
-1023410177
 42
1.0
 72
1
  3

 73
1
 74
1
 75
1
 44
0.5
 73
0
 45
1.0
 46
1.0
 77
1
  4

 78
1
 79
1
170
1
 48
1.0
171
1
  6

172
1
173
1
174
1
140
1.0
141
1.0
175
1
  7

176
1
177
1
178
1
143
1.0
179
1
  8

270
1
271
1
272
1
145
1.0
146
1.0
273
1
  9

274
1
275
1
276
1
 42
1.0
 72
1
  3

 73
1
 74
1
 75
1
 94
63
  0
MATERIAL
  5
20
102
{ACAD_REACTORS
330
E
102
}
330
E
100
AcDbMaterial
  1
ByLayer
  2

 70
0
 40
1.0
 71
1
 41
1.0
 91
-1023410177
 42
1.0
 72
1
  3

 73
1
 74
1
 75
1
 44
0.5
 73
0
 45
1.0
 46
1.0
 77
1
  4

 78
1
 79
1
170
1
 48
1.0
171
1
  6

172
1
173
1
174
1
140
1.0
141
1.0
175
1
  7

176
1
177
1
178
1
143
1.0
179
1
  8

270
1
271
1
272
1
145
1.0
146
1.0
273
1
  9

274
1
275
1
276
1
 42
1.0
 72
1
  3

 73
1
 74
1
 75
1
 94
63
  0
MATERIAL
  5
21
102
{ACAD_REACTORS
330
E
102
}
330
E
100
AcDbMaterial
  1
Global
  2

 70
0
 40
1.0
 71
1
 41
1.0
 91
-1023410177
 42
1.0
 72
1
  3

 73
1
 74
1
 75
1
 44
0.5
 73
0
 45
1.0
 46
1.0
 77
1
  4

 78
1
 79
1
170
1
 48
1.0
171
1
  6

172
1
173
1
174
1
140
1.0
141
1.0
175
1
  7

176
1
177
1
178
1
143
1.0
179
1
  8

270
1
271
1
272
1
145
1.0
146
1.0
273
1
  9

274
1
275
1
276
1
 42
1.0
 72
1
  3

 73
1
 74
1
 75
1
 94
63
  0
MLINESTYLE
  5
22
102
{ACAD_REACTORS
330
10
102
}
330
10
100
AcDbMlineStyle
  2
Standard
 70
0
  3

 62
256
 51
90.0
 52
90.0
 71
2
 49
0.5
 62
256
  6
BYLAYER
 49
-0.5
 62
256
  6
BYLAYER
  0
MLEADERSTYLE
  5
2C
102
{ACAD_REACTORS
330
F
102
}
330
F
100
AcDbMLeaderStyle
179
2
170
2
171
1
172
0
 90
2
 40
0.0
 41
0.0
173
1
 91
-1056964608
 92
-2
290
1
 42
2.0
291
1
 43
8.0
  3
Standard
 44
4.0
300

342
29
174
1
175
1
176
0
178
1
 93
-1056964608
 45
4.0
292
0
297
0
 46
4.0
 94
-1056964608
 47
1.0
 49
1.0
140
1.0
294
1
141
0.0
177
0
142
1.0
295
0
296
0
143
3.75
271
0
272
9
273
9
  0
DICTIONARY
  5
2D
330
A
100
AcDbDictionary
280
1
281
1
  3
CREATED_BY_EZDXF
350
2E
  3
WRITTEN_BY_EZDXF
350
97
  0
DICTIONARYVAR
  5
2E
330
2D
100
DictionaryVariables
280
0
  1
1.4.4 @ 2026-09-26T04:33:59.322437+00:00
  0
VISUALSTYLE
  5
5A
102
{ACAD_REACTORS
330
16
102
}
330
16
100
AcDbVisualStyle
  2
2dWireframe
 70
4
 90
0
 40
0.6
 62
7
290
0
291
0
  0
VISUALSTYLE
  5
5B
102
{ACAD_REACTORS
330
16
102
}
330
16
100
AcDbVisualStyle
  2
Basic
 70
7
 90
1
 40
0.6
 62
7
290
0
291
1
  0
VISUALSTYLE
  5
5C
102
{ACAD_REACTORS
330
16
102
}
330
16
100
AcDbVisualStyle
  2
Brighten
 70
12
 90
2
 40
0.6
 62
7
290
0
291
1
  0
VISUALSTYLE
  5
5D
102
{ACAD_REACTORS
330
16
102
}
330
16
100
AcDbVisualStyle
  2
ColorChange
 70
16
 90
2
 40
0.6
 62
8
290
0
291
1
  0
VISUALSTYLE
  5
5E
102
{ACAD_REACTORS
330
16
102
}
330
16
100
AcDbVisualStyle
  2
Conceptual
 70
9
 90
3
 40
0.6
 62
7
290
0
291
0
  0
VISUALSTYLE
  5
5F
102
{ACAD_REACTORS
330
16
102
}
330
16
100
AcDbVisualStyle
  2
Dim
 70
11
 90
2
 40
0.6
 62
7
290
0
291
1
  0
VISUALSTYLE
  5
60
102
{ACAD_REACTORS
330
16
102
}
330
16
100
AcDbVisualStyle
  2
EdgeColorOff
 70
22
 90
2
 40
0.6
 62
7
290
0
291
1
  0
VISUALSTYLE
  5
61
102
{ACAD_REACTORS
330
16
102
}
330
16
100
AcDbVisualStyle
  2
Facepattern
 70
15
 90
2
 40
0.6
 62
7
290
0
291
1
  0
VISUALSTYLE
  5
62
102
{ACAD_REACTORS
330
16
102
}
330
16
100
AcDbVisualStyle
  2
Flat
 70
0
 90
2
 40
0.6
 62
7
290
0
291
1
  0
VISUALSTYLE
  5
63
102
{ACAD_REACTORS
330
16
102
}
330
16
100
AcDbVisualStyle
  2
FlatWithEdges
 70
1
 90
2
 40
0.6
 62
7
290
0
291
1
  0
VISUALSTYLE
  5
64
102
{ACAD_REACTORS
330
16
102
}
330
16
100
AcDbVisualStyle
  2
Gouraud
 70
2
 90
2
 40
0.6
 62
7
290
0
291
1
  0
VISUALSTYLE
  5
65
102
{ACAD_REACTORS
330
16
102
}
330
16
100
AcDbVisualStyle
  2
GouraudWithEdges
 70
3
 90
2
 40
0.6
 62
7
290
0
291
1
  0
VISUALSTYLE
  5
66
102
{ACAD_REACTORS
330
16
102
}
330
16
100
AcDbVisualStyle
  2
Hidden
 70
6
 90
1
 40
0.6
 62
7
290
0
291
0
  0
VISUALSTYLE
  5
67
102
{ACAD_REACTORS
330
16
102
}
330
16
100
AcDbVisualStyle
  2
JitterOff
 70
20
 90
2
 40
0.6
 62
7
290
0
291
1
  0
VISUALSTYLE
  5
68
102
{ACAD_REACTORS
330
16
102
}
330
16
100
AcDbVisualStyle
  2
Linepattern
 70
14
 90
2
 40
0.6
 62
7
290
0
291
1
  0
VISUALSTYLE
  5
69
102
{ACAD_REACTORS
330
16
102
}
330
16
100
AcDbVisualStyle
  2
Modeling
 70
10
 90
2
 40
0.6
 62
7
290
0
291
0
  0
VISUALSTYLE
  5
6A
102
{ACAD_REACTORS
330
16
102
}
330
16
100
AcDbVisualStyle
  2
OverhangOff
 70
21
 90
2
 40
0.6
 62
7
290
0
291
1
  0
VISUALSTYLE
  5
6B
102
{ACAD_REACTORS
330
16
102
}
330
16
100
AcDbVisualStyle
  2
Realistic
 70
8
 90
2
 40
0.6
 62
7
290
0
291
0
  0
VISUALSTYLE
  5
6C
102
{ACAD_REACTORS
330
16
102
}
330
16
100
AcDbVisualStyle
  2
Shaded
 70
27
 90
2
 40
0.6
 62
7
290
0
291
0
  0
VISUALSTYLE
  5
6D
102
{ACAD_REACTORS
330
16
102
}
330
16
100
AcDbVisualStyle
  2
Shaded with edges
 70
26
 90
2
 40
0.6
 62
7
290
0
291
0
  0
VISUALSTYLE
  5
6E
102
{ACAD_REACTORS
330
16
102
}
330
16
100
AcDbVisualStyle
  2
Shades of Gray
 70
23
 90
2
 40
0.6
 62
7
290
0
291
0
  0
VISUALSTYLE
  5
6F
102
{ACAD_REACTORS
330
16
102
}
330
16
100
AcDbVisualStyle
  2
Sketchy
 70
24
 90
1
 40
0.6
 62
7
290
0
291
0
  0
VISUALSTYLE
  5
70
102
{ACAD_REACTORS
330
16
102
}
330
16
100
AcDbVisualStyle
  2
Thicken
 70
13
 90
2
 40
0.6
 62
7
290
0
291
1
  0
VISUALSTYLE
  5
71
102
{ACAD_REACTORS
330
16
102
}
330
16
100
AcDbVisualStyle
  2
Wireframe
 70
5
 90
0
 40
0.6
 62
7
290
0
291
0
  0
VISUALSTYLE
  5
72
102
{ACAD_REACTORS
330
16
102
}
330
16
100
AcDbVisualStyle
  2
X-Ray
 70
25
 90
2
 40
0.5
 62
7
290
0
291
0
  0
DICTIONARYVAR
  5
97
330
2D
100
DictionaryVariables
280
0
  1
1.4.4 @ 2026-09-26T04:33:59.329644+00:00
  0
ENDSEC
  0
EOF
