<svg xmlns="http://www.w3.org/2000/svg" width="182.00mm" height="182.00mm" viewBox="0 0 182.000 182.000"><title>15 Disco naranja · Al 6061-T6 12,7 mm · FABRICAR × 1</title><g fill="none" stroke="#ff0000" stroke-width="0.1"><path d="M177.000,91.000 L176.974,93.111 L176.896,95.220 L176.767,97.327 L176.586,99.429 L176.353,101.527 L176.069,103.619 L175.734,105.703 L175.348,107.778 L174.910,109.843 L174.423,111.896 L173.885,113.937 L173.297,115.964 L172.659,117.977 L171.973,119.973 L171.237,121.951 L170.454,123.911 L169.622,125.851 L168.743,127.770 L167.817,129.667 L166.845,131.540 L165.827,133.389 L164.765,135.213 L163.657,137.010 L162.506,138.779 L161.312,140.520 L160.076,142.230 L158.798,143.910 L157.479,145.558 L156.120,147.173 L154.722,148.754 L153.285,150.300 L151.811,151.811 L150.300,153.285 L148.754,154.722 L147.173,156.120 L145.558,157.479 L143.910,158.798 L142.230,160.076 L140.520,161.312 L138.779,162.506 L137.010,163.657 L135.213,164.765 L133.389,165.827 L131.540,166.845 L129.667,167.817 L127.770,168.743 L125.851,169.622 L123.911,170.454 L121.951,171.237 L119.973,171.973 L117.977,172.659 L115.964,173.297 L113.937,173.885 L111.896,174.423 L109.843,174.910 L107.778,175.348 L105.703,175.734 L103.619,176.069 L101.527,176.353 L99.429,176.586 L97.327,176.767 L95.220,176.896 L93.111,176.974 L91.000,177.000 L88.889,176.974 L86.780,176.896 L84.673,176.767 L82.571,176.586 L80.473,176.353 L78.381,176.069 L76.297,175.734 L74.222,175.348 L72.157,174.910 L70.104,174.423 L68.063,173.885 L66.036,173.297 L64.023,172.659 L62.027,171.973 L60.049,171.237 L58.089,170.454 L56.149,169.622 L54.230,168.743 L52.333,167.817 L50.460,166.845 L48.611,165.827 L46.787,164.765 L44.990,163.657 L43.221,162.506 L41.480,161.312 L39.770,160.076 L38.090,158.798 L36.442,157.479 L34.827,156.120 L33.246,154.722 L31.700,153.285 L30.189,151.811 L28.715,150.300 L27.278,148.754 L25.880,147.173 L24.521,145.558 L23.202,143.910 L21.924,142.230 L20.688,140.520 L19.494,138.779 L18.343,137.010 L17.235,135.213 L16.173,133.389 L15.155,131.540 L14.183,129.667 L13.257,127.770 L12.378,125.851 L11.546,123.911 L10.763,121.951 L10.027,119.973 L9.341,117.977 L8.703,115.964 L8.115,113.937 L7.577,111.896 L7.090,109.843 L6.652,107.778 L6.266,105.703 L5.931,103.619 L5.647,101.527 L5.414,99.429 L5.233,97.327 L5.104,95.220 L5.026,93.111 L5.000,91.000 L5.026,88.889 L5.104,86.780 L5.233,84.673 L5.414,82.571 L5.647,80.473 L5.931,78.381 L6.266,76.297 L6.652,74.222 L7.090,72.157 L7.577,70.104 L8.115,68.063 L8.703,66.036 L9.341,64.023 L10.027,62.027 L10.763,60.049 L11.546,58.089 L12.378,56.149 L13.257,54.230 L14.183,52.333 L15.155,50.460 L16.173,48.611 L17.235,46.787 L18.343,44.990 L19.494,43.221 L20.688,41.480 L21.924,39.770 L23.202,38.090 L24.521,36.442 L25.880,34.827 L27.278,33.246 L28.715,31.700 L30.189,30.189 L31.700,28.715 L33.246,27.278 L34.827,25.880 L36.442,24.521 L38.090,23.202 L39.770,21.924 L41.480,20.688 L43.221,19.494 L44.990,18.343 L46.787,17.235 L48.611,16.173 L50.460,15.155 L52.333,14.183 L54.230,13.257 L56.149,12.378 L58.089,11.546 L60.049,10.763 L62.027,10.027 L64.023,9.341 L66.036,8.703 L68.063,8.115 L70.104,7.577 L72.157,7.090 L74.222,6.652 L76.297,6.266 L78.381,5.931 L80.473,5.647 L82.571,5.414 L84.673,5.233 L86.780,5.104 L88.889,5.026 L91.000,5.000 L93.111,5.026 L95.220,5.104 L97.327,5.233 L99.429,5.414 L101.527,5.647 L103.619,5.931 L105.703,6.266 L107.778,6.652 L109.843,7.090 L111.896,7.577 L113.937,8.115 L115.964,8.703 L117.977,9.341 L119.973,10.027 L121.951,10.763 L123.911,11.546 L125.851,12.378 L127.770,13.257 L129.667,14.183 L131.540,15.155 L133.389,16.173 L135.213,17.235 L137.010,18.343 L138.779,19.494 L140.520,20.688 L142.230,21.924 L143.910,23.202 L145.558,24.521 L147.173,25.880 L148.754,27.278 L150.300,28.715 L151.811,30.189 L153.285,31.700 L154.722,33.246 L156.120,34.827 L157.479,36.442 L158.798,38.090 L160.076,39.770 L161.312,41.480 L162.506,43.221 L163.657,44.990 L164.765,46.787 L165.827,48.611 L166.845,50.460 L167.817,52.333 L168.743,54.230 L169.622,56.149 L170.454,58.089 L171.237,60.049 L171.973,62.027 L172.659,64.023 L173.297,66.036 L173.885,68.063 L174.423,70.104 L174.910,72.157 L175.348,74.222 L175.734,76.297 L176.069,78.381 L176.353,80.473 L176.586,82.571 L176.767,84.673 L176.896,86.780 L176.974,88.889 L177.000,91.000Z M85.750,116.800 L85.736,116.648 L85.693,116.502 L85.623,116.367 L85.529,116.248 L85.414,116.148 L85.282,116.072 L85.138,116.022 L84.759,115.931 L84.752,115.929 L84.352,115.825 L84.345,115.823 L83.946,115.713 L83.940,115.711 L83.543,115.594 L83.537,115.592 L83.141,115.469 L83.135,115.467 L82.742,115.337 L82.736,115.335 L82.345,115.199 L82.339,115.197 L81.950,115.054 L81.944,115.052 L81.558,114.903 L81.552,114.900 L81.168,114.745 L81.162,114.742 L80.781,114.581 L80.775,114.578 L80.396,114.411 L80.390,114.408 L80.015,114.234 L80.009,114.231 L79.636,114.051 L79.630,114.048 L79.260,113.862 L79.255,113.859 L78.888,113.667 L78.882,113.664 L78.519,113.466 L78.513,113.463 L78.153,113.258 L78.147,113.255 L77.790,113.045 L77.785,113.042 L77.431,112.826 L77.426,112.823 L77.076,112.601 L77.071,112.598 L76.725,112.371 L76.719,112.367 L76.377,112.134 L76.371,112.130 L76.033,111.892 L76.028,111.888 L75.693,111.644 L75.688,111.640 L75.357,111.391 L75.352,111.387 L75.026,111.132 L75.021,111.128 L74.699,110.868 L74.694,110.864 L74.376,110.599 L74.371,110.595 L74.057,110.324 L74.052,110.320 L73.743,110.045 L73.739,110.040 L73.434,109.760 L73.429,109.755 L73.129,109.470 L73.125,109.465 L72.830,109.175 L72.825,109.170 L72.535,108.875 L72.530,108.871 L72.245,108.571 L72.240,108.566 L71.960,108.261 L71.955,108.257 L71.680,107.948 L71.676,107.943 L71.405,107.629 L71.401,107.624 L71.136,107.306 L71.132,107.301 L70.872,106.979 L70.868,106.974 L70.613,106.648 L70.609,106.643 L70.360,106.312 L70.356,106.307 L70.112,105.972 L70.108,105.967 L69.870,105.629 L69.866,105.623 L69.633,105.281 L69.629,105.275 L69.402,104.929 L69.399,104.924 L69.177,104.574 L69.174,104.569 L68.958,104.215 L68.955,104.210 L68.745,103.853 L68.742,103.847 L68.537,103.487 L68.534,103.481 L68.336,103.118 L68.333,103.112 L68.141,102.745 L68.138,102.740 L67.952,102.370 L67.949,102.364 L67.769,101.991 L67.766,101.985 L67.592,101.610 L67.589,101.604 L67.422,101.225 L67.419,101.219 L67.258,100.838 L67.255,100.832 L67.100,100.448 L67.097,100.442 L66.948,100.056 L66.946,100.050 L66.803,99.661 L66.801,99.655 L66.665,99.264 L66.663,99.258 L66.533,98.865 L66.531,98.859 L66.408,98.463 L66.406,98.457 L66.289,98.060 L66.287,98.054 L66.177,97.655 L66.175,97.648 L66.071,97.248 L66.069,97.241 L65.972,96.839 L65.971,96.833 L65.880,96.429 L65.879,96.422 L65.794,96.017 L65.793,96.011 L65.716,95.604 L65.715,95.598 L65.644,95.190 L65.643,95.183 L65.579,94.774 L65.578,94.768 L65.520,94.358 L65.519,94.351 L65.469,93.940 L65.468,93.934 L65.424,93.522 L65.423,93.516 L65.386,93.103 L65.386,93.097 L65.355,92.684 L65.355,92.678 L65.331,92.264 L65.331,92.258 L65.314,91.844 L65.314,91.838 L65.304,91.424 L65.303,91.417 L65.300,91.003 L65.300,90.997 L65.303,90.583 L65.304,90.576 L65.314,90.162 L65.314,90.156 L65.331,89.742 L65.331,89.736 L65.355,89.322 L65.355,89.316 L65.386,88.903 L65.386,88.897 L65.423,88.484 L65.424,88.478 L65.468,88.066 L65.469,88.060 L65.519,87.649 L65.520,87.642 L65.578,87.232 L65.579,87.226 L65.643,86.817 L65.644,86.810 L65.715,86.402 L65.716,86.396 L65.793,85.989 L65.794,85.983 L65.879,85.578 L65.880,85.571 L65.971,85.167 L65.972,85.161 L66.069,84.759 L66.071,84.752 L66.175,84.352 L66.177,84.345 L66.287,83.946 L66.289,83.940 L66.406,83.543 L66.408,83.537 L66.531,83.141 L66.533,83.135 L66.663,82.742 L66.665,82.736 L66.801,82.345 L66.803,82.339 L66.946,81.950 L66.948,81.944 L67.097,81.558 L67.100,81.552 L67.255,81.168 L67.258,81.162 L67.419,80.781 L67.422,80.775 L67.589,80.396 L67.592,80.390 L67.766,80.015 L67.769,80.009 L67.949,79.636 L67.952,79.630 L68.138,79.260 L68.141,79.255 L68.333,78.888 L68.336,78.882 L68.534,78.519 L68.537,78.513 L68.742,78.153 L68.745,78.147 L68.955,77.790 L68.958,77.785 L69.174,77.431 L69.177,77.426 L69.399,77.076 L69.402,77.071 L69.629,76.725 L69.633,76.719 L69.866,76.377 L69.870,76.371 L70.108,76.033 L70.112,76.028 L70.356,75.693 L70.360,75.688 L70.609,75.357 L70.613,75.352 L70.868,75.026 L70.872,75.021 L71.132,74.699 L71.136,74.694 L71.401,74.376 L71.405,74.371 L71.676,74.057 L71.680,74.052 L71.955,73.743 L71.960,73.739 L72.240,73.434 L72.245,73.429 L72.530,73.129 L72.535,73.125 L72.825,72.830 L72.830,72.825 L73.125,72.535 L73.129,72.530 L73.429,72.245 L73.434,72.240 L73.739,71.960 L73.743,71.955 L74.052,71.680 L74.057,71.676 L74.371,71.405 L74.376,71.401 L74.694,71.136 L74.699,71.132 L75.021,70.872 L75.026,70.868 L75.352,70.613 L75.357,70.609 L75.688,70.360 L75.693,70.356 L76.028,70.112 L76.033,70.108 L76.371,69.870 L76.377,69.866 L76.719,69.633 L76.725,69.629 L77.071,69.402 L77.076,69.399 L77.426,69.177 L77.431,69.174 L77.785,68.958 L77.790,68.955 L78.147,68.745 L78.153,68.742 L78.513,68.537 L78.519,68.534 L78.882,68.336 L78.888,68.333 L79.255,68.141 L79.260,68.138 L79.630,67.952 L79.636,67.949 L80.009,67.769 L80.015,67.766 L80.390,67.592 L80.396,67.589 L80.775,67.422 L80.781,67.419 L81.162,67.258 L81.168,67.255 L81.552,67.100 L81.558,67.097 L81.944,66.948 L81.950,66.946 L82.339,66.803 L82.345,66.801 L82.736,66.665 L82.742,66.663 L83.135,66.533 L83.141,66.531 L83.537,66.408 L83.543,66.406 L83.940,66.289 L83.946,66.287 L84.345,66.177 L84.352,66.175 L84.752,66.071 L84.759,66.069 L85.138,65.978 L85.282,65.928 L85.414,65.852 L85.529,65.752 L85.623,65.633 L85.693,65.498 L85.736,65.352 L85.750,65.200 L85.750,59.889 L85.754,59.854 L85.789,59.850 L96.211,59.850 L96.246,59.854 L96.250,59.889 L96.250,65.200 L96.264,65.352 L96.307,65.498 L96.377,65.633 L96.471,65.752 L96.586,65.852 L96.718,65.928 L96.862,65.978 L97.241,66.069 L97.248,66.071 L97.648,66.175 L97.655,66.177 L98.054,66.287 L98.060,66.289 L98.457,66.406 L98.463,66.408 L98.859,66.531 L98.865,66.533 L99.258,66.663 L99.264,66.665 L99.655,66.801 L99.661,66.803 L100.050,66.946 L100.056,66.948 L100.442,67.097 L100.448,67.100 L100.832,67.255 L100.838,67.258 L101.219,67.419 L101.225,67.422 L101.604,67.589 L101.610,67.592 L101.985,67.766 L101.991,67.769 L102.364,67.949 L102.370,67.952 L102.740,68.138 L102.745,68.141 L103.112,68.333 L103.118,68.336 L103.481,68.534 L103.487,68.537 L103.847,68.742 L103.853,68.745 L104.210,68.955 L104.215,68.958 L104.569,69.174 L104.574,69.177 L104.924,69.399 L104.929,69.402 L105.275,69.629 L105.281,69.633 L105.623,69.866 L105.629,69.870 L105.967,70.108 L105.972,70.112 L106.307,70.356 L106.312,70.360 L106.643,70.609 L106.648,70.613 L106.974,70.868 L106.979,70.872 L107.301,71.132 L107.306,71.136 L107.624,71.401 L107.629,71.405 L107.943,71.676 L107.948,71.680 L108.257,71.955 L108.261,71.960 L108.566,72.240 L108.571,72.245 L108.871,72.530 L108.875,72.535 L109.170,72.825 L109.175,72.830 L109.465,73.125 L109.470,73.129 L109.755,73.429 L109.760,73.434 L110.040,73.739 L110.045,73.743 L110.320,74.052 L110.324,74.057 L110.595,74.371 L110.599,74.376 L110.864,74.694 L110.868,74.699 L111.128,75.021 L111.132,75.026 L111.387,75.352 L111.391,75.357 L111.640,75.688 L111.644,75.693 L111.888,76.028 L111.892,76.033 L112.130,76.371 L112.134,76.377 L112.367,76.719 L112.371,76.725 L112.598,77.071 L112.601,77.076 L112.823,77.426 L112.826,77.431 L113.042,77.785 L113.045,77.790 L113.255,78.147 L113.258,78.153 L113.463,78.513 L113.466,78.519 L113.664,78.882 L113.667,78.888 L113.859,79.255 L113.862,79.260 L114.048,79.630 L114.051,79.636 L114.231,80.009 L114.234,80.015 L114.408,80.390 L114.411,80.396 L114.578,80.775 L114.581,80.781 L114.742,81.162 L114.745,81.168 L114.900,81.552 L114.903,81.558 L115.052,81.944 L115.054,81.950 L115.197,82.339 L115.199,82.345 L115.335,82.736 L115.337,82.742 L115.467,83.135 L115.469,83.141 L115.592,83.537 L115.594,83.543 L115.711,83.940 L115.713,83.946 L115.823,84.345 L115.825,84.352 L115.929,84.752 L115.931,84.759 L116.028,85.161 L116.029,85.167 L116.120,85.571 L116.121,85.578 L116.206,85.983 L116.207,85.989 L116.284,86.396 L116.285,86.402 L116.356,86.810 L116.357,86.817 L116.421,87.226 L116.422,87.232 L116.480,87.642 L116.481,87.649 L116.531,88.060 L116.532,88.066 L116.576,88.478 L116.577,88.484 L116.614,88.897 L116.614,88.903 L116.645,89.316 L116.645,89.322 L116.669,89.736 L116.669,89.742 L116.686,90.156 L116.686,90.162 L116.696,90.576 L116.697,90.583 L116.700,90.997 L116.700,91.003 L116.697,91.417 L116.696,91.424 L116.686,91.838 L116.686,91.844 L116.669,92.258 L116.669,92.264 L116.645,92.678 L116.645,92.684 L116.614,93.097 L116.614,93.103 L116.577,93.516 L116.576,93.522 L116.532,93.934 L116.531,93.940 L116.481,94.351 L116.480,94.358 L116.422,94.768 L116.421,94.774 L116.357,95.183 L116.356,95.190 L116.285,95.598 L116.284,95.604 L116.207,96.011 L116.206,96.017 L116.121,96.422 L116.120,96.429 L116.029,96.833 L116.028,96.839 L115.931,97.241 L115.929,97.248 L115.825,97.648 L115.823,97.655 L115.713,98.054 L115.711,98.060 L115.594,98.457 L115.592,98.463 L115.469,98.859 L115.467,98.865 L115.337,99.258 L115.335,99.264 L115.199,99.655 L115.197,99.661 L115.054,100.050 L115.052,100.056 L114.903,100.442 L114.900,100.448 L114.745,100.832 L114.742,100.838 L114.581,101.219 L114.578,101.225 L114.411,101.604 L114.408,101.610 L114.234,101.985 L114.231,101.991 L114.051,102.364 L114.048,102.370 L113.862,102.740 L113.859,102.745 L113.667,103.112 L113.664,103.118 L113.466,103.481 L113.463,103.487 L113.258,103.847 L113.255,103.853 L113.045,104.210 L113.042,104.215 L112.826,104.569 L112.823,104.574 L112.601,104.924 L112.598,104.929 L112.371,105.275 L112.367,105.281 L112.134,105.623 L112.130,105.629 L111.892,105.967 L111.888,105.972 L111.644,106.307 L111.640,106.312 L111.391,106.643 L111.387,106.648 L111.132,106.974 L111.128,106.979 L110.868,107.301 L110.864,107.306 L110.599,107.624 L110.595,107.629 L110.324,107.943 L110.320,107.948 L110.045,108.257 L110.040,108.261 L109.760,108.566 L109.755,108.571 L109.470,108.871 L109.465,108.875 L109.175,109.170 L109.170,109.175 L108.875,109.465 L108.871,109.470 L108.571,109.755 L108.566,109.760 L108.261,110.040 L108.257,110.045 L107.948,110.320 L107.943,110.324 L107.629,110.595 L107.624,110.599 L107.306,110.864 L107.301,110.868 L106.979,111.128 L106.974,111.132 L106.648,111.387 L106.643,111.391 L106.312,111.640 L106.307,111.644 L105.972,111.888 L105.967,111.892 L105.629,112.130 L105.623,112.134 L105.281,112.367 L105.275,112.371 L104.929,112.598 L104.924,112.601 L104.574,112.823 L104.569,112.826 L104.215,113.042 L104.210,113.045 L103.853,113.255 L103.847,113.258 L103.487,113.463 L103.481,113.466 L103.118,113.664 L103.112,113.667 L102.745,113.859 L102.740,113.862 L102.370,114.048 L102.364,114.051 L101.991,114.231 L101.985,114.234 L101.610,114.408 L101.604,114.411 L101.225,114.578 L101.219,114.581 L100.838,114.742 L100.832,114.745 L100.448,114.900 L100.442,114.903 L100.056,115.052 L100.050,115.054 L99.661,115.197 L99.655,115.199 L99.264,115.335 L99.258,115.337 L98.865,115.467 L98.859,115.469 L98.463,115.592 L98.457,115.594 L98.060,115.711 L98.054,115.713 L97.655,115.823 L97.648,115.825 L97.248,115.929 L97.241,115.931 L96.862,116.022 L96.718,116.072 L96.586,116.148 L96.471,116.248 L96.377,116.367 L96.307,116.502 L96.264,116.648 L96.250,116.800 L96.250,122.111 L96.246,122.146 L96.211,122.150 L85.789,122.150 L85.754,122.146 L85.750,122.111 L85.750,116.800Z"/><circle cx="91.000" cy="30.000" r="5.000"/><circle cx="55.150" cy="41.650" r="12.000"/><circle cx="32.990" cy="72.150" r="12.000"/><circle cx="32.990" cy="109.850" r="12.000"/><circle cx="55.150" cy="140.350" r="12.000"/><circle cx="91.000" cy="152.000" r="12.000"/><circle cx="126.850" cy="140.350" r="12.000"/><circle cx="149.010" cy="109.850" r="12.000"/><circle cx="149.010" cy="72.150" r="12.000"/><circle cx="126.850" cy="41.650" r="12.000"/></g></svg>