<svg xmlns="http://www.w3.org/2000/svg" width="205.00mm" height="272.00mm" viewBox="0 0 205.000 271.999"><title>17b AHP placa_principal · A36 25,4 mm · FABRICAR × 1</title><g fill="none" stroke="#ff0000" stroke-width="0.1"><path d="M51.100,111.383 L51.022,110.597 L50.791,109.841 L50.416,109.146 L49.912,108.538 L49.297,108.041 L48.598,107.674 L47.839,107.452 L47.052,107.383 L46.267,107.471 L45.514,107.711 L44.824,108.094 L43.278,109.067 L42.492,109.504 L40.994,110.240 L39.452,110.877 L37.933,111.392 L36.322,111.826 L35.443,112.016 L33.861,112.277 L32.200,112.443 L30.533,112.499 L28.865,112.447 L27.968,112.373 L26.379,112.164 L24.742,111.841 L23.129,111.411 L21.548,110.877 L20.712,110.546 L19.193,109.855 L17.779,109.100 L17.007,108.637 L15.674,107.746 L14.349,106.732 L13.093,105.634 L12.446,105.008 L11.350,103.838 L10.290,102.549 L9.754,101.826 L8.863,100.493 L8.027,99.049 L7.616,98.249 L6.929,96.728 L6.364,95.228 L5.861,93.568 L5.484,91.943 L5.223,90.361 L5.127,89.532 L5.013,87.802 L5.000,35.016 L5.053,33.365 L5.214,31.704 L5.346,30.814 L5.674,29.178 L6.108,27.567 L6.623,26.048 L6.954,25.212 L7.645,23.693 L8.400,22.279 L9.280,20.860 L10.250,19.503 L10.809,18.798 L11.866,17.593 L13.045,16.411 L13.712,15.807 L15.003,14.750 L16.306,13.816 L17.062,13.329 L17.779,12.900 L19.193,12.145 L20.712,11.454 L22.334,10.843 L23.932,10.361 L25.557,9.984 L27.139,9.723 L27.968,9.627 L29.698,9.513 L31.367,9.515 L33.032,9.627 L34.686,9.846 L36.322,10.174 L37.933,10.608 L39.452,11.123 L40.228,11.429 L41.749,12.116 L43.221,12.900 L44.824,13.906 L45.514,14.289 L46.267,14.529 L47.052,14.617 L47.839,14.548 L48.598,14.326 L49.297,13.959 L49.912,13.462 L50.416,12.854 L50.791,12.159 L51.022,11.403 L51.100,10.617 L51.100,5.197 L51.118,5.018 L51.297,5.000 L153.703,5.000 L153.882,5.018 L153.900,5.197 L153.900,10.617 L153.978,11.403 L154.209,12.159 L154.584,12.854 L155.088,13.462 L155.703,13.959 L156.402,14.326 L157.161,14.548 L157.948,14.617 L158.733,14.529 L159.486,14.289 L160.176,13.906 L161.062,13.329 L162.451,12.527 L163.251,12.116 L164.712,11.454 L165.548,11.123 L167.067,10.608 L167.932,10.361 L169.493,9.997 L171.204,9.714 L172.800,9.557 L173.698,9.513 L175.302,9.513 L176.200,9.557 L177.796,9.714 L178.686,9.846 L180.258,10.159 L181.871,10.589 L182.728,10.864 L184.228,11.429 L185.054,11.787 L186.549,12.527 L187.938,13.329 L188.694,13.816 L190.049,14.790 L191.288,15.807 L191.955,16.411 L193.089,17.545 L193.693,18.212 L194.710,19.451 L195.246,20.174 L196.137,21.507 L196.973,22.951 L197.740,24.506 L198.377,26.048 L198.911,27.629 L199.341,29.242 L199.516,30.057 L199.777,31.639 L199.943,33.300 L200.000,34.984 L199.985,87.867 L199.880,89.467 L199.664,91.121 L199.503,92.007 L199.139,93.568 L198.892,94.433 L198.377,95.952 L198.046,96.788 L197.384,98.249 L196.973,99.049 L196.137,100.493 L195.246,101.826 L194.710,102.549 L193.650,103.838 L192.554,105.008 L191.907,105.634 L190.702,106.691 L189.997,107.250 L188.694,108.184 L187.278,109.067 L186.492,109.504 L185.054,110.213 L183.513,110.854 L182.666,111.157 L181.131,111.622 L180.258,111.841 L178.621,112.164 L177.032,112.373 L175.367,112.485 L174.467,112.499 L172.800,112.443 L171.139,112.277 L169.557,112.016 L168.678,111.826 L167.129,111.411 L166.272,111.136 L164.772,110.571 L163.946,110.213 L162.451,109.473 L161.062,108.671 L160.176,108.094 L159.486,107.711 L158.733,107.471 L157.948,107.383 L157.161,107.452 L156.402,107.674 L155.703,108.041 L155.088,108.538 L154.584,109.146 L154.209,109.841 L153.978,110.597 L153.900,111.383 L153.886,254.874 L153.754,256.212 L153.645,256.826 L153.366,257.939 L152.913,259.205 L152.422,260.243 L152.117,260.786 L151.371,261.904 L150.985,262.394 L150.214,263.245 L149.218,264.147 L148.296,264.831 L147.771,265.167 L146.585,265.801 L145.524,266.240 L144.933,266.438 L143.629,266.764 L143.015,266.869 L141.872,266.981 L140.528,266.981 L139.385,266.869 L138.771,266.764 L137.467,266.438 L136.876,266.240 L135.815,265.801 L134.629,265.167 L133.675,264.529 L133.182,264.147 L132.186,263.245 L131.415,262.394 L131.029,261.904 L130.283,260.786 L129.741,259.774 L129.487,259.205 L129.034,257.939 L128.755,256.826 L128.646,256.212 L128.558,255.496 L128.489,254.300 L128.500,121.000 L128.423,120.220 L128.196,119.469 L127.826,118.778 L127.328,118.172 L126.722,117.674 L126.031,117.304 L125.280,117.077 L124.500,117.000 L80.500,117.000 L79.720,117.077 L78.969,117.304 L78.278,117.674 L77.672,118.172 L77.174,118.778 L76.804,119.469 L76.577,120.220 L76.500,121.000 L76.500,254.275 L76.442,255.496 L76.354,256.212 L76.130,257.338 L75.938,258.033 L75.551,259.114 L75.259,259.774 L74.667,260.871 L74.029,261.825 L73.585,262.394 L72.814,263.245 L72.292,263.742 L71.404,264.471 L70.814,264.886 L69.829,265.476 L69.185,265.801 L68.124,266.240 L67.439,266.466 L66.326,266.745 L65.615,266.869 L64.472,266.981 L63.751,266.999 L62.604,266.942 L61.888,266.854 L60.762,266.630 L59.568,266.273 L58.895,266.013 L57.857,265.522 L57.229,265.167 L56.275,264.529 L55.706,264.085 L54.855,263.314 L54.015,262.394 L53.571,261.825 L52.933,260.871 L52.578,260.243 L52.087,259.205 L51.634,257.939 L51.355,256.826 L51.231,256.115 L51.119,254.972 L51.100,254.275 L51.100,111.383Z"/><circle cx="30.500" cy="87.000" r="12.500"/><circle cx="30.500" cy="35.000" r="12.500"/><circle cx="174.500" cy="87.000" r="12.500"/><circle cx="174.500" cy="35.000" r="12.500"/></g></svg>