ISO-10303-21;
HEADER;
FILE_DESCRIPTION(('Open CASCADE Model'),'2;1');
FILE_NAME('Open CASCADE Shape Model','2026-09-24T22:28:53',('Author'),(
    'Open CASCADE'),'Open CASCADE STEP processor 7.9','Open CASCADE 7.9'
  ,'Unknown');
FILE_SCHEMA(('AUTOMOTIVE_DESIGN { 1 0 10303 214 1 1 1 1 }'));
ENDSEC;
DATA;
#1 = APPLICATION_PROTOCOL_DEFINITION('international standard',
  'automotive_design',2000,#2);
#2 = APPLICATION_CONTEXT(
  'core data for automotive mechanical design processes');
#3 = SHAPE_DEFINITION_REPRESENTATION(#4,#10);
#4 = PRODUCT_DEFINITION_SHAPE('','',#5);
#5 = PRODUCT_DEFINITION('design','',#6,#9);
#6 = PRODUCT_DEFINITION_FORMATION('','',#7);
#7 = PRODUCT('Open CASCADE STEP translator 7.9 3',
  'Open CASCADE STEP translator 7.9 3','',(#8));
#8 = PRODUCT_CONTEXT('',#2,'mechanical');
#9 = PRODUCT_DEFINITION_CONTEXT('part definition',#2,'design');
#10 = ADVANCED_BREP_SHAPE_REPRESENTATION('',(#11,#15),#999);
#11 = AXIS2_PLACEMENT_3D('',#12,#13,#14);
#12 = CARTESIAN_POINT('',(0.,0.,0.));
#13 = DIRECTION('',(0.,0.,1.));
#14 = DIRECTION('',(1.,0.,-0.));
#15 = MANIFOLD_SOLID_BREP('',#16);
#16 = CLOSED_SHELL('',(#17,#837,#887,#914,#964,#991,#995));
#17 = ADVANCED_FACE('',(#18,#105,#300,#471,#642),#31,.T.);
#18 = FACE_BOUND('',#19,.F.);
#19 = EDGE_LOOP('',(#20,#54,#77,#104));
#20 = ORIENTED_EDGE('',*,*,#21,.T.);
#21 = EDGE_CURVE('',#22,#22,#24,.T.);
#22 = VERTEX_POINT('',#23);
#23 = CARTESIAN_POINT('',(12.7,-53.78,0.));
#24 = SURFACE_CURVE('',#25,(#30,#42),.PCURVE_S1.);
#25 = CIRCLE('',#26,12.7);
#26 = AXIS2_PLACEMENT_3D('',#27,#28,#29);
#27 = CARTESIAN_POINT('',(0.,-53.78,0.));
#28 = DIRECTION('',(0.,-1.,0.));
#29 = DIRECTION('',(1.,0.,0.));
#30 = PCURVE('',#31,#36);
#31 = CYLINDRICAL_SURFACE('',#32,12.7);
#32 = AXIS2_PLACEMENT_3D('',#33,#34,#35);
#33 = CARTESIAN_POINT('',(0.,0.,0.));
#34 = DIRECTION('',(-0.,1.,-0.));
#35 = DIRECTION('',(1.,0.,0.));
#36 = DEFINITIONAL_REPRESENTATION('',(#37),#41);
#37 = LINE('',#38,#39);
#38 = CARTESIAN_POINT('',(-0.,-53.78));
#39 = VECTOR('',#40,1.);
#40 = DIRECTION('',(-1.,0.));
#41 = ( GEOMETRIC_REPRESENTATION_CONTEXT(2) 
PARAMETRIC_REPRESENTATION_CONTEXT() REPRESENTATION_CONTEXT('2D SPACE',''
  ) );
#42 = PCURVE('',#43,#48);
#43 = PLANE('',#44);
#44 = AXIS2_PLACEMENT_3D('',#45,#46,#47);
#45 = CARTESIAN_POINT('',(0.,-53.78,1.204325410458E-15));
#46 = DIRECTION('',(-0.,-1.,-0.));
#47 = DIRECTION('',(0.,0.,-1.));
#48 = DEFINITIONAL_REPRESENTATION('',(#49),#53);
#49 = CIRCLE('',#50,12.7);
#50 = AXIS2_PLACEMENT_2D('',#51,#52);
#51 = CARTESIAN_POINT('',(1.204325410458E-15,0.));
#52 = DIRECTION('',(0.,1.));
#53 = ( GEOMETRIC_REPRESENTATION_CONTEXT(2) 
PARAMETRIC_REPRESENTATION_CONTEXT() REPRESENTATION_CONTEXT('2D SPACE',''
  ) );
#54 = ORIENTED_EDGE('',*,*,#55,.F.);
#55 = EDGE_CURVE('',#56,#22,#58,.T.);
#56 = VERTEX_POINT('',#57);
#57 = CARTESIAN_POINT('',(12.7,53.78,0.));
#58 = SEAM_CURVE('',#59,(#63,#70),.PCURVE_S1.);
#59 = LINE('',#60,#61);
#60 = CARTESIAN_POINT('',(12.7,53.78,0.));
#61 = VECTOR('',#62,1.);
#62 = DIRECTION('',(0.,-1.,0.));
#63 = PCURVE('',#31,#64);
#64 = DEFINITIONAL_REPRESENTATION('',(#65),#69);
#65 = LINE('',#66,#67);
#66 = CARTESIAN_POINT('',(-6.28318530718,53.78));
#67 = VECTOR('',#68,1.);
#68 = DIRECTION('',(-0.,-1.));
#69 = ( GEOMETRIC_REPRESENTATION_CONTEXT(2) 
PARAMETRIC_REPRESENTATION_CONTEXT() REPRESENTATION_CONTEXT('2D SPACE',''
  ) );
#70 = PCURVE('',#31,#71);
#71 = DEFINITIONAL_REPRESENTATION('',(#72),#76);
#72 = LINE('',#73,#74);
#73 = CARTESIAN_POINT('',(-0.,53.78));
#74 = VECTOR('',#75,1.);
#75 = DIRECTION('',(-0.,-1.));
#76 = ( GEOMETRIC_REPRESENTATION_CONTEXT(2) 
PARAMETRIC_REPRESENTATION_CONTEXT() REPRESENTATION_CONTEXT('2D SPACE',''
  ) );
#77 = ORIENTED_EDGE('',*,*,#78,.F.);
#78 = EDGE_CURVE('',#56,#56,#79,.T.);
#79 = SURFACE_CURVE('',#80,(#85,#92),.PCURVE_S1.);
#80 = CIRCLE('',#81,12.7);
#81 = AXIS2_PLACEMENT_3D('',#82,#83,#84);
#82 = CARTESIAN_POINT('',(0.,53.78,0.));
#83 = DIRECTION('',(0.,-1.,0.));
#84 = DIRECTION('',(1.,0.,0.));
#85 = PCURVE('',#31,#86);
#86 = DEFINITIONAL_REPRESENTATION('',(#87),#91);
#87 = LINE('',#88,#89);
#88 = CARTESIAN_POINT('',(0.,53.78));
#89 = VECTOR('',#90,1.);
#90 = DIRECTION('',(-1.,-0.));
#91 = ( GEOMETRIC_REPRESENTATION_CONTEXT(2) 
PARAMETRIC_REPRESENTATION_CONTEXT() REPRESENTATION_CONTEXT('2D SPACE',''
  ) );
#92 = PCURVE('',#93,#98);
#93 = PLANE('',#94);
#94 = AXIS2_PLACEMENT_3D('',#95,#96,#97);
#95 = CARTESIAN_POINT('',(0.,53.78,1.204325410458E-15));
#96 = DIRECTION('',(-0.,-1.,-0.));
#97 = DIRECTION('',(0.,0.,-1.));
#98 = DEFINITIONAL_REPRESENTATION('',(#99),#103);
#99 = CIRCLE('',#100,12.7);
#100 = AXIS2_PLACEMENT_2D('',#101,#102);
#101 = CARTESIAN_POINT('',(1.204325410458E-15,0.));
#102 = DIRECTION('',(0.,1.));
#103 = ( GEOMETRIC_REPRESENTATION_CONTEXT(2) 
PARAMETRIC_REPRESENTATION_CONTEXT() REPRESENTATION_CONTEXT('2D SPACE',''
  ) );
#104 = ORIENTED_EDGE('',*,*,#55,.T.);
#105 = FACE_BOUND('',#106,.F.);
#106 = EDGE_LOOP('',(#107));
#107 = ORIENTED_EDGE('',*,*,#108,.T.);
#108 = EDGE_CURVE('',#109,#109,#111,.T.);
#109 = VERTEX_POINT('',#110);
#110 = CARTESIAN_POINT('',(2.6,-46.78,12.43100961306));
#111 = SURFACE_CURVE('',#112,(#171,#233),.PCURVE_S1.);
#112 = B_SPLINE_CURVE_WITH_KNOTS('',8,(#113,#114,#115,#116,#117,#118,
    #119,#120,#121,#122,#123,#124,#125,#126,#127,#128,#129,#130,#131,
    #132,#133,#134,#135,#136,#137,#138,#139,#140,#141,#142,#143,#144,
    #145,#146,#147,#148,#149,#150,#151,#152,#153,#154,#155,#156,#157,
    #158,#159,#160,#161,#162,#163,#164,#165,#166,#167,#168,#169,#170),
  .UNSPECIFIED.,.T.,.F.,(9,7,7,7,7,7,7,7,9),(0.,0.14436934694,
    0.261775806008,0.379182265076,0.523551612016,0.678073557234,
    0.809516652176,0.900622894817,1.),.UNSPECIFIED.);
#113 = CARTESIAN_POINT('',(2.6,-46.78,12.43100961306));
#114 = CARTESIAN_POINT('',(2.6,-46.53503716804,12.43100961306));
#115 = CARTESIAN_POINT('',(2.573624294753,-46.2903929797,12.436526140861
    ));
#116 = CARTESIAN_POINT('',(2.52098753958,-46.04767747666,12.4475356143)
  );
#117 = CARTESIAN_POINT('',(2.441696146761,-45.80864248875,
    12.463792236486));
#118 = CARTESIAN_POINT('',(2.3349554361,-45.57537442534,12.484816372603)
  );
#119 = CARTESIAN_POINT('',(2.199670418784,-45.35052553542,
    12.509808466046));
#120 = CARTESIAN_POINT('',(2.034581655658,-45.13762639348,
    12.537533945198));
#121 = CARTESIAN_POINT('',(1.678998630715,-44.78204336854,
    12.589556844645));
#122 = CARTESIAN_POINT('',(1.495633623696,-44.63029824609,
    12.614020924416));
#123 = CARTESIAN_POINT('',(1.288979813458,-44.49249356519,
    12.638309562306));
#124 = CARTESIAN_POINT('',(1.060813525294,-44.37413816642,
    12.660748314039));
#125 = CARTESIAN_POINT('',(0.81390823428,-44.28002077257,12.679524104958
    ));
#126 = CARTESIAN_POINT('',(0.551859067859,-44.21420017693,12.69299813162
    ));
#127 = CARTESIAN_POINT('',(0.278937505777,-44.18,12.7));
#128 = CARTESIAN_POINT('',(-0.278937505777,-44.18,12.7));
#129 = CARTESIAN_POINT('',(-0.551859067859,-44.21420017693,
    12.69299813162));
#130 = CARTESIAN_POINT('',(-0.81390823428,-44.28002077257,
    12.679524104958));
#131 = CARTESIAN_POINT('',(-1.060813525295,-44.37413816642,
    12.660748314039));
#132 = CARTESIAN_POINT('',(-1.288979813458,-44.49249356519,
    12.638309562306));
#133 = CARTESIAN_POINT('',(-1.495633623696,-44.63029824609,
    12.614020924416));
#134 = CARTESIAN_POINT('',(-1.678998630714,-44.78204336854,
    12.589556844645));
#135 = CARTESIAN_POINT('',(-2.034581655659,-45.13762639348,
    12.537533945198));
#136 = CARTESIAN_POINT('',(-2.199670418783,-45.35052553542,
    12.509808466046));
#137 = CARTESIAN_POINT('',(-2.334955436101,-45.57537442534,
    12.484816372603));
#138 = CARTESIAN_POINT('',(-2.441696146761,-45.80864248875,
    12.463792236485));
#139 = CARTESIAN_POINT('',(-2.52098753958,-46.04767747666,12.4475356143)
  );
#140 = CARTESIAN_POINT('',(-2.573624294753,-46.2903929797,
    12.436526140861));
#141 = CARTESIAN_POINT('',(-2.6,-46.53503716804,12.43100961306));
#142 = CARTESIAN_POINT('',(-2.6,-47.0421895444,12.43100961306));
#143 = CARTESIAN_POINT('',(-2.569782883735,-47.30394520359,
    12.437329419782));
#144 = CARTESIAN_POINT('',(-2.50952539176,-47.56332914364,
    12.449933429109));
#145 = CARTESIAN_POINT('',(-2.418680878847,-47.81825811789,
    12.46850340303));
#146 = CARTESIAN_POINT('',(-2.296195950775,-48.06611064904,
    12.492416924868));
#147 = CARTESIAN_POINT('',(-2.140638409284,-48.30345651528,
    12.520612508874));
#148 = CARTESIAN_POINT('',(-1.950397681661,-48.5256624476,
    12.551418738191));
#149 = CARTESIAN_POINT('',(-1.531636336623,-48.89665262639,
    12.608799915948));
#150 = CARTESIAN_POINT('',(-1.305689964086,-49.05799110227,
    12.636332052234));
#151 = CARTESIAN_POINT('',(-1.04873083812,-49.1979440272,12.662627925549
    ));
#152 = CARTESIAN_POINT('',(-0.765775981704,-49.3070114278,
    12.684716438559));
#153 = CARTESIAN_POINT('',(-0.463962929057,-49.37833419895,
    12.699697421297));
#154 = CARTESIAN_POINT('',(-0.151671345882,-49.40769243702,
    12.705784511349));
#155 = CARTESIAN_POINT('',(0.162132661994,-49.39358554531,
    12.702669091139));
#156 = CARTESIAN_POINT('',(0.68112641806,-49.29847640969,12.683503814851
    ));
#157 = CARTESIAN_POINT('',(0.889875608388,-49.23937165462,
    12.671724872326));
#158 = CARTESIAN_POINT('',(1.092678258565,-49.160513201,12.656333508862)
  );
#159 = CARTESIAN_POINT('',(1.287373673479,-49.062607963,12.637877039298)
  );
#160 = CARTESIAN_POINT('',(1.471900908133,-48.94664014718,12.6170994081)
  );
#161 = CARTESIAN_POINT('',(1.644333191013,-48.81385906792,
    12.594889949661));
#162 = CARTESIAN_POINT('',(1.802918736348,-48.66576869184,
    12.572210866749));
#163 = CARTESIAN_POINT('',(2.102338059975,-48.32779414195,
    12.525779938149));
#164 = CARTESIAN_POINT('',(2.240358555396,-48.13521712259,
    12.502101591098));
#165 = CARTESIAN_POINT('',(2.358132675405,-47.92865558616,
    12.480197001375));
#166 = CARTESIAN_POINT('',(2.454020119929,-47.71064241746,
    12.461261996252));
#167 = CARTESIAN_POINT('',(2.526784757529,-47.48390025632,
    12.446322768725));
#168 = CARTESIAN_POINT('',(2.575589458313,-47.25126979368,
    12.436115221669));
#169 = CARTESIAN_POINT('',(2.6,-47.01565518432,12.43100961306));
#170 = CARTESIAN_POINT('',(2.6,-46.78,12.43100961306));
#171 = PCURVE('',#31,#172);
#172 = DEFINITIONAL_REPRESENTATION('',(#173),#232);
#173 = B_SPLINE_CURVE_WITH_KNOTS('',8,(#174,#175,#176,#177,#178,#179,
    #180,#181,#182,#183,#184,#185,#186,#187,#188,#189,#190,#191,#192,
    #193,#194,#195,#196,#197,#198,#199,#200,#201,#202,#203,#204,#205,
    #206,#207,#208,#209,#210,#211,#212,#213,#214,#215,#216,#217,#218,
    #219,#220,#221,#222,#223,#224,#225,#226,#227,#228,#229,#230,#231),
  .UNSPECIFIED.,.T.,.F.,(9,7,7,7,7,7,7,7,9),(0.,0.14436934694,
    0.261775806008,0.379182265076,0.523551612016,0.678073557234,
    0.809516652176,0.900622894817,1.),.UNSPECIFIED.);
#174 = CARTESIAN_POINT('',(-1.36461418179,-46.78));
#175 = CARTESIAN_POINT('',(-1.36461418179,-46.53503716804));
#176 = CARTESIAN_POINT('',(-1.366735946047,-46.2903929797));
#177 = CARTESIAN_POINT('',(-1.370970268498,-46.04767747666));
#178 = CARTESIAN_POINT('',(-1.377343487492,-45.80864248875));
#179 = CARTESIAN_POINT('',(-1.385909189025,-45.57537442534));
#180 = CARTESIAN_POINT('',(-1.396740008794,-45.35052553542));
#181 = CARTESIAN_POINT('',(-1.409918229997,-45.13762639348));
#182 = CARTESIAN_POINT('',(-1.438214956902,-44.78204336854));
#183 = CARTESIAN_POINT('',(-1.452779903918,-44.63029824609));
#184 = CARTESIAN_POINT('',(-1.469160483667,-44.49249356519));
#185 = CARTESIAN_POINT('',(-1.487205972279,-44.37413816642));
#186 = CARTESIAN_POINT('',(-1.506692971786,-44.28002077257));
#187 = CARTESIAN_POINT('',(-1.527342840715,-44.21420017693));
#188 = CARTESIAN_POINT('',(-1.548832743663,-44.18));
#189 = CARTESIAN_POINT('',(-1.592759909927,-44.18));
#190 = CARTESIAN_POINT('',(-1.614249812875,-44.21420017693));
#191 = CARTESIAN_POINT('',(-1.634899681804,-44.28002077257));
#192 = CARTESIAN_POINT('',(-1.654386681311,-44.37413816642));
#193 = CARTESIAN_POINT('',(-1.672432169923,-44.49249356519));
#194 = CARTESIAN_POINT('',(-1.688812749671,-44.63029824609));
#195 = CARTESIAN_POINT('',(-1.703377696688,-44.78204336854));
#196 = CARTESIAN_POINT('',(-1.731674423593,-45.13762639348));
#197 = CARTESIAN_POINT('',(-1.744852644796,-45.35052553542));
#198 = CARTESIAN_POINT('',(-1.755683464565,-45.57537442534));
#199 = CARTESIAN_POINT('',(-1.764249166098,-45.80864248875));
#200 = CARTESIAN_POINT('',(-1.770622385092,-46.04767747666));
#201 = CARTESIAN_POINT('',(-1.774856707543,-46.2903929797));
#202 = CARTESIAN_POINT('',(-1.7769784718,-46.53503716804));
#203 = CARTESIAN_POINT('',(-1.7769784718,-47.0421895444));
#204 = CARTESIAN_POINT('',(-1.774547691249,-47.30394520359));
#205 = CARTESIAN_POINT('',(-1.769700317419,-47.56332914364));
#206 = CARTESIAN_POINT('',(-1.762399383247,-47.81825811789));
#207 = CARTESIAN_POINT('',(-1.752573642603,-48.06611064904));
#208 = CARTESIAN_POINT('',(-1.740128148885,-48.30345651528));
#209 = CARTESIAN_POINT('',(-1.724957938565,-48.5256624476));
#210 = CARTESIAN_POINT('',(-1.691676488326,-48.89665262639));
#211 = CARTESIAN_POINT('',(-1.673755840714,-49.05799110227));
#212 = CARTESIAN_POINT('',(-1.653423585207,-49.1979440272));
#213 = CARTESIAN_POINT('',(-1.63108965285,-49.3070114278));
#214 = CARTESIAN_POINT('',(-1.607316203845,-49.37833419895));
#215 = CARTESIAN_POINT('',(-1.582739238378,-49.40769243702));
#216 = CARTESIAN_POINT('',(-1.558038045853,-49.39358554531));
#217 = CARTESIAN_POINT('',(-1.517144541848,-49.29847640969));
#218 = CARTESIAN_POINT('',(-1.500684558847,-49.23937165462));
#219 = CARTESIAN_POINT('',(-1.48467487551,-49.160513201));
#220 = CARTESIAN_POINT('',(-1.469280876428,-49.062607963));
#221 = CARTESIAN_POINT('',(-1.454663282308,-48.94664014718));
#222 = CARTESIAN_POINT('',(-1.440976065298,-48.81385906792));
#223 = CARTESIAN_POINT('',(-1.428362843437,-48.66576869184));
#224 = CARTESIAN_POINT('',(-1.404504736516,-48.32779414195));
#225 = CARTESIAN_POINT('',(-1.393479635542,-48.13521712259));
#226 = CARTESIAN_POINT('',(-1.384048365174,-47.92865558616));
#227 = CARTESIAN_POINT('',(-1.376352886954,-47.71064241746));
#228 = CARTESIAN_POINT('',(-1.370503897691,-47.48390025632));
#229 = CARTESIAN_POINT('',(-1.366577866032,-47.25126979368));
#230 = CARTESIAN_POINT('',(-1.36461418179,-47.01565518432));
#231 = CARTESIAN_POINT('',(-1.36461418179,-46.78));
#232 = ( GEOMETRIC_REPRESENTATION_CONTEXT(2) 
PARAMETRIC_REPRESENTATION_CONTEXT() REPRESENTATION_CONTEXT('2D SPACE',''
  ) );
#233 = PCURVE('',#234,#239);
#234 = CYLINDRICAL_SURFACE('',#235,2.6);
#235 = AXIS2_PLACEMENT_3D('',#236,#237,#238);
#236 = CARTESIAN_POINT('',(0.,-46.78,0.));
#237 = DIRECTION('',(-0.,-0.,-1.));
#238 = DIRECTION('',(1.,0.,0.));
#239 = DEFINITIONAL_REPRESENTATION('',(#240),#299);
#240 = B_SPLINE_CURVE_WITH_KNOTS('',8,(#241,#242,#243,#244,#245,#246,
    #247,#248,#249,#250,#251,#252,#253,#254,#255,#256,#257,#258,#259,
    #260,#261,#262,#263,#264,#265,#266,#267,#268,#269,#270,#271,#272,
    #273,#274,#275,#276,#277,#278,#279,#280,#281,#282,#283,#284,#285,
    #286,#287,#288,#289,#290,#291,#292,#293,#294,#295,#296,#297,#298),
  .UNSPECIFIED.,.F.,.F.,(9,7,7,7,7,7,7,7,9),(0.,0.14436934694,
    0.261775806008,0.379182265076,0.523551612016,0.678073557234,
    0.809516652176,0.900622894817,1.),.UNSPECIFIED.);
#241 = CARTESIAN_POINT('',(0.,-12.43100961306));
#242 = CARTESIAN_POINT('',(-9.421647383005E-02,-12.43100961306));
#243 = CARTESIAN_POINT('',(-0.188310115715,-12.43652614086));
#244 = CARTESIAN_POINT('',(-0.282937610828,-12.4475356143));
#245 = CARTESIAN_POINT('',(-0.378682489464,-12.46379223648));
#246 = CARTESIAN_POINT('',(-0.476140506514,-12.4848163726));
#247 = CARTESIAN_POINT('',(-0.575932278,-12.50980846604));
#248 = CARTESIAN_POINT('',(-0.678731636018,-12.53753394519));
#249 = CARTESIAN_POINT('',(-0.872143303873,-12.58955684464));
#250 = CARTESIAN_POINT('',(-0.963281313511,-12.61402092441));
#251 = CARTESIAN_POINT('',(-1.057955932437,-12.6383095623));
#252 = CARTESIAN_POINT('',(-1.155605538532,-12.66074831403));
#253 = CARTESIAN_POINT('',(-1.255872874486,-12.67952410495));
#254 = CARTESIAN_POINT('',(-1.358542929243,-12.69299813162));
#255 = CARTESIAN_POINT('',(-1.463512670727,-12.7));
#256 = CARTESIAN_POINT('',(-1.678079982863,-12.7));
#257 = CARTESIAN_POINT('',(-1.783049724347,-12.69299813162));
#258 = CARTESIAN_POINT('',(-1.885719779103,-12.67952410495));
#259 = CARTESIAN_POINT('',(-1.985987115058,-12.66074831403));
#260 = CARTESIAN_POINT('',(-2.083636721152,-12.6383095623));
#261 = CARTESIAN_POINT('',(-2.178311340079,-12.61402092441));
#262 = CARTESIAN_POINT('',(-2.269449349716,-12.58955684464));
#263 = CARTESIAN_POINT('',(-2.462861017572,-12.53753394519));
#264 = CARTESIAN_POINT('',(-2.56566037559,-12.50980846604));
#265 = CARTESIAN_POINT('',(-2.665452147076,-12.4848163726));
#266 = CARTESIAN_POINT('',(-2.762910164125,-12.46379223648));
#267 = CARTESIAN_POINT('',(-2.858655042761,-12.4475356143));
#268 = CARTESIAN_POINT('',(-2.953282537875,-12.43652614086));
#269 = CARTESIAN_POINT('',(-3.04737617976,-12.43100961306));
#270 = CARTESIAN_POINT('',(-3.242434786054,-12.43100961306));
#271 = CARTESIAN_POINT('',(-3.343109722743,-12.43732941978));
#272 = CARTESIAN_POINT('',(-3.444436569378,-12.4499334291));
#273 = CARTESIAN_POINT('',(-3.547150861781,-12.46850340303));
#274 = CARTESIAN_POINT('',(-3.651982733777,-12.49241692486));
#275 = CARTESIAN_POINT('',(-3.759693082221,-12.52061250887));
#276 = CARTESIAN_POINT('',(-3.871134789062,-12.55141873819));
#277 = CARTESIAN_POINT('',(-4.086311466454,-12.60879991594));
#278 = CARTESIAN_POINT('',(-4.192507943849,-12.63633205223));
#279 = CARTESIAN_POINT('',(-4.303651556897,-12.66262792554));
#280 = CARTESIAN_POINT('',(-4.418267961489,-12.68471643855));
#281 = CARTESIAN_POINT('',(-4.535347795888,-12.69969742129));
#282 = CARTESIAN_POINT('',(-4.654079996342,-12.70578451134));
#283 = CARTESIAN_POINT('',(-4.773775076785,-12.70266909113));
#284 = CARTESIAN_POINT('',(-4.976712188664,-12.68350381485));
#285 = CARTESIAN_POINT('',(-5.059782731478,-12.67172487232));
#286 = CARTESIAN_POINT('',(-5.142847367772,-12.65633350886));
#287 = CARTESIAN_POINT('',(-5.225911652265,-12.63787703929));
#288 = CARTESIAN_POINT('',(-5.30898172207,-12.6170994081));
#289 = CARTESIAN_POINT('',(-5.392059940727,-12.59488994966));
#290 = CARTESIAN_POINT('',(-5.47514012967,-12.57221086674));
#291 = CARTESIAN_POINT('',(-5.648805253138,-12.52577993814));
#292 = CARTESIAN_POINT('',(-5.739447768352,-12.50210159109));
#293 = CARTESIAN_POINT('',(-5.830085742192,-12.48019700137));
#294 = CARTESIAN_POINT('',(-5.920709231954,-12.46126199625));
#295 = CARTESIAN_POINT('',(-6.011319877419,-12.44632276872));
#296 = CARTESIAN_POINT('',(-6.101927673604,-12.43611522166));
#297 = CARTESIAN_POINT('',(-6.192548697824,-12.43100961306));
#298 = CARTESIAN_POINT('',(-6.28318530718,-12.43100961306));
#299 = ( GEOMETRIC_REPRESENTATION_CONTEXT(2) 
PARAMETRIC_REPRESENTATION_CONTEXT() REPRESENTATION_CONTEXT('2D SPACE',''
  ) );
#300 = FACE_BOUND('',#301,.F.);
#301 = EDGE_LOOP('',(#302));
#302 = ORIENTED_EDGE('',*,*,#303,.F.);
#303 = EDGE_CURVE('',#304,#304,#306,.T.);
#304 = VERTEX_POINT('',#305);
#305 = CARTESIAN_POINT('',(2.6,-46.78,-12.43100961306));
#306 = SURFACE_CURVE('',#307,(#358,#412),.PCURVE_S1.);
#307 = B_SPLINE_CURVE_WITH_KNOTS('',7,(#308,#309,#310,#311,#312,#313,
    #314,#315,#316,#317,#318,#319,#320,#321,#322,#323,#324,#325,#326,
    #327,#328,#329,#330,#331,#332,#333,#334,#335,#336,#337,#338,#339,
    #340,#341,#342,#343,#344,#345,#346,#347,#348,#349,#350,#351,#352,
    #353,#354,#355,#356,#357),.UNSPECIFIED.,.T.,.F.,(8,6,6,6,6,6,6,6,8),
  (0.,0.137874990382,0.250000000003,0.362125009648,0.500000000022,
    0.637874990395,0.750000000011,0.862125009626,1.),.UNSPECIFIED.);
#308 = CARTESIAN_POINT('',(2.6,-46.78,-12.43100961306));
#309 = CARTESIAN_POINT('',(2.6,-46.50004247776,-12.43100961306));
#310 = CARTESIAN_POINT('',(2.564832393004,-46.22050981368,
    -12.43836498346));
#311 = CARTESIAN_POINT('',(2.494680627525,-45.94397807445,-12.4530379928
    ));
#312 = CARTESIAN_POINT('',(2.388711665997,-45.67330690304,
    -12.47454648016));
#313 = CARTESIAN_POINT('',(2.245361719608,-45.41215362918,
    -12.50193285999));
#314 = CARTESIAN_POINT('',(2.062596516312,-45.16564125414,
    -12.53343528419));
#315 = CARTESIAN_POINT('',(1.656215916376,-44.7592606542,-12.59289002641
    ));
#316 = CARTESIAN_POINT('',(1.442106192804,-44.58731077672,
    -12.62106455708));
#317 = CARTESIAN_POINT('',(1.19710398585,-44.43560323827,-12.64865656544
    ));
#318 = CARTESIAN_POINT('',(0.924523064738,-44.31267309457,
    -12.67284006263));
#319 = CARTESIAN_POINT('',(0.629550183516,-44.22560023591,
    -12.69066417549));
#320 = CARTESIAN_POINT('',(0.318785720888,-44.18,-12.7));
#321 = CARTESIAN_POINT('',(-0.318785720954,-44.18,-12.7));
#322 = CARTESIAN_POINT('',(-0.629550183451,-44.22560023593,
    -12.69066417548));
#323 = CARTESIAN_POINT('',(-0.924523064689,-44.31267309453,
    -12.67284006264));
#324 = CARTESIAN_POINT('',(-1.197103985904,-44.43560323827,
    -12.64865656543));
#325 = CARTESIAN_POINT('',(-1.442106192849,-44.58731077678,
    -12.62106455707));
#326 = CARTESIAN_POINT('',(-1.656215916328,-44.75926065415,
    -12.59289002642));
#327 = CARTESIAN_POINT('',(-2.062596516312,-45.16564125414,
    -12.53343528419));
#328 = CARTESIAN_POINT('',(-2.245361719608,-45.41215362918,
    -12.50193285999));
#329 = CARTESIAN_POINT('',(-2.388711665997,-45.67330690304,
    -12.47454648016));
#330 = CARTESIAN_POINT('',(-2.494680627526,-45.94397807445,
    -12.4530379928));
#331 = CARTESIAN_POINT('',(-2.564832393004,-46.22050981368,
    -12.43836498346));
#332 = CARTESIAN_POINT('',(-2.6,-46.50004247776,-12.43100961306));
#333 = CARTESIAN_POINT('',(-2.6,-47.05995752223,-12.43100961306));
#334 = CARTESIAN_POINT('',(-2.564832393004,-47.33949018631,
    -12.43836498346));
#335 = CARTESIAN_POINT('',(-2.494680627526,-47.61602192554,
    -12.4530379928));
#336 = CARTESIAN_POINT('',(-2.388711665997,-47.88669309695,
    -12.47454648016));
#337 = CARTESIAN_POINT('',(-2.245361719608,-48.14784637081,
    -12.50193285999));
#338 = CARTESIAN_POINT('',(-2.062596516312,-48.39435874585,
    -12.53343528419));
#339 = CARTESIAN_POINT('',(-1.656215916376,-48.80073934579,
    -12.59289002641));
#340 = CARTESIAN_POINT('',(-1.442106192803,-48.97268922327,
    -12.62106455708));
#341 = CARTESIAN_POINT('',(-1.19710398585,-49.12439676172,
    -12.64865656544));
#342 = CARTESIAN_POINT('',(-0.924523064739,-49.24732690542,
    -12.67284006263));
#343 = CARTESIAN_POINT('',(-0.629550183516,-49.33439976408,
    -12.69066417549));
#344 = CARTESIAN_POINT('',(-0.318785720888,-49.38,-12.7));
#345 = CARTESIAN_POINT('',(0.318785720887,-49.38,-12.7));
#346 = CARTESIAN_POINT('',(0.629550183517,-49.33439976408,
    -12.69066417549));
#347 = CARTESIAN_POINT('',(0.924523064738,-49.24732690542,
    -12.67284006263));
#348 = CARTESIAN_POINT('',(1.197103985851,-49.12439676172,
    -12.64865656544));
#349 = CARTESIAN_POINT('',(1.442106192803,-48.97268922327,
    -12.62106455708));
#350 = CARTESIAN_POINT('',(1.656215916376,-48.80073934579,
    -12.59289002641));
#351 = CARTESIAN_POINT('',(2.062596516312,-48.39435874585,
    -12.53343528419));
#352 = CARTESIAN_POINT('',(2.245361719608,-48.14784637081,
    -12.50193285999));
#353 = CARTESIAN_POINT('',(2.388711665996,-47.88669309695,
    -12.47454648016));
#354 = CARTESIAN_POINT('',(2.494680627526,-47.61602192554,-12.4530379928
    ));
#355 = CARTESIAN_POINT('',(2.564832393004,-47.33949018631,
    -12.43836498346));
#356 = CARTESIAN_POINT('',(2.6,-47.05995752223,-12.43100961306));
#357 = CARTESIAN_POINT('',(2.6,-46.78,-12.43100961306));
#358 = PCURVE('',#31,#359);
#359 = DEFINITIONAL_REPRESENTATION('',(#360),#411);
#360 = B_SPLINE_CURVE_WITH_KNOTS('',7,(#361,#362,#363,#364,#365,#366,
    #367,#368,#369,#370,#371,#372,#373,#374,#375,#376,#377,#378,#379,
    #380,#381,#382,#383,#384,#385,#386,#387,#388,#389,#390,#391,#392,
    #393,#394,#395,#396,#397,#398,#399,#400,#401,#402,#403,#404,#405,
    #406,#407,#408,#409,#410),.UNSPECIFIED.,.T.,.F.,(8,6,6,6,6,6,6,6,8),
  (0.,0.137874990382,0.250000000003,0.362125009648,0.500000000022,
    0.637874990395,0.750000000011,0.862125009626,1.),.UNSPECIFIED.);
#361 = CARTESIAN_POINT('',(-4.91857112539,-46.78));
#362 = CARTESIAN_POINT('',(-4.91857112539,-46.50004247776));
#363 = CARTESIAN_POINT('',(-4.91574210638,-46.22050981368));
#364 = CARTESIAN_POINT('',(-4.910098798062,-45.94397807445));
#365 = CARTESIAN_POINT('',(-4.901584841313,-45.67330690304));
#366 = CARTESIAN_POINT('',(-4.890094912892,-45.41215362918));
#367 = CARTESIAN_POINT('',(-4.875496454868,-45.16564125414));
#368 = CARTESIAN_POINT('',(-4.843157338406,-44.7592606542));
#369 = CARTESIAN_POINT('',(-4.826154758213,-44.58731077672));
#370 = CARTESIAN_POINT('',(-4.806746862692,-44.43560323827));
#371 = CARTESIAN_POINT('',(-4.785211807108,-44.31267309457));
#372 = CARTESIAN_POINT('',(-4.761959882536,-44.22560023591));
#373 = CARTESIAN_POINT('',(-4.73749021825,-44.18));
#374 = CARTESIAN_POINT('',(-4.687287742514,-44.18));
#375 = CARTESIAN_POINT('',(-4.662818078238,-44.22560023593));
#376 = CARTESIAN_POINT('',(-4.639566153665,-44.31267309453));
#377 = CARTESIAN_POINT('',(-4.618031098073,-44.43560323827));
#378 = CARTESIAN_POINT('',(-4.598623202553,-44.58731077678));
#379 = CARTESIAN_POINT('',(-4.581620622368,-44.75926065415));
#380 = CARTESIAN_POINT('',(-4.549281505901,-45.16564125414));
#381 = CARTESIAN_POINT('',(-4.534683047878,-45.41215362918));
#382 = CARTESIAN_POINT('',(-4.523193119457,-45.67330690304));
#383 = CARTESIAN_POINT('',(-4.514679162707,-45.94397807445));
#384 = CARTESIAN_POINT('',(-4.509035854389,-46.22050981368));
#385 = CARTESIAN_POINT('',(-4.506206835379,-46.50004247776));
#386 = CARTESIAN_POINT('',(-4.506206835379,-47.05995752223));
#387 = CARTESIAN_POINT('',(-4.509035854389,-47.33949018631));
#388 = CARTESIAN_POINT('',(-4.514679162707,-47.61602192554));
#389 = CARTESIAN_POINT('',(-4.523193119457,-47.88669309695));
#390 = CARTESIAN_POINT('',(-4.534683047878,-48.14784637081));
#391 = CARTESIAN_POINT('',(-4.549281505901,-48.39435874585));
#392 = CARTESIAN_POINT('',(-4.581620622364,-48.80073934579));
#393 = CARTESIAN_POINT('',(-4.598623202556,-48.97268922327));
#394 = CARTESIAN_POINT('',(-4.618031098077,-49.12439676172));
#395 = CARTESIAN_POINT('',(-4.639566153661,-49.24732690542));
#396 = CARTESIAN_POINT('',(-4.662818078233,-49.33439976408));
#397 = CARTESIAN_POINT('',(-4.68728774252,-49.38));
#398 = CARTESIAN_POINT('',(-4.73749021825,-49.38));
#399 = CARTESIAN_POINT('',(-4.761959882536,-49.33439976408));
#400 = CARTESIAN_POINT('',(-4.785211807109,-49.24732690542));
#401 = CARTESIAN_POINT('',(-4.806746862693,-49.12439676172));
#402 = CARTESIAN_POINT('',(-4.826154758213,-48.97268922327));
#403 = CARTESIAN_POINT('',(-4.843157338406,-48.80073934579));
#404 = CARTESIAN_POINT('',(-4.875496454868,-48.39435874585));
#405 = CARTESIAN_POINT('',(-4.890094912892,-48.14784637081));
#406 = CARTESIAN_POINT('',(-4.901584841313,-47.88669309695));
#407 = CARTESIAN_POINT('',(-4.910098798062,-47.61602192554));
#408 = CARTESIAN_POINT('',(-4.91574210638,-47.33949018631));
#409 = CARTESIAN_POINT('',(-4.91857112539,-47.05995752223));
#410 = CARTESIAN_POINT('',(-4.91857112539,-46.78));
#411 = ( GEOMETRIC_REPRESENTATION_CONTEXT(2) 
PARAMETRIC_REPRESENTATION_CONTEXT() REPRESENTATION_CONTEXT('2D SPACE',''
  ) );
#412 = PCURVE('',#413,#418);
#413 = CYLINDRICAL_SURFACE('',#414,2.6);
#414 = AXIS2_PLACEMENT_3D('',#415,#416,#417);
#415 = CARTESIAN_POINT('',(0.,-46.78,0.));
#416 = DIRECTION('',(0.,0.,1.));
#417 = DIRECTION('',(1.,0.,0.));
#418 = DEFINITIONAL_REPRESENTATION('',(#419),#470);
#419 = B_SPLINE_CURVE_WITH_KNOTS('',7,(#420,#421,#422,#423,#424,#425,
    #426,#427,#428,#429,#430,#431,#432,#433,#434,#435,#436,#437,#438,
    #439,#440,#441,#442,#443,#444,#445,#446,#447,#448,#449,#450,#451,
    #452,#453,#454,#455,#456,#457,#458,#459,#460,#461,#462,#463,#464,
    #465,#466,#467,#468,#469),.UNSPECIFIED.,.F.,.F.,(8,6,6,6,6,6,6,6,8),
  (0.,0.137874990382,0.250000000003,0.362125009648,0.500000000022,
    0.637874990395,0.750000000011,0.862125009626,1.),.UNSPECIFIED.);
#420 = CARTESIAN_POINT('',(0.,-12.43100961306));
#421 = CARTESIAN_POINT('',(0.107675970092,-12.43100961306));
#422 = CARTESIAN_POINT('',(0.215188164256,-12.43836498346));
#423 = CARTESIAN_POINT('',(0.323587278771,-12.4530379928));
#424 = CARTESIAN_POINT('',(0.433777700157,-12.47454648016));
#425 = CARTESIAN_POINT('',(0.546745183774,-12.50193285999));
#426 = CARTESIAN_POINT('',(0.663493560677,-12.53343528419));
#427 = CARTESIAN_POINT('',(0.884535466798,-12.59289002641));
#428 = CARTESIAN_POINT('',(0.989529929082,-12.62106455708));
#429 = CARTESIAN_POINT('',(1.099011534451,-12.64865656544));
#430 = CARTESIAN_POINT('',(1.212199542613,-12.67284006263));
#431 = CARTESIAN_POINT('',(1.328661760942,-12.69066417549));
#432 = CARTESIAN_POINT('',(1.448186434146,-12.7));
#433 = CARTESIAN_POINT('',(1.69340621947,-12.7));
#434 = CARTESIAN_POINT('',(1.812930892622,-12.69066417548));
#435 = CARTESIAN_POINT('',(1.92939311096,-12.67284006264));
#436 = CARTESIAN_POINT('',(2.042581119151,-12.64865656543));
#437 = CARTESIAN_POINT('',(2.152062724539,-12.62106455707));
#438 = CARTESIAN_POINT('',(2.257057186765,-12.59289002642));
#439 = CARTESIAN_POINT('',(2.478099092912,-12.53343528419));
#440 = CARTESIAN_POINT('',(2.594847469816,-12.50193285999));
#441 = CARTESIAN_POINT('',(2.707814953432,-12.47454648016));
#442 = CARTESIAN_POINT('',(2.818005374819,-12.4530379928));
#443 = CARTESIAN_POINT('',(2.926404489333,-12.43836498346));
#444 = CARTESIAN_POINT('',(3.033916683498,-12.43100961306));
#445 = CARTESIAN_POINT('',(3.249268623681,-12.43100961306));
#446 = CARTESIAN_POINT('',(3.356780817846,-12.43836498346));
#447 = CARTESIAN_POINT('',(3.465179932361,-12.4530379928));
#448 = CARTESIAN_POINT('',(3.575370353747,-12.47454648016));
#449 = CARTESIAN_POINT('',(3.688337837364,-12.50193285999));
#450 = CARTESIAN_POINT('',(3.805086214267,-12.53343528419));
#451 = CARTESIAN_POINT('',(4.026128120389,-12.59289002641));
#452 = CARTESIAN_POINT('',(4.131122582671,-12.62106455708));
#453 = CARTESIAN_POINT('',(4.240604188041,-12.64865656544));
#454 = CARTESIAN_POINT('',(4.353792196202,-12.67284006263));
#455 = CARTESIAN_POINT('',(4.470254414533,-12.69066417549));
#456 = CARTESIAN_POINT('',(4.589779087736,-12.7));
#457 = CARTESIAN_POINT('',(4.834998873034,-12.7));
#458 = CARTESIAN_POINT('',(4.954523546237,-12.69066417549));
#459 = CARTESIAN_POINT('',(5.070985764567,-12.67284006263));
#460 = CARTESIAN_POINT('',(5.184173772729,-12.64865656544));
#461 = CARTESIAN_POINT('',(5.293655378098,-12.62106455708));
#462 = CARTESIAN_POINT('',(5.398649840381,-12.59289002641));
#463 = CARTESIAN_POINT('',(5.619691746502,-12.53343528419));
#464 = CARTESIAN_POINT('',(5.736440123405,-12.50193285999));
#465 = CARTESIAN_POINT('',(5.849407607022,-12.47454648016));
#466 = CARTESIAN_POINT('',(5.959598028408,-12.4530379928));
#467 = CARTESIAN_POINT('',(6.067997142923,-12.43836498346));
#468 = CARTESIAN_POINT('',(6.175509337088,-12.43100961306));
#469 = CARTESIAN_POINT('',(6.28318530718,-12.43100961306));
#470 = ( GEOMETRIC_REPRESENTATION_CONTEXT(2) 
PARAMETRIC_REPRESENTATION_CONTEXT() REPRESENTATION_CONTEXT('2D SPACE',''
  ) );
#471 = FACE_BOUND('',#472,.F.);
#472 = EDGE_LOOP('',(#473));
#473 = ORIENTED_EDGE('',*,*,#474,.F.);
#474 = EDGE_CURVE('',#475,#475,#477,.T.);
#475 = VERTEX_POINT('',#476);
#476 = CARTESIAN_POINT('',(2.6,46.78,-12.43100961306));
#477 = SURFACE_CURVE('',#478,(#529,#583),.PCURVE_S1.);
#478 = B_SPLINE_CURVE_WITH_KNOTS('',7,(#479,#480,#481,#482,#483,#484,
    #485,#486,#487,#488,#489,#490,#491,#492,#493,#494,#495,#496,#497,
    #498,#499,#500,#501,#502,#503,#504,#505,#506,#507,#508,#509,#510,
    #511,#512,#513,#514,#515,#516,#517,#518,#519,#520,#521,#522,#523,
    #524,#525,#526,#527,#528),.UNSPECIFIED.,.T.,.F.,(8,6,6,6,6,6,6,6,8),
  (0.,0.137874990381,0.250000000002,0.362125009636,0.500000000013,
    0.637874990389,0.750000000007,0.862125009624,1.),.UNSPECIFIED.);
#479 = CARTESIAN_POINT('',(2.6,46.78,-12.43100961306));
#480 = CARTESIAN_POINT('',(2.6,47.059957522238,-12.43100961306));
#481 = CARTESIAN_POINT('',(2.564832393004,47.339490186316,
    -12.43836498346));
#482 = CARTESIAN_POINT('',(2.494680627526,47.616021925545,-12.4530379928
    ));
#483 = CARTESIAN_POINT('',(2.388711665996,47.886693096956,
    -12.47454648016));
#484 = CARTESIAN_POINT('',(2.245361719608,48.147846370815,
    -12.50193285999));
#485 = CARTESIAN_POINT('',(2.062596516312,48.394358745858,
    -12.53343528419));
#486 = CARTESIAN_POINT('',(1.656215916376,48.800739345794,
    -12.59289002641));
#487 = CARTESIAN_POINT('',(1.442106192804,48.972689223278,
    -12.62106455708));
#488 = CARTESIAN_POINT('',(1.19710398585,49.124396761723,-12.64865656544
    ));
#489 = CARTESIAN_POINT('',(0.924523064739,49.247326905427,
    -12.67284006263));
#490 = CARTESIAN_POINT('',(0.629550183516,49.334399764083,
    -12.69066417549));
#491 = CARTESIAN_POINT('',(0.318785720888,49.38,-12.7));
#492 = CARTESIAN_POINT('',(-0.318785720927,49.38,-12.7));
#493 = CARTESIAN_POINT('',(-0.629550183478,49.334399764072,
    -12.69066417549));
#494 = CARTESIAN_POINT('',(-0.92452306471,49.247326905452,
    -12.67284006264));
#495 = CARTESIAN_POINT('',(-1.197103985882,49.124396761723,
    -12.64865656543));
#496 = CARTESIAN_POINT('',(-1.44210619283,48.972689223239,
    -12.62106455707));
#497 = CARTESIAN_POINT('',(-1.656215916348,48.800739345822,
    -12.59289002642));
#498 = CARTESIAN_POINT('',(-2.062596516312,48.394358745858,
    -12.53343528419));
#499 = CARTESIAN_POINT('',(-2.245361719608,48.147846370816,
    -12.50193285999));
#500 = CARTESIAN_POINT('',(-2.388711665996,47.886693096955,
    -12.47454648016));
#501 = CARTESIAN_POINT('',(-2.494680627526,47.616021925546,
    -12.4530379928));
#502 = CARTESIAN_POINT('',(-2.564832393004,47.339490186316,
    -12.43836498346));
#503 = CARTESIAN_POINT('',(-2.6,47.059957522238,-12.43100961306));
#504 = CARTESIAN_POINT('',(-2.6,46.500042477762,-12.43100961306));
#505 = CARTESIAN_POINT('',(-2.564832393004,46.220509813685,
    -12.43836498346));
#506 = CARTESIAN_POINT('',(-2.494680627525,45.943978074453,
    -12.4530379928));
#507 = CARTESIAN_POINT('',(-2.388711665997,45.673306903046,
    -12.47454648016));
#508 = CARTESIAN_POINT('',(-2.245361719607,45.412153629184,
    -12.50193285999));
#509 = CARTESIAN_POINT('',(-2.062596516312,45.165641254142,
    -12.53343528419));
#510 = CARTESIAN_POINT('',(-1.656215916376,44.759260654206,
    -12.59289002641));
#511 = CARTESIAN_POINT('',(-1.442106192804,44.587310776722,
    -12.62106455708));
#512 = CARTESIAN_POINT('',(-1.197103985849,44.435603238277,
    -12.64865656544));
#513 = CARTESIAN_POINT('',(-0.92452306474,44.312673094573,
    -12.67284006263));
#514 = CARTESIAN_POINT('',(-0.629550183516,44.225600235917,
    -12.69066417549));
#515 = CARTESIAN_POINT('',(-0.318785720888,44.18,-12.7));
#516 = CARTESIAN_POINT('',(0.318785720888,44.18,-12.7));
#517 = CARTESIAN_POINT('',(0.629550183516,44.225600235917,
    -12.69066417549));
#518 = CARTESIAN_POINT('',(0.92452306474,44.312673094573,-12.67284006263
    ));
#519 = CARTESIAN_POINT('',(1.19710398585,44.435603238278,-12.64865656544
    ));
#520 = CARTESIAN_POINT('',(1.442106192804,44.587310776722,
    -12.62106455708));
#521 = CARTESIAN_POINT('',(1.656215916376,44.759260654206,
    -12.59289002641));
#522 = CARTESIAN_POINT('',(2.062596516312,45.165641254142,
    -12.53343528419));
#523 = CARTESIAN_POINT('',(2.245361719608,45.412153629185,
    -12.50193285999));
#524 = CARTESIAN_POINT('',(2.388711665996,45.673306903044,
    -12.47454648016));
#525 = CARTESIAN_POINT('',(2.494680627526,45.943978074455,-12.4530379928
    ));
#526 = CARTESIAN_POINT('',(2.564832393004,46.220509813684,
    -12.43836498346));
#527 = CARTESIAN_POINT('',(2.6,46.500042477762,-12.43100961306));
#528 = CARTESIAN_POINT('',(2.6,46.78,-12.43100961306));
#529 = PCURVE('',#31,#530);
#530 = DEFINITIONAL_REPRESENTATION('',(#531),#582);
#531 = B_SPLINE_CURVE_WITH_KNOTS('',7,(#532,#533,#534,#535,#536,#537,
    #538,#539,#540,#541,#542,#543,#544,#545,#546,#547,#548,#549,#550,
    #551,#552,#553,#554,#555,#556,#557,#558,#559,#560,#561,#562,#563,
    #564,#565,#566,#567,#568,#569,#570,#571,#572,#573,#574,#575,#576,
    #577,#578,#579,#580,#581),.UNSPECIFIED.,.T.,.F.,(8,6,6,6,6,6,6,6,8),
  (0.,0.137874990381,0.250000000002,0.362125009636,0.500000000013,
    0.637874990389,0.750000000007,0.862125009624,1.),.UNSPECIFIED.);
#532 = CARTESIAN_POINT('',(-4.91857112539,46.78));
#533 = CARTESIAN_POINT('',(-4.91857112539,47.059957522238));
#534 = CARTESIAN_POINT('',(-4.91574210638,47.339490186316));
#535 = CARTESIAN_POINT('',(-4.910098798062,47.616021925545));
#536 = CARTESIAN_POINT('',(-4.901584841313,47.886693096956));
#537 = CARTESIAN_POINT('',(-4.890094912892,48.147846370815));
#538 = CARTESIAN_POINT('',(-4.875496454868,48.394358745858));
#539 = CARTESIAN_POINT('',(-4.843157338406,48.800739345794));
#540 = CARTESIAN_POINT('',(-4.826154758213,48.972689223278));
#541 = CARTESIAN_POINT('',(-4.806746862692,49.124396761723));
#542 = CARTESIAN_POINT('',(-4.785211807109,49.247326905428));
#543 = CARTESIAN_POINT('',(-4.761959882536,49.334399764083));
#544 = CARTESIAN_POINT('',(-4.73749021825,49.38));
#545 = CARTESIAN_POINT('',(-4.687287742516,49.38));
#546 = CARTESIAN_POINT('',(-4.662818078236,49.334399764072));
#547 = CARTESIAN_POINT('',(-4.639566153663,49.247326905452));
#548 = CARTESIAN_POINT('',(-4.618031098074,49.124396761723));
#549 = CARTESIAN_POINT('',(-4.598623202554,48.972689223239));
#550 = CARTESIAN_POINT('',(-4.581620622366,48.800739345822));
#551 = CARTESIAN_POINT('',(-4.549281505901,48.394358745858));
#552 = CARTESIAN_POINT('',(-4.534683047878,48.147846370816));
#553 = CARTESIAN_POINT('',(-4.523193119457,47.886693096955));
#554 = CARTESIAN_POINT('',(-4.514679162707,47.616021925545));
#555 = CARTESIAN_POINT('',(-4.509035854389,47.339490186316));
#556 = CARTESIAN_POINT('',(-4.506206835379,47.059957522238));
#557 = CARTESIAN_POINT('',(-4.506206835379,46.500042477762));
#558 = CARTESIAN_POINT('',(-4.509035854389,46.220509813685));
#559 = CARTESIAN_POINT('',(-4.514679162707,45.943978074453));
#560 = CARTESIAN_POINT('',(-4.523193119457,45.673306903046));
#561 = CARTESIAN_POINT('',(-4.534683047878,45.412153629184));
#562 = CARTESIAN_POINT('',(-4.549281505901,45.165641254142));
#563 = CARTESIAN_POINT('',(-4.581620622364,44.759260654206));
#564 = CARTESIAN_POINT('',(-4.598623202556,44.587310776722));
#565 = CARTESIAN_POINT('',(-4.618031098077,44.435603238277));
#566 = CARTESIAN_POINT('',(-4.639566153661,44.312673094573));
#567 = CARTESIAN_POINT('',(-4.662818078233,44.225600235917));
#568 = CARTESIAN_POINT('',(-4.687287742519,44.18));
#569 = CARTESIAN_POINT('',(-4.73749021825,44.18));
#570 = CARTESIAN_POINT('',(-4.761959882536,44.225600235917));
#571 = CARTESIAN_POINT('',(-4.785211807109,44.312673094573));
#572 = CARTESIAN_POINT('',(-4.806746862692,44.435603238278));
#573 = CARTESIAN_POINT('',(-4.826154758213,44.587310776722));
#574 = CARTESIAN_POINT('',(-4.843157338406,44.759260654206));
#575 = CARTESIAN_POINT('',(-4.875496454868,45.165641254142));
#576 = CARTESIAN_POINT('',(-4.890094912892,45.412153629185));
#577 = CARTESIAN_POINT('',(-4.901584841313,45.673306903044));
#578 = CARTESIAN_POINT('',(-4.910098798062,45.943978074455));
#579 = CARTESIAN_POINT('',(-4.91574210638,46.220509813684));
#580 = CARTESIAN_POINT('',(-4.91857112539,46.500042477762));
#581 = CARTESIAN_POINT('',(-4.91857112539,46.78));
#582 = ( GEOMETRIC_REPRESENTATION_CONTEXT(2) 
PARAMETRIC_REPRESENTATION_CONTEXT() REPRESENTATION_CONTEXT('2D SPACE',''
  ) );
#583 = PCURVE('',#584,#589);
#584 = CYLINDRICAL_SURFACE('',#585,2.6);
#585 = AXIS2_PLACEMENT_3D('',#586,#587,#588);
#586 = CARTESIAN_POINT('',(0.,46.78,0.));
#587 = DIRECTION('',(0.,0.,1.));
#588 = DIRECTION('',(1.,0.,0.));
#589 = DEFINITIONAL_REPRESENTATION('',(#590),#641);
#590 = B_SPLINE_CURVE_WITH_KNOTS('',7,(#591,#592,#593,#594,#595,#596,
    #597,#598,#599,#600,#601,#602,#603,#604,#605,#606,#607,#608,#609,
    #610,#611,#612,#613,#614,#615,#616,#617,#618,#619,#620,#621,#622,
    #623,#624,#625,#626,#627,#628,#629,#630,#631,#632,#633,#634,#635,
    #636,#637,#638,#639,#640),.UNSPECIFIED.,.F.,.F.,(8,6,6,6,6,6,6,6,8),
  (0.,0.137874990381,0.250000000002,0.362125009636,0.500000000013,
    0.637874990389,0.750000000007,0.862125009624,1.),.UNSPECIFIED.);
#591 = CARTESIAN_POINT('',(0.,-12.43100961306));
#592 = CARTESIAN_POINT('',(0.107675970092,-12.43100961306));
#593 = CARTESIAN_POINT('',(0.215188164257,-12.43836498346));
#594 = CARTESIAN_POINT('',(0.323587278771,-12.4530379928));
#595 = CARTESIAN_POINT('',(0.433777700158,-12.47454648016));
#596 = CARTESIAN_POINT('',(0.546745183774,-12.50193285999));
#597 = CARTESIAN_POINT('',(0.663493560678,-12.53343528419));
#598 = CARTESIAN_POINT('',(0.884535466798,-12.59289002641));
#599 = CARTESIAN_POINT('',(0.989529929082,-12.62106455708));
#600 = CARTESIAN_POINT('',(1.099011534451,-12.64865656544));
#601 = CARTESIAN_POINT('',(1.212199542613,-12.67284006263));
#602 = CARTESIAN_POINT('',(1.328661760943,-12.69066417549));
#603 = CARTESIAN_POINT('',(1.448186434145,-12.7));
#604 = CARTESIAN_POINT('',(1.693406219459,-12.7));
#605 = CARTESIAN_POINT('',(1.812930892632,-12.69066417549));
#606 = CARTESIAN_POINT('',(1.929393110967,-12.67284006264));
#607 = CARTESIAN_POINT('',(2.042581119146,-12.64865656543));
#608 = CARTESIAN_POINT('',(2.152062724526,-12.62106455707));
#609 = CARTESIAN_POINT('',(2.257057186776,-12.59289002642));
#610 = CARTESIAN_POINT('',(2.478099092912,-12.53343528419));
#611 = CARTESIAN_POINT('',(2.594847469816,-12.50193285999));
#612 = CARTESIAN_POINT('',(2.707814953432,-12.47454648016));
#613 = CARTESIAN_POINT('',(2.818005374819,-12.4530379928));
#614 = CARTESIAN_POINT('',(2.926404489333,-12.43836498346));
#615 = CARTESIAN_POINT('',(3.033916683498,-12.43100961306));
#616 = CARTESIAN_POINT('',(3.249268623681,-12.43100961306));
#617 = CARTESIAN_POINT('',(3.356780817846,-12.43836498346));
#618 = CARTESIAN_POINT('',(3.465179932362,-12.4530379928));
#619 = CARTESIAN_POINT('',(3.575370353747,-12.47454648016));
#620 = CARTESIAN_POINT('',(3.688337837364,-12.50193285999));
#621 = CARTESIAN_POINT('',(3.805086214267,-12.53343528419));
#622 = CARTESIAN_POINT('',(4.026128120388,-12.59289002641));
#623 = CARTESIAN_POINT('',(4.131122582671,-12.62106455708));
#624 = CARTESIAN_POINT('',(4.240604188041,-12.64865656544));
#625 = CARTESIAN_POINT('',(4.353792196202,-12.67284006263));
#626 = CARTESIAN_POINT('',(4.470254414533,-12.69066417549));
#627 = CARTESIAN_POINT('',(4.589779087735,-12.7));
#628 = CARTESIAN_POINT('',(4.834998873034,-12.7));
#629 = CARTESIAN_POINT('',(4.954523546237,-12.69066417549));
#630 = CARTESIAN_POINT('',(5.070985764567,-12.67284006263));
#631 = CARTESIAN_POINT('',(5.184173772728,-12.64865656544));
#632 = CARTESIAN_POINT('',(5.293655378098,-12.62106455708));
#633 = CARTESIAN_POINT('',(5.398649840381,-12.59289002641));
#634 = CARTESIAN_POINT('',(5.619691746502,-12.53343528419));
#635 = CARTESIAN_POINT('',(5.736440123406,-12.50193285999));
#636 = CARTESIAN_POINT('',(5.849407607022,-12.47454648016));
#637 = CARTESIAN_POINT('',(5.959598028408,-12.4530379928));
#638 = CARTESIAN_POINT('',(6.067997142923,-12.43836498346));
#639 = CARTESIAN_POINT('',(6.175509337088,-12.43100961306));
#640 = CARTESIAN_POINT('',(6.28318530718,-12.43100961306));
#641 = ( GEOMETRIC_REPRESENTATION_CONTEXT(2) 
PARAMETRIC_REPRESENTATION_CONTEXT() REPRESENTATION_CONTEXT('2D SPACE',''
  ) );
#642 = FACE_BOUND('',#643,.F.);
#643 = EDGE_LOOP('',(#644));
#644 = ORIENTED_EDGE('',*,*,#645,.T.);
#645 = EDGE_CURVE('',#646,#646,#648,.T.);
#646 = VERTEX_POINT('',#647);
#647 = CARTESIAN_POINT('',(2.6,46.78,12.43100961306));
#648 = SURFACE_CURVE('',#649,(#708,#770),.PCURVE_S1.);
#649 = B_SPLINE_CURVE_WITH_KNOTS('',8,(#650,#651,#652,#653,#654,#655,
    #656,#657,#658,#659,#660,#661,#662,#663,#664,#665,#666,#667,#668,
    #669,#670,#671,#672,#673,#674,#675,#676,#677,#678,#679,#680,#681,
    #682,#683,#684,#685,#686,#687,#688,#689,#690,#691,#692,#693,#694,
    #695,#696,#697,#698,#699,#700,#701,#702,#703,#704,#705,#706,#707),
  .UNSPECIFIED.,.T.,.F.,(9,7,7,7,7,7,7,7,9),(0.,0.144369347274,
    0.261775806631,0.379182265974,0.523551613253,0.678073556466,
    0.809516651721,0.90062289458,1.),.UNSPECIFIED.);
#650 = CARTESIAN_POINT('',(2.6,46.78,12.43100961306));
#651 = CARTESIAN_POINT('',(2.6,47.024962831959,12.43100961306));
#652 = CARTESIAN_POINT('',(2.573624294753,47.269607020296,
    12.436526140861));
#653 = CARTESIAN_POINT('',(2.52098753958,47.512322523335,12.4475356143)
  );
#654 = CARTESIAN_POINT('',(2.441696146761,47.75135751125,12.463792236485
    ));
#655 = CARTESIAN_POINT('',(2.334955436101,47.984625574652,
    12.484816372603));
#656 = CARTESIAN_POINT('',(2.199670418784,48.209474464577,
    12.509808466046));
#657 = CARTESIAN_POINT('',(2.034581655659,48.422373606511,
    12.537533945198));
#658 = CARTESIAN_POINT('',(1.678998630692,48.777956631478,
    12.589556844649));
#659 = CARTESIAN_POINT('',(1.495633623709,48.929701753886,
    12.614020924414));
#660 = CARTESIAN_POINT('',(1.288979813485,49.067506434792,
    12.638309562303));
#661 = CARTESIAN_POINT('',(1.060813525296,49.185861833587,
    12.660748314041));
#662 = CARTESIAN_POINT('',(0.813908234251,49.279979227434,
    12.679524104961));
#663 = CARTESIAN_POINT('',(0.551859067841,49.345799823055,
    12.692998131618));
#664 = CARTESIAN_POINT('',(0.278937505809,49.38,12.7));
#665 = CARTESIAN_POINT('',(-0.278937505777,49.38,12.7));
#666 = CARTESIAN_POINT('',(-0.551859067859,49.345799823062,
    12.69299813162));
#667 = CARTESIAN_POINT('',(-0.81390823428,49.279979227423,
    12.679524104958));
#668 = CARTESIAN_POINT('',(-1.060813525294,49.185861833575,
    12.660748314039));
#669 = CARTESIAN_POINT('',(-1.288979813457,49.067506434806,
    12.638309562306));
#670 = CARTESIAN_POINT('',(-1.495633623697,48.929701753907,
    12.614020924416));
#671 = CARTESIAN_POINT('',(-1.678998630715,48.777956631456,
    12.589556844645));
#672 = CARTESIAN_POINT('',(-2.034581655659,48.422373606511,
    12.537533945198));
#673 = CARTESIAN_POINT('',(-2.199670418784,48.209474464576,
    12.509808466046));
#674 = CARTESIAN_POINT('',(-2.334955436101,47.984625574653,
    12.484816372603));
#675 = CARTESIAN_POINT('',(-2.441696146761,47.75135751125,
    12.463792236485));
#676 = CARTESIAN_POINT('',(-2.52098753958,47.512322523334,12.4475356143)
  );
#677 = CARTESIAN_POINT('',(-2.573624294753,47.269607020297,
    12.436526140861));
#678 = CARTESIAN_POINT('',(-2.6,47.024962831958,12.43100961306));
#679 = CARTESIAN_POINT('',(-2.6,46.517810459611,12.43100961306));
#680 = CARTESIAN_POINT('',(-2.569782881066,46.256054784758,
    12.437329420188));
#681 = CARTESIAN_POINT('',(-2.509525397668,45.996670868391,
    12.449933428228));
#682 = CARTESIAN_POINT('',(-2.418680876421,45.741741882736,
    12.468503403366));
#683 = CARTESIAN_POINT('',(-2.296195944994,45.493889338879,
    12.492416925734));
#684 = CARTESIAN_POINT('',(-2.14063841728,45.256543494965,
    12.520612507732));
#685 = CARTESIAN_POINT('',(-1.950397678186,45.034337549317,
    12.551418738668));
#686 = CARTESIAN_POINT('',(-1.531636336623,44.663347373606,
    12.608799915948));
#687 = CARTESIAN_POINT('',(-1.305689964088,44.502008897728,
    12.636332052234));
#688 = CARTESIAN_POINT('',(-1.048730838115,44.362055972788,
    12.66262792555));
#689 = CARTESIAN_POINT('',(-0.76577598171,44.252988572201,
    12.684716438559));
#690 = CARTESIAN_POINT('',(-0.463962929053,44.181665801041,
    12.699697421297));
#691 = CARTESIAN_POINT('',(-0.151671345884,44.152307562972,
    12.705784511349));
#692 = CARTESIAN_POINT('',(0.162132661994,44.166414454685,
    12.702669091139));
#693 = CARTESIAN_POINT('',(0.68112641806,44.261523590301,12.683503814851
    ));
#694 = CARTESIAN_POINT('',(0.889875608387,44.320628345371,
    12.671724872326));
#695 = CARTESIAN_POINT('',(1.092678258565,44.399486798997,
    12.656333508862));
#696 = CARTESIAN_POINT('',(1.287373673479,44.497392036998,
    12.637877039298));
#697 = CARTESIAN_POINT('',(1.471900908133,44.613359852812,12.6170994081)
  );
#698 = CARTESIAN_POINT('',(1.644333191013,44.746140932078,
    12.594889949661));
#699 = CARTESIAN_POINT('',(1.802918736348,44.894231308154,
    12.572210866749));
#700 = CARTESIAN_POINT('',(2.102338059975,45.23220585805,12.525779938149
    ));
#701 = CARTESIAN_POINT('',(2.240358555396,45.424782877409,
    12.502101591098));
#702 = CARTESIAN_POINT('',(2.358132675405,45.631344413835,
    12.480197001375));
#703 = CARTESIAN_POINT('',(2.454020119929,45.849357582537,
    12.461261996252));
#704 = CARTESIAN_POINT('',(2.526784757529,46.076099743676,
    12.446322768725));
#705 = CARTESIAN_POINT('',(2.575589458313,46.308730206315,
    12.436115221669));
#706 = CARTESIAN_POINT('',(2.6,46.544344815676,12.43100961306));
#707 = CARTESIAN_POINT('',(2.6,46.78,12.43100961306));
#708 = PCURVE('',#31,#709);
#709 = DEFINITIONAL_REPRESENTATION('',(#710),#769);
#710 = B_SPLINE_CURVE_WITH_KNOTS('',8,(#711,#712,#713,#714,#715,#716,
    #717,#718,#719,#720,#721,#722,#723,#724,#725,#726,#727,#728,#729,
    #730,#731,#732,#733,#734,#735,#736,#737,#738,#739,#740,#741,#742,
    #743,#744,#745,#746,#747,#748,#749,#750,#751,#752,#753,#754,#755,
    #756,#757,#758,#759,#760,#761,#762,#763,#764,#765,#766,#767,#768),
  .UNSPECIFIED.,.T.,.F.,(9,7,7,7,7,7,7,7,9),(0.,0.144369347274,
    0.261775806631,0.379182265974,0.523551613253,0.678073556466,
    0.809516651721,0.90062289458,1.),.UNSPECIFIED.);
#711 = CARTESIAN_POINT('',(-1.36461418179,46.78));
#712 = CARTESIAN_POINT('',(-1.36461418179,47.024962831959));
#713 = CARTESIAN_POINT('',(-1.366735946047,47.269607020296));
#714 = CARTESIAN_POINT('',(-1.370970268498,47.512322523335));
#715 = CARTESIAN_POINT('',(-1.377343487492,47.75135751125));
#716 = CARTESIAN_POINT('',(-1.385909189025,47.984625574653));
#717 = CARTESIAN_POINT('',(-1.396740008794,48.209474464576));
#718 = CARTESIAN_POINT('',(-1.409918229997,48.422373606511));
#719 = CARTESIAN_POINT('',(-1.438214956904,48.777956631478));
#720 = CARTESIAN_POINT('',(-1.452779903917,48.929701753886));
#721 = CARTESIAN_POINT('',(-1.469160483665,49.067506434793));
#722 = CARTESIAN_POINT('',(-1.487205972279,49.185861833587));
#723 = CARTESIAN_POINT('',(-1.506692971788,49.279979227434));
#724 = CARTESIAN_POINT('',(-1.527342840716,49.345799823055));
#725 = CARTESIAN_POINT('',(-1.54883274366,49.38));
#726 = CARTESIAN_POINT('',(-1.592759909927,49.38));
#727 = CARTESIAN_POINT('',(-1.614249812875,49.345799823062));
#728 = CARTESIAN_POINT('',(-1.634899681804,49.279979227423));
#729 = CARTESIAN_POINT('',(-1.654386681311,49.185861833575));
#730 = CARTESIAN_POINT('',(-1.672432169923,49.067506434806));
#731 = CARTESIAN_POINT('',(-1.688812749671,48.929701753907));
#732 = CARTESIAN_POINT('',(-1.703377696688,48.777956631456));
#733 = CARTESIAN_POINT('',(-1.731674423593,48.422373606511));
#734 = CARTESIAN_POINT('',(-1.744852644796,48.209474464576));
#735 = CARTESIAN_POINT('',(-1.755683464565,47.984625574653));
#736 = CARTESIAN_POINT('',(-1.764249166097,47.75135751125));
#737 = CARTESIAN_POINT('',(-1.770622385092,47.512322523334));
#738 = CARTESIAN_POINT('',(-1.774856707543,47.269607020297));
#739 = CARTESIAN_POINT('',(-1.7769784718,47.024962831958));
#740 = CARTESIAN_POINT('',(-1.7769784718,46.517810459611));
#741 = CARTESIAN_POINT('',(-1.774547691036,46.256054784758));
#742 = CARTESIAN_POINT('',(-1.769700317889,45.99667086839));
#743 = CARTESIAN_POINT('',(-1.762399383054,45.741741882736));
#744 = CARTESIAN_POINT('',(-1.752573642142,45.493889338879));
#745 = CARTESIAN_POINT('',(-1.740128149521,45.256543494965));
#746 = CARTESIAN_POINT('',(-1.724957938289,45.034337549317));
#747 = CARTESIAN_POINT('',(-1.691676488326,44.663347373606));
#748 = CARTESIAN_POINT('',(-1.673755840715,44.502008897729));
#749 = CARTESIAN_POINT('',(-1.653423585206,44.362055972786));
#750 = CARTESIAN_POINT('',(-1.63108965285,44.252988572204));
#751 = CARTESIAN_POINT('',(-1.607316203845,44.181665801039));
#752 = CARTESIAN_POINT('',(-1.582739238378,44.152307562973));
#753 = CARTESIAN_POINT('',(-1.558038045853,44.166414454685));
#754 = CARTESIAN_POINT('',(-1.517144541848,44.261523590301));
#755 = CARTESIAN_POINT('',(-1.500684558847,44.320628345371));
#756 = CARTESIAN_POINT('',(-1.48467487551,44.399486798997));
#757 = CARTESIAN_POINT('',(-1.469280876428,44.497392036998));
#758 = CARTESIAN_POINT('',(-1.454663282308,44.613359852812));
#759 = CARTESIAN_POINT('',(-1.440976065298,44.746140932078));
#760 = CARTESIAN_POINT('',(-1.428362843437,44.894231308154));
#761 = CARTESIAN_POINT('',(-1.404504736516,45.23220585805));
#762 = CARTESIAN_POINT('',(-1.393479635542,45.424782877409));
#763 = CARTESIAN_POINT('',(-1.384048365174,45.631344413835));
#764 = CARTESIAN_POINT('',(-1.376352886954,45.849357582537));
#765 = CARTESIAN_POINT('',(-1.370503897691,46.076099743676));
#766 = CARTESIAN_POINT('',(-1.366577866032,46.308730206315));
#767 = CARTESIAN_POINT('',(-1.36461418179,46.544344815676));
#768 = CARTESIAN_POINT('',(-1.36461418179,46.78));
#769 = ( GEOMETRIC_REPRESENTATION_CONTEXT(2) 
PARAMETRIC_REPRESENTATION_CONTEXT() REPRESENTATION_CONTEXT('2D SPACE',''
  ) );
#770 = PCURVE('',#771,#776);
#771 = CYLINDRICAL_SURFACE('',#772,2.6);
#772 = AXIS2_PLACEMENT_3D('',#773,#774,#775);
#773 = CARTESIAN_POINT('',(0.,46.78,0.));
#774 = DIRECTION('',(-0.,-0.,-1.));
#775 = DIRECTION('',(1.,0.,0.));
#776 = DEFINITIONAL_REPRESENTATION('',(#777),#836);
#777 = B_SPLINE_CURVE_WITH_KNOTS('',8,(#778,#779,#780,#781,#782,#783,
    #784,#785,#786,#787,#788,#789,#790,#791,#792,#793,#794,#795,#796,
    #797,#798,#799,#800,#801,#802,#803,#804,#805,#806,#807,#808,#809,
    #810,#811,#812,#813,#814,#815,#816,#817,#818,#819,#820,#821,#822,
    #823,#824,#825,#826,#827,#828,#829,#830,#831,#832,#833,#834,#835),
  .UNSPECIFIED.,.F.,.F.,(9,7,7,7,7,7,7,7,9),(0.,0.144369347274,
    0.261775806631,0.379182265974,0.523551613253,0.678073556466,
    0.809516651721,0.90062289458,1.),.UNSPECIFIED.);
#778 = CARTESIAN_POINT('',(0.,-12.43100961306));
#779 = CARTESIAN_POINT('',(-9.42164738302E-02,-12.43100961306));
#780 = CARTESIAN_POINT('',(-0.188310115715,-12.43652614086));
#781 = CARTESIAN_POINT('',(-0.282937610828,-12.4475356143));
#782 = CARTESIAN_POINT('',(-0.378682489464,-12.46379223648));
#783 = CARTESIAN_POINT('',(-0.476140506514,-12.4848163726));
#784 = CARTESIAN_POINT('',(-0.575932278,-12.50980846604));
#785 = CARTESIAN_POINT('',(-0.678731636017,-12.53753394519));
#786 = CARTESIAN_POINT('',(-0.872143303886,-12.58955684464));
#787 = CARTESIAN_POINT('',(-0.963281313502,-12.61402092441));
#788 = CARTESIAN_POINT('',(-1.057955932427,-12.6383095623));
#789 = CARTESIAN_POINT('',(-1.155605538533,-12.66074831404));
#790 = CARTESIAN_POINT('',(-1.255872874497,-12.67952410496));
#791 = CARTESIAN_POINT('',(-1.35854292925,-12.69299813161));
#792 = CARTESIAN_POINT('',(-1.463512670715,-12.7));
#793 = CARTESIAN_POINT('',(-1.678079982863,-12.7));
#794 = CARTESIAN_POINT('',(-1.783049724346,-12.69299813162));
#795 = CARTESIAN_POINT('',(-1.885719779104,-12.67952410495));
#796 = CARTESIAN_POINT('',(-1.985987115058,-12.66074831403));
#797 = CARTESIAN_POINT('',(-2.083636721152,-12.6383095623));
#798 = CARTESIAN_POINT('',(-2.178311340079,-12.61402092441));
#799 = CARTESIAN_POINT('',(-2.269449349716,-12.58955684464));
#800 = CARTESIAN_POINT('',(-2.462861017572,-12.53753394519));
#801 = CARTESIAN_POINT('',(-2.56566037559,-12.50980846604));
#802 = CARTESIAN_POINT('',(-2.665452147076,-12.4848163726));
#803 = CARTESIAN_POINT('',(-2.762910164125,-12.46379223648));
#804 = CARTESIAN_POINT('',(-2.858655042762,-12.4475356143));
#805 = CARTESIAN_POINT('',(-2.953282537875,-12.43652614086));
#806 = CARTESIAN_POINT('',(-3.04737617976,-12.43100961306));
#807 = CARTESIAN_POINT('',(-3.242434784508,-12.43100961306));
#808 = CARTESIAN_POINT('',(-3.343109727614,-12.43732942018));
#809 = CARTESIAN_POINT('',(-3.444436563851,-12.44993342822));
#810 = CARTESIAN_POINT('',(-3.547150861955,-12.46850340336));
#811 = CARTESIAN_POINT('',(-3.651982739297,-12.49241692573));
#812 = CARTESIAN_POINT('',(-3.759693076971,-12.52061250773));
#813 = CARTESIAN_POINT('',(-3.871134790848,-12.55141873866));
#814 = CARTESIAN_POINT('',(-4.086311466455,-12.60879991594));
#815 = CARTESIAN_POINT('',(-4.192507943847,-12.63633205223));
#816 = CARTESIAN_POINT('',(-4.303651556901,-12.66262792555));
#817 = CARTESIAN_POINT('',(-4.418267961484,-12.68471643855));
#818 = CARTESIAN_POINT('',(-4.535347795891,-12.69969742129));
#819 = CARTESIAN_POINT('',(-4.654079996341,-12.70578451134));
#820 = CARTESIAN_POINT('',(-4.773775076785,-12.70266909113));
#821 = CARTESIAN_POINT('',(-4.976712188664,-12.68350381485));
#822 = CARTESIAN_POINT('',(-5.059782731478,-12.67172487232));
#823 = CARTESIAN_POINT('',(-5.142847367772,-12.65633350886));
#824 = CARTESIAN_POINT('',(-5.225911652265,-12.63787703929));
#825 = CARTESIAN_POINT('',(-5.30898172207,-12.6170994081));
#826 = CARTESIAN_POINT('',(-5.392059940727,-12.59488994966));
#827 = CARTESIAN_POINT('',(-5.47514012967,-12.57221086674));
#828 = CARTESIAN_POINT('',(-5.648805253138,-12.52577993814));
#829 = CARTESIAN_POINT('',(-5.739447768352,-12.50210159109));
#830 = CARTESIAN_POINT('',(-5.830085742192,-12.48019700137));
#831 = CARTESIAN_POINT('',(-5.920709231954,-12.46126199625));
#832 = CARTESIAN_POINT('',(-6.011319877419,-12.44632276872));
#833 = CARTESIAN_POINT('',(-6.101927673604,-12.43611522166));
#834 = CARTESIAN_POINT('',(-6.192548697824,-12.43100961306));
#835 = CARTESIAN_POINT('',(-6.28318530718,-12.43100961306));
#836 = ( GEOMETRIC_REPRESENTATION_CONTEXT(2) 
PARAMETRIC_REPRESENTATION_CONTEXT() REPRESENTATION_CONTEXT('2D SPACE',''
  ) );
#837 = ADVANCED_FACE('',(#838),#771,.F.);
#838 = FACE_BOUND('',#839,.T.);
#839 = EDGE_LOOP('',(#840,#864,#885,#886));
#840 = ORIENTED_EDGE('',*,*,#841,.F.);
#841 = EDGE_CURVE('',#842,#842,#844,.T.);
#842 = VERTEX_POINT('',#843);
#843 = CARTESIAN_POINT('',(2.6,46.78,0.));
#844 = SURFACE_CURVE('',#845,(#850,#857),.PCURVE_S1.);
#845 = CIRCLE('',#846,2.6);
#846 = AXIS2_PLACEMENT_3D('',#847,#848,#849);
#847 = CARTESIAN_POINT('',(0.,46.78,0.));
#848 = DIRECTION('',(0.,0.,1.));
#849 = DIRECTION('',(1.,0.,0.));
#850 = PCURVE('',#771,#851);
#851 = DEFINITIONAL_REPRESENTATION('',(#852),#856);
#852 = LINE('',#853,#854);
#853 = CARTESIAN_POINT('',(-0.,0.));
#854 = VECTOR('',#855,1.);
#855 = DIRECTION('',(-1.,0.));
#856 = ( GEOMETRIC_REPRESENTATION_CONTEXT(2) 
PARAMETRIC_REPRESENTATION_CONTEXT() REPRESENTATION_CONTEXT('2D SPACE',''
  ) );
#857 = PCURVE('',#584,#858);
#858 = DEFINITIONAL_REPRESENTATION('',(#859),#863);
#859 = LINE('',#860,#861);
#860 = CARTESIAN_POINT('',(0.,0.));
#861 = VECTOR('',#862,1.);
#862 = DIRECTION('',(1.,0.));
#863 = ( GEOMETRIC_REPRESENTATION_CONTEXT(2) 
PARAMETRIC_REPRESENTATION_CONTEXT() REPRESENTATION_CONTEXT('2D SPACE',''
  ) );
#864 = ORIENTED_EDGE('',*,*,#865,.T.);
#865 = EDGE_CURVE('',#842,#646,#866,.T.);
#866 = SEAM_CURVE('',#867,(#871,#878),.PCURVE_S1.);
#867 = LINE('',#868,#869);
#868 = CARTESIAN_POINT('',(2.6,46.78,0.));
#869 = VECTOR('',#870,1.);
#870 = DIRECTION('',(0.,0.,1.));
#871 = PCURVE('',#771,#872);
#872 = DEFINITIONAL_REPRESENTATION('',(#873),#877);
#873 = LINE('',#874,#875);
#874 = CARTESIAN_POINT('',(-6.28318530718,0.));
#875 = VECTOR('',#876,1.);
#876 = DIRECTION('',(-0.,-1.));
#877 = ( GEOMETRIC_REPRESENTATION_CONTEXT(2) 
PARAMETRIC_REPRESENTATION_CONTEXT() REPRESENTATION_CONTEXT('2D SPACE',''
  ) );
#878 = PCURVE('',#771,#879);
#879 = DEFINITIONAL_REPRESENTATION('',(#880),#884);
#880 = LINE('',#881,#882);
#881 = CARTESIAN_POINT('',(-0.,0.));
#882 = VECTOR('',#883,1.);
#883 = DIRECTION('',(-0.,-1.));
#884 = ( GEOMETRIC_REPRESENTATION_CONTEXT(2) 
PARAMETRIC_REPRESENTATION_CONTEXT() REPRESENTATION_CONTEXT('2D SPACE',''
  ) );
#885 = ORIENTED_EDGE('',*,*,#645,.T.);
#886 = ORIENTED_EDGE('',*,*,#865,.F.);
#887 = ADVANCED_FACE('',(#888),#584,.F.);
#888 = FACE_BOUND('',#889,.F.);
#889 = EDGE_LOOP('',(#890,#891,#912,#913));
#890 = ORIENTED_EDGE('',*,*,#841,.F.);
#891 = ORIENTED_EDGE('',*,*,#892,.T.);
#892 = EDGE_CURVE('',#842,#475,#893,.T.);
#893 = SEAM_CURVE('',#894,(#898,#905),.PCURVE_S1.);
#894 = LINE('',#895,#896);
#895 = CARTESIAN_POINT('',(2.6,46.78,0.));
#896 = VECTOR('',#897,1.);
#897 = DIRECTION('',(-0.,-0.,-1.));
#898 = PCURVE('',#584,#899);
#899 = DEFINITIONAL_REPRESENTATION('',(#900),#904);
#900 = LINE('',#901,#902);
#901 = CARTESIAN_POINT('',(6.28318530718,0.));
#902 = VECTOR('',#903,1.);
#903 = DIRECTION('',(0.,-1.));
#904 = ( GEOMETRIC_REPRESENTATION_CONTEXT(2) 
PARAMETRIC_REPRESENTATION_CONTEXT() REPRESENTATION_CONTEXT('2D SPACE',''
  ) );
#905 = PCURVE('',#584,#906);
#906 = DEFINITIONAL_REPRESENTATION('',(#907),#911);
#907 = LINE('',#908,#909);
#908 = CARTESIAN_POINT('',(0.,0.));
#909 = VECTOR('',#910,1.);
#910 = DIRECTION('',(0.,-1.));
#911 = ( GEOMETRIC_REPRESENTATION_CONTEXT(2) 
PARAMETRIC_REPRESENTATION_CONTEXT() REPRESENTATION_CONTEXT('2D SPACE',''
  ) );
#912 = ORIENTED_EDGE('',*,*,#474,.T.);
#913 = ORIENTED_EDGE('',*,*,#892,.F.);
#914 = ADVANCED_FACE('',(#915),#413,.F.);
#915 = FACE_BOUND('',#916,.F.);
#916 = EDGE_LOOP('',(#917,#941,#962,#963));
#917 = ORIENTED_EDGE('',*,*,#918,.F.);
#918 = EDGE_CURVE('',#919,#919,#921,.T.);
#919 = VERTEX_POINT('',#920);
#920 = CARTESIAN_POINT('',(2.6,-46.78,0.));
#921 = SURFACE_CURVE('',#922,(#927,#934),.PCURVE_S1.);
#922 = CIRCLE('',#923,2.6);
#923 = AXIS2_PLACEMENT_3D('',#924,#925,#926);
#924 = CARTESIAN_POINT('',(0.,-46.78,0.));
#925 = DIRECTION('',(0.,0.,1.));
#926 = DIRECTION('',(1.,0.,0.));
#927 = PCURVE('',#413,#928);
#928 = DEFINITIONAL_REPRESENTATION('',(#929),#933);
#929 = LINE('',#930,#931);
#930 = CARTESIAN_POINT('',(0.,0.));
#931 = VECTOR('',#932,1.);
#932 = DIRECTION('',(1.,0.));
#933 = ( GEOMETRIC_REPRESENTATION_CONTEXT(2) 
PARAMETRIC_REPRESENTATION_CONTEXT() REPRESENTATION_CONTEXT('2D SPACE',''
  ) );
#934 = PCURVE('',#234,#935);
#935 = DEFINITIONAL_REPRESENTATION('',(#936),#940);
#936 = LINE('',#937,#938);
#937 = CARTESIAN_POINT('',(-0.,0.));
#938 = VECTOR('',#939,1.);
#939 = DIRECTION('',(-1.,0.));
#940 = ( GEOMETRIC_REPRESENTATION_CONTEXT(2) 
PARAMETRIC_REPRESENTATION_CONTEXT() REPRESENTATION_CONTEXT('2D SPACE',''
  ) );
#941 = ORIENTED_EDGE('',*,*,#942,.T.);
#942 = EDGE_CURVE('',#919,#304,#943,.T.);
#943 = SEAM_CURVE('',#944,(#948,#955),.PCURVE_S1.);
#944 = LINE('',#945,#946);
#945 = CARTESIAN_POINT('',(2.6,-46.78,0.));
#946 = VECTOR('',#947,1.);
#947 = DIRECTION('',(-0.,-0.,-1.));
#948 = PCURVE('',#413,#949);
#949 = DEFINITIONAL_REPRESENTATION('',(#950),#954);
#950 = LINE('',#951,#952);
#951 = CARTESIAN_POINT('',(6.28318530718,0.));
#952 = VECTOR('',#953,1.);
#953 = DIRECTION('',(0.,-1.));
#954 = ( GEOMETRIC_REPRESENTATION_CONTEXT(2) 
PARAMETRIC_REPRESENTATION_CONTEXT() REPRESENTATION_CONTEXT('2D SPACE',''
  ) );
#955 = PCURVE('',#413,#956);
#956 = DEFINITIONAL_REPRESENTATION('',(#957),#961);
#957 = LINE('',#958,#959);
#958 = CARTESIAN_POINT('',(0.,0.));
#959 = VECTOR('',#960,1.);
#960 = DIRECTION('',(0.,-1.));
#961 = ( GEOMETRIC_REPRESENTATION_CONTEXT(2) 
PARAMETRIC_REPRESENTATION_CONTEXT() REPRESENTATION_CONTEXT('2D SPACE',''
  ) );
#962 = ORIENTED_EDGE('',*,*,#303,.T.);
#963 = ORIENTED_EDGE('',*,*,#942,.F.);
#964 = ADVANCED_FACE('',(#965),#234,.F.);
#965 = FACE_BOUND('',#966,.T.);
#966 = EDGE_LOOP('',(#967,#968,#989,#990));
#967 = ORIENTED_EDGE('',*,*,#918,.F.);
#968 = ORIENTED_EDGE('',*,*,#969,.T.);
#969 = EDGE_CURVE('',#919,#109,#970,.T.);
#970 = SEAM_CURVE('',#971,(#975,#982),.PCURVE_S1.);
#971 = LINE('',#972,#973);
#972 = CARTESIAN_POINT('',(2.6,-46.78,0.));
#973 = VECTOR('',#974,1.);
#974 = DIRECTION('',(0.,0.,1.));
#975 = PCURVE('',#234,#976);
#976 = DEFINITIONAL_REPRESENTATION('',(#977),#981);
#977 = LINE('',#978,#979);
#978 = CARTESIAN_POINT('',(-6.28318530718,0.));
#979 = VECTOR('',#980,1.);
#980 = DIRECTION('',(-0.,-1.));
#981 = ( GEOMETRIC_REPRESENTATION_CONTEXT(2) 
PARAMETRIC_REPRESENTATION_CONTEXT() REPRESENTATION_CONTEXT('2D SPACE',''
  ) );
#982 = PCURVE('',#234,#983);
#983 = DEFINITIONAL_REPRESENTATION('',(#984),#988);
#984 = LINE('',#985,#986);
#985 = CARTESIAN_POINT('',(-0.,0.));
#986 = VECTOR('',#987,1.);
#987 = DIRECTION('',(-0.,-1.));
#988 = ( GEOMETRIC_REPRESENTATION_CONTEXT(2) 
PARAMETRIC_REPRESENTATION_CONTEXT() REPRESENTATION_CONTEXT('2D SPACE',''
  ) );
#989 = ORIENTED_EDGE('',*,*,#108,.T.);
#990 = ORIENTED_EDGE('',*,*,#969,.F.);
#991 = ADVANCED_FACE('',(#992),#93,.F.);
#992 = FACE_BOUND('',#993,.F.);
#993 = EDGE_LOOP('',(#994));
#994 = ORIENTED_EDGE('',*,*,#78,.T.);
#995 = ADVANCED_FACE('',(#996),#43,.T.);
#996 = FACE_BOUND('',#997,.T.);
#997 = EDGE_LOOP('',(#998));
#998 = ORIENTED_EDGE('',*,*,#21,.T.);
#999 = ( GEOMETRIC_REPRESENTATION_CONTEXT(3) 
GLOBAL_UNCERTAINTY_ASSIGNED_CONTEXT((#1003)) 
GLOBAL_UNIT_ASSIGNED_CONTEXT((#1000,#1001,#1002)) REPRESENTATION_CONTEXT
('Context #1','3D Context with UNIT and UNCERTAINTY') );
#1000 = ( LENGTH_UNIT() NAMED_UNIT(*) SI_UNIT(.MILLI.,.METRE.) );
#1001 = ( NAMED_UNIT(*) PLANE_ANGLE_UNIT() SI_UNIT($,.RADIAN.) );
#1002 = ( NAMED_UNIT(*) SI_UNIT($,.STERADIAN.) SOLID_ANGLE_UNIT() );
#1003 = UNCERTAINTY_MEASURE_WITH_UNIT(LENGTH_MEASURE(1.E-07),#1000,
  'distance_accuracy_value','confusion accuracy');
#1004 = PRODUCT_RELATED_PRODUCT_CATEGORY('part',$,(#7));
ENDSEC;
END-ISO-10303-21;
